<?xml version="1.0" encoding="UTF-8"?>
<svg id="Layer_2" data-name="Layer 2" xmlns="http://www.w3.org/2000/svg" viewBox="0 0 33.94 24.47">
  <defs>
    <style>
      .cls-1 {
        stroke-width: 0px;
      }
    </style>
  </defs>
  <g id="Layer_1-2" data-name="Layer 1">
    <path class="cls-1" d="m2.65,17.15c.36-.29.26-.59.26-.59-.37.46-.8.58-1.16.57.27-.02.5-.16.71-.42l.46-.57.23.7c.02.07.04.17.03.28.34-.06.76-.18,1.07-.47.35-.32.65-.48.93-.48.02,0,.04,0,.07,0-.14.03-.33.13-.58.36-.76.71-2,.61-2,.61Zm.64-3.88c.02.1.18,1.01-.28,1.57-.16.19-.45.42-.96.42-.11,0-.23-.01-.35-.03l-.22-.04-.08-.21c-.03-.08-.28-.77.09-1.35.26-.4.72-.63,1.38-.68l.35-.02.07.34Zm-.24-.32c-1.68.11-1.13,1.5-1.13,1.5,1.48.26,1.13-1.5,1.13-1.5Zm5.15,11.43c.48-.39,1.1-.61,1.76-.61.18,0,.37.02.55.05.28.05.57.08.85.08.53,0,.86-.09.9-.1l.88-.25-.78-.47s-.06-.03-.08-.05c-.14.03-.73.16-1.54,0-1.06-.2-2.16.11-2.91.89-.15.16-.3.34-.42.54,0,0,.72-.11,2.18-.15-.56.01-1.02.03-1.38.06Zm2.03-4.15s.14,1.2,1.33,2.25c-.94-.89-1.08-1.85-1.08-1.9l-.02-.18-.04-.44c-.24-1.58.14-2.45.83-3.36.5-.66,1.14-1.01,1.61-1.19.38-.15.61-.53.56-.94-.78.18-3.76,1.14-3.09,5.55,0,0-1.84-4.97,3.09-5.57v-.02c-1.61.15-2.75.75-3.39,1.77-.98,1.56-.45,3.59-.27,4.18h0c-1.29,2.09-2.63,3.05-3.32,3.43-.25.14-.52.23-.81.26l-1.88.24c.33-.16.71-.25,1.07-.33.21-.05.4-.09.57-.15.81-.27,1.41-2.38,1.64-3.27h0c.02-.1.01-.2-.04-.29-1.25-2.19-1.14-3.49-1.14-3.51v-.09s-.02-.08-.02-.08c-.04-.12-.13-.25-.26-.34.02.03.03.06.03.06,0,0-.16,1.38,1.19,3.75,0,0-.69,2.76-1.38,2.99-.69.23-2.07.26-2.6,1.38l3.09-.39c.26-.03.52-.11.75-.23.7-.37,2.18-1.35,3.59-3.62Zm4.16,4.23s.1,0,.14.01c0,0,1.43-.26.9-1.78-.05,0-.07-.01-.07-.01l-.69-.14.24.66c.13.37.14.66.02.88-.13.24-.4.35-.53.39Zm-11.09-1.31l.12-.16c.06-.08,1.21-1.67,1.98-3.41.14.33.29.67.39.87-.08.59-.22,1.28-.33,1.45-.18.29-1.33,1.26-2.05,1.35-.16.02-.36.03-.58.04.27,0,.55-.02.78-.05.86-.11,2.09-1.16,2.33-1.53.23-.37.41-1.74.41-1.74-.16-.27-.81-1.82-.81-1.82-.55,1.57-1.62,3.24-2.08,3.91-.13.18-.33.3-.55.32-1.21.13-1.57.86-1.57.86,0,0,.42.03.95.05.21-.07.48-.12.82-.13h.2Zm26.63-10s1.58-2.69,0-3.31c-1-.39-1.58,1.71-1.87,3.32-.39,2.14-1.58,4.08-3.38,5.32-1.37.94-3.21,1.58-5.5,1.08-.07.55-.2,1.06-.38,1.49-.61,1.42-1.91,1.66-2.71,1.67.77-.03,1.72-.32,2.2-1.43.83-1.94.45-5.99-1.6-7.34-1.51-.99-2.84-1.4-4.57-1.4-.52,0-1.11.04-1.8.11-.21.02-.43.04-.64.04-1.63,0-2.72-.74-3.23-1.18-.44-.38-.99-.59-1.56-.59-.02,0-.04,0-.07,0h-.34s-.08-.3-.08-.3c0,0-.2-.8-.77-1.2-.16.41-.31.96-.19,1.25l.14.33-.31.17S.5,12.75.56,15.89v.15s-.09.11-.09.11c-.13.15-.25.4-.21.5-.6-.39.06-1.16.06-1.16-.07-3.42,2.92-5.06,2.92-5.06-.3-.69.36-1.94.36-1.94,1.05.36,1.35,1.64,1.35,1.64,0,0,.02,0,.03,0,.7-.02,1.38.23,1.9.69.56.49,1.75,1.26,3.56,1.05,2.63-.3,4.44-.1,6.64,1.35,1.15.76,1.83,2.29,2.08,3.88.49-.26,3.5-2.05,3.15-5.58C21.91,7.69,19.56.24,28.25,0c8.69-.24,5.91,10.32,1.68,13.16Zm-3.42-12.15c-3.28.53-4.36,3.55-3.25,9.65,1.1,6.1-3.07,7.39-3.07,7.39,5.42.07,5.77-7.34,5.62-10.92-.07-1.78,1.05-3.44,2.76-3.91,2.57-.7,4.05,1.86,4.05,1.86.48-2.35-2.83-4.61-6.11-4.08Z"/>
  </g>
</svg>