<?xml version="1.0" encoding="UTF-8"?>
<svg id="Layer_2" data-name="Layer 2" xmlns="http://www.w3.org/2000/svg" viewBox="0 0 33.8 33.94">
  <defs>
    <style>
      .cls-1 {
        stroke-width: 0px;
      }
    </style>
  </defs>
  <g id="Layer_1-2" data-name="Layer 1">
    <path class="cls-1" d="m.24,8.75c.05.25.11.5.24.73.1.16.18.34.32.47.1.09.2.18.3.27.15.11.32.2.48.29.21.1.44.16.66.24.35.04.71.04,1.06,0,.25-.1.52-.12.76-.23.19-.12.41-.19.63-.26v-.07c.28-.11.6-.17.86.03.16.6.07,1.24-.06,1.84-.15.51-.15,1.05-.3,1.56-.07.58-.04,1.17-.03,1.76.26.25.57.44.89.61.03.03.1.11.14.14.07.03.22.08.29.1.25.09.47.26.68.43-.55-.04-1.08-.24-1.61-.4-.22-.07-.45-.06-.68-.07,0,.17,0,.33.02.5.13.17.09.39.11.58.01.43.11.85.19,1.27.13.33.09.7.23,1.03.08.3.17.6.24.9.21.36.49.7.91.83.29.25.71.17,1.02.36.49.06.96.2,1.45.22.11.08.24.12.37.16,0,.05,0,.15,0,.2-.29.01-.56-.07-.83-.15-.34-.13-.73-.07-1.05-.23-.43-.1-.86-.16-1.3-.13-.15.54-.12,1.12,0,1.66l.08-.02c.05.32.33.51.56.71.15.08.3.15.45.24.23.11.47.18.72.23.89.33,1.86.22,2.78.4-.2.06-.39.13-.57.23-.32.05-.44.34-.35.63.49.27,1.05.38,1.6.49.42.08.85.13,1.28.1.15-.01.3.02.45.05-.25.11-.52.18-.79.23-.14,0-.25.09-.35.18,0,.09.02.26.03.35.2.09.45.1.62.27.46.06.93.04,1.39.04.02.48.01.97.06,1.45.03,0,.08.01.1.01,0,.47.11.94.29,1.37.08.2.15.41.28.59.08.13.17.27.25.41.12.14.23.29.35.43.13.12.27.23.41.35.14.08.28.16.42.25.28.13.57.23.86.32.56.15,1.15.07,1.72.1-.02.05-.05.14-.06.19-.02.12-.05.24-.06.37.08.14.15.29.23.44.17.01.34.02.51.02.08-.15.26-.12.4-.15.07.38.56.14.83.22.44.23.92-.17,1.37.07.09-.04.19-.08.28-.12.14-.13.25-.39.47-.35.8.04,1.61.06,2.42,0,.26-.14.67-.23.91,0,.25.15.56.14.81.28,1.04.21,2.12.23,3.18.18.35-.05.71-.12,1.06-.02.32.08.64-.04.96-.09.26-.05.55-.19.62-.47-.01-.19-.11-.35-.19-.51-.08-.06-.16-.13-.23-.21-.13-.07-.25-.13-.39-.17-.88-.14-1.76.03-2.63.09.12-.07.25-.13.37-.19.81-.51,1.18-1.48,1.26-2.39.08-1.18-.09-2.36-.01-3.54.04-.26.04-.55.18-.78,0-.05.02-.15.03-.2.08-.06.17-.13.26-.2,0,.13.01.27.02.4.04.06.11.19.14.25.12-.06.23-.11.35-.17.08-.06.17-.12.26-.18.02-.05.05-.14.06-.19.02.06.05.18.07.25.46-.11.81-.49,1.02-.9.39-.71-.01-1.48,0-2.22-.13-.27-.14-.6-.34-.83-.05-.11-.09-.24-.18-.33-.09-.19-.19-.38-.31-.55-.08-.12-.16-.24-.23-.36-.1-.15-.21-.3-.32-.45-.1-.15-.21-.3-.34-.43,0-.04,0-.12,0-.16.11-.03.22-.06.33-.09.22-.13.42-.28.63-.43.35-.34.62-.75.82-1.2.13-.27.11-.59.24-.85.04-.42.04-.84,0-1.26-.14-.15-.15-.39,0-.53.23-.37.23-.82.08-1.22-.05-.02-.14-.07-.19-.1-.03-.16-.06-.31-.09-.47-.04-.1-.07-.19-.11-.29-.3-.4-.11-.9-.09-1.35.17-1.09.39-2.21.23-3.32-.14-.06-.29-.08-.44-.08-.03.04-.1.12-.13.16-.13.06-.25.15-.35.27-.3.25-.55.54-.81.82-.12.15-.24.3-.37.43-.04.09-.08.17-.12.26-.44.02-.87-.16-1.31-.08-.43.06-.86.09-1.28.18-.08-.1-.15-.21-.22-.31-.2-.24-.39-.49-.63-.7-.09-.1-.19-.2-.29-.29-.13-.13-.29-.24-.44-.35-.36-.24-.98-.34-1.25.09-.27.45-.37.98-.36,1.5.02.61-.06,1.25.16,1.83.04.3.03.59.02.89-.27.05-.55.08-.8.2-.87.12-1.7.44-2.53.73-.21.11-.43.18-.66.26-.2.12-.41.21-.63.27v.06c-.36.13-.68.35-1.01.53-.16.1-.33.2-.47.33-.87.57-1.65,1.31-2.22,2.19-.12.13-.23.28-.33.43-.07.12-.15.24-.23.36-.25.36-.47.75-.69,1.13-.09.15-.14.35-.33.41-.08-1.23-.1-2.47.09-3.68.14-.32.23-.65.28-1h.07c.07-.25.15-.49.28-.71.09-.17.18-.33.29-.48.08-.14.15-.28.23-.41.09-.08.16-.18.22-.29.03-.03.1-.1.14-.13.38-.47.76-.94,1.06-1.46.09-.17.17-.35.28-.51.12-.23.18-.47.24-.72h.07c.09-.33.19-.67.22-1.02.18-.55.14-1.16.08-1.73-.11-.16-.08-.38-.11-.56-.05-.51-.27-.97-.44-1.44-.24-.37-.36-.82-.66-1.16-.19-.25-.33-.55-.58-.74-.38.04-.72.27-1.04.48-.11.08-.21.16-.32.24-.09.07-.18.14-.27.21-.09.1-.19.19-.29.28-.07.09-.15.18-.22.27-.17.21-.35.42-.52.63-.25.33-.45.68-.68,1.02,0-.19-.02-.4.11-.56.16-.46.37-.9.51-1.37.23-.46.38-.96.58-1.43.11-.25.18-.52.29-.78.19-.23.24-.63-.11-.74-.28-.24-.61-.41-.91-.64-.16-.08-.32-.15-.48-.23-.47-.22-.97-.43-1.5-.46,0,.16,0,.31,0,.47,0,.63-.2,1.26-.06,1.88.11.52.07,1.05.03,1.58-.3-1.03-.39-2.1-.64-3.15-.06-.34-.08-.68-.2-1.01-.53-.12-1.04-.32-1.58-.32C9.45,0,8.68-.03,7.91.02c-.33.04-.65.11-.98.11-.54.03-1.04.27-1.53.48-.12.06-.25.12-.38.17.03.13.1.23.21.31.26.25.54.5.77.78.18.21.37.41.56.6.11.16.22.32.37.44.31.25.56.56.82.86.01.05.03.16.04.21-.05,0-.15-.03-.2-.04-.1-.09-.21-.17-.3-.27-.02-.02-.06-.07-.08-.09l-.05-.06c-.62-.39-1.19-.86-1.82-1.22-.03-.03-.08-.1-.11-.13-.11-.06-.22-.11-.3-.2-.14-.08-.28-.16-.42-.23-.11-.1-.23-.2-.35-.29-.39-.03-.61.33-.91.51-.28.26-.56.53-.83.8-.27.3-.58.57-.83.9-.11.15-.21.31-.34.44-.08.14-.16.27-.25.41-.1.09-.13.22-.18.34-.03.03-.1.09-.14.12-.06.16-.12.33-.21.47-.2.54-.41,1.09-.44,1.67-.09.56.04,1.12.14,1.67h.07Z"/>
  </g>
</svg>