<?xml version="1.0" encoding="UTF-8"?>
<svg id="Layer_2" data-name="Layer 2" xmlns="http://www.w3.org/2000/svg" viewBox="0 0 33.94 32.69">
  <defs>
    <style>
      .cls-1 {
        stroke-width: 0px;
      }
    </style>
  </defs>
  <g id="Layer_1-2" data-name="Layer 1">
    <path class="cls-1" d="m5.28,15.73s-.2,1.16-1.65.76c0,0,.13-1.34,1.65-.76Zm28.41-9c.53,2.2.24,4.51-.83,6.5-.07.13-.14.25-.2.35-.76,1.31-2.71,3.59-7.07,3.54,0,0,1.46-.33,3.16-1.11,3.09-1.42,4.8-4.82,3.98-8.12-.04-.18-.09-.35-.15-.53-.55-1.64-1.59-3.27-3.5-4.27-5.31-2.79-11.58,1.93-10.42,7.82.42,2.12,1.61,4.66,4.08,7.63,9.4,11.3-10.99,14.16-10.99,14.16,0,0,4.87-1.67,5.04-3.99-1.96,2.39-4.9,3.78-8.01,3.78H1.63v-.02c.8-1.64,2.69-2.41,4.41-1.81.69.24,1.46.46,2.27.6-2.11-1.57-5.93-5.28-2.81-9.76-.43.35-.91.64-1.43.85-.38.16-.57.58-.44.97l.35,1.07s-4.95-1.35-.05-4.39c.46-.28.88-.62,1.26-1,1.19-1.2,4.25-3.83,8.13-3.62-1.69-.86-3.48-1.23-4.59-1.4-.61-.09-1.04-.64-.99-1.25l.27-3.04-.91,3.13c-.16.56-.58,1.02-1.12,1.25-2.54,1.05-3.54,2.24-3.92,3.09-.24.54.11,1.15.7,1.21l1.47.16c-9.1.54-.97-4.86,1.03-6.12.25-.16.44-.39.55-.67.61-1.61,2.09-2.05,2.22-2.09h0s.41.86.41.86c.25.51.7.89,1.25,1.05,3.45.99,5.86,2.23,7.48,3.61-2.19-6.19-2.59-10.19,3.22-13.77,2.88-1.78,6.5-1.85,9.45-.19,2.31,1.3,3.37,3.55,3.85,5.53Zm-16.41,12.72c-1.13-2.9-4.6-4.07-7.3-2.51-1.09.63-2.18,1.57-3.11,2.97.97-.93,2.26-1.89,3.94-2.86,0,0-2.72,2.66-3.87,6.1-2.12,6.39,7.29,9.92,9.86,3.69.2-.47.37-.99.52-1.56.65-2.42.53-4.33-.05-5.83Zm10.82-15.18c-1.07-.71-2.31-1.13-3.59-1.11-1.62.02-3.72.68-4.85,3.6-1.07,2.75-.62,5.87,1.08,8.28.65.92,1.5,1.98,2.6,3.14,3.68,3.83,2.6,7.19,2.6,7.19,0,0,2.03-4.37-2.64-9.68-1.37-1.56-2.18-3.55-2.14-5.62,0-.04,0-.07,0-.11.09-2.51,3.23-2.76,4.3-.49,2.06,4.37.13,7.64.13,7.64,0,0,8.33-9,2.52-12.85Z"/>
  </g>
</svg>