<?xml version="1.0" encoding="UTF-8"?>
<svg id="Layer_2" data-name="Layer 2" xmlns="http://www.w3.org/2000/svg" viewBox="0 0 24.78 33.94">
  <defs>
    <style>
      .cls-1 {
        stroke-width: 0px;
      }
    </style>
  </defs>
  <g id="Layer_1-2" data-name="Layer 1">
    <path class="cls-1" d="m4.94,19.71c0,.16.16.09.2.18-.07.17-.3,0-.38.16.01.21.27.12.35.33-.27.09-.46-.03-.65-.17-.38-.26-.65-.7-1.19-.72-.16,0-.25-.21-.33-.36-.28-.53-.63-1.05-.6-1.66.03-.64.08-1.32.54-1.85.28-.32.47-.64.24-1.07-.03-.06-.02-.16,0-.22.2-.39.03-.87.35-1.24.26-.3-.11-.51-.21-.74-.13-.3-.35-.55-.15-.9.05-.09,0-.16-.06-.24-.11-.18-.11-.36-.01-.58.38-.84.26-1.16-.57-1.58-.3-.15-.55-.36-.76-.59-.66-.73-1.44-1.38-1.67-2.41-.11-.5,0-.91.51-1.09,1.34-.47,2.56-1.28,4.02-1.4.38-.03.77-.11,1.14,0,.45.14.73-.03.95-.41.38-.68.73-1.38,1.21-2.01.3-.41.83-.55,1.02-1.06.21.14-.11.32.09.42.18.09.35,0,.46-.12.17-.2.55-.03.63-.37.05.02.12.03.16.07.08.07.07.16.03.25-.06.16-.25.23-.26.46.37-.11.59-.53,1.01-.44.07.02.27-.2.16.13-.06.17.19.08.22,0,.14-.3.39-.25.63-.23.04.11-.08.07-.09.11q-.15.53-.78,1.03s-.1.06-.09.09c.1.66-.5.64-.83.87-.23.15-.5.22-.74.55.84-.44,1.59-.86,2.48-.77-.03.13-.14.14-.21.12-.37-.08-.65.09-.94.28-.33.21-.58.53-.97.66-.09.03-.24.09-.19.22.04.14.19.13.32.11.35-.05.7-.11,1.05-.04.07.01.14.04.3.1-.34.09-.6-.11-.85.08.31.36.86.1,1.17.49-.48-.08-.92.12-1.38.1-.11,0-.22-.02-.32.02-.08.03-.25-.06-.24.18.01.3.23.04.29.14-.02.26-.6.44-.09.77.02.01.02.1,0,.13-.32.42-.07.78.12,1.14.19.37.04.79.26,1.17.15.25.36.49.41.8.02.13.18.29.35.22.15-.06.11-.24.07-.37-.03-.1-.07-.21-.07-.31-.01-.19-.01-.41.15-.51.2-.12.24.18.43.25.02-.25.06-.48-.05-.71-.04-.08-.07-.19.05-.23.09-.03.13.05.17.12.05.1.05.28.22.23.17-.05.04-.21.07-.32.08-.32-.13-.62-.11-1.04.2.39.37.68.5.98.09.21.22.19.4.2.26.02.23-.18.24-.3.08-.61-.04-1.23.19-1.82.06-.15.06-.33.22-.45.16.05.08.25.22.33.02-.03.05-.06.06-.1.05-.19.09-.39.14-.58.02-.07.04-.16.14-.15.29.02.29.03.4-.29.11.11-.02.3.16.44,0-.33.15-.57.41-.78-.02.16-.03.29-.05.45.18-.07.11-.29.27-.34.1.11.04.25-.01.33-.14.22.19.29.13.5-.07.25-.08.51-.13.79.18-.01.16-.23.37-.23-.15.32-.19.64-.12.98.07.32.22.27.42.15.14-.09.22-.23.26-.37.15-.58.67-.89.97-1.43.2.33-.02.61.06.96.14-.34.32-.57.51-.81.13.13.09.23.03.32-.08.12-.1.18.06.28.16.1.26.08.34-.05.16-.27.36-.49.63-.65.15-.09.29-.17.27.11,0,.07,0,.15.08.09.43-.3.87.04,1.3-.02.2-.03.39,0,.55-.16.17-.17.32.04.44.09.12.05-.12.13-.11.24.38.13.75.09,1.14-.05-.65.27-.54,1.03-1,1.4-.1.08-.19.23-.3.32-.1.09-.23.19-.18.34.06.16.19.19.36.21.58.06,1.15-.02,1.8-.06-.27.19-.55.17-.77.38.69.22,1.46-.22,2.09.25-.05.24-.3.07-.38.25.22.01.43.02.72.03-.49.34-1.08.34-1.41.81.05.07.31.03.25.25-.05.16-.24.09-.36.14-.26.11-.52,0-.76-.04-1.02-.12-1.98.17-2.95.33-.76.12-1.51.05-2.27.07-.23,0-.46,0-.69.05-.35.07-.32.43-.16.52.42.23.25.53.21.83-.02.18-.06.36-.1.56.16-.05.15-.18.2-.26.12-.19.16-.5.41-.52.25-.02.15.32.29.46.07.07.07.29.25.12.03-.03.11-.05.09.02-.14.56.37.98.25,1.6-.13.68-.04,1.45-.04,2.19.6-.46.56-1.21.89-1.77.14.09,0,.2.1.27.24-.17-.06-.74.48-.69.16.52.14,1.07.16,1.63.05-.13.1-.26.21-.52.03.5.05.86-.05,1.28.46-.07.38-.62.75-.74-.02.34.04.66.18.97.12.28-.01.54-.11.8-.08.19-.16.45.04.54.2.09.27-.19.37-.33.08-.11.14-.23.21-.34.18.06.13.18.11.27-.05.25-.21.53.28.49.13,0-.04.19.08.31.06.03.08-.07.13-.12.1-.09.2-.16.32-.07.1.08.06.2.03.3-.16.44-.33.88-.37,1.37.23-.06.25-.34.52-.45-.26.47-.33.93-.33,1.44.22-.09.3-.27.36-.42.12-.3.33-.09.45-.06.16.04.02.2-.03.29-.13.24-.29.46-.45.7.16.12.26-.23.39-.04.12.16.1.35,0,.52-.28.52-.69.95-.97,1.49.38-.32.75-.65,1.13-.97-.16.5-.47.91-.72,1.37.45-.3.88-.63,1.41-.82-.48.46-.81,1.05-1.32,1.48.42-.11.76-.35,1.1-.6.13-.1.28-.29.43-.11.14.16-.09.26-.18.36-.42.42-.85.8-1.18,1.32-.2.32.1.78-.47.9.31.19.46-.03.68-.04-.08.21-.27.24-.41.34-.36.26-.59.56-.38,1.02.07.15-.08.13-.14.15-.2.08-.41.13-.52.38.24.15.64-.33.75.21-.46-.04-.43.57-.86.63.13.24.38.07.53.23-.22.15-.47.18-.72.22.11.14.31.24.28.41-.02.15-.22.12-.35.15-.52.13-.63.82-.22,1.36-.16.04-.25-.1-.47-.15.22.26.4.46.63.72-.12-.04-.16-.04-.2-.06-.57-.34-.57-.34-.59.28,0,.17-.08.17-.22.2-.5.13-1.03.22-1.29.76-.14.29-.28-.11-.43,0,.1.37-.37.46-.42.43-.53-.32-1.04.17-1.57.01-.27-.08-.32.29-.4.47-.35.81-.9,1.22-1.83,1.29-2.55.18-5.09.01-7.63-.11-.28-.01-.55-.06-.82-.1-.4-.05-.51-.3-.27-.63.11-.15.26-.22.43-.24.7-.11,1.39-.39,2.12-.21.04.01.1,0,.14.02.6.44,1.2.18,1.81,0,.09-.03.18-.04.18-.16,0-.1-.05-.21-.15-.2-.32.05-.48-.21-.65-.37-.19-.19-.52-.16-.64-.45-.26-.64-.95-1.01-1.04-1.77-.04-.31-.25-.63-.38-.94-.22-.54-.21-1.14-.45-1.66-.12-.26,0-.47,0-.7,0-.32-.04-.62-.16-.9-.13-.29.14-.41.21-.61.18-.56.43-1.05.94-1.41.43-.3.43-.89.32-1.27-.17-.56-.26-1.18-.63-1.69-.4-.54-.93-.74-1.57-.75-.19,0-.38,0-.56,0Z"/>
  </g>
</svg>