<?xml version="1.0" encoding="UTF-8"?>
<svg id="Layer_2" data-name="Layer 2" xmlns="http://www.w3.org/2000/svg" viewBox="0 0 33.94 30.37">
  <defs>
    <style>
      .cls-1 {
        stroke-width: 0px;
      }
    </style>
  </defs>
  <g id="Layer_1-2" data-name="Layer 1">
    <path class="cls-1" d="m9.97,11.92c.86,1.39,1.24,3.01,1.55,4.6.55,2.86.73,5.81,1.75,8.56.62,1.7,1.69,3.32,3.31,4.22,1.27.73,2.75,1.04,4.21,1.08,2.06,0,3.91-1.5,4.64-3.38.79-1.88-.11-4.13-1.68-5.31-1.02-.81-2.35-1.09-3.62-1.07,1.13-.26,2.35-.19,3.4.3,1.84.8,3.09,2.79,2.97,4.8-.01.99-.43,1.91-.92,2.75,1.46-1.43,1.9-3.73,1.27-5.65-.35-1.17-1.14-2.15-2.06-2.93.91.39,1.75.98,2.29,1.81.9,1.26,1.15,2.82,1.25,4.33.74-1.59.87-3.41.53-5.11-.11-.42.22-.78.55-.99,1.22-.78,2.71-.94,3.95-1.66.43-.22.8-.77.47-1.23-.53-.95-1.14-1.88-1.99-2.57-.74-.61-1.72-.72-2.6-1.01-.68-.21-1.27-.61-1.9-.93.04.86.23,1.9-.48,2.55-.99,1.02-1.68,2.42-3.04,3.02-1.04.38-2.16.39-3.22.68-2.1.49-4.08,1.94-4.78,4.03-.44,1.15-.3,2.39-.1,3.56-1.11-3.36-.53-6.96.03-10.36.37-2.4,1.26-4.73,1.14-7.18-.07-2.14-.84-4.27-2.29-5.85C12.28.38,8.4-.69,5.12.45c-1.58.53-2.95,1.64-3.8,3.07C.36,5.08.03,6.93,0,8.74c1.85-.56,3.88-.7,5.74-.11,1.75.53,3.25,1.76,4.22,3.29Zm22.66,4.18c-.54.04-.87-.41-1.16-.79.56-.08.89.38,1.16.79Z"/>
  </g>
</svg>