<?xml version="1.0" encoding="UTF-8"?>
<svg id="Layer_2" data-name="Layer 2" xmlns="http://www.w3.org/2000/svg" viewBox="0 0 33.94 33.94">
  <defs>
    <style>
      .cls-1 {
        stroke-width: 0px;
      }
    </style>
  </defs>
  <g id="Layer_1-2" data-name="Layer 1">
    <path class="cls-1" d="m25.29,2.17C21.99.3,18.06-.39,14.32.21c-3.85.59-7.47,2.58-10.04,5.5C2.19,8.05.78,10.98.25,14.06c-.67,3.82.01,7.86,1.93,11.24,1.65,2.93,4.19,5.36,7.2,6.85,3,1.52,6.46,2.08,9.78,1.65,3.67-.45,7.17-2.18,9.78-4.8,2.49-2.46,4.19-5.71,4.76-9.16.64-3.74,0-7.69-1.83-11.01-1.52-2.77-3.82-5.11-6.58-6.65ZM2.94,12.52c-.37-.15-1.07.1-1.13-.45.28-.53,1.03-.33,1.52-.29,1.15.33,1.39,1.69,1.44,2.72.65.06,1.35.09,1.86.55-.47.27-1.02.15-1.53.18-.86.03-1.72.05-2.57-.06.3-.75,1.32-.56,1.98-.68.04-.94-.59-1.89-1.57-1.98Zm23.3,1.23c.95-.22,1.9.1,2.78.43-.99-.09-2.16-.25-2.95.49-.79.78-.65,2-.96,2.99-1.04,4.39-4.51,8.1-8.84,9.37-1.05.39-2.19.35-3.25.68-1.8.06-3.6.03-5.4.01.51-.83,1.6-.85,2.45-1.01-1.13-.76-2.03-1.95-2.15-3.34-.25-1.87.94-3.79,2.7-4.44.9-.4,1.9-.28,2.85-.18-1.41-.92-3.07-.2-4.6-.19-1.72.06-3.12-1.23-4.01-2.58.15-.05.44-.14.59-.18.06-.38-.54.02-.73-.05.08.86.85,1.39,1.43,1.95-.29.7-1,1.01-1.61,1.38-.53-.39-1.22-.63-1.53-1.26-.42-.67-.37-1.5-.16-2.23,1.12-.08,2.24-.06,3.37-.04.03.13.08.38.11.51-.21-.04-.91-.45-.55,0,.68.25,1.34.75,2.1.62.54-.4.63-1.18,1.21-1.57-1.13-.1-2.31-.16-3.35-.66-.25-.1-.56-.42-.34-.69.68-1,1.27-2.17,2.4-2.73.56-.32,1.21-.31,1.83-.27.43-.78,1.09-1.48,2-1.65-.36,1.1-.49,2.26-.38,3.42.41-.54.19-1.25.29-1.87.55-.06,1.15-.18,1.66.12-.78.56-1.24,1.41-1.9,2.06.43,1.96,1.71,3.64,3.34,4.77,1.54,1.07,2.91,2.65,3.14,4.58.14.84-.15,1.65-.4,2.44,1.08-.87,1.46-2.29,1.62-3.61.26-2.04-.24-4.11.16-6.15.39-2.29,1.52-4.65,3.65-5.78,1.48-.81,3.33-.67,4.77.14,2.28,1.23,3.81,3.44,5.03,5.66-1.5-1.12-3.15-2.36-5.12-2.27-1.27.05-2.24,1.02-2.83,2.07.49-.36.97-.79,1.59-.9Zm-20.34,4.67c.08-.12.25-.38.34-.5,1.09.91,2.56,1.05,3.91.83-1.17,1.28-3.07.57-4.24-.33Z"/>
  </g>
</svg>