<?xml version="1.0" encoding="UTF-8"?>
<svg id="Layer_2" data-name="Layer 2" xmlns="http://www.w3.org/2000/svg" viewBox="0 0 33.94 30.79">
  <defs>
    <style>
      .cls-1 {
        stroke-width: 0px;
      }
    </style>
  </defs>
  <g id="Layer_1-2" data-name="Layer 1">
    <path class="cls-1" d="m33.78,11.49c-.02-.87-.39-1.67-.74-2.44-.09-.17-.19-.34-.3-.49-.15-.35-.48-.59-.63-.93-.03,0-.1.02-.13.02,0-.05.02-.14.03-.19l-.18-.03c.08,0,.17,0,.25,0l-.02.14s.14-.03.18-.04v.1c.11.03.22.07.33.1.08.15.26.18.41.23-.07-.16-.13-.32-.21-.47-.24-.39-.48-.78-.75-1.15-.19-.23-.41-.44-.6-.67-.16-.14-.31-.28-.47-.41-.18-.17-.38-.32-.6-.43-.45-.22-.89-.46-1.38-.57.25-.31.71-.12,1.06-.18-.15-.1-.3-.19-.45-.29-.03-.02-.1-.07-.13-.09-.23-.11-.49-.15-.72-.27-.37-.14-.76-.19-1.14-.2l.02-.08c-.59-.02-1.19-.05-1.78,0-.37.14-.78.09-1.16.2-.1.03-.21.05-.31.08v.06c-.21.03-.42.08-.63.11v.09s-.1-.01-.13-.02c-.1.08-.22.11-.33.14-.37.22-.76.42-1.18.54.21-.24.46-.46.71-.65-.25.03-.5.06-.75.1-.1.02-.2.03-.29.05v.07c-.09.03-.2.06-.3.1-.11.04-.23.08-.34.11v.06c-.13.07-.27.15-.4.26-.23.15-.43.33-.63.52-.15.16-.31.32-.43.5h-.04c-.07.11-.14.22-.21.33-.12.15-.22.32-.33.48-.08.16-.16.33-.24.49-.07.15-.14.3-.2.45-.06.12-.14.24-.23.34.03-.07.06-.14.1-.21,0-.24,0-.48.01-.72l.1.02c0-.18-.02-.35-.05-.52-.09.16-.18.31-.27.46-.11.2-.21.42-.31.62-.07.49-.29.95-.27,1.46,0,.47-.03.95.04,1.42.02.19.03.38.08.56.1.32.05.67.19.98.02.12.04.23.06.35.1.17.09.38.19.55l.03.07c.13.3.18.62.23.93-.28-.32-.39-.74-.59-1.11-.02.3-.02.61-.01.91,0,.12.05.23.1.34.09.18.18.37.29.55,0,.02.02.06.02.08.08.11.16.23.25.34.08.14.15.28.22.43h.05c.07.17.15.35.22.53l.06-.02c.06.18.12.35.19.53.11.19.17.4.24.61,0,.06.02.17.03.23l.09-.02c.01.21.04.43.15.62,0,.14,0,.29-.02.44-.02-.08-.05-.23-.07-.3-.03,0-.09,0-.13,0-.11-.25-.28-.46-.45-.68-.11-.16-.22-.31-.34-.46-.07-.09-.14-.17-.2-.26-.08-.1-.16-.2-.24-.31-.03-.02-.09-.06-.12-.07-.12-.22-.29-.4-.45-.58-.08-.1-.17-.19-.25-.29-.6-.6-1.19-1.21-1.8-1.79-.34-.28-.67-.57-1.01-.85-.16-.07-.32-.14-.48-.21v-.1s-.1.02-.13.02c-.11-.27-.29-.51-.44-.76-.1-.14-.2-.29-.3-.43-.17-.25-.34-.5-.53-.73-.15-.23-.32-.45-.5-.66-.06-.09-.13-.18-.19-.27-.03-.02-.1-.07-.13-.1-.07-.12-.16-.22-.26-.32-.25-.29-.53-.55-.81-.8-.1-.08-.21-.15-.31-.23-.14-.09-.29-.16-.45-.2l.02-.06c-.23.02-.4-.14-.38-.37h-.07c0-.08,0-.21,0-.27h-.09c-.03-.2-.07-.4-.15-.58-.16-.4-.32-.79-.51-1.17-.13-.14-.21-.32-.26-.5h-.08c0-.18,0-.37,0-.55l.08.02c.07-.26.12-.53.27-.76.24-.83.11-1.72-.12-2.54-.07-.21-.13-.42-.2-.63-.04.19-.07.37-.1.56-.07-.1-.13-.19-.19-.28-.08.29-.02.66-.29.86-.36.29-.7.6-.97.98-.14.25-.29.5-.4.76-.94-.11-1.89-.2-2.82-.01-.12-.19-.24-.39-.37-.58-.08-.14-.16-.28-.22-.42h-.05c-.07-.15-.16-.28-.25-.41-.09-.18-.17-.36-.28-.53-.09-.18-.18-.35-.29-.52-.07-.12-.14-.23-.2-.35h-.04c-.05-.07-.16-.19-.21-.25,0,.16,0,.32,0,.48-.09-.06-.17-.13-.26-.19,0,.21-.01.43-.02.64-.11.31-.13.65-.15.98,0,.39-.02.79.14,1.15.13.3.19.62.32.92.14.3.26.7-.03.95,0,.15,0,.29,0,.44h-.07c-.05.16-.1.33-.19.48-.02.25-.01.51,0,.76h.09c0,.37.07.76-.06,1.12-.07.29-.2.57-.23.88l-.06-.02c-.12.61-.24,1.24-.11,1.86.09.35-.04.7-.1,1.04l-.08-.02c-.31,1.06-.12,2.17,0,3.25l.08-.02c.02.4.03.8.01,1.2l-.09-.02c0,.22-.03.44-.06.66,0,.61-.26,1.17-.41,1.76h-.07c-.06.19-.14.37-.26.54-.08.11-.15.22-.23.33-.09.14-.16.28-.23.43-.02.29-.02.57,0,.86h.06c.04.3.22.55.39.79.07.07.14.13.21.2.14,0,.27,0,.41,0,.06-.06.12-.12.18-.18,0-.08,0-.23,0-.31.18.04.36.09.49.23.04-.08.07-.16.11-.23,0-.29-.02-.59.09-.86.16-.06.31-.13.47-.19v-.06c.13-.05.27-.1.39-.16.14-.1.29-.19.43-.28.12-.09.25-.17.37-.26.13-.11.25-.22.38-.33-.05.15-.1.29-.16.44-.08.12-.17.24-.25.36,0,.02,0,.06,0,.08-.26.41-.18.98.01,1.41h.06c.05.11.12.23.21.33.17.08.33.18.48.29.16,0,.41.06.42-.17.11,0,.22,0,.33,0,0-.2.01-.4.03-.6.08-.12.11-.26.15-.4.05,0,.16,0,.21,0,.03.48.17.94.18,1.42.14.67-.02,1.39.24,2.04,0,.06.01.17.02.23h.07c.04.45.28.84.37,1.28l.08-.02c0,.05.03.17.04.22.07.16.13.32.18.49h.06c.06.18.13.37.19.55h.07c.06.17.13.35.2.52h.06c.05.15.12.3.2.44.1.16.2.34.29.51.08.12.15.25.24.36,0,.06,0,.17.01.23-.13,0-.27-.02-.4-.02-.13-.05-.27-.08-.41-.11,0-.02,0-.05,0-.07-.17-.04-.35-.06-.5-.15-.11-.01-.21-.02-.32-.03v-.08c-.43-.07-.88-.15-1.29.02-.43.29-.91.54-1.23.97,0,.12,0,.24.01.36h.07c.1.18.21.36.32.54.2.06.47.04.55.27.45.1.9-.09,1.35-.03,1.25-.06,2.49.22,3.74.21l-.03.08c.43,0,.85.02,1.28,0l-.02-.08c.15-.04.29-.09.44-.13,0-.04.02-.13.02-.17,1.48-.03,2.97.08,4.43-.12.2-.02.4-.03.6-.03v-.08c.37-.02.75-.05,1.12-.13.12-.03.24-.06.37-.09.21-.09.44-.11.67-.15v-.07c.26-.06.55-.1.77-.27.04-.01.14-.04.18-.05.31-.14.61-.28.89-.48.22-.13.42-.3.62-.45.13-.13.25-.26.35-.42.03-.02.09-.07.12-.09.06-.12.12-.23.19-.35.09-.16.16-.33.24-.49.6.02,1.19-.05,1.77-.22l-.02-.06c.21-.04.43-.11.6-.25.11-.05.23-.11.34-.16.18-.15.42-.25.5-.49-.07,0-.21.02-.28.02,0-.05.03-.14.04-.18.35-.17.62-.46.91-.71.09-.09.18-.18.27-.27.1-.1.18-.2.26-.32.03-.02.09-.07.12-.1.06-.1.13-.19.2-.28.07-.11.14-.22.21-.33h.05c.07-.14.13-.28.23-.41-.08.03-.17.07-.25.1-.14.15-.33.24-.51.33v.1s-.08.01-.08.01c0-.07-.02-.21-.02-.29.03,0,.08-.02.11-.03.16-.39.41-.76.48-1.18l.06.02c.08-.33.15-.65.22-.98.17-.6.14-1.24.15-1.86.02-1.28-.28-2.53-.6-3.75-.13-.47-.4-.97-.19-1.45.04-.01.12-.04.16-.06.13-.05.26-.1.39-.15-.23-.05-.47-.09-.7-.13.11-.06.22-.13.35-.17.18.02.34.11.5.18.07.03.2.09.27.12v.06c.09.04.19.09.29.14.15.13.31.24.48.35.21.23.48.41.65.67.04-.02.11-.07.15-.1-.04-.03-.12-.08-.16-.1-.04-.14-.08-.28-.12-.41.06.02.17.07.23.1.12.21.26.41.35.64.04.11.09.23.12.35h.07c.24.79.25,1.64,0,2.43h-.09c-.01.07-.03.22-.04.3.54-.03,1.01-.3,1.52-.43.19-.1.38-.19.55-.31.02,0,.06-.02.08-.02.39-.3.72-.67,1.08-1.02.05-.09.11-.18.16-.28.11-.14.21-.29.31-.44.08-.2.15-.39.21-.6l.06.02c.04-.2.09-.4.17-.59.02-.17.03-.33.04-.5l.08.03c.12-.99.1-2-.02-2.99h-.07Z"/>
  </g>
</svg>