<?xml version="1.0" encoding="UTF-8"?>
<svg id="Layer_2" data-name="Layer 2" xmlns="http://www.w3.org/2000/svg" viewBox="0 0 33.94 29.11">
  <defs>
    <style>
      .cls-1 {
        stroke-width: 0px;
      }
    </style>
  </defs>
  <g id="Layer_1-2" data-name="Layer 1">
    <path class="cls-1" d="m.45,11.64c.16.01.31.04.46.09.03.08.07.16.1.25.24.06.5.08.73.19.29.03.59.03.88,0,.17-.12.38-.1.58-.12.37.55.87.98,1.35,1.42.1.07.2.15.3.22.1.08.2.15.3.23.61.38,1.23.78,1.93,1v.05c.25.04.45.2.61.38.11.23.15.48.18.72.02,0,.05,0,.07,0,0-.04.02-.13.02-.17.01-.1.03-.21.04-.31.05,0,.15.01.2.02.14.34.25.72.07,1.07-.03.1-.06.2-.09.3.05.03.14.08.19.11-.01.17-.02.35-.02.52.02.02.06.07.09.09.03.2.09.39.13.59.01.26-.07.51-.11.76h-.07c-.08.25-.17.52-.21.79h-.07c-.06.34-.19.69-.19,1.05h-.08c-.07.68-.22,1.37-.18,2.07-.04.58.11,1.14.18,1.71h.07c.08.61.42,1.15.73,1.66.06.06.12.12.18.18,0,.05.01.15.02.2-.99.16-1.99.04-2.96-.14-.3-.13-.69-.19-.99,0-.19.12-.33.31-.33.55-.49.07-.9.36-1.2.74-.08.15-.18.31-.17.48.08.14.25.14.38.19.42.16.87.23,1.32.26,1.28.03,2.56-.03,3.84.02l-.02.08c.37.04.75.09,1.12.16.73.06,1.47.08,2.2,0,.62-.24,1.29.08,1.93.01,1.18.06,2.41-.19,3.38-.9.02-.03.07-.1.09-.13.17-.11.3-.25.44-.39.05-.09.09-.18.14-.27.19.04.37.13.53.24.09.07.21.11.32.15.03.03.09.09.12.13.18.05.36.09.53.18.49.15.99.21,1.5.21.23.02.49-.05.7.08.3.03.59.02.89,0,.25-.12.54-.1.79-.22.27-.12.55-.18.81-.32.32-.13.65-.25.97-.39.4-.2.85-.22,1.28-.29-.08-.06-.16-.12-.24-.18.18-.08.36-.16.54-.25.25-.17.45-.41.6-.67.14-.15.2-.35.29-.52.11-.24.19-.49.22-.75-.14.11-.29.22-.4.36-.12.05-.24.1-.36.16.09-.24.16-.49.28-.73.17-.44.2-.91.21-1.37h.08c0-.13.01-.26.03-.4.11-.71-.05-1.48.36-2.11-.03.03-.1.08-.13.11-.23.1-.24.4-.46.5-.04-.06-.12-.17-.15-.23-.12-.23-.18-.49-.21-.75-.07.08-.13.17-.18.26-.04-.08-.09-.16-.14-.23-.04-.22-.04-.45,0-.67.46-.24.97-.03,1.45-.02.62.02,1.25.06,1.85-.12.08-.04.16-.07.25-.11.12-.04.24-.09.37-.13.14-.11.28-.2.43-.3.38-.33.72-.69,1.07-1.05.11-.14.21-.29.26-.47.1,0,.21,0,.31,0,.04-.23.07-.46.15-.67.03-.12.06-.24.1-.36.02-.14.04-.29.05-.43.02-.24.01-.49.01-.73.06,0,.18,0,.23.01.01.05.04.16.05.21.03.04.08.11.11.15,0,.04.01.12.01.16.04-.01.12-.04.16-.06.01.12.03.24.06.36.02-.15.03-.3-.05-.43-.05-.21-.1-.43-.16-.64,0-.06,0-.18,0-.24h-.09c-.09-.98-.13-1.98-.08-2.98.03,0,.09,0,.12,0,.06.2.14.4.26.57.04.13.11.22.23.29-.01-.42-.06-.86-.26-1.25-.06-.19-.13-.38-.21-.57-.14-.27-.3-.54-.44-.82-.27-.39-.56-.78-.84-1.17-.08-.1-.17-.19-.25-.28-.12-.2-.27-.38-.43-.55-.66-.48-1.36-.91-2.13-1.19-.1-.05-.21-.09-.31-.13,0-.04.02-.12.03-.16.18-.04.31-.18.41-.33-.65.11-1.31.14-1.96.1-.73-.3-1.53-.04-2.29-.13-.4-.05-.78.11-1.16.19.04-.07.12-.21.16-.28.02-.04.05-.12.07-.16-.05,0-.15.03-.2.04h-.07c-.06.07-.12.12-.17.17-.26.12-.48.28-.71.44-.24.14-.46.3-.67.47-.13.12-.26.24-.4.35,0-.28.11-.54.21-.79.12-.16.29-.24.45-.35-.02-.08-.19-.04-.23.02-.24.3-.61.51-.69.92-.05.01-.15.03-.19.04,0-.25-.15-.47-.28-.67-.04.52,0,1.04-.05,1.55-.11.2-.13.42-.16.64-.05.11-.1.22-.15.32-.07.44-.33.82-.39,1.26-.23.37-.16.83-.32,1.21-.02.32-.04.65-.03.98.1.19.08.4.08.61,0,.85.04,1.71.21,2.55.13.43.09.89.22,1.32.01.15.03.3.04.45.04.08.07.16.08.25.03.65.1,1.29.09,1.94.02.52-.08,1.03-.08,1.55h-.08c-.05.55-.26,1.06-.47,1.56-.11.16-.21.33-.29.51-.24.29-.46.59-.75.83.09-.64.19-1.28.18-1.93h.08c.02-1.13.05-2.27-.01-3.4-.14-.27-.06-.59-.11-.88-.06-.38-.07-.78-.22-1.13-.03-.27-.08-.54-.14-.81-.04-.09-.08-.18-.12-.26-.05-.18-.05-.38-.17-.54-.02-.09-.04-.18-.05-.26-.21-.59-.46-1.17-.76-1.71-.08-.16-.16-.32-.26-.47-.14-.21-.29-.42-.41-.65-.03-.03-.1-.08-.13-.11-.11-.21-.27-.38-.42-.56-.25-.28-.52-.54-.8-.79-.19-.14-.36-.29-.52-.45-.06-.08-.13-.16-.19-.24-.1-.2-.17-.41-.28-.6-.09-.04-.18-.08-.28-.12,0-.09.02-.18.03-.27-.06-.03-.17-.09-.22-.11-.33-.15-.57-.42-.82-.68-.14-.27-.31-.52-.45-.78-.16-.27-.33-.52-.47-.8-.32-.62-.71-1.24-.81-1.95-.08-.29-.14-.58-.23-.87.13-.21,0-.48.19-.67l-.14.02c0-.06.02-.17.02-.23.19-.42.1-.95-.14-1.33-.05-.12-.1-.24-.15-.36-.05-.03-.14-.09-.18-.12-.16.03-.37-.04-.47.13-.16.25-.29.52-.44.78-.07.12-.15.24-.22.35-.18-.11-.38-.2-.57-.3-.11-.07-.24-.12-.33-.2-.04-.18-.06-.35-.09-.53-.03-.15-.03-.31-.11-.44-.05-.22-.12-.43-.22-.63-.03-.06-.09-.17-.12-.23-.06,0-.18,0-.24.01-.09.05-.18.1-.27.15-.05.05-.11.1-.16.15-.13.29-.31.57-.4.88-.05.27-.03.55-.02.83-.13,0-.26.02-.39.03-.28.12-.62.05-.88.23-.04,0-.13.02-.17.03-.18.08-.36.14-.53.23-.17.08-.35.16-.51.27-.63.37-1.18.89-1.63,1.46-.07.11-.14.21-.21.32-.15.08-.32.15-.47.23-.13.07-.26.14-.38.22-.07.07-.13.13-.2.2-.21.52.16,1.05.53,1.39.23.42.54.86,1.03.99.18.15.34.32.55.43.03.03.09.1.13.13.52.18,1.07.17,1.61.12.06.2.13.4.26.57.05.17.1.35.15.53.1.35.15.71.04,1.06l-.02.04c-.08.21-.17.42-.29.62-.4-.09-.82-.09-1.19-.28-.15-.05-.31-.09-.45-.15-.09-.02-.17-.04-.25-.06-.12-.08-.24-.15-.37-.22-.04-.01-.12-.03-.16-.04-.13-.09-.27-.15-.4-.23-.24-.12-.5-.16-.75-.25-.64-.15-1.33-.27-1.97-.1-.08.13-.17.27-.24.41-.2.06-.39.15-.5.33-.01.12,0,.24,0,.37.38.08.12.58.44.73Z"/>
  </g>
</svg>