<?xml version="1.0" encoding="UTF-8"?>
<svg id="Layer_2" data-name="Layer 2" xmlns="http://www.w3.org/2000/svg" viewBox="0 0 33.94 30.86">
  <defs>
    <style>
      .cls-1 {
        stroke-width: 0px;
      }
    </style>
  </defs>
  <g id="Layer_1-2" data-name="Layer 1">
    <path class="cls-1" d="m33.5,10.77c-.37-.15-.71-.33-1.02-.58-.29-.23-.64-.32-1.01-.39-.9-.17-1.81-.19-2.72-.16-.52.02-.89-.18-1.18-.57-.17-.22-.37-.4-.58-.56-.44-.34-.93-.26-1.22.22-.33.54-.23,1.12-.12,1.69.09.49.43.98-.08,1.43-.05.05-.05.13,0,.19.22.26.06.47-.06.7-.11.2-.32.4-.13.67.05.07-.01.12-.03.18-.14.42-.46.65-.81.86-1.03.62-2.14.95-3.34,1.04-.7.05-1.39.23-2.06.45-1.38.46-2.63,1.17-3.86,1.95-.94.59-1.64,1.39-2.31,2.24-.42.53-.83,1.07-1.3,1.56-.43.46-.97.54-1.55.31-.49-.19-.58-.7-.88-1.04-.61-.69-.57-1.66-.77-2.5-.11-.48-.24-.97-.35-1.45-.09-.41-.19-.8-.14-1.24.05-.36.16-.73.12-1.07-.03-.29,0-.49.17-.7.42-.49.56-1.1.58-1.7.01-.42.12-.74.37-1.03.19-.22.37-.62.33-.74-.14-.46.29-.81.12-1.23-.08,0-.12.14-.26.09.2-.5.22-1.04.3-1.56-.15-.05-.23.14-.36.1-.05-.14.14-.29.06-.31-.39-.08-.07-.25-.04-.34.07-.19.19-.36.29-.54.04-.08.14-.2.02-.24-.31-.11-.13-.29-.1-.46.02-.13.12-.26.04-.44-.19.2-.23.46-.52.64.31-.73-.1-1.29-.19-1.91-.15.04-.12.17-.16.27-.02.07-.04.13-.13.13-.08,0-.13-.06-.14-.12-.08-.38-.37-.67-.46-1.03-.1-.41-.88-.04-.73-.68-.01,0-.03,0-.04,0-.14-.05-.14-.05-.14-.12,0-.07.05-.16-.07-.2-.23.29.05.67-.17.98.02-.45-.67-1.99-.84-1.93-.07.1.07.21-.04.31-.18-.16-.1-.46-.3-.63-.06.14.12.27-.04.39-.16-.25-.32-.48-.47-.72-.06-.09-.05-.19-.25-.09-.21.11-.08.18-.04.26.17.41.36.8.4,1.25-.21-.27-.2-.64-.43-.9-.15-.17-.34-.4-.46.12,0-.51-.44-.57-.68-.81-.23-.23-.37-.54-.67-.7-.06-.03-.13-.07-.18-.06-.11.03-.03.14-.05.21-.07.22.27.26.24.47-.47-.02-.42-.48-.66-.75-.03.2-.06.36-.08.51-.01.09-.05.21.1.21.2,0,.37.1.27.28-.14.25-.2-.09-.32-.09-.18,0-.28-.23-.45-.17-.12.04.07.19-.04.26-.17-.15-.17-.14-.34-.03-.03.02-.08.02-.11,0-.1-.06-.18-.2-.31-.06-.13.15-.06.33.02.45.16.23.19.5.28.76.03.08.03.17-.04.23-.09.07-.14-.04-.2-.08-.1-.07-.2-.14-.31-.19-.07-.03-.17-.06-.22.03-.04.07.02.13.07.18.16.17.24.38.39.65-.34-.23-.65-.34-.88-.59-.1.19.12.25.1.38-.1.11-.2-.05-.34.03.19.22.37.43.55.65.1.12.42.2.28.37-.17.22-.28-.15-.45-.17-.1.3.35.32.31.61-.09,0-.15-.02-.22-.02-.09,0-.22-.07-.25.05-.03.1-.1.24.02.34.31.27.51.68.98.74.1.01.21.05.23.19-.09.13-.28.07-.4.19.52.19.95.48,1.43.86q-.56-.08-.39.36c.04.1.06.2.1.3-.15.05-.17-.16-.31-.1.06.46.56.68.67,1.12-.17.04-.13-.2-.3-.18.03.08.06.15.09.23.04.1.14.2.04.3-.11.11-.22,0-.33-.05-.11-.06-.18-.21-.38-.17.21.33.22.71.42,1.04.12.2-.04.48.07.71-.45.14-.07.42-.02.52.13.3.22.61.35.91.08.18.18.39.05.53-.14.17-.31-.07-.47-.09-.02,0-.04.01-.08.03.22.33.13.37-.23.32-.24-.03-.3-.3-.53-.3.08.31.29.5.5.69.37.33.37.33.17.75-.09.21.17.28.18.51-.08-.07-.14-.12-.2-.17-.06-.05-.1-.13-.19-.11-.07.08.11.13.01.21-.12-.1-.76-.44-.95-.48.23.15.1.45.25.6.16.16.33.32.48.49.08.09.19.17.14.31-.06.17-.22,0-.32.09.14.42.67.44.82.86-.32-.05-.6-.28-.94-.21-.08.02-.17-.03-.21.07-.04.11.04.17.1.24.11.11.38.15.31.32-.08.22.07.25.16.35.08.09.23.13.26.32-.3-.1-.55-.06-.79.14.22.14.42.32.66.41.23.08.14.33.31.41-.15.27.05.41.25.55-.14.07-.32,0-.37.16-.05.16.08.22.18.28.28.19-.13.16-.09.28.14.02.29,0,.41.12-.21.21-.46-.03-.7.13.34.25.89-.02,1.04.51.42-.09.74.1,1.11.3-.25.14-.38-.16-.58-.04.22.29.35.64.75.7,0,0,0,.04,0,.07-.3.05-.67-.12-.85.31.25.03.49-.07.73.01.16.05.22.14.22.29,0,.19-.15.1-.24.13-.1.03-.22,0-.31.14.34.02.66.09.98-.01.3-.1.37.22.56.3-.29.3.08.26.19.35.09.08.3.13.29.19-.02.3.19.23.35.25.11.02.22.02.32.04.04,0,.07.04.05.08-.1.08-.21-.07-.3.03q.56.37.34.49c.16.05.3.08.44.13.08.03.19.12.13.16-.34.23,0,.34.08.46-.09.16-.25.06-.34.14.05.15.44,0,.27.35-.05.09.13.13.24.15.13.02.26-.08.4,0-.04.11-.18.18-.11.29.5.33,1.11.4,1.63.74-.11.06-.27,0-.3.16.22.11.51-.11.65.13.17.3.36.54.74.54.08,0,.13.07.11.14-.06.21.12.18.21.21.5.12.5.12.26.59-.05.11-.14.21-.17.32-.08.31-.28.67-.12.93.27.46.6.91,1.06,1.2.25.16.38.27-.02.54.5,0,.88,0,1.26,0,1.26-.02,2.52.01,3.78-.05,1.27-.07,2.55-.02,3.83.06.4.03.81-.03,1.21-.06.1,0,.23.08.27-.07.03-.11-.05-.21-.14-.28-.1-.07-.2-.14-.31-.19-.89-.43-1.84-.35-2.78-.25-.8.09-1.53-.11-2.28-.31.23-.08.24-.4.49-.41.35-.03.57-.28.84-.46.51-.35.82-.9,1.29-1.28.37-.3.52-.78.9-1.04.57-.39,1.16-.73,1.78-1.04.19-.1.37-.21.55-.31.31-.18.44-.54.78-.67.86-.33,1.76-.55,2.64-.8.11-.03.18,0,.26.05.37.28.67.61.86,1.05.27.63.58,1.25.85,1.89.48,1.11,1.48,1.9,1.84,3.08,0,.02.03.04.05.07.15.27.33.52.28.87-.03.24.19.42.35.28.03-.03.07-.05.1-.07,0,0,0,0,0,0,.01-.06.05-.11.08-.15,0,0,0,0,.01,0,.01-.03.02-.05.04-.07.04-.06.09-.09.15-.11,0,0,.01,0,.02-.01,0,0,.02,0,.03-.01,0,0,.01,0,.02,0,.04-.03.08-.05.14-.05.08,0,.13.03.17.07.03-.02.05-.03.08-.05,0,.44.25.51.63.53.16.01.32,0,.47-.04.06-.12.18-.21.37-.21,0,0,0,0,0,0,.07-.01.13-.01.19,0,0,0,.01,0,.02,0,.03,0,.05.01.08.02,0,0,.01,0,.02,0,.04,0,.08.01.12.03.06,0,.11-.01.18-.01-.33-.25-.51-.54-.87-.57-.15-.01-.25-.09-.3-.23-.09-.24-.28-.31-.51-.32-.19,0-.35-.05-.44-.24-.14-.32-.29-.63-.36-.99-.15-.79-.2-1.6-.19-2.39,0-.54-.31-1.1.08-1.63.25-.34,0-.75.07-1.11.1-.57-.08-1.06-.25-1.58-.1-.28-.2-.59-.13-.87.06-.23,0-.43-.05-.63.1-1.23.15-2.5.41-3.71.04-.08.08-.16.1-.25.07.09.15.08.23-.1.52-1.12,1.58-1.77,2.35-2.68.23-.28.46-.52.53-.88.05-.29.11-.58.23-.86.16-.38,0-.7-.38-.85Z"/>
  </g>
</svg>