<?xml version="1.0" encoding="UTF-8"?>
<svg id="Layer_2" data-name="Layer 2" xmlns="http://www.w3.org/2000/svg" viewBox="0 0 33.94 23.79">
  <defs>
    <style>
      .cls-1 {
        stroke-width: 0px;
      }
    </style>
  </defs>
  <g id="Layer_1-2" data-name="Layer 1">
    <path class="cls-1" d="m33.77,9.75l.08.03c.08-.39.09-.79,0-1.17l-.07.03c-.05-.2-.15-.38-.27-.54-.33-.35-.65-.71-1.06-.96-.45-.2-.96-.08-1.44-.09.08-.44-.1-.85-.22-1.27-.01,0-.04,0-.06,0-.02-.28-.09-.56-.22-.81-.1-.16-.2-.32-.3-.47-.14-.21-.31-.39-.48-.57-.09-.09-.19-.19-.28-.28-.1-.09-.19-.19-.29-.28-.1-.09-.19-.19-.29-.29-.17-.16-.34-.32-.52-.46l.02-.03c-.12-.08-.24-.16-.35-.25-.25-.23-.51-.43-.82-.57l.03-.04c-.17-.07-.33-.15-.49-.23,0-.13,0-.25,0-.37l-.08.03c0-.29-.05-.59-.2-.85-.07-.09-.15-.19-.22-.28-.07,0-.22,0-.29,0-.09.07-.19.15-.29.22-.12-.38-.57-.23-.84-.14l.03.05c-.12.09-.23.19-.35.29-.2.44-.31.9-.24,1.38h.11c0,.07,0,.16-.01.25-.11.03-.21.05-.31.08-.12.05-.24.1-.36.15l.03.06-.31.13v.09s-.05-.01-.05-.01c-.08.08-.17.16-.26.24-.07.09-.15.18-.23.27-.06.08-.13.17-.19.25-.12.2-.23.41-.35.61-.07.17-.13.34-.18.52h-.08s.01.09.01.12c-.1.22-.16.45-.26.67-.17.47-.36.92-.61,1.35-.07.12-.13.25-.19.37-.11.15-.21.31-.32.46-.09.13-.17.26-.26.39-.06.06-.11.13-.17.2-.03.03-.08.08-.11.11-.3.39-.66.73-1.03,1.05-.11.08-.21.17-.31.25-.09.08-.18.17-.27.25l-.02-.02c-.09.08-.18.16-.27.25-.1.09-.19.19-.29.28-.09.09-.17.18-.26.27l.02.02c-.18.18-.35.38-.52.57-.21.24-.38.52-.58.76-.08.13-.17.25-.25.38-.23.32-.41.67-.59,1.02-.07.16-.13.32-.21.47-.14.29-.2.61-.23.93l-.07-.04c-.01.11-.03.23-.04.35-.07.29-.07.59-.08.89-.04.08-.09.17-.13.26,0-.05-.03-.14-.04-.18-.04,0-.11.02-.14.03-.27-.12-.53-.26-.75-.45-.08-.09-.15-.18-.23-.27-.08-.14-.16-.29-.23-.44h-.06c-.05-.26-.1-.53-.16-.79-.11-.75.13-1.5.16-2.25l.07.03c.02-.15.04-.3.08-.44.07-.37.13-.74.14-1.11l.07.04c.02-.18.04-.36.07-.54.04-.54.07-1.07.04-1.61,0-.58-.24-1.13-.39-1.68l-.06.04c-.08-.36-.33-.64-.55-.92-.06-.08-.12-.16-.18-.24l-.08.02.02-.08c-.07-.06-.14-.13-.21-.19-.1-.09-.21-.18-.31-.27-.15-.11-.3-.22-.44-.33-.15-.08-.31-.15-.46-.23l.03-.05c-.2-.07-.4-.15-.61-.22l.03-.05c-.29-.08-.58-.18-.87-.24l.02-.06c-.29-.04-.57-.09-.86-.11v-.07c-.88-.04-1.77-.04-2.66,0v.07c-.35.02-.7.08-1.05.13l.02.05c-.3.07-.59.16-.88.22l.02.08c-.06,0-.18.02-.24.03-.17.08-.35.14-.53.2l.03.05c-.37.13-.71.32-1.03.54-.12.07-.23.13-.35.19-.25.2-.5.4-.76.58-.35.3-.66.65-.94,1.02-.16.22-.31.45-.37.72l-.06-.04c-.11.29-.2.58-.22.89l-.08-.04c-.02.39-.02.78,0,1.18l.08-.04c.02.31.09.61.22.89l.05-.03c.09.26.28.44.45.64.14.09.28.17.43.25v.05c.14.05.29.11.44.18.06,0,.18.02.24.03v.07c.62.1,1.26.09,1.89,0l-.02-.05c.29-.05.57-.13.84-.25.12-.04.24-.09.36-.13.33-.13.65-.28.97-.45.03-.02.09-.05.12-.06-.01,1,.05,1.99.21,2.97l.07-.04c.02.4.11.79.21,1.17l.07-.03c.03.26.08.51.2.74,0,.03-.02.1-.03.13l.1-.02c.05.19.1.38.2.55,0,.02.02.06.03.08.08.14.14.29.2.44l.09-.02s-.01.11-.02.14c.09.13.17.26.26.39.08.14.17.28.24.43l.04-.02c.09.14.18.28.28.41.09.1.18.2.27.3.18.2.37.39.57.57.15.13.31.25.46.38.27.18.55.35.83.52.18.08.36.16.55.23v.05c.25.07.51.15.77.24v.05c.31.05.64.1.96.12l-.03.07c.54.02,1.09.03,1.64,0l-.02-.07c.29-.02.58-.06.86-.12v-.09c.07,0,.22,0,.29,0v-.07c.13-.05.28-.1.41-.18.14-.06.28-.11.43-.16.04.11.07.22.11.33l.11-.03-.04.12h.06c.06.09.12.16.18.23.11.1.22.19.34.28l-.03.05c.16.08.33.16.5.23l-.03.06c.23.09.46.18.7.23l-.03.07c.25.05.5.09.75.12.07.22.15.44.22.66l.05-.03c.07.1.14.2.21.29.4.19.86.16,1.28.27.71.06,1.42.03,2.13.02.04.1.09.19.13.29l.04-.02c.1.19.22.36.37.52.45.3,1.01.22,1.52.25,1.56.05,3.13-.1,4.69,0,0,.02-.02.06-.02.08.22.05.45.1.66.19.24.05.42-.13.45-.36.18-.07.36-.15.38-.37-.05,0-.15-.01-.2-.02-.04-.04-.11-.12-.15-.16v-.14c.06,0,.16,0,.21.01,0-.05,0-.15,0-.2h-.06c-.08-.14-.2-.24-.33-.32l.02-.05c-.28-.11-.58-.2-.88-.21l.03-.07c-.4-.03-.8-.11-1.2-.1-1.12-.05-2.26.19-3.37-.11-.18-.45-.12-.95.03-1.4.19-.33.38-.65.57-.97h.04c.18-.29.37-.59.56-.89.16-.3.36-.58.44-.91l.05.03c.1-.26.18-.52.23-.79l.06.04c.08-.46.21-.92.19-1.4.01-.43-.1-.85-.12-1.27.52.01,1.04-.1,1.56-.1,0-.02-.02-.06-.02-.08.36-.02.73-.07,1.06-.22v-.05c.25-.08.44-.27.64-.44.04-.08.08-.16.12-.24.21-.13.44-.24.67-.33l-.03-.05c.17-.07.34-.15.51-.22l-.03-.05c.32-.15.58-.4.87-.59.21-.07.43-.11.63-.21.24-.34.55-.64.72-1.04.04-.01.13-.04.17-.05-.05,0-.15-.03-.2-.04-.16-.22-.07-.46.03-.68Zm-4.89.47c-.1-.11-.21-.22-.32-.32-.05-.09-.09-.18-.14-.27-.02-.04-.08-.13-.1-.17l-.04.02c-.04-.15-.09-.3-.13-.45-.12-.12-.24-.25-.36-.37.03-.05.07-.1.11-.15.03.05.08.14.1.18.28-.02.57-.05.85-.08l-.04-.08c.12,0,.24-.02.36-.03.15-.07.31-.13.47-.19-.04.13-.07.26-.11.38-.07.46.01.91.19,1.34.04,0,.11.03.15.04-.31.12-.64.23-.97.14Z"/>
  </g>
</svg>