<?xml version="1.0" encoding="UTF-8"?>
<svg id="Layer_2" data-name="Layer 2" xmlns="http://www.w3.org/2000/svg" viewBox="0 0 22.14 33.94">
  <defs>
    <style>
      .cls-1 {
        stroke-width: 0px;
      }
    </style>
  </defs>
  <g id="Layer_1-2" data-name="Layer 1">
    <path class="cls-1" d="m11.05,11.19s0,.02,0,.03c0,.01,0,.03,0,.04,0,.01,0,.03-.01.04,0,0,0,.02,0,.03-.02.04-.05.06-.07.08-.09.06-.22.06-.32,0-.15-.09-.29-.16-.5-.18-.04,0-.09,0-.13,0-.16,0-.32-.01-.44-.12-.36-.32-.43-.85-.16-1.23.12-.17.25-.26.42-.3.04,0,.07-.01.11-.01.16,0,.34.08.54.23.23.18.38.59.44.88.01.07.04.14.06.22.04.11.07.22.08.31Zm2.35-.29c.02.12.13.25.25.32.05.03.12.05.19.04-.13-.39-.14-.8-.16-1.2,0-.06,0-.12,0-.19-.03.06-.06.11-.09.17-.06.1-.11.2-.14.29-.06.16-.07.38-.04.57Zm-11.71-.53c-.06-.12.08-.21.17-.13.05.04.09.07.14.11-.14-.25-.23-.53-.27-.82,0,0,0,0,0,0,0,0,0,0,0,0,0,0,0-.02,0-.03-.01-.09.08-.11.14-.08-.04-.16-.05-.34-.04-.5.01-.12.16-.13.2-.03.02.04.03.08.05.12,0-.02,0-.05,0-.07-.02-.05-.05-.11-.07-.16-.05-.12-.1-.24-.15-.36-.08-.25-.14-.51-.09-.78.01-.07.09-.09.15-.06-.03-.28,0-.57.01-.85.01-.12.18-.15.22-.03.04.12.07.23.11.35,0,0,0-.01,0-.02-.01-.1-.03-.21-.04-.3-.02-.27-.02-.53.07-.78.03-.08.13-.08.16,0,.02-.16.07-.32.16-.46.03-.06.12-.05.14.02,0,.02.01.04.02.06.5-1.02,1.25-1.93,2.11-2.68.2-.17.41-.34.62-.5-.02-.01-.03-.03-.05-.04-.02-.01,0-.04.02-.03.02.01.04.03.07.04.02-.02.04-.03.06-.05-.04-.04-.09-.08-.13-.12-.03-.03,0-.08.04-.06.06.04.11.08.17.12.04-.03.08-.05.12-.08-.02-.02-.03-.05-.05-.07-.02-.03.02-.06.04-.03.02.02.04.04.06.07.82-.55,1.71-.97,2.65-1.27.06-.06.13-.13.2-.18.42-.33.94-.42,1.47-.43.05,0,.08.02.1.05.16-.07.32-.14.49-.19.6-.17,1.26-.15,1.8.18,0,0,.02.01.02.02.07-.01.15-.02.23-.03.66-.06,1.35.02,1.96.28.07.03.11.12.08.18.03,0,.07,0,.1.01.5.08.98.27,1.4.55.02.02.04.04.04.06.1.03.2.05.3.09.45.17.86.44,1.19.8.02.02.03.04.02.07.18.07.36.15.52.25.48.29.87.7,1.14,1.19.02.03.01.07,0,.1.04.04.09.07.13.11.11.1.21.21.3.32.09.11.18.22.25.34.14.22.24.49.14.75.03.05.06.09.09.14.31.45.55.98.39,1.54-.02.07-.11.09-.16.05.07.2.13.39.18.59.02.09-.1.13-.14.06-.07-.1-.13-.2-.18-.3.09.38.13.76.15,1.14,0,.08-.11.11-.16.04-.03-.04-.05-.09-.08-.13.08.32.13.64.16.96,0,.07-.09.11-.14.06-.09-.1-.16-.2-.23-.31.02.25.01.5-.03.75-.01.07-.13.07-.15,0-.02-.12-.05-.24-.07-.36,0,0,0,0,0,0,0,.31-.07.63-.17.92-.03.07-.13.08-.16,0-.03-.11-.06-.21-.09-.32,0,0,0,0,0,0-.02.22-.05.44-.09.65-.02.08-.14.08-.15,0-.01-.05-.02-.11-.03-.16-.04.21-.11.42-.21.62-.03.05-.11.05-.14,0-.02-.05-.04-.1-.06-.15-.07.2-.17.4-.3.56-.05.07-.11.16-.2.19-.08.02-.15-.02-.18-.09-.02-.03-.02-.07-.02-.11-.03.07-.06.13-.1.19-.06.11-.12.21-.19.31-.06.09-.14.16-.25.12-.02,0-.03-.02-.05-.03-.05.07-.11.13-.17.16-.14.07-.23-.07-.26-.18-.01-.04-.02-.07-.02-.11-.06.13-.13.29-.24.38-.1.07-.23.08-.31-.03,0,0-.01-.02-.02-.03-.05.1-.13.17-.24.17-.09,0-.16-.07-.21-.16,0,.02,0,.05,0,.07,0,.08-.09.14-.17.1-.06-.03-.11-.07-.17-.12,0,.02,0,.03,0,.05-.02.08-.11.1-.18.07-.12-.05-.23-.12-.32-.2-.03.04-.09.07-.13.05-.34-.14-.69-.34-.95-.61-.04-.19-.11-.37-.19-.58-.16-.4-.18-.85-.2-1.29,0-.19-.01-.39-.03-.58,0,0,0-.02,0-.02,0,0,0-.01,0-.02,0,0,0-.02,0-.02-.05-.39-.23-.86-.5-1.29-.17-.27-.42-.48-.7-.64.08-.12.17-.37.17-.39.1-.38.03-.82,0-.99-.01-.05-.02-.11-.04-.16-.1-.44-.25-.94-.58-1.38-.38-.52-.81-.91-1.3-1.17l-.03-.02c-.2-.11-.45-.24-.69-.28-.02,0-.04,0-.06,0,0-.03-.02-.06-.04-.08-.03-.05-.07-.09-.1-.14-.06-.1-.12-.2-.19-.29-.02-.02-.05,0-.04.02.02.11.08.21.13.3.03.05.06.09.09.13.02.02.03.04.05.06,0,0,0,0,0,.01-.02,0-.04.01-.05.02,0-.01-.01-.03-.02-.04-.02-.03-.04-.07-.06-.1-.02-.03-.05-.06-.07-.1-.02-.03-.05-.06-.08-.08-.03-.02-.07,0-.05.04.01.03.03.06.05.1.02.03.04.07.06.1.01.02.03.05.04.07-.02-.03-.05-.05-.07-.08-.06-.06-.12-.12-.19-.17-.02-.02-.05.01-.03.03.04.07.1.14.15.2.03.03.06.06.08.09,0,.01.02.02.03.03,0,0-.01-.01-.02-.02-.04-.03-.08-.06-.12-.08-.08-.05-.16-.11-.25-.15-.02-.01-.05.02-.03.04.07.07.15.13.23.19.04.03.08.06.12.08.02.01.04.03.06.04,0,0,.01,0,.02.01,0,.05,0,.1.02.15l.02.05c.06.16.13.33.15.47.03.2.02.41.02.62,0,.12,0,.25,0,.38.01.33.04.75.18,1.16.05.13.15.41.24.6-.48-.09-1.08-.14-1.59-.03,0,0,0-.02,0-.02.04-.22.08-.45.09-.67.03-.63-.31-1.48-.46-1.67-.03-.03-.06-.08-.1-.14-.15-.25-.44-.71-1.12-1.12,0,0-.55-.29-.91-.33,0,0,0,0,0,0,0-.02,0-.03-.01-.05,0-.03-.02-.06-.02-.09-.02-.06-.04-.13-.06-.19,0-.02-.03-.02-.03,0,0,.07.02.14.03.2,0,.02,0,.04.01.06-.01-.02-.02-.04-.04-.07-.03-.05-.06-.1-.09-.14-.06-.09-.12-.18-.2-.26-.02-.02-.05,0-.04.03.05.1.11.19.16.28.03.05.06.09.08.14.02.03.04.06.06.09,0,0-.01,0-.02,0-.02-.03-.04-.05-.06-.07-.03-.04-.06-.07-.1-.1-.07-.07-.14-.13-.22-.18-.02-.01-.05.01-.03.03.05.08.12.14.19.21.03.03.06.07.1.1.01.01.03.03.04.05,0,0,0,0,0,.01,0,0,0,0,0,0,0,0,0,0,0,0-.02-.02-.05-.03-.07-.05-.05-.03-.1-.06-.16-.09-.05-.03-.11-.05-.16-.07-.06-.02-.11-.05-.17-.04-.01,0-.02.02-.01.03.04.04.09.06.14.09.05.03.1.06.15.09.05.03.1.06.15.09.03.02.05.03.08.05,0,0,.02.01.02.02,0,.05.03.11.07.21.02.04.03.07.03.08.03.12.04.24.05.37v.02c.03.39,0,.78-.04,1.16-.03.3-.06.61-.06.91,0,.41.15.82.31,1.2.03.09.08.17.13.26.11.21.22.42.21.61,0,0,0,0,0,0-.02.08-.05.16-.09.24-.03.07-.06.14-.08.21-.02.06-.04.12-.06.18-.04.13-.09.26-.11.39-.06.28-.14.56-.21.79-.14.46-.14.92-.13,1.28,0,.15.04.28.08.41.08.25.22.47.34.65l.06.09c.07.1.14.21.22.3.05.06.12.11.18.15-.1.63-.63,1.21-1.11,1.55-.5.36-.84.77-1.17,1.27-.04-.05-.09-.09-.13-.14-.08-.04-.15-.07-.23-.12-.16-.1-.32-.2-.48-.3-.32-.21-.62-.46-.91-.72-.08-.07,0-.19.08-.2.06,0,.13,0,.19,0-.22-.19-.43-.39-.63-.59,0,0,0,0,0,0-.1-.11.03-.25.15-.19.04.02.09.04.13.06-.06-.05-.12-.1-.17-.15-.21-.2-.39-.45-.56-.69-.08-.12.09-.22.18-.14.11.09.22.17.34.24-.06-.07-.11-.15-.16-.22-.14-.21-.26-.43-.37-.66-.05-.11.07-.2.16-.13.02.02.04.03.06.05-.06-.08-.12-.16-.17-.24-.17-.24-.31-.51-.44-.77ZM9.99,2.65c0,.14.04.28.09.41.01.03.06.02.05-.01-.04-.13-.07-.27-.1-.4,0-.02-.03-.01-.03,0Zm1.6,19.74s0,0,0,0c0,0,0,0,0,0,0,0,0,0,0,0Zm4.53,8.2c.73-.68,1.25-1.51,1.56-2.14.4-.81.53-1.71.43-2.9-.1-1.21-.48-2.37-.89-3.54-.15-.43-.35-.85-.61-1.26-.09-.15-.2-.31-.31-.45-.02-.03-.05-.06-.08-.1-.02-.02-.04-.04-.05-.06-.01.07-.02.14-.04.22-.09.49-.33.79-.7,1.11-.36.31-.86.53-1.49.64-.01,0-.02.01-.04.01-.12,0-.23.04-.34.06-.02.01-.07.01-.07.01-.12.02-.25.03-.37,0-.14-.02-.27-.07-.39-.14-.03-.01-.05-.03-.08-.04-.01,0-.03,0-.04,0-.01,0-.02-.01-.04-.02,0,0,0,0,0,0,0,0-.01,0-.02,0,0,0,0,0,0,0-.06-.02-.12-.02-.18,0,0,0,0,0,0,0,0,0,0,0,0,0,0,0-.01,0-.02.01,0,0,0,0,0,0,0,0,0,0-.01.01,0,0,0,0,0,0,0,0,0,.01,0,.02,0,0,0,0,0,0,0,.01,0,.02,0,.04,0,0,0,0,0,0,0,0,0,.01,0,.02,0,.01,0,.03,0,.04,0,.03,0,.06,0,.08,0,.06,0,.12-.02.18,0,0,0,0,0,0-.02.12-.08.22-.2.26-.08.03-.18.01-.25-.03-.04-.03-.08-.07-.11-.11-.04.04-.09.06-.15.06-.15,0-.25-.12-.29-.25-.02,0-.04.01-.06.02-.01,0-.02,0-.03,0-.16.13-.29.34-.39.51-.14.23-.23.53-.26.82-.09.92.05,1.96.44,3.18.21.67.5,1.3.75,1.83.14.29.3.56.46.83.15.26.32.54.45.82.11.23.18.44.2.63,0,0,0,.02.01.04,0,.04,0,.07,0,.11,0,.1,0,.2-.02.29-.03.12-.09.24-.14.36-.04.08-.07.16-.11.24-.1.28-.17.53-.14.83.02.21.09.82.12.88,0,0,0,0,0,.01,0,.02.01.04.02.05.03.07.11.12.18.14.15.04.35,0,.47-.1,0,0,0,0,0,0,0,.01.02.02.03.03.05.04.12.07.18.07.08,0,.16-.03.22-.08.05.08.14.12.22.11.08,0,.15-.03.21-.07,0,0,0,0,0,0,.05.04.11.05.16.06.09,0,.18-.01.26-.05.06-.03.11-.08.15-.13.05-.04.09-.08.12-.13.16-.2.22-.48.22-.73,0-.14-.02-.27-.04-.41-.03-.14-.08-.28-.09-.42-.01-.14.01-.28.05-.41.02-.07.05-.14.08-.22,0,0,.01,0,.02,0,.03-.05.07-.1.13-.14.05-.03.1-.06.15-.08.02-.01.05-.02.07-.03.09-.05.17-.11.25-.18.04-.03.07-.06.11-.09.13-.1.25-.22.37-.34Zm-4.53-8.2s0,0,0,0c0,0,0,0,0,0h0Zm-1.31-16.27c.09.26.22.58.3.69.18.04.34.08.45.11l.06.02s0,0,0,0c-.04-.06-.07-.11-.12-.16-.07-.09-.14-.17-.19-.28-.14-.29-.21-.59-.26-.83-.04-.22-.03-.44-.02-.65.01-.22.02-.43-.02-.65,0-.04.02-.08.06-.09.04,0,.08.02.09.06.05.23.04.46.03.69,0,.21-.02.41.02.62.04.22.11.52.24.79.05.09.11.17.17.26.07.09.15.19.2.32.02,0,.03.01.05.02.35.1.74.23,1.09.41.03-.06.13-.25.16-.36.06-.25.06-.58-.01-.93,0-.03-.01-.06-.02-.09-.1-.46-.24-.95-.57-1.39-.37-.5-.78-.88-1.25-1.13l-.03-.02c-.19-.1-.42-.23-.64-.27-.05,0-.1.01-.14.05-.03.04-.04.1-.02.15l.02.05c.07.17.13.35.15.51.03.21.02.43.02.64,0,.12,0,.25,0,.37,0,.32.04.73.17,1.12Zm3.3,6.51c.16,0,.31,0,.46-.01-.03.11-.06.21-.1.3-.15-.05-.3-.1-.45-.14-.1-.03-.14.12-.04.15.14.04.29.08.43.13-.03.05-.05.1-.08.15-.04.07-.06.11-.07.13-.02.03-.03.06-.05.08l-.1.18c-.31.54-.67,1.16-1.32,1.3-.52.11-.94.06-1.31-.14-.27-.14-.52-.34-.76-.52-.18-.13-.36-.27-.55-.39-.27-.17-.56-.31-.84-.45-.26-.12-.52-.25-.76-.4-.09-.06-.18-.11-.28-.17-.18-.11-.37-.22-.55-.34-.04-.03-.08-.05-.11-.07-.01,0-.03-.02-.04-.02,0,0-.01-.01-.02-.01-.07-.04-.13-.09-.18-.15-.07-.08-.14-.19-.21-.28l-.06-.09c-.12-.18-.26-.41-.33-.66-.03-.11-.06-.22-.06-.33-.01-.34-.01-.79.12-1.23.07-.24.15-.52.21-.8.02-.12.07-.25.11-.37.02-.06.04-.12.06-.18.02-.06.05-.13.08-.2.05-.11.09-.22.11-.34,0-.02,0-.04-.01-.06-.02-.2-.13-.41-.22-.59-.05-.09-.09-.17-.12-.25-.15-.37-.29-.75-.3-1.14,0-.3.03-.6.06-.9.04-.39.08-.79.04-1.19v-.02s0-.06-.01-.09c.04.1.08.2.11.29.11.33.12.66.13,1.01,0,.25.02.51.07.76.08.42.23.73.44,1.08.36.6.51,1.28.42,1.9,0,.04.02.08.06.09,0,0,0,0,.01,0,.04,0,.07-.03.07-.06.1-.65-.06-1.36-.44-2-.2-.33-.35-.63-.42-1.03-.05-.24-.06-.49-.06-.74-.01-.35-.03-.7-.14-1.05-.05-.15-.11-.31-.18-.45-.02-.04-.04-.08-.07-.13-.05-.08-.09-.16-.1-.24.21-.03.81.23.94.31.65.39.91.82,1.07,1.07.04.07.07.12.11.16.12.15.46.97.42,1.57-.01.21-.05.44-.09.65,0,.04-.01.07-.02.11-.02.02-.02.04-.02.07,0,0,0,0,0,0-.03.19-.06.37-.06.55,0,.04.03.08.08.08h0s.08-.03.08-.08c0-.17.02-.34.05-.52.77-.2,1.81.04,2.22.16l.06.02c.05.01.11.03.16.05.69.2,1.55.47,1.93,1.08.26.42.44.88.48,1.26,0,.16-.1.34-.19.51-.06.1-.12.21-.15.31-.07.19-.08.43-.04.65.03.17.16.34.32.42.08.04.15.06.23.06.03,0,.06,0,.08-.01.16.38.26.68.2,1.05-.16.01-.33.01-.49.01-.1,0-.1.15,0,.15Zm-2.61.28c.1,0,.1-.15,0-.15-.51-.02-1.01.07-1.51.13-.1.01-.1.16,0,.15.5-.06,1-.15,1.51-.13Zm.11.15c-.41.1-.77.33-1.15.5-.09.04-.01.17.08.13.37-.17.72-.39,1.12-.48.1-.02.06-.17-.04-.15Zm.1-1.75c.03-.14-.03-.3-.08-.46-.02-.08-.05-.15-.06-.21-.07-.34-.23-.78-.5-.99-.29-.23-.56-.31-.79-.25-.2.05-.36.17-.5.37-.32.45-.24,1.07.18,1.45.16.14.35.15.54.16.04,0,.09,0,.13,0,.17.01.29.07.46.17.07.04.16.07.24.07s.16-.02.23-.06c.09-.06.14-.14.15-.24Zm7.25,14.81c.09-.29.2-.57.27-.86.08-.3.13-.6.17-.91.12-1.07.03-2.21-.26-3.25-.14-.52-.35-1.03-.56-1.53-.21-.51-.41-1.01-.68-1.5-.26-.48-.57-.94-.89-1.39-.29-.4-.64-.75-.99-1.1.2.36.35.75.45,1.15.17.69.27,1.47.3,2.19.01.3,0,.62-.06.98,0,0,.01.01.02.02.03.05.07.1.12.15.03.04.06.07.09.11.11.15.22.31.32.47.26.42.47.86.62,1.29.41,1.18.79,2.35.89,3.58.04.46.04.88.01,1.26.06-.22.11-.45.18-.67Zm-1.76,4.2c.47-.31.92-.63,1.34-1.02.55-.51,1.05-1.06,1.5-1.66.45-.59.86-1.22,1.22-1.88.39-.71.75-1.46.95-2.25.16-.6.21-1.22.18-1.83.02-.09.03-.19.05-.27.03-.16.05-.32.08-.49.05-.3.12-.61.03-.9-.02-.06-.1-.09-.14-.04-.07.08-.14.18-.19.29.01-.2.02-.4.02-.6,0-.21.04-.5-.15-.65-.05-.04-.12-.01-.13.05-.02.15-.03.31-.04.46,0,0,0-.01,0-.02.02-.4-.07-.8-.28-1.15-.02-.04-.07-.03-.1,0-.06-.3-.16-.58-.31-.85-.03-.05-.11-.04-.12.02,0,0,0,0,0,0-.09-.19-.21-.37-.36-.52-.04-.04-.1,0-.11.04,0,0,0,.02,0,.03-.12-.17-.27-.31-.44-.42-.03-.02-.07-.01-.09.01-.34-.36-.7-.71-1.07-1.03-1.32-1.13-2.84-2.01-4.37-2.83,0-.03-.02.03-.06.13.22.07.44.15.65.23.09.03.05.18-.04.15-.23-.08-.45-.16-.68-.24-.04.08-.08.17-.12.25,0,.17.08.33.18.47.05.05.1.1.15.15.07.07.13.13.18.19.11.14.23.27.35.4.08.09.15.17.23.26.33.33.67.66.99.99.76.8,1.4,1.75,1.87,2.75.23.48.42.99.62,1.49.2.51.37,1.03.47,1.57.2,1.06.26,2.14.07,3.2-.05.27-.11.54-.2.81-.08.26-.18.5-.25.76-.14.51-.24,1.04-.47,1.53-.01.02-.18.41-.27.58-.28.58-.73,1.33-1.36,1.98-.19.19-.39.38-.61.55-.03.03-.07.05-.1.08.3-.18.57-.41.81-.66.04-.05.09-.08.14-.13Zm-8.4-8.25s0,0,0,0c0,0,0,0,0,0,0,0,0,0,0,0Zm3,.03s0,0,0,0c0,0,0,0,0,0h0Zm0,8.45c.21.01.41.02.62.02.22,0,.45,0,.67-.03-.02-.05-.04-.11-.07-.16-.13-.28-.29-.55-.44-.81-.16-.27-.32-.55-.46-.85-.25-.53-.54-1.17-.76-1.85-.4-1.25-.55-2.31-.45-3.24.03-.31.14-.63.28-.88.09-.16.21-.34.35-.48,0,0,0,0,0,0-.03-.03-.06-.07-.08-.1-.08,0-.16-.03-.22-.08-.01,0-.02-.02-.03-.03-.01,0-.02-.02-.03-.03-.1-.16-.13-.35-.12-.54-.27-.03-.27-.41-.17-.6.06-.13.17-.23.29-.3.11-.07.25-.11.34-.21,0,0,0,0,0,0,.14-.13.3-.24.47-.32.14-.06.28-.1.43-.1.11,0,.22.02.32.04.02-.66.13-1.3.55-1.83.38-.47.94-.8,1.54-.86.11-.01.11.16,0,.17-.56.06-1.07.38-1.42.81-.4.5-.5,1.13-.51,1.76,0,0,0,0,0,0,.03.05-.02.14-.1.13-.27-.04-.51-.09-.76.04-.15.07-.29.16-.41.28,0,0,0,0,0,0,0,0,0,0-.01.01-.05.05-.1.1-.14.16-.13.18-.2.4-.24.61-.02.09-.02.17-.02.26,0,0,0,0,0,0,.02.09.03.19.06.28,0,0,0,.02,0,.02,0,0,0,0,0,0,0,0,0,0,0,0,0,0,0,0,0,0,0,0,0,0,0,0,0,0,0,0,0,0,0,0,0,0,0,0,0,0,0,.02.01.03,0,0,0,.01.01.02,0,0,0,0,0,0,0,0,.01.01.02.02,0,0,0,0,0,0,0,0,0,0,0,0,0,0,.03.02.03.02,0,0,0,0,0,0,0,0,0,0,0,0,0,0,.02,0,.03,0,0,0,0,0,.01,0,0,0,0,0,0,0,0,0,.01,0,.02,0,0,0,0,0,0,0,0,0,0,0,0,0,0,0,0,0,.01,0,0,0,0,0,0,0,0,0,0,0,0,0,0,0,0,0,0,0,0,0,0,0,0,0,0-.01.02-.03.02-.04,0,0,0,0,0,0,0,0,0,0,0,0,0,0,0-.02,0-.02.02-.06.03-.12.05-.18.01-.05.06-.07.1-.06.04.01.07.06.06.1-.02.08-.04.16-.07.24-.01.03-.03.06-.05.08,0,0,0,.01.01.02,0,0,0,0,.01.01,0,0,.01.01.02.02,0,0,0,0,0,0,0,0,0,0,0,0,0,0,0,0,0,0,0,0,0,0,0,0,0,0,0,0,.01,0h0s.02,0,.04,0c0,0,0,0,0,0,0,0,.01,0,.02,0,0,0,.01,0,.02,0,0,0,0,0,0,0,0,0,0,0,0,0,0,0,.01,0,.02,0,0,0,0,0,0,0,0,0,0,0,0,0,0,0,.02-.02.02-.02,0,0,0,0,0,0,0,0,0,0,0-.01,0,0,0-.01,0-.02,0,0,0,0,0,0,0,0,0-.02,0-.03,0,0,0,0,0-.01,0,0,0,0,0,0,0,0,0,0,0,0,0-.05.04-.08.08-.08.04,0,.09.04.08.08,0,.06-.02.13-.06.18,0,0,0,.01,0,.02,0,0,0,.02,0,.02,0,0,0,.02,0,.03,0,0,0,0,0,.01,0,.02.02.03.03.05,0,0,0,0,0,.01,0,0,0,0,0,0,0,0,0,0,0,0,0,0,0,0,0,0,0,0,.01.01.02.02h0s0,0,0,0c0,0,.01,0,.02,0,0,0,0,0,0,0,0,0,0,0,0,0h0s.01,0,.02,0h0s0,0,0,0c0,0,0,0,.01,0,0,0,0,0,0,0,0,0,0,0,0,0,0,0,0,0,.01,0,0,0,0,0,0,0,0,0,0,0,0,0,0,0,0,0,.01-.01,0,0,0-.01.01-.02,0,0,0,0,0,0,0-.01.01-.02.02-.03,0-.01.01-.03.02-.04,0,0,0-.01,0-.02,0,.02,0,0,0,0,.01-.03.02-.05.03-.08.02-.05.03-.1.04-.15.02-.05.06-.07.1-.06.04,0,.07.06.06.1-.02.06-.04.13-.06.19-.01.03-.02.06-.04.09,0,.01.01.02.02.03,0,0,.01.02.02.02,0,0,0,0,0,0,.01.01.02.03.04.04,0,0,0,0,0,0,0,0,0,0,0,0,0,0,.02,0,.02.01h0s0,0,0,0c0,0,.01,0,.02,0,0,0,0,0,.01,0,0,0,.02,0,.02,0,0,0,0,0,0,0,0,0,0,0,0,0,0,0,.01,0,.02,0,0,0,.01,0,.01,0,0,0,0,0,0,0,0,0,0,0,.01,0,0,0,0,0,0,0,0,0,0,0,.01-.01,0,0,0,0,0,0,0,0,.01-.02.02-.03,0,0,0-.01,0-.01,0,0,0,0,0,0,0,0,0,0,0,0,0-.02.01-.04.01-.05,0,0,0-.01,0-.02,0,0,0-.01,0-.02,0,0,0,0,0,0,0-.01,0-.03,0-.04,0-.05,0-.1,0-.15,0,0,0-.01,0-.02,0-.05,0-.11.02-.15.02-.06.07-.1.12-.13,0,0,.02-.01.03-.02,0,0,0,0,0,0,.07-.02.14-.02.2,0,.04,0,.08.02.11.03.15.06.3.15.46.19.28.06.54-.06.81-.07.01,0,.77-.11,1.43-.6.37-.28.57-.57.65-1.02.1-.53.13-.98.12-1.38-.02-.71-.13-1.47-.29-2.16-.15-.63-.45-1.23-.86-1.74-.22-.22-.44-.45-.65-.68-.16-.17-.35-.38-.47-.6-.03-.05-.06-.1-.08-.16l-.05.08c-.33.57-.7,1.22-1.42,1.37-.19.04-.37.06-.54.06-.32,0-.6-.07-.87-.21-.28-.15-.53-.34-.78-.53-.17-.13-.36-.27-.54-.39-.26-.17-.55-.31-.83-.44-.26-.13-.53-.26-.78-.41-.09-.06-.18-.11-.28-.17-.19-.11-.38-.22-.56-.35-.02-.01-.04-.03-.06-.04-.13.65-.67,1.24-1.16,1.59-.52.37-.85.8-1.19,1.33-.14.21-.29.42-.43.62-.02.04-.04.08-.05.12-.16.38-.29.77-.36,1.17-.09.49-.22.99-.28,1.49-.09.86.11,1.76.74,2.39.09.09.19.17.3.25.32.18.66.3.98.34l.13.02c.38.05.82.11,1.17,0,0,0,0,0,0,0,.05-.03.1-.04.15-.06.02,0,.04-.02.05-.02h0s0,.01.01.01c.14-.02.3.04.34.19.01.04.01.09.01.13,0,0,0,.01,0,.02,0,.06,0,.11,0,.17,0,0,0,.01,0,.02,0,0,0,0,0,0,0,0,0,.01,0,.02,0,0,0,.02,0,.03,0,.01,0,.02,0,.03,0,0,0,.01,0,.02,0,0,0,0,0,0,0,0,0,.02.02.03,0,0,0,0,0,.01,0,0,0,0,0,0,0,0,0,0,.01.01,0,0,0,0,.01,0,0,0,0,0,0,0,0,0,0,0,0,0,0,0,0,0,0,0,0,0,.01,0,.02,0,0,0,0,0,0,0,0,0,.02,0,.02,0,0,0,0,0,.01,0,0,0,0,0,0,0,0,0,.01,0,.02,0h0s0,0,0,0c0,0,.01,0,.02-.01,0,0,0,0,0,0,0,0,0,0,0,0,0,0,.01,0,.02-.01,0,0,.01-.01.02-.02,0,0,0,0,0,0,.01-.02.03-.04.04-.06-.04-.09-.06-.19-.1-.29-.02-.05.02-.09.06-.1.05-.01.09.02.1.06.02.06.03.11.05.17,0,.01,0,.03.02.04,0,0,0,.01,0,.02,0,0,0,0,0,.01,0,0,0,0,0,0,0,.02.02.05.04.07,0,0,0,.01.01.02,0,0,0,0,0,0,0,0,.02.02.03.03,0,0,0,0,0,0,0,0,0,0,.01,0,0,0,0,0,0,0,0,0,0,0,0,0,0,0,.01,0,.02,0,0,0,0,0,0,0,0,0,0,0,0,0h0s.01,0,.02,0c0,0,0,0,0,0,0,0,0,0,0,0,0,0,.01,0,.02-.01,0,0,0,0,0,0,0,0,0,0,0,0,0,0,.02-.02.03-.03,0,0,0-.01.01-.02,0,0,0-.01.01-.02,0,0,0-.02.01-.02,0,0,0,0,0,0h0s.01-.03.02-.05c0,0,0-.01,0-.02,0,0,0,0,0,0-.04-.05-.06-.11-.06-.18,0-.05.04-.08.09-.08.05,0,.08.04.08.08,0,0,0,0,0,.01,0,0,0,0,0,0,0,0,0,0,0,0,0,0,0,.02,0,.03,0,0,0,0,0,0,0,0,0,.01,0,.02,0,0,0,0,0,0,0,0,0,0,0,0,0,0,0,0,.01.01,0,0,.02.02,0,0,0,0,0,0,0,0,0,0,0,0,.01,0,0,0,0,0,0,0,0,0,0,0,0,0,0,0,0,0,0,0,0,0,.01,0,.02,0,0,0,0,0,0,0,.01,0,.03,0,.04,0h0s0,0,.01,0c0,0,0,0,0,0,0,0,0,0,.01,0,0,0,0,0,.01,0-.02,0-.01,0,0,0,0,0,.01-.01.02-.02,0,0,0,0,0,0,0,0,0,0,0-.01,0,0,0-.01.01-.02-.07-.09-.09-.22-.12-.32-.01-.05.02-.09.06-.1.04-.01.09.02.1.06.02.07.04.14.06.2,0,0,0,0,0,0,0,0,0,.01.01.02,0,0,0,.01.01.02,0,0,0,0,0,0,0,0,0,0,0,0,0,0,0,0,.01.01,0,0,0,0,0,0,0,0,0,0,.01,0,0,0,0,0,0,0,0,0,0,0,0,0,0,0,0,0,0,0,0,0,.01,0,.02,0,0,0,0,0,.01,0,0,0,.02,0,.02,0t0,0s0,0,0,0c0,0,.01,0,.02-.01,0,0,.02-.01.01,0,0,0,0,0,0,0,0,0,.01-.01.02-.02,0,0,0,0,0,0,0,0,0,0,0,0,0-.01.01-.02.02-.03,0,0,0,0,0-.01,0,0,0,0,0,0,0,0,0-.02,0-.02,0-.02.01-.03.01-.05.02-.08.03-.17.05-.26,0,0,0,0,0,0,0-.09,0-.18-.02-.26-.04-.21-.11-.43-.24-.61-.04-.06-.09-.11-.15-.17,0,0,0,0,0,0,0,0,0,0,0,0-.12-.11-.26-.21-.41-.28-.26-.12-.49-.07-.76-.04-.08.01-.13-.08-.1-.13,0,0,0,0,0,0-.01-.63-.1-1.25-.51-1.76-.35-.44-.86-.75-1.42-.81-.11-.01-.11-.18,0-.17.61.06,1.16.39,1.54.86.42.53.54,1.17.55,1.83.11-.02.22-.04.34-.04.15,0,.28.04.41.1.17.08.33.19.47.32,0,0,0,0,0,0,.1.09.23.14.34.21.12.07.23.17.29.3.1.19.09.57-.17.6,0,.19-.03.37-.12.54,0,.02-.02.02-.03.03-.02.02-.04.04-.06.05-.06.04-.12.06-.19.05-.02.04-.05.08-.08.1-.06.05-.13.06-.21.05-.02,0-.04,0-.06-.02-.02.06-.05.11-.09.16-.06.07-.15.1-.24.09-.04,0-.08-.03-.11-.06-.03.05-.08.09-.13.12-.08.04-.18.04-.26,0-.06-.03-.1-.08-.13-.14-.02-.04-.03-.09-.04-.13-.02-.06-.02-.12-.02-.18,0-.03,0-.06,0-.08,0-.01,0-.03,0-.04,0,0,0,0,0,0,0,0,0-.01,0-.02,0,0,0-.01,0-.02,0,0,0,0,0,0,0,0,0-.01,0-.01,0,0,0,0,0,0,0,0,0,0,0,0,0,0,0,0-.01-.01,0,0,0,0,0,0,0,0-.01,0-.02,0,0,0,0,0,0,0,0,0,0,0,0,0-.01,0-.03,0-.04-.01,0,0,0,0,0,0,0,0,0,0,0,0,0,0-.01,0-.02,0-.01,0-.03,0-.04,0,0,0,0,0,0,0,0,0,0,0,0,0,0,0-.01,0-.02,0-.03,0-.05.01-.08.02,0,0,0,0-.01,0,0,0,0,0,0,0-.01,0-.02.01-.03.02-.02.01-.04.01-.06,0-.16.05-.34.07-.52.07-.24,0-.48-.03-.71-.07l-.13-.02c-.11-.02-.23-.04-.35-.08-.17.1-.33.24-.45.38-.18.22-.32.46-.41.73-.16.44-.18.9-.13,1.35,0,0-.02,0-.03-.01-.02,0-.03-.01-.05-.02-.02,0-.04,0-.06,0-.03,0-.05.04-.04.07,0,0,0,0,0,.01h0,0c.04.12.11.23.18.32-.04-.02-.09-.02-.12.02-.03.03-.04.08-.02.12.05.11.11.22.19.31.04.04.07.08.12.12-.04-.01-.09-.03-.13-.04-.08-.02-.14.07-.11.14.11.2.26.37.44.5-.01,0-.03,0-.04-.01-.06-.02-.13.06-.09.12.08.12.18.23.28.33.02.02.04.04.06.06-.05,0-.09.01-.14.02-.05.01-.06.08-.03.11.14.15.29.28.45.41.08.06.16.12.24.18.02.02.05.03.07.05.37.55.78,1.08,1.18,1.59.25.33.56.61.8.94.04.06.08.12.12.18.04.05.07.1.11.16.05.08.09.16.13.25,0,0,0,0,0,0,.01.02.03.05.04.07,0,0,0,0,0,.01,0,.02.02.03.03.05.02.03.04.05.06.08.01.02.01.04.02.06.04.1.06.18.06.24,0,0,0,0,0,0-.17.05-.34.1-.51.16-.21.09-.42.16-.64.21-.36.09-.73.14-1.1.21-.34.06-.75.12-1.03.34-.21.17-.37.46-.38.74-.02.06-.01.12.01.17.07.15.23.23.39.18.04-.01.07-.03.11-.05.04.06.11.1.17.12.09.03.18.02.26,0,.05.1.16.17.26.19.13.03.26,0,.37-.06,0,0,0,0,0,0,.32.26.61-.25.88-.36.2-.08.43-.11.64-.16.24-.06.49-.12.73-.2.49-.16,1.17-.36,1.38-.52.12-.14.17-.32.17-.52,0-.12,0-.25.02-.37,0,0,0-.01,0-.02.02-.11.05-.22.08-.32,0,0,0-.02,0-.03.01-.04.03-.08.04-.12.07-.24.14-.48.22-.72.03-.09.18-.05.15.04-.07.23-.14.45-.21.68,0,0,0,.02,0,.03.01,0,.03.02.04.03,0,0,0,0,0,0,.33,0,.66.03,1,.05.08,0,.16,0,.24.01Zm-2.97-8.44s0,0,0,0c0,0,0,0,0,0,0,0,0,0,0,0Zm2.59-.11h0s0,0,0,0c0,0,0,0,0,0Zm0,0s0,0,0,0h0s0,0,0,0Zm-3.35.47s0,0,0,0c0,0,0,0,0,0,0,0,0,0,0,0Zm0,0s0,0,0,0c0,0,0,0,0,0,0,0,0,0,0,0Zm-1.87,8.3c.18,0,.37.01.55.02.32.02.65.04.98,0,.04,0,.07-.04.07-.08,0-.04-.04-.07-.08-.07-.32.04-.64.02-.95,0-.18-.01-.37-.02-.56-.02-.23,0-.45.02-.68.04,0-.13.04-.26.07-.39.01-.05.02-.11.03-.16,0-.04-.02-.08-.06-.09-.04,0-.08.02-.09.06-.01.05-.02.1-.03.16-.03.12-.05.25-.06.38-.11-.22-.09-.56-.07-.86,0-.04,0-.07,0-.11,0-.06,0-.13,0-.18,0-.04-.03-.08-.08-.08s-.08.03-.08.08c0,.04,0,.09,0,.13,0,.05,0,.1,0,.15-.02.32-.04.68.09.94-.25.03-.51.04-.76.03-.04,0-.08.03-.08.07,0,.04.03.08.07.08.06,0,.12,0,.19,0,.26,0,.52-.03.77-.05.25-.03.51-.05.76-.05Zm-2.25.08s.08-.03.08-.08-.03-.08-.08-.08H1.02s-.08.03-.08.08.03.08.08.08h2.42Zm-3.36-.11s-.08.03-.08.08.03.08.08.08h.31s.08-.03.08-.08-.03-.08-.08-.08H.08Zm19.14.33h-3.05s-.08.03-.08.08.03.08.08.08h3.05s.08-.03.08-.08-.03-.08-.08-.08Zm1.3,0s.02-.09.04-.14c.03-.11.05-.22.1-.32.02-.04,0-.08-.04-.1-.04-.02-.08,0-.1.04-.04.09-.07.19-.09.28-.03-.19-.03-.39-.03-.6v-.11s-.03-.08-.08-.08-.08.03-.08.08v.1c0,.27,0,.53.06.79,0,.03.03.04.05.05h-.45s-.08.03-.08.08.03.08.08.08h.88s.08-.03.08-.08-.03-.08-.08-.08h-.27Zm1.54.02h-.74s-.08.03-.08.08.03.08.08.08h.74s.08-.03.08-.08-.03-.08-.08-.08Zm-18.74.33s-.06.06-.04.1c.12.28.17.53.16.72,0,.04.03.08.07.08,0,0,0,0,0,0,.04,0,.07-.03.08-.07.02-.22-.04-.48-.17-.79-.02-.04-.06-.06-.1-.04Zm.47.32s-.02.06-.02.08c-.04.13-.07.24-.06.39,0,.04.04.07.08.07,0,0,0,0,0,0,.04,0,.07-.04.07-.08-.01-.12.02-.22.05-.34,0-.03.02-.06.03-.09.01-.04-.01-.08-.05-.09-.04-.01-.08.01-.09.05Zm12.2.03s-.02-.08-.07-.08c-.04,0-.08.02-.08.07-.04.3-.02.59,0,.87,0,.12.01.23.02.35,0,.04.03.07.08.07h0s.07-.04.07-.08c0-.12-.01-.24-.02-.35-.02-.29-.04-.56,0-.84Zm.32.57s-.08.01-.09.05c-.06.19-.13.41-.13.64,0,.04.03.08.08.08h0s.08-.03.08-.08c0-.2.06-.4.12-.59.01-.04-.01-.08-.05-.09Zm-.02.69s.03.08.08.08h0s.08-.03.08-.08c0-.13.1-.32.2-.41.03-.03.03-.08,0-.11-.03-.03-.08-.03-.11,0-.14.12-.25.36-.25.53Zm-4.76-.59s-.07-.05-.1-.02c-.04.02-.05.07-.02.1.06.09.12.17.18.25.08.11.16.21.22.32.01.02.04.04.07.04.01,0,.03,0,.04,0,.04-.02.05-.07.03-.1-.07-.12-.15-.23-.24-.34-.06-.08-.12-.16-.17-.24Zm-.51.26s-.08,0-.1.05c-.01.04,0,.08.05.1.22.08.43.22.59.36.01.01.03.02.05.02.02,0,.04,0,.06-.03.03-.03.02-.08-.01-.11-.18-.14-.39-.3-.64-.38Zm-9.74-.66c-.05-.04-.1-.08-.16-.11-.04-.02-.08-.01-.1.02-.02.04-.01.08.02.1.05.03.1.07.15.1.06.04.12.08.18.12.01,0,.03.01.04.01.03,0,.05-.01.06-.04.02-.04.01-.08-.03-.1-.06-.04-.11-.08-.17-.12Zm17.94.72s.02.08.06.09c0,0,0,0,.01,0,.04,0,.07-.03.07-.06.02-.16.13-.3.28-.35.04-.01.06-.06.05-.1-.01-.04-.06-.06-.1-.05-.2.07-.35.25-.38.47Zm-11.16.36c-.06-.04-.12-.08-.18-.11-.04-.02-.08,0-.1.03-.02.04,0,.08.03.1.06.03.11.07.17.1.06.04.13.09.21.12.01,0,.02,0,.03,0,.03,0,.06-.02.07-.04.02-.04,0-.08-.04-.1-.06-.03-.12-.07-.19-.11Zm1-11.79c.05-.01.07-.07.08-.13.01-.11-.02-.21-.09-.29-.04-.06-.1-.1-.16-.14.08.16.14.34.17.52,0,.01,0,.03,0,.04Zm-.89.88s0,0,0,0c0,0,0,0,0,0,0,0,0,0,0,0Zm-.17.18s0,0,0,0c0,0,0,0,0,0,0,0,0,0,0,0Zm0,0s0,0,0,0c0,0,0,0,0,0,0,0,0,0,0,0Zm2.47-1.19c0,.06.02.11.08.13,0-.01,0-.03,0-.04.03-.18.08-.36.17-.52-.06.04-.12.08-.16.14-.07.09-.1.19-.09.29Zm.96,1s0,0,0,0t0,0s0,0,0,0Z"/>
  </g>
</svg>