<?xml version="1.0" encoding="UTF-8"?>
<svg id="Layer_2" data-name="Layer 2" xmlns="http://www.w3.org/2000/svg" viewBox="0 0 29.1 33.94">
  <defs>
    <style>
      .cls-1 {
        stroke-width: 0px;
      }
    </style>
  </defs>
  <g id="Layer_1-2" data-name="Layer 1">
    <path class="cls-1" d="m14.25,0c.84.2,1.65.62,2.17,1.32.48.64.69,1.43.78,2.21.08.72.05,1.45.04,2.17-.01.31-.12.62-.07.93.02,0,.05.03.06.04.02.56-.16,1.11-.26,1.65.45-1.13.33-2.37.34-3.56-.04-1.31-.02-2.67-.54-3.9.47.4.77.98.88,1.59.05.25.04.5.07.74.02-.3,0-.61.05-.91.13.14.13.34.19.51.06-.39-.05-.78-.06-1.17.23.65.24,1.34.4,2.01.05-.53.09-1.06.1-1.59.38.82.36,1.76.17,2.62-.1.52-.28,1.01-.38,1.53.17-.43.27-.89.54-1.27.29-.45.31-1,.46-1.5.04.59-.04,1.18-.07,1.78.14-.38.27-.76.43-1.13.04.25,0,.5-.03.74-.11.68-.3,1.34-.51,1.99.26-.32.49-.66.68-1.02.07-.13.12-.28.21-.4-.03.88-.35,1.73-.81,2.47-.2.33-.44.64-.66.96.53-.44.98-.96,1.47-1.43-.15.5-.44.93-.61,1.43.16-.11.29-.24.47-.31-.13.22-.32.39-.5.57-.24.25-.5.49-.75.73.5-.26,1-.55,1.42-.93-.27.66-.76,1.18-1.22,1.71.4-.18.81-.34,1.18-.59-.4.59-1.15.78-1.64,1.28.42-.15.8-.4,1.21-.58-.31.42-.76.71-1.15,1.05.27-.11.51-.27.79-.33-.24.37-.58.67-.87,1,.18-.03.34-.11.52-.15-.27.25-.51.52-.76.79.72-.1,1.46-.38,1.91-.97.55-.71.76-1.59,1.15-2.39.08-.1.28-.13.27-.29-.09-.66.22-1.28.16-1.94.08.11.14.23.21.34-.03-.41-.1-.81-.11-1.22.12.16.17.36.27.53.02-.37-.07-.74-.08-1.12.15.19.19.44.29.65.08-.5-.21-.96-.18-1.45.08.16.1.34.19.49.01-.21,0-.43.01-.64.11.3.1.63.21.93.04-.31-.06-.61-.03-.92.15.22,0,.56.27.71.11.22.03.49.07.73.14-.33.1-.7.14-1.05.19.79.01,1.64.27,2.42.08.28.26.51.36.79.12.32.15.66.13.99-.02.22.1.42.13.64.01.06,0,.13.07.16.25.09.52.02.75-.08.26.02.49.17.72.29.67.4,1.3.85,1.89,1.36.13.1.22.26.38.32-.05-.19-.18-.35-.28-.52-.18-.25-.36-.49-.57-.71-.44-.38-.94-.7-1.48-.94-.4-.18-.81-.34-1.22-.5-.06-.02-.1-.05-.14-.09.2-.07.46-.12.54-.34.33-.99.02-2.04.11-3.05.21.48.36.99.53,1.48-.11-.81-.41-1.58-.56-2.38.28.48.39,1.04.64,1.54-.04-.46-.25-.88-.36-1.32.33.51.52,1.09.67,1.68-.09-.6-.25-1.2-.39-1.79.14.19.22.42.26.65.21,1.16.64,2.31.53,3.5,0,.17-.1.4.09.51.72.45,1.38,1.03,1.84,1.75.44.68.68,1.49.65,2.3.14-.15.24-.34.4-.48-.05.2-.35.39-.17.59.09-.01.18.01.26.06.05,0,.16-.02.21-.02-.06.06-.15.09-.2.17.48.49.26,1.47-.41,1.66-.29.05-.43.33-.66.48-.12.08-.27.05-.41.07-.31.01-.62.1-.9.24-.57.28-1.22.28-1.83.34-.06.01-.14,0-.19.05-.05.16-.05.33-.12.48-.11.28-.28.53-.46.76-.06.08-.19.17-.12.28.16.11.36.12.55.15.66.09,1.37.2,1.89.66.22.07.45.15.62.31.58.49.72,1.46.21,2.05-.26.32-.69.46-1.08.4-.13-.02-.24-.11-.31-.21-.33.2-.74.29-1.12.21-.1-.02-.19-.09-.18-.2.01-.15.1-.29.09-.44-.17-.03-.35-.01-.51.06-1,.46-1.89,1.11-2.89,1.55-.57.25-1.18.43-1.81.4-.58-.02-1.14-.25-1.62-.57.29.9.48,1.84.46,2.79,0,.58-.1,1.16-.21,1.73.86-.99,1.15-2.33,1.32-3.6,0-.2.34-.19.38-.02.06.22,0,.44-.02.66-.13,1.7-.96,3.32-2.25,4.43.53.2,1.12.22,1.67.1.39-.07.74-.28,1.14-.33.91-.14,1.88-.04,2.71.36.38.19.81.49.84.95-.5-.1-.84-.62-1.36-.65.21.26.57.36.74.66.06.1.14.21.12.33-.09.13-.28.08-.41.05-.32-.07-.54-.35-.85-.44-.18-.07-.38-.06-.58-.04.47.04.84.41,1,.83.03.11.09.26-.01.34-.18-.01-.3-.18-.45-.26-.63-.39-1.4-.32-2.11-.26-.77.09-1.55.02-2.32.05-.3.02-.61,0-.9.11.07.1.2.12.31.14.72.11,1.45.13,2.17.15.74-.04,1.52-.14,2.23.15.46.18.8.61.9,1.1.03.1-.06.2-.16.18-.19-.02-.28-.21-.39-.34-.32-.38-.81-.56-1.29-.63-1.63-.3-3.29.01-4.93-.08-.23,0-.46-.02-.68,0-.06.01-.16.02-.13.11.24.24.58.34.91.38.93.1,1.84-.17,2.76-.2.21,0,.52.02.56.28.03.15.19.21.32.22.46.03.87.33,1.08.73.1.2.16.44.08.66-.02.07-.09.15-.17.13-.12-.05-.16-.18-.23-.27-.29-.43-.8-.63-1.29-.71-1.11-.18-2.24.04-3.35-.07-.25-.02-.49-.11-.74-.13-.95-.1-1.9.19-2.85.03-.23,0-.47-.1-.7,0-.03-.03-.06-.06-.1-.08-.08,0-.17.05-.24,0-.01-.03-.04-.1-.06-.14-.08.04-.17.08-.25.12-.03-.07-.06-.14-.09-.21-.08.02-.14.12-.23.13-.07-.06-.06-.17-.09-.25-.1.02-.2.05-.29.08-.07-.06-.08-.16-.11-.24-.14-.05-.26.11-.4.05-.05-.08-.02-.18-.03-.27-.09.04-.19.07-.29.07.02-.15.06-.3.09-.45-.58.35-1.26.49-1.9.7.09-.1.21-.18.3-.29-.46.02-.91.13-1.36.1.27-.15.6-.23.78-.48-.23-.09-.48-.05-.71-.04-.32.01-.65.05-.97.02.31-.13.67-.16.94-.37-.68-.01-1.36.01-2.04-.01.29-.12.6-.15.9-.25-.36-.05-.71-.1-1.06-.19.37-.11.77-.1,1.15-.17-.64-.13-1.29-.24-1.92-.39.32-.18.7-.03,1.05-.08-.58-.16-1.22-.21-1.74-.55.4.02.8.06,1.2.07-.75-.28-1.49-.65-2.04-1.24.45.16.93.24,1.4.34-.58-.38-1.28-.59-1.75-1.12.22.11.45.22.7.24-.43-.35-.85-.76-1.03-1.29.39.43.9.7,1.38,1-.22-.31-.61-.44-.82-.76-.35-.54-.76-1.05-.95-1.67.29.39.6.76.98,1.06-.65-.8-.98-1.79-1.26-2.77.68.74.96,1.77,1.7,2.45-.82-1.01-1.37-2.24-1.51-3.54.23.69.58,1.34,1.06,1.88-.17-.96-.72-1.81-.89-2.76-.06-.3-.07-.6-.03-.9.15.68.48,1.31.87,1.88-.33-.97-.5-2.01-.42-3.04.14.39.23.81.42,1.18-.09-.71-.14-1.44-.01-2.15.09.3.18.6.29.9.03-.53,0-1.06.07-1.58.01-.03.03-.08.04-.11.16.34.03.72.09,1.08.04-.17.04-.35.05-.53.13.1.15.28.23.41,0-.59.02-1.2.2-1.77.19,1.13.29,2.28.46,3.42.07.33.18.67.14,1.01-.28-.12-.26-.47-.38-.7.09.87.18,1.76.57,2.56.16.31.36.6.62.85-.2-.49-.61-.87-.8-1.36-.06-.18-.1-.38-.05-.56.09.25.15.52.29.74-.12-.46-.31-.92-.24-1.41.02.01.06.04.08.05.18.66.25,1.38.62,1.97-.15-.59-.32-1.18-.44-1.78-.21-.99-.36-1.98-.57-2.96-.07-.34-.03-.69.09-1.01.21-.5.21-1.05.36-1.56,0,.12,0,.24,0,.36-.06.96-.04,1.91,0,2.87,0,.06,0,.22.11.14-.04.49-.07,1.03.15,1.49,0-.16-.04-.32,0-.48.08.28.06.58.18.86-.05-.55-.16-1.1-.07-1.64.02.02.05.05.07.06.12.41.11.85.15,1.27,0,0,.01-.02.01-.02-.02-.25-.02-.5-.02-.75.01-.2-.09-.39-.09-.59-.01-.14.05-.27.11-.4.09-.21.07-.44.13-.65.06.3-.04.6-.04.91,0,.15.03.31.14.41.13-.46,0-.93.07-1.39.09.24.08.49.1.74.03-.12.05-.24.09-.36.02.09.07.15.16.17.06.54-.01,1.07-.06,1.61,0,.35-.12.7-.07,1.05.03-.03.05-.07.05-.11.05-.67.1-1.35.15-2.02.02-.24.01-.48.05-.71.02.08.03.15.05.23.07-.3.13-.6.22-.9.04.2.01.41.05.61.05-.04.1-.09.15-.13.02.02.07.07.1.09.08-.32.01-.68.22-.95-.05.03-.1.06-.14.1.02-.23-.02-.46,0-.69.02-.74.22-1.45.4-2.16-.39.7-.4,1.53-.5,2.31-.02.14-.02.29-.09.41-.09-.5.11-.99.09-1.5-.18.5-.23,1.04-.39,1.55l-.04.04c-.03-.26,0-.53.02-.8-.18.39-.36.78-.5,1.18-.12-.52-.09-1.06-.11-1.6-.04.2-.04.4-.05.61,0,.2-.22.34-.18.54.02.23-.05.46-.1.69-.06.25-.12.5-.27.72-.1-.12-.05-.3-.11-.44-.11.21,0,.49-.14.68,0-1.02-.13-2.06.13-3.06.1-.37.26-.73.49-1.04-.04.34-.08.69-.07,1.04.19-.67.42-1.35.82-1.92-.14.51-.3,1.01-.35,1.53.34-.87.9-1.63,1.31-2.47-.09.41-.26.81-.29,1.23.25-.65.74-1.17.94-1.84.04.73-.4,1.36-.58,2.05.26-.46.43-.98.69-1.44.13-.25.33-.46.46-.71.11-.2.2-.41.29-.63,0,.54-.31,1.02-.35,1.55.31-.7.68-1.38.96-2.09.12.54-.12,1.08-.37,1.55.53-.84,1.23-1.59,1.57-2.53.06.21-.03.41-.1.6-.12.3-.13.63-.18.95.32-.75.57-1.53.81-2.31,0,.71-.13,1.41-.26,2.1.58-1.03,1.12-2.15,1.14-3.36.22.94.02,1.94-.37,2.81-.4.92-.99,1.75-1.58,2.56-.08.11-.2.22-.14.37.1-.09.15-.23.29-.26.08.38-.3.6-.38.93.2-.21.38-.44.54-.69.23-.35.44-.73.77-1,.31-.26.67-.44,1.05-.56-.03.12-.16.16-.25.24-.47.41-.71.99-1.08,1.48-.2.36-.65.49-.87.84.51-.29.91-.72,1.29-1.15.46-.52.85-1.1,1.33-1.61-.2.67-.76,1.13-1.18,1.66.73-.61,1.31-1.41,2.16-1.88.16-.08.32-.19.51-.2-.18.25-.49.35-.7.56.38-.11.67-.4.97-.64,0,.32-.35.42-.5.65.68-.33,1.05-1.02,1.51-1.58.19-.26.5-.45.58-.79-.19.28-.46.49-.75.64.05-.75.3-1.46.5-2.17.04-.87.14-1.79-.2-2.62.01.22.09.44.11.66.16,1.2-.02,2.44-.5,3.54.05-.63.19-1.25.21-1.88-.24.65-.18,1.43-.66,1.98.26-.85.52-1.72.43-2.62-.03-.28-.09-.56-.18-.83.07.34.14.68.13,1.03,0,.98-.35,1.91-.69,2.81-.11.31-.18.67-.47.87.48-1.21.75-2.5.84-3.79-.26.99-.45,2.02-.98,2.9-.18.3-.4.59-.67.81.43-.75.76-1.57.92-2.43-.35.67-.4,1.48-.83,2.11-.11.16-.23.3-.39.42.3-.79.46-1.63.43-2.47,0-.1-.02-.2.02-.3-.02,0-.07,0-.09,0,.09.75-.06,1.52-.35,2.22-.14.32-.32.64-.56.89.25-.61.28-1.28.33-1.93.02-.33.1-.65.11-.98.02-.4-.08-.8-.1-1.2.26.25.31.62.38.96.04-.18.01-.37.02-.55.07.19.14.39.14.6.03-.06.09-.11.06-.18-.08-.7-.27-1.44-.77-1.96-.33-.35-.84-.51-1.32-.43-.71.12-1.32.55-1.87,1,.3-.4.7-.72,1.09-1.03-.33.08-.62.28-.92.45.33-.34.72-.62,1.16-.78-.59.07-1.08.47-1.44.92-.27.31-.47.68-.73,1,.07-.24.21-.44.35-.65.35-.49.76-.93,1.23-1.31-.07.02-.2.07-.26.1.24-.26.57-.38.91-.47.34-.08.69-.13,1.03-.13-.83-.1-1.68.17-2.34.66-.7.52-1.24,1.24-1.6,2.03.26-.93.88-1.75,1.66-2.32.58-.43,1.27-.71,1.98-.78.23-.03.47,0,.7-.02-.45-.09-.92-.1-1.37.01-.84.21-1.57.72-2.25,1.25.6-.76,1.45-1.31,2.38-1.57-.89.08-1.67.6-2.24,1.25-.45.5-.81,1.08-1.15,1.65.5-1.66,2.09-2.95,3.83-3.04.21-.01.43,0,.64,0-.73-.16-1.52-.08-2.2.25-.84.4-1.56,1.07-2.03,1.88.02-.1.05-.19.09-.27.19-.34.42-.66.67-.96.19-.22.38-.42.62-.58.02.01.06.04.08.05.28-.1.5-.29.78-.4.08-.02.14-.08.18-.15-.21,0-.41.11-.62.14-.22.04-.36.22-.55.32.16-.23.41-.39.65-.53.68-.36,1.47-.43,2.22-.47-.78-.13-1.58.07-2.28.41-.37.17-.7.4-1.02.65.19-.26.47-.44.74-.6.36-.21.75-.36,1.14-.52-.14,0-.27,0-.4.05-.46.15-.85.43-1.25.69.32-.49.88-.76,1.44-.9.78-.19,1.58-.14,2.38-.12-.74-.11-1.5-.16-2.24,0-.33.06-.66.18-.97.32.56-.46,1.31-.59,2.02-.6.7,0,1.4.13,2.08.3-.63-.37-1.39-.26-2.08-.35-.88-.09-1.71.26-2.5.57.51-.49,1.23-.65,1.92-.71.05,0,.03-.06.03-.1-.36.01-.73.09-1.09.07.9-.3,1.86-.26,2.79-.17.33.02.66.07.99.07-1.28-.21-2.59-.29-3.87-.05.81-.48,1.78-.16,2.66-.36-.65-.01-1.3.01-1.96.02.14-.06.3-.09.45-.11-.02-.02-.05-.07-.07-.09.09-.03.19-.06.28-.1-.38.02-.75.11-1.13.16.14-.08.29-.14.45-.18v-.05s.15.02.2.03c-.04-.01-.12-.04-.16-.06,1.22-.53,2.62-.6,3.91-.3.64.14,1.24.38,1.83.66-.09-.27-.37-.37-.61-.47-.18-.11-.4.05-.58-.05-.88-.44-1.89-.51-2.85-.55-.4-.05-.79-.21-1.19-.13.64-.27,1.33-.08,1.99-.15-.39-.1-.77-.24-1.15-.37.77-.06,1.51.2,2.27.27-.46-.18-.92-.37-1.4-.5,1.16.01,2.21.63,3.37.69-.85-.28-1.68-.6-2.52-.9.85-.12,1.67.21,2.43.53.37.15.74.32,1.13.39-.84-.52-1.76-.88-2.67-1.24,1.5.01,2.97.72,3.9,1.89-.49-.79-1.09-1.57-1.93-2.01m-.2,1.8c.43.45.86.9,1.24,1.39-.11-.26-.3-.48-.48-.7-.23-.26-.46-.52-.76-.69m-4.03.23c.54.02,1.09.05,1.63.07-.02.02-.05.07-.07.09.14.05.28.09.4.19-.16-.02-.32-.05-.48-.05-.29,0-.57.1-.85.2.15,0,.3-.02.45-.03l.02.04v.04c-.25.05-.51.07-.75.17.44,0,.88,0,1.31.13,0-.04,0-.11-.01-.15.11.02.22.03.33.05-.16-.08-.34-.15-.52-.17-.09-.01-.2,0-.27-.07,0-.01,0-.04.01-.06.52-.04,1.05-.02,1.53.2-.23-.18-.5-.29-.71-.49.3,0,.57.14.85.23-.24-.18-.53-.27-.82-.34-.67-.15-1.37-.09-2.05-.06m-1.57.24c.22-.04.44-.07.65-.14-.22.02-.45.04-.65.14m.78.16c.38,0,.77,0,1.15-.06-.38-.03-.77,0-1.15.06m6.66.28c.39.61.63,1.31.75,2.02,0-.41-.1-.81-.24-1.19-.12-.31-.26-.62-.52-.84m-7,.42c.94-.05,1.89.08,2.8.32.05.01.1.02.16.03-.94-.46-2.02-.47-3.05-.43.03.03.06.06.09.09m4.37-.1c.13.11.26.2.4.29-.11-.13-.24-.23-.4-.29m2.63.1c.18.42.38.84.52,1.28-.1-.45-.28-.89-.52-1.28m-.41.3c.04.25.25.42.33.66.15.31.23.66.46.92-.14-.57-.34-1.17-.79-1.57m-3.15.25c.58.26,1.1.65,1.58,1.06-.41-.49-.97-.87-1.58-1.06m2.49.23c.13.24.38.37.61.49-.17-.2-.38-.37-.61-.49m-3.19.11c.33.15.61.39.91.58-.23-.28-.55-.5-.91-.58m6.2.77c.04-.24,0-.48-.03-.72-.03.24,0,.48.03.72m-10.09-.35c.62-.12,1.25-.23,1.88-.21-.63-.07-1.3-.08-1.88.21m7.34-.09c.11.18.29.31.49.34-.16-.12-.32-.25-.49-.34m-.75.2c.07.14.22.22.33.33.36.3.61.72.74,1.17.3.9.52,1.87.3,2.81-.14.64-.55,1.17-1.01,1.62-.42.42-.85.85-1.33,1.21,0-.02,0-.05,0-.07.13-.17.27-.32.41-.48-.51.26-.8.78-1.15,1.21,0,.03,0,.1.01.13.04-.02.07-.05.11-.07.69-.62,1.45-1.18,2.07-1.87.47-.52.87-1.15,1-1.85.1-.53.01-1.06-.06-1.58-.12-.78-.36-1.58-.91-2.16-.15-.15-.3-.32-.51-.4m3.67,3.32c.22-.34.37-.73.5-1.11.14-.43.28-.87.31-1.33-.22.83-.59,1.61-.81,2.44m-3.44-1.04c.02.06.01.13.06.18,0-.04,0-.08-.02-.12-.07-.45-.24-.89-.55-1.23.19.38.43.75.5,1.17m1.65-.09c-.07-.34-.23-.65-.38-.95.06.34.22.65.38.95m.17-.81c.03.65.07,1.29.11,1.94.11-.27-.04-.56,0-.84,0-.37.06-.76-.11-1.1m1.46,0c-.06.39-.2.76-.27,1.15.23-.33.33-.75.27-1.15m-3.74.29c.33.85.29,1.78.16,2.67.23-.87.26-1.85-.16-2.67m-3.44.25c.39.37.66.84.86,1.33-.12-.52-.39-1.05-.86-1.33m4.24.07c.03.25.1.5.17.74.01-.26-.07-.51-.17-.74m2.47,1.02c.13-.15.21-.37.1-.56-.05.18-.09.37-.1.56m-5.12.65c.04-.33.05-.67,0-1.01-.02.33-.01.67,0,1.01m2.21.61c.08-.32.13-.64.11-.97-.03.32-.1.64-.11.97m2.79.82c.26-.22.46-.5.65-.78.15-.24.3-.49.33-.77-.26.56-.66,1.03-.98,1.55m-.83-.98c.04-.06.07-.11.11-.17-.09-.1-.08-.23-.1-.36-.01.17-.06.35-.01.53m-2.36-.28c-.03.4-.06.8-.15,1.2.15-.38.2-.8.15-1.2m8.81.01c.1.48.19.96.2,1.45.05-.48.06-1.02-.2-1.45m-.78.52c.06.39.26.76.25,1.16.02.35-.16.67-.43.88-.15.04-.2-.14-.24-.24-.09-.18-.1-.42-.27-.54.07.67.59,1.24.5,1.93-.05.51-.62.77-.67,1.27,0,.14-.11.26-.25.28-.26.03-.52-.09-.71-.25-.1-.09-.22-.22-.15-.36.1-.13.28-.13.42-.16-.11-.02-.24-.05-.35,0-.14.07-.25.18-.38.27-.81.54-1.84.62-2.63,1.21.13-.04.26-.09.4-.11-.25.28-.59.47-.93.62-1.07.43-2.27.31-3.35.7-.77.31-1.56.59-2.28,1.01.08-.07.24-.22.32-.3-.96.62-1.78,1.44-2.49,2.33.5-1.15,1.47-2.02,2.53-2.63.9-.52,1.87-.9,2.85-1.23-1.51.19-2.97.8-4.15,1.76-1.45,1.17-2.47,2.81-3.07,4.56-.71,2.09-.87,4.36-.5,6.53.08-.23.07-.48.13-.72.18.6.14,1.23.25,1.84.03-.58,0-1.16.03-1.73.02-.25.07-.49.09-.74.11-.83.47-1.61.7-2.41.24-.79.39-1.65.93-2.31-.54,1.12-.75,2.36-1.13,3.54-.26.73-.25,1.51-.32,2.27.16-.78.13-1.62.52-2.34-.04.69-.29,1.35-.27,2.04.06-.38.08-.76.2-1.12l.07.03-.03-.09s.06.03.07.03c.12-.43.21-.87.39-1.28-.02.52-.21,1.02-.19,1.54l.03.04c0-.05.03-.16.04-.21,0,.02.03.07.04.09-.03.14-.04.28-.04.42.17-.42.26-.87.43-1.29.08.67-.2,1.31-.31,1.97.23-.22.22-.56.33-.84.02.19-.02.38-.01.57.26-.78.34-1.67.92-2.3-.19.73-.48,1.44-.64,2.18-.04.22-.09.43-.08.66.19-.75.29-1.55.65-2.25,0,.71-.44,1.33-.48,2.04.03-.03.08-.08.11-.11.01.07.02.15.04.23.21-.46.33-1,.7-1.36-.32.74-.69,1.46-.93,2.23.26-.46.48-.95.65-1.45.05-.03.11.03.15-.02.2-.33.4-.66.5-1.03l.03.03c.08-.4.27-.77.45-1.14.49-.99,1.25-1.91,2.3-2.34-.72,1.04-1.52,2.09-1.75,3.36.17-.38.31-.78.49-1.16.33-.74.74-1.47,1.36-1.99-.25.72-.77,1.33-.97,2.07-.37,1.24-1.14,2.3-1.8,3.4.95-1.08,1.52-2.42,2.06-3.73.26-.66.48-1.39,1.05-1.87-.05.38-.22.73-.32,1.1.01,0,.03-.02.04-.02.22-.34.15-.82.47-1.1-.01.23-.1.46-.08.7.1-.18.05-.41.16-.59.05-.09.15-.12.24-.16-.04.13-.18.29-.11.43.11-.01.22-.11.32-.04.11.12.09.3.08.45-.09.88-.41,1.71-.6,2.57.3-.69.48-1.42.6-2.16.04-.27-.04-.59.17-.8.05.08.09.16.09.25,0,.39-.15.76-.11,1.15.08-.44.12-.88.17-1.33.15.03.24.18.32.3.23.42.24.91.37,1.37.03,0,.1,0,.13,0-.02-.37-.13-.73-.28-1.07.27.24.35.61.53.92-.01-.26-.15-.49-.2-.73.41.42.65.99.76,1.56.1.48.1.98.1,1.47.07-.53.08-1.07-.04-1.59-.15-.78-.55-1.49-1.07-2.08.73.51,1.21,1.34,1.37,2.21-.02,0-.06,0-.07,0,0-.03-.02-.09-.03-.12,0,.09-.01.18-.02.26l.04-.03c.04.44.02.89.02,1.34.05-.44.09-.88,0-1.32.02-.04.05-.08.07-.12.2,1.29-.09,2.61-.6,3.8-.37.85-.85,1.65-1.47,2.34.68-.34,1.38-.72,1.86-1.33.25-.31.39-.7.54-1.07.26-.68.46-1.39.56-2.12.13-.91.08-1.87-.26-2.74-.32-.63-.73-1.22-1.24-1.71-.56-.52-1.27-.91-2.04-.98-.79-.08-1.57.18-2.22.61-.73.49-1.32,1.17-1.77,1.92.12-.48.52-.83.7-1.29-.14.11-.24.27-.41.35.18-.42.51-.76.74-1.15-.23.15-.41.37-.61.55.15-.83.72-1.54,1.46-1.95,1.05-.59,2.31-.73,3.5-.59-.63-.24-1.32-.19-1.98-.18-.47,0-.94.12-1.35.34-.07.03-.14.09-.22.06.45-.32,1-.45,1.52-.6.46-.15.95-.2,1.43-.21.07,0,.13-.02.19-.05-.75-.13-1.53-.01-2.21.3.14-.15.32-.25.5-.33.77-.31,1.66-.09,2.42-.47-.3.02-.59.1-.9.08.23-.29.56-.48.89-.62-.35.03-.7,0-1.04-.08-.2-.04-.39-.1-.59-.09-.52.01-1.02.15-1.52.27.2-.1.41-.19.63-.25.71-.21,1.47-.14,2.18-.36.46-.14.88-.41,1.24-.73.04-.04.07-.08.09-.13-.43.28-.94.38-1.44.43-.88.09-1.71.4-2.56.64.54-.37,1.2-.47,1.82-.62.32-.07.72-.06.95-.34-.19.06-.37.16-.56.18.04-.02.07-.05.11-.07.85-.42,1.66-.96,2.6-1.18-.46.59-.73,1.29-.98,1.99.13-.13.22-.29.34-.42-.03.47-.44.8-.84.98-.34.18-.74.1-1.08.28.37,0,.76-.06,1.1-.21.51-.23.84-.71,1.21-1.11-.28.59-.52,1.23-.43,1.89.36-.81.83-1.57,1.3-2.32-.17.4-.3.81-.34,1.24.06-.06.12-.12.2-.13.03.23-.02.45-.06.67-.1.41-.2.82-.37,1.21-.12.3-.18.65-.02.95-.07-.8.43-1.49.45-2.28.03-.24.02-.52.21-.69.05.31-.07.61-.08.92h.07c-.06.28-.19.56-.14.86.09-.47.24-.92.35-1.38.06-.23.07-.46.11-.69.05.43-.09.85-.1,1.28.06-.3.13-.6.22-.9.04.29-.06.57-.08.86.02,0,.06.03.08.04.08.52-.11,1.03-.14,1.54.1-.24.16-.49.31-.71-.15.49.11.98.07,1.48.07-.13.13-.27.25-.37.01.19.02.39.03.58.04-.07.08-.14.13-.21.1.11.08.28.1.42.06.02.14.03.18.09.16.2.24.46.47.59-.17-.27-.43-.55-.32-.89.22.3.35.72.74.83-.21-.22-.51-.5-.35-.83.1.14.2.29.37.36-.03-.11-.06-.22-.07-.33.19.09.35.22.55.29.54.24,1.18.21,1.72-.01-.45.05-.89.18-1.35.11-.2-.03-.4-.15-.49-.33.09.04.17.08.26.13,0-.04,0-.12.01-.16.16.09.33.17.52.18.46.04.9-.12,1.35-.18-.4-.05-.8.12-1.21.06-.15-.02-.29-.09-.4-.19,1.03-.2,2.07-.36,3.12-.25-.18-.06-.36-.12-.51-.22.34,0,.67.06,1.01.08-.25-.18-.53-.31-.81-.45.54,0,.94.39,1.41.6.02-.02.06-.05.08-.07.08.04.15.09.24.11.11-.03.24-.14.35-.04.17.25.05.57.07.86.18-.46.06-.97-.19-1.38-.1-.17-.22-.35-.4-.44-.36-.18-.77-.2-1.16-.18-.5.03-1.01.11-1.48.28-.95.3-1.97.41-2.95.18-.11-.02-.22-.1-.24-.22-.04-.27.08-.53.05-.81.07.06.16.25.25.14.05-.18.03-.38.07-.57.04.12.07.24.15.33.2-.14.25-.41.32-.63.16-.62.07-1.25.03-1.88.24.45.31.96.4,1.45.03-.46-.09-.9-.19-1.34.15.16.28.34.36.54.28.67.19,1.43.48,2.09.09.21.33.33.56.28.36-.07.67-.31.94-.56.05-.06.14-.11.12-.2-.06-.06-.13-.11-.2-.16.1-.1.22-.19.29-.31.16-.27.21-.59.38-.85.04-.07.08-.14.11-.21-.18.07-.36.17-.56.17-.78.06-1.51-.48-1.85-1.16-.36-.79-1.17-1.25-1.62-1.99.37.06.7.23,1.06.3-.49-.33-1.13-.32-1.62-.66.34-.18.72-.01,1.04.13-.16,0-.3-.05-.45-.09.21.3.63.19.93.34.12.05.15.17.16.29.42.22.61.68.81,1.08.13.29.39.51.65.68.48.3,1.06.39,1.62.36,1.21-.06,2.35-.53,3.55-.61.1-.02.28-.04.28-.16-.12-.2-.28-.36-.36-.58.22.02.44.08.67.08.16,0,.32-.08.39-.23.23-.46-.04-1.07-.51-1.24-.23-.08-.48.02-.61.22-.22.3-.61.45-.79.79-.12.2.01.52-.23.65-.49.25-1.08.06-1.59.26.14-.09.3-.14.44-.23-.33-.02-.66.03-.99-.03.34-.16.69-.3,1.03-.45-.33-.07-.66.04-.99-.03.47-.14.83-.5,1.19-.8-.59.12-1.18.18-1.78.2-.4,0-.81.02-1.19-.1-.12-.03-.21-.11-.28-.21.2.02.4.09.6.04-.23-.09-.49-.12-.69-.26.21.01.43.07.64-.01-.24-.09-.54-.11-.69-.35.11.03.23.07.35.1-.16-.14-.33-.27-.44-.46.15.05.28.12.44.15-.14-.14-.35-.21-.46-.39.14.02.27.06.4.1-.16-.12-.3-.28-.35-.48.05.01.14.03.19.04-.09-.18-.25-.33-.27-.53.11,0,.22.04.33.07-.05-.08-.19-.13-.17-.24.07-.03.15-.02.23-.04-.01-.35-.58-.42-.47-.81-.02-.02-.06-.07-.08-.09.07-.17.22-.28.3-.44.25-.39.46-.85.4-1.33-.04-.29-.22-.6-.52-.67m-6.07,1.36c.39-.22.59-.65.87-.98-.36.26-.57.67-.87.98m-.31-.16c.2-.21.4-.44.49-.72-.15.25-.35.47-.49.72m-1.69.49c.44-.35.91-.69,1.2-1.18-.38.41-.85.74-1.2,1.18m.8.26c.33-.23.59-.55.77-.9-.26.3-.5.61-.77.9m.64-.29c.16-.09.29-.22.4-.36-.14.12-.29.22-.4.36m8.22-.04c.02.1,0,.22.08.3.09.06.2.03.29.03-.09-.14-.22-.26-.37-.32m2.37.87c.27.25.59.45.89.65-.24-.29-.55-.52-.89-.65m-2.57,1.33c-.06.42.18.84.54,1.05.43.28.96.31,1.45.24.08-.02.16-.06.2-.13-.12,0-.24.03-.36.05.1-.14.26-.24.34-.4.25-.43.23-1.01-.09-1.4-.13-.17-.3-.31-.5-.38-.67-.22-1.48.26-1.58.96m-7.81-.93c-.57.34-1.12.69-1.67,1.06.58-.32,1.15-.66,1.67-1.06m-1.04.95c.55-.25,1.1-.51,1.63-.81-.55.24-1.11.49-1.63.81m-6.75.73c-.02-.06-.04-.12-.07-.18-.24.5-.63.93-.78,1.47-.1.3-.22.59-.36.87-.04.07-.08.15-.15.2-.06-.38.14-.73.11-1.11-.23.55-.09,1.18-.34,1.73-.09.21-.29.32-.37.53.29-.24.57-.5.75-.84.08-.12-.02-.25.03-.38.09-.32.24-.63.4-.92.1-.17.21-.36.38-.48-.12.35-.32.66-.44,1.01.46-.8,1.11-1.55,1.28-2.48-.16.18-.22.46-.44.59m-1.58.81c-.43.8-.42,1.78-.94,2.54.02-.22.19-.4.16-.62-.01-.47.17-.92.2-1.38-.31.79-.48,1.64-.72,2.46-.02.08-.03.16-.03.24.09-.2.16-.41.29-.58.05-.08.16-.09.21-.17.12-.19.25-.37.41-.54-.01.05-.04.16-.05.21.4-.39.47-1,.44-1.53-.15.4-.16.83-.31,1.23-.02-.21.04-.42.08-.63.06-.25.1-.51.19-.76.02,0,.07,0,.09,0,.14-.52.36-1.02.61-1.5-.21.34-.44.68-.63,1.03m2.26-.08c.22-.25.46-.49.64-.76-.27.2-.57.41-.64.76m-.78.22c-.11.27-.26.52-.38.78.14-.25.46-.46.38-.78m-1,.59c.07-.16.13-.32.18-.48-.18.09-.19.3-.18.48m4.78,1.09c1.05-.59,2.25-.8,3.38-1.17-1.2.12-2.37.51-3.38,1.17m9.13-.93c.33.18.65.38.94.61-.16-.37-.61-.45-.94-.61m-14.51,1.08c.09-.15.15-.33.14-.51-.13.12-.1.34-.14.51m-.95,1.96c.28-.4.57-.78.89-1.14-.38.31-.68.7-.89,1.14m9.25-.32c.5.01.99-.17,1.38-.47-.43.23-.89.41-1.38.47m3.15-.18c-.1.31-.2.63-.26.95.13-.3.21-.63.26-.95m-12.47,1.87c.19-.43.37-.85.56-1.28-.26.39-.46.82-.56,1.28m20.12,0c.51.13.97.5,1.16,1,.13.31.13.66.09.99.18-.37.11-.81-.03-1.18-.13-.33-.34-.67-.67-.84-.17-.09-.38-.06-.54.02m-19.94.44c.1-.14.17-.3.23-.46-.1.14-.19.29-.23.46m-1.51-.36c-.08.51-.1,1.03-.09,1.54.05-.51.23-1.03.09-1.54m14.23,1.3c.03.26.08.52.25.73-.07-.24-.18-.48-.2-.73-.04-.41.03-.82.05-1.24-.1.4-.13.83-.09,1.24m8.7-.75c.15.44.17.91.1,1.36.2-.43.17-.96-.1-1.36m-14.79.35c.62-.21,1.28-.29,1.93-.22.18,0,.35.08.53.08-.08-.03-.15-.08-.24-.08-.31-.02-.62-.07-.94-.06-.44-.01-.88.1-1.28.28m-10.16-.14c.03.53.12,1.05.25,1.55,0,0,.03,0,.04.01-.06-.53-.1-1.06-.29-1.56m.28.24c.06,1.03.29,2.06.81,2.96-.19-.07-.31-.24-.44-.39,0,.04,0,.12,0,.16-.16-.07-.28-.19-.43-.27.07.18.21.32.34.46.41.2.8.44,1.23.6-.39-.41-.78-.83-.99-1.36-.2-.48-.19-1.02-.3-1.52-.05-.29-.14-.57-.23-.85,0,.07,0,.14,0,.21m9.79.14c.24-.05.47-.14.71-.18.54-.11,1.09-.11,1.64-.07-.78-.15-1.63-.13-2.34.25m6.67-.1c-.11.42-.02.88.17,1.26-.12-.41-.17-.83-.17-1.26m-13.88,1.04c-.06.31-.03.64,0,.96,0-.32-.03-.64,0-.96m9.95,2.58c.07-.38.11-.77,0-1.15.02.38-.06.76,0,1.15m-3.64-.04c-.21.52-.4,1.05-.5,1.6.43-.83.61-1.75,1.06-2.57-.26.28-.4.63-.56.97m-6.95-.73c.05.16.11.32.17.47,0-.17-.04-.34-.06-.51-.03.01-.08.03-.11.04m-1.69.06c0,.18.14.32.25.44.19.18.38.35.62.46.32.15.55.44.85.62-.46-.55-1.13-.87-1.58-1.42-.04-.05-.08-.09-.14-.1m9.53,2.29c-.3.75-.64,1.49-.91,2.26.46-.9.83-1.85,1.2-2.79.2-.55.43-1.09.57-1.66-.27.74-.55,1.47-.85,2.2m-9.83-2.15c.11.25.29.47.41.72.3,0,.46.32.73.41-.12-.21-.33-.36-.51-.52-.23-.18-.44-.39-.64-.6m.42.72c.02.16.17.25.28.36.21.17.43.34.68.44-.29-.3-.67-.5-.97-.8m-.02.31c.21.32.54.53.88.68-.28-.24-.59-.46-.88-.68m11.84,1.24c.08-.38.17-.76.15-1.15-.11.37-.11.77-.15,1.15m-1.42-.94c-.29.91-.6,1.82-.97,2.7-.08.2-.18.39-.24.6.58-1.02,1-2.14,1.21-3.3m2.5.07c.02.58.01,1.17,0,1.76,0,.63-.09,1.26-.26,1.87.38-1.01.36-2.1.31-3.16-.02-.16.06-.34-.05-.47m.2,1.36c0-.44.03-.88-.03-1.32,0,.44.03.88.03,1.32m-2.83,1.63c.56-.84.93-1.8,1.22-2.76-.34.95-.78,1.85-1.22,2.76m-10.6-2.73c.3.53.91.77,1.44,1-.49-.32-.98-.64-1.44-1m.32.07c.29.32.68.59,1.11.67-.4-.17-.74-.45-1.11-.67m10.79.15c-.1.23-.16.49-.2.74.1-.24.15-.49.2-.74m-1.84,2.37c.42-.73.74-1.51.93-2.33-.24.8-.6,1.56-.93,2.33m3.31.05c.21-.64.39-1.31.36-1.99-.12.66-.19,1.33-.36,1.99m-12.43-1.73c.32.24.71.38,1.08.52-.34-.21-.72-.35-1.08-.52m13.48.74c.02-.24.02-.47,0-.71-.03.24-.03.47,0,.71m-7.93.5c0-.39.07-.78,0-1.16-.03.39-.04.77,0,1.16m4.41.53c.17-.2.25-.45.34-.7-.19.19-.23.46-.34.7m-4.56.64c.02-.4.03-.8,0-1.19-.03.4-.06.8,0,1.19m6.79-1.08c-.14.37-.27.75-.39,1.13.26-.32.29-.75.39-1.13m-.67.63c-.17.31-.33.62-.43.95.18-.3.33-.62.43-.95m-.84.17c-.18.26-.38.51-.55.78.24-.21.43-.48.55-.78m-5.49.57c-.03.27-.04.54,0,.81.03-.27.04-.54,0-.81m6.08,2.16c.28-.25.5-.55.72-.85.14-.2.27-.4.36-.62-.32.52-.73.97-1.08,1.47m-5.66-1.36c-.05.33-.14.66-.09.99.08-.32.1-.66.09-.99m5.17,1.39c.21-.14.39-.31.55-.51-.19.15-.39.31-.55.51M8.66,1.71c.32-.14.68-.2,1.02-.13-.35,0-.68.1-1.02.13m.12.19c.44-.18.92-.25,1.4-.24-.46.12-.93.17-1.4.24m1.51,7.86c.05-.4.1-.8.15-1.2.19.88.16,1.81-.12,2.67-.16.5-.44.98-.85,1.32-.05.03-.09.09-.15.08l.05-.05c.22-.94.66-1.81.83-2.75.02-.01.06-.04.08-.06m1.82,2.12c.31-.51.5-1.09.81-1.6.06.63-.22,1.33-.81,1.6m12.23.27c.51-.15,1.04.22,1.23.68.12.26.14.63-.1.84-.24.2-.57.19-.86.16-.37-.04-.67-.36-.73-.72-.08-.37.07-.83.46-.96m.1.3c.06.13.17.25.32.27.14.02.27-.13.22-.26-.09-.2-.44-.22-.53,0m-4.61.94c.09-.01.19-.03.28-.02.07.03.09.11.13.16-.15,0-.3-.05-.41-.15m-1.07.49c.36-.13.71-.45,1.12-.33.26.07.6.03.73.31-.27,0-.51-.14-.78-.12.2.19.5.19.74.29.15.07.22.22.25.38-.27-.1-.53-.24-.79-.36-.24-.07-.49.04-.73.01-.09,0-.1-.1-.11-.16-.15.02-.3.02-.43-.03m-3.22,1.51c.63-.02,1.24-.18,1.83-.36-.54.34-1.21.47-1.83.36m-2.54.44c.33-.12.66-.26.99-.36-1.02.58-2.12,1-3.22,1.41.69-.45,1.46-.75,2.22-1.05m2.11.71c.63-.3,1.19-.81,1.9-.93-.25.27-.58.44-.9.61-.32.15-.65.29-1,.32m-4.88.93c.99-.76,2.2-1.22,3.45-1.28-.78.18-1.55.39-2.27.73-.97.45-1.85,1.12-2.46,2.01.31-.11.44-.46.74-.57-.47.68-1.16,1.21-1.48,1.99.5-.61.92-1.31,1.6-1.74-.85,1.02-1.8,2-2.31,3.25.33-1.73,1.33-3.32,2.73-4.39m8,.29c.06.2,0,.39,0,.59-.03.02-.08.05-.11.06.01-.22.05-.44.11-.66m-.11.92c0-.08-.05-.24.05-.26,0,.09,0,.17-.04.26h-.01m-10.9,5.21c0-1.78.96-3.45,2.29-4.58-1.11,1.32-1.83,2.93-2.29,4.58m16.92-3.78c.37-.05.8.03,1.06.32-.35-.13-.72-.17-1.06-.32m-14.92,3.04c.3-1.09.92-2.15,1.9-2.76-.38.37-.71.79-.98,1.24-.31.5-.57,1.04-.93,1.51m.76,2.14c.36-.33.49-.82.77-1.21-.27.98-1.02,1.71-1.59,2.51.05-.32.07-.72.38-.92-.03,0-.1.02-.14.03,0-.17.14-.28.23-.4.25-.33.45-.73.79-.98-.1.34-.29.64-.44.96m.12.24h.07c-.16.41-.45.78-.58,1.21-.05-.03-.1-.06-.14-.1h.08c.16-.38.33-.77.57-1.11m9.73,6.38c.19-.13.43-.06.64-.03.25.03.53.14.64.39.07.14-.03.27-.08.4.1.28.36.54.25.86-.23-.05-.39-.22-.58-.35-.12-.09-.28-.1-.39-.2-.24-.2-.42-.47-.7-.63-.08-.04-.15-.1-.21-.17.42-.04.8.15,1.19.26-.1-.34-.53-.34-.76-.55h0Z"/>
  </g>
</svg>