<?xml version="1.0" encoding="UTF-8"?>
<svg id="Layer_2" data-name="Layer 2" xmlns="http://www.w3.org/2000/svg" viewBox="0 0 31.43 33.94">
  <defs>
    <style>
      .cls-1 {
        stroke-width: 0px;
      }
    </style>
  </defs>
  <g id="Layer_1-2" data-name="Layer 1">
    <path class="cls-1" d="m18.65,32.16c-3.17,3.19-7.31-.29-7.31-.29,0,0,6.17,3.08,7.14-2.51.7-4.06-3.77-6.07-6.29-6.88-2.48-.79-4.19-3.08-4.17-5.68,0-.06,0-.12,0-.17,0,0,.96,3.96,5.6,4.71,5.08.82,8.45,7.38,5.03,10.82Zm-6.51-6.74c-7.56-1.25-3.43,6.74-3.43,6.74-4.57-2.28-5.37.4-5.37.4h6.57c-3.94-5.82,2.23-7.14,2.23-7.14Zm-4.4-1.57l-.51-.94s-2.91,1.09-5.37-.74c0,0,1.66,2.34,5.88,1.68Zm-4.81-3.94l1.09.62-1.05-1.21c-.06-.07-.14-.14-.22-.18-.39-.22-1.58-.85-2.75-.92,0,0,0,1.36,2.3,1.5.22.01.44.08.63.19Zm2.35-4.02c.25.02.48-.15.54-.4l.26-1.04c.43-.69.34-1.97.34-1.97l-.79.79c-.15.15-.24.36-.25.57l-.03.82c0,.27-.26.46-.52.41-3.91-.81-4.84,2.95-4.84,2.95,2.11-2.09,4.36-2.2,5.28-2.14Zm1.42-1.16c.12.35.27.89.27,1.38,0,0,2.06-2.34-.26-3.91,0,0,.08,1.16-.05,1.85-.04.23-.03.46.04.68ZM23.22.07c-3.48-.33-7.28.54-9.94,2.91-2.92,2.6-4.34,7.03-2.78,10.72,1.81,4.3,6.79,5.66,9.44,9.22,2.71,3.63,1.71,8.77-2.31,11.02,4.05-1.69,5.71-6.48,3.9-10.4-2.33-5.03-10.08-6.82-10.04-13.02.03-5.59,5.13-8.73,10.14-8.87,4.65-.13,10.93,2.77,7.48,8.6-2.67,4.52-8.89,4.02-12.97,2.22,4.29,2.51,10.58,3.08,13.84-1.46C34.1,5.28,28.63.58,23.22.07Zm-.98,31.25c5.49-3.2,7.04-11.4,3.13-16.39,2.03,5.85.95,11.67-3.13,16.39Z"/>
  </g>
</svg>