<?xml version="1.0" encoding="UTF-8"?>
<svg id="Layer_2" data-name="Layer 2" xmlns="http://www.w3.org/2000/svg" viewBox="0 0 33.94 33.94">
  <defs>
    <style>
      .cls-1 {
        stroke-width: 0px;
      }
    </style>
  </defs>
  <g id="Layer_1-2" data-name="Layer 1">
    <path class="cls-1" d="m24.18,1.6C21.26.22,17.93-.28,14.72.15c-2.63.36-5.19,1.33-7.37,2.84C4.2,5.15,1.82,8.4.72,12.06c-1.09,3.59-.95,7.54.41,11.03,1.23,3.22,3.49,6.03,6.34,7.96,3.16,2.15,7.07,3.17,10.88,2.84,3.92-.31,7.71-2.03,10.5-4.8,2.31-2.25,3.95-5.18,4.66-8.32.84-3.68.43-7.64-1.2-11.05-1.67-3.53-4.6-6.45-8.14-8.11Zm1.08,8.19c-1.36,0-2.89.69-3.33,2.07-.47,1.39.22,2.78.42,4.16.53,3.12.42,6.47-.98,9.36-.96,2.04-2.78,3.74-5.01,4.24-1.99.45-4.28.15-5.84-1.26-1.83-1.65-2.02-4.91-.1-6.58-1.77,1.78-1.44,5.05.58,6.5,1.71,1.22,4.05,1.31,5.97.56,2.04-.82,3.47-2.72,4.11-4.78.99-3.14.76-6.55-.16-9.68-.4-1.36-.29-2.95.63-4.07.71-.93,1.83-1.38,2.94-1.59-1.51-.03-3.16.6-3.93,1.97-.75,1.36-.59,3.01-.29,4.48.54,2.73.78,5.6.06,8.32-.42,1.53-1.28,3.01-2.66,3.85-1.91,1.17-4.54,1.17-6.35-.19-1.26-.92-1.48-3-.35-4.1.7-.74,1.74-1.02,2.48-1.7.56-.55.18-1.58-.61-1.6-1.56-.13-2.93.8-4.21,1.56-.59.34-1.26.58-1.95.56,1.05-.42,1.96-1.34,1.97-2.53-.04-.53.74-1.11.21-1.54-.56.06-1.06.34-1.57.54-1.07.47-2.19.79-3.34.96,1.63.32,3.17-.62,4.74-.96-.35.37-.77.68-1.07,1.1-.24.57.03,1.42-.61,1.77-.85.39-1.8.09-2.7.2.92.63,2.04,1.06,3.16,1.03,1.77-.09,2.97-1.76,4.74-1.87-1.6.21-2.64,1.63-4.16,2.03-1.23.38-2.51-.09-3.63-.6-.37-.14-.9-.66-.35-.94.83-.32,1.75-.04,2.6-.27.41-.25.19-.83.28-1.22-1.07.28-2.22.77-3.33.41-.71-.38-.27-1.26-.23-1.86.14-1.51.91-3.07,2.41-3.62.13-.56.25-1.14.6-1.62.36-.54.94-.84,1.47-1.17-.02,1.25.33,2.54,1.19,3.48,1.2,1.38,3,2.04,4.74,2.39,1.43.29,2.74,1.04,3.74,2.1-.53-1.95-1.29-3.85-1.5-5.87-.34-2.52-.1-5.29,1.42-7.42.85-1.17,2.16-2,3.6-2.18,1.94-.36,4.01.11,5.6,1.29,1.98,1.42,3.24,3.6,4.05,5.85-1.71-.81-3.5-1.68-5.45-1.59ZM6.61,15.88c-.16.41-.28.9-.69,1.12-.37.22-.81.16-1.21.07.19-.36.27-.81.63-1.04.37-.27.84-.18,1.27-.16Z"/>
  </g>
</svg>