<?xml version="1.0" encoding="UTF-8"?>
<svg id="Layer_2" data-name="Layer 2" xmlns="http://www.w3.org/2000/svg" viewBox="0 0 33.94 33.94">
  <defs>
    <style>
      .cls-1 {
        stroke-width: 0px;
      }
    </style>
  </defs>
  <g id="Layer_1-2" data-name="Layer 1">
    <path class="cls-1" d="m7.69,31.19c3.18,2.09,7.09,3.05,10.87,2.68,3.75-.34,7.37-1.98,10.09-4.59,2.66-2.5,4.46-5.89,5.05-9.49.57-3.4.09-6.98-1.4-10.09-1.68-3.57-4.66-6.51-8.25-8.14C21.16.2,17.88-.27,14.72.15,8.36.93,2.72,5.64.82,11.74c-1.19,3.68-1.08,7.76.32,11.36,1.26,3.29,3.6,6.15,6.55,8.08Zm-.29-26.73c1.95-1.19,4.41-1.39,6.57-.69,1.87.64,3.2,2.32,3.82,4.14.87,2.53.7,5.29.13,7.86-.31,1.5-.89,2.93-1.3,4.4.67-.58,1.34-1.19,2.15-1.57,1.28-.69,2.78-.72,4.11-1.29,1.59-.61,3.07-1.71,3.77-3.3.36-.75.4-1.59.45-2.4.56.34,1.19.65,1.57,1.22.39.5.5,1.14.67,1.74.54.34,1.15.61,1.54,1.14.93,1.13,1.03,2.65,1.25,4.03.09.53-.44.89-.91.93-1.07.09-2.09-.32-3.12-.55.08.42-.13.99.28,1.28.92.3,1.93-.03,2.84.31.45.2.2.71-.14.87-1.41.76-3.18,1.29-4.73.59-1.4-.55-2.45-1.91-4.04-1.97,1.74-.03,2.93,1.51,4.55,1.88,1.39.39,2.79-.25,4.01-.87-.9-.44-2.06.21-2.95-.4-.64-.45-.25-1.35-.62-1.94-.33-.41-.73-.74-1.08-1.12,1.68.45,3.32,1.28,5.1,1.14-.29-1.22-.3-2.62-1.19-3.6-.43-.52-1.09-.77-1.75-.86-.02-.64-.15-1.26-.4-1.85-.34.77-.61,1.57-1.14,2.23-1.38,1.86-3.62,2.84-5.83,3.3-2.5.49-4.65,2.62-4.97,5.18-.06.31-.05.71-.36.9-.43.27-1.1-.03-1.08-.57-.11-2.68.83-5.25,1.61-7.77.73-2.57,1.1-5.33.42-7.95-.42-1.59-1.4-3.18-3-3.79-1.53-.53-3.27-.54-4.77.11-1.65.7-2.96,2.04-3.91,3.54,1.79-.56,3.81-.74,5.57,0,1.34.55,2.4,1.81,2.61,3.26.29,1.49-.38,2.92-.65,4.36-.59,3.05-.59,6.32.56,9.25.82,2.14,2.53,4.03,4.77,4.68,2,.57,4.32.39,6-.91,1.98-1.56,2.35-4.76.7-6.69,2.01,1.95,1.51,5.54-.66,7.16-1.86,1.4-4.43,1.6-6.6.91-2.18-.69-3.89-2.45-4.84-4.49-1.47-3.09-1.57-6.65-1.04-9.97.22-1.5.97-3.01.49-4.54-.44-1.45-1.99-2.21-3.42-2.25-2.17-.17-4.19.79-6.09,1.71.94-2.68,2.53-5.27,5.02-6.76Zm17.56,19.84c.3,1.11.25,2.34-.32,3.36-.74,1.42-2.32,2.34-3.92,2.27-1.47-.04-2.89-.9-3.57-2.21.8,1.04,2.03,1.78,3.36,1.81,1.83.1,3.63-1.12,4.22-2.86.29-.76.26-1.58.21-2.37Zm-3.42,4.54c1.5-.85,2.49-2.62,2.09-4.35-.19-1.17-1.03-2.06-1.94-2.75,1.56.52,2.66,2.13,2.52,3.78-.08,1.54-1.23,2.89-2.68,3.33Zm4.37-9.12c.75.46.91,1.36,1.22,2.12.15.4.6.5.94.68-.47,0-.98-.14-1.18-.61-.33-.73-.45-1.56-.97-2.19Zm2.75-3.42c.75-.29,1.44.27,1.61.98-.74.16-1.35-.31-1.61-.98Z"/>
  </g>
</svg>