<?xml version="1.0" encoding="UTF-8"?>
<svg id="Layer_2" data-name="Layer 2" xmlns="http://www.w3.org/2000/svg" viewBox="0 0 33.52 33.94">
  <defs>
    <style>
      .cls-1 {
        stroke-width: 0px;
      }
    </style>
  </defs>
  <g id="Layer_1-2" data-name="Layer 1">
    <path class="cls-1" d="m31.79,25.67c-.1-.03-.2-.06-.33-.1.19.49.64.73.9,1.12.04.06.12.11.1.19-.04.13-.15,0-.26.06.4.44.66.95.84,1.54-.41-.25-.35-.76-.69-1.04,0,.21-.03.36.11.58.15.25.37.54.25.9-.04.13,0,.29-.2.31-.05,0-.1.06-.09.12.01.07.08.06.13.07.19.04.32-.08.49-.19-.22.25-.38.49-.24.81-.02-.04-.04-.09-.07-.14-.08.12.01.26-.09.38-.08-.09.02-.29-.13-.28-.14,0-.17.18-.2.3-.06.29,0,.6-.1.9-.07-.26-.36-.4-.29-.74-.19.1-.18.27-.25.38-.07.1-.1.28-.26.07-.08-.09-.13,0-.15.07-.1.28-.11.6-.53.64-.05,0-.29.16-.35.34-.07.21-.22.07-.32.07-.16,0-.02-.13-.04-.19-.11-.34.17-.61.15-.94,0-.11.02-.22-.01-.32-.02-.08-.02-.2-.12-.21-.1-.01-.09.1-.13.16-.18.29-.3.6-.43.91-.06.16-.07.16-.23.04-.09-.07-.18.02-.23.06-.24.19-.29.09-.28-.15,0-.04-.02-.08-.03-.12-.12-.09-.1.41-.29.05-.03-.05-.09.09-.13.14-.12.18-.2.14-.25-.04-.05-.14-.12-.29-.1-.44.08-.52.1-1.02-.17-1.54.04.63-.14,1.18-.45,1.73-.09-.27-.16-.51-.24-.76-.02-.07-.05-.16-.14-.15-.13.01-.06.1-.05.17.02.09-.07.1-.13.12-.1.03-.1-.05-.09-.12.02-.13-.02-.23-.1-.32-.15.05-.09.22-.24.32.03-.38-.3-.64-.2-1.02.02-.08-.01-.21-.07-.28-.2-.25-.27-.53-.34-.83-.04-.16-.1-.45-.33-.11-.11.17-.13-.08-.24-.04.02.19.07.38-.18.52-.17.09-.23.33-.13.55.07.15.1.3.12.47-.15-.33-.41-.58-.59-.89.15-.07.17.2.3.07.13-.13-.08-.18-.08-.25,0-.2.07-.4.12-.68-.26.33-.27.05-.35-.1-.14.16-.23.31-.17.5.02.06.12.14-.01.18-.08.02-.16-.02-.19-.1-.11-.34-.24-.28-.41-.03.07-.3.15-.59.22-.89-.1-.05-.08.09-.18.08,0-.05,0-.1.02-.15.04-.16-.11-.17-.19-.23-.13-.09-.13.07-.18.12-.18.18-.14.45-.28.75-.06-.45-.31-.77-.2-1.21-.21.15-.37.16-.58-.03-.15-.14-.52.11-.53.35-.02.29-.25.49-.31.76-.03.13-.29.08-.36-.07-.09-.2-.06-.43-.11-.64-.03-.11-.04-.23-.12-.31-.11.07-.02.2-.11.27-.09.01-.12-.06-.12-.12,0-.32-.34-.32-.48-.51,0-.01-.05-.01-.06,0-.17.36-.42.1-.63.07-.1-.01-.21-.02-.28.06-.07.08.07.14.07.25-.23.03-.48,0-.67.1-.2.1-.52-.04-.58.39-.1-.18-.09-.37-.29-.22-.16.12-.38.02-.57.06-.23.05-.19-.14-.17-.25-.33,0-.65.09-.91-.15-.07-.07-.13-.06-.19,0-.04.04-.09.12-.11.11-.34-.13-.31.17-.4.36-.15-.11-.14-.25-.13-.37-.08-.03-.11.06-.14.06-.34-.01-.47.16-.47.49,0,.1-.14.14-.24.09-.21-.1-.49-.11-.57-.41-.02-.08-.09-.12-.18-.11-.1.01-.08.11-.07.16.05.34-.07.72.21,1.02.05.05.1.12.12.19.04.11.02.27.19.25.16-.03.04-.21.18-.38-.14.52.14.87.23,1.27.01.05.07.12.13.14.35.15.39.48.49.78.05.14.18.24.32.31.09.05.15.09.08.23-.12.22-.1.49.07.66.19.19.25.44.36.66.09.17.22.26.33.25.22-.03.42.07.66-.03.22-.09.51.01.73.16.17.11.31.2.53.2.25,0,.44.15.49.49-.23-.15-.41-.22-.41.14,0,.11-.13.16-.22.15-.8-.16-1.54.26-2.33.19-.19-.02-.39.02-.59,0-.58-.04-.6-.07-.73-.64-.06-.25-.15-.5-.4-.65-.05-.03-.1-.11-.17-.07-.22.13-.34,0-.44-.16-.04-.07-.15-.14-.18-.1-.23.23-.3-.04-.42-.12-.29-.2-.58-.17-.74.14-.23.45-.62.63-1.07.82-.71.3-1.46.41-2.19.62-.38.11-.75.11-1.15-.02-.42-.13-.88-.06-1.33-.02-.24.03-.48.1-.66-.19-.11-.17-.32,0-.48.02-.11,0-.25.13-.31-.03-.06-.14.05-.24.15-.33.35-.32.8-.23,1.21-.28.58-.08,1.16-.06,1.74.09.38.1.93-.23,1.07-.6.12-.31-.22-.27-.34-.38-.09-.08-.28-.07-.42-.12-.19-.07-.1.18-.24.22-.35-.49-.98-.37-1.45-.65-.14-.08-.24-.18-.36-.27-.15-.11-.3-.29-.47.03-.06-.14-.09-.25-.16-.33-.05-.06.05-.4-.21-.13-.06-.13-.31-.14-.21-.37-.3.24-.43.15-.53-.31-.09,0-.03.12-.12.12-.1-.07-.02-.18-.03-.26,0-.16-.02-.3-.2-.36-.07-.02-.14-.07-.16-.18-.03-.22-.31-.42-.57-.44-.08,0-.07-.07-.08-.12,0-.15,0-.31-.02-.46-.01-.09.01-.25-.18-.17-.05.03-.08.02-.09-.04-.07-.56-.23-1.1-.11-1.69.15-.76.37-1.49.61-2.23.14-.43.13-.88.13-1.35,0-.58-.06-1.13-.13-1.69-.03-.24-.21-.44-.14-.7,0-.02-.1-.13-.07-.22.09-.24.12-.4-.11-.63-.16-.16-.11-.55-.12-.84,0-.12-.01-.21-.07-.32-.07-.14-.15-.3-.01-.46.02-.02.04-.07.03-.09-.21-.29.03-.55.04-.83,0-.03.04-.08.03-.09-.34-.4-.14-.93-.33-1.36-.05-.12.01-.24.02-.37.04-.46-.04-.9-.17-1.34-.05-.17-.11-.35-.09-.51.06-.52-.36-.74-.65-1.01-.04-.04-.11-.11-.14-.16-.1-.18-.2-.37-.35-.51-.2-.18-.3-.37-.26-.65.03-.2-.19-.21-.31-.27-.09-.04-.13,0-.09-.16.06-.25-.17-.39-.45-.41.07-.08.13-.03.19-.04.06,0,.12-.01.11-.08,0-.06-.06-.08-.11-.1-.14-.06-.37.08-.41-.13-.02-.13.2-.21.29-.32.18-.21.06-.68-.19-.83-.19-.11-.37-.19-.13-.45.15-.17-.19-.04-.13-.24.06-.05.21.02.35-.05-.22-.17-.39-.35-.08-.58.09-.06.01-.14-.04-.19-.06-.05-.16-.07-.18-.17.11-.1.21,0,.31,0,.08,0,.17.09.23-.02.05-.08-.03-.14-.07-.2-.02-.03-.05-.07-.11-.16.26,0,.44.09.5.27.13.38.32.72.55,1.06.14.21.07.51.06.76-.02.35.08.53.4.65.14.05.29.11.43.14.47.12.63-.02.87-.42.33-.56.43-1.06-.04-1.59-.19-.22-.3-.53-.45-.79-.1-.19-.12-.37.06-.53.12-.11.13-.24.1-.39-.04-.22-.13-.43-.02-.66.06-.13-.08-.24-.18-.32-.24-.19-.33-.4-.12-.67.11-.15,0-.43.29-.49.04,0-.07-.12-.08-.19-.01-.08-.04-.18.04-.24.07-.05.19-.02.21.03.17.51.76.74.85,1.28.05.3.02.61.06.91.04.33.08.67.11,1,.02.26.22.39.41.51.12.08.16-.02.23-.1.21-.28.23-.64.42-.93.03-.04.02-.11.05-.15.41-.53.16-1.02-.05-1.55-.26-.66-.67-1.27-.73-2,0-.07-.05-.14-.08-.21-.14-.28-.18-.58-.1-.89.05-.18.1-.35.16-.53C4.55.06,4.66-.03,5.31,0c.55.04,1.09.11,1.65.03.43-.06.88.18,1.27.36.74.33,1.53.56,2.25.95.15.08.27.05.4-.02.34-.17.68-.34,1.04-.47.5-.17,1.01-.2,1.54-.23-.07.1-.18.07-.31.14.31.05.6-.03.86.11-.25.25-.33.29-.7.33.28.11.58-.05.81.14.23.19.55.12.79.24-.03.14-.14.16-.27.23.19.05.34.09.49.13.09.02.21,0,.23.14.02.14-.11.14-.19.18-.03.01-.05.04-.07.07.13.13.34.11.44.3h-.34c0,.17.14.26.18.49-.64-.42-1.23.05-1.85-.02.28.08.65-.07.73.38-.16.04-.45-.26-.53.16,0,.01-.1,0-.15.01-.11,0-.23.01-.27.13-.04.13.08.18.14.24-.31.14-.61.27-.8.58-.05.09-.16.14-.23.22-.54.57-.86,1.22-1,2.01-.05.3-.21.57-.05.88,0,.01-.02.04-.03.06-.12.21-.25.41-.14.68.09.21-.11.38-.12.58,0,.12-.09.25-.07.4,0,.06-.04.17-.06.17-.32,0-.17.24-.19.38-.06.28,0,.62-.41.7-.07.01-.08.1-.07.17.03.63-.24,1.22-.28,1.85-.03.44-.16.9-.38,1.31-.09.18,0,.38-.05.58-.22.92-.1,1.81.14,2.73.14.53.45.98.55,1.52.06.33.36.6.4.97,0,.06.07.22.22.14.09-.04.08.05.08.09,0,.26.17.41.37.48.26.09.54.24.68.41.15.19.52.06.47.46.26-.29.55-.49.58-.9.07.09.1.14.15.2.21-.31-.1-.51-.18-.75.12-.04.12.03.14.07.05.09.11.19.23.13.1-.05.05-.15.04-.24-.01-.12-.09-.21-.02-.37.1-.2-.17-.03-.18-.16.06-.02.17-.02.22-.08.12-.13.18-.05.2.05.03.2.2.11.28.12.14.01.06-.14.07-.22.03-.2.15-.38.16-.61-.03.34.41.35.44.66-.05-.43.16-.8.3-1.19.34.3.39-.19.61-.27.07.07-.06.16.02.24.24-.17,0-.41.1-.62.13.04.28.43.4,0,0-.02.03-.04.05-.04q.29-.07.38-.37c.01-.05.03-.1.05-.14.16-.01.09.23.23.19.13-.03.15-.18.24-.35.01.33.03.59.04.85.18-.19.37-.38.37-.68,0-.08.05-.07.1-.02.01.01.09-.04.16-.07.11.15-.08.35,0,.61.07-.18.13-.3.17-.42.05-.15.07-.28.29-.28.17,0,.16-.27.34-.34.1.11-.03.27.09.42.04-.32.19-.41.46-.24.05.03.07.02.19-.19.02.07.04.13.06.2.19-.21.44-.36.59-.59.12-.18.22-.15.25.05.02.14.05.19.2.16.26-.05.53,0,.71-.29.1-.17.41-.13.53-.33.23.3-.08.58.01.9.26-.31.54-.34.89-.21.2.08.33-.16.51-.21.09-.03.11-.1.17.06.03.1.25.08.37.02.08-.04.15-.11.23-.17.06.11-.09.16-.02.29.08-.12.15-.23.22-.35.03.03.06.05.09.08-.02.14-.08.26-.19.39.35-.15.69-.16,1.04-.06-.02.15-.2.19-.22.35.09.08.13-.02.19-.05.1-.05.23-.19.31-.07.06.09.04.28-.12.36-.04.02-.06.05-.12.11.14.03.23-.03.33-.06.24-.08.24-.08.28.17.02.1.1.08.14.08.14.01.28,0,.42,0,.05,0,.15.01.15.02-.02.59.24.06.35.1.17.06.36.13.47.25.08.08.13.08.21.07.11,0,.22-.08.14.15-.03.1.21.18.34.16.23-.04.43-.08.47.24.02.12.11.08.18.07.18-.02.36-.04.57,0-.21.07-.42.15-.67.23.69.31,1.4.4,2.08.6-.09.01-.18.02-.29.04.07.17.25.06.34.19-.15.07-.3-.07-.43,0,.24.33.67.29,1,.47.13.07.25.2.42.21.03,0,.08.05.08.05-.24.42.43.33.3.67-.26-.06-.55-.3-.92-.12.11.1.31.08.34.26.04.21-.17.2-.25.3.27.12.6.02.91.24-.31.04-.54-.1-.77-.05-.23.06-.44.2-.71.12.03.24.22.29.34.4-.02.09-.13.06-.17.14.18.15.38.21.62.22.73.04,1.3.42,1.88.91-.72-.13-1.16-.76-1.88-.79.65.43,1.34.74,1.99,1.13-.36.04-.61-.35-.99-.21.78.69,1.44,1.45,1.38,2.58-.23-.14-.17-.51-.39-.72-.09.14.09.24-.01.36-.35-.32-.76-.56-1.22-.87.12.33.44.45.42.75-.18-.08-.22-.33-.45-.37,0,.15.18.23.07.41-.22-.36-.53-.53-.93-.56-.09,0-.2-.18-.26,0-.04.12.12.16.2.22.07.05.16.06.23.11.22.15.47.28.61.53Z"/>
  </g>
</svg>