<?xml version="1.0" encoding="UTF-8"?>
<svg id="Layer_2" data-name="Layer 2" xmlns="http://www.w3.org/2000/svg" viewBox="0 0 33.94 28.99">
  <defs>
    <style>
      .cls-1 {
        stroke-width: 0px;
      }
    </style>
  </defs>
  <g id="Layer_1-2" data-name="Layer 1">
    <path class="cls-1" d="m33.07,7.62s.24.06.47.16c.23.1.41.16.4.14-.03-.04-.89-.47-.96-.47-.03,0-.05-.02-.05-.04,0-.03.04-.03.1,0,.13.05.19.05.16,0-.01-.02-.12-.07-.24-.11-.12-.04-.22-.08-.22-.1,0-.04,0-.04.2.03.17.06.35.08.31.04-.01-.01-.05-.03-.08-.03-.03,0-.09-.03-.14-.06-.05-.03-.11-.05-.13-.05-.06,0-.4-.2-.38-.22,0,0,.1.03.21.08.2.1.6.19.49.11-.03-.02-.09-.04-.13-.04-.08,0-.52-.2-.49-.22,0,0,.08.01.16.04.14.06.38.12.65.16.16.02.14.01-.36-.2-.18-.08-.32-.14-.29-.14.07,0,.51.15.64.21.18.09.15.04-.04-.06-.09-.05-.16-.1-.16-.12,0-.05-.31-.17-.38-.14-.04.01-.06.01-.04,0,.02-.02-.1-.06-.26-.1l-.29-.07h.32c.17,0,.45.04.61.08.16.04.3.07.31.07,0,0,0-.02-.01-.04s-.06-.04-.11-.04-.11-.02-.13-.03c-.02-.02-.27-.09-.55-.16-.28-.07-.54-.15-.57-.17-.04-.03-.04-.03.02-.01.26.07.68.14.8.14.08,0,.16.02.19.04.02.02.12.05.21.06.17.03.17.02.1-.03-.04-.03-.12-.06-.16-.06-.05,0-.14-.03-.21-.06-.07-.03-.14-.05-.17-.03-.03.02-.04.01-.02-.01.02-.03-.04-.06-.14-.08-.24-.06-.63-.16-.68-.19-.04-.02.22,0,.5.05.13.02.18.02.18-.02,0-.03-.07-.06-.16-.08-.09-.02-.18-.04-.2-.04-.02,0-.16-.05-.32-.09l-.28-.08.23.02c.13.01.26.03.3.04.03.01.02,0-.02-.04s-.16-.08-.26-.09c-.28-.04-.36-.1-.09-.07.13.01.39.03.57.04l.34.02-.22-.05c-.51-.13-.85-.2-.92-.19-.04,0-.07-.01-.07-.03,0-.03.04-.03.13-.02.43.09,1.45.21,1.41.17-.01-.01-.08-.03-.15-.03-.07,0-.14-.02-.15-.04-.01-.02-.17-.05-.51-.1-.04,0-.16-.01-.26-.02-.11,0-.14-.02-.08-.03.19-.03.16-.08-.09-.1-.14-.01-.33-.04-.43-.06-.17-.04-.17-.04.06-.02.13.01.35.03.49.04.15.02.24.01.23-.01-.01-.02-.07-.04-.13-.05s-.2-.02-.31-.04c-.17-.03-.12-.03.3-.04.31,0,.47-.02.44-.04-.03-.02-.23-.03-.43-.02h-.38s.32-.04.32-.04c.26-.04.29-.05.18-.07-.08,0-.22,0-.32,0-.1.01-.28.01-.39,0l-.22-.02.32-.03c.61-.06.71-.07.74-.11.04-.03-.75-.03-1.12.01l-.22.02.22-.05c.12-.03.3-.07.39-.09.17-.04.17-.04-.08-.03-.14,0-.29.03-.33.04-.04.01-.07.02-.07,0,0-.04.22-.14.38-.18l.15-.04-.14.02c-.08,0-.17.03-.22.05-.07.03-.07.02-.03-.03.03-.03.15-.08.27-.11s.21-.06.2-.07-.13-.02-.28-.03c-.14,0-.24,0-.21.02.03.02-.01.03-.08.02-.07,0-.13-.02-.13-.03,0-.02-.2,0-.45.06-.09.02-.06,0,.08-.07.11-.05.29-.12.4-.14.11-.02.21-.05.21-.06,0-.03-.24,0-.54.07-.14.03-.25.05-.25.04,0-.03.31-.17.46-.21.09-.02.17-.06.17-.08,0-.05-.28-.01-.48.06-.18.07-.27.04-.09-.02.22-.08.57-.25.56-.26,0,0-.09.01-.17.04-.09.03-.17.05-.18.04-.03-.03-.42.12-.4.15,0,.01-.03.02-.08.01-.05,0-.11,0-.12.03-.01.02-.04.04-.06.04-.11,0,.05-.1.45-.3.55-.27.47-.28-.11-.02-.24.11-.45.2-.47.2-.1,0,.04-.08.33-.2.24-.1.3-.14.25-.16-.07-.03-.32.05-.63.2-.11.06-.14.06-.08.02.04-.04.21-.13.37-.2.16-.08.28-.15.27-.16s-.07,0-.13.02c-.06.02-.15.05-.21.06-.05.01-.1.04-.11.06-.02.05-.12.05-.12,0,0-.02-.1,0-.22.04-.12.04-.22.06-.22.05,0-.04.29-.23.39-.26.05-.01.21-.14.36-.29.25-.26.23-.3-.03-.06-.18.17-.43.29-.43.22,0-.03.01-.05.02-.05.05.02.31-.18.43-.33.07-.09.12-.16.11-.16s-.11.08-.22.17c-.11.09-.29.22-.41.28l-.21.11.11-.12c.06-.07.13-.12.14-.11.03.01.2-.13.28-.23.05-.07.05-.07,0-.04-.03.02-.1.07-.15.11-.05.05-.09.06-.09.03,0-.04-.01-.04-.05,0-.15.14-.3.26-.31.25,0,0-.07.04-.13.1-.06.06-.14.12-.17.12-.03,0,.02-.07.13-.17.23-.2.32-.29.46-.44l.1-.11-.12.08c-.07.05-.17.14-.23.2-.1.11-.22.16-.22.1,0-.01.06-.11.13-.21.15-.21.27-.44.25-.46s-.34.29-.32.31c0,.01,0,.01,0,0-.01-.01-.08.06-.14.16-.06.1-.13.18-.15.18s-.04.03-.06.08c-.01.04-.05.09-.08.1-.07.03-.06,0,.18-.33.22-.31.29-.42.13-.24-.06.08-.15.18-.21.24l-.09.1.06-.11c.09-.15.05-.13-.14.06-.26.27-.55.52-.52.45.01-.03.14-.16.28-.29.23-.2.36-.38.46-.62.04-.09-.31.26-.37.37-.03.05-.05.07-.06.04s.06-.15.16-.28c.24-.31.27-.41.08-.25-.08.07-.19.17-.24.23-.06.07-.09.08-.09.05,0-.03.1-.16.22-.28.23-.23.28-.33.11-.2-.22.16-.49.43-.44.45.03,0-.02.07-.11.13l-.15.11.12-.13c.11-.12.11-.13.02-.08-.05.03.06-.1.25-.29.19-.19.35-.35.35-.36,0-.05-.1,0-.22.11-.22.21-.25.23-.33.23s-.37.19-.42.27c-.01.02-.06.06-.11.09-.05.02-.02-.02.07-.11.25-.24.28-.4.04-.18l-.12.11.09-.13c.05-.07.07-.13.05-.13s-.05.02-.06.04c-.01.02-.04.04-.07.04s-.01-.04.03-.08c.04-.04.09-.08.11-.08s.15-.11.28-.25c.13-.14.21-.22.16-.18s-.09.07-.11.07-.11.08-.21.17c-.34.32-.39.29-.08-.04.11-.12.17-.2.13-.18-.17.09-.33.28-.37.44-.02.09-.06.16-.08.16s-.09.05-.14.11c-.07.07-.09.08-.06.03.02-.04.08-.12.12-.16.08-.08.35-.8.31-.83-.05-.05-.26.41-.26.55,0,.05-.03.12-.06.16-.05.07-.05.05-.02-.12.02-.11.03-.2.02-.21-.01-.01-.07.06-.13.16-.06.1-.13.19-.16.2-.03.01-.02-.03.03-.09.04-.06.09-.21.1-.32.03-.26-.02-.21-.16.2-.15.4-.17.48-.17.68,0,.11-.02.2-.04.21-.05.03.02-.6.11-.98.05-.21-.05-.11-.12.12-.13.44-.2.45-.12,0,.07-.37.07-.47.02-.47-.02,0-.03.02-.02.04s0,.04-.02.04-.04.03-.04.07c0,.04-.03.1-.06.15-.03.04-.06.11-.06.15s-.03.08-.06.1c-.03.01-.06.07-.06.13,0,.06-.02.13-.04.16-.03.05-.04.05-.04,0,0-.14.08-.36.13-.33.04.02.04.01,0-.02-.03-.03-.04-.07-.01-.12.06-.11.11-.39.07-.39-.02,0-.04.04-.04.08s-.02.07-.04.06c-.02-.01-.03.02-.02.07.02.09-.06.31-.11.31-.02,0-.03.03-.03.07,0,.04-.04.13-.08.21l-.08.14.02-.16c0-.09.02-.2.02-.26,0-.07.01-.08.03-.05.02.03.05-.02.08-.15.03-.11.04-.21.03-.22-.02-.02-.15.21-.14.24,0,0,0,.04-.02.08-.05.12-.09.07-.05-.06.02-.07.04-.16.04-.21,0-.09-.23.4-.23.5,0,.04-.03.12-.06.2l-.06.13v-.14c.01-.08.03-.14.05-.13.02,0,.03-.03.03-.08s.01-.15.02-.22c.04-.2-.05-.14-.12.08l-.06.21.02-.18c.01-.1.03-.24.04-.31.02-.08,0-.13-.02-.13-.03,0-.03.02-.02.04s0,.06-.02.07-.09.2-.14.4c-.05.2-.08.32-.07.25.05-.33.07-.76.02-.79-.03-.02-.04,0-.02.06.01.05,0,.15-.02.21l-.04.12.02-.14c.01-.1,0-.12-.02-.08-.02.03-.04.16-.04.28,0,.19,0,.2-.04.12-.02-.05-.03-.17-.02-.26s0-.21-.01-.28c-.02-.07-.03.06-.02.34,0,.25,0,.45-.02.43-.03-.03-.07-.49-.07-.77,0-.14-.04-.12-.05.03,0,.06-.02.11-.04.11s-.03.04-.04.09-.03.08-.06.08c-.08-.02-.14.15-.12.32.01.11,0,.14-.02.11-.02-.02-.05-.15-.07-.29-.02-.21-.03-.23-.06-.14-.03.11-.02.31.03.44.02.06.02.07-.01.02-.06-.08-.13-.33-.16-.59l-.03-.22-.02.47-.05-.14c-.03-.08-.09-.19-.13-.26l-.07-.11-.02.26c-.02.25.02.51.09.51.02,0,.03.04.03.1s.02.11.04.12c.04.03.04-.02-.04-.31-.03-.11-.07-.18-.09-.16-.03.02-.03,0-.02-.04.01-.04.03-.13.03-.21,0-.22.05-.12.11.2.05.29.11.56.13.64,0,.02,0,.05-.02.05-.02,0-.03-.03-.03-.06,0-.03,0-.05-.02-.04-.02.01-.08-.06-.13-.15s-.1-.18-.12-.18-.05-.08-.08-.17c-.03-.09-.07-.18-.08-.2-.04-.04-.09.12-.06.17.04.07.06.36.02.34-.02-.01-.02.02-.01.07.02.07,0,.08-.03.05-.03-.02-.08-.23-.11-.45-.07-.48-.13-.44-.11.08,0,.18,0,.28,0,.21-.01-.07-.03-.12-.05-.11-.02.01-.05-.14-.08-.34-.05-.43-.1-.52-.07-.14.02.17,0,.27-.02.27-.02,0-.03-.02-.02-.04.01-.02,0-.08-.02-.13-.03-.06-.03.05-.02.36.01.29,0,.43-.02.37-.02-.04-.04-.17-.04-.28,0-.13-.03-.23-.06-.27-.03-.03-.07-.06-.07-.06s-.01.15-.02.34c0,.34-.05.52-.05.22,0-.09-.02-.17-.04-.19-.02-.01-.03-.08-.02-.15.02-.1.01-.11-.02-.07-.03.05-.04.04-.04-.05,0-.06-.02-.11-.04-.11s-.03-.03-.02-.07c.02-.06.02-.06-.02,0-.03.04-.03.1,0,.2.05.16.05.63,0,.82-.03.11-.03.06-.03-.22,0-.37-.04-.63-.09-.59-.02.01-.02.19-.01.39.01.24,0,.38-.02.4-.03.02-.04-.06-.04-.22,0-.18-.03-.32-.1-.5l-.1-.26.02.34c.02.25.01.32-.02.28-.03-.04-.04-.02-.02.1.01.09.03.19.04.23s0,.07-.02.07-.04-.07-.04-.16-.02-.17-.04-.18c-.02-.01-.04-.08-.04-.14s-.02-.12-.04-.12-.04-.04-.04-.08-.02-.07-.04-.06c-.04.03-.02.29.03.52.06.25.1.69.05.66-.02-.01-.05-.16-.07-.32s-.04-.3-.05-.3-.02-.07-.02-.15v-.15s-.03.16-.03.16c-.03.11-.03.3,0,.62.04.44.03.68-.02.36-.07-.46-.16-.84-.18-.8-.01.02-.01.14,0,.26.02.12.02.23.01.24-.03.03-.13-.25-.2-.52-.08-.3-.11-.34-.08-.11.07.56.08.64.03.62-.02-.01-.08-.2-.13-.42-.1-.42-.15-.51-.08-.11.03.16.03.26,0,.28-.05.05.03.32.17.57.06.1.08.16.05.14s-.11-.15-.17-.29c-.21-.46-.36-.72-.41-.74-.04-.01-.04,0-.02.06.06.15.14.47.15.61,0,.08.06.25.12.39.19.41.11.35-.12-.09-.12-.23-.23-.4-.25-.39-.02.01-.03,0-.01-.04.02-.05.01-.06-.02-.04-.03.02-.04,0-.02-.05.02-.06.02-.06-.02-.03-.05.05.06.33.22.54.06.07.1.15.1.16,0,.06-.25-.28-.42-.58-.1-.17-.18-.31-.18-.31s0,.06,0,.13c0,.15.07.32.18.47.05.06.07.12.06.13-.03.03-.09-.06-.26-.41-.14-.28-.24-.42-.24-.35,0,.04.2.55.26.67.03.06.04.11.02.09-.02-.01-.1-.13-.16-.26-.06-.13-.13-.24-.16-.26-.04-.03.02.13.2.52.11.24.2.5.19.59,0,.02-.06-.1-.13-.28-.07-.17-.15-.35-.18-.39-.05-.07-.05-.07-.02.01.02.07.01.09-.02.06-.03-.02-.02.02.01.09.03.06.05.13.04.14-.01.01.02.09.07.17.05.08.09.15.08.15s.04.12.11.27c.07.15.12.28.11.29-.02.02-.31-.53-.29-.57.01-.04-.24-.48-.29-.51-.06-.04-.04.02.03.09.03.03.05.09.04.12-.01.04,0,.05.02.03.03-.02.04,0,.02.04-.01.04,0,.09.02.12.03.03.05.08.06.11,0,.03.05.13.09.22l.08.16-.1-.11c-.05-.06-.11-.09-.12-.08s-.01,0,0-.04c.02-.04,0-.07-.02-.06-.03,0-.16-.11-.31-.26-.23-.24-.25-.26-.17-.12.05.09.2.27.34.42.29.3.33.38.07.17-.2-.16-.38-.23-.29-.1.03.04.11.13.19.2.11.1.12.12.05.1-.05-.01-.13-.08-.18-.15-.05-.07-.13-.16-.17-.2s-.16-.19-.27-.32c-.11-.13-.2-.24-.21-.23-.04.04.05.22.15.33.06.07.12.14.13.15,0,.02.03.02.04.02.02,0,.02,0,.01.02-.01.02.02.12.07.22.16.3.04.21-.27-.18q-.07-.09,0,.03c.03.07.11.18.16.25.05.07.1.16.1.2,0,.04-.03.03-.08-.05-.04-.06-.1-.1-.12-.08-.02.01-.03,0-.02-.02.01-.02,0-.06-.03-.09-.04-.03-.06-.03-.08,0-.01.03-.01.01,0-.03.01-.06-.01-.11-.09-.18-.06-.05-.14-.14-.18-.19l-.07-.1.05.1c.03.05.07.13.11.17.04.04.06.08.05.09s.03.1.07.2c.1.2.08.29-.02.1-.03-.07-.08-.13-.11-.15-.08-.05.09.19.26.37.09.09.17.2.19.24.02.04-.03,0-.1-.09-.19-.21-.22-.16-.04.06.09.11.01.05-.19-.14-.47-.45-.51-.47-.3-.16.1.15.2.27.22.27.02,0,.03.01.02.04s.05.13.14.22.14.15.11.12c-.12-.1-.1-.02.03.17l.15.21-.16-.18c-.09-.1-.15-.2-.14-.22.01-.03,0-.04-.04-.03-.03.01-.06,0-.08-.02-.01-.02,0-.04.02-.04.04,0-.06-.14-.29-.41-.09-.11-.05-.01.1.2.06.09.1.17.09.17s.04.08.11.17c.08.09.16.22.18.29l.04.12-.08-.1c-.04-.05-.13-.17-.2-.25s-.13-.14-.15-.13-.06-.02-.1-.06c-.04-.04-.1-.08-.13-.08-.05,0-.05.01.01.08.04.04.06.08.05.08-.03,0-.12-.08-.36-.29-.21-.19-.26-.19-.1,0,.07.09.14.16.16.16s.03.03.01.06c-.01.03,0,.05.01.04.02-.01.05,0,.06.02.01.02.04.03.07.01.02-.02.03,0,.02.02-.03.06.01.17.07.17.02,0,.12.07.22.16.19.17.15.17-.08,0l-.14-.1.1.11c.05.06.08.11.05.11s-.06-.03-.09-.06c-.03-.03-.06-.05-.07-.04-.01.01-.08-.02-.15-.08s-.14-.08-.15-.07c-.01.01-.03,0-.03-.02s-.05-.07-.11-.11c-.06-.04.04.08.23.26.34.33.36.37.05.12-.09-.07-.17-.11-.17-.09s-.02.03-.04.02c-.02-.01-.03-.05-.02-.08.02-.06-.16-.22-.26-.22-.04,0,0,.04.09.1.08.06.14.11.13.12-.03.03-.22-.07-.41-.19-.09-.06-.17-.1-.17-.09,0,.03.46.34.5.34.02,0,.07.03.11.07s.15.12.23.17c.09.05.24.19.35.31s.15.17.1.13c-.24-.21-.69-.47-.76-.46-.07.02-.05.05.12.22l.19.2-.16-.11c-.09-.06-.22-.18-.31-.25s-.15-.13-.15-.11-.05,0-.12-.03c-.17-.09-.18-.05-.02.07.21.15.63.51.65.56,0,.02-.01.02-.05-.01-.05-.04-.07-.04-.07,0s-.01.04-.05,0c-.06-.05-.5-.28-.53-.28-.01,0,.02.04.07.1.11.12.06.13-.06.02-.08-.07-.09-.07-.08-.01.01.07.14.18.18.16.01,0,.12.08.24.21.17.18.18.19.03.06-.18-.17-.29-.23-.19-.1.03.04-.03,0-.13-.08-.1-.08-.19-.14-.19-.12,0,.02-.01.02-.03,0-.02-.02-.11-.09-.21-.15-.17-.11-.17-.11.06.11.13.12.33.28.45.35.12.07.25.16.3.2.08.07.07.07-.05,0-.48-.27-.66-.36-.77-.38-.12-.02-.12-.02-.02.02.16.07.57.32.61.37.02.02.12.09.22.15s.2.13.23.16.07.05.1.04.03-.01.01,0c-.02.02.02.09.08.15l.11.12-.14-.11c-.08-.06-.16-.14-.19-.18-.03-.04-.13-.1-.24-.15-.34-.14-.39-.14-.14.02.13.08.34.24.45.34.16.15.17.16.05.07-.19-.15-.8-.45-.83-.42-.01.01,0,.02.02.02s.07.03.12.06c.07.05.06.05-.06.02-.19-.05-.2-.02-.02.04.13.04.45.23.55.32.04.04-.51-.18-.71-.28-.02-.01-.02,0,0,.03.02.04.01.04-.04.02-.09-.04-.31-.06-.27-.03.01.01.06.03.11.04.05,0,.15.04.22.07.07.03.15.05.18.03s.04-.01.02,0,.07.08.2.15c.41.21.35.23-.11.03-.43-.19-.63-.24-.57-.16.03.05.5.27.73.34.1.03.21.09.26.14l.08.08-.16-.08c-.09-.04-.2-.09-.26-.1-.06-.01-.17-.05-.26-.09-.16-.07-.5-.17-.52-.15-.02.02.55.26.76.32.11.03.26.1.33.15.07.05.2.13.28.18.08.05.12.09.1.09s-.1-.04-.18-.09c-.2-.14-.39-.23-.57-.26-.09-.02-.2-.04-.26-.06s.03.03.18.09c.3.12.59.28.56.31,0,0-.09-.02-.18-.07-.2-.1-.36-.16-.36-.14,0,.01.04.04.1.06s.1.06.1.08c0,.02-.05.02-.12-.02-.23-.12-.15-.03.11.12.14.08.25.16.24.17-.01.01-.04,0-.07-.02-.1-.08-.5-.22-.55-.19-.03.02-.04.01-.02-.01.02-.03-.03-.05-.12-.07-.08-.01-.17-.04-.19-.06-.06-.04-.22-.08-.2-.04.04.06.3.16.34.14.03-.02.03-.01.02.01-.03.05.16.14.22.1.03-.02.03,0,.01.02-.02.04,0,.04.06.02.06-.02.08-.01.04,0-.04.03.03.08.25.18.16.08.3.15.3.17s-.01.02-.03,0c-.02,0-.09-.04-.17-.08-.08-.03-.29-.13-.48-.22-.19-.09-.36-.16-.37-.16s-.08-.04-.14-.08-.12-.08-.13-.07c-.05.05.69.49,1.12.66.19.08.54.28.47.28-.02,0-.1-.04-.18-.08-.08-.05-.23-.11-.34-.14s-.3-.11-.45-.17c-.14-.06-.25-.1-.24-.08.04.07.36.23.64.33.15.05.33.13.39.16.06.04.08.05.04.04-.04-.01-.17-.04-.28-.05-.13-.02-.19-.04-.19-.08,0-.03,0-.04-.03-.03s-.13,0-.24-.04c-.11-.04-.21-.06-.22-.04s0,.03.03.04c.03,0,.16.05.28.1s.27.08.32.08.14.03.21.06l.12.06-.12-.03c-.52-.11-.74-.08-.45.06.1.05.15.08.11.09-.03,0-.1-.02-.14-.05-.08-.06-.29-.12-.53-.16-.07-.01-.17-.04-.21-.06-.04-.02-.07-.03-.06,0,.03.04.17.11.8.35.52.2.86.37.77.37-.03,0-.08-.01-.1-.03-.03-.03-.31-.13-.37-.14-.01,0-.08-.03-.16-.07-.09-.04-.15-.05-.18-.03-.02.02-.05.03-.06.02s-.11-.03-.22-.04-.29-.04-.4-.08-.2-.05-.2-.04c0,.03.41.2.45.18.08-.03,1.23.33,1.27.4.02.02,0,.03-.03.02-.18-.07-1.22-.38-1.22-.36,0,.04.43.21.73.29.19.05.34.1.34.12,0,.03-.27.02-.39-.02-.04-.01-.14-.03-.23-.04-.09,0-.21-.03-.27-.04-.06-.02-.11-.01-.11,0s.15.07.33.11.33.09.32.1c-.01.02.4.13.65.17.08.01.08.02-.02.02-.12,0-.87-.14-.93-.18-.02-.01-.06,0-.1.02-.05.03-.05.04.03.04.05,0,.24.05.42.1.18.06.37.11.41.11.07,0,.07,0,.02.02-.04.01-.17-.01-.29-.05-.25-.07-.8-.12-.8-.07s.53.16,1.1.23c.27.03.51.06.53.06s.02.02.01.03c-.01.02-.1.02-.19,0-.09-.02-.2-.03-.25-.03-.07,0-.06,0,.02.04.07.02.04.03-.12.02-.3-.02-.48-.05-.51-.09-.02-.03-.56-.17-.59-.15-.02.02.43.18.5.18.04,0,.09.02.12.04.05.03.04.04-.05.02-.06,0-.12,0-.13.02-.01.02,0,.04.01.04.02,0,.12,0,.22.01.1,0,.21.03.24.06.04.04.03.04-.06,0-.14-.05-.28-.05-.24,0,.01.02.07.04.12.04.11,0,.17.07.07.09-.07.02.31.07.44.06.18-.01.78,0,.76.03-.01.01-.26.03-.55.04-.29.01-.55.03-.58.04-.05.02-.33-.15-.39-.24-.03-.04-.5-.38-.54-.38-.01,0-.1-.05-.21-.12-.52-.32-1.41-.58-2.74-.81-1.28-.22-1.66-.34-2.13-.69-1.07-.79-1.41-1.2-1.62-1.96-.11-.4-.28-.87-.41-1.11-.17-.33-.57-.91-.66-.96-.09-.05-.09-.05.06-.12l.16-.07-.15-.03c-.14-.03-.14-.03-.07-.06.14-.05.1-.08-.1-.06-.18.02-.18.02-.07-.03.08-.03.1-.06.06-.07-.04-.01,0-.08.14-.23.14-.15.17-.19.1-.16-.05.03-.13.07-.16.1-.03.03-.1.06-.15.08-.08.03-.09.02-.06-.06.02-.05.12-.19.22-.32s.18-.23.16-.23c-.02,0-.01-.01,0-.03.02-.02.07-.07.12-.12l.08-.09-.08.04s-.17.14-.28.27c-.4.46-.46.53-.49.53-.06,0,.43-.66.7-.94.26-.27.31-.37.1-.2-.06.05-.11.11-.1.12s-.06.08-.16.15c-.1.07-.18.14-.18.16s-.06.07-.13.12c-.1.07-.08.04.07-.11.22-.23.22-.27,0-.08-.08.07-.15.11-.16.1-.01-.01.09-.12.22-.24.18-.16.22-.22.18-.24-.03-.01-.07,0-.09.02-.02.03-.08.09-.14.15-.1.09-.11.09-.07.02.02-.05.07-.11.11-.13.05-.04.05-.06.02-.08-.03-.02-.02-.04.03-.07.09-.05.44-.5.44-.57,0-.03-.02-.01-.04.02-.06.1-.36.43-.4.43-.02,0,0-.07.05-.15l.08-.15-.09.1c-.1.11-.1.13.04-.31.04-.14.07-.25.05-.25-.01,0-.15.24-.3.53-.15.29-.28.51-.29.49-.02-.05.38-.89.54-1.13.08-.11.13-.22.11-.23-.01-.01-.02,0-.02.02s-.02.07-.05.1c-.03.03-.08.11-.12.17-.09.16-.25.35-.28.33-.01-.01.05-.15.14-.31.12-.2.15-.3.12-.33-.03-.03-.05-.01-.07.05-.02.05-.08.14-.13.2-.13.13-.2.22-.19.24,0,0-.04.06-.1.12l-.11.11.03-.15c.01-.08.06-.22.11-.3s.09-.24.09-.34c0-.1.05-.29.09-.43.1-.34.14-.5.11-.47-.04.04-.22.56-.22.64,0,.08-.22.5-.26.5-.01,0,0-.07.04-.15.09-.21.17-.53.13-.5-.02.01-.03-.05-.02-.15.02-.16.02-.16-.02-.05-.02.07-.07.24-.12.39-.05.19-.07.24-.08.16,0-.1.05-.31.14-.63.01-.05,0-.07-.02-.05-.02.01,0-.09.05-.24.12-.32.12-.34.02-.19-.14.21-.28.54-.31.73-.02.12-.03.15-.04.08,0-.07-.02-.05-.04.08-.06.28-.11.29-.12.02v-.23s-.08.28-.08.28c-.05.17-.07.22-.06.12.02-.2-.02-.14-.14.16-.05.14-.11.25-.12.25s-.03-.02-.03-.03c0-.04.17-.44.25-.6.07-.13.12-.39.07-.34-.02.02-.13.18-.24.35-.11.17-.2.28-.2.25,0-.08.22-.62.31-.74.04-.05.11-.23.17-.4.06-.16.13-.36.17-.45.04-.08.05-.14.03-.13-.02.01-.04.05-.04.07s-.14.27-.3.54c-.17.27-.39.68-.51.91l-.2.41-.08-.1c-.07-.08-.12-.1-.25-.09-.16,0-.19.03-.36.22-.25.27-.47.6-.56.82-.08.19-.18.76-.18.99v.14s-.29.05-.29.05c-.42.07-.99.19-1.37.3-.37.11-1.08.41-1.31.55-.08.05-.16.09-.17.09-.04,0-.75.49-1.07.73C1.54,6.52.21,8.13.02,8.83c-.03.13-.03.18.04.3.04.08.1.18.13.21.09.12.32.23.47.23.13,0,.15.02.26.21.2.36.43.52.8.55.08,0,.15.08.32.32.25.37.45.51.81.58.21.04.34.03.89-.05.76-.11,1.26-.1,1.61.04.49.19.58.31.69.87.05.28.5,1.66.96,2.94.14.38.12.86-.05,1.26-.14.34-.37.73-.59.99-.09.11-.16.22-.14.23.02.02,0,.02-.02,0-.08-.04-.53.37-.62.57-.07.16-.07.17.01.53.09.39.09.43-.07.89-.08.24-.09.38-.02.67.05.22.54,1.16.71,1.34.16.17.17.18.2.1.03-.11.11-.11.2,0,.1.11.14.1.1-.03-.04-.11,0-.17.11-.17.06,0,.09-.1.09-.3v-.18l.11.06c.06.03.25.1.42.16.26.09.33.1.46.06.09-.02.18-.08.22-.14.04-.06.09-.09.14-.07.04.01.08,0,.08-.02,0-.06-.1-.13-.14-.1-.02.02-.02,0,0-.02.03-.06-.08-.29-.16-.32-.03-.01-.04-.04-.03-.06.01-.02.04-.03.06-.01.06.03.23-.18.23-.28,0-.07-.02-.09-.06-.07-.03.01-.09,0-.12-.02s-.08-.03-.1-.02c-.03.02-.04.01-.02-.01.01-.02,0-.09-.03-.15-.03-.06-.06-.16-.06-.21,0-.09.3-.63.35-.63.01,0,.17.04.34.1.17.05.52.14.76.18l.44.08v.52c0,.48.03.82.24,2.51.12.94.25,1.4.73,2.47.2.44.23.5.51.75.29.27.58.67.8,1.09.09.17.11.27.11.46,0,.28-.04.36-.25.39-.19.03-1.85-.04-2.16-.1-.13-.02-.47-.05-.75-.06l-.51-.02-.36.14c-.31.12-.42.14-.83.17-.62.04-.73.07-.9.26-.18.2-.26.36-.26.53,0,.26.22.36.95.42h0c.58.05,8.95.05,9.05,0,.05-.02.21-.04.36-.04.23,0,.31-.02.44-.09.09-.05.2-.1.24-.1.05,0,.04-.01-.03-.03-.09-.03-.09-.03.05-.06.17-.03.18-.06.08-.21l-.07-.1.12.03c.06.02.16.08.21.13l.09.11-.09-.16c-.05-.09-.11-.19-.13-.22-.02-.04-.03-.08,0-.1.02-.02.04,0,.05.02.02.05.37.46.36.43,0,0-.03-.08-.06-.17-.03-.09-.06-.18-.06-.21,0-.05.22.18.45.46.06.08.1.1.08.06-.02-.04-.04-.17-.05-.28l-.02-.2.07.1c.18.25.45.55.45.51,0-.03-.08-.16-.18-.29-.1-.13-.18-.25-.18-.27,0-.05.2.13.2.19,0,.02.04.09.08.14l.08.1-.03-.12c-.01-.07-.04-.15-.06-.18-.08-.16-.02-.11.25.17.28.3.32.27.06-.04-.19-.22-.18-.24.04-.05.17.15.45.29.39.2-.05-.08.06-.03.22.11.14.12.16.13.11.05-.03-.05-.15-.16-.25-.23-.1-.07-.22-.16-.25-.19-.06-.06-.05-.06.06,0,.07.03.16.06.2.06s.17.06.28.14c.25.17.29.17.14.03-.06-.06-.12-.11-.14-.11s-.14-.08-.28-.17c-.14-.09-.23-.17-.21-.17.09,0,.27.08.36.17.05.05.08.06.06.03-.02-.04,0-.04.09.01.07.03.14.06.15.05.04-.01.26.1.54.29l.24.16-.22-.19c-.41-.36-.5-.46-.4-.4.05.03.2.12.33.2.12.08.23.14.23.12,0-.04-.29-.27-.57-.45-.09-.06-.14-.1-.12-.1s.21.11.41.24c.35.23.79.47.86.47.02,0-.06-.05-.17-.12-.11-.06-.24-.15-.3-.2-.09-.07-.08-.07.17.02.27.1.54.13.54.06,0-.02-.03-.04-.07-.04-.08,0-.33-.08-.31-.1.01-.01.59.08.96.16.11.02.11.02-.02-.04-.08-.04-.33-.13-.57-.22-.4-.14-.42-.15-.22-.13.12.01.36.08.54.14.34.12.43.14.39.07-.01-.02-.06-.04-.1-.04s-.08-.02-.08-.04-.04-.04-.09-.04-.11-.02-.15-.05c-.03-.03-.14-.07-.23-.1s-.17-.07-.17-.09c0-.04.06-.03.39.09.26.09.36.05.12-.05-.25-.1-.12-.09.23.02.17.05.39.11.5.12.3.04.83.08.84.07.02-.01-.41-.13-.47-.13-.03,0-.08-.02-.11-.04-.04-.03.04-.03.29-.02.36.03.48-.03.17-.08-.1-.01-.18-.04-.18-.06s-.12-.07-.27-.1c-.15-.04-.27-.08-.26-.08,0,0,.13,0,.26.03.32.05,1.38.09,1.16.05-.09-.02-.23-.04-.32-.05-.2-.03-.46-.1-.51-.15-.02-.02.01-.03.09-.02.07.01.18.03.25.04.15.02.15,0,0-.08-.06-.03-.07-.05-.03-.04.19.06.39.09.87.11.28.01.45,0,.37-.01-.08-.02-.1-.03-.06-.04.04,0-.04-.04-.19-.08-.15-.04-.28-.09-.3-.1-.01-.02.19-.02.47,0l.49.02-.31-.05c-.48-.08-.45-.1.21-.08l.61.02-.76-.13c-.42-.07-.75-.14-.74-.15,0-.01.12-.01.24,0,.39.06,1.18.08,1.12.04-.03-.02-.1-.04-.15-.04-.05,0-.08-.02-.07-.04.01-.02-.03-.04-.09-.06s-.27-.06-.46-.11c-.2-.05-.4-.09-.45-.1s-.09-.03-.08-.04.28.01.61.04c.63.06,1.36.11,1.3.08-.02-.01-.19-.04-.38-.08l-.34-.06h.65c.48.02.59.02.41,0-.13-.02-.39-.06-.57-.09-.18-.03-.4-.06-.47-.07h-.14s.16-.04.16-.04c.09-.02.25-.03.36-.04.14,0,.18-.01.12-.04-.1-.04.1-.07.65-.1.61-.03.65-.08.07-.09-.29,0-.65-.03-.82-.04-.28-.03-.27-.03.26-.04.3,0,.57,0,.59,0s.11,0,.19-.02c.26-.04.08-.09-.37-.1h-.41s.57-.04.57-.04c.31-.02.58-.02.59-.01,0,0-.04.02-.11.02-.08,0-.12.02-.1.04.03.05.41.01.61-.07l.14-.05-.2.02c-.11.01-.28,0-.38-.02-.11-.02-.14-.04-.08-.04.05,0,.13-.02.16-.04.04-.03,0-.04-.15-.04-.33,0-.22-.04.15-.04.18,0,.32-.02.32-.04s.03-.02.07-.01.08,0,.1-.02c.01-.02-.11-.03-.3-.03h-.32s.24-.03.24-.03c.13-.02.28-.04.34-.05.48-.07.35-.15-.2-.13l-.41.02.3-.05c.16-.03.4-.06.53-.06.55-.02.38-.07-.25-.07-.38,0-.69-.01-.71-.02-.06-.06.07-.08.55-.08.29,0,.57-.02.62-.05.05-.02.2-.07.33-.09s.24-.06.25-.08c.01-.02-.04-.02-.11,0-.14.03-.61.03-.82,0-.08-.01-.18-.02-.23-.02-.12,0-.09-.04.06-.06.06,0,.15-.03.2-.04.05-.01.1,0,.11.02.05.08.45.05.78-.06.35-.12.39-.16.06-.08-.12.03-.3.07-.41.09l-.19.03.08-.08c.05-.05.13-.08.21-.08.07,0,.15-.02.19-.04.05-.03.04-.04-.05-.02-.08.01-.1,0-.07-.03.03-.03-.03-.04-.19-.04h-.22s.18-.03.18-.03c.1-.02.24-.03.33-.04.1,0,.15-.02.15-.06,0-.03.03-.08.08-.1.06-.03.09-.03.12.03.04.06.04.06.02,0-.02-.05.01-.07.12-.09.08-.01.14-.04.15-.05s-.06-.02-.15,0c-.91.16-.93.16-.86.12.03-.02.14-.05.25-.06.14-.02.18-.04.15-.07-.03-.04,0-.05.12-.06.26-.02.33-.09.08-.08-.11,0-.22,0-.23-.02-.03-.03-.04-.03.4-.04.2,0,.39-.03.43-.05.09-.05.08-.05-.21-.13-.09-.02-.16-.05-.16-.06,0,0,.18-.06.39-.12.3-.08.33-.1.18-.08-.11.01-.32.03-.47.04q-.28.02-.12-.03c.09-.03.23-.07.33-.08.21-.03.22-.1.02-.07-.13.02-.14.01-.05-.02.05-.02.14-.04.2-.03.14.01.49-.04.56-.09.05-.03.04-.04-.02-.02-.04.01-.19.03-.32.05l-.24.03.23-.12c.12-.07.25-.12.28-.12s.07-.02.08-.03c.01-.02-.11,0-.26.02-.16.03-.36.06-.44.07-.16.02-.16.02-.05-.04.06-.03.16-.06.23-.06.07,0,.13-.02.14-.04.01-.02.05-.03.08-.03.08,0,.34-.16.31-.19-.01-.01-.1,0-.19.04-.25.09-.63.18-.6.15.01-.02.19-.1.39-.18.21-.08.37-.15.37-.17s-.07,0-.17,0c-.22.03-.17,0,.09-.08.11-.03.23-.08.27-.11s.1-.07.15-.08c.05-.01.11-.05.13-.08.04-.05.04-.05-.03-.03-.09.03-.26.14-.29.18-.01.02-.09.04-.18.05-.21.02-.42.06-.46.08-.02.01-.03,0-.03-.02s.07-.06.15-.08c.23-.06.02-.05-.25,0-.13.03-.24.05-.25.04-.02-.02.07-.04.4-.12.33-.07.98-.3.98-.34,0-.02-.09,0-.21.03-.28.08-.5.1-.42.05.03-.02.09-.04.13-.04.04,0,.07-.02.07-.04s.04-.04.08-.04.07-.02.06-.04c-.01-.02.1-.08.25-.14.15-.06.27-.12.26-.12,0,0-.2.04-.42.11s-.43.12-.47.12c-.08,0,.15-.1.45-.2.13-.04.26-.09.3-.11.1-.06-.06-.05-.22.02-.08.03-.16.05-.18.04-.02-.01-.12.02-.22.08-.2.11-.23.12-.19.06.01-.02.1-.08.19-.12s.17-.1.18-.11c.03-.04.45-.25.68-.34.1-.04.18-.08.17-.09-.04-.04-.6.16-1.01.35-.47.22-.64.26-.29.07.34-.18.83-.43.86-.43.08,0,.46-.17.47-.22.02-.05,0-.05-.09,0-.12.06-.52.19-.67.21-.07.01-.36.13-.57.24-.02,0-.03,0-.03-.02,0-.02.15-.13.33-.25s.34-.24.35-.26c.02-.03.1-.09.18-.14.24-.14.46-.31.42-.31-.05,0-.78.49-.95.64-.07.06-.14.1-.16.09-.01-.01,0-.04.02-.05.08-.05.3-.22.62-.48.17-.14.42-.32.55-.4.13-.08.21-.16.19-.17-.02-.01-.04-.01-.04,0s-.1.08-.23.14c-.35.17-.43.22-.41.26,0,.02,0,.03-.03.02s-.11,0-.19.02c-.08.03-.17.05-.2.04-.03,0-.05,0-.05.03s-.02.03-.04.02c-.07-.04,0-.09.18-.13.3-.08.81-.39,1.13-.7.1-.09.15-.17.13-.17s-.05.01-.05.03-.11.09-.25.17c-.18.1-.25.15-.23.2.02.05.01.05-.02,0-.03-.04-.09-.03-.29.07-.14.07-.27.14-.29.15-.02.02,0-.01.06-.06.06-.05.26-.19.44-.31s.34-.23.33-.24c0,0-.11.03-.23.1-.4.21-.52.26-.47.19.03-.03.2-.14.39-.24.4-.21.44-.24.53-.39l.07-.11-.1.07c-.06.04-.1.09-.1.1,0,.02-.03.02-.07,0-.04-.02-.06,0-.04.02.01.02,0,.05-.04.07-.04.01-.05,0-.04-.02.01-.02-.01-.02-.05,0-.04.03-.07.07-.06.09.01.02,0,.03-.02.01-.02-.02-.11.02-.19.07-.19.12-.44.25-.39.2.02-.02.13-.1.24-.17.45-.3.77-.53.9-.65.07-.07.1-.1.05-.06-.25.19-.5.35-.55.35-.03,0-.08.02-.1.06-.03.03-.09.07-.15.08-.06.01-.21.1-.33.19s-.24.15-.26.14c-.01-.01,0-.03.01-.03s.12-.07.23-.16.25-.19.33-.22c.07-.03.12-.07.11-.1-.01-.02,0-.03.04-.01.05.02.06.01.04-.03-.02-.04-.02-.04.01-.02.06.03.17-.05.14-.1-.01-.02,0-.02.05,0,.05.02.06.01.04-.04-.02-.05-.01-.06.03-.05.03.01.12-.04.2-.11.19-.18.15-.17-.15.03-.13.09-.35.22-.49.29-.13.07-.23.14-.22.16.02.02,0,.02-.02,0-.03-.02-.11,0-.19.06-.08.05-.15.08-.16.06-.01-.01.05-.06.14-.11.38-.19.71-.41.74-.48,0-.02.03-.02.05,0,.02.01.03,0,.03-.03,0-.03.01-.05.04-.04.07.01.21-.11.18-.15-.01-.02,0-.03.03-.03.06,0,.19-.12.19-.16,0-.03-.47.28-.73.49-.18.14-.34.23-.34.19,0-.02.02-.04.04-.05.06-.02.79-.59.99-.77.1-.09.16-.17.14-.17-.02,0-.07.04-.11.1-.04.06-.08.09-.11.07-.03-.02-.03,0-.02.02.02.02-.03.06-.11.09-.08.03-.14.06-.14.08s-.05.05-.12.08c-.06.03-.13.07-.14.11s-.04.05-.06.03c-.02-.01-.08,0-.14.04-.12.08-.18.08-.07,0,.05-.03.08-.08.07-.1-.01-.02,0-.03.03-.02.03.01.08,0,.11-.05.04-.04.04-.06,0-.04-.03.02-.05.02-.05.01,0-.03.27-.19.33-.2.06,0,.22-.1.18-.1-.02,0-.1.03-.17.06-.08.03-.15.05-.16.04-.01-.01-.09.03-.17.1-.08.06-.16.12-.16.12-.02,0,.42-.44.63-.62.12-.11.16-.17.14-.22-.01-.04-.04-.06-.06-.05s-.03.05-.02.08c.02.06-.04.17-.11.17-.02,0-.02-.03,0-.06.03-.03.04-.06.02-.06-.05,0-.37.25-.37.29,0,.02.05-.01.12-.07.07-.06.14-.1.17-.1.03,0,0,.04-.07.1-.12.1-.13.11-.23.11-.03,0-.05.03-.05.05s-.03.07-.06.1c-.05.04-.05.04,0-.02.03-.04.04-.07.02-.07s0-.03.02-.06c.03-.03.04-.06.02-.06-.03,0,.06-.09.26-.27.17-.15.15-.16-.05-.04l-.14.09.08-.09s.14-.12.21-.15c.07-.03.15-.1.17-.14.05-.1,0-.07-.23.12-.18.15-.2.15-.2.08,0-.03.02-.05.04-.04.06.02.34-.27.46-.48l.09-.16-.15.15c-.15.14-.22.18-.22.12,0-.02.05-.08.1-.13.06-.06.1-.13.09-.16,0-.03-.07.03-.14.13-.07.1-.24.28-.39.4-.4.32-.43.32-.08,0,.35-.32.57-.61.58-.75v-.09s-.06.09-.06.09c-.09.14-.42.47-.51.52-.05.03-.04,0,.04-.09.19-.21.45-.55.45-.6,0-.02-.07.04-.15.13-.08.1-.21.24-.28.31l-.13.14.14-.19c.08-.11.13-.21.12-.23-.01-.02,0-.03.02-.02.05.01.48-.48.48-.54,0-.02-.07.04-.15.14s-.16.17-.18.15-.15.1-.3.25c-.31.31-.43.37-.14.07.11-.11.24-.25.29-.31.05-.06.11-.1.13-.09s.04-.03.05-.07.03-.07.05-.06c.02.01.04,0,.05-.04.04-.11-.05-.1-.1.02-.03.07-.07.12-.09.12-.03,0-.27.17-.33.23-.3.29-.39.32-.13.04.22-.25.51-.71.61-.99l.04-.1-.08.1c-.04.05-.08.11-.08.12,0,.01-.14.14-.31.29-.3.27-.29.25.07-.16.23-.26.35-.42.38-.51.02-.05,0-.05-.07.02-.05.05-.12.13-.15.18-.11.15-.28.34-.3.33,0,0,.05-.1.14-.21s.17-.25.2-.32c.02-.07.06-.12.08-.11.04.03.05-.03.01-.07-.01-.01-.05,0-.08.05-.03.04-.09.1-.14.12-.07.04-.07.03.02-.09.11-.15.16-.27.12-.27-.02,0-.07.07-.12.16s-.19.27-.31.41c-.13.15-.21.28-.19.3.02.03.01.03-.02.02-.03-.02-.05,0-.05.02s-.01.04-.03.02.08-.18.21-.37c.27-.39.38-.6.35-.63-.01-.01-.05.04-.08.11-.06.15-.38.54-.38.48,0-.02.02-.05.04-.07.11-.07.63-1.19.57-1.24-.01-.01-.04.04-.07.12-.05.16-.3.63-.35.69-.06.06,0-.09.12-.29.14-.24.08-.25-.08-.02-.25.38-.64.91-.66.89,0,0,.01-.05.04-.09.14-.16.62-.98.62-1.05,0-.07-.01-.07-.07.04-.09.14-.47.52-.5.49-.01-.01.02-.06.07-.12.22-.24.52-.7.49-.73,0,0-.08.09-.17.22-.23.36-.28.32-.05-.05.11-.18.22-.35.25-.38.06-.06.15-.28.12-.28,0,0-.05.06-.08.13-.08.16-.46.63-.48.6-.01-.01.05-.12.14-.25.2-.29.28-.5.22-.57-.04-.04-.05-.03-.05.04,0,.05-.03.11-.06.14s-.06.08-.06.1-.02.03-.04.02c-.02-.01-.15.14-.28.34-.13.2-.24.35-.24.33,0-.06.37-.65.43-.69.05-.04.16-.31.18-.44.02-.1,0-.09-.04.05-.03.1-.1.21-.14.26l-.08.08.06-.15c.08-.18.01-.2-.08-.02-.11.22-.42.7-.44.68,0,0,.05-.14.13-.29.3-.54.43-.8.39-.8,0,0-.1.12-.2.26-.1.14-.19.25-.2.24s0-.06.04-.11c.03-.05.08-.19.1-.31s.06-.28.08-.37c.02-.08.03-.15.02-.15-.02,0-.13.28-.13.35,0,.07-.42.91-.48.97-.05.04-.05.05.12-.36.06-.15.13-.38.14-.51.02-.13.04-.26.05-.29s0-.05-.02-.05-.08.09-.12.21q-.08.21-.06.05c.01-.09.03-.2.04-.26.02-.11-.08.19-.12.37-.04.19-.06.1-.02-.13.02-.12.07-.32.11-.44.04-.12.06-.25.05-.29-.02-.06-.04-.03-.09.12l-.06.2.02-.2c.01-.11.03-.23.04-.28.01-.06.01-.07-.02-.02-.02.03-.05.13-.06.21-.03.19-.24.64-.3.68-.03.02-.04.01-.03-.02.23-.55.26-.63.28-.94.02-.22.01-.32-.02-.3-.02.01-.04.05-.04.07s-.03.08-.06.13c-.06.07-.06.07-.04-.08.02-.15.02-.15-.02-.03-.02.07-.06.13-.08.13s-.04.03-.04.06-.02.09-.04.13-.05.1-.06.14c-.01.04-.03.07-.04.06s0-.11.04-.23c.06-.23.09-.58.04-.62-.01-.01-.02.02-.02.08,0,.15-.19.69-.28.79-.06.07-.08.07-.08.02,0-.04.02-.08.04-.09.02-.01.06-.07.08-.13.06-.16.23-.85.21-.87,0,0-.04.06-.06.16-.02.09-.08.24-.12.32s-.1.22-.11.32c-.03.13-.03.1-.02-.18,0-.19.02-.36.04-.37.01-.01.02-.04.02-.07,0-.02-.02-.02-.04.02-.03.05-.04.04-.07-.04-.03-.08-.04,0-.07.36-.02.25-.03.49-.03.54s0,.09-.03.09c-.05,0-.01-1.31.04-1.52.05-.23.05-.26-.02-.1-.03.08-.09.19-.12.25-.04.07-.04.13-.02.15.02.02.02.08,0,.15-.02.06-.04.28-.05.49,0,.2-.03.35-.04.32-.03-.05,0-.85.04-.91.01-.02,0-.02-.03,0-.04.02-.05,0-.03-.06.01-.05,0-.11-.03-.15-.05-.05-.06-.05-.06.03,0,.05-.05.17-.1.28-.07.13-.1.27-.1.4,0,.19,0,.2-.04.09-.03-.08-.03-.23,0-.47.02-.19.03-.37.02-.39-.01-.02,0-.03.03,0,.04.02.04,0,.02-.08-.02-.06-.01-.1,0-.09.02.01.04-.05.04-.14v-.17s-.09.24-.09.24c-.09.23-.13.38-.13.54,0,.04-.02.07-.04.07s0-.15.02-.33.06-.41.08-.52c.02-.19.02-.19-.09.12-.06.17-.13.35-.16.39-.06.1-.06,0,0-.11.07-.13.15-.5.15-.68,0-.19-.01-.16-.08.21-.03.16-.06.27-.08.26s0-.12.03-.23c.08-.26.05-.33-.04-.08-.04.11-.09.23-.1.28-.05.12,0-.21.07-.39.08-.23.06-.3-.03-.13-.04.08-.07.17-.06.19s0,.03-.03.02c-.03-.01-.07.03-.11.1-.08.18-.1.12-.03-.08.04-.11.06-.31.06-.57v-.4s-.08.34-.08.34c-.04.18-.09.51-.1.72s-.04.38-.05.38-.02-.24-.02-.52c0-.29,0-.45-.01-.36s-.03.17-.06.17-.03-.03-.02-.06c.02-.05,0-.06-.05-.04-.05.01-.07,0-.06-.03.01-.03.03-.05.05-.04.04.02.08-.08.08-.17,0-.04-.02-.03-.04.03-.06.14-.08.08-.03-.1.02-.09.03-.28.03-.43,0-.25,0-.26-.04-.12-.06.32-.16.71-.18.72-.03.03-.02-.18.02-.56.02-.19.03-.36.02-.37-.03-.03-.11.15-.13.26,0,.06-.04.34-.08.64s-.07.54-.08.55c-.03.04-.01-.47.04-.85.03-.22.05-.41.04-.42-.02-.03-.17.04-.22.11-.02.02-.03.02-.03-.01,0-.03-.02-.04-.04-.03-.02.01-.05,0-.07-.02-.02-.03-.01-.04.01-.02.04.03.11-.4.07-.44-.01-.01-.02.01-.02.05,0,.04-.03.13-.06.19-.03.06-.07.18-.08.26-.02.11-.01.13.02.07.05-.1.05,0,0,.12-.06.15-.09-.11-.04-.4.03-.22.03-.28.02-.28-.04.07-.08.16-.11.24-.02.07-.04.11-.06.18l-.06.26.02-.23c0-.09.07-.14.09-.21.02-.07.04-.16.06-.2.03-.05.04-.05.04-.05.04-.06.03-.15.09-.21.14-.14.16-.15.36-.15.23,0,.66.1.92.21.18.08.52.39.68.62.06.09.12.16.15.16s0-.05-.04-.11c-.04-.06-.08-.13-.08-.15s-.02-.06-.05-.09c-.03-.04,0-.01.06.05.09.09.11.1.13.05.02-.05.04-.05.11.03.05.05.13.16.18.24s.1.14.12.14.03.01.03.03c-.01.03.4.8.43.8.01,0-.18-.4-.39-.82-.05-.09-.1-.15-.13-.14-.02.01-.03,0-.01,0,.01-.02,0-.09-.05-.17-.04-.08-.07-.15-.06-.16.03-.03.4.56.65,1.05.14.27.24.45.22.39-.04-.16-.26-.63-.41-.88-.21-.37-.12-.3.16.12.37.56.39.6.36.65-.02.04-.01.04.02,0,.04-.03.02-.1-.05-.27-.06-.13-.09-.24-.08-.25,0,0,.09.11.18.27.28.48.45.74.48.72.02-.01.02,0,.01.03-.01.03,0,.09.04.13.06.08.06.08.03,0-.01-.04.07.04.18.18.11.14.2.27.2.29s.03.06.06.1.08.11.12.15-.08-.2-.25-.55c-.17-.35-.33-.65-.35-.67-.02-.02-.04-.06-.04-.08,0-.06.24.3.43.65.09.16.18.29.2.29.02,0,.04.01.03.04,0,.04.22.42.26.42,0,0-.07-.16-.17-.35s-.2-.34-.22-.33-.02,0,0-.02c.03-.04-.07-.23-.24-.51-.03-.05-.05-.09-.04-.09s.1.11.19.26c.09.14.18.25.2.23.02-.01.02,0,.01.04-.01.03.03.12.1.19.07.08.12.15.12.17s.07.11.16.19l.16.16-.16-.21c-.09-.11-.17-.24-.19-.29-.01-.04-.04-.07-.07-.07s-.05-.02-.06-.05c-.01-.04,0-.04.03-.02.04.02.04.01.02-.04-.09-.23-.18-.5-.17-.52,0,0,.04.06.08.16.05.14.35.64.45.73.04.04-.04-.14-.11-.24-.07-.11-.27-.53-.27-.57,0-.02.05.04.11.13.06.08.15.19.2.23s.08.09.08.11-.04-.01-.1-.08-.1-.09-.1-.07.07.12.16.22.13.13.1.09c-.07-.09-.09-.15-.02-.11.05.03-.06-.19-.19-.38q-.1-.14.06.02c.28.29.4.35.17.08-.11-.13-.11-.2,0-.09.03.03,0-.03-.05-.13-.05-.1-.12-.25-.15-.34-.03-.09-.07-.18-.09-.22s.01,0,.07.07c.06.07.17.22.24.34.12.19.69.84.62.7-.02-.03.02-.01.08.04.25.22.26.2.08-.06-.11-.15-.22-.31-.25-.36-.03-.04.06.04.2.19.15.15.27.29.27.31s.02.03.04.03-.02-.09-.1-.2-.13-.21-.12-.22c.01-.01.05.02.09.07.03.05.11.14.16.2.09.09.09.09-.01-.05-.06-.09-.18-.24-.28-.34-.09-.1-.2-.24-.23-.32s-.13-.21-.2-.3c-.07-.09-.12-.17-.11-.17s-.02-.05-.08-.12c-.17-.18-.09-.14.12.06.25.23.49.43.49.39,0-.02.07.04.16.11.09.08.17.14.18.14s-.06-.1-.16-.22c-.1-.12-.18-.23-.18-.25,0-.02.04.02.08.08.08.11.52.46.57.46.02,0-.04-.08-.13-.17-.09-.09-.18-.21-.21-.27-.03-.05-.12-.16-.21-.23-.09-.07-.14-.13-.12-.13.04,0,.33.23.39.31.1.14.24.27.35.34.08.05.06.02-.08-.12-.11-.11-.23-.24-.28-.29-.39-.49-.4-.5-.26-.38.08.07.17.12.25.12.07,0,.16.04.21.09.05.05.2.15.33.23.22.13.23.13.14.03-.05-.06-.14-.14-.2-.17-.16-.1-.46-.38-.35-.32.05.03.15.09.22.14.18.13.25.16.14.05-.05-.05-.17-.14-.25-.19-.09-.05-.13-.1-.11-.11.06-.02-.03-.17-.09-.17-.02,0-.08-.04-.12-.08l-.08-.08.1.05c.05.03.11.05.13.05s.03,0,.03.02.1.12.23.22c.22.19.2.16-.13-.21-.08-.09-.18-.22-.21-.28-.03-.07,0-.04.13.09.1.11.18.18.18.16,0-.02.05,0,.11.06.21.19.26.21.09.03-.09-.1-.16-.2-.15-.22.01-.02-.07-.1-.17-.19s-.2-.16-.2-.17c0-.05.28.16.57.42.18.16.36.32.4.36.2.16-.12-.21-.55-.62-.33-.32-.41-.41-.29-.33.2.13.45.33.64.51.07.07.14.13.16.13.06,0-.23-.32-.34-.38-.06-.03-.11-.09-.11-.12,0-.05,0-.05.07,0,.36.3.46.37.48.36.03-.03-.49-.46-.56-.46-.03,0-.46-.31-.46-.33,0,0,.11.05.25.12.14.08.26.14.29.15.02,0,.06.03.09.07.05.05.05.05.02,0-.02-.03.03,0,.1.07.07.07.15.12.17.1.02-.01,0-.04-.04-.05-.04-.01-.08-.05-.08-.08s-.1-.11-.22-.18c-.37-.21-.57-.35-.58-.41,0-.03.03-.01.1.05.06.06.21.15.33.21.12.06.25.12.29.14.04.02.09.04.11.04.08,0-.37-.39-.48-.42-.05-.01-.12-.04-.15-.06-.03-.02-.07-.02-.1,0-.03.02-.04.01-.02,0,.02-.02,0-.07-.04-.11-.08-.09.37.13.56.27.33.25.06-.05-.32-.36-.08-.06-.13-.12-.12-.13.03-.03.19.07.36.24.09.09.24.21.34.26l.17.09-.08-.09s-.17-.15-.29-.23c-.28-.19-.26-.24.03-.09.13.07.24.1.24.08s-.07-.07-.15-.1c-.19-.09-.48-.27-.48-.3,0-.02.23.06.65.22.14.05.05,0-.26-.17-.17-.09-.35-.17-.41-.18-.11-.01-.38-.14-.3-.14.02,0,.09.02.15.05.06.03.13.05.15.04Zm-13.3-3.24c-.02-.06-.02-.06.02-.02.03.03.04.06.03.07s-.03,0-.05-.05Zm-1.03,2.14c-.07-.06-.07-.06.02-.01.05.03.11.05.12.06.05.05-.07,0-.14-.05Zm.5,3.73s-.04-.04-.02-.04.07.02.1.04.04.04.02.04-.07-.02-.1-.04Zm.31-2.39c.09.11.03.09-.1-.03-.08-.08-.09-.1-.04-.07.05.02.11.07.13.1Zm-.1,1.4s.02.05-.06,0c-.04-.02-.04-.04-.01-.04.03,0,.06.02.07.04Zm-.27-3.02c-.11-.07-.18-.14-.16-.14.04,0,.37.23.37.26,0,.02,0,.02-.21-.12Zm.27,3.41c-.1-.05-.13-.07-.08-.08.04,0,.13.03.2.08.15.1.09.1-.12,0Zm.18.98c-.05,0-.08,0-.05-.02.03-.01.07-.01.1,0,.03.01,0,.02-.05.02Zm.02-.11c-.06-.03-.07-.03-.01-.04.04,0,.08.01.09.04.03.05.03.05-.08,0Zm-.15-2.49s.08.05.15.12c.06.07.11.12.1.12-.03,0-.27-.24-.24-.24Zm.44,2.84s-.03-.02-.02-.04.03-.04.04-.04.02.02.02.04-.02.04-.04.04ZM10.13,2.06s.03,0,.02.04c-.03.07-.05.08-.05.02,0-.02.02-.05.04-.06Zm-1.12-1.28l.06-.1-.03.1c-.01.05-.04.12-.06.14-.06.06-.04-.03.03-.14Zm-.1,1.34s.02-.08.06-.16c.03-.07.06-.11.06-.07,0,.06-.11.28-.11.23Zm.51-.15c-.05.07-.05,0,0-.1.02-.05.03-.06.04-.02,0,.03-.02.09-.04.12Zm7.91,26.33s-.1-.02-.12-.01c-.02,0,0-.01.04-.04.07-.06.08-.06.14,0,.07.07.05.1-.06.06Zm7.82-1.25s-.01.02-.05.02c-.05,0-.06-.01-.02-.02.03-.01.06-.01.08,0Zm-.56-9.33s-.43-.63-.4-.66c.01-.01-.04-.11-.12-.21-.08-.11-.13-.19-.12-.19.05,0,.47.55.44.59-.01.02.03.14.1.26s.11.22.11.22Zm-.05-14.98c.03.07,0,.08-.03.02-.01-.02-.02-.05,0-.06.01-.01.03,0,.04.04Zm-.22-.38s.01.06,0,.08c-.01.01-.02-.01-.02-.05,0-.05.01-.06.02-.02Zm-.28.04h0s.01.07,0,.1c-.01.03-.02,0-.02-.05s0-.08.02-.05Zm-.35.3s0,.04-.03.07c-.04.04-.04.03-.02-.02.01-.04.04-.06.05-.05Zm0,.17s.01.07,0,.1c-.01.03-.02,0-.02-.05s0-.08.02-.05Zm-.71-.36s.01.07,0,.1c-.01.03-.02,0-.02-.05s0-.08.02-.05Zm-.04.63s0,.06,0,.08c-.01.01-.02-.01-.02-.05,0-.05.01-.06.02-.02Zm-.14.26c.04.12.03.16-.02.11-.01-.01-.02-.07-.02-.13,0-.1,0-.1.04.01Zm-.8,10.81s0,.02-.07.02-.11,0-.07-.02.1,0,.14,0Zm-.38-.33c.08,0,.09,0,.04.04-.03.02-.1.04-.16.04-.08,0-.09,0-.04-.04.03-.02.1-.04.16-.04Zm-.26-.04c.08,0,.08,0,0,.04-.11.05-.15.05-.12,0,.01-.02.06-.04.11-.04Zm-.04-.15s0,.02-.07.02-.09,0-.05-.02.09,0,.12,0Zm-.14-.51s-.01.02-.05.02c-.05,0-.06-.01-.02-.02.03-.01.06-.01.08,0Zm-.34-.3c.08,0,.15.02.15.03,0,.03-.27.02-.29-.01-.01-.02.05-.02.14-.02Zm.02.27c-.11,0-.17-.02-.14-.03.03-.02.12-.02.19,0,.13.03.13.03-.05.03Zm-.75-8.26c-.17-.25-.22-.35-.1-.2.05.07.17.21.26.33.09.11.16.21.15.21-.04,0-.19-.16-.31-.34Zm.04.68c-.05-.1.38.31.44.42.02.04.03.08.02.09-.01.01-.05-.03-.08-.09-.03-.06-.12-.16-.2-.22-.08-.06-.16-.15-.19-.2Zm-.67,6.13s-.03-.03.06-.01c.07.01.13.03.13.04.04.03-.14,0-.19-.03Zm.03-.2s.04.04,0,.06c-.08.03-.31-.08-.31-.15,0-.03-.02-.06-.05-.06s-.04,0-.03-.02.07,0,.13.02c.11.04.37.07.62.08.06,0,.11.02.11.03,0,.02-.12.02-.27.02-.17,0-.25,0-.21.02Zm.33.45s0,.02-.05.02-.08,0-.05-.02c.03-.01.07-.01.1,0Zm.18.34c-.08,0-.32-.12-.3-.14.03-.03.3.06.33.11.01.02,0,.04-.03.03Zm-.09-.54s.19.01.38.04c.18.03.27.05.2.05-.08,0-.16,0-.18-.01s-.13-.03-.24-.04c-.11-.02-.18-.03-.16-.04Zm.38.27s0,.02-.05.02-.08,0-.05-.02c.03-.01.07-.01.1,0Zm-.18.2s.06-.01.08,0c.01.01-.01.02-.05.02-.05,0-.06-.01-.02-.02Zm.05.31c.05,0,.13.02.18.03.07.03.07.03-.02.03-.05,0-.13-.02-.18-.03-.07-.03-.07-.03.02-.03Zm.1.3s-.06-.08-.06-.09.09,0,.2.03.19.05.18.07c-.04.07-.25.06-.31,0Zm.2.25s.09.02.09.04c0,.05-.04.05-.12,0-.05-.03-.04-.04.03-.04Zm.11.12c.06,0,.16.03.21.06.06.04.08.06.04.06-.03,0-.07,0-.08-.02,0,0-.07-.03-.13-.04-.16-.03-.18-.06-.04-.06Zm-.06.15s.01-.03.05,0c.03.03.13.05.23.05.15,0,.16,0,.08.04-.18.06-.36.02-.36-.09Zm.23.21c.07.02.12.05.12.06,0,.04-.15,0-.2-.04-.04-.05-.03-.05.07-.02Zm.06.14s.06.03.06.04c0,.03-.08.01-.1-.02-.01-.02,0-.03.04-.02Zm.3.26s0,.03-.1.03c-.16,0-.21-.02-.21-.08,0-.04.23,0,.32.05Zm-.18,14.44s-.06-.01-.02-.02c.03-.01.06,0,.08,0s-.01.02-.05.02Zm1.95-.18s-.01.02-.05.02c-.05,0-.06-.01-.02-.02.03-.01.06-.01.08,0Zm-.06-.2s0,.02-.07.02c-.07,0-.09,0-.05-.02s.09,0,.12,0Zm-.43.1c-.25-.05-.97-.25-.95-.26.01-.01.41.07,1.07.24.24.06.16.08-.12.03Zm-1.01-4.6s.03-.07.06-.12c.06-.07.06-.07.01.02-.06.12-.08.14-.08.09Zm1.96-1.9s-.02,0-.02-.07c0-.07,0-.09.02-.05.01.04,0,.09,0,.12Zm.49,5.67c-.05,0-.08,0-.05-.02.03-.01.07-.01.1,0,.03.01,0,.02-.05.02Zm.1.16s-.06-.01-.02-.02c.03-.01.06-.01.08,0,.01.01-.01.02-.05.02Zm.37-.14c.06,0,.01.02-.11.02s-.17,0-.11-.02.16,0,.22,0Zm.32-8.51c-.12-.32-.33-.75-.4-.81-.03-.02.01.09.09.26.19.41.23.55.07.28-.07-.12-.13-.23-.12-.26s-.03-.08-.08-.14l-.08-.1.06.11c.04.06.06.12.06.13,0,.06-.13-.09-.2-.22-.04-.08-.11-.18-.16-.22-.08-.07-.07-.06.02.05.06.07.11.15.11.17s.05.1.12.17c.07.08.11.16.1.18s0,.05.04.06c.03.01.05.04.04.06-.01.02,0,.04.03.04s.04.01.02.03.04.14.12.28c.08.14.13.27.12.3s-.05-.03-.09-.12c-.04-.09-.09-.16-.1-.15-.01.01-.02,0,0,0,.03-.04-.06-.18-.1-.15-.02.01.04.15.14.31.1.16.18.3.18.32,0,.05-.13-.08-.22-.23-.06-.09-.11-.14-.14-.12-.03.02-.03,0-.02-.02.02-.03-.03-.13-.12-.24-.08-.11-.15-.2-.16-.2s.02.07.05.16c.03.09.08.15.1.14s.02,0,.01.03.06.26.15.52c.1.25.17.46.16.46s-.11-.19-.24-.43c-.13-.24-.23-.43-.24-.42-.02.02.12.42.22.65.06.14.11.25.1.25s-.08-.1-.16-.22c-.08-.12-.15-.22-.16-.22s0,.07.04.15.06.24.07.36c.01.12.03.26.04.32.02.08,0,.06-.08-.07-.1-.19-.12-.17-.1.13,0,.08,0,.19-.03.24-.03.07-.04.06-.06-.11l-.02-.2v.25c-.01.25-.07.34-.1.14-.01-.1-.02-.09-.03.03,0,.12-.01.13-.04.06-.02-.04-.03-.13-.04-.2,0-.09,0-.1.04-.06.02.03.04.04.04.02s-.02-.07-.04-.1c-.04-.06-.06,0-.1.31-.01.1-.06.28-.1.41l-.08.24v-.24c-.01-.13-.03-.18-.03-.12-.03.2-.06.25-.09.12-.03-.11-.03-.11-.03.04,0,.12-.02.14-.04.1-.03-.05-.04-.03-.04.06,0,.25-.24.72-.29.59-.01-.03-.04-.05-.07-.04s-.04,0-.03-.03c.02-.18-.01-.18-.08,0-.04.11-.12.27-.17.36-.06.08-.14.23-.18.33-.04.1-.1.2-.12.21-.03.02-.03,0,0-.04.14-.24.22-.65.12-.59-.02.01-.03.07-.01.13.01.06.01.09,0,.08-.02-.02-.06.04-.1.13-.04.09-.09.15-.11.14s-.05.02-.07.07c-.03.08-.03.06-.05-.08l-.02-.17-.11.21c-.06.12-.14.25-.17.29l-.06.08.03-.08s.04-.13.05-.19c.03-.17-.05-.1-.11.09-.02.08-.09.24-.14.35-.06.11-.12.22-.15.25-.03.02,0-.07.06-.2s.11-.27.11-.31c0-.06-.01-.05-.05.02-.06.13-.12.11-.09-.02.08-.32.19-.85.28-1.45.11-.65.11-.72.11-2.07,0-1.7-.05-2.22-.34-3.57-.11-.54-.35-1.36-.43-1.52-.04-.08-.04-.08.11-.06l.15.02-.15-.05c-.21-.07-.2-.13.03-.13.15,0,.17,0,.1.03-.08.03-.07.03.08.04.16,0,.4.07.29.08-.09,0-.05.08.04.08.05,0,.16.03.25.05.14.04.11.05-.32.04-.33,0-.43,0-.32.02.09.02.34.04.57.04.23,0,.49.02.57.04.1.02-.09.03-.55.02-.78,0-.77,0,.13.17.25.05.51.11.57.14.07.03.19.07.29.08.23.03.17.1-.06.08-.1-.01-.15-.01-.1,0s.1.04.12.06c.02.02.08.04.13.04s.09.02.09.04.03.04.08.04.09.02.1.04.06.04.1.04.08.02.08.04c0,.05-.02.05-.31-.04-.14-.04-.26-.07-.27-.06-.04.04.31.16.53.18.14.01.26.04.27.05.04.04-.48,0-.6-.05-.06-.02-.11-.03-.12-.02-.04.04.13.1.35.12.13.02.24.04.25.06.03.04.01.04-.22,0-.17-.03-.18-.03-.08.03.05.04.17.09.25.12.19.06.68.39.81.54.06.06-.01.02-.17-.1-.37-.29-.63-.41-.79-.38-.1.02-.11.02-.07-.02.05-.04.05-.04-.01-.02-.04.01-.09.02-.12.03-.03,0,.06.05.19.12.13.06.34.19.47.27.13.09.37.22.52.3.28.14.35.21.15.16-.06-.01-.11-.03-.13-.03-.02,0-.11-.06-.2-.12-.11-.07-.17-.1-.17-.06,0,.03-.03.01-.07-.03-.04-.05-.14-.12-.23-.17l-.16-.08.13.11c.21.18.39.31.35.26-.07-.12.06-.04.16.1.06.08.21.25.33.38.13.14.18.22.13.19-.05-.03-.17-.15-.27-.27-.16-.21-.49-.44-.62-.44-.06,0,.21.17.27.18.02,0,.04.02.04.04,0,.06.1.23.19.33.07.08.07.09.01.09-.04,0-.07-.02-.07-.04,0-.05-.31-.25-.34-.22-.01.01.02.04.07.07.15.08.27.2.45.47.1.14.2.3.24.35.04.05.05.08.02.07-.02-.02-.11-.12-.18-.24-.18-.27-.48-.61-.52-.58-.01.01,0,.05.03.08.03.03.1.12.15.2.05.08.11.13.13.12.02-.02.02-.01,0,.01-.01.02.06.13.15.24.22.25.23.32.01.09-.09-.1-.18-.17-.2-.17-.02,0-.06-.04-.09-.11-.06-.12-.15-.22-.38-.42-.07-.07-.03,0,.09.13.13.14.25.3.27.35.02.05.07.09.09.07.05-.02.12.11.1.2,0,.03,0,.06.03.07.02.02.03,0,.01-.04-.02-.04-.01-.06.02-.04.02.01.05.07.06.13.01.06.07.17.12.25.09.13.13.23.28.7.1.3.05.3-.06,0Zm-.95-2.76s-.13-.05-.21-.12-.17-.12-.19-.12-.03-.01-.02-.02c.01-.01.09,0,.17.04.08.04.13.08.12.09s.03.04.09.07c.06.03.08.05.05.05Zm1.21-13.46s-.06-.09-.04-.11c.01-.01,0-.07-.04-.13-.08-.15-.07-.2,0-.06.03.06.07.16.07.21,0,.05,0,.09,0,.09Zm.4-.68s-.02-.01-.02-.05c0-.05.01-.06.02-.02.01.03.01.06,0,.08Zm.08.3s-.02,0-.02-.05,0-.08.02-.05c.01.03.01.07,0,.1Zm.12.24s-.02,0-.02-.05,0-.08.02-.05c.01.03.01.07,0,.1Zm3.18,21.9c.08.01.07.02-.04.04-.08.01-.12,0-.09-.01.02-.02.08-.03.13-.02Zm.54-.51s-.01.02-.05.02c-.05,0-.06-.01-.02-.02.03-.01.06,0,.08,0Zm.24-1.26s-.01.02-.05.02c-.05,0-.06-.01-.02-.02.03-.01.06-.01.08,0Zm.39-.71s-.01.02-.05.02c-.05,0-.06-.01-.02-.02.03-.01.06,0,.08,0Zm.72-1.44s.03.02.02.04c-.01.02-.03.04-.04.04s-.02-.02-.02-.04.02-.04.04-.04Zm.71-.64s.08-.01.08,0-.04.03-.08.06c-.04.02-.08.03-.08,0s.04-.05.08-.06Zm.15-1.22c.06-.05.06-.05.01.01-.05.07-.08.09-.08.05,0,0,.03-.04.07-.07Zm-.38-2.62l.13-.12-.12.13c-.06.07-.12.13-.13.13-.03,0,0-.03.12-.14Zm-.03-.57c.08-.09.14-.07.06.02-.03.03-.07.06-.09.06s0-.04.03-.08Zm-.15.15c.06-.05.06-.05.01.02-.05.07-.08.09-.08.05,0,0,.03-.04.07-.07Zm-.23,3.3l.1-.08-.08.09s-.09.09-.12.09-.03,0-.02-.01c0,0,.06-.05.12-.09Zm-.28-4.46s.03,0,.02.04c-.03.07-.05.08-.05.02,0-.02.02-.05.04-.06Zm-.19,5.39s.03.02.02.04c-.01.02-.03.04-.04.04s-.02-.02-.02-.04.02-.04.04-.04Zm-.94,3.61s0,.02-.05.02-.08,0-.05-.02c.03-.01.07-.01.1,0Zm-.36.47s0,0,0,0h0s0,0,0,0c.03.01,0,.02-.07.02-.07,0-.09,0-.05-.02.04-.01.09,0,.12,0Zm-.13-11.34s.03.07.03.16c0,.18,0,.17-.05.12-.04-.04-.03-.28.02-.28Zm-.44,11.33c.16,0,.27-.02.37-.05.08-.02.09-.02.03.01-.04.02-.06.06-.05.07,0,.01-.08.03-.2.03s-.21-.01-.21-.03.03-.03.07-.03Zm-.23-12.17c0,.09-.02.19-.04.23-.02.05-.03,0-.01-.14.03-.26.05-.31.05-.1Zm.05,13.17s0,.02-.07.02-.09,0-.05-.02c.04,0,.09,0,.12,0Zm-.38-13.56h0s.01.06,0,.08c-.01.01-.02-.01-.02-.05,0-.05.01-.06.02-.02h0s0,0,0,0Zm.03-.11s-.02-.05,0-.06c.01-.01.03,0,.04.04.03.07,0,.08-.04.02Zm-.02-.29s.03,0,.02.04c-.03.07-.05.08-.05.02,0-.02.02-.05.04-.06Zm-.05.25s-.02-.01-.02-.05c0-.05.01-.06.02-.02.01.03.01.06,0,.08Zm-.02-.58s.03-.02,0,.06c-.01.07-.04.15-.06.18-.02.04-.03.02,0-.06.01-.07.04-.15.06-.18Zm-.57-.38c0,.1,0,.27,0,.37,0,.1-.01.02-.01-.19s0-.29.01-.19Zm-.28,15.67h0s0,.02-.09.02-.12,0-.07-.02c.05,0,.12,0,.16,0Zm-.64-23.78s-.02-.01-.02-.05c0-.05.01-.06.02-.02.01.03.01.06,0,.08Zm.2.43s-.02-.01-.02-.05c0-.05.01-.06.02-.02.01.03.01.06,0,.08Zm.08.22s-.02,0-.02-.05,0-.08.02-.05c.01.03.01.07,0,.1Zm.84.19c0-.07.02-.12.04-.12s.03.05.02.11c-.03.15-.05.16-.05.02Zm.42-.48c-.09.1-.11.1-.08.02.01-.03.05-.07.09-.08.05-.02.05-.01,0,.06Zm.85.35s-.04.07-.08.11q-.08.07-.04-.01c.05-.1.12-.16.12-.1Zm-.32.06c.07-.13.23-.31.25-.28.01.01-.02.07-.08.13-.05.06-.1.12-.1.14s-.03.05-.06.06c-.05.02-.05,0-.02-.05Zm1.16.78s-.02-.02-.02-.04.02-.04.04-.04.03.02.02.04c-.01.02-.03.04-.04.04Zm-.03-.4c-.06.07-.13.13-.15.13-.06,0,0-.07.14-.16l.13-.09-.12.13Zm.87,6.93c-.02-.06-.02-.06.02-.02.03.03.04.06.03.07-.01.01-.03,0-.05-.05Zm.02-.14q-.05-.09.03-.01s.08.08.08.09c0,.04-.07,0-.11-.08Zm.19.3c-.04-.05-.04-.06.01-.04.04.01.06.04.06.06,0,.05-.02.04-.08-.02Zm.47-5.79c-.1.02-.21.05-.26.07-.07.03-.07.02.01-.04.05-.04.12-.07.16-.07.04,0,.07-.02.06-.04-.02-.03.14-.13.3-.17.07-.02.05,0-.06.07-.1.06-.13.1-.1.12.03.01-.02.04-.12.06Zm.25,6.08l-.12-.13.13.12c.07.06.13.12.13.13,0,.03-.03,0-.14-.12Zm.29.11s.03,0,.03.04c0,.07-.01.07-.04.02-.01-.02,0-.05.01-.06Zm-.07-.19s.04.06.03.07-.03,0-.05-.05c-.02-.06-.02-.06.02-.02Zm1.02.44s.04.02.04.04,0,.04-.02.04-.03-.02-.04-.04c-.01-.02,0-.04.02-.04Zm-.41-.53c.13.17.26.36.29.41.03.05.04.1.04.11,0,0-.08-.09-.16-.22-.09-.14-.16-.23-.19-.21-.02.01-.03,0-.02-.01.01-.02-.03-.11-.1-.19-.07-.08-.15-.21-.18-.27l-.06-.12.07.1c.04.05.18.24.31.42Zm-.14-4.53c-.05,0-.08,0-.05-.02.03-.01.07-.01.1,0,.03.01,0,.02-.05.02Zm.57,1.14s.06.03.06.04c0,.03-.08.01-.1-.02-.01-.02,0-.03.04-.02Zm-.36-.4c.03.07,0,.08-.03.02-.01-.02-.02-.05,0-.06.01-.01.03,0,.04.04Zm-.04,1.32s-.06-.01-.02-.02c.03-.01.06-.01.08,0s-.01.02-.05.02Zm.16.4s-.06-.02-.06-.04.03-.04.06-.04.06.02.06.04-.03.04-.06.04Zm-.04-1.1s0-.03.04-.02c.03.01.06.03.06.04,0,.03-.08.01-.1-.02Zm.59,2.62s.07.06.06.06c-.03,0-.39-.22-.42-.25-.04-.05.27.12.37.19Zm-.19-1.8c-.18-.14-.31-.26-.28-.26.02,0,.12.08.23.18h0c.21.19.23.23.04.09Z"/>
  </g>
</svg>