<?xml version="1.0" encoding="UTF-8"?>
<svg id="Layer_2" data-name="Layer 2" xmlns="http://www.w3.org/2000/svg" viewBox="0 0 33.94 31.68">
  <defs>
    <style>
      .cls-1 {
        stroke-width: 0px;
      }
    </style>
  </defs>
  <g id="Layer_1-2" data-name="Layer 1">
    <path class="cls-1" d="m17.75,14.25c-.33,1.64-1.03,3.18-1.37,4.82,1.27-1.36,3.01-2.22,4.84-2.55,2.44-.49,4.98-1.67,6.22-3.94.57-.97.68-2.1.72-3.2.7.42,1.48.8,1.92,1.53.41.57.5,1.27.71,1.92,1.02.45,1.92,1.21,2.35,2.26.53,1.14.6,2.41.81,3.64.07.64-.59,1.07-1.17,1.07-1.17.05-2.3-.33-3.41-.67.02.44.03.87.06,1.31,1.08.55,2.34.03,3.45.46.49.19.29.88-.13,1.04-1.55.84-3.45,1.48-5.18.79-1.42-.5-2.49-1.65-3.9-2.18-.58-.24-1.22-.17-1.82-.11,1.92-.62,3.52.9,5.12,1.67,1.75.95,3.94.38,5.46-.74-1.08-.13-2.25.28-3.26-.25-.89-.53-.23-1.81-.94-2.46-.41-.44-.86-.83-1.27-1.26,1.94.65,3.9,1.53,6,1.45-.28-1.37-.34-2.9-1.3-4.02-.5-.62-1.28-.91-2.05-1.02,0-.69-.13-1.37-.4-2.01-.33.66-.54,1.38-.96,1.99-1.15,1.81-3.04,3.01-5.04,3.69-1.27.47-2.66.56-3.86,1.22-2.14,1.1-3.61,3.33-3.78,5.72-.1.85-1.5.82-1.58-.02-.22-3.13.9-6.13,1.81-9.07.83-2.95,1.26-6.14.42-9.13-.49-1.76-1.61-3.48-3.37-4.15-1.81-.63-3.89-.59-5.63.25-1.73.8-3.08,2.23-4.13,3.79,2.07-.55,4.37-.79,6.38.12,1.55.66,2.71,2.16,2.9,3.84.27,1.73-.53,3.36-.8,5.03-.61,3.28-.6,6.77.54,9.94.84,2.36,2.56,4.51,4.92,5.45,2.19.83,4.78.79,6.82-.4,2.52-1.42,3.43-5.15,1.71-7.51-.31-.44-.71-.81-1.07-1.21,1.21.85,2.12,2.2,2.25,3.69.11,1.68-.39,3.46-1.6,4.67-1.42,1.45-3.54,2.04-5.53,1.97-2.18,0-4.34-.87-5.89-2.4-1.98-1.86-3.02-4.5-3.49-7.13-.53-3.23-.28-6.56.58-9.7.37-1.31.35-2.89-.6-3.96-1.06-1.23-2.8-1.55-4.35-1.42-2.1.11-3.98,1.12-5.86,1.96C.98,6.3,2.47,3.64,4.83,1.88,6.91.26,9.71-.37,12.29.21c2.08.36,3.84,1.84,4.77,3.7,1.63,3.18,1.45,6.94.69,10.34Zm2.88,15.52c-1.69-.06-3.18-1.13-4.05-2.54.76,2.08,3.1,3.39,5.27,3.01,1.29-.19,2.49-.94,3.24-2,1-1.39,1.2-3.33.45-4.87.27.93.32,1.93.04,2.87-.57,2.14-2.74,3.7-4.95,3.54Zm9.37-15.17c.07.91.9,1.41,1.75,1.36.04-.93-.9-1.47-1.75-1.36Zm-.43,7.31c-.53-.24-1.22-.41-1.4-1.05-.29-.91-.59-1.98-1.61-2.32.78.62.96,1.61,1.28,2.49.25.71,1.05.9,1.72.88Zm-8.12-1.11c1.98.72,3.23,2.96,2.78,5.03-.26,1.53-1.43,2.7-2.78,3.36.75-.23,1.51-.51,2.09-1.06,1.15-1.01,1.67-2.68,1.3-4.17-.36-1.6-1.74-2.97-3.39-3.17Z"/>
  </g>
</svg>