<?xml version="1.0" encoding="UTF-8"?>
<svg id="Layer_2" data-name="Layer 2" xmlns="http://www.w3.org/2000/svg" viewBox="0 0 33.94 24.01">
  <defs>
    <style>
      .cls-1 {
        stroke-width: 0px;
      }
    </style>
  </defs>
  <g id="Layer_1-2" data-name="Layer 1">
    <path class="cls-1" d="m33.82,9.84s-.08-.04-.16-.12-.16-.12-.18-.11c-.02.01-.03,0-.01-.01s-.03-.09-.09-.15c-.11-.1-.14-.09-.12.03,0,.02-.03.02-.06,0-.05-.02-.05-.03-.01-.04.04-.01,0-.08-.14-.19l-.19-.18.19.15c.1.08.2.14.21.12.03-.03-.16-.25-.21-.23-.02,0-.07-.02-.12-.07l-.07-.08.1.05c.05.03.11.05.12.05.01,0,.1.08.19.19s.17.19.18.17-.01-.06-.06-.11c-.04-.05-.09-.11-.11-.15-.03-.05.02-.02.34.23.1.08.11.08.07.02-.06-.09-.37-.33-.43-.33-.02,0-.06-.04-.08-.08-.04-.08-.04-.08.07-.01.06.04.17.11.25.17.13.09.13.09-.04-.09-.09-.1-.18-.18-.19-.17,0,0-.05-.02-.1-.07-.05-.05-.13-.11-.18-.15-.05-.04,0-.03.1.03.11.05.29.19.41.3.12.11.18.16.14.11-.04-.05-.09-.11-.11-.12-.02-.02-.03-.04,0-.05.03-.03-.13-.16-.18-.14-.02,0-.03,0-.03-.03,0-.05.14-.05.18,0,.01.02.04.04.07.04s-.01-.05-.08-.12c-.07-.06-.14-.12-.15-.12s0,.03.05.06c.05.04.06.06.02.06-.03,0-.09-.03-.12-.06s-.07-.04-.07-.02.03.06.07.08c.04.02.05.04.02.04-.03,0-.12-.04-.19-.1-.08-.05-.13-.1-.1-.1s.06.02.09.05.06.03.08.02c.02-.02-.05-.1-.14-.18-.21-.19-.19-.2.04-.01.1.09.19.13.23.12.04-.01.11.02.17.06.06.05.12.07.13.06.01-.01,0-.02-.02-.02s-.04-.02-.02-.04c.02-.03.01-.03-.02-.02-.02.02-.04,0-.04-.01s-.03-.04-.06-.04-.09-.04-.13-.08-.08-.08-.1-.08,0,.03.03.06.05.07.04.09-.05,0-.07-.05c-.09-.15-.27-.34-.43-.45-.16-.11-.24-.27-.09-.19.09.05.09.08.01.05-.1-.04-.06.02.06.08.06.03.18.12.26.19l.15.13-.11-.15c-.06-.08-.1-.16-.09-.17s.06.03.1.1c.05.07.1.12.11.11.04,0,.47.21.5.25.01.02.04.03.07.03.03,0,.02-.02-.02-.05-.04-.03-.05-.07-.04-.08.02-.02,0-.02-.02,0-.03.01-.08,0-.11-.04-.04-.04-.07-.06-.08-.05s-.1-.05-.21-.15c-.11-.09-.18-.17-.16-.17s.05.02.06.03c.01.02.07.03.13.02.06,0,.13,0,.16.03.03.02.05.03.05,0s-.08-.08-.18-.13-.18-.11-.18-.13-.02-.03-.05-.03-.09-.04-.13-.08-.14-.12-.22-.16c-.21-.11-.16-.12.11-.03.22.07.43.09.39.03,0-.01-.06-.02-.1-.01-.05,0-.07,0-.04,0,.08-.04-.03-.11-.49-.33-.24-.11-.43-.21-.42-.22.01-.01.71.27.85.34.04.02.07.02.07,0,0-.02-.04-.05-.08-.06s-.1-.06-.12-.1-.09-.08-.16-.1-.13-.04-.14-.06c-.03-.05.12-.08.23-.04.18.07.11,0-.09-.08-.11-.05-.19-.1-.19-.11s-.17-.1-.37-.2c-.2-.1-.36-.18-.36-.18.01-.01.21.06.43.16.15.07.33.11.33.08,0-.01-.08-.07-.18-.12-.1-.05-.28-.15-.4-.21-.12-.07-.24-.11-.27-.1-.04.01-.05,0-.01-.02.03-.02-.04-.08-.24-.19-.16-.08-.28-.16-.28-.17.01-.01.58.26.94.46.38.21.42.23.62.25.16.02.18.02.1-.02-.05-.02-.11-.05-.14-.05-.29-.07-.4-.11-.39-.14.01-.02.1,0,.2.02.27.08.3.06.05-.03-.12-.04-.22-.09-.23-.11s-.08-.06-.15-.09c-.22-.11-.14-.1.12.01.13.06.3.12.38.13l.14.02-.11-.06c-.06-.03-.13-.07-.16-.07-.09-.02-.49-.23-.49-.26,0-.02.07,0,.15.05.08.04.18.07.2.05.03-.02.04-.01.02.02-.02.03,0,.04.04.02.04-.01.06,0,.04.01s.03.04.09.04c.06,0,.12-.01.14-.04.02-.03,0-.03-.02-.02-.02.01-.1,0-.16-.03-.06-.03-.15-.06-.19-.06-.08,0-.71-.26-.77-.31-.02-.02.14.03.36.12.22.08.44.15.48.15.05,0,.01-.03-.11-.07-.11-.04-.17-.07-.14-.08s-.04-.04-.15-.08c-.11-.04-.23-.09-.25-.12-.03-.04-.02-.04.06,0,.06.02.14.03.18.02.06-.02.06-.01.01.02-.04.03-.03.04.07.04.17,0,.1-.07-.11-.1-.09-.01-.17-.04-.18-.05-.01-.02.06-.02.15,0,.2.03.19,0-.05-.08-.14-.05-.15-.06-.07-.06.06,0,.16.02.23.04.07.02.13.04.14.03.02-.02-.11-.06-.46-.15-.1-.03-.18-.06-.17-.07,0-.01-.08-.07-.21-.13-.27-.12-.38-.2-.26-.17.04.01.13.03.19.04s.1.04.09.06.01.04.06.04c.07,0,.08,0,.03-.06-.03-.04-.12-.1-.21-.13l-.16-.07.21.02c.12.01.31.07.43.13.24.12.52.21.48.15-.01-.02-.05-.04-.07-.04s-.19-.06-.35-.14c-.16-.08-.34-.14-.39-.14s-.1-.02-.11-.05c-.03-.07-.02-.07.34.04.17.05.31.08.32.06,0-.02-.08-.05-.2-.08-.12-.03-.27-.07-.33-.1-.06-.03-.15-.05-.2-.05s-.1-.02-.1-.03-.06-.05-.13-.06c-.11-.02-.12-.03-.06-.07.04-.02.07-.05.07-.07,0-.04-.33-.16-.44-.16-.04,0-.06-.02-.05-.04s0-.03-.05-.03-.07,0-.08-.03c0-.02-.08-.06-.18-.08-.09-.02-.13-.05-.09-.05.04,0,.25.06.46.13.25.09.39.12.41.09.02-.02,0-.03-.02-.01-.02.02-.04.01-.04,0s-.06-.05-.13-.06c-.15-.03-.16-.03-.36-.12-.09-.04-.28-.1-.43-.14-.25-.07-.25-.07-.08-.05.11.01.32.06.47.11.33.11.58.17.81.2.09.01.24.03.32.04.15.02.15.02.04-.02-.06-.02-.18-.05-.25-.06-.19-.03-.75-.17-.77-.19-.01-.01.09-.01.22,0,.16.01.25,0,.27-.03.01-.03.01-.04,0-.02s-.13,0-.25-.02c-.12-.03-.34-.06-.47-.07-.14-.01-.31-.04-.37-.06l-.12-.04.14.02c.2.03.82.06.68.03-.06-.01-.24-.05-.4-.09-.16-.04-.36-.08-.45-.08-.1,0-.04-.02.16-.04.18-.02.41-.02.51-.01.15.02.16.01.08-.02-.05-.02-.17-.04-.25-.04-.09,0-.13-.01-.1-.03.03-.02,0-.04-.1-.05l-.15-.02h.18c.17-.02.17-.02.06-.05-.06-.02-.14-.02-.18,0-.03.02-.29.02-.57,0l-.51-.03h.56c.7-.02.62-.09-.1-.1-.38,0-.44-.01-.29-.04.1-.02.33-.02.53-.01.33.02.35.02.24-.04-.06-.03-.23-.07-.38-.08-.15-.01-.28-.04-.29-.05-.01-.02-.1-.02-.2-.01l-.18.02.16-.04c.14-.04.32-.02.73.06.04,0,.06,0,.04-.03-.02-.03.02-.03.13-.02.08.01.18,0,.21-.01.06-.04-.04-.05-.55-.05-.28,0-.29,0-.1-.03.15-.02.09-.03-.23-.02-.24,0-.39,0-.35-.02.09-.03.52-.1.59-.08.03,0,.06-.01.07-.03.02-.04-.39-.03-.79,0-.07,0-.13,0-.14-.02s-.06-.01-.12,0-.12.03-.13.02c-.05-.04.04-.06.35-.08.6-.03.62-.08.05-.09-.3,0-.6-.02-.67-.04-.16-.04.45-.03.75.02.13.02.19.01.19-.02,0-.03-.05-.04-.14-.03-.08.01-.15,0-.16-.02-.01-.02.05-.04.15-.04.2,0,.13-.02-.3-.06-.29-.03-.3-.03-.16-.06.09-.02.23-.05.31-.07.09-.02.27-.04.41-.05.43,0,.14-.06-.37-.07-.27,0-.61.02-.8.05-.18.03-.34.05-.34.04-.02-.02.65-.18.77-.18.05,0,.13-.02.17-.04.08-.03-.09-.03-.51.02l-.16.02.16-.05c.09-.03.26-.06.39-.08.36-.04.31-.07-.08-.05-.31.02-.6.07-.82.16-.07.03-.07.02-.02-.04.03-.04.06-.06.07-.05s.08,0,.16-.04.22-.06.32-.08.2-.04.23-.06c.07-.05-.22-.01-.53.07-.23.06-.48.1-.48.08s.51-.17.69-.2c.09-.01.19-.06.21-.09.04-.06.04-.06,0-.02-.03.02-.13.05-.21.06-.22.03-.53.09-.66.14-.1.03-.1.03-.05,0,.25-.17.14-.14-.66.18-.19.08-.32.11-.28.08.04-.03.15-.09.25-.12s.31-.12.47-.19c.16-.07.39-.15.52-.17.23-.05.32-.14.1-.1-.17.03-.39.1-.42.13-.03.03-.29.14-.55.22-.12.04-.33.13-.48.2-.15.07-.28.12-.29.11s.01-.03.05-.05c.04-.02.14-.07.23-.13.16-.11.36-.2.39-.19,0,0,.05-.02.09-.06.09-.08.4-.21.64-.27.36-.09.59-.16.57-.18-.02-.02-.71.15-.86.21-.03.01-.06,0-.06-.02s.07-.06.17-.09c.09-.03.14-.05.11-.06-.03,0-.16.02-.29.07-.31.11-.37.09-.08-.02.28-.11.11-.1-.23.02-.13.04-.24.07-.25.07,0,0,.02-.03.06-.04.04-.01.08-.04.08-.06s-.08,0-.18.04l-.18.08.07-.08s.08-.07.1-.06c.03.02.67-.27.67-.31,0-.01-.1.02-.22.08-.25.11-.41.18-.43.17,0,0-.06.02-.13.06-.19.1-.13.03.09-.09.24-.14.23-.15-.03-.04-.1.04-.19.07-.2.06s.04-.04.1-.06c.06-.03.12-.06.12-.08s.02-.03.05-.03.08-.03.1-.06c.07-.08,0-.08-.16,0-.06.03-.13.05-.15.04-.03-.02-.08,0-.56.34-.15.11-.27.17-.28.14-.01-.02,0-.04.01-.04s.2-.11.4-.25c.2-.14.38-.25.41-.24.02,0,.1-.03.16-.08.08-.07.09-.08.03-.05-.05.02-.1.06-.11.08-.01.02-.06.03-.1.02-.08-.02-.57.28-.94.57l-.18.14.14-.15c.07-.08.2-.18.27-.23.08-.05.21-.14.3-.2.09-.07.19-.14.23-.17.04-.03,0-.02-.08.01s-.18.09-.22.12-.07.04-.09.03c-.01-.01.04-.09.12-.16.13-.12.13-.13.04-.09-.06.03-.11.06-.11.08s-.05.05-.12.08c-.06.02-.12.06-.12.08s-.02.03-.05.03.05-.09.17-.2c.12-.12.16-.16.08-.1-.3.22-.67.46-.7.46-.02,0-.06.03-.1.08-.04.04-.13.11-.21.16l-.14.08.11-.09c.06-.05.18-.16.27-.25s.17-.16.19-.14c.03.02.23-.11.46-.29l.1-.08-.19.06c-.1.03-.25.11-.33.18-.24.21-.31.25-.36.26-.03,0-.14.06-.24.13-.29.18-.22.1.12-.12.17-.11.31-.21.31-.21s.01-.05.02-.09c0-.06.02-.07.06-.04.05.04.11.02.11-.06,0-.02.03-.04.06-.03.03,0,.04,0,.03-.02-.02-.02.06-.09.18-.16.11-.07.19-.13.18-.13-.04,0-.38.19-.46.25-.03.03-.14.08-.24.13-.16.08-.54.37-.64.49-.02.03-.08.07-.13.1-.07.04-.08.06-.04.08.04.02.04.03,0,.03-.1,0-.08-.07.05-.17.08-.06.25-.22.4-.36s.29-.26.32-.26.19-.09.34-.19c.15-.1.3-.19.34-.21.04-.01.06-.04.06-.06s-.04,0-.09.02c-.05.03-.12.06-.16.06s-.1.03-.14.08c-.04.04-.08.06-.09.04-.01-.02-.06,0-.1.05-.04.05-.05.07-.02.05.04-.02.05-.02.02.02-.03.04-.04.04-.08-.01-.04-.05-.08-.03-.29.17-.13.13-.25.22-.27.21-.01-.01.05-.08.13-.16.09-.07.21-.21.27-.3.06-.09.14-.19.16-.22.03-.03.05-.07.05-.09s-.05.03-.12.11-.14.15-.17.15-.09.04-.15.09c-.09.08-.1.1-.06.16.03.03.03.05.01.03-.02-.02-.07,0-.12.01-.08.04-.08.04,0-.02.05-.04.06-.06.02-.06-.03,0,.01-.07.1-.16.22-.23.2-.3-.02-.09-.1.1-.18.2-.17.22.01.02,0,.03-.02.01s-.09.03-.14.1c-.06.07-.12.11-.16.1-.03-.01-.06,0-.06.03,0,.05-.25.29-.3.29-.01,0,.02-.05.08-.11.06-.06.1-.13.1-.15s.02-.06.05-.08c.03-.02.1-.09.16-.17.09-.12.1-.14.04-.17-.04-.02-.05-.05-.04-.09.02-.05.02-.06-.02-.02s-.04.06,0,.11c.05.06.05.06-.03.04-.07-.02-.09,0-.13.11-.03.07-.12.19-.19.26-.08.07-.11.09-.07.05.04-.04.07-.1.07-.12s.04-.07.08-.11c.05-.04.07-.1.06-.14-.01-.04,0-.06.01-.05.03.02.13-.17.1-.2,0,0-.03.02-.04.06-.01.04-.05.09-.08.1-.06.02-.08-.01-.03-.08.02-.02,0,0-.04.04-.04.04-.09.08-.11.08-.05,0-.31.37-.28.41.01.02-.01.05-.05.08-.04.03-.05.03-.04,0,.02-.03,0-.06-.01-.07-.02-.01-.04,0-.04.02,0,.02,0,.06,0,.08,0,.02-.05.08-.1.14-.05.06-.12.14-.14.19-.03.04-.05.06-.05.04,0-.02.03-.09.08-.15s.07-.1.05-.1,0-.04.05-.09c.04-.05.12-.16.18-.25.05-.09.11-.16.12-.15s.04,0,.07-.05c.03-.04.03-.05,0-.04-.02.01-.05,0-.06-.02-.01-.04-.23.23-.3.38-.07.14-.21.33-.22.32-.01-.01.02-.08.06-.16.1-.16.1-.2.03-.15-.03.02-.02,0,.02-.03.04-.03.06-.07.04-.09-.03-.03.11-.18.15-.16.02.01.06-.02.1-.08.05-.07.09-.09.15-.08.06.02.1,0,.11-.04.02-.06.02-.06-.04-.01-.06.05-.06.05-.04-.02.02-.06,0-.06-.13.02-.09.05-.21.14-.27.21-.06.06-.15.15-.2.19l-.09.08.07-.11c.04-.06.12-.16.17-.22.06-.06.14-.19.19-.28.08-.15.09-.16.01-.09-.04.04-.08.09-.08.11,0,.06-.15.2-.18.17-.02-.02,0-.04.02-.05.03,0,.05-.04.05-.06s.03-.07.06-.11c.04-.04.05-.07.04-.07-.04,0-.26.32-.26.37,0,.02.02.02.04-.02.04-.05.04-.05.02,0,0,.03-.04.05-.06.05-.02,0-.07.05-.11.13-.04.07-.08.14-.11.14-.02,0-.08.07-.14.15-.11.17-.27.37-.27.35,0-.05.19-.37.21-.35.05.05.02-.05-.02-.11-.04-.05-.04-.05.02,0,.04.03.07.03.07.01s.04-.08.1-.13c.1-.09.25-.35.25-.41,0-.02-.04,0-.08.06-.04.05-.09.08-.11.07-.02-.01-.06.01-.09.06-.03.04-.07.07-.08.05s-.03,0-.03.02-.05.13-.12.22c-.06.1-.11.19-.1.21s0,.04-.01.05c-.07.04-.02-.12.08-.3.06-.1.1-.21.08-.23-.02-.02-.01-.03.01-.02.02.01.07-.03.11-.09.11-.18-.01-.13-.14.06-.06.09-.11.13-.11.1,0-.03-.02,0-.05.06-.03.06-.04.13-.04.14,0,.01-.01.04-.04.05-.03.01-.08.08-.11.15-.03.07-.06.11-.06.08,0-.03.04-.13.09-.23.05-.1.1-.25.12-.32.02-.12,0-.1-.1.11-.07.13-.14.24-.16.24s-.01-.04.01-.08c.02-.04.03-.09.02-.1-.03-.03-.14.07-.14.13,0,.03-.05.16-.12.3-.13.28-.11.13.03-.21.05-.12.09-.25.09-.28,0-.11-.07-.06-.15.12-.08.18-.15.24-.11.1.01-.04,0-.07-.03-.07-.03,0-.05.01-.05.03s-.04.12-.09.24c-.05.11-.1.24-.11.28-.01.04-.01,0,0-.09,0-.09.04-.27.07-.39.03-.12.05-.23.04-.24s-.03.04-.05.11c-.02.11-.03.12-.06.05-.03-.06-.03-.05-.02.05,0,.07,0,.12-.02.1-.02-.01-.03.02-.03.08,0,.14-.04.22-.09.19-.03-.02-.03-.01,0,.03.03.03.03.09.01.13l-.03.08v-.08c-.01-.06-.02-.05-.05.04-.03.09-.03.08-.01-.06.04-.37.05-.64.03-.56-.01.04-.04.13-.07.19-.08.19-.14.43-.14.61,0,.09-.02.22-.04.29-.05.2,0-.55.08-.99.04-.22.05-.39.04-.37-.02.02-.08.18-.13.36-.06.18-.13.4-.16.49l-.06.16.03-.19c.01-.11.03-.23.04-.27s.03-.13.05-.19c.03-.08.03-.13,0-.18-.03-.05-.04-.05-.02.03.02.07.01.08-.02.06-.03-.02-.04,0-.02.06.02.07.02.08-.02.06-.03-.02-.04-.01-.03,0,.01.02,0,.07-.01.11-.02.05-.03.02-.02-.12.01-.15,0-.17-.02-.1-.04.11-.07.22-.07.35,0,.05-.02.08-.04.07-.02-.01-.07.02-.1.08l-.07.1-.03-.09s-.02-.1-.01-.11c.01-.01.02,0,.02.03s.02.04.04.02.04-.09.04-.17c0-.11.01-.13.04-.09.03.05.04.04.04-.04,0-.09,0-.09-.06-.04-.03.03-.06.1-.07.14,0,.05-.03.09-.06.1-.03.01-.05.04-.05.08s-.03.09-.07.12c-.05.05-.06.14-.07.4,0,.19,0,.26-.02.16l-.02-.18-.04.19-.04.19v-.29c0-.17,0-.24.02-.18.02.1.03.09.05-.1.02-.12.04-.25.05-.3.01-.05,0-.09-.02-.09-.02,0-.05.05-.07.11-.01.07-.04.11-.07.09-.03-.01-.06.02-.07.09q-.02.11-.02-.01c0-.07.02-.15.06-.18.04-.04.04-.06.02-.06-.03,0-.04-.07-.02-.24.02-.2.02-.22-.01-.09-.02.09-.04.22-.04.29,0,.1-.01.12-.04.08-.03-.05-.04-.05-.04,0,0,.03,0,.09-.01.14,0,.04-.01.13-.02.19q-.01.12-.06-.04c-.06-.19-.1-.11-.1.2,0,.17-.01.2-.04.12-.02-.05-.03-.18-.04-.28,0-.29-.06-.26-.11.07-.03.2-.05.25-.05.16,0-.08-.02-.15-.04-.17-.05-.03-.09.28-.09.6,0,.14-.01.27-.03.3-.02.03-.03-.14-.04-.36,0-.23-.03-.47-.05-.53-.03-.09-.03-.07-.01.1.01.14,0,.23-.02.25-.03.02-.04-.01-.02-.09.02-.09.01-.12-.04-.12-.04,0-.07.04-.08.11-.01.08-.02.06-.02-.06,0-.23-.08-.25-.09-.02,0,.1-.02.27-.03.38l-.03.19v-.19c0-.11-.03-.22-.05-.25-.03-.04-.04,0-.02.17.01.14,0,.21-.01.18-.03-.04-.04-.03-.05.04-.01.05-.01-.02,0-.16v-.25s-.03.27-.03.27l-.05.27-.03-.27c-.02-.15-.05-.31-.06-.35-.03-.07-.03-.06-.04.04,0,.06,0,.19,0,.27v.16s-.03-.14-.03-.14l-.03-.14v.14c-.01.11-.02.12-.05.06-.02-.05-.03-.03-.02.09,0,.09.02.18.03.19.04.04.03.17-.01.17-.02,0-.05-.09-.06-.2-.01-.11-.04-.18-.05-.15-.03.05-.07-.16-.08-.37v-.12s-.04.14-.04.14c-.03.09-.03.18,0,.28.02.08.05.25.06.39l.02.25-.05-.19c-.05-.17-.05-.18-.06-.07,0,.07-.03.13-.05.14-.04.01-.05-.02-.03-.13,0-.08.03-.15.05-.15.03,0,.03-.02,0-.05-.02-.03-.05-.11-.06-.18,0-.07-.02,0-.03.18-.01.27-.02.29-.04.16-.02-.14-.03-.14-.03-.04,0,.08-.02.1-.04.06-.03-.04-.04-.04-.05.02-.02.07-.02.07-.02,0,0-.04,0-.1.03-.12.02-.02.02-.1,0-.17l-.03-.14-.02.23-.03-.12c-.02-.07-.02-.02-.01.16.02.25.01.27-.04.2-.04-.04-.05-.12-.04-.18.02-.08.01-.09-.02-.02-.03.07-.04.07-.06-.02-.02-.1,0,.34.03.8l.02.23-.04-.21c-.02-.12-.07-.29-.09-.39l-.05-.18v.3c.02.16.01.32,0,.35-.02.03-.03.02-.03-.05,0-.05-.02-.18-.03-.27l-.04-.18v.16c-.01.12-.02.14-.05.08-.03-.08-.05-.06-.09.12-.01.06-.02.06-.02-.02,0-.05.01-.12.04-.14.04-.04-.02-.44-.06-.44,0,0-.01.21,0,.47,0,.26,0,.46,0,.45,0,0-.03-.09-.05-.18-.03-.16-.04-.15-.02.08.02.26,0,.26-.08-.04-.04-.14-.05-.15-.03-.04.01.07.03.22.04.31.02.16.01.16-.06-.08l-.08-.25.02.23c.02.24-.02.28-.05.06-.04-.23-.09-.31-.07-.1.01.11.03.23.04.27.01.06.01.07-.02.02-.02-.03-.05-.12-.06-.19-.01-.08-.04-.2-.06-.27-.03-.11-.03-.1-.01.08.02.19.06.33.15.6.01.04-.01.01-.06-.07-.05-.08-.11-.27-.15-.43-.04-.15-.07-.26-.08-.23,0,.1.11.65.15.69.02.02.04.07.04.1,0,.14-.16-.21-.2-.45-.04-.21-.05-.25-.08-.18-.03.08.06.51.12.56.04.03.12.2.1.22,0,0-.06-.05-.1-.13-.1-.17-.15-.15-.06.02.11.21.06.19-.06-.03-.11-.2-.13-.17-.05.09.02.05,0,.06-.03.04-.04-.02-.04-.01-.02.03.01.04.04.09.05.13.02.04.01.06-.02.04-.02-.02-.05-.05-.05-.09s-.01-.05-.03-.04c-.02.01-.03-.04-.03-.11,0-.1,0-.12-.05-.09-.04.03-.05.03-.03-.01.01-.03,0-.1-.01-.15q-.03-.09-.06,0c-.01.05,0,.08.02.06.03-.02.03,0,.02.04-.03.07.09.57.13.55.02-.01.03.01.04.17,0,.04.02.08.03.09s.04.06.06.12l.03.1-.06-.09c-.09-.12-.23-.46-.31-.72-.04-.13-.07-.22-.08-.21-.02.02.13.7.18.78.02.04.03.07.02.07s.02.09.08.19c.05.11.09.19.08.19-.04,0-.3-.47-.28-.51.02-.03.01-.03-.02-.02-.04.02-.06-.02-.05-.1,0-.02-.01-.03-.03-.03-.05,0-.05.02.02.16.07.14.04.23-.04.13-.1-.13-.06-.02.09.27.18.34.2.41.08.21-.05-.09-.1-.13-.11-.1-.01.03-.02.03-.04-.02-.02-.04-.01-.06.01-.04.06.04.05.01-.08-.26-.06-.14-.12-.27-.12-.3,0-.04-.01-.04-.04-.01-.03.03-.03.07,0,.13.02.05.03.1.02.13-.02.03,0,.03.02.02.03-.02.04,0,.02.04-.01.04,0,.06.01.04.02-.01.04.01.04.05,0,.04,0,.08,0,.08-.03,0-.21-.34-.21-.4,0-.04-.02-.06-.04-.04-.02.01-.02.06,0,.13.02.06.03.14.02.18-.01.04,0,.11.02.14.03.04.03.03.02-.04-.02-.07-.02-.08.02-.04.02.03.03.09.02.12-.01.03.02.11.06.16s.08.11.08.13-.03,0-.06-.04c-.04-.05-.06-.06-.06-.02,0,.03-.02.04-.05.02-.03-.02-.03-.01-.02.01.01.02.02.07,0,.1-.02.05-.04.05-.1-.03-.05-.06-.05-.04.01.04.32.46.32.46.09.22-.21-.23-.24-.23-.09,0,.06.09.07.12.03.17-.04.05-.03.08.06.16.09.09.1.09.07.02-.06-.12-.05-.16.02-.06.03.05.05.11.04.14-.02.04,0,.06.08.05.06,0,.11.02.12.05.01.05.01.05-.02,0-.02-.03-.05-.04-.07-.03-.02.02,0,.05.02.07.03.03.05.06.05.09,0,.02-.03,0-.07-.07-.04-.06-.08-.1-.09-.09-.01.01-.09-.06-.17-.16-.3-.36-.3-.36-.27-.27.02.04.03.14.04.21.01.13,0,.13-.06.06-.04-.04-.07-.05-.07-.03s.02.05.05.06c.05.02.08.15.03.15-.02,0,0,.06.04.13.1.16.1.21,0,.14-.06-.05-.06-.05-.02.01.03.04.06.06.08.05.03-.02.15.08.26.21l.08.1-.08-.07s-.1-.06-.11-.04c-.02.02-.02,0,0-.01s0-.07-.05-.11c-.08-.07-.11-.03-.04.04.02.02.05.08.06.13.02.07,0,.05-.05-.05-.04-.08-.09-.15-.11-.16-.05-.03-.03.12.03.19.03.03.04.08.02.11-.02.03-.01.04.01.02.03-.02.07.02.1.09.03.06.05.12.04.12s-.03,0-.05,0c-.01,0-.03-.03-.04-.06-.01-.09-.05-.12-.05-.03,0,.1.06.19.12.19.02,0,.07.04.1.1l.06.1-.08-.1c-.05-.06-.07-.07-.06-.03.01.04,0,.07-.02.07s-.04-.01-.04-.03c0-.02-.06-.1-.14-.18-.17-.19-.1-.05.12.25.09.12.18.25.19.28.04.08-.09-.08-.23-.28-.07-.11-.15-.17-.2-.18-.05,0-.08,0-.08.01s.07.09.15.18c.08.09.11.13.07.1-.1-.09-.16-.09-.09,0,.03.04.08.11.11.17.04.09.04.09-.02.02-.03-.04-.09-.11-.12-.15-.03-.04-.05-.09-.03-.13s0-.06-.02-.06c-.08,0-.08.07.01.2.11.15.12.18.03.11-.06-.05-.06-.05-.02.04.03.05.06.08.08.07.02-.01.03,0,.01.04-.02.05-.01.06.02.04.03-.02.04-.01.03.02-.01.03,0,.1.03.16.03.06.04.11.03.13-.01.01,0,.02.05.02.05,0,.06.01.03.03-.03.02-.01.09.09.24.14.21.14.21.01.07-.07-.08-.14-.15-.16-.15s0,.04.03.09c.06.07.06.08,0,.03-.11-.09-.08.01.05.13.06.06.12.13.12.15,0,.05-.4-.4-.41-.47,0-.03-.03-.08-.05-.1-.03-.03-.04-.02-.01.03.03.07.02.07-.03.03-.03-.03-.05-.07-.04-.1.01-.03-.01-.07-.05-.1-.06-.05-.06-.05-.02,0,.03.03.04.09.03.14-.01.09.13.32.17.26.02-.02.05,0,.08.04.05.08.05.08,0,.04-.09-.07-.12,0-.04.08q.07.08-.01.01s-.09-.06-.11-.04-.02,0,0-.03c.01-.04-.03-.1-.1-.17l-.12-.12.07.12c.04.06.09.13.11.15.02.02.03.03,0,.03-.05,0,.08.24.2.37.06.06.08.1.05.08-.04-.02-.05-.01-.03.06l.02.09-.08-.09c-.06-.07-.07-.1-.03-.13.04-.03.04-.03,0-.02-.03.01-.05.05-.05.11.01.09.01.09-.08.02-.07-.06-.08-.06-.03,0,.03.04.04.07.03.07s.03.06.09.13.12.14.12.16c0,.02.02.02.03.01s.08.03.13.09l.09.11-.1-.08c-.05-.05-.12-.08-.14-.07-.02,0-.06-.02-.09-.07-.02-.05-.04-.07-.05-.04,0,.03.06.11.14.19.08.08.11.13.08.12-.06-.02-.06-.01-.03.05.03.05.03.08,0,.1-.03.02-.03.01-.01-.02.02-.03.02-.04-.01-.02-.03.02-.02.06.05.15.16.19.11.21-.06.03-.09-.1-.15-.14-.13-.09.01.04.13.18.26.3.2.2.23.23.18.29-.03.04-.03.05,0,.04.02-.01.05,0,.07.03.01.03.04.05.06.04.02-.01.06,0,.09.05.05.06.05.06-.02.01-.04-.03-.07-.04-.07-.01,0,.02.03.06.07.09.04.03.09.08.1.11.02.04,0,.03-.05-.02-.05-.04-.08-.06-.08-.05s-.05-.02-.1-.07c-.11-.1-.18-.1-.09,0,.03.03.07.05.09.03.02-.01.03,0,.01.02-.02.02,0,.09.05.15.04.06.12.19.17.29.08.14.08.18.03.16-.04-.02-.03.02.04.12.15.2.13.25-.03.08-.08-.08.02.09.22.37.33.47.46.7.33.6-.03-.02-.11-.07-.2-.1-.17-.07-.17-.06.11.24.17.18.24.3.11.2-.04-.03-.1-.07-.13-.09-.04-.02-.03,0,0,.03.06.05.18.2.28.37.02.03-.01.02-.08-.02-.11-.07-.11-.07-.08,0,.02.04.16.29.33.56.17.27.34.56.39.65l.09.16-.16-.18-.16-.18.16.3c.09.17.15.31.14.33-.01.01.04.16.13.32.11.22.22.56.42,1.37.26,1.05.27,1.08.27,1.56,0,.27-.02.58-.05.69-.04.2-.36.94-.4.94-.01,0-.09-.52-.17-1.16-.1-.8-.18-1.25-.24-1.46-.05-.17-.11-.38-.12-.47-.04-.28-.1-.54-.19-.85-.05-.16-.11-.41-.13-.56-.02-.15-.09-.37-.14-.49-.05-.12-.13-.34-.18-.47-.1-.32-.2-.51-.33-.65-.06-.06-.15-.19-.2-.28-.22-.39-.42-.67-.55-.79-.08-.07-.28-.25-.45-.4s-.39-.33-.48-.4c-.42-.3-1.37-.67-2.21-.85-.17-.04-.42-.12-.56-.19-.49-.24-1.38-1.05-1.82-1.64-.2-.27-.6-.9-.6-.93,0,0,.04,0,.08,0,.13.03.06-.07-.19-.26-.12-.1-.29-.24-.38-.32l-.16-.14h.12s.12,0,.12,0l-.14-.07-.14-.07h.12c.11,0,.12-.01.02-.04-.05-.02-.2-.08-.32-.13l-.22-.1.12-.26c.18-.4.22-.61.17-.87-.02-.12-.05-.25-.07-.28s-.03-.11-.04-.18-.04-.2-.07-.3c-.04-.14-.04-.21,0-.28.02-.05.03-.1.02-.09-.08.01-.12-.01-.16-.11-.04-.09-.03-.12.06-.24.06-.08.14-.2.18-.26l.07-.12-.13.12c-.07.06-.17.16-.22.2s-.1.09-.13.09.08-.13.23-.28c.15-.15.26-.29.25-.31-.01-.02,0-.02.03-.01.03.01.09-.02.13-.07l.08-.09-.09.07c-.11.09-.12.02,0-.07.04-.04.08-.06.08-.04,0,.06.27-.22.4-.41.11-.17.11-.16-.11.06-.21.22-.45.4-.45.35,0-.01.07-.09.15-.17l.15-.14-.17.13c-.33.25-.36.27-.36.24,0-.02-.06.02-.13.09-.18.17-.4.33-.43.31-.01-.01-.05.02-.09.06-.04.04-.09.08-.11.08-.02,0,0-.03.05-.07s.09-.1.1-.13c0-.04.04-.1.08-.15.04-.04.08-.11.08-.14s.04-.09.07-.12c.03-.03.04-.03.02,0-.06.07-.05.12.02.07.04-.03.06-.03.06,0,0,.02-.07.1-.16.18-.18.16-.13.19.06.04.28-.23.57-.54.53-.56-.02-.02,0-.08.06-.16.05-.07.12-.16.14-.2.07-.12,0-.07-.09.08-.06.08-.18.23-.28.34-.22.24-.23.29-.02.08.09-.08.16-.13.16-.11s-.07.1-.15.18c-.1.1-.16.13-.2.11-.05-.03-.04-.06.05-.17.06-.08.1-.16.08-.18-.01-.02,0-.05.02-.06.03-.02.04-.01.02.02-.02.03,0,.04.04.02.04-.02.05-.03.02-.04-.03-.01-.02-.05.04-.14.11-.14.19-.3.17-.3-.01,0-.09.09-.17.2s-.21.27-.29.34-.13.15-.12.18c.01.02,0,.03,0,.01-.02-.02-.07,0-.11.04-.08.07-.08.07-.02,0,.03-.04.14-.18.25-.3.1-.12.16-.21.12-.2-.07.03-.52.48-.68.69-.05.06-.1.1-.13.1-.03,0-.01-.03.03-.06.04-.03.06-.06.04-.06s.09-.13.24-.29c.37-.4.54-.61.45-.57-.04.01,0-.05.09-.14s.16-.19.16-.22c0-.04-.05,0-.12.08-.09.11-.13.13-.16.09-.02-.04-.03-.03-.01.03.02.06,0,.11-.08.17-.05.05-.1.11-.1.13s-.07.11-.15.2-.19.21-.23.28l-.09.11.06-.12c.03-.07.11-.19.19-.28.37-.46.4-.53.12-.26-.1.1-.19.17-.2.16,0,0,.06-.09.14-.19.16-.18.21-.28.09-.18-.06.05-.06.04-.05,0,.01-.03.06-.06.1-.06.12,0,.2-.09.2-.2,0-.06.06-.16.14-.25.07-.08.14-.16.14-.18s.08-.11.18-.21c.17-.19.25-.34.1-.2-.04.04-.08.06-.08.05s-.09.06-.2.17c-.11.11-.21.18-.24.17-.03-.02-.03-.01-.02.01.01.02-.02.08-.08.13-.06.05-.08.06-.05.03s.04-.07.03-.07,0-.04.04-.1c.03-.05.08-.09.1-.07.02.01.03,0,.01-.02-.01-.02.03-.1.1-.17.12-.12.12-.12.03-.1-.07.02-.06,0-.04-.03,0,.02-.06.06-.06.07.01.03,0,.05-.01.05s-.11.09-.19.2c-.15.19-.23.22-.09.03.04-.05.15-.22.26-.37l.19-.27-.18.19c-.1.11-.18.18-.18.15s.02-.06.05-.09c.04-.04.04-.05,0-.05-.04,0-.05.02-.06.14,0,.06-.22.33-.25.31-.01-.01,0-.05.05-.09.04-.04.07-.11.08-.15s.03-.12.06-.16c.03-.06.03-.09,0-.11-.02-.02-.03-.01-.02.01.01.02-.02.08-.07.14-.06.06-.09.13-.07.17.02.06.02.06-.02.01-.02-.03-.04-.04-.04-.02,0,.02-.05.1-.12.17s-.12.11-.12.09.02-.06.05-.08.03-.05.01-.05,0-.02.03-.05c.07-.05.32-.53.29-.56,0,0-.05.05-.09.13s-.08.15-.1.16c-.05.05-.19.26-.21.33-.01.04-.06.12-.1.17-.06.07-.05.04.03-.12.06-.12.11-.23.11-.26,0-.02.03-.08.07-.12s.07-.1.08-.13c0-.03.03-.08.06-.11.03-.03.05-.07.05-.09,0-.06-.08,0-.14.13-.03.06-.08.11-.1.09-.02-.01-.03,0-.02.03.01.03-.03.1-.08.17-.1.11-.1.11-.07.02.05-.15.13-.31.22-.4l.08-.08-.09.03c-.07.02-.08.02-.06-.03.07-.12-.02,0-.19.25-.1.14-.18.28-.18.3s-.03.05-.06.07c-.03.02-.06.05-.06.06,0,.07,0,.1-.05.12-.04.01-.06,0-.06-.04s.02-.05.05-.03c.03.02.04,0,.02-.04-.01-.04,0-.06.01-.06s.04-.04.04-.08.03-.08.06-.08.06-.02.06-.04.01-.07.02-.11c.02-.05,0-.05-.04.02-.04.05-.08.08-.1.07-.02-.01-.05.04-.08.1-.03.09-.06.11-.09.08-.03-.03-.02-.07.04-.12.04-.04.08-.1.08-.13,0-.03-.04,0-.08.05l-.08.1.08-.18c.04-.1.09-.21.1-.25.01-.04.04-.06.07-.04.03.02.03.01.02-.02-.02-.03.02-.12.07-.22.05-.1.08-.17.06-.17s-.07.09-.12.19c-.09.2-.15.26-.12.11.02-.08.01-.08-.02,0-.02.05-.06.12-.09.15-.04.05-.04.05.01.03.03-.02.02,0-.03.05s-.09.11-.09.15,0,.05-.02.04c-.01-.01,0-.12.04-.24.04-.12.06-.23.05-.24-.01-.01-.04.07-.07.18-.03.11-.06.19-.08.18-.02,0-.02.02,0,.06.02.08-.06.31-.1.31-.02,0-.02-.04-.01-.1.01-.05.03-.1.05-.1s.03-.03.03-.07c0-.06-.07.01-.22.25-.03.04.01-.06.08-.22.07-.16.12-.31.11-.34-.01-.03-.05,0-.09.1-.04.08-.09.16-.11.18s0-.08.06-.2c.06-.13.12-.21.13-.19.02.03.03.03.03,0,0-.12-.11-.09-.19.06-.03.05-.07.09-.1.09s-.06.02-.06.04.02.03.04.02c.02-.01.03,0,.01.04-.02.06-.03.05-.08-.05l-.05-.12.02.13c0,.07,0,.13-.02.13s-.03.02-.01.04,0,.04-.02.04-.04.04-.04.08-.02.08-.04.08c-.02,0-.02-.05,0-.13.08-.27.07-.27-.04-.05-.07.13-.11.19-.1.15.01-.05,0-.08-.02-.06-.02.01-.03.07-.02.13,0,.06,0,.1-.02.09-.04-.03-.04-.24,0-.27.02-.01.04-.05.04-.09,0-.04-.02-.02-.06.05-.03.06-.06.2-.06.29,0,.19-.04.15-.09-.07-.02-.09-.01-.12.02-.1.03.02.03.01.02-.02-.06-.09-.14,0-.17.2-.02.17-.03.18-.06.1-.03-.1-.03-.09-.05.07,0,.05-.02.1-.04.12-.02.02-.02,0,0-.04.01-.04,0-.08-.01-.09-.03-.02-.06.12-.04.22,0,.02-.02.02-.05,0-.06-.02-.07,0-.06.22,0,.12,0,.13-.03.04-.03-.08-.04-.07-.06.11-.02.11-.04.19-.06.17-.06-.09-.26.5-.3.88-.04.44-.1.54-.07.13.01-.2,0-.36,0-.34-.04.04-.08.85-.04.85.02,0,.03.03.03.06s-.01.06-.03.06c-.04,0,.01.68.06.88.02.08.06.31.08.49.07.58-.03.71-.7.93-.45.15-.74.3-1.1.57-.4.3-.55.45-.84.83-.11.14-.27.33-.36.43-.16.17-.43.6-.66,1.03-.19.36-.34.74-.49,1.25-.08.26-.21.65-.3.87-.08.22-.15.45-.15.52,0,.27.22.54.51.62.13.04.18.03.32-.04l.16-.08.17.15c.21.18.5.35.86.48.23.08.31.09.71.08.6-.02.58-.01.58-.14,0-.1,0-.1.22-.09,1.29.08,1.63.19,1.91.58.27.37.33.97.13,1.35-.09.18-.16.24-.53.49-.69.46-.69.47-.74,1.16-.01.21-.05.5-.08.64-.12.52-.05.76.35,1.22.15.18.34.4.42.5.08.11.21.21.31.25.48.2.58.26.83.43.23.17.44.27.58.3.02,0,.06.02.09.04.09.06.05,0-.17-.22-.12-.12-.21-.23-.2-.24.01-.01.15,0,.3.04.15.04.28.06.29.05,0,0-.11-.14-.26-.29l-.27-.28.14-.03c.08-.01.14-.05.14-.08,0-.06-.32-.33-.38-.33-.09,0-.08-.08.02-.13l.1-.05-.15-.14c-.08-.08-.26-.22-.4-.31-.22-.15-.29-.24-.21-.27.02,0,.07-.1.12-.2.06-.13.1-.18.13-.16.03.02.1.03.16.02.08,0,.12.01.15.09.02.06.07.1.11.1.04,0,.1.04.13.08.04.07.1.08.33.09.15,0,.28.02.29.03s.09.01.18,0c.14-.03.16-.03.21.04.12.17.65.75.84.93.27.25.64.63.74.75.08.09.08.16.1.91.02.65.04.87.1,1.12.12.45.3.81.6,1.19.14.18.26.35.25.37-.04.11-.31.12-1.82.09-1.73-.04-2.06-.02-2.21.15-.05.05-.11.1-.14.1-.11,0-.65.4-.65.47,0,.01.08.02.17,0,.14-.02.18,0,.2.04h0c.02.06.37.06,4.04.06,4.34,0,4.21,0,4.66-.21.35-.16.47-.27.67-.58.01-.02.08-.01.17.02.08.03.19.06.24.06.07,0,.12.05.2.17.14.22.29.4.29.34,0-.02.06,0,.12.04.1.07.12.08.1.02-.03-.08.02-.08.13-.03.05.03.08.03.08,0,0-.04.12-.03.23.03.11.06.13.05.08-.03-.06-.11-.05-.15.01-.06.04.05.11.07.25.08.16,0,.19,0,.16-.05-.03-.04-.01-.05.1-.05.08,0,.15.02.16.04s.04.04.07.04.01-.04-.03-.08c-.13-.14-.03-.13.35.06.21.1.38.18.39.18s0-.05-.02-.1c-.05-.13-.04-.14.1-.09l.11.04-.1-.08-.1-.08h.23c.17,0,.22-.01.2-.05-.02-.03.01-.01.06.03l.09.08-.05-.09-.05-.09.19.02c.1.01.32.03.48.04l.29.02-.23-.07c-.13-.04-.29-.09-.37-.11-.13-.04-.12-.04.09-.03.12,0,.25,0,.27-.02.03-.02.02-.03-.04-.03-.05,0-.13-.04-.19-.1l-.11-.1.12.02.12.02-.11-.04c-.06-.02-.1-.06-.09-.08s0-.04-.04-.04-.05-.02-.04-.04c.01-.02.06-.02.12,0,.05.02.12.04.14.04.03,0,0-.02-.05-.04-.05-.02-.08-.05-.07-.06.01-.01.23-.02.48-.03.32,0,.43-.02.35-.04-.06-.02-.19-.03-.27-.03-.27,0-.38,0-.35-.04.01-.02.06-.04.11-.03.05,0,.23-.02.42-.04.18-.02.43-.05.55-.05h.22s-.21-.04-.21-.04c-.11-.02-.25-.06-.31-.09l-.1-.06h.18c.1,0,.25-.02.33-.04.15-.03.15-.03.03-.04-.07,0-.13-.02-.13-.04,0-.04.13-.07.37-.09.11,0,.1-.02-.07-.07-.18-.06-.19-.06-.08-.08.06-.01.18-.03.27-.03h.16s-.14-.04-.14-.04l-.14-.03h.16s.16-.02.16-.02l-.15-.04c-.19-.05-.19-.11,0-.11.17,0,.94-.11.97-.14.01-.01-.11-.02-.27-.02h-.29s.21-.05.21-.05c.12-.03.27-.07.33-.11s.17-.07.23-.09c.06-.02.1-.04.07-.05s-.12,0-.22.04c-.09.03-.24.07-.32.08l-.15.02.21-.11c.12-.06.32-.14.45-.19.3-.11.13-.13-.22-.01-.14.04-.26.08-.27.08-.05,0,.24-.14.47-.22.23-.08.24-.09.12-.09-.07,0-.2.02-.29.05s-.13.04-.11.01.19-.09.37-.15c.32-.11.28-.13-.12-.05-.24.04-.03-.05.24-.11.23-.05.23-.05.09-.06h-.16s.23-.1.23-.1c.13-.05.26-.1.29-.1.04,0,.04,0,.01-.02-.03-.01-.15,0-.27.04s-.23.06-.24.05c-.03-.03.34-.14.51-.15.09,0,.03-.02-.16-.03h-.31s.19-.05.19-.05c.11-.02.26-.05.33-.07.11-.03.1-.03-.08-.01-.12.01-.26.03-.31.03-.09.01-.09.01.02-.04.06-.03.19-.07.28-.08.22-.04.21-.09-.02-.07h-.18s.23-.05.23-.05c.12-.03.22-.07.21-.08-.03-.03-.74.11-.78.15-.02.02-.06.03-.1.03-.12,0,.14-.11.44-.17.17-.04.3-.08.3-.09s-.06,0-.13,0c-.07.01-.21.03-.3.04l-.18.02.14-.07c.07-.04.19-.09.26-.12.22-.09.1-.1-.15,0-.13.05-.25.08-.25.07s.07-.05.17-.09c.19-.07.59-.27.65-.34.06-.06-.07-.04-.23.03-.08.03-.15.05-.16.04s.06-.05.16-.09c.1-.04.2-.09.22-.12.07-.08,0-.06-.29.08l-.27.13.15-.13c.08-.07.19-.13.23-.13.05,0,.06-.01.03-.03-.03-.02.03-.07.19-.16.13-.07.28-.16.32-.2.08-.07.08-.07-.05-.01-.07.03-.19.07-.25.1-.07.03-.1.06-.08.09.02.03.01.03-.01.02-.02-.01-.07,0-.11.03-.1.08-.19.08-.12,0,.03-.03.06-.05.08-.04s.03,0,.03-.02c0-.05.18-.16.27-.18.07-.01.27-.13.27-.16,0,0-.05.01-.11.04-.2.1-.22.06-.04-.1.19-.17.18-.21-.02-.06-.07.05-.15.11-.18.12-.05.03-.05.03,0-.04.05-.07.05-.07-.03-.03-.05.03-.1.06-.11.08-.01.02-.06.06-.11.08-.08.04-.05,0,.28-.29.05-.05.08-.06.06-.03-.03.05-.02.05.03,0,.03-.03.05-.08.04-.11-.02-.05-.04-.04-.12.02-.12.09-.31.18-.26.13.16-.15.44-.35.47-.34.02,0,.1-.05.17-.12.16-.16.08-.19-.08-.03-.06.06-.11.08-.11.06,0-.05-.11-.02-.2.06-.04.03-.07.04-.09.02-.01-.02.01-.05.05-.06s.08-.04.08-.06.03-.04.06-.04.06-.03.06-.07c0-.05,0-.06.03-.02.03.04.06.03.15-.05q.11-.1.02-.08c-.05.01-.13.03-.16.03-.04,0-.14.06-.23.12-.09.06-.17.1-.18.09-.02-.02.3-.24.35-.24.09,0,.64-.45.55-.45-.02,0-.15.09-.29.2-.14.11-.24.17-.21.14.03-.04.04-.08.03-.1-.01-.02.02-.05.06-.06s.07-.03.06-.05c-.04-.04.05-.14.09-.11.02.01.03,0,.03-.04,0-.1-.1-.1-.17,0-.04.05-.1.1-.15.11-.06.02-.05,0,.05-.1.07-.07.18-.16.24-.2.06-.04.14-.11.17-.14.03-.03.12-.09.19-.13.07-.03.13-.08.15-.1.01-.02-.03-.01-.09.02-.06.03-.13.06-.16.06-.03,0-.05.02-.05.04s-.02.03-.04.02c-.02-.01-.06,0-.09.05-.07.1-.42.31-.56.34-.1.02-.08,0,.06-.07.24-.13.43-.27.41-.31-.01-.02-.08,0-.16.05l-.14.08.08-.09s.13-.09.18-.1c.11-.01.26-.1.26-.14,0-.05-.06-.03-.14.05-.04.04-.08.07-.09.06s.03-.06.09-.12l.11-.1-.19.09c-.11.05-.24.11-.29.12-.09.02-.08.02.02-.04.06-.04.13-.07.14-.07.01,0,.1-.05.19-.1.1-.05.22-.09.27-.1s.1-.02.1-.05c0-.03,0-.03,0,0-.01.02-.05.04-.08.04-.05,0-.05-.01-.01-.06.04-.05.04-.05-.05-.02-.06.02-.19.08-.3.14-.11.05-.2.09-.2.09s.09-.08.2-.16c.11-.08.25-.2.32-.26l.11-.12-.11.04c-.06.02-.14.08-.18.12-.04.05-.07.06-.07.03,0-.04-.03-.03-.1.01-.16.11-.15.07.06-.13.11-.11.2-.2.2-.21,0-.05-.07-.01-.17.08-.05.05-.14.11-.18.12s-.11.03-.13.05c-.05.03.05-.06.24-.23.07-.06.2-.19.27-.28.12-.14.13-.15.03-.09-.06.04-.11.09-.11.11,0,.02-.02.02-.04,0-.02-.01-.09.02-.16.08-.06.06-.11.09-.11.08s-.04,0-.09.05-.11.09-.15.11c-.08.04-.06.02.16-.17.1-.09.17-.17.16-.18-.01-.01,0-.02.03,0,.03.01.1-.02.16-.07.05-.05.07-.07.04-.05-.05.03-.05.02-.03-.03.02-.06.01-.06-.05-.03-.04.02-.08.06-.08.08s-.02.04-.04.04-.13.08-.24.18c-.11.1-.21.18-.24.18s.03-.05.12-.12c.09-.06.16-.14.15-.17,0-.03.01-.04.04-.04s.05,0,.05-.03c0-.07-.08-.08-.16-.04-.05.02-.01-.02.08-.1.09-.08.16-.16.15-.18-.02-.04.21-.21.24-.18.01.01-.04.06-.11.1-.11.07-.12.08-.03.06.09-.02.09-.02.02.03-.14.11-.21.19-.19.22.03.04.44-.28.44-.35,0-.04-.01-.04-.07,0-.1.09-.15.08-.07,0,.04-.04.05-.08.04-.1-.04-.04.11-.19.16-.17.02,0,.04-.03.05-.08v-.1s-.1.11-.1.11c-.12.12-.54.49-.62.53-.03.02-.04,0-.03-.03.01-.03.04-.06.06-.06.05,0,.7-.63.68-.66-.01-.01.04-.08.11-.16l.13-.14-.13.09c-.07.05-.14.1-.15.12-.03.05-.49.36-.49.33,0-.01-.06.02-.14.08-.08.06-.15.1-.16.09-.01-.01.05-.07.12-.13.08-.06.18-.14.22-.19.04-.04.11-.08.14-.08.03,0,.06-.01.06-.03,0-.05.11-.14.15-.13.03,0,.09-.03.14-.09s.07-.08.03-.06c-.04.03-.1.04-.13.03-.04-.01-.05,0-.04.02.01.02,0,.04-.03.03-.03,0-.13.05-.23.13-.1.08-.19.15-.21.15s.03-.05.1-.11c.22-.17.7-.64.78-.77l.08-.12-.09.08c-.05.04-.24.2-.41.35-.33.29-.48.4-.36.26.05-.05.06-.09.03-.1-.02,0,0-.04.07-.07.14-.07.52-.43.52-.48,0-.02-.06.03-.14.11-.07.08-.13.13-.13.1,0-.03-.03-.02-.09.03-.16.15-.15.09.02-.08.09-.09.18-.16.19-.15.02,0,.03,0,.02-.03,0-.03,0-.05.03-.05s.06-.02.08-.04c.02-.02.01-.02-.02,0-.08.04-.06-.02.04-.13.05-.06.02-.04-.07.04-.17.15-.39.31-.43.31-.01,0-.08.04-.15.09-.24.18-.24.15,0-.09.41-.43.72-.77.71-.8,0-.02-.07.04-.16.14s-.17.17-.18.17c-.02,0-.12.07-.22.16-.34.27-.28.17.11-.2.21-.2.4-.39.42-.44q.04-.08-.03,0s-.21.18-.37.31c-.17.13-.3.24-.3.26s-.03.04-.06.05c-.09.04.13-.24.27-.33.17-.12.33-.27.43-.4.05-.07,0-.04-.11.08-.11.11-.27.24-.37.29s-.14.06-.1.03c.11-.09.04-.12-.08-.03-.17.12-.24.14-.11.04.39-.31.59-.49.6-.54,0-.03.05-.1.11-.14s.1-.1.1-.11-.04.01-.1.06-.1.08-.1.06c0-.02-.01-.02-.03,0s-.13.1-.26.17c-.13.08-.21.1-.18.07.03-.04.08-.07.1-.07s.07-.03.1-.06c.05-.06.04-.06-.03-.04-.12.04-.11,0,.02-.13.06-.06.19-.2.3-.31.16-.16.17-.19.07-.12-.07.05-.14.12-.16.15-.02.04-.04.06-.04.04,0-.01-.06.04-.14.11s-.15.12-.16.11.02-.06.07-.1c.07-.05.08-.08.03-.08-.05,0-.04-.01,0-.04.04-.02.08-.03.09-.03.03.02.41-.36.46-.46.04-.08.04-.08-.04,0-.07.07-.08.07-.08,0,0-.04.01-.06.03-.06s.05-.04.08-.09c.03-.05-.03,0-.13.1s-.22.21-.27.25c-.05.03-.08.08-.07.09.01.02-.03.06-.1.09-.1.05-.11.05-.07,0,.03-.03.07-.06.1-.06s.05-.01.04-.03c-.01-.02.08-.13.2-.24.18-.18.4-.51.34-.51,0,0-.07.03-.12.07-.06.04-.22.15-.36.24-.14.09-.25.19-.24.21.01.02,0,.02-.02,0-.03-.02-.07,0-.1.02-.03.03-.06.04-.06.02s.07-.07.15-.12c.21-.14.51-.41.43-.4-.04,0-.09.03-.12.05-.12.1-.38.25-.38.22,0-.02.1-.1.21-.18.23-.17.29-.25.2-.31-.03-.02-.05-.06-.04-.1.03-.08-.17.07-.38.29-.1.1-.19.18-.2.18s.11-.14.29-.31c.17-.17.34-.31.36-.31s.07-.03.1-.06c.08-.1-.02-.07-.18.06-.08.06-.17.12-.19.12s-.12.07-.21.15c-.1.08-.16.11-.13.08.03-.04.19-.17.35-.29.36-.27.5-.4.56-.5.02-.04-.03,0-.11.07-.09.09-.16.13-.17.11-.02-.03-.1.02-.21.12-.24.2-.24.17,0-.06.1-.1.17-.19.15-.21s-.04,0-.05.02c0,.03-.04.05-.06.05s-.03-.03-.02-.06c.02-.05.01-.05-.03-.02-.03.02-.06.03-.08.02-.01-.01-.07.05-.12.13-.05.09-.12.17-.15.19-.03.02-.02-.01.02-.07.04-.05.1-.16.15-.23l.08-.14-.12.12-.12.12.1-.19c.06-.11.12-.22.14-.24.06-.08.09-.02.03.06-.05.06-.05.06.02.01.04-.03.06-.07.06-.1,0-.02.05-.11.14-.19.08-.08.14-.15.13-.15s-.15.12-.3.26c-.25.24-.26.2-.01-.08.05-.06.1-.13.1-.14s.03-.06.06-.09c.03-.03.05-.07.03-.08s-.07.04-.13.1c-.05.07-.07.1-.04.09.04-.02.05-.02.03.01-.02.03-.04.04-.06.02-.02-.01-.06.02-.1.08-.04.05-.09.1-.12.1-.04,0-.02-.04.06-.13.06-.07.13-.17.14-.21.01-.04.04-.08.06-.08s.04-.03.04-.07.04-.11.08-.16.07-.09.04-.09-.1.07-.16.17c-.06.09-.21.25-.32.36-.12.12-.16.14-.09.06.06-.07.13-.15.16-.18.07-.07.25-.32.25-.35,0-.01-.11.08-.23.22-.13.13-.23.23-.23.21s.04-.08.1-.13c.24-.24.44-.53.27-.39-.03.03-.06.04-.06.02s-.03,0-.06.02c-.04.03-.06.04-.06,0,0-.02.02-.04.04-.04s.03-.03.02-.06c-.01-.03,0-.07.02-.08.02-.01.04,0,.04.02s.03.04.06.04.06-.02.06-.04-.02-.04-.04-.04c-.06,0-.04-.1.04-.17.04-.04.08-.1.09-.15.02-.07.02-.07-.05-.02-.04.03-.09.06-.11.06s-.05.02-.05.05c0,.03-.01.03-.04,0-.03-.04-.02-.08.04-.12.04-.03.06-.07.05-.09-.01-.01-.14.09-.27.24l-.25.26.18-.23c.27-.35.43-.5.49-.46.03.02.11.03.19.02.09,0,.22.03.37.11l.23.12-.17-.18-.17-.18.22.17c.12.09.21.18.21.19,0,.01.03.06.09.12l.1.1-.03-.1c-.02-.08,0-.06.09.06.06.09.16.24.22.34.12.21.2.28.12.12-.03-.06-.06-.16-.07-.22l-.02-.12.05.12c.03.06.06.14.06.16,0,.03.02.06.04.07s.02-.03.01-.09c-.01-.06,0-.09,0-.08s.03.08.03.16.04.17.08.23.07.07.06.04c-.06-.16-.06-.24,0-.11.09.2.18.23.11.04-.03-.08-.06-.2-.07-.28-.01-.09,0-.06.04.07.04.12.08.19.1.18.02-.02.02-.01.01.01-.01.02.03.14.09.25.14.26.15.23.02-.11-.05-.14-.1-.27-.1-.28,0-.04.2.4.26.6.05.14.07.17.08.11,0-.05,0-.12-.03-.17-.02-.05-.03-.09-.02-.11s.02,0,.02.02.01.04.03.04c.09-.01.13.03.24.3.07.16.13.29.14.28s-.02-.12-.06-.24c-.07-.2-.07-.22,0-.14.04.05.13.24.2.42.07.18.14.33.14.33.02,0-.04-.25-.13-.56-.14-.46-.08-.4.07.07.07.23.14.41.16.41s.01-.05,0-.12c-.05-.17,0-.14.08.05.07.15.07.12.01-.09-.01-.05,0-.07.01-.06.02.01.06.1.09.2.03.1.06.19.08.2.05.03.04,0-.03-.18-.03-.09-.05-.17-.04-.18.02-.02.16.35.2.54.01.06.03.1.04.1s-.03-.21-.08-.44c-.05-.23-.09-.43-.08-.44.01-.01.1.27.21.72.07.28.11.3.06.03-.05-.24,0-.18.09.11.08.28.1.27.06-.01-.04-.22-.02-.33.02-.13.07.31.08.35.17.34.06,0,.09.03.11.11.01.06.04.12.06.13.02.01-.02-.12-.08-.3-.06-.18-.11-.37-.11-.42,0-.07.02-.04.05.08.03.1.07.21.09.25.02.04.07.16.11.27.09.24.11.22.04-.03-.09-.28-.07-.3.04-.04.09.21.22.43.15.24-.02-.05-.01-.07.02-.05.03.02.04,0,.02-.04-.01-.04.03,0,.08.1.12.18.16.2.1.03-.02-.06-.03-.12-.02-.13.03-.03.06,0,.08.1.02.12.19.48.21.46,0,0,0-.05-.02-.09s-.05-.15-.06-.23-.04-.2-.06-.26c-.05-.13-.05-.18,0-.18.02,0,.04.01.03.03,0,.02,0,.09.03.17l.03.14.03-.12q.03-.12.02.02c0,.07-.02.15-.03.16-.04.03.08.31.12.29.02-.01,0-.08-.02-.15-.04-.08-.04-.14-.02-.16.05-.03.05-.14-.01-.26-.04-.07-.04-.1,0-.1.03,0,.05.02.05.04s.02.13.05.24c.05.23.13.34.1.14-.02-.13-.02-.13.03-.03.03.06.06.11.08.11s0-.07-.03-.15c-.04-.08-.07-.22-.08-.3v-.16s.02.16.02.16c.03.16.17.46.23.5.02.01,0-.09-.06-.22-.05-.13-.09-.25-.08-.26.01-.01.03.02.05.07.04.13.36.81.38.81.02,0-.14-.39-.21-.52-.02-.04-.03-.08-.02-.09.01-.01.05.04.09.12s.09.14.11.15c.02,0,.04.03.03.06,0,.03,0,.04.01.03.01-.01.06.03.11.09l.09.1-.1-.23c-.06-.13-.14-.29-.18-.36-.04-.07-.07-.14-.06-.15.02-.02.4.69.39.74,0,.02.03.08.07.14l.08.1-.06-.11c-.09-.14-.08-.19.01-.08.08.1.14.05.08-.07-.02-.04-.04-.09-.03-.11,0-.02,0-.03-.03-.03s-.03.04-.03.08c0,.08,0,.08-.05,0-.05-.07-.05-.08,0-.12.06-.04.06-.06,0-.17-.09-.17-.05-.16.07.03.06.08.09.18.08.21-.01.03,0,.06.01.06.04,0,.27.43.25.48,0,.02,0,.03.03.03s.05.04.06.08c.01.04.03.07.04.06s-.06-.18-.16-.38c-.1-.2-.17-.37-.16-.38s-.02-.1-.08-.19-.1-.18-.1-.2c0-.03.24.31.33.48.11.19.52.72.52.68,0-.01-.06-.1-.14-.19s-.18-.26-.24-.36c-.05-.11-.15-.27-.21-.37-.06-.09-.11-.18-.09-.19.01-.01.1.1.2.26.13.19.19.26.22.23.02-.03.03-.02.02.05,0,.06,0,.09.04.09.03,0,.04.01.03.04-.01.03.08.14.2.26.24.23.24.22,0-.14-.16-.24-.31-.49-.28-.49,0,0,.1.11.2.24.1.13.18.22.18.18s-.02-.08-.05-.1-.03-.05-.02-.05,0-.06-.04-.13c-.04-.07-.05-.11-.04-.1.02.02.05,0,.08-.03.05-.05.05-.07,0-.15-.04-.05-.08-.09-.11-.07-.02.02-.03,0-.01-.02.02-.03,0-.08-.02-.11-.03-.04-.03-.05,0-.04.02.01.17.2.32.41.32.44.54.7.56.67.01-.01-.05-.12-.14-.24-.29-.4-.4-.55-.47-.67-.07-.12-.07-.12,0-.02.04.05.12.15.17.21.06.06.14.18.2.26.05.08.11.13.13.12.02-.02.02,0,.02.03,0,.04.01.05.05.05.03,0,.05,0,.03.01s0,.05.02.08c.04.04.06.04.1-.01.04-.06.05-.05.02.01-.02.05-.01.07.02.05.03-.02.08.03.13.12.11.19.08.11-.09-.28-.08-.17-.16-.31-.18-.31s-.04-.01-.04-.03v-.07s.03-.01.08.03c.04.04.08.05.08.03s-.03-.06-.06-.09c-.03-.03-.1-.1-.14-.17-.07-.1-.07-.11-.01-.06.09.07.37.45.37.5,0,.02.03.06.07.09.04.03.08.08.1.12.01.04.04.06.06.05.04-.02.1.13.09.19,0,.02,0,.03.02.01s.06,0,.09.02c.06.04.06.04,0-.03-.03-.04-.1-.15-.15-.24-.05-.09-.1-.16-.12-.15-.01,0-.03,0-.03-.03-.01-.13-.04-.19-.13-.29-.19-.21-.24-.28-.21-.28.02,0,.09.08.16.18.07.1.15.17.17.17s.03-.02.01-.04c-.02-.03-.01-.03.02-.02.08.05.05-.02-.08-.19-.15-.18-.32-.45-.28-.45.01,0,.07.07.12.17.06.09.15.21.21.26s.11.11.11.14.07.11.15.19c.08.08.16.16.17.19.01.03.03.05.04.04.02-.02-.13-.23-.52-.73-.11-.13-.18-.24-.17-.24.03,0,.25.24.25.28,0,.02.02.03.04.01.03-.02.09.04.1.11,0,.02,0,.04.01.06,0,.02.03,0,.05-.02.04-.04.02-.07-.07-.16-.06-.06-.1-.13-.09-.14s.09.06.16.15c.14.17.19.27.09.19-.04-.03-.06-.03-.08,0-.03.05,0,.1.07.1.02,0,.04.02.04.05,0,.03.02.06.05.07.03.01.05.04.04.05-.01.02.01.05.05.08.06.05.06.05.01-.02-.07-.09-.02-.09.09,0q.08.07,0-.02s-.06-.09-.04-.09.08.04.13.09l.1.09-.07-.09c-.1-.11-.04-.11.09,0,.05.05,0-.03-.13-.18-.28-.32-.24-.35.04-.04.11.12.2.21.2.19,0-.03-.29-.34-.95-1.02-.28-.29-.35-.39-.09-.15.12.11.23.2.24.2.06,0,0-.1-.12-.21-.07-.06-.18-.19-.25-.28-.09-.12-.05-.09.16.11.34.33.43.37.21.09l-.17-.21.18.19c.1.11.17.2.16.21s.04.08.11.16c.07.08.15.18.18.22.04.06.05.06.03,0-.03-.11.03-.08.11.05.04.06.08.11.1.1s.05,0,.07.03c.02.03.08.08.15.11.06.03.11.07.11.09,0,.02.04.06.09.08.05.02.09.04.09.03s-.17-.16-.38-.35c-.21-.19-.42-.4-.48-.46l-.1-.12.11.1c.06.05.22.19.34.31.12.12.25.22.27.23.05.02-.09-.15-.41-.47-.12-.12-.21-.23-.2-.23s.13.1.25.21c.12.12.25.22.3.23.05,0,.12.05.16.1.04.04.1.08.13.08.05,0-.31-.36-.59-.59-.1-.08-.17-.15-.16-.16s.1.06.21.15c.1.09.2.17.22.17s.09.06.18.14c.08.08.19.17.25.19l.1.05-.11-.1c-.06-.05-.11-.11-.11-.12,0-.03-.4-.41-.43-.41-.01,0-.06-.05-.09-.11-.05-.08,0-.05.17.1.13.11.26.2.28.18.02-.01-.07-.13-.2-.26-.27-.26-.22-.27.05-.01.3.28.74.6.51.36-.07-.07-.15-.13-.17-.12s-.03,0-.03-.02-.07-.11-.17-.2l-.17-.17.16.13c.1.08.18.11.21.1.03-.02.04-.01.02.01-.01.02.01.05.06.07.14.04.22.05.2.01-.01-.02-.04-.03-.07-.03-.04,0-.1-.05-.57-.48-.17-.15-.18-.17-.06-.09.25.17.34.25.5.39.08.07.15.11.15.09,0-.05-.4-.44-.55-.54-.06-.03-.2-.18-.33-.32l-.23-.25.25.24c.26.25.86.72.92.72.02,0-.13-.17-.34-.38-.24-.24-.33-.35-.24-.3.07.04.12.08.11.09,0,0,.06.08.15.16.09.08.22.2.29.28l.13.13-.11-.16c-.12-.17-.54-.59-.72-.72-.06-.05-.12-.1-.12-.12s.09.04.2.13c.35.29.62.5.62.48,0-.01.04,0,.08.04s.09.06.1.05c.01-.01-.05-.07-.13-.13-.08-.06-.24-.2-.35-.3-.11-.11-.24-.22-.29-.25-.14-.1-.39-.32-.35-.32.02,0,.06.03.09.06.09.1.38.29.41.26.02-.02.02,0,0,.02-.01.03.1.14.28.28.49.38.52.36.1-.05-.22-.21-.39-.39-.38-.4.01-.01.11.07.22.18.11.11.22.2.25.2s.05.02.05.04.04.06.08.08c.08.04.08.04,0-.05-.04-.05-.11-.12-.16-.15-.05-.03-.18-.15-.29-.28-.11-.13-.17-.21-.13-.18.04.03.11.1.15.15.05.06.08.08.1.04.02-.03.06-.03.15.02.07.03.13.06.14.06.01,0,.07.04.14.1.07.05.13.09.15.08.02-.01.04,0,.05.04.01.03.04.06.07.06.03,0,.02-.03-.02-.08-.04-.04-.08-.07-.08-.06Zm-.98-2.04c.12.1.09.1-.06,0-.06-.04-.1-.08-.07-.08.02,0,.09.03.14.08Zm-.16-.31s.04.04.02.04-.07-.02-.1-.04-.04-.04-.02-.04.07.02.1.04Zm-.39-1.32s0,.03,0,.03c-.11-.03-.38-.19-.33-.19.09,0,.34.12.34.16Zm-.59-.8s.03.05.01.05c-.04,0-.1-.07-.08-.1,0,0,.04.01.06.04Zm-.35-.32s0,.02-.05.02c-.05,0-.05-.01-.02-.02.03-.01.06,0,.07,0Zm-.09-.52s0,0,0,0c0,0,0,0,0,0,.03.04.03.04-.08,0-.06-.03-.07-.03-.01-.04.04,0,.08.01.09.04Zm-.79-.88s0,.02-.07.02c-.06,0-.09,0-.05-.02.04,0,.09,0,.12,0Zm-3.55-2.42s.01.03-.04.04c-.06.02-.08.01-.05-.02.02-.02.06-.03.09-.02Zm-.49.19c.11-.05.17-.05.1,0-.03.02-.08.04-.12.04-.04,0-.03-.01.02-.04Zm-.33-.51s.08-.03.08-.02-.04.04-.08.06c-.04.02-.08.03-.08.02s.04-.04.08-.06Zm-.08.31s.08-.04.1-.04.01.02-.02.04c-.03.02-.08.04-.1.04s-.01-.02.02-.04Zm-.88-.51c.13-.1.21-.14.21-.1,0,0-.07.06-.16.12-.21.14-.24.13-.06-.01Zm-.29-.28s-.03.04-.06.06c-.04.01-.05,0-.03-.03.02-.06.09-.08.09-.02Zm-2.4.11s.07-.09.1-.13.05-.06.05-.04c0,.02-.04.1-.1.17-.05.07-.1.11-.1.09s.02-.07.05-.1Zm-6.63,4.46c-.06-.1-.07-.15-.04-.18.03-.03.04-.02.04.04,0,.05.02.09.03.1.02.01.04.06.05.1.03.11,0,.1-.09-.06Zm-.43,2.15s-.04-.07-.03-.08c.01-.01.04.01.07.06.05.1.03.11-.04.02Zm-.53,1.1c-.05-.05-.05-.07-.01-.04.03.03.07.04.08.03.01-.01.02,0,.02.04q0,.07-.09-.03Zm.1.43c-.04-.09-.04-.09.02-.02.04.04.06.08.05.09-.01.01-.04-.02-.07-.07Zm0,.43s-.04-.02-.04-.04.02-.03.04-.02c.02.01.04.03.04.04s-.02.02-.04.02Zm.31.22s-.03.01-.08-.05c-.05-.06-.05-.06.01-.01.04.03.07.06.07.07h0Zm.09-3.16c.07.1.06.14,0,.05-.06-.08-.1-.15-.08-.15,0,0,.05.04.08.1Zm-.21-.24s.06.06.08.04c.03-.02.03,0,.01.02-.02.02-.03.04-.04.04-.03,0-.1-.1-.1-.13,0-.02.02,0,.04.03Zm-.08.24s.07.04.15.19c.04.08.07.15.06.15-.02,0-.21-.3-.21-.34Zm.29.39c-.02-.06-.02-.06.02-.02.03.03.04.06.03.07-.01.01-.03,0-.05-.05Zm.06-.1s-.02-.03-.03-.01c-.02.01-.06,0-.08-.04-.03-.03-.04-.06-.02-.06s-.02-.06-.08-.14c-.06-.08-.1-.15-.08-.16s.06.03.11.1.13.16.18.21.12.14.15.21.06.12.05.12c-.03,0-.18-.2-.18-.24Zm.16.3s-.03.01-.08-.05c-.05-.06-.05-.06.01-.01.04.03.07.06.07.07Zm-.1.67l-.07-.09.09.07s.09.08.09.09c0,.03-.03,0-.1-.07Zm.08-.06s-.02-.05.01-.03c.02.02.06.06.09.1.07.14-.01.07-.1-.08Zm-.1-1.84s-.02-.03-.04-.01c-.02.01-.05,0-.06-.02-.02-.03-.01-.04.02-.01.04.02.04.01.03-.03-.04-.1.03-.15.08-.07.03.04.03.07,0,.05-.09-.06-.03.05.15.28.11.13.19.24.18.24-.03,0-.38-.4-.38-.44Zm.98-1.29c-.05-.08-.05-.08.02-.02.04.04.06.08.05.09-.01.01-.04-.02-.07-.07Zm.41-.54s-.02-.01-.02-.05c0-.05.01-.05.02-.02.01.03,0,.06,0,.07Zm.04.16s-.02,0-.02-.05c0-.05.01-.05.02-.02.01.03,0,.06,0,.07Zm.58-.58s-.02-.01-.02-.05c0-.05.01-.05.02-.02.01.03,0,.06,0,.07Zm.04-.35s-.02,0-.02-.07,0-.11.02-.07c0,.04,0,.1,0,.14Zm.16-.08s-.02,0-.02-.07,0-.11.02-.07c0,.04,0,.1,0,.14Zm-9.45.81s-.06.09-.14.17c-.08.08-.12.11-.1.06.05-.09.24-.28.24-.24Zm-.35.28s.03,0,.02.04c-.03.07-.05.08-.05.02,0-.02.02-.05.04-.06Zm-.05-1.19c.06-.05.06-.05.01.01-.03.04-.06.07-.07.07-.03,0-.01-.03.05-.08Zm0-.46s.05-.04.01.03c-.02.05-.07.09-.11.11-.06.02-.06.02-.01-.03.03-.03.08-.08.11-.11Zm-.1-.22s0,.07-.03.1c-.04.03-.05.02-.03-.06.02-.11.03-.12.06-.04Zm-.17.1s.04-.04.04.03c0,.05-.02.09-.04.09-.05,0-.05-.04,0-.12Zm-.12.52s0,.04-.03.07c-.04.04-.04.03-.02-.02.01-.04.04-.06.05-.05Zm-2.72.51s-.03.06-.03.02c0-.03.02-.09.03-.14.02-.05.03-.06.03-.02,0,.03-.02.09-.03.14Zm.14-.38s-.02-.01-.02-.05c0-.05.01-.05.02-.02.01.03,0,.06,0,.07Zm1.26-.96s-.03-.02-.02-.04.03-.04.04-.04.02.02.02.04-.02.04-.04.04Zm.12.16s-.04-.02-.04-.04.02-.03.04-.02c.02.01.04.03.04.04s-.02.02-.04.02Zm.04-.12s-.04-.02-.04-.04.02-.04.04-.04.04.02.04.04-.02.04-.04.04Zm.28-.03s-.04.03-.02-.02c.01-.04.04-.06.05-.05.01.01,0,.04-.03.07Zm.39.83s.08-.13.11-.18c.05-.1.12-.11.12-.03,0,.02-.02.03-.04.01-.02-.01-.04,0-.04.03s-.05.1-.11.15c-.08.07-.09.07-.05.02Zm.08.84s.02-.04.07-.1.1-.1.11-.1-.02.04-.07.1c-.05.05-.1.1-.11.1Zm10.89-.5s-.02,0-.02-.07c0-.06,0-.09.02-.05s0,.09,0,.12Zm.15-.18s-.02-.01-.02-.05c0-.05.01-.05.02-.02.01.03,0,.06,0,.07Zm.12.02s-.02,0-.02-.05,0-.08.02-.05c.01.03.01.07,0,.1Zm.31-.39s-.02,0-.02-.05,0-.08.02-.05.01.07,0,.1Zm.31-.45s-.02-.01-.02-.05c0-.05.01-.05.02-.02.01.03,0,.06,0,.07Zm.98.04s.01.07,0,.1c-.01.03-.02,0-.02-.05s0-.08.02-.05Zm0,.51s-.02-.01-.02-.05c0-.05.01-.05.02-.02.01.03,0,.06,0,.07Zm.29-1.16l-.03.1v-.1c0-.05.01-.12.03-.16.03-.05.04-.05.03,0,0,.03-.02.1-.03.16Zm.22.15s-.02-.01-.02-.05c0-.05.01-.05.02-.02.01.03,0,.06,0,.07Zm.2.1s-.02,0-.02-.09,0-.14.02-.09,0,.13,0,.18Zm.19.41s-.02-.01-.02-.05c0-.05.01-.05.02-.02.01.03,0,.06,0,.07Zm.26-.47c-.07.24-.09.27-.09.2,0-.09.07-.34.11-.37.02-.01,0,.06-.02.16Zm1.37,18.92s.11-.06.15-.06c.05,0,.04.02-.05.06-.17.07-.2.07-.1,0Zm-.53.72c-.06,0-.04-.03.02-.05.03-.01.05,0,.04.02-.01.02-.04.04-.06.04Zm.25-.5c-.12.05-.21.09-.21.09,0-.04.32-.21.37-.2.03,0-.04.06-.15.11Zm.57-19.78s-.04.03-.02-.02c.01-.04.04-.06.05-.05s0,.04-.03.07Zm.16,18.27c-.06.02-.06.02-.02-.02.03-.03.06-.04.07-.03.01.01,0,.03-.05.05Zm.26-.4c.09-.07.16-.1.16-.06,0,.01-.06.05-.13.08l-.13.06.09-.08Zm.05-.63s.03.02.02.04-.03.04-.04.04-.02-.02-.02-.04.02-.04.04-.04Zm.44-.73s0,.02-.05.02-.08,0-.05-.02c.03-.01.07-.01.1,0Zm-.15.15s-.02.04-.07.07c-.08.05-.08.05-.02-.02.04-.04.08-.06.09-.05Zm.59-5.69s.08-.08.09-.08-.01.04-.05.08c-.04.04-.08.08-.09.08s.01-.04.05-.08Zm-.33-.04s.03-.02.01-.05c-.02-.03-.01-.04,0-.02.04.04.3-.21.26-.26-.01-.02,0-.03.02-.01.02.01.05,0,.07-.01.01-.02.06-.06.11-.08.07-.04.06-.02-.03.08-.18.19-.49.44-.49.39,0-.02.02-.04.04-.04Zm.04-.72c.06-.06.12-.09.12-.06,0,.03.02.04.05.02.03-.02.03,0,0,.04-.03.04-.07.06-.09.05-.02-.01-.06.02-.09.06-.03.04-.07.07-.08.05-.01-.02.03-.09.09-.15Zm-.07-.7s0-.02.04,0c.06.02.06.03-.02.12-.11.12-.13.12-.05,0,.03-.05.05-.1.03-.12Zm-.23-1.44c.05-.04.1-.05.1-.03s-.04.05-.1.08-.1.04-.1.03.04-.04.1-.08Zm.06,3.17s.08-.03.08-.02-.04.04-.08.06-.08.03-.08.02.04-.04.08-.06Zm-.14,1.43s.05,0,.03.03c-.01.03-.04.06-.06.06-.06,0-.04-.07.02-.09Zm.24.91s0,.02-.05.05c-.19.13-.29.19-.29.17,0-.02.3-.22.34-.22Zm-.42.95c.17-.07.21-.07.08,0-.05.03-.12.06-.16.06s0-.03.07-.06Zm.42-14.95c.07-.04.06.03-.02.1h0c-.13.11-.19.12-.1.03.05-.05.08-.11.07-.12s0-.06.02-.11c.02-.05.06-.07.07-.06.01.01.05,0,.07-.02.04-.03.05-.02.04.04,0,.04-.02.08-.04.09-.02,0-.05,0-.07,0-.02,0-.05.02-.07.04-.02.02-.01.02.02,0Zm.34.33s.06-.06.11-.09c.06-.03.07-.03.05,0-.01.02-.06.06-.11.09-.06.03-.07.03-.05,0Zm.02.95s.03-.04.07-.07c.06-.05.06-.05.01.01-.05.06-.08.09-.08.05Zm1.65-.97s-.02.05-.08.08c-.06.03-.15.08-.2.11-.05.04-.09.05-.09.04,0-.04.34-.26.37-.23Zm-.95.77c-.05.05-.1.1-.11.1s.02-.04.05-.1c.04-.05.08-.1.1-.1s0,.04-.05.1Zm.11-.14s-.03-.02-.02-.04c.01-.02.03-.04.04-.04s.02.02.02.04-.02.04-.04.04Zm-.13-.04c.12-.14.31-.31.35-.31.02,0,.08-.04.13-.09.05-.05.09-.07.09-.06s-.14.14-.32.29c-.18.15-.29.22-.24.17Zm.43-.08c-.08.09-.16.16-.17.16s.05-.07.13-.16.16-.16.17-.16-.05.07-.13.16Zm1.52,8.59c-.04-.1-.03-.12.02-.04.02.04.03.08.02.09s-.03-.01-.04-.04Zm.19.43c-.04-.1-.03-.12.02-.04.02.04.03.08.02.09,0,.01-.03-.01-.04-.04Zm.17-8.61c-.05.03-.12.06-.16.06-.03,0,0-.03.07-.06.17-.07.21-.07.08,0Zm.3,8.85s-.02,0-.02-.05c0-.05.01-.05.02-.02.01.03,0,.06,0,.07Zm.03-8.91s-.05-.01-.02-.02c.03-.01.06,0,.07,0,.01.01-.01.02-.05.02Zm.08,9.09c-.02-.06-.02-.06.02-.02.03.03.04.06.03.07-.01.01-.03,0-.05-.05Zm.11-9.05s-.1.03-.14.03c-.04,0-.03-.01.02-.03.04-.02.1-.03.14-.03.04,0,.03.01-.02.03Zm.08,9.28s-.02,0-.02-.05,0-.08.02-.05c.01.03.01.07,0,.1Zm0-.37s-.02-.01-.02-.05c0-.05.01-.05.02-.02.01.03,0,.06,0,.07Zm.11.64s.02.03-.02.03c-.05,0-.07-.03-.06-.13,0-.11,0-.11.02-.03,0,.05.04.11.06.13Zm.26-9.55s.03.02.01.04-.04.04-.06.04-.03-.02-.01-.04c.01-.02.04-.04.06-.04Zm-.26.11s-.05-.01-.02-.02c.03-.01.06,0,.07,0s-.01.02-.05.02Zm.23.39s-.05-.01-.02-.02c.03-.01.06,0,.07,0,.01.01-.01.02-.05.02Zm.14.46c-.05,0-.08,0-.05-.02.03-.01.07-.01.1,0,.03.01,0,.02-.05.02Zm-.11-.63c-.06.02-.06.01,0-.02.05-.04.17-.06.72-.14.08-.01.1,0,.06.02-.03.02-.2.06-.38.08-.18.02-.35.05-.39.07Zm.41,9.07c-.04-.1-.03-.12.02-.04.02.04.03.08.02.09s-.03-.01-.04-.05Zm.15.04c-.01-.06-.02-.11,0-.12s.03.03.04.09.02.11,0,.12c0,0-.03-.03-.04-.09Zm.04-8.51s-.06,0-.06-.02.03-.03.06-.04c.03-.01.06,0,.06.02s-.03.04-.06.04Zm.44.13s0,.02-.05.02c-.05,0-.05-.01-.02-.02.03-.01.06,0,.07,0Zm-.16-.2s0,.02-.07.02-.11,0-.07-.02c.04,0,.1,0,.14,0Zm-.15.41c-.05,0-.08,0-.05-.02.03-.01.07-.01.1,0,.03.01,0,.02-.05.02Zm.18-.29s0,.02-.07.02-.11,0-.07-.02c.04,0,.1,0,.14,0Zm-.12,8.4c-.02-.06-.01-.08.02-.05.02.02.03.06.02.09,0,.03-.03.01-.04-.04Zm.09-7.95c-.05,0-.08,0-.05-.02s.07-.01.1,0,0,.02-.05.02Zm.07-.22s.06,0,.07,0,0,.02-.05.02c-.05,0-.05-.01-.02-.02Zm.06.1s-.05-.01-.02-.02c.03-.01.06,0,.07,0,.01.01-.01.02-.05.02Zm.47,8.47l.09.07s.09.08.09.09c0,.03-.03,0-.1-.07l-.07-.09Zm-.03-8.27c.07,0,.18,0,.23,0,.06,0,0,.02-.13.02-.13,0-.18,0-.11-.02Zm.23,8.74s-.07-.1-.06-.16c0-.03.02,0,.04.05.02.05.03.1.02.11Zm.01-8.64c-.05,0-.08,0-.05-.02.03-.01.07-.01.1,0,.03.01,0,.02-.05.02Zm.06-.19l-.35-.02h.33c.18,0,.37,0,.43.02.11.04.11.04-.41,0Zm.1,8.41s-.03-.08-.02-.08.04.03.06.08.03.08.02.08-.04-.04-.06-.08Zm.09-7.79s-.05-.01-.02-.02c.03-.01.06,0,.07,0,.01.01-.01.02-.05.02Zm.46,7.71s.07.06.07.07c0,.03-.03.01-.08-.05-.05-.06-.05-.06.01-.01Zm-.11.43s-.02-.05,0-.06.03,0,.04.04c.03.07,0,.08-.03.02Zm.32.08s-.1-.12-.2-.26c-.1-.14-.16-.24-.14-.23s.11.13.2.26c.09.13.15.23.14.23Zm1.67,0s-.04-.03-.05-.02c-.02,0-.03-.02-.03-.06,0-.09.05-.07.11.04.04.08.02.11-.02.04Zm-.28-.58c.13.13.24.25.24.27,0,.01.05.09.11.17s.1.16.09.17c-.02.02-.15-.14-.28-.34-.04-.06-.15-.18-.24-.27-.1-.09-.17-.18-.17-.2s.11.07.24.2Zm-.67-5.57s.04.04.02.04-.07-.02-.1-.04c-.03-.02-.04-.04-.02-.04s.07.02.1.04Zm-.12,5.69c.05.06.07.12.06.12s-.06-.05-.1-.12-.07-.12-.06-.12.06.05.1.12Zm-.05-7s-.01.02-.05.02c-.05,0-.05-.01-.02-.02.03-.01.06,0,.07,0Zm-.11-.4s.05.02.06.04,0,.04-.04.04-.06-.02-.06-.04.02-.04.04-.04Zm.04,7.62s.08.09.07.1c0,0-.05-.03-.09-.09l-.07-.1.09.09Zm-.12-7.61s-.03.01-.06.01-.05-.01-.04-.03c.02-.03.09,0,.09.02Zm-.05.47s-.01.02-.05.02c-.05,0-.05-.01-.02-.02.03-.01.06,0,.07,0Zm.56,7.7c.03.07.04.1,0,.13-.03.03-.04.03-.02-.02.02-.05-.05-.14-.23-.32-.26-.26-.39-.43-.58-.77-.17-.3-.08-.21.17.18.13.2.32.44.43.54.1.1.21.22.23.27Zm-.18-.91l-.07-.09.09.07s.09.08.09.09c0,.03-.03,0-.1-.07Zm.08-.77s-.02-.05,0-.06.03,0,.04.04c.03.07,0,.08-.03.02Zm.08-.2l-.07-.09.09.07s.09.08.09.09c0,.03-.03,0-.1-.07Zm1.32.86s.07.06.07.07c0,.03-.03.01-.08-.05-.05-.06-.05-.06.01-.01Zm.02-.76s.09.08.09.09c0,.03-.03,0-.1-.07l-.07-.09.09.07Zm-.06-3.78s0,.02-.07.02-.09,0-.05-.02c.04,0,.09,0,.12,0Zm-.38-.15c.06.01.15.03.19.03.04,0,.07.02.07.03,0,.05-.12.03-.25-.03l-.12-.06.12.03Zm-.51.75l-.07-.09.09.07s.09.08.09.09c0,.03-.03,0-.1-.07Zm.15,3.38s.01-.05.03-.04.02.04.01.06c-.03.05-.04.05-.04-.02Zm.16-.07l-.11-.13.13.11c.07.06.13.12.13.13,0,.03-.03,0-.14-.11Zm.43-.43s.06.03.06.04c0,.03-.07.01-.1-.02-.01-.02,0-.03.04-.02Zm-.03.2s.09.05.09.06c0,.04-.07.01-.12-.05-.05-.06-.05-.06.03-.02Zm-.1.12s.07.06.07.07c0,.03-.03.01-.08-.05-.05-.06-.05-.06.01-.01Zm.07.26s-.03,0-.12-.09l-.09-.11.11.09c.06.05.11.1.11.11Zm-.12-.55s-.03.01-.08-.05c-.05-.06-.05-.06.01-.01.04.03.07.06.07.07Zm.42-.18c.07.05.13.09.13.1,0,.03-.04,0-.14-.09l-.11-.1.13.09Zm-.05-.16c.04.06,0,.04-.1-.04-.09-.08-.09-.08,0-.04.05.02.1.06.11.08Zm-.26-.73c-.05-.06-.05-.06.01-.01.04.03.07.06.07.07,0,.03-.03.01-.08-.05Zm-.01-1.33s0-.03.04-.02c.03.01.06.03.06.04,0,.03-.07.01-.1-.02Zm.06-.1s-.03-.06,0-.06.05.03.06.06c.01.03.02.06,0,.06s-.04-.03-.06-.06Zm.04-.58s-.07-.05-.09-.03-.03.01-.02,0c.02-.02,0-.06-.04-.09-.06-.05-.06-.05.03,0,.05.03.11.05.13.04.02,0,.02.01.02.04,0,.02.01.05.04.06.03.01.04,0,.03-.02-.02-.04.38.11.43.16.06.06-.13.02-.25-.05-.07-.04-.15-.07-.18-.06-.03.01-.08,0-.1-.04Zm.17,2.19l-.07-.09.09.07s.09.08.09.09c0,.03-.03,0-.1-.07Zm.08-.08l-.07-.09.09.07s.09.08.09.09c0,.03-.03,0-.1-.07Zm.23-.44c.06.04.11.07.11.08,0,.03-.03.01-.12-.07l-.09-.08.11.07Z"/>
  </g>
</svg>