<?xml version="1.0" encoding="UTF-8"?>
<svg id="Layer_2" data-name="Layer 2" xmlns="http://www.w3.org/2000/svg" viewBox="0 0 33.94 33.94">
  <defs>
    <style>
      .cls-1 {
        stroke-width: 0px;
      }
    </style>
  </defs>
  <g id="Layer_1-2" data-name="Layer 1">
    <path class="cls-1" d="m33.41,12.73c-1.2-4.75-4.58-8.87-8.98-11.01C21.56.31,18.3-.25,15.13.1c-1.95.21-3.86.76-5.62,1.62C5.33,3.76,2.06,7.59.73,12.05c-1.53,4.96-.61,10.59,2.44,14.79,3.11,4.4,8.41,7.16,13.81,7.1,5.25.07,10.42-2.55,13.56-6.75,3.1-4.05,4.17-9.53,2.88-14.46Zm-3.06,10.55c-1.24,2.64-3.29,4.89-5.79,6.39-4.58,2.8-10.7,2.78-15.26-.06-2.49-1.51-4.52-3.78-5.74-6.43-1.32-2.82-1.69-6.07-1.07-9.12.84-4.33,3.76-8.19,7.69-10.21,1.5-.78,3.14-1.3,4.82-1.52,3.25-.45,6.64.22,9.47,1.9,3.73,2.17,6.42,6.05,7.1,10.31.49,2.95.08,6.05-1.21,8.75Zm-5.19-16.64c-1.5-.98-3.41-1.22-5.14-.78-1.42.35-2.56,1.44-3.18,2.74-.96,1.99-.96,4.3-.57,6.44.25,1.47.78,2.87,1.21,4.29-.9-.9-2.04-1.57-3.3-1.81-1.57-.31-3.17-.92-4.22-2.18-.71-.82-1-1.92-.97-2.99-.47.3-1,.55-1.32,1.02-.31.42-.43.94-.54,1.45-.54.24-1.06.57-1.38,1.07-.65.89-.71,2.03-.88,3.08-.09.42.31.78.71.81.88.09,1.73-.22,2.57-.47-.08.35.14.98-.35,1.08-.8.25-1.89-.26-2.48.51.21.28.48.51.8.64.92.39,1.95.73,2.95.45,1.4-.33,2.34-1.68,3.81-1.8-1.39-.04-2.35,1.14-3.62,1.5-1.18.37-2.41-.16-3.42-.74.79-.11,1.64.16,2.4-.19.56-.31.32-1.04.53-1.54.28-.4.68-.71,1-1.08-1.38.42-2.76,1.12-4.25.94.84-.14,1.68-.32,2.47-.64.59-.21,1.13-.54,1.74-.67.2,0,.29.11.27.31-.1.31-.28.6-.35.93-.08.41-.08.86-.34,1.21-.38.6-1.03.94-1.66,1.23.77-.09,1.54-.27,2.19-.71,1.08-.65,2.26-1.41,3.58-1.26.67.07.91.96.43,1.41-.7.61-1.66.86-2.27,1.59-.67.74-.68,1.89-.24,2.75.47.85,1.4,1.3,2.3,1.54,2.13.58,4.59-.39,5.64-2.35,1.28-2.34,1.2-5.14.85-7.71-.26-1.68-.85-3.51-.02-5.13.66-1.32,2.2-1.8,3.58-1.89-.7.16-1.42.36-2.01.8-.87.61-1.4,1.65-1.42,2.71-.07,1.07.4,2.06.58,3.09.49,2.53.47,5.26-.53,7.67-.68,1.66-2.03,3.1-3.77,3.63-1.54.45-3.31.36-4.67-.55-1.3-.86-1.9-2.57-1.58-4.06.14-.72.61-1.3,1.06-1.85-.46.41-.87.9-1.1,1.48-.68,1.73.05,3.9,1.63,4.88,1.46.92,3.32,1.03,4.95.56,1.82-.54,3.27-1.97,4.07-3.67,1.23-2.59,1.31-5.58.82-8.37-.18-1.16-.76-2.33-.35-3.51.38-1.2,1.7-1.8,2.88-1.81,1.74-.1,3.34.68,4.87,1.42-.75-2.14-1.99-4.22-3.95-5.45ZM7.27,16.97c-.31.22-.71.15-1.06.14.13-.34.22-.73.54-.94.31-.23.72-.16,1.08-.15-.12.34-.22.74-.55.95Z"/>
  </g>
</svg>