<?xml version="1.0" encoding="UTF-8"?>
<svg id="Layer_2" data-name="Layer 2" xmlns="http://www.w3.org/2000/svg" viewBox="0 0 33.94 33.64">
  <defs>
    <style>
      .cls-1 {
        stroke-width: 0px;
      }
    </style>
  </defs>
  <g id="Layer_1-2" data-name="Layer 1">
    <path class="cls-1" d="m12.83,12.23c.09.05.17.15.36.03-.2.26-.05.29.09.3.15,0,.29-.01.44-.02.04,0,.08-.01.1.03.02.04-.01.07-.03.1-.21.3-.2.27.16.39.25.08.56.11.66.44.02.05.07.04.12.04.21.03.42.07.63.05.13-.01.26-.02.41.04-.12.1-.27.09-.36.19-.03.03-.08.06-.07.1.02.06.08.05.13.05.21.02.49.01.57.21.07.16.18.14.27.16.02.07-.02.09-.05.1-.1.05-.15.13-.13.23.02.1.11.12.19.12.13.01.21.08.31.15.09.06.26.08.03.19-.04.02-.03.07,0,.09.12.1.11.28.26.36.02.01.05.06.04.07-.13.21.07.21.17.28.12.09.24.19.36.29.03.02.06.06.03.09-.07.08-.05.15.02.2.09.07.19.18.3.14.12-.04.1.02.12.08.03.14.08.28.05.43,0,.04,0,.1.06.1.05,0,.07-.04.09-.08.03-.11.02-.22,0-.33-.05-.2-.1-.41-.01-.61.11-.26.22-.51.28-.79.02-.08.08-.06.13,0,.12.13.23.27.25.45.03.17.18.31.13.5,0,.03.02.07.07.06.05-.01.07-.06.06-.1-.06-.22.09-.37.2-.55.09.09.04.21.06.31.02.07.04.15.11.14.08,0,.05-.09.05-.14,0-.48.24-.92.27-1.4,0-.06.03-.13.11-.11.1.02.15.1.13.2-.02.19-.04.38,0,.63.13-.23.14-.43.13-.63,0-.22-.08-.45.19-.58.03-.01.03-.07.07-.07.05,0,.06.06.07.1.04.18.1.35.09.54,0,.07-.03.17.05.19.1.02.11-.1.14-.17.05-.09.07-.19.07-.3,0-.09.02-.18.04-.26.02-.08.02-.21.14-.19.11.02.08.14.06.23-.06.3-.04.61-.12.91-.01.05-.02.11.04.13.07.02.09-.03.11-.08.05-.11.11-.22.15-.34.04-.11.08-.22.21-.28-.1.44-.23.87-.25,1.32.14-.24.26-.48.31-.76.01-.08-.03-.25.17-.2.01,0,.05-.07.06-.11.07-.21.17-.41.11-.64,0-.03,0-.06,0-.09.04-.1.03-.29.15-.28.16.01.11.18.1.31,0,.06-.03.15.05.17.1.03.11-.07.14-.13.08-.21.15-.43.25-.63.07-.15.18-.28.28-.41.02-.03.04-.07.08-.06.05.01.06.06.07.1.05.32.04.62-.01.95-.06.39-.2.74-.34,1.1-.01.03-.02.07-.02.11,0,.01.01.02.03.04.3-.13.37-.46.58-.66.08-.07.14-.16.24-.22.17-.1.34-.22.42-.41.1-.25.34-.37.5-.56.04-.05.1-.05.16-.02.06.04.08.1.04.15-.11.15-.06.36-.18.51.26-.18.36-.48.55-.71.03-.03.03-.08.06-.11.06-.07.09-.21.2-.18.12.03.03.15.02.23-.01.13.14.17.15.31.01.19-.04.33-.12.47-.02.05-.08.11,0,.15.06.03.08-.04.12-.07.21-.17.41-.33.66-.52,0,.18,0,.31.09.42.06.08-.02.13-.09.17-.19.12-.37.26-.56.37-.13.07-.21.17-.28.3-.05.11-.11.22-.24.27-.08.03-.06.11-.02.17.05.06.09.02.12-.02.17-.23.41-.37.66-.49.16-.08.31-.19.46-.27.16-.08.37-.12.54-.22.15-.09.28-.24.51-.27-.34.38-.64.74-.9,1.13.28-.17.59-.23.89-.31.34-.1.61-.29.9-.45.07-.04.15-.05.2,0,.07.07,0,.12-.04.17-.04.06-.17.11-.11.19.05.06.16.02.25.02.06,0,.13-.1.17-.01.04.07-.06.11-.1.15-.06.05-.12.08-.18.12-.05.03-.12.05-.09.13.03.07.11.08.17.05.3-.16.65-.06.97-.18.02,0,.04,0,.12.02-.28.12-.51.23-.72.37-.12.08-.26.14-.35.26-.04.05-.09.07-.15.08-.32.02-.58.2-.86.31-.3.12-.6.23-.88.38-.04.02-.1.02-.13.09.06.08.14.04.21.01.18-.08.36-.16.54-.25.26-.12.54-.12.81-.17-.15.12-.28.27-.49.2-.05-.01-.1-.01-.15,0-.07.01-.17.04-.16.12,0,.08.1.03.15.04.41.1.79-.13,1.19-.1.32.02.65-.1.98,0,.12.04.26.01.39,0,.37-.02.7.21,1.08.15.04,0,.09,0,.1.06,0,.04-.04.06-.08.07-.07.02-.14.04-.23.07.13.15.3.18.47.29-.36.07-.71.02-1.04.12.08.1.21.09.33.19-.33.09-.63-.17-.97.07.3-.03.51.09.75.09.22,0,.43.04.61.2.13.12.31.11.48.11.15,0,.31-.01.45.13-.15.07-.31-.06-.49.08.62.09,1.04.47,1.53.75-.3-.09-.61,0-.91-.06-.13-.02-.21.03-.23.14-.02.13.1.09.17.11.18.05.36.09.53.14.06.02.15.01.16.09,0,.09-.11.05-.15.1.19.11.24.1.33-.09v.37c-.1-.03-.19-.08-.3-.08-.05,0-.11,0-.13.06-.03.06.03.09.07.12.04.03.07.06.11.07.15.05.27.11.36.26.05.08.18.2.27-.01.06.27.02.29-.4.29.34.08.62.31.94.41-.05.16-.2.3-.18.51.08-.04.05-.14.14-.17,0,.21.05.39.26.47.03.01.06.05.05.09-.01.04-.06.05-.09.04-.11-.02-.21-.04-.34-.07.07.16.22.21.33.3.04.03.09.07.07.12-.02.05-.08.01-.12.02-.27.04-.47-.07-.64-.25-.03-.04-.08-.07-.12-.09-.08-.05-.17-.15-.25-.07-.07.07.06.12.11.19.03.05.12.1.04.16-.07.06-.12-.02-.16-.07-.12-.14-.29-.19-.45-.32.01.14.08.24,0,.34-.03.04,0,.1.04.14.12.14.28.24.36.41.02.04.07.05.12.04.12-.01.19.06.27.12.04.03.1.07.06.12-.04.06-.09,0-.14,0-.03-.01-.06-.04-.08-.04-.26.1-.45-.02-.63-.18-.01-.01-.06,0-.08,0-.04.03-.02.08,0,.12.09.13.16.28.29.38.1.09.17.21-.13.25.16.15.29.26.42.38.08.07.14.15.07.27-.03.05-.03.11,0,.15.2.22.28.52.51.71.27.22.46.45.31.83-.04.09,0,.19.04.28.02.04.04.09,0,.12-.04.03-.08,0-.12-.03-.15-.09-.29-.21-.34-.36-.08-.23-.27-.36-.39-.55-.02-.03-.05-.06-.08-.07-.09-.03-.2-.13-.26-.07-.08.08.07.14.1.21.07.15.19.24.35.28.06.02.11.06.09.13-.02.07-.09.01-.13.02-.14.02-.27,0-.36-.14.02.14.09.25.2.27.17.03.23.14.28.28.06.16.12.31.19.47.02.04.04.09,0,.12-.06.04-.1-.02-.12-.06-.12-.23-.34-.38-.45-.66-.09.15-.02.25.03.33.09.16.05.28-.07.39-.06.05-.11.11-.1.18.04.55-.08,1.12.33,1.59.04.05.08.11.05.19-.15-.05-.24-.17-.31-.29-.13-.22-.27-.43-.34-.69-.17-.61-.53-1.14-.73-1.73-.13-.36-.42-.62-.58-.96-.03.17.07.3.14.43.07.13.23.21.22.41-.19-.11-.22-.01-.17.17-.13-.06-.17-.17-.16-.23.03-.24-.2-.28-.3-.42-.02-.03-.06-.05-.1-.03-.04.02-.03.06-.02.1.02.08.04.15.06.23,0,.03,0,.08-.04.09-.04,0-.06-.03-.08-.06-.08-.18-.19-.35-.24-.54-.07-.26-.24-.37-.48-.46-.04.11.04.16.11.2.14.08.21.2.24.35.04.26.18.48.27.72.03.07.07.14.06.25-.17-.06-.19-.22-.27-.33-.09-.13-.08-.4-.37-.27-.02,0-.07-.05-.1-.07-.07-.06-.12-.13-.2-.17-.34-.16-.52-.45-.68-.76-.13-.25-.36-.4-.53-.61-.12-.16-.24-.31-.34-.48-.13-.21-.26-.41-.47-.56-.16-.11-.3-.15-.49-.13-.45.05-.89.14-1.31.32-.1.04-.2,0-.3-.03-.11-.03-.21-.06-.32.04.29.12.71-.07.85.37-.14.04-.29.08-.44.12-.04.01-.09.01-.1.07-.03.25-.12.3-.41.29-.19-.01-.39-.07-.57.07.13.03.27.06.41.05.04,0,.09,0,.13,0,.14.04.25.16.27.26.02.11-.15.06-.23.1-.31.17-.69,0-.99.2-.02.01-.04.02-.08.05.23.12.49-.03.71.13-.19.11-.39,0-.6.1.18.04.31.09.45.1.14.01.13.1.15.19.02.12-.07.12-.15.14-.2.06-.41.12-.62.13-.07,0-.16.03-.17.11-.01.09.08.09.13.12.05.02.09.04.14.07.03.02.06.05.05.09-.01.04-.05.04-.09.04-.15,0-.31,0-.46,0-.06,0-.15.04-.13.12.01.08.1.04.15.05.03,0,.06,0,.09,0,.09,0,.2-.08.25,0,.06.1-.12.13-.12.19-.04.38-.36.28-.58.35-.07.02-.17-.02-.15.13.01.07-.08.04-.12.04-.1.01-.21-.06-.33,0,.22.14.44.23.69.31-.45.05-.76.4-1.19.5.16.06.32.09.49,0,.02.11-.05.14-.11.17-.17.08-.36.13-.55.15-.08.01-.16.01-.23.08-.04.04-.08.08-.07.13,0,.07.07.07.12.07.09,0,.14.02.14.14,0,.11-.02.17-.13.21-.21.08-.41.15-.64.09-.15-.03-.3.02-.44.08.28-.02.52.2.82.14.04,0,.1.02.14.05.06.05.16.11.14.18-.03.1-.13.05-.21.04-.1-.01-.21-.01-.3.04-.17.09-.37.07-.55.08,0,.04,0,.06.01.07.06.08.26.06.23.16-.04.12-.2.04-.29.03-.39-.04-.73.12-1.09.21-.03,0-.06.03-.08.03-.31-.03-.23.19-.23.35,0,.08-.04.1-.1.12-.15.04-.4,0-.26.29-.15.16-.04.27.05.41.04.05-.05.24-.13.3-.22.16-.09.38-.09.56,0,.13.03.23-.11.31-.07.04-.15.1-.15.2.02.35-.25.45-.5.57-.16.08-.31.16-.47.24-.51.27-1.06.3-1.62.28-.2,0-.4-.01-.59.05-.18.06-.36.01-.55,0-.38-.03-.76.04-1.14.04-.32,0-.61-.09-.91-.14-.44-.07-.89-.08-1.33-.14-.5-.07-.99-.05-1.49-.03-1.01.06-2.02.08-3.03.07-.92-.01-1.84.03-2.75-.12-.34-.05-.69,0-1.03-.01-.12,0-.23-.02-.35-.03-.39-.03-.42-.06-.51-.44-.02-.09-.05-.15-.14-.17-.09-.02-.16,0-.21.08-.07.09-.13.17-.2.26-.13-.24.05-.6.36-.74.27-.12.54-.22.81-.33.19-.08.4-.12.53-.29.02-.02.05-.04.08-.04.35.04.72-.04,1.05.21.36.28.77.44,1.25.36.1-.02.2-.01.31-.02.23-.01.34-.14.3-.36-.06-.29-.09-.61-.5-.65-.1,0-.13-.12-.15-.2-.05-.17-.17-.27-.32-.29-.15-.02-.16-.08-.13-.21.03-.14.03-.28.04-.42-.11-.02-.1.1-.21.1.12-.38-.07-.61-.42-.77.29-.26-.02-.48-.04-.73,0-.05-.06-.02-.09-.01-.04,0-.1-.02-.08-.05.09-.17-.08-.32-.05-.48.04-.22.02-.43-.03-.65-.05-.2-.04-.42-.06-.64-.05-.46.09-.89.16-1.34.03-.17-.11-.33-.15-.51-.02-.09-.01-.14,0-.22.03-.15.21-.27.09-.45,0-.01.02-.07.05-.09.16-.18.24-.39.24-.63,0-.11.13-.13.17-.23-.03-.07-.16.03-.17-.07,0-.1.09-.12.15-.17.08-.07.18-.12.12-.27-.04-.1.06-.16.12-.21.15-.11.27-.25.4-.38.15-.16.15-.36.16-.55,0-.09-.05-.05-.1-.06-.21,0-.41-.28-.43-.48-.03-.18-.22-.29-.29-.45-.11-.24-.41-.32-.49-.59-.04-.14-.16-.03-.26-.04.06-.17-.06-.24-.18-.29-.1-.05-.17-.09-.12-.23.02-.05.1-.23-.12-.18-.07.01-.1-.09-.08-.15.02-.13-.06-.17-.14-.24-.12-.11-.27-.18-.27-.4,0-.1-.12-.24-.18-.35-.13-.22-.25-.45-.32-.7-.03-.11-.1-.18-.15-.25-.08-.11-.11.08-.21.09.16-.24.02-.42-.08-.63-.08-.17-.17-.17-.3-.06-.03.03-.07.06-.12.03,0-.13.24-.17.15-.3-.06-.09-.21-.11-.32-.17-.67-.33-1.04-.92-1.34-1.57-.13-.28.1-.43.23-.62.09-.13.21-.09.34-.05.03.01.08.02.11.01.47-.14.84.13,1.24.3.13.06.25.12.38.17.03.01.08.02.1,0,.04-.03.02-.08.01-.12-.05-.17-.14-.31-.23-.45-.14-.22-.21-.45-.22-.72-.02-.28-.05-.55.04-.82.08-.25.13-.52.28-.74.1-.14.12-.3.15-.46.04-.17.02-.36.11-.53.04-.08-.04-.15-.09-.21-.26-.29-.44-.61-.61-.96-.11-.23-.09-.5-.26-.69-.13-.15-.25-.31-.37-.46-.05-.06-.13-.13-.09-.21.03-.07.14-.01.24-.05-.15-.2-.3-.4-.45-.59-.05-.06-.1-.11-.12-.18-.2-.67-.58-1.26-.88-1.89C.05,5.23,0,5.06,0,4.83c.28.27.43.61.7.84.1-.08-.03-.17.07-.25.09.24.25.42.45.58.03-.08-.05-.13-.02-.22.3.52.63,1.03,1.01,1.54-.15-.65-.52-1.16-.8-1.71.41.51.78,1.03,1.01,1.65.1-.02.01-.11.08-.15.11.16.12.39.29.53-.05-.49-.08-.98-.04-1.47.05.14.09.28.14.42.12.34.18.69.4,1,.12.16.15.39.15.61,0,.12,0,.23,0,.35.05.01.05-.03.07-.05.04-.05.06-.14.14-.12.08.02.07.12.09.19,0,.02,0,.04,0,.07,0,.05-.01.12.05.13.05.01.1-.03.12-.08.06-.16.28-.19.3-.4,0-.07.05-.03.11,0,.1.06.2.18.32-.03.09-.15.31-.17.49-.17.04,0,.09.04.13-.02.12-.2.34-.13.51-.2.02-.01.07,0,.08,0,.09-.21.43-.12.42-.41.11.02.11.11.2.16.01-.73-.16-1.42-.18-2.12.02,0,.04,0,.06,0,.02.09.05.19.07.28.03-.26.04-.52.15-.77.17-.37.3-.76.43-1.15.2-.6.33-1.22.37-1.86.01-.19.08-.37.1-.56.04-.5.07-.99.1-1.42.36,1.64.4,3.37.25,5.1.07.02.09-.03.1-.06.05-.34.25-.64.32-.98.04-.18.01-.35-.09-.51-.01-.02-.06-.02-.02-.06.24-.24.3-.57.36-.88,0-.03.02-.06.05-.05.04,0,.04.04.04.07-.04.17-.05.36-.13.51-.12.23-.11.47-.07.7.07.35.09.71.1,1.07,0,.23-.05.44-.13.64-.1.22-.14.44-.18.7.25-.19.18-.49.32-.69.05.06-.02.13.02.22.09-.22.17-.41.25-.61.02,0,.04.01.06.02-.06.21-.08.45-.15.65-.11.32.02.67-.14.98-.03.06-.03.14.03.18.06.04.12,0,.15-.05.11-.11.15-.05.2.06.04.11.05.23.03.35-.02.11-.12.23.1.29.06.02.02.23.1.33.03.04.05.12.1.1.22-.07.18.05.19.2.02.23.1.45.33.59.13.08.26.18.3.36.02.09.11.18.21.25.07.05.15.08.14.2,0,.09.12.09.19.11.22.05.28.15.15.32-.08.11-.05.12.03.19.13.13.26.25.45.29.05.01.19.02.09.17-.04.06.09.19.17.18.11-.01.11.01.1.11-.02.14.04.23.17.33.17.13.33.22.54.25.03,0,.07.02.07.04.06.3.29.38.54.44.08.02.06.08-.04.1-.03,0-.06,0-.08.05ZM7.64.85c0,.39-.1.78-.1,1.18,0,.19-.14.38,0,.58-.22.32-.07.68-.12,1.02-.02.12.05.23.13.34.37-1.04.32-2.07.09-3.11Z"/>
  </g>
</svg>