<?xml version="1.0" encoding="UTF-8"?>
<svg id="Layer_2" data-name="Layer 2" xmlns="http://www.w3.org/2000/svg" viewBox="0 0 33.94 29.62">
  <defs>
    <style>
      .cls-1 {
        stroke-width: 0px;
      }
    </style>
  </defs>
  <g id="Layer_1-2" data-name="Layer 1">
    <path class="cls-1" d="m29.29.85c-2.48-1.26-5.66-1.14-7.96.47-1.56,1.06-2.59,2.77-3.01,4.59-.47,1.95-.25,3.97.11,5.91.47,2.98,1,5.96,1.15,8.98.08,1.63-.04,3.3-.61,4.85.27-1.14.46-2.35.15-3.51-.49-2.04-2.16-3.62-4.08-4.35-1.41-.58-2.97-.55-4.4-1.03-1.53-.67-2.28-2.26-3.4-3.4.37-.84.28-1.8-.25-2.55-.15.34-.23.78-.61.96-.83.43-1.8.46-2.67.78-1.6.5-2.92,1.74-3.65,3.24-.19.45.13.89.51,1.1,1.29.78,2.85.94,4.14,1.73.4.24.77.68.61,1.17-.36,1.77-.15,3.66.58,5.31.07-1.17.19-2.36.67-3.44.54-1.36,1.63-2.5,3-3.03-1.12.96-2.04,2.22-2.29,3.69-.55,2.45.64,5.12,2.79,6.4,1.95,1.22,4.41,1,6.54.43,2.17-.6,3.9-2.3,4.78-4.34,1.72-3.94,1.56-8.36,2.81-12.42.57-1.82,1.63-3.65,3.41-4.52-.87-.49-1.87-.57-2.84-.68,1.41-.29,2.93-.28,4.23.39,2.24,1.09,3.57,3.36,4.49,5.58.58-2.49.76-5.17-.09-7.63-.69-2.01-2.15-3.76-4.07-4.7ZM1.38,14.69c.22-.49.63-.89,1.18-.96-.19.5-.6.96-1.18.96Z"/>
  </g>
</svg>