<?xml version="1.0" encoding="UTF-8"?>
<svg id="Layer_2" data-name="Layer 2" xmlns="http://www.w3.org/2000/svg" viewBox="0 0 33.94 20.17">
  <defs>
    <style>
      .cls-1 {
        stroke-width: 0px;
      }
    </style>
  </defs>
  <g id="Layer_1-2" data-name="Layer 1">
    <path class="cls-1" d="m.34,14c.08.08.17.15.25.23.02.01.06.04.08.06.08.18.22.35.41.43v.05c.22.07.45.07.67.06.09-.02.16.03.17.13.31.23.71.12,1.05.03.17-.13.42-.1.6-.25.15-.05.3-.1.44-.17.12-.07.25-.13.38-.2.11-.06.26-.21.36-.05.03.24.01.48.01.72h-.05c-.03.11-.06.22-.1.33-.09.12-.17.24-.25.37-.04.06-.09.13-.13.19-.02.02-.07.06-.1.08-.18.26-.45.43-.7.6-.13.08-.27.14-.42.18v.04c-.11.02-.23.06-.35.1-.07.07-.13.13-.2.19-.04.07-.08.14-.13.2-.04.08-.08.16-.1.24-.1.39-.31.78-.19,1.2.01.06.02.12.03.18.03.07.06.13.09.2.02-.08.05-.16.07-.24,0-.03.02-.09.03-.13.03,0,.08,0,.1,0,.06.14.13.28.2.42.03-.04.09-.13.13-.17.08-.14.13-.29.15-.46h.05c.04-.14.09-.29.14-.44.08,0,.16.01.25.02.04-.06.08-.11.13-.17.01-.09.02-.17.03-.26.06-.06.09-.15.13-.22.1-.06.19-.12.3-.16v-.05c.39-.03.79-.02,1.18-.02-.02.03-.07.1-.09.14-.22.21-.48.36-.72.53h-.04c-.07.08-.13.17-.2.25-.14.23-.09.5-.19.74-.03.3-.03.6,0,.9.15.05.16.23.23.35.08-.07.11-.17.16-.26,0-.03,0-.09,0-.12.14,0,.29.02.42.08.02-.26.11-.5.09-.76.1-.02.2-.05.3-.07.01-.08.03-.15.04-.23.02-.13.04-.25.06-.38.06-.06.1-.12.15-.19.06-.05.13-.1.19-.15.22-.08.45-.14.68-.16v-.05c.31,0,.61-.1.92-.14v-.05c.19-.02.38-.09.57-.15v-.05c.07-.02.16-.05.24-.07,0-.08.02-.16.02-.25.1-.04.2-.07.3-.11.03-.01.09-.03.11-.04.35-.24.7-.48.95-.83-.06,0-.19-.02-.25-.03.05-.01.14-.03.18-.05,0-.02-.02-.06-.03-.09.09-.06.16-.12.23-.2.14-.17.27-.35.37-.54h.05s0-.06,0-.06c.41,0,.83,0,1.23-.06v-.06c.33-.02.68-.06.99-.19.12-.03.24-.05.36-.08,0-.03,0-.1,0-.13-.1-.03-.2-.07-.3-.1.32-.03.64,0,.96-.03l-.02-.06c.29,0,.57-.08.85-.15,0-.01,0-.04,0-.05.12-.03.24-.06.35-.1.03-.02.09-.06.12-.08.07-.03.14-.07.21-.11.11-.03.11-.12.1-.21.1-.06.19-.12.28-.19.15-.07.32-.12.48-.16v-.05c.12,0,.25,0,.38,0,.15.25.28.51.45.74.08.09.16.19.24.28.04.05.08.1.11.16h.03c.05.05.11.11.16.18.07.05.14.11.21.16.08.09.18.14.29.19v.03c.07.04.15.09.23.13.02,0,.07,0,.1,0v.07c.09.04.19.08.29.12.06.02.12.03.19.05.12.08.26.1.39.16.08,0,.15.01.23.02v.06c.16.01.31.02.46.01l-.03-.09c.38.02.77.03,1.15,0,.26-.08.54-.08.81-.13v-.05c.1-.01.21,0,.3-.07.02,0,.06.02.08.02,0-.05,0-.15,0-.2.22,0,.44-.02.66-.06,0-.02,0-.05,0-.07.21-.01.4-.09.59-.15l-.02-.04c.13-.04.26-.09.38-.16.11.4.09.83.23,1.23.01,0,.03,0,.04,0,.02.17.08.34.15.49.12.27.24.53.34.81.14.24.45.17.68.19,0-.04-.03-.11-.03-.14.04,0,.12,0,.16.01v-.07c.07,0,.15-.02.24-.03,0-.04,0-.12,0-.16.26-.06.18-.35.12-.53.03,0,.1,0,.13.01.05.09.11.17.16.26.08.09.15.19.22.28.16.22.45.13.68.13,0-.04-.01-.13-.02-.18.05,0,.14-.02.18-.03-.02-.08-.06-.14-.13-.19.07-.23.19-.44.24-.67.14-.03.29-.06.25-.25-.03,0-.1,0-.13,0-.03-.17-.06-.34-.09-.51-.02-.06-.04-.12-.05-.19-.15-.19-.33-.35-.5-.52-.1-.1-.2-.2-.3-.31-.05-.06-.1-.13-.15-.19-.06-.12-.11-.25-.14-.38l-.05.02c0-.28-.06-.56-.14-.83-.1-.16-.11-.36-.25-.5-.03-.08-.05-.16-.08-.24-.3-.02-.61-.07-.9-.14v-.05c-.12-.04-.26-.09-.39-.14v-.05c-.09-.05-.17-.1-.26-.15v-.03c-.06-.05-.1-.12-.15-.19-.13-.1-.14-.27-.17-.42h-.05c-.08-.51-.09-1.03-.13-1.55h.13s0-.05,0-.05c.27-.02.52-.12.79-.15v-.05c.07,0,.15-.01.23-.02.16-.06.32-.09.49-.12l-.02-.05c.25-.02.48-.11.72-.15v-.05c.07-.01.17-.02.25-.06.22-.1.45-.18.69-.22-.21-.05-.42-.1-.62-.16.32-.11.66-.17,1-.19.16-.01.3-.07.45-.11.17-.06.36-.09.54-.12v-.06s.13,0,.17-.01c.13-.07.27-.09.42-.12v-.06s.12-.01.16-.01c.31-.12.61-.24.93-.33,0-.01,0-.04,0-.05.16-.04.32-.1.47-.18.12-.04.24-.09.35-.15.12-.07.25-.11.38-.18.01,0,.05,0,.06,0,.06-.04.13-.08.2-.12.22-.13.44-.24.66-.37-.19.01-.39.03-.58.05,0-.03,0-.1.01-.13.12-.04.24-.07.36-.1.04,0,.12-.03.17-.04v-.05c.14-.04.28-.1.4-.19.09-.05.19-.1.28-.15.1-.07.21-.14.31-.21.06-.05.13-.1.19-.16.01,0,.04,0,.06-.01.2-.16.38-.34.57-.5.12-.12.23-.25.36-.37.02-.03.05-.09.07-.12.03-.02.09-.05.11-.07,0-.03.03-.1.03-.13-.02,0-.06,0-.09,0l.02.11-.1-.04s-.03.07-.04.1h-.06s-.12.05-.16.08c.05-.07.11-.14.16-.2.04-.08.08-.15.12-.23.02-.02.07-.05.09-.07.05-.16.1-.32.19-.47.02-.06.03-.13.04-.19.07-.45.22-.89.22-1.36,0-.43.02-.87-.04-1.3-.28,0-.56,0-.84.04,0-.03.01-.09.01-.12.13-.05.26-.09.38-.14l.12-.04c-.74-.26-1.54-.15-2.3-.16.05-.14.2-.16.31-.21l-.02-.05c.06-.02.12-.03.18-.05-.18,0-.36.03-.54.06,0,.02,0,.05,0,.06-.04,0-.13,0-.17,0-.07.03-.14.05-.21.08-.18.08-.35.17-.53.24v.04c-.11.05-.22.11-.32.19-.14.1-.28.21-.41.33h-.05s0,.08,0,.11l-.1-.05c-.02.07-.04.13-.07.2,0-.09,0-.27,0-.36-.21.28-.5.5-.7.78-.07.08-.13.17-.2.25-.12.18-.24.36-.37.54-.06.12-.13.24-.21.36-.04.07-.08.15-.14.22,0,.01,0,.04,0,.05-.12.17-.24.34-.38.5-.05.07-.11.14-.16.22-.32.31-.64.62-.99.89-.1.08-.2.15-.28.24-.09.04-.19.07-.28.1.18-.1.17-.33.23-.5l.07.02c-.01-.08-.03-.15-.04-.23-.01.05-.03.09-.04.14-.19.14-.35.32-.53.46-.07.05-.14.11-.22.16-.1.07-.21.14-.3.22-.09.05-.18.11-.27.16-.08.05-.17.1-.25.16-.23.14-.46.26-.69.39-.12.06-.25.11-.38.16v.04c-.13.05-.26.1-.39.14v.05c-.3.08-.57.25-.87.35-.15.09-.32.13-.49.18v.05c-.06.02-.13.03-.19.06-.22.11-.45.2-.68.28-.05,0-.15,0-.21,0,.06-.06.13-.12.19-.19-.11,0-.22,0-.33,0-.02-.03-.05-.09-.07-.12-.18,0-.36,0-.54.01-.05,0-.15,0-.19,0-.29.02-.58-.03-.87-.04-.71,0-1.43-.02-2.14,0,.7,0,1.4,0,2.1,0,.01,0,.03,0,.04,0,.14,0,.28,0,.42,0,.22,0,.4-.15.59-.23-.33.04-.67.08-1,.04-.92.03-1.85-.11-2.75.09-.07.01-.14.02-.21.04-.22.09-.47.06-.69.16-.08,0-.16.02-.23.02v.05c-.15.02-.3.05-.45.07v.06s-.12,0-.16.01c-.13.07-.28.09-.43.12l.02.04c-.19.05-.4.07-.56.18-.18.06-.36.11-.54.17v.05c-.15.03-.3.09-.46.14v.04c-.15.04-.31.09-.45.15v.05c-.29.06-.55.24-.83.35-.11.06-.23.11-.35.16-.11.05-.23.11-.33.19-.03,0-.09.02-.12.03-.11.05-.23.1-.35.14v.04c-.13.05-.26.09-.39.14v.05c-.15.04-.3.1-.45.15l.02.04c-.13.03-.25.07-.37.12-.04,0-.12.02-.16.02v.06c-.34.03-.66.15-1,.14-.52,0-1.03.03-1.55-.01-.14-.08-.3-.1-.44-.18-.06-.02-.13-.04-.19-.06-.2-.05-.41-.08-.62-.1v-.06s-.13,0-.17,0c-.04-.01-.11-.04-.15-.05,0-.08,0-.16,0-.24-.06-.14-.12-.28-.19-.41h-.04c-.04-.05-.08-.1-.13-.15-.09-.18-.2-.34-.32-.49-.04-.05-.07-.1-.11-.15-.05,0-.11.02-.16.03-.02-.09-.04-.19-.06-.28-.04.15-.08.29-.16.42-.05.1-.09.2-.12.31h-.04c-.03.1-.06.21-.13.29,0,.04-.01.12-.02.16h-.06c-.07.36-.06.72-.07,1.08-.09.01-.14.08-.18.14-.03.02-.09.05-.12.07-.16.2-.36.37-.49.59h-.03c-.05.07-.11.15-.16.23-.05.06-.1.12-.15.18-.08.11-.17.22-.27.31-.06.07-.11.15-.17.22-.04.07-.09.14-.13.22h-.04c-.05.1-.1.21-.14.32h-.04c-.06.16-.13.33-.15.52l-.05-.02c0,.17.03.37-.18.42-.06.07-.11.14-.17.21-.08.12-.1.26-.06.4.11.04.21.09.32.14Z"/>
  </g>
</svg>