<?xml version="1.0" encoding="UTF-8"?>
<svg id="Layer_2" data-name="Layer 2" xmlns="http://www.w3.org/2000/svg" viewBox="0 0 33.94 16.78">
  <defs>
    <style>
      .cls-1 {
        stroke-width: 0px;
      }
    </style>
  </defs>
  <g id="Layer_1-2" data-name="Layer 1">
    <path class="cls-1" d="m6.78,1.72c.13-.08.32-.29.29.09,0,.14.13.1.2.14.28.15.46.41.69.62.09.09.18.17.32.1.06-.03.58.09.64.14.07.07.08-.02.11-.04.36-.28.8-.17,1.19-.27.06-.02.12.02.16.08.21.33.5.23.79.14.05-.01.36.11.37.16.04.29.28.33.47.31.39-.03.77.07,1.15.11.53.06.54.07.5-.45.36.11.69.15.95-.21.05-.07.17-.03.26-.03.31,0,.53.36.85.22.44-.19.81.12,1.22.11.4-.01.79.13,1.2.07.22-.03.5-.03.72.12.1.07.21.07.32.04.13-.03.29-.05.38.03.24.2.51.02.76.07.21.04-.05-.15.06-.2.11.02.19.11.28.17.15.11.24.37.5.21.02,0,.06.01.08.03.19.2.42.24.69.2.2-.03.32.09.48.2.31.23.65.45,1.08.35.04,0,.1.05.15.09.1.07.21.15.3,0,.04-.06.12-.06.17-.04.27.12.6.06.82.3.08.08.18.15.29.16.52.04.94.37,1.44.46.11.02.19.13.28.17.13.06.24.36.47.08.06-.07.34-.12.5.07.17.2.38.36.49.61.05.11.12.07.2.03.1-.05.18-.16.16-.24-.09-.38.22-.62.38-.83.17-.22.28-.41.33-.66,0-.04.02-.09.07-.09.07,0,.1.05.14.1.22.33.42.67.43,1.09,0,.22.03.22.21.28.22.09.38.41.33.67-.06.32-.12.65-.22.95-.16.46.04.77.26,1.12.14.22.3.42.52.59.37.29.51.71.52,1.18,0,.32.16.51.46.62.17.06.28.23.41.35.31.29.7.35,1.07.48.08.03.15.05.22.09.13.08.17.1,0,.25-.32.29-.63.21-.96.12-.3-.08-.61-.13-.92-.18-.26-.04-.34.06-.31.29,0,.07.02.14.03.21.08.49.01.6-.46.76-.11.04-.16.12-.21.2-.1.16-.21.31-.35.46-.03-.17.12-.25.17-.39.02-.06.07-.12,0-.17-.06-.05-.12,0-.16.04-.25.27-.49.54-.68.86-.08.13-.04.24.04.37.33.53.8.92,1.29,1.27.13.1.29.16.29.36-.1.09-.2-.15-.29,0-.07.11.08.2.02.34-.16-.12-.29-.1-.42.07-.09.11-.25-.07-.4.05-.15.12-.34-.12-.55-.06-.24.07-.33-.15-.44-.3-.12-.15-.24-.3-.4-.41-.3-.22-.52-.53-.56-.88-.06-.54-.38-.9-.76-1.2-.6-.47-1.25-.87-1.88-1.3-.16-.11-.34-.33-.43-.34-.41-.05-.33-.55-.68-.64-.12-.03.03-.12.02-.19-.05-.63-.41-1.1-1.03-1.29-.51-.16-1.02-.35-1.54-.49-.23-.06-.38-.07-.54.16.05-.19,0-.32-.17-.28-.19.04-.54-.21-.51.3-.13-.29-.69-.29-.93-.03-.09-.05.04-.22-.13-.22-.22,0-.16.23-.27.32-.11-.05-.05-.17-.11-.23-.05-.05-.14-.14-.16-.11-.12.22-.27.11-.42.08-.08-.02-.22.1-.17-.12,0-.02-.19-.04-.28.01-.18.11-.36.11-.55.07-.06-.01-.14-.03-.18,0-.26.18-.49.02-.73-.04-.04-.01-.08-.03-.11-.04-.6-.2-.8-.09-.9.52,0-.14,0-.28,0-.41,0-.12,0-.27-.17-.27-.17,0-.14.15-.14.26,0,.18,0,.36-.06.54,0-.18,0-.36,0-.53,0-.21-.12-.29-.3-.2-.52.28-1.07.42-1.65.53-.12.02-.23.13-.35.18-.74.32-1.46.23-2.19-.06-.05-.02-.12-.07-.12-.09.06-.3-.26-.4-.34-.63-.08-.23-.24-.01-.31.03-.34.22-.71.41-1.06.62-.24.14-.45-.01-.67.06-.12.04-.22.07-.31.15,0,0-.02.01-.02.02.02.27-.38-.12-.32.2-.16.02-.28.14-.45.16-.13.02-.17-.1-.3-.07-.4.08-.83-.07-1.22.11-.05.02-.43-.2-.49-.22-.14-.03-.18-.08-.16-.23,0-.05-.16-.08-.22-.04-.22.17-.39-.03-.51-.1-.11-.07-.12-.11-.21,0-.17.22-.31.06-.46-.05.06-.09.23-.06.23-.21-.32.02-.34-.01-.31-.42-.35.1-.19.4-.28.62,0-.24-.04-.39-.33-.39-.17,0-.35-.14-.52-.23-.16-.09-.29-.21-.09-.4.11-.11,0-.13-.08-.15-.11-.04-.18.08-.31.08.03-.31.1-.64-.19-.88.13-.3-.09-.27-.27-.29-.06,0-.07-.06-.06-.12.02-.1-.03-.18-.09-.25-.12-.15-.41-.24-.12-.49.03-.03-.03-.03-.05-.04-.22-.2-.28-.47-.31-.74,0-.06.03-.11,0-.17-.3-.47-.36-.88-.53-1.24-.11-.24-.05-.6-.42-.74-.21-.08.09-.14.08-.29-.05-.04-.14-.12-.22-.19.24-.18.23-.21-.02-.44-.08-.07-.05-.25-.21-.28-.03,0,0-.09.06-.1.09-.02.18-.05.27-.05.2,0,.19-.16.11-.23-.24-.19,0-.33.05-.45.08-.23.22.07.37,0-.06-.07-.09-.17-.1-.27,0-.05,0-.1.01-.15.04-.2.32.06.32-.15,0-.33.22-.02.29-.12.02-.09-.1-.1-.1-.19.2-.04.39-.13.54-.29.08-.09.15-.17.28-.04.07.06.16.09.23-.07.04-.09.26-.08.24-.31.17.16.23.34.45.37.13.02.14-.01.14-.09,0-.11,0-.22.16-.13.09-.21.3-.26.49-.34.02.06.04.14.07.24.11-.09.09-.22.14-.32.1.21.18.4.46.21.14-.1.1.11.2.13.08-.28.21-.31.48-.14.18.12.46.08.55.36.02.07.11.01.16.02.22,0,.5-.04.38.35-.02.07.02.1.08.09.14-.03.16.05.16.15,0,.02,0,.06.01.06.44-.01.11.34.26.51Z"/>
  </g>
</svg>