<?xml version="1.0" encoding="UTF-8"?>
<svg id="Layer_2" data-name="Layer 2" xmlns="http://www.w3.org/2000/svg" viewBox="0 0 31.82 33.94">
  <defs>
    <style>
      .cls-1 {
        stroke-width: 0px;
      }
    </style>
  </defs>
  <g id="Layer_1-2" data-name="Layer 1">
    <path class="cls-1" d="m5.27,15.75c-.96.36-2.04.44-2.89,1.07-.97.71-1.63,1.74-2.22,2.77-.27.38-.2.91.18,1.19.84.65,1.91.86,2.88,1.24.81.33,1.87.59,2.22,1.48,0,.8-.2,1.61-.49,2.35-.23.59-.93.64-1.44.86-.45.23-.44.79-.49,1.22.74-.04,1.34-.51,1.99-.82,1.97-1.07,2.76-3.49,4.83-4.43-.63.6-1.29,1.19-1.7,1.97-1.44,2.39-.94,5.67,1.06,7.6-.49-.75-.95-1.54-1.12-2.43-.47-2.1.5-4.43,2.32-5.59,1.29-.87,2.97-1.11,4.46-.68-1.07-.06-2.17.07-3.12.58-1.83.9-3.06,2.93-2.94,4.97.34,2.62,2.73,4.92,5.43,4.85,3.27-.16,6.55-1.19,9.15-3.22,2.9-2.2,4.91-5.37,6.26-8.71,1.42-3.61,2.38-7.48,2.15-11.39-.2-3.62-.9-7.25-2.25-10.63-.13,3.03-.85,6.03-2.2,8.75-1.42,2.96-3.5,5.58-4.63,8.69-.89,2.5-1.53,5.08-1.99,7.7-.27,1.58-.6,3.15-1.22,4.63.05-.58.18-1.15.22-1.72.08-1.43-.39-2.87-1.29-3.98-1.21-1.54-3.1-2.42-5.01-2.72-1.13-.24-2.39-.23-3.34-.99-1.01-.79-1.66-1.92-2.54-2.84-.74-.71-.52-1.84-.47-2.76-.57.39-1.16.76-1.81.99Zm-3.86,2.94c.22-.52.67-.87,1.21-1-.18.53-.61,1-1.21,1Z"/>
  </g>
</svg>