<?xml version="1.0" encoding="UTF-8"?>
<svg id="Layer_2" data-name="Layer 2" xmlns="http://www.w3.org/2000/svg" viewBox="0 0 33.94 26.71">
  <defs>
    <style>
      .cls-1 {
        stroke-width: 0px;
      }
    </style>
  </defs>
  <g id="Layer_1-2" data-name="Layer 1">
    <path class="cls-1" d="m33.71,16.88c0-.8-.42-1.51-.7-2.24-.22-.35-.43-.7-.63-1.06-.03-.03-.09-.1-.12-.13-.12-.16-.23-.32-.35-.48v-.07h-.08c-.31-.4-.67-.77-1.08-1.06v-.07s-.06-.02-.06-.02c-.18-.14-.36-.28-.53-.42-.3-.2-.59-.42-.88-.63-.13-.11-.26-.22-.39-.33-.38-.35-.77-.7-.98-1.17l-.07.04c-.31-.87-.44-1.97.3-2.67.41-.23.83-.46,1.25-.69v-.03c.1-.16.18-.32.27-.48l.08.02c.26-.74.23-1.55,0-2.29-.02,0-.07,0-.1-.01-.2-.89-.96-1.46-1.64-2-.23-.11-.46-.23-.69-.33l.02-.07c-.21-.06-.41-.13-.61-.19-.15-.05-.3-.09-.45-.13l.02-.07c-.38-.07-.77-.13-1.16-.16V.05c-1.31-.06-2.64-.06-3.96,0v.1c-.38.03-.76.09-1.15.15l.02.11c-.08,0-.25.02-.33.02-.28.12-.57.21-.84.34-.19.1-.39.21-.58.31-.2.15-.4.29-.6.45-.14.12-.27.24-.4.37-.12.13-.24.26-.36.4-.29.39-.51.82-.72,1.25,0,.08-.01.25-.02.33l-.12-.03c-.18.95-.35,1.91-.23,2.88.13.44.17.9.25,1.36l.07-.05c.1.37.21.74.39,1.08.13.25.25.51.39.76.48.84,1.08,1.62,1.72,2.34.13.12.25.25.37.38.28.29.57.58.86.87-1.03-.22-2.09-.16-3.12,0-.54.2-1.12.26-1.67.44-.08,0-.25.02-.33.03l.05.11c-.42.05-.83.11-1.23.23-.68.24-1.4.27-2.12.32l.02.09c-.43,0-.87,0-1.3,0l.02-.09c-.43-.01-.86-.09-1.28-.15v-.09c-.29-.11-.58-.22-.87-.33.03-.55-.07-1.1-.28-1.61-.17-.11-.33-.22-.5-.32v-.07c-.13,0-.39,0-.52,0v.15s-.12-.02-.16-.02c-.14.1-.27.2-.41.29-.27.36-.46.78-.45,1.24-.05,0-.16,0-.22-.01-.13-.46-.17-.97-.54-1.31-.13,0-.26,0-.39,0-.47.43-.36,1.1-.4,1.67-.18.11-.36.22-.54.34-.16.1-.32.19-.48.29-.2.12-.42.23-.63.33-.7.49-1.19,1.19-1.68,1.87l-.05-.02c-.1.18-.21.36-.31.54-.05.04-.15.11-.19.14-.09.15-.19.3-.3.45-.02.2-.03.41-.04.61.11.17.22.34.33.52.31.21.56.51.73.85.27.04.55.07.83.09.11.17.24.4.49.37.8.05,1.61-.05,2.41.03l-.06.1c.51.03,1.03.12,1.48.37.32.22.63.46.92.72.1.09.21.17.31.26.01.03.03.08.04.11.2.41.1.87.08,1.31-.05.51.03,1.04-.08,1.55-.01.02-.03.07-.04.09-.15.14-.29.28-.42.43-.19.15-.39.29-.61.39-.38.04-.77.04-1.15.12.02.06.06.19.08.26-.16.05-.31.11-.46.17.11.11.23.22.34.33.89.04,1.79.06,2.67-.15.16-.04.31-.07.47-.1-.01-.02-.03-.06-.04-.08.3-.05.59-.12.86-.26.03,0,.08-.02.1-.02.41-.22.81-.46,1.22-.66l-.02-.11.15.02v-.08c.14-.09.28-.18.42-.28.14-.12.28-.23.42-.34.12-.15.25-.3.37-.46,1.07-.02,2.15.04,3.22.04v.11c.52-.01,1.06-.01,1.6,0l-.05-.11c.5,0,1-.01,1.5-.02.06.17.12.34.18.52l.05-.04c.14.22.3.43.5.59.1.1.21.21.31.31,0,.07.01.19.02.26-.14.08-.27.16-.41.24-.39,0-.77,0-1.16.02l.03.11c-.17.04-.33.08-.5.13-.04.11-.13.32-.17.43,1.77-.06,3.54-.05,5.31-.03.94,0,1.89.05,2.81-.16.33-.15.68-.28,1.02-.41.22-.17.45-.31.66-.49.34-.38.89-.18,1.34-.22l-.04-.11c.26,0,.52-.02.77-.03v-.1c.26-.04.52-.09.78-.14l-.02-.08c.3-.08.59-.21.86-.36.21-.14.42-.26.62-.4.17-.13.34-.26.5-.39.13-.13.25-.26.37-.38.12-.11.24-.22.36-.33l-.03-.03c.1-.13.21-.26.31-.38.15-.17.26-.37.35-.58l.07.02c.11-.26.22-.52.32-.79l.06.03c.07-.25.15-.5.25-.73.02-.19.04-.38.06-.57.03,0,.08.03.11.03.17-1.07.17-2.17,0-3.24-.03.01-.07.03-.1.04Z"/>
  </g>
</svg>