<?xml version="1.0" encoding="UTF-8"?>
<svg id="Layer_2" data-name="Layer 2" xmlns="http://www.w3.org/2000/svg" viewBox="0 0 33.94 21.2">
  <defs>
    <style>
      .cls-1 {
        stroke-width: 0px;
      }
    </style>
  </defs>
  <g id="Layer_1-2" data-name="Layer 1">
    <path class="cls-1" d="m.29,3.6c.76-.21,1.68-.12,2.24.5.61.67.7,1.62.77,2.49.66.08,1.43.05,1.95.54.01.32-.34.3-.56.34-.65.03-1.31-.01-1.96,0-.67,0-1.36.09-2-.16.46-.75,1.47-.62,2.23-.72-.06-.6-.18-1.27-.68-1.67-.55-.49-1.32-.5-2.01-.57-.35-.09-.35-.7.03-.75Zm7.94,8.41c.41-.3.85-.54,1.28-.81-1.57.24-3.36.29-4.59-.87-.17.19-.32.39-.46.6,1.08.79,2.41,1.38,3.78,1.07Zm-3.54-5.27c1.03.35,2.13.48,3.21.54-.41.39-.66.9-.92,1.38-.24.46-.85.35-1.24.2-.67-.29-1.33-.59-2.01-.85.47,0,.89.21,1.32.37-.06-.17-.17-.5-.23-.67-1.09.02-2.17-.02-3.26.02-.27.91-.35,2.03.32,2.79-.09.05-.26.15-.35.19.42.46,1.14.54,1.45,1.1.23-.33.59-.51.94-.69.41-.21.66-.61.9-.99-.62-.63-1.57-1.22-1.56-2.21.19.36.29.77.58,1.07.9,1.04,2.07,2.02,3.5,2.1,1.77.16,3.69-.88,5.32.19-1.59-.38-3.38,0-4.56,1.17-1.33,1.24-1.8,3.28-1.19,4.98.35,1.09,1.17,1.91,2.05,2.6-.88.2-2.21.16-2.56,1.17,1.9-.01,3.8,0,5.7,0,.43,0,.81-.23,1.23-.28,2.58-.19,5.06-1.27,7.11-2.83,2.95-2.25,4.94-5.7,5.46-9.38.09-.81.38-1.68,1.11-2.13.95-.58,2.1-.36,3.14-.23-1.01-.39-2.08-.86-3.18-.61-.69.1-1.27.5-1.76.97.64-1.25,1.91-2.25,3.37-2.18,2.06.1,3.77,1.39,5.34,2.6-.85-1.67-1.92-3.25-3.24-4.59C29.39,1.21,27.69.11,25.79.01c-1.78-.12-3.5.78-4.61,2.12-1.69,2-2.32,4.69-2.33,7.26.08,1.41.19,2.84.04,4.25-.15,1.48-.59,3.04-1.76,4.05.5-1.1.64-2.36.29-3.53-.49-1.73-1.78-3.11-3.21-4.14-1.44-1.02-2.7-2.36-3.34-4.02-.69-1.72-.62-3.67-.01-5.4-1.03.17-1.8.95-2.27,1.84-.86-.13-1.77.04-2.48.57-.85.58-1.35,1.5-1.92,2.33-.14.24-.43.48-.32.79.15.32.52.47.83.59Zm6.01-2.22c.59-.72,1.16-1.48,1.89-2.07-.59-.27-1.27-.28-1.88-.08-.2.69-.1,1.44-.01,2.14ZM1.12,9.95s.12-.04.17-.05c-.05-.77-.1-1.54.15-2.29-.7.51-.48,1.59-.32,2.34Z"/>
  </g>
</svg>