<?xml version="1.0" encoding="UTF-8"?>
<svg id="Layer_2" data-name="Layer 2" xmlns="http://www.w3.org/2000/svg" viewBox="0 0 33.94 23.05">
  <defs>
    <style>
      .cls-1 {
        stroke-width: 0px;
      }
    </style>
  </defs>
  <g id="Layer_1-2" data-name="Layer 1">
    <path class="cls-1" d="m33.73,6.66c-.13-.07-.3-.14-.27-.31.05-.32.24-.65-.12-.92.29-.28-.43-.43-.09-.72-.24-.2-.56-.15-.84-.26-.14-.05-.29-.08-.42-.13-.44-.16-.48-.28-.23-.68.06-.09.18-.21.04-.26-.21-.07-.3-.39-.59-.28-.04.02-.15.04-.15-.07,0-.06-.06-.16.07-.19.07-.02.2-.02.17-.17-.44-.13-.56-.29-.55-.73,0-.07-.08-.2-.11-.2-.4.06-.61-.55-1.07-.31-.05.03-.35-.11-.35-.29,0-.24-.14-.2-.27-.18-.19.02-.25-.04-.17-.22.04-.09.09-.18-.02-.25-.13-.09-.19.03-.27.09-.1.08-.17.29-.33.08-.25.2-.15-.22-.36-.19-.28.03-.57.08-.78.23-.32.22-.13-.15-.23-.17-.4.31-.4.32-.57-.12-.1-.27-.27-.28-.45-.13-.15.12-.28.09-.29-.07-.02-.33-.14-.21-.29-.1-.2.13-.39.2-.46-.12-.41.36-.92.46-1.38.67-.21.09-.45.09-.63.21-.18.11-.17.58-.56.28,0,0-.08.04-.08.07-.06.38-.38.34-.62.36-.18.02-.23.09-.26.23-.06.3-.13.59-.21.92-.16-.2.12-.52-.1-.55-.26-.04-.39.28-.54.48-.07.09-.12.21-.16.32-.03.09-.04.2-.14.23-.26.07-.26.27-.28.48-.02.19-.06.37-.09.55-.09.03-.1-.05-.14-.08-.19-.1-.54-.15-.57-.04-.14.54-.65.9-.67,1.49,0,.14-.11.32-.23.41-.53.39-.51,1.03-.74,1.55-.07.15-.06.35-.15.52-.16.32-.47.53-.57.92-.08.34-.18.7-.33,1.03-.09.2-.27.31-.4.17-.18-.19-.43-.24-.6-.37-.22-.18-.55-.11-.7-.35-.15-.22-.37-.32-.6-.37-.51-.11-.96-.39-1.47-.53-.61-.16-1.19-.35-1.84-.33-.92.03-1.81.14-2.61.62-.21.13-.49.02-.49-.06.01-.27.08-.58.23-.8.14-.2.42-.31.71-.52-.32,0-.29-.24-.5-.38.61-.08.86-.54,1.1-.89.28-.4.47-.86.86-1.18.06-.05.12-.12.1-.21-.03-.11-.12-.07-.2-.07-.19,0-.37,0-.56,0-.05-.34.36-.27.52-.53-.42.11-.75-.13-1.11.01.3-.23.68-.3.86-.51-.57-.64-1.22-.29-1.9-.13.05-.09.06-.1.07-.11.39-.1.4-.51.62-.75.07-.08.03-.19-.05-.17-.25.05-.58-.04-.72.02-.35.16-.7.19-1.06.28,0-.17.2-.2.19-.42-.18.17-.32.3-.46.43-.08.07-.14.19-.27.15-.16-.06.08-.22-.06-.31-.17.14-.33.27-.49.41-.04-.35-.12-.38-.47-.16-.08.05-.14.16-.24.08-.11-.09-.03-.2.01-.29.05-.14.25-.23.14-.42-.26,0-.25.46-.53.33-.24-.12-.02-.41-.11-.61-.32.11-.32.64-.77.55-.14.33-.45.6-.55.89-.41,1.28-.79,2.57-.78,3.94,0,.34-.11.62-.27.91-.22.39-.61.65-.78,1.07-.28.66-.46,1.35-.84,1.96-.06.1-.04.19-.03.27.03.14.08.25-.13.28-.08.01-.15.06-.1.17.04.08.1.07.16.03.18-.13.19,0,.27.13.13.21.06.4-.02.6.57-.03,2.15.9,2.27,1.34.04-.11.03-.39.21-.11.1.16.2.32.28.49.22.44.62.76.78,1.21.29.85.46,1.74.48,2.65,0,.3-.08.54-.23.79-.39.62-.85,1.21-.96,1.97-.02.12-.13.26.06.34.32.13.99-.05,1.2-.32.05-.06.09-.13.18-.15.39-.09.45-.41.43-.72-.01-.22.03-.4.16-.56.24-.29.51-.55.83-.75.32-.2.73-.08.91.24.32.56.26,1.22.51,1.8.06.15-.06.31-.16.44-.24.34-.36.75-.68,1.07.25-.05.38.03.51.2.13.16.33.26.53.25.4-.02.8-.08,1.2-.14.13-.02.22-.11.24-.24.03-.27.21-.35.44-.4.17-.04.34-.09.5-.15.12-.05.24-.14.04-.25-.34-.18-.11-.28.05-.37.78-.43,1.61-.71,2.52-.7.25,0,.5-.03.69-.18.26-.22.54-.39.89-.44.11-.02.21-.1.21-.21-.02-.44.3-.6.62-.75.97-.47,1.68-1.24,2.22-2.14.25-.42.57-.81.74-1.3.1-.28.11-.58.26-.86.17-.31.12-.76.61-.85.06-.01.18-.06.14-.11-.2-.29.12-.33.24-.45-.09-.07-.16-.11-.23-.16.59-.18,1.22-.15,1.67-.69,0-.08-.2,0-.21-.1.33-.18.58-.49.96-.55.03-.03.05-.06.08-.09,0-.02.02-.04.02-.05-.13-.07-.27-.09-.21-.29.05-.16.2-.19.33-.17.07.01.13.02.2.02.25-.24.58-.4.93-.42.11-.11.2-.23.29-.37.07-.1.15-.11.22-.1.05-.06.11-.11.17-.16,0,0-.01-.01-.02-.02.03-.04.08-.06.14-.07.06-.04.13-.08.2-.11,0-.02,0-.04,0-.07-.02-.09-.09-.14.05-.12.32.04.5-.15.69-.35.47-.5,1.03-.82,1.73-.79.81.04,1.39.54,1.89,1.08.66.7.68.78,1.42.93.02,0,.05.06.05.06.27-.23.67.55.89-.11,0-.02.1-.01.15-.01.21,0,.38.09.63.27-.12-.32.03-.39.22-.45.18-.06.61.09.42-.39,0-.02.05-.08.06-.08.27.09.37-.18.55-.27.39-.17.64-.73.54-1.15-.01-.06-.02-.16.01-.19.34-.33.56-.71.67-1.17.07-.26.2-.53-.13-.72Z"/>
  </g>
</svg>