<?xml version="1.0" encoding="UTF-8"?>
<svg id="Layer_2" data-name="Layer 2" xmlns="http://www.w3.org/2000/svg" viewBox="0 0 33.94 27.71">
  <defs>
    <style>
      .cls-1 {
        stroke-width: 0px;
      }
    </style>
  </defs>
  <g id="Layer_1-2" data-name="Layer 1">
    <path class="cls-1" d="m32.19,12.26c0-.1,0-.19.01-.29-.03-.04-.1-.11-.13-.14.13.08.24.19.22.37.04,0,.11-.02.15-.02,0,.12-.07.2-.14.28l-.02-.21-.09.03ZM.36,22.77c.09.03.19.07.28.11.09.15.26.24.38.36.16.05.33.07.47.17.27.03.55.03.82.02.14.06.28.13.41.22.17.14.42.13.61.24.21.03.43.03.64,0,.22-.14.55-.08.71-.32.18-.04.36-.03.51.09.07.07.13.15.2.23.28.53.3,1.16.29,1.75h-.07c0,.14,0,.27-.01.39-.03.04-.08.11-.1.15-.13.01-.27.03-.4.04-.18.06-.38.1-.55.2-.22.06-.44.13-.63.25-.12.05-.24.11-.35.19-.08.05-.16.11-.24.16-.07.09-.16.18-.25.25-.08.14-.15.29-.21.44,1.7,0,3.4,0,5.11,0,.34-.24.6-.59.84-.92.1-.12.19-.25.28-.37.06-.12.13-.23.19-.35.09-.15.17-.31.24-.47.08-.17.13-.35.2-.52,0-.05.03-.14.04-.18.1-.26.11-.55.15-.83.09-.13.17-.27.28-.38.18-.06.37-.03.55-.01.3.12.57.29.85.46.14.07.28.14.4.24.18.08.37.14.57.2.11.09.27.11.41.16.41.2.78.52.92.97-.03.04-.09.12-.12.16-.04,0-.13.02-.17.03-.18.1-.36.18-.53.3-.13.11-.25.22-.36.35-.05.09-.1.18-.16.27-.02.18-.03.35-.04.53,1.22,0,2.45.02,3.67-.02.18-.15.33-.32.45-.53.2-.27.35-.57.49-.87.09-.19.2-.38.37-.51.08-.05.16-.09.24-.14.14-.09.29-.16.43-.24.47-.26,1.15-.28,1.52.16.04.09.09.18.17.25,0,.04.02.12.03.16.04.07.07.14.11.21-.35.08-.74.13-1.03.36-.09.07-.18.13-.27.2-.06.09-.13.18-.2.27-.08.12-.14.25-.2.38,0,.08-.02.23-.03.31,1.55,0,3.1,0,4.66,0,.15-.35.43-.62.57-.97.36-.07.7.04,1.05.11.82.07,1.65.19,2.47.1.39-.08.79-.05,1.18-.14.33-.12.71-.12,1.02-.29.22-.07.44-.12.64-.24.17-.06.34-.12.48-.23.35-.16.65-.4.96-.61.51-.41,1-.88,1.35-1.44.1-.11.19-.24.28-.36.06-.12.13-.24.19-.36.1-.13.16-.28.22-.42.1-.18.17-.36.26-.54.08-.18.13-.37.17-.56-.31.34-.64.69-1.09.85v.05c-.25.06-.5.12-.75.16.06-.15.15-.28.25-.41.08-.09.14-.19.2-.3.03-.02.09-.07.12-.09.14-.24.29-.47.43-.71.06-.12.12-.24.18-.35.14-.29.29-.58.39-.89.03-.08.06-.16.09-.25.09-.22.11-.46.2-.68.01-.08.03-.17.04-.25.15-.49.12-1.01.14-1.52-.02-.53.02-1.07-.14-1.59-.02-.08-.03-.16-.05-.24-.09-.2-.1-.43-.19-.63-.09-.19-.15-.4-.2-.6h-.05c-.06-.19-.14-.38-.24-.56-.07-.15-.14-.3-.23-.43-.11-.18-.22-.36-.31-.56-.06.1-.13.2-.15.31.04.03.13.1.17.13-.06-.04-.12-.07-.18-.11-.07-.12-.14-.23-.21-.34-.14-.21-.26-.43-.43-.63-.39-.6-.88-1.13-1.34-1.67-.61-.62-1.24-1.23-1.96-1.72-.02-.03-.07-.09-.1-.12-.2-.12-.39-.25-.59-.37-.13-.09-.27-.16-.4-.24-.15-.09-.31-.17-.46-.25-.15-.1-.33-.15-.49-.24-.18-.09-.39-.13-.56-.24-.52-.17-1.04-.36-1.52-.63,0-.04-.02-.12-.02-.16.42-.03.84.03,1.25.12.18.07.37.11.56.15.13.05.25.09.38.14.16.04.32.08.48.14.2.1.43.15.64.24.16.09.33.14.5.2.14.12.31.17.48.23.14.11.3.18.47.25.13.09.27.16.41.23.14.1.28.19.42.29.1.06.2.13.3.2.07.07.15.11.23.16.12.12.26.22.39.33.15.14.3.28.45.42.18.2.36.38.53.58.06.1.12.19.18.29.11.15.19.31.27.47l.08-.08c.27-.72.21-1.5.22-2.25.02-.67-.16-1.33-.31-1.98-.11-.23-.15-.48-.24-.71-.1-.16-.15-.33-.21-.5-.09-.14-.16-.28-.23-.43-.18-.27-.32-.56-.52-.82-.25-.36-.54-.67-.84-.98-.09-.08-.17-.16-.25-.24-.18-.17-.37-.31-.57-.46-.12-.09-.25-.17-.39-.25-.08-.05-.16-.11-.24-.16-.09-.07-.19-.13-.3-.16-.29-.08-.55-.24-.84-.32-.18-.05-.35-.12-.5-.24.59-.11,1.18-.17,1.78-.16.16,0,.32-.03.48-.07-.54-.16-1.06-.42-1.63-.46v-.07c-.48-.06-.98-.14-1.47-.22-.48-.03-.96-.03-1.43,0-.36.08-.73.1-1.09.18-.04.02-.11.07-.15.09.02.08,0,.16-.1.14-.17-.03-.34-.03-.51,0-.25.09-.48.22-.74.3v.05c-.13.06-.26.12-.39.19-.13.09-.26.17-.37.27-.19.11-.34.25-.51.38v.04c-.18.12-.34.27-.47.44-.07.08-.15.17-.23.25-.07.08-.14.17-.22.25-.05.09-.11.17-.15.26-.03,0-.09.01-.12.02-.11-.27-.43-.39-.7-.34-.08.07-.16.13-.24.19-.06.1-.12.2-.18.29-.12.29-.19.6-.18.92,0,.68-.05,1.4.23,2.05.06.21.12.42.19.62h.06c.04.17.1.36.23.5.21.45.52.85.84,1.22.22.23.43.48.67.7.08.08.16.15.23.23.42.41.81.84,1.22,1.26.07.08.15.17.23.25.07.09.15.17.24.24.27.39.61.72.89,1.1.15.19.29.39.44.59.09.13.17.26.27.38.08.13.16.26.25.39.07.12.14.23.22.34.06.14.11.29.23.4.21.45.44.89.65,1.35.14.47.36.92.42,1.41h.06c.06.51.14,1.03.2,1.55.14.53-.03,1.07-.05,1.6-.1-.09-.14-.22-.2-.34-.21-.9-.67-1.73-1.12-2.53-.21-.34-.43-.67-.68-.99-.18-.19-.34-.41-.53-.59-.18-.19-.38-.36-.59-.53-.09-.07-.18-.14-.26-.23-.25-.14-.48-.3-.73-.45-.45-.24-.93-.4-1.41-.55-.24-.07-.5-.02-.72-.15-.85-.05-1.71-.05-2.56,0-.1.05-.2.08-.31.08-.6.03-1.17.24-1.76.37-.04,0-.12.02-.16.03-.22.14-.5.11-.72.25-.35.12-.69.26-1.02.44-.17.07-.34.13-.49.23-.29.16-.6.3-.88.48-.15.07-.31.14-.44.25-.14.06-.28.14-.4.24-.21.1-.4.25-.61.36-.13.09-.25.17-.37.27-.15.08-.29.16-.43.26-.1.06-.2.13-.3.19-.33.21-.62.47-.97.63-.02.04-.06.11-.08.15-.05,0-.15,0-.2.01-.31-.25-.68-.4-1.03-.56-.04-.02-.13-.06-.17-.08-.05,0-.14-.02-.19-.02-.03-.15-.07-.3-.11-.44-.13-.31-.09-.67-.23-.99h-.05c-.03-.12-.07-.23-.1-.34-.25-.17-.57-.17-.84-.05-.13.14-.24.3-.34.46-.08.17-.14.35-.18.53-.03.08-.06.16-.1.24-.07.24-.1.49-.13.73-.51.07-.99.26-1.47.43-.16.09-.33.15-.49.24-.22.12-.44.25-.64.4-.26.19-.49.42-.71.65-.08.09-.15.17-.23.25-.15.23-.29.46-.42.7-.12.34-.27.66-.43.98-.11.14-.18.3-.24.47-.26.35-.24.94.19,1.14Z"/>
  </g>
</svg>