<?xml version="1.0" encoding="UTF-8"?>
<svg id="Layer_2" data-name="Layer 2" xmlns="http://www.w3.org/2000/svg" viewBox="0 0 26.15 33.94">
  <defs>
    <style>
      .cls-1 {
        stroke-width: 0px;
      }
    </style>
  </defs>
  <g id="Layer_1-2" data-name="Layer 1">
    <path class="cls-1" d="m13.84.97c.74-.56,1.66-.86,2.57-.97-.68.33-1.25.84-1.84,1.29-.77.45-1.59.89-2.1,1.64.78-.76,1.66-1.44,2.66-1.88,1.48-.68,3.19-.84,4.77-.49-.91.06-1.8.34-2.59.79,1.14-.26,2.35-.33,3.5-.07.88.19,1.72.57,2.42,1.14-.86-.41-1.82-.59-2.77-.51-.46.03-.92.11-1.37.23,1.15-.07,2.33.09,3.4.55.93.4,1.75,1.04,2.33,1.87-.55-.38-1.09-.83-1.76-.99-.37-.1-.76-.09-1.14-.04-.05,0-.07.03-.08.06l.07-.03c.7.06,1.4.28,1.94.74-1.08-.25-2.18-.48-3.29-.4-.39.02-.78.1-1.16.18.93-.08,1.89-.1,2.78.24.9.34,1.85.74,2.43,1.55.06.09.13.17.13.28-.18-.16-.34-.34-.55-.47-.68-.43-1.53-.46-2.31-.39-.52.06-1.06.1-1.53.35-.55.28-.97.78-1.23,1.33-.32.68-.45,1.43-.47,2.17-.01.25.06.5.19.73-.07-1.02.09-2.09.67-2.95.42-.64,1.1-1.12,1.86-1.24.67-.12,1.35.04,1.98.28.42.15.84.33,1.16.65-.97-.36-2.04-.35-3.03-.08-.73.21-1.37.74-1.67,1.44-.48,1.07-.36,2.32.04,3.4-.25-.97-.23-2.03.12-2.98.24-.63.67-1.22,1.29-1.54.26-.14.55-.22.84-.26-.24.16-.49.31-.69.51-.62.57-.98,1.38-1.1,2.2-.16,1.04,0,2.13.45,3.08-.25-1.05-.19-2.18.25-3.17.31-.72.92-1.33,1.69-1.51-.26.26-.51.53-.7.85-.63,1.01-.77,2.27-.59,3.43.12-1.03.53-2.09,1.39-2.73-.29,1.27-.06,2.56,0,3.84.03.36,0,.72.02,1.08.3-1.24.7-2.46.94-3.72.07.02.11.09.11.16.1.74.24,1.48.29,2.23.08,1.27-.26,2.52-.62,3.73.14-.12.22-.3.32-.45.6-.97,1.1-2,1.55-3.05.03.64-.08,1.27-.21,1.89-.24,1.1-.56,2.19-1.1,3.19.72-.57,1.31-1.29,1.91-1.99-.38,1.35-1.1,2.56-1.75,3.79.69-.45,1.31-1,1.9-1.57-.27.83-.89,1.49-1.23,2.29-.15.37-.4.71-.44,1.12.54-.45.97-1.02,1.47-1.51-.5,1.02-.83,2.11-1.13,3.2-.04.17-.09.34-.12.51.37-.41.64-.88.89-1.37.01.05.03.09.02.14-.19.81-.46,1.59-.75,2.36-.08.22-.15.45-.08.68.55-.53.89-1.24,1.1-1.97.03.72-.37,1.36-.8,1.9-.21.23-.41.51-.36.85.34-.32.6-.71.87-1.08.1-.13.18-.26.3-.36-.03.27-.2.5-.36.71-.23.32-.5.61-.67.97.16.14.33,0,.49-.06.16-.04.27-.18.42-.25-.17.35-.44.63-.69.93-.08.13.07.13.16.11.19-.03.35-.12.52-.2-.13.3-.37.53-.62.73-.08.07-.18.13-.23.23.1.09.24.02.36.03-.11.16-.24.3-.34.47.12.23-.23.37-.22.61.06.04.2.04.17.15-.12.41-.34.79-.38,1.22-.02.17.01.35.04.52-.16.03-.29-.06-.42-.12.04.19.14.35.23.52-.27,0-.52-.11-.74-.26-.02.01-.06.03-.07.04l.07-.09-.12.03c-.33-.24-.6-.55-.88-.85.13.46.46.83.77,1.19-.21-.03-.41-.08-.58-.21-.32-.23-.5-.59-.74-.88.15.4.35.78.51,1.18-.06,0-.11-.02-.16-.06-.25-.2-.42-.48-.63-.71.2.41.35.87.24,1.33-.09.39-.41.7-.76.87-.49.23-1.04.3-1.57.3-2.43-.03-4.87-.11-7.3.03.19-.23.47-.33.74-.43-.72-.06-1.31.4-1.88.77,0-.35.15-.69.41-.92.43-.41,1.02-.6,1.6-.71,1.34-.23,2.7-.29,4.05-.2.24.02.52,0,.7.2.1-.03.2-.06.31-.08.1-.02.2.05.3.02.04-.03.13-.05.07-.11-.08-.04-.19-.05-.24-.14.15-.01.29-.01.44-.02-.1-.12-.22-.22-.33-.32-.56-.52-1.05-1.12-1.38-1.81-.25-.51-.38-1.08-.52-1.63-.17-.71-.25-1.45-.2-2.19-.15.51-.06,1.05.03,1.57.06.34.09.68.17,1.02.17.74.5,1.44.7,2.18-.25-.38-.52-.75-.73-1.15-.2-.36-.3-.75-.42-1.14-.31-1.05-.49-2.18-.27-3.27.06-.3.17-.59.26-.88-.29.6-.48,1.27-.47,1.94,0,1.13.48,2.19.72,3.28-.21-.24-.25-.56-.36-.85-.07-.19-.13-.38-.21-.56.06.38.23.73.32,1.1-.15-.08-.21-.25-.29-.38-.46-.79-.66-1.72-.65-2.64,0-.87.18-1.79.74-2.49.39-.5.95-.82,1.54-1.03-.8.16-1.46.71-1.9,1.38-.42.72-.52,1.58-.5,2.4,0,.36.05.71.05,1.07-.39-.91-.39-1.97-.05-2.9.2-.6.58-1.15,1.1-1.53.71-.53,1.59-.76,2.46-.85-.81-.23-1.71-.23-2.49.11-.84.36-1.49,1.09-1.83,1.93-.32.81-.45,1.71-.27,2.57.17.83.59,1.59,1.1,2.25.76.98,1.71,1.78,2.64,2.58,0,.07-.09.06-.13.06-1.57-.07-3.14-.22-4.71-.23-.29,0-.56.11-.83.22-.45.19-.96.23-1.39.49-.43.25-.67.7-.93,1.1-.1-.15-.08-.33-.07-.5.02-.37.2-.73.5-.95.39-.3.88-.4,1.36-.45-.5,0-1.05.02-1.47.33-.3.22-.37.6-.42.94-.03.22-.13.46-.35.56.04-.18.13-.35.1-.54-.04-.27-.12-.54-.11-.81-.06.11-.08.26-.19.34-.2-.12-.18-.39-.19-.59-.03-.41.15-.84.5-1.07.47-.32,1.07-.4,1.62-.44.91-.08,1.82.03,2.73-.11-1.14-1.06-1.97-2.46-2.31-3.98-.17-.75-.22-1.52-.15-2.28.02-.13,0-.26.06-.37.11-.08.25-.07.38-.1.83-.12,1.58-.51,2.29-.93.7-.42,1.39-.86,2.16-1.15-.34-.03-.67.04-1,.1-.38.06-.72.25-1.08.37.68-.6,1.6-.89,2.49-.88-.65-.24-1.31-.55-2.02-.5-.45.02-.84.35-.99.77-.23.62-.69,1.13-1.25,1.47-.62.38-1.34.57-2.06.65-.84.07-1.69.04-2.53.05-.09.01-.23-.01-.28.08-.06.39.14.73.27,1.08-.33-.01-.47-.36-.69-.54.02.18.09.36.11.54-.22.03-.35-.17-.49-.31,0,.05,0,.15,0,.2-.44-.02-.84-.34-1.03-.73-.18-.37-.1-.8.08-1.15.15-.31.47-.5.8-.55-.16.41-.36.86-.21,1.31.01-.27-.02-.56.1-.82.22-.49.68-.81,1.04-1.19.02.02.06.06.08.08.04-.08.09-.15.17-.19,0,.07.02.13.03.2,0-.04.02-.13.03-.17.12.1.04.28.06.42,0-.19.03-.39.06-.58.11.06.18.16.26.26-.02-.11-.03-.21-.05-.32.08.04.19.02.25.08.08.16.08.35.14.52.03-.3-.08-.58-.11-.88.21.27.33.59.46.9-.08-.36-.2-.71-.26-1.08.15.13.18.32.27.49,0-.19-.03-.38-.04-.57.06.06.13.12.15.21.06.25.05.51.09.77.11-.36,0-.73,0-1.09.13.09.14.27.22.39,0-.2-.1-.39-.12-.6.04.03.13.08.17.1-.03-.26-.07-.53-.03-.79.19.33.23.72.37,1.07-.03-.43-.2-.83-.32-1.24.02-.02.07-.05.1-.07-.05-.11-.15-.33.07-.3-.14-.4-.23-.81-.34-1.22.17.22.26.49.44.7-.09-.21-.21-.42-.2-.66.07.05.13.1.2.16-.11-.37-.37-.68-.4-1.07.23.26.38.58.57.86-.07-.24-.22-.44-.28-.68.13.07.22.18.33.27-.15-.34-.41-.62-.55-.97.25.14.48.32.7.5-.2-.43-.46-.82-.68-1.23.3.22.53.51.8.75-.26-.4-.52-.79-.73-1.22.27.24.46.56.72.81-.28-.4-.5-.84-.72-1.28.17.07.25.24.36.38.13.18.28.35.48.45-.45-.4-.6-1.02-1.02-1.45.22.05.39.19.61.24-.22-.24-.61-.28-.77-.59.47.22.94.47,1.44.64-.03-.04-.08-.08-.13-.1-.45-.19-.9-.39-1.3-.68-.16-.11-.3-.27-.49-.33-.2-.07-.42-.09-.63-.12-.19-.03-.38.05-.56.1-.33.1-.69.19-.93.45.28-.02.64-.16.85.1-.19.07-.4.07-.58.17.28,0,.55-.04.83,0-.06.05-.13.09-.21.09-.21.02-.41.04-.61.07.24.01.5,0,.72.11-.25.05-.51.02-.75.1.25.02.49,0,.74.01-.08.05-.16.11-.26.11-.27,0-.54.02-.81.07.43.02.86,0,1.28.08-.4.1-.82.08-1.23.12.41.03.82.05,1.23.11-.42.07-.86.01-1.28.09.43.02.86.02,1.28.12-.33.02-.65-.01-.98.02.29.15.64.02.94.14-.17.06-.35.05-.53.05-.34,0-.69.07-1.02.15.46,0,.92-.09,1.38-.05-.28.13-.6.15-.89.25.32-.02.64,0,.96.07-.13.08-.3.1-.44.16.18.02.37.03.53.11-.36.04-.73,0-1.09.05.4,0,.8.02,1.18.13-.83.02-1.69,0-2.49.27.55-.02,1.1-.16,1.64-.04-.06.05-.12.1-.18.14.16.02.32.04.48.08-.36.12-.73.26-1.03.5-.14.11-.29.28-.49.24-.62-.08-1.24-.26-1.88-.2-.36.03-.74.19-.95.49-.09.1,0,.31.15.26,1.08-.29,2.3-.3,3.32.22.82.42,1.4,1.19,1.74,2.03.05.12.09.28-.01.39-.49.54-1.19.81-1.8,1.19-.35.23-.47.66-.54,1.05-.02.08-.05.24-.17.19-.34-.16-.66-.43-.79-.8-.14-.39-.04-.83.15-1.19.33-.62.88-1.12,1.51-1.42.19-.1.42-.12.59-.25-.43-.54-1.06-.89-1.72-1.07-.52-.15-1.08-.19-1.62-.1-.2.03-.35.22-.55.22-.18-.06-.35-.17-.56-.16-.67.02-1.39-.05-1.97-.4-.27-.17-.56-.42-.59-.76-.04-.29.12-.55.32-.74.18-.16.14-.42.15-.64.06-1.34.39-2.72,1.22-3.79.4-.51.9-.93,1.39-1.34.12-.1.18-.27.16-.42-.04-.93.14-1.89.58-2.72.35-.66.88-1.24,1.55-1.59-.49.73-.67,1.62-.66,2.48,0,.46.06.92.11,1.37.02.13-.13.18-.21.24-1.33.75-2.56,1.79-3.25,3.17-.4.82-.55,1.74-.6,2.65-.01.16,0,.33-.07.47-.1.2-.3.34-.39.55-.09.19-.12.43.02.61.1.15.24-.07.37-.05.17.06.3.19.41.33.21.27.6.41.92.29.15-.05.25-.18.34-.29-.28-.1-.59-.1-.87-.19-.06-.02-.16-.06-.13-.14.18-.2.45-.31.64-.5-.3.06-.61.11-.92.12.05-.13.11-.24.17-.36-.1.03-.19.06-.29.09.03-.16.15-.29.21-.44-.11,0-.22.02-.32.04.02-.25-.09-.5.04-.74-.03-.06-.07-.12-.05-.19.03-.26.11-.5.13-.76,0-.15.14-.25.14-.4,0-.13.06-.24.14-.34.03.01.1.04.13.06l-.11-.07c.17-.05.34-.16.52-.15.2,0,.38.1.56.18-.11-.19-.35-.29-.56-.28-.22,0-.39.18-.58.27.07-.26.13-.59.4-.72.29-.19.69-.13.94.1.07.05.2.23.22.05-.18-.15-.38-.31-.62-.37-.2-.06-.38.08-.56.11.02-.21.2-.4.41-.41.36.06.73.21.92.54.06-.02.11-.06.15-.12-.33-.3-.74-.57-1.2-.49.12-.12.27-.23.45-.2.39.06.64.39.97.56-.08-.14-.21-.23-.34-.33-.25-.17-.51-.31-.79-.44.11-.14.27-.07.41-.02-.06-.09-.15-.14-.24-.19.14-.15.35-.29.56-.2.37.16.53.57.75.88-.08-.46-.41-.86-.84-1.03.18-.35.56-.58.95-.58-.02-.02-.07-.06-.09-.07.36-.27.77-.46,1.21-.57.08.25.14.51.12.77-.03.41-.09.81-.15,1.21.23-.5.24-1.07.26-1.62.02-.8-.01-1.64.36-2.38.38-.77,1.14-1.24,1.88-1.61-.46.62-.4,1.43-.56,2.15.32-.32.73-.53,1.13-.74-.15.44-.18.9-.19,1.36.02.36.35.58.6.78.28.21.53.48.62.83.02.13-.01.27.04.39.93.56,1.87,1.21,2.97,1.33-1.01-.35-1.83-1.1-2.44-1.96.32.26.64.52,1.01.7.48.25,1.02.36,1.55.31-1.45-.61-2.73-1.71-3.44-3.13.46.44.88.92,1.41,1.26.25.15.48.32.74.46-.09-.15-.24-.26-.36-.39-1.01-1-1.85-2.28-1.98-3.73.54.93,1.21,1.77,1.91,2.58-.7-1.04-1.4-2.15-1.54-3.42-.1-.98-.03-2.04.53-2.88-.12.56-.04,1.14-.02,1.71,0,.1.08.17.12.26.08,1.7.88,3.31,2.02,4.55-.75-1.02-1.42-2.14-1.71-3.39-.22-.91-.2-1.91.2-2.78.32-.72.88-1.31,1.51-1.77-.29.63-.51,1.3-.64,1.99.26-.48.57-.94.96-1.32.69-.68,1.55-1.17,2.45-1.51-.43.4-.81.87-1.06,1.41.24-.18.43-.43.67-.61m1.41.63c-.25.09-.47.23-.66.42.22-.14.45-.26.66-.42m-4.3,2.03c-.37.84-.48,1.8-.27,2.69-.08-.71-.09-1.44.12-2.12.22-.79.73-1.46,1.36-1.97-.55.31-.95.83-1.21,1.4m.18,2.28c0-.23,0-.47.03-.7.09-1,.52-1.93,1.1-2.73-.82.93-1.23,2.2-1.13,3.44m7.9-3.05c.26-.02.52-.08.77-.11-.26-.02-.52.05-.77.11m-5.6.78c.25-.29.48-.59.74-.86-.3.24-.57.52-.74.86m3.14,1c.23-.29.46-.58.7-.86-.29.23-.53.53-.7.86m-6.34,1.12c-.01-.46-.02-.92.05-1.38-.12.45-.12.92-.05,1.38m8.87-.29c-.69.49-1.17,1.31-1.15,2.17.07-.39.16-.79.37-1.13.39-.69,1.09-1.14,1.8-1.45-.37.04-.72.21-1.02.42m-9.46.68c.04.26.16.49.28.72-.08-.24-.15-.49-.28-.72m5.02.16c.02.32,0,.65.06.98.02-.33,0-.65-.06-.98m3.95,3.29c-.05-.32-.2-.61-.26-.92-.13-.62-.02-1.26.16-1.86-.45.87-.32,1.93.1,2.78m-1.21-2.63c-.25,1.05-.26,2.18.16,3.19-.08-.32-.17-.64-.21-.97-.1-.74-.04-1.49.05-2.22m-7.5.34c.16.4.38.77.63,1.12-.18-.39-.38-.77-.63-1.12m-3.25,2.38c.23-.24.48-.46.66-.75-.27.19-.49.46-.66.75m-.72,2c.09-.4.13-.83.36-1.19.15-.3.46-.49.59-.81-.21.14-.38.34-.57.51.04-.35.12-.68.2-1.02-.57.69-.64,1.65-.57,2.51m11.96-1.79c.1.43.19.88.43,1.27-.13-.4-.29-.8-.36-1.21.01-.03-.07-.14-.07-.06m-13.25.53c.07.13.11.26.13.4.05-.14.06-.28.06-.42-.06,0-.13.01-.19.02m3.33.26c.04.21.08.42.12.63.07-.22.03-.45-.12-.63m.9,1.05c.13.05.29.07.37.19-.15-.02-.31-.04-.46-.04.14.06.29.11.43.18.05.17.22.23.35.31.19.11.42.18.54.37-.18-.06-.36-.15-.54-.2.27.22.65.28.9.52-.13-.02-.25-.06-.38-.09.49.27.93.62,1.42.89-.31,0-.6-.09-.9-.17.27.16.58.26.87.37-.01.04-.03.11-.04.15-.1-.02-.19-.05-.29-.07.53.29,1.12.45,1.7.62-.33-.03-.66-.11-.99-.11,1.84.46,3.75.8,5.41,1.74.8.43,1.47,1.05,2.1,1.7.54.55,1.01,1.17,1.38,1.85-.03.02-.06.05-.09.07-.16-.31-.39-.57-.61-.84.17.36.42.67.67.97.03-.03.05-.07.08-.1.14.3.25.61.41.9.86,1.64,1.52,3.41,1.69,5.26.06.67.19,1.34.16,2.01-.05-.11-.1-.21-.14-.31.04.38.2.75.37,1.09-.03-.68.01-1.36.05-2.04.09-2.31-.22-4.66-1.08-6.81-.69-1.71-1.75-3.27-3.17-4.45-1.52-1.28-3.41-2.06-5.35-2.37-.61-.11-1.23-.1-1.83-.29-.98-.29-1.84-.87-2.69-1.42-.06-.03-.11-.08-.19-.08-.07.05-.11.12-.16.19m-7.25,1.38c.33-.01.66.05.95.22-.21-.28-.66-.45-.95-.22m1.03.76c-.18.32-.43.63-.46,1.01.18-.22.29-.47.43-.72.14.2.17.46.35.63.23.22.59.23.87.11.43-.2.72-.71.6-1.18-.08-.41-.48-.79-.92-.69-.41.1-.65.49-.86.83m-1.7,1.33c.22-.19.45-.37.66-.57-.27.12-.51.31-.66.57m14.09,1.16c.19.13.41.22.61.34-.18-.15-.39-.26-.61-.34m2.71.55c.07.12.19.19.29.28.38.32.76.65,1.1,1.02.06.06.12.14.21.12-.14-.22-.34-.39-.53-.57-.35-.3-.71-.59-1.08-.85m1.28,1.53c.21.24.44.47.61.75-.12-.31-.36-.55-.61-.75m.05.41c.09.18.22.33.35.48-.09-.18-.19-.36-.35-.48m.91.57c.13.33.34.62.57.89-.03-.13-.12-.23-.19-.34-.13-.18-.24-.37-.38-.54m-.75.61c.2.28.43.54.65.81-.18-.3-.39-.58-.65-.81m.39.06c.08.18.22.34.39.45-.13-.15-.26-.3-.39-.45m1.02.59c.21.5.41,1,.64,1.49-.15-.52-.36-1.03-.64-1.49m.35.21c.22.63.54,1.23.84,1.83-.23-.63-.52-1.24-.84-1.83m-1.47.06c.24.28.48.56.71.85-.17-.33-.42-.62-.71-.85m-4.81,1.53c.48-.38.97-.76,1.53-1.02-.58.21-1.13.54-1.53,1.02m-7.68-.14c-.11.17-.27.33-.28.54.2-.29.43-.57.58-.89-.13.09-.21.23-.3.35m11.18.15c.27-.02.54-.04.81-.05-.27-.02-.55,0-.81.05m-3.57.04s.02.03,0,0m2.7.44c.18-.07.37-.14.54-.25-.2.04-.39.11-.54.25M3.51,13.39c.21-.06.46-.02.59.16.3.36.1.99-.34,1.15-.28.09-.66-.02-.75-.32-.11-.39.11-.85.5-.99m7.14,19.16c.46-.38,1.09-.49,1.67-.5.21,0,.42,0,.62.06-.46.25-1.06.23-1.44.63-.29.26-.29.72-.62.94-.16.09-.37.17-.55.1-.16-.42-.04-.95.31-1.24h0Z"/>
  </g>
</svg>