<?xml version="1.0" encoding="UTF-8"?>
<svg id="Layer_2" data-name="Layer 2" xmlns="http://www.w3.org/2000/svg" viewBox="0 0 39.43 37.99">
  <defs>
    <style>
      .cls-1 {
        fill: #020202;
        stroke-width: 0px;
      }
    </style>
  </defs>
  <g id="Layer_1-2" data-name="Layer 1">
    <path class="cls-1" d="m25.09,0h.03c-.55.75-.93,1.62-1.2,2.51-.32,1.06-.47,2.16-.51,3.27-.06,1.73.18,3.47.72,5.11.1.31.19.61.32.91-.23-.83-.43-1.66-.56-2.51-.3-1.96-.09-3.99.56-5.86.14-.36.27-.74.51-1.05-.64,1.24-.94,2.63-1.01,4.02-.06,1.59.23,3.2.79,4.68-.02-.18-.09-.36-.13-.54-.19-.85-.27-1.72-.26-2.58.01-.96.12-1.91.37-2.84-.03.36-.11.71-.14,1.07-.08.97-.1,1.94-.04,2.91.08,1.01.42,1.97.77,2.92-.02-.16-.08-.3-.13-.45-.23-.79-.41-1.6-.44-2.42-.09-2,.14-4.01.6-5.96.11-.44.21-.89.38-1.31-.12.6-.27,1.2-.36,1.81-.31,1.97-.61,3.97-.31,5.96.08.68.25,1.35.46,2-.16-.77-.29-1.55-.34-2.34-.07-.97,0-1.95.14-2.91.14-.94.37-1.87.59-2.8.03-.11.06-.22.1-.33-.15,1.01-.3,2.02-.41,3.04-.09.84-.19,1.69-.16,2.54.02.9.13,1.8.33,2.68-.11-.96-.03-1.92.11-2.87.2-1.36.57-2.69,1.01-3.98.13-.36.23-.73.41-1.07-.2.59-.39,1.19-.52,1.81-.11.54-.24,1.09-.25,1.65.16-.35.29-.71.5-1.03-.25.72-.44,1.46-.62,2.2-.26,1.08-.4,2.19-.35,3.3.03.85.17,1.69.36,2.51,0,.03.02.06.03.09-.04-.32-.06-.64-.08-.96-.02-.9,0-1.8.08-2.7.05-.66.11-1.33.26-1.97-.02.36-.08.71-.11,1.07-.11,1.16-.06,2.34.14,3.49-.02-.49-.06-.99-.05-1.48-.01-1.98.41-3.96,1.18-5.79.21-.46.4-.94.68-1.36-.19.44-.39.88-.54,1.34-.62,1.84-.87,3.8-.73,5.73.06.62.12,1.24.25,1.85-.05-.9-.04-1.81.01-2.71.07-1.02.18-2.04.44-3.04.11-.47.27-.94.42-1.4,0,.09-.01.17-.02.26-.2,1.15-.35,2.31-.38,3.48-.04.91.07,1.82.24,2.71.06.32.14.63.2.94-.04-.49-.14-.98-.18-1.47-.12-1.16-.11-2.34.06-3.49.14-.88.33-1.75.58-2.6.07-.24.14-.48.27-.7-.52,1.62-.69,3.33-.63,5.02.05,1.49.28,2.98.76,4.39-.2-.85-.31-1.72-.33-2.59-.02-.94.08-1.87.21-2.79.02-.11.04-.22.07-.33-.02.45-.05.9-.06,1.36.02.56.01,1.13.06,1.69.06,1.01.24,2.02.51,3-.09-.71-.22-1.42-.25-2.14-.09-1.77.07-3.55.53-5.26,0,.1-.03.2-.05.3-.37,1.96-.37,3.98-.06,5.94.17,1.09.41,2.18.76,3.23.13.38.24.76.41,1.12-.2-.72-.37-1.46-.53-2.19-.18-.95-.36-1.9-.43-2.86-.07-.96-.06-1.92.03-2.87.03-.3.07-.59.15-.88,0,0,.02-.01.03-.01-.13.69-.13,1.39-.12,2.09.03.97.14,1.93.33,2.87.13.58.27,1.17.49,1.72-.22-1.02-.26-2.07-.28-3.12,0-.78.03-1.56.08-2.34.04-.51.05-1.03.16-1.53-.02.5-.06.99-.06,1.49,0,1.02.12,2.04.32,3.05.28,1.39.71,2.78,1.51,3.97-.27-1-.36-2.04-.53-3.06-.07-.48-.18-.95-.28-1.43.42.6.66,1.3.89,1.99.21.62.34,1.25.52,1.88-.09-.83-.22-1.65-.4-2.47-.15-.68-.33-1.36-.6-2,.42.5.69,1.11.91,1.72.3.86.4,1.77.44,2.67.03.6.07,1.2.02,1.81.08-.22.11-.46.16-.69.07-.39.16-.79.14-1.19-.04-.86-.18-1.71-.33-2.55-.08-.44-.21-.86-.37-1.27.19.2.31.45.41.7.35.91.44,1.9.51,2.87.03.3.03.61.09.91.13-.46.21-.94.27-1.41.07-.53.13-1.07.08-1.6.39.54.44,1.25.4,1.9-.14,1.37-.66,2.67-1.26,3.89.67-.99,1.36-1.99,1.83-3.1.08-.21.14-.43.21-.64-.06.69-.23,1.36-.41,2.03-.24.88-.52,1.75-.97,2.55-.06.14-.2.24-.23.39.31-.28.62-.58.84-.94.37-.56.53-1.22.71-1.86.1-.38.22-.75.3-1.13.08.61,0,1.23-.09,1.84-.13.74-.31,1.47-.62,2.15-.25.56-.52,1.11-.9,1.59.49-.31.87-.78,1.11-1.3.56-1.17.88-2.44,1.24-3.68.12.82.11,1.67-.11,2.48-.2.74-.59,1.42-1.02,2.06.88-.97,1.53-2.12,2.15-3.27,0,0,.03-.01.04-.01-.17.5-.31,1.02-.52,1.5-.43,1.01-1.03,1.94-1.67,2.83.82-.87,1.57-1.82,2.11-2.89.17-.31.29-.64.45-.96-.16,1.2-.7,2.32-1.4,3.29-.61.83-1.28,1.61-1.97,2.38-.25.27-.49.55-.75.81-.07.07-.14.15-.2.24,1.01-.92,1.99-1.89,2.85-2.97.42-.51.85-1.02,1.23-1.57.23-.31.38-.66.56-1-.14.66-.43,1.28-.77,1.86-.47.81-1.11,1.51-1.73,2.21-.54.59-1.12,1.15-1.71,1.7-.08.07-.16.13-.22.22.2-.15.38-.34.57-.49.73-.62,1.43-1.27,2.09-1.97.59-.64,1.09-1.34,1.62-2.03.06-.08.12-.16.2-.23-.27.93-.84,1.74-1.42,2.5-.13.18-.28.34-.42.51.78-.62,1.4-1.41,1.96-2.22-.6,1.32-1.43,2.53-2.34,3.66-.13.17-.29.31-.42.48.79-.66,1.54-1.38,2.21-2.18.25-.29.47-.6.71-.89-.51.91-1.21,1.68-1.87,2.48-.78.94-1.66,1.81-2.64,2.53.28-.15.53-.35.79-.53.82-.58,1.54-1.27,2.21-2.01-.24.43-.56.81-.87,1.18-.67.75-1.42,1.44-2.26,2-.12.08-.25.15-.36.25.85-.41,1.66-.9,2.37-1.53.83-.72,1.54-1.57,2.1-2.51.09-.15.15-.32.28-.45,0,.04-.02.07-.05.1-.32.83-.83,1.59-1.39,2.28-.73.89-1.63,1.63-2.59,2.25-.4.28-.84.5-1.25.76,1.69-.57,3.18-1.62,4.43-2.88.44-.46.86-.94,1.23-1.44.11-.14.21-.3.34-.43v.07s-.08.07-.11.11c-.39.63-.85,1.22-1.32,1.8-.63.74-1.35,1.41-2.14,1.97-.69.49-1.43.9-2.18,1.29,1.64-.57,3.18-1.48,4.42-2.71.46-.45.89-.94,1.24-1.48.03-.02.06-.04.08-.06v.07c-.14.1-.2.27-.3.4-.86,1.24-1.89,2.34-3.03,3.34-1.14,1-2.54,1.64-3.94,2.22.39-.09.76-.25,1.13-.39.76-.31,1.52-.65,2.22-1.1.71-.45,1.37-.97,1.98-1.55.19-.17.37-.36.58-.52-.36.58-.8,1.1-1.27,1.59-.59.58-1.32.99-2.07,1.34-.74.35-1.51.66-2.29.91.19-.02.37-.09.56-.14.8-.23,1.59-.5,2.33-.87.77-.39,1.48-.9,2.09-1.51.2-.2.36-.43.56-.63-.33.56-.77,1.03-1.26,1.46-.91.77-1.98,1.31-3.06,1.79-.14.06-.29.11-.42.19.93-.2,1.86-.47,2.72-.89.45-.21.86-.48,1.28-.74-.19.22-.44.39-.67.57-.68.51-1.41.98-2.2,1.28-.69.27-1.42.41-2.15.52-.17.03-.34.04-.51.08.88.05,1.77-.03,2.63-.23.5-.12.99-.3,1.44-.55.12-.07.25-.14.38-.19-.99.76-2.15,1.33-3.39,1.52-.59.09-1.19.05-1.78-.02-.13-.01-.25-.02-.38-.02.36.07.72.14,1.08.23.42.1.85.07,1.28.06-.48.15-.99.13-1.48.06-.54-.07-1.07-.16-1.6-.26.42.16.87.27,1.31.35.59.1,1.21.14,1.8.02.32-.06.63-.16.94-.25-.51.26-1.07.38-1.63.44-.58.06-1.16.07-1.74,0-.36-.04-.7-.14-1.06-.2,1.12.47,2.39.63,3.58.33-.38.2-.81.27-1.24.3-.56.03-1.13,0-1.69-.08-.66-.09-1.3-.33-1.92-.55.36.23.76.4,1.17.54.53.18,1.07.31,1.63.33.2.01.41,0,.62,0-.55.15-1.13.11-1.69.06-.68-.07-1.34-.23-1.97-.48-.24-.09-.46-.19-.7-.28.86.54,1.85.86,2.85,1-1.04.1-2.07-.22-3.01-.66-.18-.08-.35-.16-.54-.22.54.44,1.23.6,1.86.85-.6-.11-1.21-.14-1.78-.36-.21-.07-.39-.2-.57-.32.27.37.73.51,1.15.62-.59,0-1.18-.21-1.65-.58.16.25.43.39.67.54-.38-.03-.69-.26-.99-.47.13.18.31.32.48.45-.32-.07-.6-.24-.86-.43.16.19.36.33.54.49-.39-.16-.79-.33-1.21-.38.04.06.09.11.14.17-.15-.06-.3-.14-.46-.16.11.08.22.15.33.23-.27-.09-.53-.2-.81-.24-.29-.05-.58,0-.87,0,.05.11.13.25.04.36-.17.18-.41.27-.64.34-.55.16-1.12.24-1.69.3-.99.1-1.99.13-2.99.1-.29,0-.58-.06-.87-.02-.83.08-1.74.05-2.45-.44-.2.14-.41.29-.66.31-.29.04-.56-.14-.85-.06-.24.1-.32.38-.53.52-.26.2-.67.2-.89-.06-.08.08-.15.17-.23.25h-.01c.06-.11.12-.23.22-.33.19-.21.49-.29.68-.5.15-.17.2-.42.4-.55.31-.2.7-.2,1.06-.16-.3-.13-.64-.08-.95,0-.66.14-1.27.53-1.65,1.1.02-.05.05-.14.06-.19-.23.09-.47.17-.72.14-.15-.01-.28-.11-.41-.18-.07.03-.15.06-.22.09.21-.26.57-.29.84-.45.26-.14.41-.41.65-.58.28-.22.64-.33.99-.39.52-.09,1.05-.12,1.57-.12-.21-.12-.46-.16-.7-.18-.75-.06-1.53.05-2.2.42-.43.24-.87.49-1.24.82-.05.05-.12.06-.18.08.05-.12.14-.22.23-.32.19-.21.41-.39.65-.55.77-.45,1.66-.69,2.54-.8.87-.1,1.74,0,2.58.22.79.19,1.56.52,2.38.55.25,0,.6.01.72-.26-.05-.11-.15-.19-.23-.29.16.08.32.16.48.24-.1-.17-.21-.33-.27-.51.49.25.9.64,1.39.88-.17-.16-.37-.31-.47-.52.32.23.65.46,1.02.62-.17-.15-.35-.29-.45-.5.28.22.56.44.9.56-.15-.13-.33-.24-.41-.43.28.17.55.36.87.44-.1-.11-.22-.2-.31-.3-.22-.23-.51-.38-.8-.51.07.11.16.22.24.32-.2-.08-.37-.23-.58-.32.02.07.05.14.09.21-.2-.15-.34-.36-.54-.5.05.1.12.19.17.29-.34-.21-.6-.52-.85-.82.07.19.2.34.31.51-.32-.15-.6-.36-.86-.6.1.25.3.44.46.65-.45-.15-.69-.6-.99-.95.06.28.24.5.37.74-.31-.19-.5-.51-.73-.78.06.19.16.37.26.54-.4-.26-.66-.71-.76-1.17-.05.32.1.6.23.88-.28-.25-.44-.6-.51-.96-.02.12-.04.25-.05.37-.14-.24-.18-.51-.24-.78-.04.27.04.53.09.78-.31-.34-.39-.83-.45-1.27-.07.27-.07.54-.12.81-.14-.38-.2-.79-.21-1.19-.09.18-.03.39-.08.59-.1-.37-.2-.74-.21-1.12-.05.1-.05.22-.11.3-.1-.3-.13-.6-.17-.91-.04.11-.06.22-.09.33-.17-.42-.23-.88-.24-1.33-.03.07-.03.16-.08.23-.1-.48-.14-.97-.18-1.45-.1.14-.13.31-.2.46-.06-.93-.21-1.87-.1-2.8.07-.71.34-1.39.73-1.98-.07.05-.13.1-.2.15.03-.24.08-.49.2-.71-.38.28-.78.56-1.24.65-.16.03-.33.04-.5.04.06.08.11.16.16.24-.13-.03-.26-.06-.39-.08.11.17.15.37.2.56-.12-.11-.25-.21-.4-.28.09.22.16.46.19.7-.11-.13-.22-.26-.35-.37.15.59.23,1.2.41,1.78.01.04.03.08.05.12.03-.21.06-.43.14-.63.01.21,0,.42.02.63.04.45.17.88.27,1.32.05-.25.07-.5.13-.75.13.8.28,1.6.51,2.38.01-.17.02-.33.06-.49.09.35.1.71.16,1.07.04-.15.09-.31.17-.45,0,.33,0,.66.01.99.08-.08.06-.22.1-.33.06.29.06.59.12.88.03.19.1.38.01.57-.01.17.05.35.07.52-.29-.55-.45-1.15-.56-1.76-.05.24-.1.48-.2.7.01-.57-.1-1.13-.23-1.69-.07-.3-.13-.6-.23-.9-.01.2-.02.41-.08.61-.19-.84-.44-1.66-.72-2.47-.04.23-.08.46-.19.67,0-.33,0-.67-.09-.99-.06-.21-.09-.42-.19-.61.01.21.02.42,0,.63-.07-.37-.13-.74-.26-1.09.01.29.14.58.1.87-.27-.67-.56-1.33-.74-2.03-.71-.02-1.41-.26-2.01-.63-.12-.07-.24-.15-.37-.22.08.11.21.18.29.29-.28-.11-.52-.29-.76-.46-.61-.44-1.1-1.03-1.49-1.68-.18-.27-.34-.61-.67-.72-.26-.09-.49.08-.72.18-.33.15-.72.12-1.03-.07-.19-.12-.36-.28-.5-.45.03-.07.06-.14.1-.2.04.09.07.19.17.23.09-.11.19-.22.28-.33-.18-.02-.37-.04-.53-.13-.18-.08-.32-.25-.52-.3-.02.07-.03.13-.05.2-.04-.05-.08-.11-.11-.16.04-.18.11-.36.25-.48.19-.15.45-.2.69-.2-.18-.09-.34-.21-.53-.27-.12.05-.22.14-.34.17,0-.03-.01-.08-.02-.11.09-.12.21-.23.35-.29.4.08.79.22,1.2.19.09-.02.17-.07.23-.14-.22-.19-.53-.18-.81-.2-.27,0-.56-.04-.8.1-.13.08-.2.22-.3.34-.03-.05-.04-.1,0-.15.14-.23.35-.41.58-.53.2-.1.43-.11.64-.15-.15-.06-.3-.12-.45-.18-.16.07-.32.14-.47.23-.11-.03-.08-.18-.03-.25.29-.43.79-.74,1.31-.74.22,0,.42.08.62.15.06.03.12,0,.16-.05-.07-.03-.15-.06-.21-.12.07,0,.15,0,.22,0-.09-.07-.19-.12-.28-.19.32-.12.65-.24,1-.18.39.06.72.33.96.63.15.17.33.35.57.35.31,0,.55-.21.75-.42-.04-.25-.01-.5,0-.75-.09.03-.17.07-.26.11.1-.14.21-.27.29-.42-.03.01-.08.03-.11.05.18-.45.49-.88.51-1.38-.08.11-.15.23-.23.34.02-.15.06-.29.07-.44-.68-.26-1.41-.32-2.13-.39-.37-.03-.76-.04-1.11-.16-.32-.12-.56-.39-.71-.7-.33-.11-.67-.23-.95-.44-.3-.21-.5-.53-.65-.86-.08-.19-.21-.35-.33-.52-.47.29-.78.77-1.12,1.19.24-.49.59-.95,1.05-1.26-.11-.19-.19-.38-.25-.59-.3.08-.62.04-.93.06-.49.01-.96.12-1.44.21h0c.76-.28,1.57-.37,2.37-.28-.04-.25.04-.48.13-.71-.18-.07-.32-.21-.47-.32-.16-.12-.34-.24-.51-.35.15.02.27.11.39.18.22.14.44.3.61.5.11-.2.25-.38.39-.57.33-.44.67-.88.94-1.36.23-.41.45-.82.73-1.2,1.03-1.45,2.65-2.41,4.37-2.79.08-.38.11-.76.2-1.14.2-.86.56-1.68,1.06-2.41.38-.57.83-1.1,1.38-1.52-.2.39-.44.76-.63,1.15-.13.28-.15.59-.09.89.1.53.35,1.01.55,1.5.06-.09.11-.19.17-.28,0,.15-.05.31,0,.46.08.22.15.44.23.66.02-.03.04-.05.05-.08.25-.69.59-1.35,1.01-1.96.2-.28.4-.57.67-.79-.06.13-.15.24-.2.37.12-.11.21-.23.34-.33.36-.29.81-.48,1.27-.46.42,0,.83.23,1.1.54.42.49.6,1.13.65,1.76.07.62-.03,1.27-.3,1.83-.28.58-.75,1.05-1.04,1.63.15.04.31.08.46.14-.05.04-.12.03-.17.05.19.19.37.41.63.5-.08,0-.15,0-.22,0,.14.2.34.32.54.45-.07.01-.15.03-.22.04.23.23.5.42.75.62-.15-.03-.3-.09-.45-.13.21.23.45.43.66.66-.33-.09-.64-.28-.99-.26.34.14.65.34.89.62-.25-.06-.48-.21-.74-.23.2.12.42.22.59.39.19.19.42.33.61.52-.34-.04-.6-.3-.91-.43-.26-.11-.54-.21-.83-.19.31.08.62.19.89.38.39.29.78.59,1.1.96-.31-.13-.53-.41-.81-.59-.28-.18-.61-.39-.96-.3.51.1.96.39,1.32.76.25.28.49.56.71.86-.29-.21-.52-.49-.8-.71-.19-.07-.39-.14-.59-.17.16.09.32.18.48.28.45.29.77.73,1.06,1.17-.27-.17-.55-.41-.89-.36.24.11.51.2.66.43-.08,0-.17,0-.25,0,.15.13.29.26.45.37.14.1.31.15.47.21-.36.15-.69-.17-1.04-.14.16.09.33.17.47.28.22.17.49.27.77.29-.02.03-.04.05-.07.06-.19.06-.39.05-.59.05.31.19.67.33,1.04.34-.29.16-.63.15-.95.11.27.13.56.25.86.3-.17.08-.36.07-.54.08.34.16.7.28,1.03.48.23.14.48.23.72.35-.54,0-.99-.35-1.5-.44.58.32,1.2.59,1.83.79-.29.01-.56-.1-.84-.13.18.08.35.17.54.25.15.06.31.06.46.12-.43.09-.83-.11-1.23-.21.34.21.71.35,1.09.46.46.15.9.33,1.33.55,1.18.59,2.22,1.44,3.09,2.42.51.58.97,1.21,1.38,1.86.26.39.55.76.79,1.16-.23-.2-.43-.43-.66-.64.57.96,1.04,2,1.19,3.12-.15-.3-.25-.63-.43-.91.07.38.19.76.24,1.15.08.51.12,1.04.08,1.56-.02.13-.02.27-.07.39,0-.2,0-.39-.03-.59h-.02c0,1-.1,2.02-.44,2.97-.2.56-.31,1.16-.3,1.75.02.42.11.87.39,1.2.24.28.64.4.99.32.47-.09.84-.41,1.15-.75.41-.47.72-1.02.95-1.6.17-.44.26-.92.22-1.4.1.26.16.52.22.79.1-.34.14-.72.07-1.07-.13-.75-.44-1.45-.74-2.14.21.2.35.46.54.68.18.21.36.44.56.64-.46-1.08-1.38-1.86-2.01-2.83.47.43.91.89,1.42,1.27-.32-.45-.66-.88-1.03-1.3-.23-.26-.48-.5-.68-.78.32.22.6.48.92.7.21.14.41.29.63.42-.37-.44-.81-.81-1.27-1.15-.42-.32-.86-.62-1.23-1.01.38.24.73.52,1.1.77.17.11.31.24.49.33-.28-.4-.62-.75-.98-1.08-.16-.15-.35-.26-.51-.42.38.19.73.41,1.11.6-.43-.46-.94-.82-1.44-1.2-.19-.15-.4-.27-.57-.44.46.23.9.49,1.33.76.59.35,1.16.74,1.67,1.2-.15-.2-.35-.36-.53-.52-.82-.75-1.75-1.34-2.66-1.98-.16-.12-.33-.24-.47-.39.63.33,1.25.7,1.89,1-.15-.16-.32-.3-.49-.45-.64-.56-1.3-1.09-2.02-1.55.21.05.41.16.61.25.73.35,1.45.73,2.09,1.23-.16-.17-.34-.32-.52-.47-.6-.48-1.24-.9-1.88-1.33-.52-.36-1.06-.7-1.49-1.15.16.06.29.16.44.24.62.37,1.27.69,1.94.97-.24-.23-.53-.4-.8-.6-.78-.54-1.62-.98-2.44-1.45-.55-.32-1.12-.65-1.55-1.12-.27-.29-.54-.61-.72-.97.81.74,1.78,1.26,2.75,1.75-.4-.28-.78-.58-1.15-.89-.49-.41-1.02-.78-1.47-1.24-.29-.29-.59-.59-.82-.94.59.48,1.18.96,1.82,1.39-.02-.03-.05-.06-.07-.09-.5-.52-1.02-1.01-1.55-1.5-.54-.52-1.03-1.09-1.42-1.74.15.12.28.27.42.4.48.46.98.88,1.51,1.28.61.47,1.27.87,1.93,1.28-.61-.52-1.24-1.03-1.85-1.56-.55-.48-1.11-.94-1.58-1.5-.19-.22-.38-.45-.51-.71.1.1.18.22.28.32.48.55,1.06,1,1.64,1.44.52.39,1.08.72,1.65,1.02-.66-.56-1.32-1.12-1.9-1.77-.49-.54-.91-1.15-1.24-1.8-.13-.27-.27-.54-.34-.83.05.07.08.14.11.21.26.59.65,1.12,1.07,1.6.52.59,1.11,1.13,1.72,1.63-.94-1.17-1.82-2.39-2.5-3.73-.41-.84-.72-1.74-.9-2.66-.04-.25-.09-.5-.06-.75.1,1.1.56,2.13,1.09,3.08.67,1.2,1.45,2.33,2.34,3.37-.57-.84-1.15-1.69-1.57-2.62-.37-.83-.55-1.73-.61-2.64,0-.32-.03-.64.07-.95-.05.56,0,1.13.13,1.67.18.71.47,1.39.83,2.02.39.69.9,1.31,1.43,1.9-.35-.65-.78-1.25-1.11-1.91-.38-.74-.69-1.52-.84-2.34-.08-.41-.15-.83-.12-1.25.05.5.11,1,.26,1.48.4,1.32,1.11,2.52,1.94,3.61-.52-.81-1.01-1.64-1.34-2.55-.3-.8-.43-1.65-.49-2.5-.04-.56-.06-1.14.05-1.69-.08,1.08.04,2.18.37,3.21.24.77.54,1.52.95,2.22-.42-.87-.69-1.81-.87-2.75-.08-.5-.15-1-.12-1.5-.03-.08-.04-.17-.03-.26.02-.4,0-.81.11-1.2-.04.41-.06.83-.04,1.24,0,.06,0,.13-.02.19.07.01.03.1.04.14.03.56.15,1.12.28,1.66.19.71.41,1.42.77,2.07-.17-.44-.3-.9-.4-1.37-.18-.89-.17-1.79-.22-2.69-.01-.62-.01-1.24.09-1.85.03-.18.06-.36.15-.53-.17.72-.2,1.47-.16,2.21.04,1.03.2,2.04.46,3.04.24.89.58,1.75.95,2.59-.22-.66-.46-1.31-.63-1.99-.22-.86-.41-1.72-.46-2.61-.06-.89.02-1.79.21-2.67.17-.8.42-1.58.8-2.31.15-.29.31-.58.54-.82-.05.12-.13.22-.2.33-.58.94-.9,2.02-1.04,3.12-.12.98-.07,1.97.08,2.94.13.92.36,1.83.7,2.69-.02-.2-.1-.38-.13-.58-.31-1.56-.44-3.19-.14-4.76.18-.91.47-1.79.84-2.63.26-.58.54-1.15.96-1.64m-12.52,3.98c-.18.49-.33,1.04-.19,1.56.18-.79.44-1.56.83-2.27.16-.27.35-.53.59-.73.1-.09.22-.15.32-.23-.76.26-1.27.95-1.55,1.67m.54.19c-.14.34-.16.72-.23,1.08-.02.07,0,.15-.06.2.01,0,.03,0,.05,0,.08-.16.13-.33.22-.48-.11.78-.05,1.57-.06,2.35.11-.15.18-.32.27-.48.19-.4.39-.79.54-1.2-.15.1-.3.2-.44.31-.04-.49-.01-.99.05-1.47-.07.09-.11.23-.21.29.03-.33.15-.65.27-.96.08-.19.2-.36.33-.53-.34.19-.57.53-.72.89m-3.41.27c.02.16-.05.31-.14.44-.01-.16-.05-.32-.16-.44.01.16.06.33-.03.48-.07.15-.23.23-.35.34.52-.09,1.04-.17,1.56-.15.3-.02.6.05.9.01-.07-.02-.14-.04-.22-.05.03-.07.04-.14.05-.21-.08.05-.16.09-.24.13,0-.13.08-.23.12-.35-.15.06-.3.13-.45.19.03-.12.07-.24.11-.35-.19.18-.43.29-.68.36.16-.25.22-.57.18-.86-.06.2-.09.41-.22.58-.08.09-.17.17-.27.23,0-.31-.08-.62-.07-.94,0-.11.03-.22.04-.33-.16.27-.14.6-.15.91m5.89-.05c-.14.44-.33.87-.6,1.24.11-.06.19-.17.27-.26.33-.42.43-.95.49-1.47-.07.16-.1.33-.16.49m-.6.42c.15-.21.19-.48.18-.74-.08.24-.11.49-.18.74m.03.29c.13-.11.23-.25.28-.41-.11.12-.2.26-.28.41m.08.74c-.09.17-.24.3-.36.45.11-.05.2-.12.3-.19.17-.13.26-.33.35-.51.06-.13.13-.26.15-.4-.14.22-.32.42-.45.65m-7.31.04c-.61.25-1.18.6-1.66,1.05-.18.2-.34.43-.56.59-.2.21-.45.35-.63.57-.11.13-.21.26-.31.4-.26.38-.37.83-.64,1.2-.12.2-.28.37-.41.56.09-.01.15-.08.22-.13.15-.13.35-.21.45-.39-.07.02-.14.04-.21.06,0-.13.15-.13.23-.08.16-.2.38-.33.54-.53-.22.12-.41.3-.64.41.32-.55.56-1.15.99-1.63.05-.05.09-.11.16-.14-.08.19-.18.37-.23.57h.02c.15-.24.28-.48.45-.71.04-.06.09-.1.15-.13-.07.2-.19.39-.22.61.12-.18.2-.38.31-.55.15-.23.3-.46.49-.66.08-.09.19-.13.3-.17-.03.1-.12.17-.18.25-.19.24-.41.47-.5.76.24-.3.52-.56.77-.86.22-.26.47-.5.75-.69.43-.29.93-.5,1.46-.49-.06-.04-.13-.04-.2-.04-.31.01-.62.08-.9.2m7.47.25c-.17.07-.36.12-.48.26.2-.04.38-.12.57-.17-.19.26-.53.34-.77.55.11-.04.23-.06.35-.09-.13.12-.3.2-.45.3.22.01.41-.15.55-.31.22-.23.44-.47.59-.75-.12.08-.23.17-.36.21m-3.79.39s-.09-.03-.12-.05c.04.11.03.24,0,.35-.09,0-.06-.11-.13-.12,0,.13-.03.28-.14.36,0-.11,0-.21-.03-.32-.09.1,0,.29-.13.39,0-.04-.01-.13-.02-.17-.07.11-.17.2-.27.28.29,0,.6-.14.72-.42.14-.18.2-.4.24-.62-.06.1-.08.21-.13.32m-5.19,1.07c.39-.35.8-.68,1.24-.97.04-.02.07-.05.1-.08-.57.15-1.05.55-1.35,1.05m4.02-.4c.03-.07.06-.14.09-.21-.11.08-.21.21-.37.22-.52.02-1.07-.03-1.56.17-.57.22-1.04.68-1.27,1.25.49-.51,1.03-1.03,1.72-1.25.37-.13.76-.1,1.15-.1.19,0,.38-.02.57-.02.08-.16.12-.33.15-.51-.14.17-.26.37-.47.45m3.97.09s.09-.02.13-.03c.17-.06.34-.15.45-.3-.19.12-.38.22-.58.33m-7.45.1c.19-.09.4-.14.56-.27-.21.04-.4.13-.56.27m8.3.03c-.16.28-.3.57-.39.88.17-.12.37-.2.57-.27-.03.17-.16.31-.2.47.17-.09.34-.17.52-.22-.06.15-.15.28-.23.42.24-.11.5-.18.74-.28.06-.03.12-.04.16-.09-.16-.04-.3-.11-.45-.15-.08,0-.17.02-.25.03.12-.1.27-.17.4-.26,0-.01,0-.03,0-.04-.2-.12-.43-.05-.65-.02.07-.09.19-.13.26-.23-.17.02-.34.06-.5.13.07-.19.3-.26.41-.43-.13-.04-.31-.09-.39.05m-7.9.27c.08-.04.09-.13.11-.2-.05.06-.08.13-.11.2m.85.49c-.42.37-.61.92-.76,1.44.06-.03.09-.09.12-.14.2-.29.36-.62.59-.89.22-.26.54-.44.88-.46.46-.05.9.19,1.36.13.2-.04.36-.2.41-.4-.2.06-.41.13-.62.11-.28-.02-.55-.12-.82-.15-.41-.06-.84.09-1.15.36m.04.74c-.05.09-.11.22-.02.31.07.07.15-.02.2-.06-.04-.07-.08-.13-.12-.19.08.05.15.1.24.14.14-.09.22-.23.31-.37.07-.09.02-.26-.1-.27-.24.03-.39.25-.5.44m7.46-.03c.27-.04.54-.13.8-.22-.26-.17-.69-.08-.8.22m-5.77.08c0,.3-.1.62-.33.82-.26.23-.64.3-.99.25-.25-.03-.49-.16-.74-.16-.17.02-.35.08-.49.18.51.11,1,.32,1.52.33.37.01.77-.12,1-.42.23-.27.26-.63.32-.97.02-.14.14-.24.23-.34-.15,0-.3-.02-.44.04-.09.06-.07.18-.08.27m-2.19.74c.11-.03.22-.07.33-.12,0-.05-.06-.09-.09-.13-.09.07-.18.15-.24.25m-4.02.57c-.18.14-.32.34-.47.52-.16.19-.3.4-.4.63-.1.21-.09.48.04.68.07.11.22.15.34.1.11-.04.15-.16.24-.22.09-.04.18-.13.1-.23.05-.02.1-.04.15-.06-.02-.07-.11-.07-.17-.12.07,0,.13.03.19.06.02-.03.03-.06.05-.09-.05-.01-.12,0-.16-.05.07-.03.14-.07.2-.11-.09-.01-.18-.03-.28-.04.08-.05.15-.1.24-.13-.11-.01-.22-.02-.32-.03.06-.05.11-.1.16-.15-.1.02-.19.04-.29.07.03-.1.14-.13.17-.23-.06.03-.12.06-.18.08.06-.18.23-.29.39-.37-.06,0-.13,0-.19,0,0-.01,0-.03,0-.04.15-.13.35-.2.47-.36-.09.03-.18.08-.28.09m12.61.31c.17.09.37.09.53.19.23.09.4.28.62.37-.25-.38-.71-.56-1.16-.56m-10.73.68c-.28.14-.54.31-.8.48.28-.14.54-.31.82-.44.55-.25,1.12-.46,1.71-.56-.6.06-1.19.25-1.73.52m-.07.46c-.18.05-.36.07-.53.15.98-.24,1.98-.41,2.98-.4-.82-.09-1.66.03-2.46.25m7.8-.24c.16.13.38.22.58.13-.19-.04-.38-.12-.58-.13m1.06.13c-.31.25-.72.28-1.1.26.08.09.22.09.33.11.29,0,.61-.12.77-.37m-10.68.63c-.09.17-.21.31-.3.48.12-.03.24-.07.31-.18.12-.2.18-.43.2-.66-.09.11-.14.24-.21.36m.92-.12c.09-.03.13-.15.23-.13.02.02.05.07.07.1,0-.06,0-.13.01-.19-.1.08-.23.13-.31.23m.77-.07c0-.05,0-.11,0-.16-.06.02-.06.15,0,.16m7.73.31c.14.14.35.17.53.16.47-.04.94-.21,1.28-.55-.53.32-1.19.48-1.81.39m-7.32-.28c-.22.03-.45.05-.66.12.2-.01.39-.08.58-.09.71-.04,1.42-.07,2.13,0-.67-.15-1.37-.11-2.06-.04m-.87.11c-.07.05-.16.03-.23.09.07-.01.15-.03.22-.05,0,0,0-.03.01-.04m-.05.16l.08.02s-.11.05-.15.11c.15.13.3.28.45.41.27.19.55.38.86.5-.42-.26-.86-.51-1.21-.86l-.02-.1s.09,0,.13.01c-.05-.04-.08-.21-.14-.1m.39-.05c.04.06.09.12.11.2-.11.03-.22-.01-.33.03.12.03.25-.02.37-.02.72.16,1.46.28,2.13.6-.28-.17-.6-.27-.91-.37-.39-.13-.8-.16-1.2-.25-.08-.04-.1-.13-.18-.18m8.8.35c-.36.07-.74.11-1.09-.02.16.15.4.2.62.19.5,0,.99-.21,1.39-.51v-.02c-.29.16-.6.28-.92.35m-9.46-.23c.1.36.37.63.63.89.1.09.19.2.31.26-.35-.34-.7-.71-.93-1.15m8.79.67c-.18,0-.35-.09-.54-.09.25.18.56.25.86.21.52-.06,1.01-.27,1.43-.58-.55.27-1.14.46-1.76.45m-10.1-.25c.08.56.5,1.04,1.02,1.24.39.16.81.23,1.23.26.41-.03.82-.13,1.19-.29-.09-.05-.19-.05-.29-.07-.27-.03-.51.12-.77.16-.24.02-.48-.04-.71-.09-.33-.08-.66-.16-.96-.33-.26-.14-.46-.38-.58-.64-.04-.08-.06-.17-.13-.23m9.23.53c.13.19.37.29.6.34.31.05.65.06.95-.05-.53.02-1.08-.03-1.55-.29m-.37.17c.07.14.22.21.32.33-.15,0-.29-.03-.44-.01.05.09.16.11.25.14.46.17.97.12,1.45.08.12-.02.24,0,.35-.07-.67.03-1.32-.22-1.93-.48m-.46.34c.08.14.19.27.31.38.35.25.8.27,1.21.26-.08-.08-.19-.1-.29-.15-.41-.17-.83-.31-1.23-.49m-.33.33c.11.2.3.35.51.43.29.11.61.18.92.16-.23-.11-.47-.2-.7-.31-.24-.11-.5-.18-.74-.28m-.77.04c.08.13.16.27.29.34.27.16.57.24.87.28-.34-.28-.79-.4-1.17-.63m-.9.27c.07.14.17.27.31.34.19.09.41.14.61.2.46.13.92.24,1.39.27-.25-.13-.53-.21-.78-.34-.48-.23-1.01-.37-1.53-.47m-4.41.27c.45.33,1.05.34,1.56.17-.22-.06-.46-.08-.66-.2.03-.07.13-.09.17-.15-.15-.04-.31-.04-.46,0-.2.06-.41.1-.61.16m19.31,0c.15.14.32.24.48.37,1.3.98,2.6,1.95,3.82,3.03.54.5,1.04,1.04,1.51,1.61.01,0,.04.03.06.04-.54-.9-1.28-1.68-2.07-2.37-1.18-1.01-2.47-1.88-3.8-2.67m-15.23.04c.09.15.2.31.38.38.29.12.62.15.93.17-.38-.3-.84-.48-1.31-.55m22.1.41c.04.35.06.71.13,1.06-.02.02-.04.05-.06.07-.04-.1-.06-.24-.14-.31.05.28.12.56.2.84.2.75.39,1.51.53,2.28.01.07.02.14.06.21,0-1.01-.24-2.01-.62-2.95.02-.01.05-.03.07-.04-.01-.32-.05-.64-.1-.95-.02-.07-.02-.14-.06-.2m-20.02.29c.02.11.11.2.12.32-.15-.09-.29-.21-.45-.29.04.14.1.27.12.41-.15-.1-.29-.22-.45-.3.05.16.12.32.14.48-.11-.09-.2-.2-.33-.26.03.17.07.33.1.49-.23-.23-.48-.46-.79-.59.01.19.05.38.03.58-.1-.09-.16-.23-.27-.32,0,0-.03.02-.03.02-.05.17-.08.36-.18.51,0-.07,0-.13,0-.2-.18.15-.3.35-.45.53.03-.23.12-.45.15-.68-.45.33-.67.88-.66,1.43.12-.07.21-.17.3-.27.04-.05.07-.12.13-.14-.07.27-.11.55-.06.83.13-.07.26-.15.41-.2,0,.28,0,.59-.2.8-.31.31-.77.38-1.19.37-.92-.02-1.75-.48-2.63-.68-.3-.06-.6-.07-.9-.05-.25.03-.51.07-.71.22-.11.08-.23.17-.31.29.2-.15.43-.34.7-.3.37.06.74.15,1.11.25.3-.17.67-.19,1-.08.83.24,1.63.59,2.49.76-.11-.07-.24-.09-.34-.18.46,0,.91.14,1.31.36.03.02.05.02.08.02-.15-.11-.29-.24-.44-.35.15,0,.29.05.44.06-.11-.07-.24-.12-.36-.17.22-.03.44.03.65.1-.07-.06-.17-.09-.2-.18.12.01.25.02.37,0-.16-.04-.32-.09-.48-.13.02-.05.08-.07.12-.1.31-.17.68-.23,1.03-.16.72.12,1.36.57,1.8,1.14.25.32.42.7.5,1.1.02-.4-.09-.8-.27-1.16-.26-.53-.74-.91-1.25-1.19-.04-.03-.09-.04-.12-.08.55.12,1.15.35,1.42.88,0-.42-.33-.77-.69-.96-.85-.47-1.95-.3-2.72.27.08-.23.15-.47.17-.71.29-.22.36-.6.35-.94.08.12.1.26.18.38.06-.26.07-.52.08-.79.14.18.21.4.29.61,0,0,.02-.02.03-.02.04-.18.02-.37.01-.55.13.11.17.29.26.44.03-.19-.02-.38-.04-.56.14.12.22.3.31.46.06-.25.09-.51.07-.78.17.17.24.4.34.61.05-.26,0-.53-.06-.78.23.18.32.47.38.74.08-.2.02-.41.04-.62.09.14.15.3.22.46.04-.46-.2-.96-.64-1.15m12,.33c.19.13.41.24.61.36.51.32,1.02.64,1.52.97,1.29.86,2.57,1.76,3.7,2.82,1.02.94,1.94,2.01,2.55,3.26.07.12.1.27.18.38-.11-.4-.3-.78-.5-1.14-.41-.73-.9-1.41-1.47-2.02-1.08-1.13-2.32-2.1-3.62-2.96-.6-.41-1.23-.79-1.87-1.13-.37-.19-.73-.39-1.12-.54m1.89.41c.92.62,1.82,1.26,2.72,1.91,1.23.89,2.41,1.85,3.39,3.01-.18-.35-.45-.64-.7-.94-.57-.64-1.23-1.22-1.92-1.73-1.11-.82-2.28-1.57-3.48-2.25m-19.8,1.69c.3,0,.6.04.9,0-.17-.12-.4-.13-.61-.12-.1.02-.23.02-.29.11m-2.27,2.6c.23,0,.44.09.66.13.23.04.47.07.71.03.08-.02.17-.09.14-.17-.14-.16-.37-.17-.56-.19-.32,0-.68,0-.95.2m26.51.55c.54.77,1.21,1.44,1.77,2.2.41.54.74,1.14.94,1.79,0,.04.04.07.06.11-.12-.49-.27-.98-.54-1.41-.59-1.01-1.47-1.8-2.23-2.68m-25.28.24c-.08.03-.2.04-.25.12.22.08.46.14.68.06.05-.02.13-.06.09-.13-.14-.13-.36-.08-.53-.05m2.84,1.12c.04.2.16.38.27.55.47.72,1.17,1.26,1.95,1.61.55.24,1.16.39,1.77.33-.77-.13-1.51-.42-2.16-.87-.67-.46-1.25-1.04-1.83-1.62m1.06.61c.25.23.52.45.82.62.65.35,1.39.52,2.13.56-.05-.05-.1-.1-.14-.16.43.17.93.31,1.39.15-.18-.03-.4-.03-.53-.19.26.01.52.06.77.02.22-.03.42-.14.62-.25-.23,0-.45-.02-.67-.06l-.03.02c.06.04.12.07.16.13-.17.01-.33-.01-.49-.06.01.03.04.09.05.12-.18,0-.36-.02-.54-.03.03.03.07.05.1.08-.22.06-.43,0-.63-.07.08.07.17.12.25.19-.14-.02-.28-.08-.42-.06-.17.04-.27-.14-.42-.2.02.05.07.13.1.18-.18-.07-.3-.22-.45-.32.04.09.09.19.11.29-.16-.08-.27-.21-.4-.32.03.09.08.17.1.26-.18-.07-.29-.22-.43-.35.03.08.07.16.11.24-.18-.05-.26-.23-.41-.32.02.05.06.15.08.2-.19-.09-.26-.31-.43-.41.04.08.07.16.1.24-.19-.07-.29-.26-.42-.4,0,.05,0,.14.01.18-.13-.1-.2-.26-.32-.36,0,.05,0,.09-.03.13-.05-.13-.1-.26-.17-.37,0,.1.03.19.05.28-.15-.1-.24-.28-.38-.4.08.18.22.32.36.45m22.24-.37c.8,1.02,1.54,2.12,1.95,3.36.13.35.18.72.28,1.07-.03-.86-.28-1.71-.7-2.46-.33-.6-.76-1.15-1.22-1.65-.1-.11-.19-.23-.32-.32m-17.32.84c-.1.06-.25.09-.31.2.21,0,.43-.02.62-.11-.06-.04-.14-.02-.2-.03.07-.06.16-.08.24-.12.29-.12.52-.35.69-.6-.3.28-.65.51-1.03.66m3.11.12c-.78.35-1.39,1.01-1.74,1.78-.61,1.37-.43,2.99.27,4.29.23.41.52.79.88,1.09-.47-.81-.8-1.71-.96-2.63-.12-.69-.15-1.42.08-2.09.21-.66.64-1.24,1.17-1.69.32-.26.67-.51,1.07-.62.39-.11.84-.1,1.19.13-.14-.17-.35-.27-.56-.35-.45-.18-.97-.11-1.4.09m15.35,1.91c.01.09.04.17.07.25.43,1.23.56,2.58.27,3.86.18-.27.28-.59.36-.9.16-.71.03-1.46-.21-2.14-.13-.37-.29-.73-.49-1.07m.05,3.17c0,.45.02.9-.09,1.33-.12.48-.31.95-.58,1.37.06-.03.09-.09.13-.14.27-.34.48-.73.58-1.15.12-.46.09-.96-.05-1.41m-11.71,6.65c.18.23.38.43.59.63.22.22.52.31.8.42-.15-.14-.36-.22-.53-.34.2,0,.38.12.57.17.22.06.43.12.65.18-.44-.3-.91-.56-1.39-.79.1.12.24.19.36.29,0,.01,0,.03,0,.04-.29-.06-.56-.19-.79-.38-.09-.07-.16-.17-.27-.22M1.57,9.7c.29.14.54.35.77.58.14.17.3.33.4.52-.17-.07-.26-.25-.39-.38-.22-.28-.52-.48-.79-.72m-1.03,1.53c.31-.07.64-.01.95.05.28.08.59.16.82.34-.3-.06-.57-.19-.87-.26-.29-.08-.6-.1-.9-.13m.09,1.37c.49-.24,1.02-.42,1.56-.5.06,0,.19-.04.19.05-.6.07-1.17.29-1.76.44m.5.41c.41-.32.83-.65,1.35-.76-.08.13-.26.15-.38.22-.34.14-.63.39-.97.54m13.32,19.07c.11.41.13.85.32,1.23-.03-.18-.05-.35-.05-.53.07.06.08.16.12.24.1.33.2.67.38.97.03.05.06.11.12.14,0-.15.01-.29.02-.44,0,0,.03,0,.03,0,.12.41.29.82.62,1.1-.14-.25-.25-.53-.21-.82.18.45.52.81.84,1.16.11.12.23.26.25.43-.28.16-.62.09-.93.06-.87-.13-1.73-.36-2.61-.38-.8-.04-1.58.13-2.34.36-.34.11-.66.25-.99.4-.07.03-.17.06-.22,0-.09-.09-.07-.23-.08-.35-.13.05-.25.13-.39.16.15-.15.34-.26.51-.38.57-.39,1.18-.76,1.86-.91.18-.05.37-.04.54-.14.33-.2.73-.14,1.09-.07.87.21,1.7.6,2.6.7-.14-.2-.35-.34-.51-.53-.07-.07-.1-.17-.18-.23.01.12.03.24.05.36-.23-.27-.43-.57-.58-.89-.15-.35-.35-.69-.43-1.07.02-.2.12-.38.17-.57m-3.84,3.08c-.1.08-.23.15-.29.26.27-.13.57-.18.84-.3.23-.09.43-.25.67-.32.12-.05.26-.05.37-.12-.57,0-1.13.17-1.6.48h0Z"/>
  </g>
</svg>