<?xml version="1.0" encoding="UTF-8"?>
<svg id="Layer_2" data-name="Layer 2" xmlns="http://www.w3.org/2000/svg" viewBox="0 0 31.01 33.94">
  <defs>
    <style>
      .cls-1 {
        stroke-width: 0px;
      }
    </style>
  </defs>
  <g id="Layer_1-2" data-name="Layer 1">
    <path class="cls-1" d="m29.89,4.37c.4.41.75.87,1.12,1.31-.32-.86-.9-1.52-1.62-2.07.02-.02.04-.04.06-.06.44.39.87.78,1.36,1.2-.53-.96-1.27-1.63-2.17-2.14.01-.02.02-.04.03-.06.3.1.6.21.92.32-.7-.62-2.06-1.22-3.37-1.5.87-.19,1.65.18,2.44.47-1.42-.83-2.95-1.14-4.58-.97.85-.29,1.7-.3,2.57-.17-1.4-.5-2.76-.26-4.1.26,0-.03-.01-.05-.02-.08.52-.3,1.04-.59,1.57-.89-1.04.25-1.99.7-2.92,1.24.28-.33.56-.66.84-.99-.02-.02-.04-.04-.06-.06-.66.48-1.32.95-2.05,1.48.2-.37.36-.67.53-.97-.88.68-1.38,1.69-2.18,2.48.08-.49.15-.95.23-1.4-.02,0-.05,0-.07-.01-.21.53-.42,1.06-.63,1.59-.01,0-.03,0-.04,0-.03-.37-.07-.73-.1-1.1-.22.95-.31,1.93-.85,2.79-.03-.4-.05-.78-.08-1.16-.01,0-.03,0-.04,0-.13.4-.25.8-.38,1.2-.02,0-.04-.01-.06-.02-.03-.45-.06-.89-.08-1.34-.01,0-.03,0-.04,0-.1.77-.2,1.55-.31,2.35-.06-.11-.11-.19-.18-.31-.11.79-.07,1.55-.38,2.29-.16-.54-.31-1.05-.47-1.55-.03,0-.05.01-.08.02v2.78s-.04,0-.06,0c-.21-.46-.43-.93-.64-1.39,0,0-.02.02-.02.02.07.76.13,1.53.2,2.29-.03,0-.05.01-.08.02-.31-.54-.61-1.09-.92-1.63,0,0-.02.01-.03.02.19.67.39,1.35.58,2.02-.02,0-.05.02-.07.03-.33-.4-.66-.79-.98-1.19.15.34.37.63.56.94.19.3.35.61.52.91-.03.02-.06.03-.09.05-.26-.39-.52-.78-.78-1.17-.02.01-.05.02-.07.03.09.32.18.65.28,1.02-.21-.17-.37-.31-.54-.44-.03.03-.06.06-.09.09.44.5.88,1,1.33,1.5-.01.02-.03.04-.04.06-.76-.54-1.52-1.08-2.33-1.66.69.78,1.32,1.51,1.96,2.23,0,.01,0,.02,0,.03-.71-.4-1.43-.8-2.14-1.2-.01.02-.02.04-.03.05.77.63,1.54,1.26,2.33,1.9-.66-.12-1.3-.23-1.94-.34.67.33,1.41.42,2.01.9.46.36,1.01.58,1.49.91,1.87,1.3,3.19,3.08,4.32,5.02.21.36.36.76.53,1.14-.02,0-.04.01-.06.02-.25-.28-.5-.57-.75-.85-.01,0-.03.02-.04.03.21.38.41.76.62,1.15-.02,0-.04.02-.05.03-.07-.07-.14-.14-.26-.24.25.55.47,1.04.69,1.53-.02.01-.04.02-.06.03-.12-.17-.24-.34-.4-.57.06.32.15.57.15.82,0,1.27.02,2.54-.06,3.8-.06.95-.46,1.79-1.21,2.45-.04-.06-.09-.1-.12-.15-.22-.54-.31-1.11-.07-1.65.38-.87.55-1.77.56-2.71.02-1.23.03-2.47-.22-3.68-.6-2.88-2.25-4.95-4.91-6.22-.7-.33-1.38-.71-2.05-1.08-.53-.29-.93-.73-1.19-1.28-.18-.39-.46-.7-.79-.97-.27-.23-.53-.47-.75-.75-.12-.15-.18-.37-.2-.57-.03-.34-.01-.68-.01-1.02v-.18c-.12.17-.23.31-.33.45.13-.61.07-1.19-.14-1.77-.05.04-.09.08-.12.11-.47-.27-.22-.72-.32-1.11-.12.19-.26.38-.29.59-.04.24-.16.37-.33.49-.28.21-.49.45-.5.84,0,.13-.08.26-.15.37-.22.34-.3.7-.21,1.1.05.25.12.5.18.76-.04.01-.07.03-.11.04-.11-.23-.29-.44-.33-.69-.08-.4-.04-.82.18-1.19.08-.15.15-.32.18-.48.05-.35.21-.64.45-.89.12-.13.22-.26.34-.4-.01,0-.03-.02-.04-.03-.13.09-.25.18-.37.26.25-.53.5-1.05.75-1.57-.03-.01-.05-.03-.08-.04-.1.12-.2.24-.34.39.17-.4.31-.75.46-1.1-.02-.01-.04-.03-.06-.04-.09.05-.2.09-.28.16-.17.14-.33.29-.5.43-.04.03-.12.03-.18.04-.02-.03-.03-.05-.05-.08-.23.38-.46.77-.69,1.15.02.01.04.02.06.03.04-.03.08-.06.12-.09-.05.2-.11.39-.23.53-.43.54-.6,1.17-.61,1.84,0,.27-.1.36-.35.4-1.83.27-3.83,2.21-4.08,4.13-.06.42-.23.76-.51,1.06-.23.25-.23.57.01.81.15.14.34.24.51.35.11.07.24.13.33.22.33.34.72.48,1.19.41.68-.1,1.37-.18,2.03-.27-.36-.03-.76-.06-1.2-.09.82-.35,1.6-.13,2.07.56.08.12.16.24.22.38.19.45.36.9.55,1.37.81-.62.69-1.55.81-2.47.17.61.26,1.17.12,1.72-.22.92-1.17,1.49-2.16,1.34-.33-.05-.67-.09-1-.13-1.25-.16-2.31.3-3.3.99-.1.07-.2.17-.28.26-.17.18-.19.38-.14.65.13-.24.23-.42.33-.59.03,0,.05.02.08.03-.22.37-.19.74.09,1.14.05-.08.09-.17.14-.25.07.08.12.13.17.19.02,0,.05,0,.07.01-.02-.45.05-.85.55-.95-.36.27-.42.71-.56,1.1-.02.05.08.14.15.26.1-.2.15-.31.2-.4.04.22.02.5.14.67.1.14.38.15.6.23.02-.15.03-.25.04-.35.1.09.18.17.27.24.06-.05.09-.08.13-.11.03-.03.07-.06.1-.09.19.28.28.34.35.24.22-.28-.06-.41-.25-.6.22-.13.42-.25.62-.37,0-.03,0-.07-.01-.1-.31-.02-.63-.05-.97-.07.17-.23.39-.3.65-.3.57,0,1.05.22,1.51.55.6.43,1.2.88,1.86,1.2,2.15,1.03,4.44-.51,4.64-2.34.04-.42.16-.83.25-1.24.11.81.14,1.61-.12,2.4l.26-.4c-.17,1.07-1.06,1.56-1.84,2.2,1.67-.46,2.6-.56,3.14-.33-.14.02-.26.04-.37.06-.67.14-1.35.23-2,.44-1.63.54-2.33,1.63-2.39,3.3.32-1.04.41-1.21.72-1.43-.42.92-.61,2.21-.42,2.84.07-.25.14-.51.2-.76l.04.02c.02.45.05.9.07,1.35.03,0,.06,0,.1,0,.02-.13.03-.27.05-.4.03.05.04.09.04.13.07.89.35,1.69.97,2.36.35.38.82.56,1.27.78.24.11.43.27.52.56-.06,0-.11-.01-.15-.01-.86-.04-1.71-.11-2.57-.12-.62,0-1.19.27-1.73.56-.14.07-.21.32-.26.49-.02.07.07.18.13.31.17-.22.3-.38.38-.49,0,.2-.01.42-.02.64h.26c.1.17.24.2.45,0,.26-.24.57-.31.91-.31.54,0,1.08,0,1.62,0,1.89-.02,3.78-.04,5.67-.06.11,0,.21-.04.32-.06,0-.03,0-.07,0-.1-.62-.08-1.24-.16-1.86-.23.37-.25.77-.38,1.15-.22,1.02.42,2.03.09,3.04-.05h-.52s0-.07-.01-.11c.54-.1,1.07-.19,1.65-.3-.33-.02-.62-.03-.91-.05.55-.36,1.05-.75,1.73-.8-.08-.02-.17-.04-.29-.07.16-.09.28-.15.4-.22,0-.01,0-.03-.01-.04h-.49c.49-.38.92-.73,1.48-.86-.08-.01-.16-.02-.24-.04,0-.03,0-.06-.01-.08.37-.12.75-.25,1.12-.37,0-.02,0-.04-.01-.06-.51.13-1.02.25-1.53.38-.01-.02-.03-.04-.04-.06.63-.45,1.25-.91,1.88-1.36,0-.01-.01-.03-.02-.04-.26.1-.52.21-.83.33.49-.63,1.12-.97,1.75-1.34-.36.13-.72.26-1.15.41.52-.82,1-1.58,1.48-2.35-.16.1-.33.2-.5.31-.02-.01-.04-.03-.06-.04.18-.28.37-.56.59-.89-.17.09-.27.15-.38.21-.02,0-.05-.02-.07-.03.28-.82.57-1.65.86-2.48-.27.34-.54.68-.81,1.02-.02,0-.03,0-.05,0,.14-.84.28-1.68.41-2.48,0,0-.07.06-.12.12-.02,0-.04-.01-.06-.02l.28-.97s-.04-.02-.06-.03c-.21.47-.42.93-.64,1.41v-2.92h-.08l-.18,1.84s-.03,0-.05,0c-.11-.86-.22-1.73-.33-2.59-.01,0-.02,0-.04,0-.06.57-.11,1.13-.17,1.7,0,0-.02,0-.02,0-.17-1.06-.33-2.12-.5-3.21-.06.19-.12.35-.17.5-.03,0-.05,0-.08,0-.11-.7-.21-1.41-.32-2.14-.06.68-.11,1.34-.16,2-.04,0-.08.01-.12.02-.13-.4-.29-.8-.37-1.21-.08-.41-.07-.84-.1-1.23-.02.03-.05.11-.09.17-.04.07-.08.14-.14.23-.35-1.27-.34-2.49.09-3.69.2-.58.54-1.08,1.03-1.46.9-.71,1.84-.68,2.82-.18.19.1.37.2.56.31,0-.01.01-.02.02-.03-.07-.09-.15-.17-.23-.27.88-.04,1.73-.09,2.59-.13,0-.02,0-.04,0-.05-.74-.05-1.47-.11-2.2-.16,0-.05,0-.1,0-.15.53,0,1.07.04,1.6-.01.52-.06,1.04-.22,1.56-.33,0-.02,0-.04-.01-.06-.58.03-1.16.07-1.76.1.03-.05.04-.07.05-.08.13-.05.25-.1.38-.15.69-.31,1.22-.78,1.38-1.55.1-.5.12-1.01.17-1.52,0-.09.01-.18.02-.27.03,0,.06,0,.09-.01.1.28.19.56.3.83.02.06.08.1.12.15.03-.06.09-.11.09-.17-.02-.31-.05-.63-.07-.94.01,0,.03-.02.04-.02.19.44.38.89.56,1.33.04-.27.05-.54,0-.8-.05-.27-.16-.53-.24-.79.02-.01.05-.03.07-.04.29.55.58,1.1.85,1.61-.01-1.3-.92-2.07-1.89-2.81.15,0,.31,0,.42.08.3.19.62.37.86.62Zm-14.47,5.36c.24,1.04.52,2.21.77,3.25-.33-.47-.74-1.98-.77-3.25Zm2.27-.74c.08-.79.33-1.5.76-2.16-.25.71-.5,1.43-.76,2.16Zm-14.96,3.92c.17-.53.79-.72,1.23-.38.13.1.27.2.41.3,0,.02,0,.04-.01.06-.13-.04-.27-.05-.38-.11-.52-.3-.85-.2-1.12.34-.07.14-.16.28-.29.39.05-.2.09-.4.15-.6Zm1.56.49c0,.09.06.2.02.27-.25.5-1.09.58-1.48.1.11.02.17.03.23.05.43.15.77-.01.94-.43q.07-.19.48-.21c-.11.08-.19.14-.27.2.03,0,.06.01.09.02Zm18.65,10.82s.05.01.07.02c-.09.36-.19.73-.28,1.09-.03,0-.05-.01-.08-.02.1-.36.19-.73.29-1.09Zm-1.52-3.97c.14.77.28,1.54.41,2.31-.03,0-.05.02-.08.02-.14-.77-.27-1.55-.41-2.32.03,0,.05,0,.08-.01Zm-1.51-16.17s-.04-.05-.06-.07c.48-.39.95-.79,1.43-1.18.02.03.05.05.07.08-.48.39-.96.78-1.44,1.17Zm2.53-.62s-.02-.05-.03-.08c.3-.14.61-.27.91-.41.01.03.03.05.04.08-.31.14-.62.27-.92.41Zm2.52-2.22s0-.08,0-.11c.36-.02.72-.05,1.08-.07,0,.04,0,.07,0,.11-.36.03-.71.05-1.07.08Zm1.89,6.98c.83-.58,1.08-1.41,1.15-2.36.49.74-.24,2.35-1.15,2.36ZM7.59,32.29c-.35.09-.71.19-1.06.2-.82.02-1.64-.02-2.47-.02-.23,0-.47.02-.77.03.09-.1.14-.17.18-.22-.07-.01-.17-.03-.27-.05.07-.11.12-.23.21-.31.55-.55,1.26-.51,1.96-.51.53,0,1.05-.04,1.58-.09.13,0,.26-.08.38-.13.41-.19.44-.37.17-.74-.39-.54-.82-1.06-1.12-1.64-.54-1.05-.72-2.18-.41-3.34.08-.31.22-.62.39-.89.56-.88,1.29-.96,2.11-.27-1.11,1.27-1.24,2.71-.67,4.2.32.84.78,1.63,1.22,2.41.19.33.51.57.77.85-.2.02-.46.03-.7.09-.51.13-1,.31-1.51.45Zm-4.73-13.18c.3-.44,1.07-.76,2.05-.88.03.1.06.2.1.36.08-.23.14-.42.21-.61.14.35.28.69.44,1.08-.93.2-1.86-.08-2.8.06Z"/>
  </g>
</svg>