<?xml version="1.0" encoding="UTF-8"?>
<svg id="Layer_2" data-name="Layer 2" xmlns="http://www.w3.org/2000/svg" viewBox="0 0 33.94 31.05">
  <defs>
    <style>
      .cls-1 {
        stroke-width: 0px;
      }
    </style>
  </defs>
  <g id="Layer_1-2" data-name="Layer 1">
    <path class="cls-1" d="m33.94,24.65s-.3-.34-.33-.32c-.01,0-.05-.03-.09-.09-.07-.1-.07-.11.04-.06.06.02.17.07.24.1.12.06.12.05-.03-.17-.08-.13-.16-.23-.16-.23,0,0-.06-.07-.11-.16l-.11-.16.14.08c.17.09.22.08.11-.03-.08-.07-.08-.07.03-.03.06.02.11.07.11.1,0,.03,0,.03.02,0,.02-.07-.08-.26-.11-.21-.01.02-.04,0-.06-.04-.02-.04-.08-.08-.12-.09-.06-.02-.07-.04-.05-.1.02-.06.02-.06.03,0,0,.04.06.08.11.09.09.01.09,0,.02-.08-.05-.05-.07-.12-.06-.15s.03-.02.02,0,.03.06.06.06c.03,0,.06.03.07.07s.03.07.06.07c.07,0-.14-.33-.24-.37-.06-.03-.06-.03,0-.03.06,0,.06-.01,0-.06-.05-.04-.02-.04.09,0,.18.06.19.02.01-.07-.06-.03-.1-.06-.09-.07.01,0-.01-.03-.06-.05-.05-.02-.07-.04-.04-.06.02-.01.06,0,.09.02.03.02.05.02.06,0,0-.03-.06-.08-.14-.12-.15-.06-.22-.18-.11-.18.03,0,.05.02.05.05,0,.03.02.02.05-.01.06-.08.04-.11-.12-.17-.07-.03-.15-.08-.17-.12-.04-.06-.02-.07.1-.04.08.02.16.05.17.08.02.03.07.05.12.06.11.02.08-.05-.04-.08-.06-.02-.07-.03-.04-.07.03-.04,0-.07-.12-.13-.13-.07-.14-.09-.1-.12.03-.02.07-.02.08,0,.01.02.04.02.06,0,.02-.01-.02-.06-.09-.11-.08-.05-.11-.09-.09-.11.02-.01.01-.07-.02-.13-.06-.11-.06-.11.07-.08q.13.03.03-.03c-.15-.09-.15-.13,0-.08.17.06.13,0-.04-.07-.08-.03-.15-.08-.17-.11-.02-.04.01-.04.1,0,.16.07.13-.02-.04-.11-.14-.07-.11-.12.03-.06.06.03.08.02.06-.01-.02-.03,0-.05.02-.05.07,0-.24-.29-.4-.36l-.13-.06.22.02c.12.01.19,0,.14,0-.04-.02-.13-.08-.18-.14-.06-.06-.18-.13-.28-.16-.18-.05-.65-.32-.63-.37,0-.02.1.03.21.1.11.07.27.15.35.17.08.02.16.06.17.09.02.03.03.02.04-.04,0-.07.01-.07.03,0,.01.05.05.07.09.07.1-.02-.04-.15-.22-.2-.07-.02-.14-.07-.14-.1,0-.04.05-.03.14.02.1.06.17.06.21.02.03-.04.1-.04.16-.01.15.07.12-.06-.04-.14l-.12-.06h.15c.15.01.15.01.08-.04-.05-.04-.05-.06,0-.05.05,0,.05-.01-.02-.05-.05-.03-.08-.08-.08-.1s0-.02-.02,0c-.02.03,0,.08.03.11.04.03.04.05,0,.04-.08-.02-.18-.2-.12-.2.03,0,0-.01-.05-.02-.06,0-.12-.04-.13-.06-.01-.03-.04-.03-.07-.02-.02.01-.05,0-.07-.02-.02-.03,0-.04.06-.03.12.02.09-.02-.07-.11-.09-.05-.06-.05.11,0,.13.04.2.05.15.02-.14-.09-.32-.14-.41-.12-.07.01-.07.03.02.1.06.05.08.08.04.07-.03,0-.1-.05-.14-.09-.06-.05-.06-.09,0-.14.04-.04.07-.05.07-.03s.08.05.17.06c.15.02.16.02.13-.04-.02-.04-.12-.09-.21-.12l-.17-.05.11-.07c.06-.04.09-.04.07-.02-.06.07.16.14.25.08.05-.03.04-.04-.05-.05-.06,0-.1-.02-.08-.03.07-.04-.25-.18-.42-.18-.11,0-.2-.02-.21-.04-.01-.02.03-.03.08-.02s.22.03.36.06c.14.02.26.03.27.01.01-.05-.18-.15-.2-.11-.01.02-.03.01-.05-.02-.02-.03-.01-.08.01-.11.03-.03.02-.08-.02-.11-.04-.03,0-.04.13,0l.2.05-.12-.09c-.07-.05-.19-.12-.28-.16-.33-.14-.37-.21-.08-.12.16.05.3.07.31.05,0-.03-.07-.07-.17-.1-.1-.03-.21-.09-.25-.14-.07-.09-.06-.09.13-.03.22.07.29.06.23-.04-.03-.06-.02-.06.09-.04l.13.03-.11-.06c-.06-.04-.18-.08-.27-.09s-.17-.06-.2-.1c-.03-.06-.02-.06.08-.02.07.02.13.04.14.03.04-.03-.09-.16-.2-.19-.14-.04-.18-.1-.06-.08.05,0,.1,0,.1-.02.01-.05-.16-.11-.18-.06-.01.02-.08.03-.15,0-.15-.04-.13-.08.03-.04.09.02.1.01.03-.1-.04-.07-.08-.1-.1-.07-.02.03-.1.03-.18.02l-.15-.03h.14c.18.01.2,0,.12-.1-.06-.06-.04-.06.1,0,.09.04.2.07.24.06.05,0,.04-.02-.04-.05-.06-.02-.12-.06-.14-.08-.01-.03-.09-.05-.17-.05-.08,0-.14-.02-.13-.04s.08-.03.16-.02h.16s-.14-.04-.14-.04l-.14-.05h.13c.11-.01.12-.02.05-.04-.05-.02-.1-.08-.11-.14-.02-.06-.04-.09-.05-.07-.01.02-.08.02-.16-.01-.13-.06-.13-.06-.03-.06.06,0,.11-.03.11-.05,0-.03-.03-.04-.07-.04s-.1-.03-.13-.09c-.06-.1-.05-.1.06-.07.06.01.12.05.12.07,0,.03.01.02.03,0,.02-.03.1-.05.18-.03.16.02.21-.01.11-.07-.03-.02-.08-.05-.09-.07-.02-.02-.07-.06-.11-.1l-.08-.06.14.02.14.02-.13-.07c-.15-.08-.22-.18-.16-.21.07-.04-.02-.13-.17-.16-.08-.02-.15-.01-.15,0,0,.02-.03.02-.06,0-.08-.04.13-.11.3-.1.08,0,.16,0,.16-.03,0-.02-.11-.04-.27-.04s-.28-.01-.28-.02c-.02-.03.11-.06.25-.06.17,0,.24-.02.2-.09-.02-.03-.03-.03-.04,0,0,.04-.24,0-.27-.05,0-.01.03-.02.09-.03.06,0,.1-.01.09-.03-.02-.04-.39-.12-.43-.1-.02.01-.05,0-.07-.04-.02-.03-.05-.05-.07-.04-.02.01-.05,0-.07-.02s0-.05.05-.06.06-.03.05-.05c-.01-.02-.06-.03-.1-.03-.04,0-.08,0-.1-.03-.01-.02,0-.05.05-.05s.06-.03.05-.05c-.03-.05-.23-.04-.26.02-.01.03-.03.01-.04-.04,0-.05-.02-.06-.04-.04-.01.02-.06.03-.11.02-.12-.03-.03-.08.14-.07.3.01.16-.1-.24-.2-.23-.06-.36-.11-.3-.11.07,0,.17,0,.23,0,.06,0,.09.02.09.04s.01.02.04-.02c.1-.12-.05-.25-.3-.24-.05,0-.05.02,0,.06.06.05.06.05-.03.03-.05-.01-.09-.03-.09-.05s-.06-.05-.13-.07c-.14-.04-.13-.04.14-.06.15-.01.3-.03.32-.04.1-.05.18-.02.18.08,0,.11.14.21.25.19.07-.01-.03-.15-.12-.18-.12-.03-.13-.09-.03-.12.17-.05.05-.1-.21-.08-.14,0-.34.01-.44.01h-.17s.11-.07.11-.07c.06-.03.15-.05.2-.04.12.03.34-.03.31-.09-.01-.02-.05-.03-.07-.02-.03.01-.04,0-.04-.01,0-.02-.03-.05-.07-.07-.04-.02-.1-.06-.13-.1-.05-.07-.05-.07.07-.04.07.02.13.03.15.02.01,0,0-.02-.05-.04-.1-.03-.13-.08-.05-.1.03,0,.04-.02.02-.02-.02,0-.05,0-.07.01-.02,0-.07,0-.12,0s-.13,0-.18.03-.11.04-.12.01c-.02-.03.03-.07.12-.11.08-.04.15-.07.15-.07,0,0-.14,0-.3-.01-.24,0-.29-.02-.24-.07.05-.06.05-.07-.03-.03-.05.02-.13.04-.19.03s-.13,0-.15.01c-.02.01,0,.03.07.04s.09.02.07.03c-.06.03-.31.03-.27,0,.02-.01-.02-.02-.09-.01-.09.01-.11,0-.07-.04.03-.03.14-.06.26-.07.14-.01.21-.03.21-.08,0-.08-.03-.09-.15-.03-.15.07-.16.07-.19.03-.01-.02,0-.04.04-.04.07,0,.51-.2.46-.21-.02,0-.07,0-.12.02-.05.02-.12.04-.16.04-.04,0-.18.04-.31.07l-.23.06.24-.11c.26-.12.3-.23.05-.15-.09.03-.13.03-.11-.01.04-.08-.05-.13-.14-.08-.04.02-.02-.03.04-.1l.11-.14-.18.11c-.1.06-.22.11-.27.12-.07,0-.08.02-.03.05.03.02.02.02-.04,0-.06-.02-.13-.01-.15.02-.04.05-.06.04-.08-.04-.02-.07-.03-.08-.03-.03,0,.06-.06.09-.26.17-.14.05-.26.1-.27.1,0,0-.01-.01-.01-.04,0-.03-.03-.02-.07.02-.05.05-.07.05-.07.02,0-.03-.06-.04-.14,0-.08.03-.14.03-.13.02,0-.02.13-.07.29-.11s.29-.09.31-.11c.02-.01.07-.04.11-.07.07-.03.08-.03.05.03-.02.04-.02.06,0,.05.02-.01.05-.05.06-.07,0-.03.16-.13.34-.22.28-.15.32-.18.25-.21-.04-.02-.2.03-.34.09-.26.12-.63.23-.62.19,0-.01.1-.05.2-.1.11-.04.29-.11.39-.16.18-.08.19-.08.03-.04-.09.02-.21.05-.26.05-.06,0-.17.02-.25.04l-.14.03.14-.05c.09-.03.13-.07.12-.1-.01-.02-.04-.03-.07-.02-.02.01-.04,0-.04-.03,0-.03-.03-.05-.06-.05-.04,0-.04,0,0,.03.03.02.04.04.02.05-.02.01-.07,0-.1-.03-.03-.03-.07-.03-.08,0-.01.02-.11.06-.21.08-.18.03-.18.03.15-.13.21-.11.34-.19.34-.22,0-.03-.07-.03-.18.02-.1.04-.39.16-.64.27l-.45.19.42-.22c.23-.12.41-.24.4-.26-.03-.04-.19,0-.34.09-.09.05-.12.05-.13,0-.01-.07-.02-.06-.06.04-.03.06-.07.12-.09.14-.02.01-.02,0,0-.05.03-.05.02-.07-.02-.04-.03.02-.05,0-.05-.02,0-.08-.1,0-.13.09-.01.05-.03.06-.03.02,0-.06-.14-.06-.18,0-.01.02-.05.02-.08,0s-.04-.07-.02-.09,0-.03-.04,0c-.15.09-.47.2-.62.22-.13.01-.14.01-.04-.02.37-.13.57-.24.8-.42.22-.18.23-.2.09-.13-.09.05-.2.11-.25.14-.05.03-.1.04-.11.02s-.04-.03-.07-.02c-.02.01-.03.03,0,.04.02.01-.06.08-.18.16-.27.17-.23.07.07-.16.12-.09.21-.18.21-.2,0-.02-.07.02-.16.09s-.17.12-.18.1c0-.02-.06,0-.1.05-.11.1-.14.06-.05-.06.05-.06.05-.08,0-.05-.04.02-.08.08-.09.13-.02.07-.08.12-.25.2s-.2.11-.14.11c.07,0,.08.01.02.05-.04.02-.08.02-.09,0-.01-.02-.17.04-.37.16-.19.11-.4.21-.45.21-.06,0,.17-.14.58-.39.37-.22.71-.44.76-.5.05-.07-.05-.02-.34.16-.24.15-.38.22-.33.17.04-.05.16-.14.26-.2.14-.09.15-.11.08-.1-.06,0-.08,0-.04-.02.03-.02.04-.04.01-.05-.02,0-.05.02-.07.06-.02.05-.09.09-.19.13-.1.03-.16.07-.15.09.01.02,0,.04-.04.04-.04,0-.13.02-.22.06-.1.04-.17.04-.2,0-.03-.03-.03-.07-.01-.09.02-.01.05,0,.07.04.02.03.05.05.08.04.02-.01.02-.04,0-.07-.02-.02,0-.07.04-.11.04-.04.07-.09.06-.11-.01-.02-.03-.03-.04,0,0,.02-.05.04-.09.03-.06,0-.07,0-.05.03.01.02-.02.07-.07.1s-.11.04-.12.02c-.02-.03-.04,0-.08.05-.03.05-.07.09-.08.09-.03,0,.07-.16.22-.32l.11-.12-.12.09c-.07.05-.13.07-.15.05-.01-.02-.03,0-.04.03-.01.04-.05.09-.09.12s-.08.09-.1.14c-.01.05-.04.08-.05.06-.03-.06-.16.02-.19.11,0,.04-.09.11-.17.17-.12.07-.16.08-.17.03,0-.05-.03-.03-.08.07-.1.2-.08.1.06-.23.12-.3.12-.34-.02-.12-.05.07-.09.12-.1.1,0-.02-.02.03-.03.1,0,.07-.04.14-.08.16-.05.03-.05.01,0-.05.04-.05.06-.11.05-.13s-.08.03-.15.12-.11.17-.11.19-.02.04-.06.06-.08.05-.08.08c0,.03-.06.1-.14.16-.18.15-.18.08,0-.28.07-.15.13-.28.12-.29-.02-.03-.17.21-.18.27,0,.03-.01.04-.02.03-.02-.03-.19.34-.18.41,0,.02-.02.05-.05.07-.03.02-.05.05-.03.07.01.02,0,.06-.04.07-.03.02-.05.05-.04.08s0,.05-.02.07c-.03.02-.04,0-.03-.05.02-.13-.07-.11-.11.02q-.04.12-.02-.02c.02-.1.04-.13.1-.12.09.02.11-.1.01-.13-.09-.02-.29.28-.41.61l-.09.26.04-.21c.02-.11.05-.22.06-.24.01-.02,0-.04-.02-.05-.02-.01-.07.06-.1.16-.06.2-.3.53-.3.43,0-.03-.01,0-.02.05,0,.06-.03.1-.04.08,0-.02-.06.08-.12.2-.06.13-.09.25-.08.28.02.03,0,.04-.03.02-.08-.04-.19.04-.18.13.01.07,0,.07-.06.04-.06-.03-.07-.03-.03.03.02.04.02.08,0,.09-.02.01-.05.08-.07.15-.03.1-.04.11-.07.07-.02-.03-.05-.05-.07-.04-.02.01-.03.04-.02.06.02.03,0,.04-.07.05-.08,0-.1.04-.12.16-.02.11-.03.14-.06.09-.03-.06-.29-.27-.59-.49-.08-.06-.12-.11-.09-.12.02-.01-.03-.07-.12-.13-.09-.06-.25-.19-.36-.29-.11-.1-.41-.32-.67-.5-.61-.4-.78-.53-.88-.66-.21-.27-1.85-1.41-1.89-1.31,0,.03-.02.02-.02-.02,0-.04-.16-.17-.35-.29s-.33-.23-.29-.23c.08,0,.04-.02-.48-.31-.62-.34-1.43-.89-1.96-1.31-.27-.22-.48-.39-.45-.39.02,0-.07-.09-.21-.21-.14-.12-.25-.22-.24-.24,0-.02-.07-.08-.16-.14-.17-.11-.4-.34-.56-.55-.04-.06-.15-.18-.24-.26-.1-.1-.14-.16-.12-.19.02-.03,0-.06-.06-.11-.11-.09-.36-.51-.32-.54.03-.02-.17-.34-.31-.48-.08-.08-.08-.1-.02-.11.06-.01.05-.03-.09-.1-.19-.1-.2-.16-.03-.16.1,0,.11,0,.02-.06-.05-.03-.1-.04-.12-.01s-.03.01-.04-.03c0-.04-.03-.06-.06-.05-.02.01-.06,0-.07-.02-.01-.02,0-.04.04-.04.05,0,.04-.02-.01-.06-.14-.1-.25-.25-.2-.28.03-.02,0-.05-.07-.1-.16-.1-.33-.3-.29-.33.02-.01-.05-.15-.16-.31-.11-.16-.19-.33-.2-.38,0-.05-.01-.12-.02-.17-.01-.04.03-.16.09-.25.14-.22.25-.78.2-1.08-.02-.15-.12-.4-.26-.69-.25-.49-.25-.58-.04-.71.08-.05.09-.06.02-.07-.06,0-.05-.01.03-.04.07-.02.18-.11.26-.19.08-.08.18-.17.22-.19.04-.02.06-.06.05-.08s0-.04.03-.04c.03,0,.04-.02.03-.04s0-.07.03-.1c.03-.04.08-.12.12-.18.06-.11.06-.11-.16.02-.13.07-.23.16-.23.19,0,.03-.02.07-.05.08-.03.02-.03,0-.01-.05.03-.06.02-.06-.06-.02-.15.08-.1,0,.07-.13.08-.06.19-.14.24-.18.06-.04.16-.11.22-.16.07-.04.11-.09.08-.09-.04-.01-.61.32-.73.43-.04.03-.09.08-.12.1-.03.02-.03.05,0,.06.03.02.03.03,0,.03-.04,0-.08.03-.09.06-.03.07-.27.33-.35.38-.03.02-.05,0-.05-.03,0-.03.02-.05.05-.05s.09-.06.13-.13c.05-.07.09-.12.1-.1s.03-.01.03-.06c.01-.11.24-.35.41-.45.07-.04.11-.09.1-.11-.01-.03-.11.02-.26.11-.13.08-.22.17-.21.18.01.02-.02.05-.08.07s-.11.07-.13.11c-.03.05-.03.05-.03,0,0-.05-.02-.05-.08.01-.04.05-.1.1-.13.12-.03.02-.04.05-.03.07s-.02.05-.07.06c-.05.01-.08.04-.07.06.01.02,0,.04-.04.04-.07,0-.32.27-.29.32.01.02-.02.03-.07.01-.13-.03-.21.05-.4.4-.23.42-.33.76-.36,1.17-.01.2-.04.37-.06.38-.09.05-.81.15-.93.12-.17-.04-.29-.29-.38-.82-.04-.21-.1-.43-.14-.49-.09-.16-.1-.26-.03-.3.05-.03.05-.04-.03-.07-.08-.03-.08-.04.01-.06.12-.03.12-.05,0-.09-.08-.02-.08-.04-.01-.16.04-.08.09-.12.1-.1.01.02,0,.06-.02.1-.03.03-.03.08-.02.1.01.02.05-.03.07-.12.03-.09.09-.2.15-.25.05-.05.09-.11.07-.13-.01-.02-.05-.01-.08.03-.03.04-.09.1-.14.14-.06.05-.04,0,.05-.14.1-.15.11-.2.05-.18-.07.02-.07,0,0-.12.05-.08.07-.17.05-.21-.03-.06-.04-.05-.05.04,0,.06-.03.1-.06.1s-.04-.05-.02-.09c.03-.06.02-.06-.03,0-.03.04-.08.09-.11.11-.02.01-.02.04-.02.07,0,0,0,.02,0,.03.01.02.02.04.06,0,.07-.07.07-.07.06.05,0,.12-.16.31-.16.2,0-.03.03-.07.07-.09.05-.03.05-.04-.01-.06-.05-.01,0-.07-.02-.09,0,0-.02.01-.02,0,0-.01,0-.02.01-.03-.02-.05-.08-.08-.03-.15.15-.18.06-.16-.1.02-.2.23-.25.33-.19.36.03.02.03.03-.01.03-.07,0-.27.25-.39.49-.04.08-.09.17-.12.19-.15.12-.4,1.19-.37,1.63l.02.26-.32.17c-.17.1-.34.17-.37.17-.03,0-.14.05-.24.11-.1.06-.18.09-.18.07,0-.02-.04,0-.08.03-.09.08-.53.4-.86.62-.11.08-.22.17-.23.2-.01.03-.15.21-.3.4-.15.19-.26.36-.25.37.01.02,0,.03-.03.03s-.05.04-.06.09-.03.1-.06.11c-.02.01-.1.17-.17.35-.1.25-.14.31-.19.29-.05-.03-.05-.01-.02.05.03.05.01.17-.05.29-.33.76-.35.94-.14,1.31.13.22.28.35.73.61.05.03.22.16.4.3s.38.27.46.3c.11.03.2.11.32.28.15.21.19.24.44.31.15.04.29.07.31.06.06-.03.59.04.65.08.09.07.18.24.14.26-.02.01.04.11.12.21.16.2.16.32.03.4-.03.02-.03.07,0,.11.03.05.02.11-.02.15-.04.04-.06.08-.05.1.02.03-.02.07-.34.36-.18.16-.2.19-.15.27.05.08.03.11-.16.25-.34.26-.65.48-.85.6-.1.06-.18.13-.17.14.03.05-.25.26-.65.48-.41.23-.63.45-.56.57.03.06-.03.15-.14.22-.04.02-.08.15-.1.3-.01.14-.04.28-.07.31-.11.14.11.99.33,1.23.08.09.19.22.26.3l.12.14-.02-.13c-.03-.16,0-.19.11-.11.08.07.24.11.25.06,0-.02-.04-.07-.1-.13-.07-.06-.12-.14-.13-.21l-.02-.12.14.09c.08.05.18.08.23.07.07-.02.12.01.17.1.12.21.7.52.71.38,0-.04-.03-.11-.08-.16-.05-.06-.01-.05.13.03.15.09.32.12.59.13.21,0,.43.03.49.05.06.02.13.03.14.01.04-.03-.18-.3-.35-.43-.08-.06-.18-.19-.23-.28-.06-.11-.12-.18-.17-.18-.1,0-.11-.12-.03-.28.06-.12.07-.13.2-.12.07,0,.16,0,.19-.03.03-.02.09-.02.13,0s.14,0,.21-.02c.1-.03.15-.02.23.06.06.06.12.09.16.07.04-.02.07,0,.07.04,0,.04.02.06.04.03.01-.03.06,0,.11.04.05.05.11.07.14.06.08-.05.26.01.27.09,0,.04.03.06.06.04.07-.04.33.03.38.11.03.05.07.06.12.03.04-.03.1-.03.13-.02.03.01.07.01.09,0,.02-.02.11-.04.18-.05s.17-.04.2-.05c.16-.09.38,0,.29.12-.02.03,0,.03.05,0,.1-.05.18,0,.27.15.03.05.07.08.08.05.01-.03.08-.01.15.03s.12.06.1.04c-.01-.02.04-.02.11,0,.08.02.16.02.19-.02.08-.08.62.03.97.2.44.21,1.04.66,1.16.86.03.05.08.09.11.09.03,0,.08.05.12.12.04.06.09.12.12.12.03,0,.13.08.22.18.09.1.2.19.23.2.09.04.8.91.95,1.16.05.08.12.17.17.2.05.03.12.11.17.19.05.07.1.12.12.1.02-.02.08.02.13.09.05.07.12.12.16.11.04,0,.09.03.12.08.03.05.15.16.28.24.18.12.27.22.41.45.16.26.19.34.21.64.01.19.04.37.07.41.02.04.04.13.05.21.02.44.33.98,1.28,2.29.08.1.17.25.21.32.04.07.3.35.57.62s.52.51.54.55c.03.04.04.04.03,0-.01-.09.05-.11.13-.04.04.04.26.12.49.19.23.07.43.15.44.17.01.02.04.03.07.01s.02-.04-.01-.06c-.03-.02.04,0,.15.03.11.04.21.08.23.1.01.02.04,0,.07-.02.03-.04.14-.03.28.03.13.05.23.06.21.03-.04-.07.27.03.37.11.05.04.07.04.07,0,0-.04.07-.04.2.02.19.08.72.06.77-.02.01-.02.08-.05.16-.07.08-.02.26-.06.41-.1.15-.04.27-.06.28-.05s-.02.28-.05.61c-.03.34-.03.61,0,.62.03.02.03.03,0,.03-.1,0-.2.78-.17,1.22.05.55.13.74.6,1.26.3.34.43.45.61.52.12.05.23.11.25.14s.12.11.23.19l.21.15-.08-.24c-.07-.2-.13-.28-.32-.48-.13-.13-.26-.28-.28-.32-.06-.11-.02-.27.06-.21.04.03.06.02.1-.06.05-.09.06-.09.15.01.1.11.53.43.56.42,0,0-.03-.09-.09-.18-.12-.2-.12-.35,0-.31.13.03.14-.01.03-.2-.08-.13-.09-.19-.05-.21.06-.03.12-.68.07-.76-.01-.02-.09-.06-.16-.08l-.14-.04.04-.29c.03-.23.07-.32.18-.42.08-.07.15-.12.17-.1.06.05.1-.02.04-.07-.04-.03-.03-.14.02-.32.04-.15.08-.32.08-.38,0-.09.02-.07.12.12.13.24.25.3.18.08-.04-.1-.03-.14.05-.17.08-.04.08-.06.02-.16-.04-.07-.05-.14-.03-.17.02-.03.01-.09-.03-.13-.05-.06-.04-.17.05-.48.07-.22.15-.46.2-.53s.07-.16.07-.2c0-.04.02-.1.06-.12.05-.03.07-.1.05-.19-.02-.08,0-.19.03-.26s.05-.17.05-.24c-.01-.11.04-.44.2-1.22.14-.69,0-1.09-.56-1.5-.41-.31-.56-.45-.46-.45.04,0,.11.02.16.04.14.06.19,0,.07-.07q-.1-.06.03-.04c.07.01.14.05.14.09,0,.03.02.05.04.03.02-.02.08-.01.14.01.1.04.1.04,0-.11-.06-.08-.08-.12-.05-.09.03.03.08.05.11.03.02-.01.1-.01.16,0,.11.02.11.02.05-.03-.05-.04.04-.08.1-.13,0,0-.01-.01,0-.02,0,0,0,0,.02,0,.03-.02,0-.02.03-.04.1-.05.07-.09-.1-.14-.14-.04-.14-.07.01-.07.09,0,.09-.02-.03-.16-.12-.15-.12-.16-.01-.14.06,0,.08,0,.05-.02-.07-.04,0-.09.13-.09.05,0,.08-.02.08-.06,0-.03.06-.1.14-.15.13-.08.13-.09.06-.17-.07-.07-.07-.08.03-.08.06,0,.11-.02.11-.04,0-.02.08-.05.17-.07l.16-.03-.18-.03c-.2-.03-.17-.07.09-.11.27-.04.28-.06.12-.18-.18-.14-.19-.15-.07-.12.05.01.15,0,.22-.01s.15-.02.18,0c.04.02.05.01.03-.02-.02-.03,0-.07.03-.09.03-.02.07-.01.09.01.02.03.03.02.03-.03,0-.04.02-.08.04-.07.06.02.05.12-.01.16-.03.02-.05.09-.05.16,0,.07-.01.14-.04.14-.02,0-.04.04-.03.07,0,.04.04.02.12-.08.06-.08.12-.13.13-.11.02.04-.13.36-.18.39-.02.01-.06.08-.09.16-.05.16,0,.14.08-.02.03-.06.06-.1.07-.08s.03,0,.04-.05c.02-.09.08-.13.11-.07.01.02,0,.06-.04.08-.03.02-.04.05-.02.06.02.01.03.06.01.11-.02.05-.04.07-.05.04-.01-.02,0-.06.01-.09.03-.04.03-.04-.01-.02-.03.01-.04.08-.03.15.03.21.07.22.11.04.02-.09.06-.18.08-.19.02-.01.04-.07.06-.12.04-.16.22-.52.26-.51.04.01-.12.45-.17.46-.02,0-.02.04,0,.07.02.03.01.06-.02.06-.03,0-.04.02-.03.04s0,.06-.04.08c-.03.02-.05.05-.03.08s0,.04-.04.04c-.04,0-.04,0,0,.03.03.02.08.02.1,0,.02-.02.08-.05.13-.07.07-.04.07-.02.02.15-.08.25-.06.27.07.09.12-.16.14-.18.17-.12.01.02,0,.05-.03.07-.03.02-.07.1-.1.2-.05.18-.05.27,0,.12.02-.05.06-.11.09-.14.03-.03.05-.07.05-.1,0-.03.01-.06.04-.08.03-.02.09-.11.14-.22.05-.1.1-.17.11-.15.01.02,0,.07-.04.11-.04.04-.06.12-.06.17,0,.06-.02.12-.05.13s-.05.07-.04.11c0,.04-.02.08-.05.07-.03,0-.04,0-.02.02.03.01.01.09-.03.16-.04.08-.07.15-.06.17.02.04.38-.52.38-.6,0-.06.07-.11.1-.06.01.02-.02.08-.06.15-.11.15-.26.49-.24.52,0,.02.06,0,.11-.05.05-.04.07-.09.05-.1-.02-.01,0-.05.06-.08.14-.08.17,0,.04.11-.06.05-.12.15-.15.22-.02.07-.07.14-.1.16-.04.02-.03.05.02.08.04.03.08.07.09.1,0,.04.05.01.13-.09.19-.23.26-.23.1,0-.15.22-.07.26.09.05.06-.07.1-.11.1-.08,0,.03.03.03.08,0s.07-.07.06-.08.01-.05.05-.07c.06-.03.06-.02.01.08-.03.06-.09.13-.14.14-.05.01-.09.04-.08.06,0,.02-.05.1-.11.19-.06.09-.09.17-.06.18.03.01.02.03-.02.04-.08.01-.16.27-.09.31.02.01.09-.01.14-.06l.09-.08-.08.12c-.04.06-.07.12-.05.12.02,0-.02.04-.09.07-.07.03-.11.07-.09.08.06.03.32-.12.41-.24.05-.06.1-.13.12-.15.02-.02.04-.04.05-.05,0-.01.05-.05.1-.08.08-.06.08-.05.07.05-.01.13-.16.46-.22.49-.02.01-.02.04,0,.07.03.02.09,0,.15-.03.14-.09.17-.01.06.13-.05.06-.09.13-.08.14s-.03.04-.08.05c-.05.01-.08.04-.07.07s0,.07-.03.1c-.06.07.17-.1.35-.25.08-.07.1-.07.07-.02-.02.04-.07.09-.11.12-.04.02-.06.06-.04.09.01.02.05.02.07-.01s.07-.03.11,0c.04.03.04.05.02.04s-.07.05-.11.13c-.03.08-.09.14-.11.13-.03,0-.02,0,0,.02.04.02.02.07-.04.13l-.09.09.12-.03c.11-.03.11-.03,0,.08-.16.15-.14.2.03.13.08-.04.13-.07.11-.08-.02-.01-.02-.04,0-.07.02-.04.03-.03.03,0,0,.04.03.04.09.01.07-.04.06,0-.04.11-.13.15-.15.31-.03.18.03-.03.11-.1.16-.15.09-.08.08-.06-.02.07-.07.09-.14.21-.15.26-.02.05-.06.09-.09.09-.03,0-.04.02-.02.04.02.02,0,.08-.04.13-.07.07-.06.07.04,0,.07-.05.15-.11.18-.13.03-.02.03-.05,0-.07-.03-.03,0-.07.07-.12.07-.05.13-.11.14-.15,0-.04.05-.08.08-.1.03-.02.03.03-.02.1-.05.07-.08.16-.08.19,0,.03-.02.07-.05.09-.17.15-.23.24-.2.29.02.04,0,.07-.06.09-.05.01-.08.04-.07.07.02.03.08,0,.17-.08.09-.08.15-.1.17-.08.01.02,0,.04-.04.05s-.02.01.04.02c.1.02.1.02.07.11-.03.08-.04.08-.05.01,0-.05-.04-.08-.09-.07-.04,0-.07.05-.06.09,0,.04-.02.08-.05.09-.04,0-.07.04-.07.07,0,.04.03.03.11-.04.06-.05.13-.09.15-.08.06.03.08.17.03.2-.02.01-.04,0-.04-.04,0-.04-.02-.02-.06.04-.1.15-.09.17,0,.09.05-.04.11-.05.14-.03.04.03.02.06-.06.09-.06.02-.1.05-.07.06.02.01.11-.01.19-.06.12-.06.13-.06.06,0-.08.07-.08.08.01.07.08,0,.08,0-.02.04-.07.03-.12.07-.12.1,0,.03-.03.05-.06.05-.04,0-.04,0,.02.03.06.02.11,0,.24-.12.15-.14.26-.16.12-.02-.04.04-.05.08-.02.1.04.02.07,0,.12-.1.03-.07.08-.12.1-.11.02,0,.01.02-.01.04-.03.02-.03.04,0,.05.08.04-.13.17-.23.15-.08-.02-.09-.01-.06.02.02.03.03.07,0,.1-.03.03-.04.03-.04-.01,0-.04-.03,0-.06.06-.07.15-.07.21,0,.08.03-.04.08-.08.12-.08.1,0,.29-.19.37-.37.04-.08.09-.17.12-.19s.01.05-.04.16c-.05.1-.08.21-.07.23s0,.04-.01.05c-.08.03-.11.08-.08.13.02.04.06.04.13-.02l.09-.08-.06.12c-.04.07-.11.15-.16.18l-.1.07.11-.04c.1-.04.1-.03-.02.11l-.13.15.13-.09c.07-.05.11-.07.07-.04s-.04.07-.02.08c.02.01,0,.03-.04.05-.04.01-.12.07-.18.13-.09.1-.08.1.13-.01.12-.07.19-.09.14-.04-.05.04-.09.12-.1.17,0,.05-.02.07-.02.03,0-.05-.02-.05-.05-.02-.07.07-.03.17.05.12.06-.03.07-.02.05.05,0,.05-.04.11-.08.13-.05.03-.05.04,0,.04.05,0,.07.02.05.06-.04.07,0,.14.06.1.02-.01.02-.04-.01-.05-.04-.02-.03-.03.01-.03.05,0,.05.04.01.15l-.06.15.15-.11c.08-.06.14-.12.11-.13-.02-.01-.03-.03,0-.05.08-.04.13.03.09.11-.04.08-.04.08.02.02.03-.04.08-.08.1-.09s.01-.04-.02-.06c-.03-.02-.04-.07-.03-.09.02-.03.03-.02.04.02,0,.05.05.07.13.06.11-.02.11-.02.03.04-.05.03-.12.1-.17.17s-.1.12-.12.12-.02.03-.01.05c.01.02.09,0,.16-.04.12-.07.14-.07.12,0-.01.05-.03.07-.05.06-.02-.02-.08,0-.14.04-.09.06-.09.06,0,.03.06-.02.11-.02.12,0,.02.03-.1.17-.15.19,0,0-.02.03-.02.06,0,.03-.05.11-.12.18l-.11.13.14-.11c.17-.13.17-.09.01.08-.09.09-.08.08.08-.03.14-.1.18-.12.15-.06-.02.04-.07.1-.11.12-.04.03-.05.05-.02.07.03.02.03.03,0,.03-.03,0-.09.06-.14.12-.09.12-.09.12.01.07.06-.03.15-.11.22-.18.06-.07.13-.12.14-.11.02,0-.04.08-.13.16-.19.19-.21.29-.03.14.11-.09.13-.09.14-.03,0,.04,0,.08-.02.08-.02,0-.06.05-.08.11-.04.1-.04.1.06.01l.11-.1-.09.16c-.11.19-.08.19.07,0,.12-.17.24-.24.23-.16,0,.03-.03.07-.08.1-.04.02-.09.09-.1.14-.01.05-.05.1-.08.1-.03,0-.04.02-.03.05.02.03.09,0,.22-.1l.2-.15-.12.14c-.07.08-.1.14-.07.15.03,0,0,.02-.04.03-.06.01-.07.02-.04.04.04.02.03.03-.02.04-.04,0-.11.07-.15.14-.07.12-.07.13.02.08.2-.1.24-.13.35-.28.06-.08.13-.16.16-.18.03-.01.01.02-.03.08s-.08.12-.07.14c.01.02,0,.05-.04.07-.04.02-.11.1-.16.17-.05.07-.11.16-.14.19s.06-.01.19-.1c.13-.08.25-.18.27-.21.02-.03.05-.06.06-.05.05.01-.07.2-.13.2-.03,0-.1.07-.17.15-.07.08-.09.13-.05.11s.1-.08.13-.12c.03-.06.09-.09.17-.1.11-.01.11-.01.02.02-.05.02-.12.08-.14.13-.02.05-.1.14-.18.19-.13.08-.13.09.06.01.11-.04.16-.05.11-.02-.09.06-.26.3-.24.34,0,.01.09-.04.19-.11.16-.13.17-.13.13-.03-.02.06-.07.12-.1.14-.03.02-.08.07-.1.11-.03.06,0,.05.09-.03.09-.07.12-.08.09-.03-.03.06,0,.06.09,0,.08-.04.14-.05.16-.02.02.03.01.07-.01.08-.12.07-.16.12-.13.17.04.07.06.05.45-.35.26-.27.28-.19.03.12-.08.1-.13.19-.12.2.03.01-.04.07-.21.18,0,0,0,0,0,0s0,0,0,0c-.01,0-.01,0-.03.02-.04.02-.07.07-.07.1,0,.04.08,0,.24-.1.23-.15.24-.15.19-.03-.03.07-.07.13-.11.13s-.05.04-.04.09c.01.08.06.04.27-.18.06-.06.06-.06.05.03-.01.07,0,.09.03.07.03-.02.05,0,.05.03,0,.04-.02.05-.06.03-.04-.02-.08,0-.16.09-.13.15-.1.21.05.09l.12-.1-.04.17c-.04.17.01.13.09-.08.04-.1.04-.1.06-.02.01.08.02.07.08-.01.03-.05.06-.13.06-.17s.02-.08.04-.1c.02-.01.02.05,0,.14-.02.09-.02.18.01.19s.02.02-.01.02c-.03,0-.05.04-.04.1s0,.17-.03.26c-.06.2-.03.19.07-.03.04-.09.05-.18.02-.18s-.02-.02.01-.02c.03,0,.1-.05.14-.11.06-.09.09-.11.12-.08.03.03.06,0,.08-.09.02-.07.07-.15.12-.17.06-.04.06,0,0,.2-.04.14-.07.27-.05.29.03.04-.02.2-.1.34-.03.05-.03.08,0,.06.08-.05.22-.37.18-.41-.02-.02,0-.1.04-.17.05-.07.09-.12.11-.1s0,.06-.03.09c-.03.03-.04.13-.02.22s0,.2-.01.25c-.02.05,0,.11.02.13.03.02.04.06.02.09-.02.03-.03.02-.04-.03,0-.06-.03-.07-.06-.03-.02.03-.03.07,0,.09.02.02.02.05,0,.06-.02.01-.05.08-.08.17-.02.08-.06.16-.08.17-.02.01-.03.05-.02.09.01.05.03.05.07-.03.1-.17.15-.13.1.09-.03.11-.03.19,0,.18.02-.01.08-.22.14-.47.06-.25.1-.39.09-.31s0,.21,0,.3c0,.09,0,.18-.01.21s-.03.1-.02.15c0,.09.01.09.12-.08.06-.1.09-.18.06-.17-.03,0-.06,0-.07-.02-.01-.02.02-.04.06-.05.05,0,.06-.02.03-.04-.03-.01-.02-.06.02-.09.04-.04.05-.1.03-.14-.04-.06-.04-.06-.08.06-.02.07-.04.1-.04.06s.03-.13.07-.22l.07-.15.03.19c.01.1.02.2.01.22s0,.07,0,.1c.01.04.04-.02.06-.14.03-.15.05-.19.1-.16.03.02.02,0-.02-.04-.04-.05-.06-.08-.04-.07.04.01.09-.15.06-.21-.01-.02,0-.08.03-.13.05-.08.06-.08.09.02.02.08.05.1.09.07.03-.02.05-.04.03-.05-.05-.03-.09-.35-.05-.45.03-.08.04-.08.07.04.02.07.03.18.02.23,0,.05,0,.11,0,.13.01.02,0,.15-.02.29-.03.16-.02.23.01.19.04-.05.05-.05.05,0,0,.03-.02.08-.05.09-.07.04-.1.23-.05.37.06.16.07.14.05-.08,0-.1,0-.19.02-.2.05-.03.06,0,.07.13,0,.06.03.16.05.22.03.07.06.17.08.23h0c.03.09.03.07.03-.07,0-.1.01-.16.03-.13.02.03.03-.02.03-.12s-.03-.2-.06-.23c-.05-.04-.04-.04.04-.03.09.01.17.13.21.34.01.05.02-.05.02-.23s-.02-.34-.05-.36c-.03-.02-.03-.04,0-.04.03,0,.03-.14,0-.32-.02-.18-.03-.33,0-.34.05-.03.06,0,.07.27,0,.14.03.28.05.32.02.04.02.07,0,.07-.06,0-.04.12.04.26l.07.1-.02-.13c-.01-.07,0-.13.02-.13.03,0,.04-.04.02-.09s0-.1.01-.11c.02-.01.01-.08-.01-.15s-.03-.14,0-.16c.04-.02.09.19.07.31,0,.03.02.11.06.18l.07.12v-.18c0-.1-.02-.26-.02-.35,0-.09,0-.18.01-.21.04-.08.06-.04.07.34,0,.11.04.2.1.26.09.09.09.08.04-.16-.03-.14-.07-.27-.09-.28-.02-.01-.02-.03,0-.05.03-.02.07.03.12.16l.08.18-.05-.26c-.03-.14-.04-.31-.02-.37.03-.09.03-.07.03.09,0,.11.02.2.05.2.03,0,.06.04.07.09.02.07.04.08.07.03.03-.03.07-.04.11,0,.04.03.04.06-.01.08-.04.01-.07.06-.06.09,0,.04.02.05.04.01.02-.03.04-.03.06,0,.02.03.03,0,.04-.08,0-.07-.02-.19-.06-.25-.05-.08-.05-.11,0-.09.05.03.06,0,.03-.08-.02-.06-.05-.13-.06-.15-.07-.08-.15-.26-.12-.28.03-.02.24.41.27.57,0,.05.02.03.02-.06,0-.14,0-.15.08-.11.04.02.09.09.1.15.02.08.03.09.03.02,0-.05-.01-.12-.04-.16-.03-.05-.02-.08.03-.09.05,0,.06-.05.02-.16-.03-.1-.03-.15,0-.15.03,0,.02-.02-.03-.03-.05-.02-.08-.05-.05-.06.02-.01.03-.05,0-.07-.02-.03-.06-.11-.1-.19-.07-.13-.06-.14.02-.06.08.07.08.05,0-.16l-.08-.25.2.36c.12.21.22.36.25.35.02,0,.08,0,.12.04.04.03.02,0-.04-.08-.11-.13-.09-.23.02-.15.03.02,0-.04-.05-.15l-.1-.18.15.13c.12.11.14.11.09.03-.05-.1-.05-.1.03-.05.06.04.04-.01-.07-.17-.15-.21-.16-.31-.01-.11.14.19.22.24.25.15.02-.06.05-.06.15.03.12.11.12.11.03,0-.05-.06-.12-.15-.17-.2-.06-.06-.05-.06.05,0,.12.09.21.11.15.04-.01-.02-.04-.06-.05-.09-.03-.06-.02-.06.04-.03.08.04.07,0-.02-.07-.03-.03-.07-.03-.08,0-.01.02-.03.02-.05,0-.02-.03.01-.05.07-.07.05-.01.08-.04.07-.06-.01-.02-.04-.03-.06-.02-.02.01-.07-.01-.11-.05-.05-.05-.05-.07,0-.08.05,0,.05-.05-.02-.16-.12-.2-.06-.17.14.07l.16.2-.12-.23c-.06-.12-.14-.26-.17-.3-.04-.06-.01-.05.07.01.07.05.13.07.14.05.01-.02.07.01.13.07.12.12.21.11.14-.02-.03-.05-.06-.06-.08-.03-.02.03-.04.02-.05-.03-.01-.05-.06-.18-.1-.28l-.08-.2.18.13.18.13-.16-.22c-.17-.23-.17-.26-.03-.2.08.03.08.04.02.03-.06,0-.05.02.01.08.17.15.23.16.14.02-.11-.17-.19-.42-.14-.45.02-.01.02-.05,0-.09-.03-.06-.02-.06.06,0,.14.1.17.04.05-.08-.16-.15-.13-.16.08-.04.17.1.29.11.23.02-.01-.02-.04-.02-.05,0-.01.03-.04.03-.05,0-.01-.02-.01-.06,0-.08s-.05-.15-.14-.29c-.15-.23-.15-.23-.03-.12.07.07.14.12.16.11.04-.03-.19-.33-.27-.36-.04-.02-.06-.04-.04-.05.02-.01.08,0,.14.04.09.06.09.05,0-.08-.06-.08-.09-.14-.06-.14.08,0-.16-.19-.26-.2-.05,0-.1-.04-.12-.08-.02-.04.07-.01.19.05.13.07.24.14.25.16.01.02.06.04.11.05.05,0,.09.04.09.07,0,.03.01.03.03,0,.01-.03,0-.09-.05-.13-.07-.07-.07-.07.03-.06.1.02.1.01,0-.04-.06-.03-.12-.03-.13,0-.01.03-.02,0-.01-.04s0-.09-.02-.1c-.02,0-.09-.06-.14-.13-.08-.08-.1-.14-.07-.2.03-.08.03-.08-.02-.03-.04.05-.07.03-.13-.06-.06-.1-.06-.12,0-.1.19.05.26.13.29.3.01.1.03.13.03.08,0-.09.01-.09.1-.06.16.07.11-.04-.11-.26-.22-.22-.23-.22-.19-.27.02-.02.08.03.19.17.05.07.32.2.33.16Zm-1.34-5.07s.06,0,.06.02c0,0,0,.03-.03.04-.02.01-.05,0-.06-.02-.01-.02,0-.04.03-.04Zm-.2.12s.06,0,.06.02c0,0,0,.03-.03.04-.02.01-.05,0-.06-.02-.01-.02,0-.04.03-.04Zm-.08-1.14s.06,0,.06.02,0,.03-.03.04c-.02.01-.05,0-.06-.02-.01-.02,0-.04.03-.04Zm.07-.4s.05.06.04.08c0,.02-.03,0-.05-.04-.03-.05-.02-.06,0-.04Zm-.05.15c.03.05,0,.06-.1.02-.07-.03-.07-.03,0-.04.04,0,.09,0,.1.02Zm.14-.81s.05.05.04.05c0,0-.05,0-.1-.02-.05-.02-.07-.04-.04-.05.02-.01.07,0,.1.02Zm-.75-.93c.06.03.05.04-.06.03-.05,0-.06-.02-.04-.03.03-.02.07-.02.1,0Zm-.08-.29s.07.03.07.05c-.01.04-.09.02-.12-.03-.01-.03,0-.03.05-.02Zm-4.3-4.48s-.02.03-.05.05c-.03.02-.06.01-.06-.01,0-.04.09-.07.11-.03Zm-.06.14s.02.02-.04.05c-.06.03-.08.04-.06,0,.02-.03.07-.05.1-.06ZM8.46.76s-.01.1-.05.12c-.05.03-.06.02-.03-.08.04-.14.06-.15.08-.03Zm-4.86,15.67c.07.07.11.13.09.14-.05.03-.32-.13-.43-.24-.2-.21.12-.11.34.1ZM4.65,1.26c-.06.03-.06,0,0-.07.03-.03.05-.04.05,0,0,.03-.02.06-.04.08Zm.08-.37s-.03,0-.04-.03c-.01-.02,0-.05.02-.06.02-.01.04,0,.04.03,0,.03,0,.06-.02.06Zm.04.25s-.03-.04-.02-.06.04-.01.06.02c.04.07.03.08-.03.05Zm3.01,0s-.03-.04,0-.05c.02-.01.05,0,.07.02.01.02.02.04,0,.05,0,0-.04,0-.07-.02Zm.35,0c-.06.03-.08.04-.06,0s.07-.05.1-.06c.03,0,.02.02-.04.05Zm14.38,11.22s-.06.02-.04-.01c.02-.03.06-.05.08-.04.02,0,0,.03-.04.05Zm.19-.18c-.04.07-.09.11-.1.09s0-.1.04-.18c.05-.12.07-.14.1-.09.02.03,0,.11-.04.18Zm.4-.05s-.04,0-.04-.03c0-.03,0-.06.02-.06,0,0,.03,0,.04.03.01.02,0,.05-.02.06Zm.05-.14s-.02,0,0-.05c.02-.04.06-.08.08-.1.02-.01.02,0,0,.05-.02.04-.06.08-.08.1Zm.7-.46s.02,0,0,.05-.06.08-.08.1c-.02.01-.02,0,0-.05.02-.04.06-.08.08-.1Zm-.2.19s0,.03-.04.05c-.05.03-.06.02-.04,0,.02-.03.06-.05.08-.04Zm.08.17c-.16.12-.17.12-.09.02.05-.06.13-.14.18-.17.05-.03.08-.07.07-.08,0-.01.03-.05.08-.09.06-.04.11-.05.13,0,.02.04,0,.08-.08.13-.06.04-.2.13-.3.2Zm.8,6.91s-.05,0-.06-.02c-.01-.02,0-.04.03-.04.03,0,.06,0,.06.02,0,0,0,.03-.03.04Zm.36.38c-.08.01-.09,0-.03-.03.04-.02.09-.03.11-.02.06.03.05.03-.08.05Zm.07-7.43s.06-.05.08-.04c.02,0,0,.03-.04.05-.05.03-.06.02-.04,0Zm.16,7.48s-.04.03-.05.08-.05.1-.07.12c-.06.04.03-.23.1-.27.03-.02.05-.06.04-.1,0-.04,0-.09.04-.1.03-.02.03.04.01.13-.02.08-.05.15-.06.15Zm.09,1.42s.04-.08.09-.1c.09-.05.09-.05.03.03-.08.11-.12.13-.12.07Zm.35-.69s-.03,0-.04-.03c-.01-.02,0-.05.02-.06s.04,0,.04.03c0,.03,0,.06-.02.06Zm.2-8.23c-.05.03-.08.04-.06,0,.02-.03.07-.05.1-.06.03,0,.02.02-.04.05Zm-.17,9.55s.03-.07.07-.09c.06-.03.06-.03.03.03-.05.1-.1.13-.1.06Zm.5.43s-.02-.06,0-.04c.03.02.05.06.04.08,0,.02-.03,0-.05-.04Zm.02-.14s-.01-.06,0-.09c.01-.03.03-.02.04.03.01.08,0,.11-.04.06Zm.25-9.95s.02.02-.04.05-.08.04-.06,0c.02-.03.07-.05.1-.06Zm-.01,10.43s-.04.05-.07.09c-.03.06-.04.05-.02-.01,0-.05.04-.1.08-.13s.05-.03.05,0c0,.02-.02.05-.04.06Zm.45-10.37c.07-.04.14-.06.15-.04.03.05,0,.06-.16.09-.11.03-.11.02,0-.05Zm-.36,11.91s0-.08.04-.14q.06-.1.04.03c-.03.14-.04.16-.08.11Zm.14.21c-.04.07-.06.1-.06.07,0-.06.1-.25.12-.22,0,0-.02.08-.05.15Zm.23-11.67l-.17.03.17-.07c.1-.04.21-.07.25-.07.14,0-.06.08-.25.11Zm.48,12.41s-.06.02-.04-.01c.02-.03.06-.05.08-.04.02,0,0,.03-.04.05Zm.03-.13s-.06.02-.04,0c.02-.03.06-.05.08-.04.02,0,0,.03-.04.05Zm.43,2.56c-.11.1-.14.06-.04-.08.06-.08.08-.09.1-.05.02.03,0,.09-.06.13Zm.1-1.06c-.14.18-.2.21-.12.07.04-.06.1-.14.15-.16.05-.03.04,0-.03.09Zm.24-13.62c-.13,0-.13,0-.04-.05.05-.03.11-.04.14-.02.08.04.05.06-.1.07Zm.07,15.93s-.06.02-.04-.01c.02-.03.06-.05.08-.04.02,0,0,.03-.04.05Zm.45-15.61s0-.05-.07-.01c-.07.03-.08.03-.05,0,.03-.03.12-.06.2-.06h.15s-.13.07-.13.07c-.09.05-.12.05-.1.01Zm.38,16.53s-.04,0-.04-.03c0-.03,0-.06.02-.06,0,0,.03,0,.04.03.01.02,0,.05-.02.06Zm.73,1.4s-.06.02-.05-.05c0-.05.03-.1.05-.11s.04.01.05.05c0,.04-.02.09-.05.11Zm.35-2.09s.05.06.04.08c0,.02-.03,0-.05-.04-.03-.05-.02-.06,0-.04Zm-.21-15.35s.04.06.02.07c-.02.01-.06,0-.09-.03-.03-.03-.04-.06-.02-.07.02-.01.06,0,.09.03Zm-.22-.25s.06,0,.06.02c0,0,0,.03-.03.04-.02.01-.05,0-.06-.02s0-.04.03-.04Zm-.43.52s.09,0,.1.02c.03.05,0,.06-.1.02-.07-.03-.07-.03,0-.04Zm.05.26c-.08.01-.09,0-.03-.03.04-.02.09-.03.11-.02.06.03.05.03-.08.05Zm.51-.26s0,.02-.04.03c-.09.04-.28.05-.34,0-.04-.03.23-.06.37-.04Zm-.29,15.99c-.02.07-.05.1-.06.08-.01-.02,0-.09.01-.16s.05-.1.06-.08c.01.02,0,.09-.01.16Zm.04-.23c-.05-.07-.04-.08.01-.05.04.02.08.05.09.07.05.07-.05.06-.1-.02Zm.14-15.48c-.06.01-.17-.1-.13-.13.01,0,.06-.01.11-.01.06,0,.07.01.03.03-.03.02.02.05.12.06.09.02.16.04.14.05-.01,0-.05,0-.07,0s-.07,0-.1.04c-.03.04-.05.04-.05,0,0-.03-.02-.05-.05-.05Zm.2.14s0,.03-.03.04c-.02.01-.05,0-.06-.02-.01-.02,0-.04.03-.04.03,0,.06,0,.06.02Zm-.12,15.28s0-.07.02-.1c.03-.03.02-.07,0-.08-.03-.02-.02-.03.02-.03.05,0,.06.03.04.12-.03.13-.04.15-.08.09Zm.1,1.01s-.04.01-.01-.03c.02-.03.03-.11.02-.18s0-.12.02-.11c.02,0,.04.07.03.15,0,.08-.03.15-.06.17Zm.08-.86s-.03.31,0,.39c0,.02,0,.05,0,.08,0,.03-.02.02-.02-.02,0-.06-.01-.06-.05,0-.04.05-.05.02-.02-.12.02-.1.02-.2,0-.22-.02-.04.07-.41.11-.43.01,0,.01.04,0,.11-.03.16.03.12.08-.06.02-.08.05-.12.07-.1.04.07-.12.42-.17.37Zm.13.56s0-.06.03-.11c.03-.09.04-.09.02,0-.01.1-.03.14-.05.1Zm.05-.28s-.04,0-.04-.03c0-.03.02-.07.04-.08.02-.01.04,0,.04.03,0,.03-.02.06-.04.08Zm.09-.43c-.02.14-.08.19-.09.09-.01-.06.08-.27.1-.23,0,.01,0,.07-.01.14Zm.21.52s-.05-.05-.04-.08c0-.03.03-.02.06.02.05.09.05.1-.02.06Zm.13-15.17s.08,0,.09,0c.02.03-.07.06-.11.03-.03-.01-.02-.03.03-.04Zm.04.7c.06.03.05.04-.06.03-.05,0-.06-.02-.04-.03.03-.02.07-.02.1,0Zm-.1.39s.3-.05.4-.01c.05.02.07.04.05.05-.05.03-.46,0-.45-.04Zm.47,14.72c.01.09,0,.13-.04.1-.03-.02-.04-.04-.01-.06.03-.02.02-.05,0-.07-.03-.02-.03-.07,0-.1.03-.03.03-.07,0-.08-.02-.01-.04-.06-.03-.1,0-.06.02-.04.07.05.04.07.05.13.04.13-.02,0-.02.05-.01.13Zm.39-14.91c.14.04.13.06-.03.05-.06,0-.11-.03-.1-.05,0-.02.06-.02.13,0Zm.11.51s-.07.06-.11.03c-.03-.01-.02-.03.03-.04.04,0,.08,0,.09,0Zm-.12.2s-.04,0-.07-.02c-.03-.01-.03-.04,0-.05.02-.01.05,0,.07.02.01.02.02.04,0,.05Zm-.19,14.49c0,.06-.02.05-.05-.05-.05-.17-.05-.21,0-.11.02.04.04.11.04.16Zm.11-1.04s-.05-.08-.08-.09c-.04-.01-.07-.06-.07-.16,0-.09.01-.13.05-.11.03.02.04.08.03.13-.01.06,0,.11.01.11.02,0,.04-.03.04-.07,0-.04.01-.06.03-.04.01.02.02.1.02.18,0,.07-.01.1-.02.06Zm.01-13.08s.05,0,.1.03.08.07.06.08c-.04.02-.17-.06-.16-.11Zm.13,13s0-.11,0-.22c.01-.11.03-.18.04-.16.02.04-.02.41-.05.37Zm.04-13.8s.11-.03.27.04c.08.04.14.08.13.08-.04.02-.41-.09-.4-.13Zm.25,14.3c.04.08.05.24,0,.18-.02-.03-.04-.1-.03-.14s.01-.06.02-.04Zm0-.51s-.01,0-.03-.02c-.01-.02,0-.08.01-.14.03-.09.04-.09.03.02,0,.06-.01.12-.01.14Zm.41-10.61s.06.02.07,0c.01-.02.03,0,.05.05.03.12-.02.15-.11.06-.08-.07-.08-.18,0-.12Zm-.18-1.62s.07-.02.15,0,.12.03.1.04c-.05.03-.26,0-.25-.03Zm.38,11.9c.07.14.1.19.12.15.02-.03.03-.03.04.02.02.11-.06.18-.13.13-.09-.07-.1-.1-.01-.07.06.03.05,0-.05-.12-.08-.1-.11-.16-.07-.16.03,0,.04-.03.03-.08-.01-.04.02.01.07.13Zm-.2-8.03s.07,0,.14.05c.07.04.13.08.12.09-.03.02-.27-.11-.26-.14Zm.29.37c-.14-.07-.16-.1-.12-.12.02-.01.08.01.14.06.15.1.13.14-.03.07Zm.11-.12s0-.03.05-.02c.04.01.07.03.07.05-.01.04-.09.02-.12-.03Zm.18,7.31s.05.06.04.08c0,.02-.03,0-.05-.04-.03-.05-.02-.06,0-.04Zm.79-2.97c.05.03.08.06.06.07-.04.02-.17-.06-.16-.1,0-.01.05,0,.1.03Zm-.26-3.95s.06,0,.06.02c0,0,0,.03-.03.04-.02.01-.05,0-.06-.02s0-.04.03-.04Zm-.16.54s.07.04.07.06c0,.02-.04.01-.08-.02-.06-.04-.05-.05,0-.04Zm-.13-.66s.02.04,0,.05c0,0-.04,0-.07-.02-.03-.01-.03-.04,0-.05s.05,0,.07.02Zm-.24-.18s.04.01.07.04.04.06.02.07c-.02.01-.05,0-.07-.04-.02-.03-.03-.06-.02-.07Zm.03,6.63c-.1-.09-.08-.15.03-.08.05.03.08.07.07.1-.01.02-.06.01-.1-.02Zm.13-.14s0-.08.02-.08c.02,0,.03.04.01.09-.02.06-.02.06-.04,0Zm.04-.48c-.06-.07-.14-.16-.18-.2-.05-.05-.04-.05.05,0,.06.04.12.09.13.13,0,.03.03.05.05.04.02-.01.06,0,.08.03.07.13-.02.13-.13,0Zm.14-5.67s-.05,0-.06-.02c-.01-.02,0-.05.02-.06.02-.01.05,0,.06.02.01.02,0,.05-.02.06Zm.12,2.5s-.04-.02-.05,0-.04,0-.06-.04c-.04-.08-.03-.08.07-.06.06.01.12.04.13.06.01.02,0,.04-.02.06-.02.01-.05,0-.06-.02Zm.12,2.17s-.03,0-.05-.04c-.03-.05-.02-.06.01-.04.03.02.05.06.04.08Zm-.03-1.92s-.04.03-.05,0c-.01-.02-.01-.06,0-.09.01-.03.04-.03.05,0,.01.02.01.06,0,.09Zm.23-.5c.07.02.14.03.14,0,0-.02.01-.02.01,0,0,.02.03.05.07.07.04.02.07.04.07.05,0,.01-.07,0-.15-.03-.2-.08-.3-.15-.15-.1Z"/>
  </g>
</svg>