<?xml version="1.0" encoding="UTF-8"?>
<svg id="Layer_2" data-name="Layer 2" xmlns="http://www.w3.org/2000/svg" viewBox="0 0 33.94 25.9">
  <defs>
    <style>
      .cls-1 {
        stroke-width: 0px;
      }
    </style>
  </defs>
  <g id="Layer_1-2" data-name="Layer 1">
    <path class="cls-1" d="m33.62,8.32c-.39-.46-.69-.96-.94-1.5-.09-.2-.21-.4-.36-.55-.77-.77-1.65-1.4-2.49-2.09-.26-.21-.42-.39-.45-.73-.13-1.51-1.04-2.46-2.36-3.04-.73-.32-1.53-.39-2.32-.31-.19.02-.35,0-.59-.1.09.14.18.22.17.27-.11.44.04.54.47.45.16-.03.22.24.27.39.06.2-.13.06-.2.1-.22.12-.04.21.02.31.06.1.24.16.05.32-.42.36-.43.58-.08.97.16.18.42.31.21.64-.17.27-.33.52-.76.27.28.46.48.82-.02,1.16-.14.1-.05.24-.01.37.05.18.09.44-.04.53-.33.22-.44.59-.68.87-.64.73-1.43.96-2.37.9-.7-.05-1.41.03-2.05.28-.92.36-1.6,1.11-2.37,1.72-.34.27-.58.65-.78,1.06-.43.86-.98,1.67-1.29,2.6.16-.69-.04-1.39.03-2.08.08-.78.16-1.59-.47-2.24-.1-.1-.09-.25-.13-.37-.21-.61-.24-1.37-1.14-1.43-.04,0-.09-.05-.12-.09-.08-.1-.04-.36-.28-.24-.17.09-.37.17-.38.43,0,.22-.08.42-.26.59.27-.56-.4-.91-.23-1.44-.17.03-.03.26-.24.24-.05-.15-.09-.32-.17-.46-.06-.11-.13-.26-.29-.26-.17,0-.15.2-.22.29-.13.16-.4.08-.55.25-.14-.27-.46-.2-.62-.3-.54-.32-1.33-.3-1.6-1.02,0-.01-.08,0-.18,0,.24.32.16.59-.01.87-.6-.45-.6-.45-1.16-.07-.12.08-.26.01-.39-.02-.23-.05-.32-.28-.52-.4-.04.25.15.41.16.61,0,.17.21.38,0,.5-.22.13-.49.14-.69-.09-.35-.43-.78-.24-1.2-.15-.07.02-.2.1-.19.13.05.36-.3.3-.5.42.14.12.26.19.34.3.21.28.1.59-.24.57-.57-.05-1,.26-1.49.44-.02,0-.02.05-.03.09.12.05.24.1.37.15-.04.22-.33.28-.28.54.15.02.29.03.45.05-.1.16-.32.07-.37.25.11.15.35-.06.47.22-.93.22-1.69.65-1.86,1.71.16.14.42-.11.69.07-.83.88-1.06,1.99-1.33,3.16.11-.06.16-.07.19-.11.19-.2.46-.33.67-.19.18.13.19.41-.05.6-.06.05,0,.12.02.18.06.59.1,1.19.1,1.77,0,.55.18.96.46,1.39.38.59.98.98,1.29,1.64.1.2.36.7.79.63.19-.03.22,0,.29.14.15.32.3.31.57.06.27-.25.16-.92.81-.78.02,0,.07-.07.08-.12.08-.26.26-.48.23-.77,0-.09-.03-.27.08-.25.42.06.21-.23.23-.38.03-.22-.09-.56.07-.63.36-.15.18-.27.09-.47-.09-.2-.1-.48.2-.52.18-.02.42.09.51.28.08.18.18.46-.01.6-.29.21-.2.42-.05.6.28.32-.31.65.04.95-.06.03-.12.06-.18.09-.1.04-.24-.01-.33.15.29.25.34.7.74.9.09.05.25.16.23.31-.06.42.45.61.39,1.03,0,.04.12.12.2.13.6.11.99.73,1.66.72-.08.03-.15.05-.23.08-.13.06-.35.05-.36.23,0,0,0,.01,0,.02.71.22,1.4.48,2.11.68.48.09.96.17,1.43.28.32.03.65.06.95.16.45.15.72.46,1.05.77.86.11,1.71.24,2.56.43,1.47.32,2.96.59,4.45.83.66.1,1.35.06,2.03-.02.4-.05.66-.26.81-.54,0,0-.01-.01-.02-.02,0-.01-.01-.02-.02-.03-.02-.01-.04-.03-.06-.05-.07-.07-.09-.17-.06-.27.04-.14.16-.28.29-.34.05-.02.11-.03.16,0,.02-.01.05-.02.08-.02.04,0,.08.01.11.03.02,0,.04,0,.06,0,.02,0,.05.02.06.02.02,0,.05,0,.07,0,0,0,0,0,0,0,1.17-.18,2.35-.22,3.54-.26.65-.02,1.25-.06,1.6-.72.05-.09.22-.13.15-.28-.05-.1-.16-.11-.26-.12-.41-.03-.78-.21-1.17-.32-.43-.12-.96-.18-1.32.04-.56.34-1.12.15-1.68.22-.11.01-.22-.03-.24-.14-.01-.07.02-.19.07-.23.48-.29.52-.87.75-1.3.53-.99.92-2.07.84-3.25-.01-.17.02-.39.19-.44.86-.24,1.69-.79,2.65-.38.21.09.44.14.64,0,.44-.32,1.07.08,1.47-.39.04-.04.12.02.16.07.2.25.38.05.41-.09.11-.45.53-.76.59-1.15.08-.49-.59-.62-.85-.98-.25-.34-.65-.46-1.09-.39-.56.09-.84-.07-1-.62-.2-.71-.35-1.44-.4-2.18-.03-.37.09-.49.45-.56.82-.16,1.68-.2,2.39-.76.32-.25.5-.59.81-.84.57-.47.61-.73.14-1.27Z"/>
  </g>
</svg>