<?xml version="1.0" encoding="UTF-8"?>
<svg id="Layer_2" data-name="Layer 2" xmlns="http://www.w3.org/2000/svg" viewBox="0 0 33.94 26.32">
  <defs>
    <style>
      .cls-1 {
        stroke-width: 0px;
      }
    </style>
  </defs>
  <g id="Layer_1-2" data-name="Layer 1">
    <path class="cls-1" d="m28.8,2.76c-.25-.8-.73-1.5-1.32-2.08-.41.62-.67,1.34-.82,2.06l.19.07s-.12.05-.16.07c-.33-1.25-1.38-2.09-2.33-2.88-.66,1.39-.55,3.01-.03,4.41-.53,1.29-1.59,2.31-2.81,2.97-1.25.73-2.71.93-3.99,1.58-2.51,1.22-4.55,3.37-5.62,5.95-.69,1.92-.85,4.05-.35,6.04-.87-1.94-.93-4.19-.32-6.21.19-.65.5-1.26.71-1.91.6-1.78.76-3.7.43-5.56-.3-2.39-2.47-4.28-4.82-4.54-.77-.07-1.6-.08-2.29.3-1.54.71-2.91,1.78-3.96,3.11-.32.4-.64.81-.8,1.29-.74,1.88-.64,4.04.19,5.87.07-.42.17-.86.43-1.2.6-.85,1.91-1.15,2.78-.55.96,1.04,1.2,2.5,1.44,3.83.31,1.73.17,3.52.68,5.22.41,1.4,1.22,2.7,2.36,3.62,1.52,1.23,3.45,1.83,5.37,2.08,3.88.01,7.76.02,11.64,0,.13-.82-.32-1.7-1.15-1.93-1-.19-2.08-.07-3-.59.95-.43,1.92-.82,2.8-1.38.75-.53,1.02-1.58.58-2.4-.64-1.6-2.37-2.25-3.87-2.77,1.21.12,2.41.54,3.39,1.28.4.37.88.72,1.46.69.72.02,1.24-.55,1.9-.72.55-.18,1.17-.14,1.65-.51-.08-.15-.16-.29-.24-.43-.3,0-.63,0-.87-.2-1.17-1.01-1.7-2.66-1.43-4.18.31-1.86,1.97-3.32,3.81-3.6.27.26.51.59.88.73.8.3,1.69.05,2.44-.28.33-.38.23-.92.14-1.37-.67-2.6-2.62-4.79-5.06-5.88ZM9.39,20.23c.09.83.38,1.62.58,2.43-1.16-1.61-1.47-3.67-1.33-5.6.11-2.66.88-5.36.15-7.99-.36-1.49-1.77-2.72-3.33-2.7-1.27.02-2.47.83-2.99,1.99.14-.73.53-1.43,1.16-1.84,1.18-.8,2.8-.72,4.02-.04,1.01.55,1.67,1.57,2.09,2.62.58,1.48.42,3.12.15,4.65-.38,2.14-.83,4.32-.49,6.5Z"/>
  </g>
</svg>