<?xml version="1.0" encoding="UTF-8"?>
<svg id="Layer_2" data-name="Layer 2" xmlns="http://www.w3.org/2000/svg" viewBox="0 0 33.94 19.13">
  <defs>
    <style>
      .cls-1 {
        stroke-width: 0px;
      }
    </style>
  </defs>
  <g id="Layer_1-2" data-name="Layer 1">
    <path class="cls-1" d="m33.83,17.52c-.06-.04-.26-.11-.44-.17-.18-.06-.43-.15-.56-.2-.27-.11-.68-.17-.76-.1-.04.03-.09.03-.21,0-.16-.03-.43-.01-.75.06-.26.06-.39.04-.49-.07-.05-.05-.12-.16-.14-.24l-.05-.14.17-.04c.19-.04.4-.18.48-.3.03-.04.05-.13.05-.19s.01-.11.03-.11c.02,0,.01-.03-.02-.08-.1-.16-.08-.19.14-.17l.19.02-.16-.05c-.17-.05-.22-.09-.22-.2,0-.04,0-.1-.02-.13,0-.04.01-.1.04-.14.03-.04.05-.13.04-.2,0-.07.01-.15.04-.18.04-.05.04-.06-.02-.04-.07.02-.07.02-.03-.12.02-.08.04-.16.02-.17-.01-.01-.02-.11-.03-.23,0-.11-.02-.26-.03-.32-.01-.06-.02-.2-.02-.31,0-.14-.01-.18-.03-.15-.02.03-.03,0-.01-.09.02-.12.01-.14-.04-.13-.04,0-.06-.03-.08-.11-.05-.25-.07-.3-.1-.28-.02.01,0-.03.02-.09.03-.06.05-.11.04-.12s-.03.02-.05.06l-.03.08-.04-.07s-.04-.1-.04-.14c0-.05-.02-.07-.07-.07-.04,0-.1-.05-.15-.13-.05-.07-.1-.13-.11-.13s-.04-.03-.05-.07-.04-.07-.06-.07-.11-.08-.2-.19c-.09-.1-.21-.24-.27-.3-.06-.07-.1-.13-.09-.16.01-.03,0-.05-.02-.05s-.07-.05-.11-.11c-.04-.06-.09-.11-.11-.1-.02,0-.03-.07-.03-.18,0-.17.02-.22.18-.49.22-.36.26-.48.27-.71,0-.32-.2-.56-.46-.56-.17,0-.28.1-.35.31-.08.25-.14.35-.31.51-.13.12-.14.15-.12.24l.02.1-.1-.05c-.11-.06-.36-.12-.52-.13-.05,0-.12-.02-.14-.03-.06-.04-.08-.25-.03-.41.1-.33.03-.53-.23-.63-.25-.1-.43-.02-.57.25-.08.15-.09.4-.03.61.03.1.05.2.04.21,0,0-.05-.03-.08-.09-.13-.21-.3-.31-.6-.34-.15-.02-.21,0-.32.05-.08.04-.14.09-.14.12s-.03.06-.06.08-.07.07-.08.12c-.02.07-.04.08-.09.06-.04-.01-.07,0-.07.01,0,.02-.05.02-.15-.01-.08-.02-.15-.04-.16-.03-.03.03-.29-.2-.34-.29-.04-.08-.05-.08-.03.03.02.14-.02.11-.08-.04l-.04-.11-.05.23-.12-.29-.02.23-.1-.19c-.1-.2-.15-.24-.15-.13,0,.04-.02.07-.03.08s-.03,0-.03,0c0-.05-.18-.23-.22-.22-.02,0-.06-.01-.08-.04-.02-.03-.06-.05-.08-.05s-.06-.03-.08-.07-.06-.07-.07-.07,0,.05.03.11c.1.16.08.18-.07.05-.07-.07-.15-.12-.17-.12s0,.03.05.08c.05.04.09.09.09.11s-.06-.03-.13-.09-.14-.11-.15-.1-.05,0-.08,0c-.03-.01-.07-.02-.08-.02s-.02-.01-.02-.03-.02-.03-.04-.02c-.02,0-.08,0-.13-.03-.05-.03-.09-.03-.09-.01,0,.08-.11.03-.15-.07l-.05-.11-.05.19-.09-.08s-.14-.11-.19-.14c-.06-.03-.16-.1-.22-.16-.07-.06-.11-.08-.1-.05.03.08-.03.06-.12-.03-.07-.08-.08-.08-.11-.03-.05.09-.08.07-.18-.12l-.09-.17-.02.1c-.02.09-.02.09-.04.03-.01-.04-.07-.1-.13-.13-.06-.03-.12-.09-.14-.13s-.03-.05-.02-.03c.01.06,0,.05-.17-.09-.08-.07-.17-.13-.2-.13s-.12-.06-.21-.14c-.31-.27-.3-.26-.23-.13l.06.12-.12-.11c-.07-.06-.15-.12-.18-.12-.04,0-.12-.05-.19-.1-.1-.08-.12-.08-.09-.02.05.1.04.12-.02.06-.07-.06-.28-.16-.6-.27-.24-.09-.31-.09-.13,0,.15.07.05.07-.17,0-.1-.03-.28-.07-.4-.08-.17-.01-.19-.01-.1.01.16.05.11.07-.07.03-.19-.04-.32-.05-.79-.04h-.38s.14.07.14.07c.08.04.14.07.14.07s-.13,0-.28,0c-.18,0-.3,0-.33.03-.03.02-.09.03-.16.02l-.11-.02.1.04.1.04-.13.02c-.07.01-.17.02-.23.02-.1,0-.1,0-.02.03.08.03.08.03-.02.03-.06,0-.13.03-.17.07-.04.04-.12.08-.2.09-.14.02-.19.07-.08.08.09,0-.13.05-.27.06-.07,0-.12.02-.11.03.02.03-.08.08-.28.14q-.14.04-.04.06c.08.02.06.03-.15.07l-.25.05.12.04.12.04-.19.05c-.11.03-.19.06-.19.08,0,.05-.07.09-.18.09-.08,0-.09,0-.05.03.04.03.04.04-.03.1-.04.04-.13.07-.18.07h-.1s.2.11.2.11l-.15.04c-.1.03-.17.08-.22.14-.04.06-.11.11-.17.13l-.1.03h.09s.09-.02.09-.02l-.07.08s-.12.09-.18.11l-.1.03.11-.02c.07-.01.1,0,.08.01-.02.02-.13.04-.24.05-.24.02-.3-.02-.24-.14.03-.06.03-.07,0-.05-.02.01-.05.06-.07.1-.03.06-.03.06-.02-.03,0-.05.02-.13.04-.17.02-.06.02-.06-.06.01-.09.09-.12.06-.04-.05.02-.04.06-.1.07-.15l.03-.08-.07.08-.07.08.05-.11c.06-.13.06-.16,0-.11-.08.06-.09.02-.03-.08.08-.12.04-.15-.06-.05-.04.04-.06.05-.03.02.04-.05.04-.08.01-.13-.05-.1-.04-.13-.03-.17,0,0,0,0,0-.02,0,0,0,0,0,0,0,0-.01-.04,0-.04.02-.02.02-.07,0-.12-.02-.05-.04-.07-.06-.04-.02.03-.04.02-.07-.03-.02-.04-.03-.06,0-.05.02.01.04,0,.04-.04,0-.05.01-.05.06.02l.06.08-.03-.14c-.03-.15-.07-.21-.09-.15-.02.07-.1.16-.12.14,0,0,0-.08.03-.15.07-.21.05-.25-.04-.07-.06.13-.08.14-.06.07,0-.05.02-.21.04-.35l.02-.25-.06.18c-.07.2-.16.32-.11.15.02-.05.05-.14.07-.19.05-.12.05-.52,0-.52-.02,0-.03-.04-.02-.08.02-.09-.01-.11-.07-.05-.03.03-.04,0-.06-.05-.02-.08-.02-.09-.07-.03-.04.05-.04.04-.03-.1,0-.09.04-.23.06-.31.06-.17.04-.22-.03-.08-.03.05-.08.12-.12.16q-.07.07-.04,0c.11-.21.16-.4.11-.36-.03.02-.03,0,0-.05.02-.04.03-.07,0-.07-.02,0-.05.03-.07.07-.02.04-.05.07-.07.07s0-.04.03-.09c.08-.11.12-.26.07-.29-.02-.01-.03,0-.03.03s-.02.05-.04.05c-.02,0-.03-.03-.01-.07.01-.04,0-.06-.01-.05-.05.03-.08-.07-.04-.14.04-.08,0-.11-.06-.04-.03.04-.03.03,0-.03.06-.11.07-.14.02-.11-.02.02-.03,0-.01-.05.01-.04,0-.07-.01-.07-.02,0-.04.01-.04.03s-.02.03-.03.03c-.02,0-.02-.02,0-.07.02-.04.03-.09.02-.11s-.04,0-.07.06l-.06.1.02-.1c.02-.09.01-.09-.05.03-.08.16-.09.12-.02-.1.03-.09.04-.17.04-.17s-.05.07-.1.18c-.05.1-.1.18-.1.17,0,0,.01-.08.05-.16.04-.08.07-.2.07-.26,0-.06.02-.14.04-.16.03-.03.03-.04,0-.04-.02,0-.08.06-.13.12-.14.19-.16.2-.08.04.04-.08.09-.19.1-.25.02-.09.02-.09-.02-.04-.02.03-.06.06-.08.06s-.05.03-.06.07-.03.06-.04.05,0-.04.02-.08.04-.12.05-.2c.02-.14.02-.14-.04-.07-.03.04-.11.18-.17.31-.06.13-.12.23-.12.23,0,0,.05-.15.12-.32.14-.32.17-.42.08-.31-.05.06-.05.06-.05,0,0-.04.01-.11.03-.15.02-.04.04-.19.05-.33l.02-.24-.05.18c-.02.1-.06.23-.07.29-.01.06-.04.11-.06.11-.02,0-.02-.03,0-.07.03-.1.06-.68.03-.65-.01.01-.03.09-.04.17-.02.17-.1.41-.16.46-.03.03-.05.03-.05,0,0-.02.01-.04.03-.04.05,0,.1-.28.1-.52v-.23s-.05.12-.05.12c-.03.06-.08.23-.11.36-.08.33-.08.2,0-.18.04-.17.05-.3.03-.31-.02,0-.03-.03-.03-.06,0-.07-.11.05-.16.18-.06.15-.08.11-.02-.05.06-.16.1-.54.05-.41-.02.05-.03.12-.04.17,0,.05-.01.08-.02.07s-.03.02-.05.07c-.03.08-.04.06-.04-.12,0-.12,0-.26.02-.32.04-.15,0-.17-.05-.03-.02.07-.04.12-.06.11-.03-.02-.12.11-.12.18,0,.03-.01.06-.03.07-.01,0-.02-.08-.01-.2s0-.27-.01-.34l-.03-.13-.03.13c-.05.22-.09.21-.08-.02,0-.12,0-.17,0-.12s-.03.08-.04.07c-.02,0-.01-.07,0-.14.02-.07.02-.13.01-.14s-.02,0-.02.03-.01.06-.03.06c-.02,0-.04.09-.05.18-.04.36-.08.36-.06,0,0-.2.03-.38.04-.39,0-.02,0-.02-.03-.01-.05.02-.09.19-.1.47,0,.09-.02,0-.03-.22-.01-.24-.04-.41-.07-.47l-.05-.09-.07.25v-.11c0-.1-.06-.16-.07-.07,0,.02-.02.12-.04.21-.03.13-.04.15-.07.1-.01-.04-.03-.14-.03-.22,0-.09-.02-.16-.04-.16-.02,0-.03.04-.02.12.01.07,0,.17-.01.22-.03.1-.03.1-.02-.03,0-.07,0-.12,0-.11s-.02-.09-.02-.22c0-.21,0-.22-.02-.09-.02.1-.03.12-.03.06,0-.05-.02-.09-.04-.09-.04,0-.1-.29-.1-.44,0-.06,0-.1-.01-.09,0,0-.02.21-.04.44-.01.24-.03.44-.04.44,0,0-.02-.15-.02-.35,0-.2-.02-.41-.03-.46-.02-.08-.02-.06-.01.08,0,.1,0,.16,0,.14-.03-.06-.08-.02-.08.07,0,.15-.05.01-.07-.18l-.02-.2v.23s-.02.23-.02.23l-.04-.3-.04-.3v.23c-.01.19-.02.21-.04.14-.02-.05-.04-.18-.05-.28-.02-.16-.03-.17-.05-.09-.02.1-.02.09-.04-.05-.01-.08-.03-.14-.04-.13,0,0,0,.09.01.19.01.09.02.23,0,.3-.02.1-.02.09-.03-.11,0-.13-.03-.29-.05-.36l-.05-.13v.13c0,.11-.01.12-.04.07l-.03-.07v.07c0,.11-.07-.01-.08-.15,0-.06-.02,0-.03.13l-.02.25-.03-.28-.03-.28-.03.18c-.01.1-.02.24-.01.32.02.16,0,.14-.1-.17l-.08-.23v.17c.02.09.04.2.05.25.02.07.02.07-.03-.02-.03-.05-.08-.17-.1-.27l-.05-.17v.15c0,.23,0,.23-.05.02-.02-.11-.04-.17-.05-.13,0,.04-.02.08-.04.1-.03.02-.03,0-.02-.03.01-.03,0-.1,0-.16-.03-.11-.03-.11-.03.05v.17s-.05-.1-.05-.1c-.02-.05-.04-.11-.03-.12,0-.01,0-.02-.03-.02-.03,0-.04.04-.04.14v.14s-.04-.13-.04-.13c-.03-.07-.06-.14-.07-.15-.01-.01-.01,0,0,.04.03.07,0,.23-.05.2-.02,0-.02-.05-.01-.09,0-.05,0-.06-.03-.05-.03.01-.04,0-.03-.06,0-.04,0-.1-.02-.13-.02-.02-.03-.07-.02-.11.02-.06.02-.06-.02,0-.03.04-.03.07,0,.1.02.02.02.06,0,.09-.02.03-.02.06-.01.07s0,.03-.02.03-.04-.05-.04-.12-.02-.12-.03-.12-.03.07-.04.16c0,.12,0,.14-.03.09-.02-.04-.04-.08-.06-.09-.02-.01-.04-.05-.04-.09s-.03-.08-.07-.1c-.04-.02-.07-.02-.07,0,0,.02.02.04.04.04.04.01.06.16.02.16-.02,0-.03-.02-.03-.05s-.01-.05-.03-.06c-.02,0-.05-.08-.08-.16l-.06-.15.02.16c0,.09.03.18.05.2s.03.05.03.07c0,.08-.1-.11-.16-.31-.05-.14-.07-.18-.06-.1,0,.06.02.15.04.18.02.05.01.06-.01.03-.02-.02-.06-.1-.09-.18-.03-.08-.05-.12-.05-.09s.03.14.06.23c.08.21.07.25-.02.06-.06-.14-.1-.16-.13-.09,0,.02-.02,0-.04-.06-.01-.06-.05-.12-.07-.14-.04-.03-.04-.02,0,.08.07.16.03.19-.04.04-.03-.07-.07-.12-.08-.12s.03.1.09.22c.09.18.1.2.04.13-.09-.11-.13-.12-.11-.02.02.07.02.07-.03.01-.03-.04-.06-.05-.07-.04-.01.01,0,.05.02.08.03.03-.01,0-.09-.07-.07-.07-.15-.16-.18-.2-.04-.07-.03-.03.02.1.02.04.01.06-.01.04-.02-.01-.04,0-.06.02-.01.02-.01,0,0-.04.01-.05,0-.07-.02-.06-.02.01-.03,0-.02-.03.01-.03,0-.08-.04-.13q-.06-.08-.04.04c0,.06.03.15.04.18.02.06.02.06-.02.01-.02-.03-.07-.1-.1-.16-.03-.06-.07-.1-.08-.09s0,.05.02.09c.03.05.03.07,0,.05-.05-.03-.05.02,0,.07.02.02.03.05.02.06-.01.01-.04-.01-.06-.05-.02-.04-.11-.14-.19-.23-.14-.14-.14-.14-.06-.03.1.13.1.2,0,.11-.05-.05-.08-.02-.03.04.01.02.05.08.07.13l.04.1-.07-.07c-.11-.11-.15-.09-.06.03l.07.11-.12-.11c-.06-.06-.13-.11-.13-.1,0,0-.04,0-.07-.03-.03-.02-.05-.03-.05-.02s-.02,0-.05-.02c-.03-.02-.04-.05-.03-.07.01-.02,0-.03,0-.03-.07.01-.09,0-.04-.04.04-.02.03-.03-.02-.03-.04,0-.07,0-.07.01s.05.06.1.13c.06.06.09.12.07.12s-.04-.02-.05-.04c0-.02-.03-.02-.06.01-.04.04-.06.04-.09.02s-.06-.03-.11,0c-.06.03-.06.04-.02.04.04,0,.05.02.04.07,0,.04,0,.07.02.09.02.01.02.03.01.05-.01.02,0,.03.01.03s.06.04.09.09c.05.08.04.08-.07-.02-.11-.1-.12-.11-.1-.04.02.05.01.07-.01.06-.02-.01-.04-.04-.04-.06,0-.06-.2-.24-.2-.18,0,.02-.04,0-.08-.06-.05-.06-.07-.07-.06-.04.02.05.01.06-.05.02-.04-.02-.07-.03-.07-.02s-.02,0-.05-.02c-.03-.02-.05-.03-.05-.01s-.04-.01-.08-.06c-.05-.05-.09-.09-.1-.09s0,.03.03.06c.1.11.06.12-.05.02-.06-.05-.08-.07-.05-.03.07.09.07.13,0,.08-.05-.04-.05-.04-.01.01.02.03.06.05.07.04.03-.02.15.15.15.22,0,.09-.03.07-.21-.11-.09-.09-.17-.16-.17-.14s.03.06.07.09c.07.06.09.14.03.1-.02-.01-.03,0-.01.02.01.02.03.03.05.03.01,0,.05.03.09.07.06.08.06.09,0,.04-.06-.05-.06-.04-.04.02.02.05,0,.04-.06-.03-.07-.08-.08-.08-.05-.02.05.1.02.13-.06.07-.03-.02-.01,0,.04.06.06.06.08.1.04.09-.06-.02-.06.03-.01.12.03.04.02.04-.03,0-.03-.02-.05-.06-.04-.07s0-.03-.04-.03c-.03,0-.04.02-.03.04.01.02-.03,0-.09-.04-.14-.1-.23-.13-.16-.05.06.07.02.07-.18,0-.09-.03-.21-.07-.26-.08-.16-.04-.06.03.14.11.11.04.2.09.2.1,0,.04-.2.07-.29.03-.08-.03-.08-.03-.05.02.02.03.06.04.08.03.02-.01,0,0-.03.05s-.07.07-.08.07c-.1,0-.13.01-.11.06.02.04-.02.05-.26.04-.19,0-.25,0-.18.02.05.02.11.04.13.06s.08.04.12.05c.05,0,.02.02-.07.02-.13,0-.15,0-.14-.05.02-.04-.01-.05-.14-.04-.14,0-.15,0-.04.02.12.01.15.04.1.09-.01.01-.04,0-.06-.01-.03-.02-.05-.02-.06,0-.01.02-.02.04-.01.05.01,0,.24.05.3.05.01,0,.02.02,0,.03s-.03.03-.05.01c-.06-.04-.3-.05-.3-.02,0,.02.06.04.14.04s.19.02.24.03c.11.03-.12.04-.61.03-.15,0-.27,0-.26.02.02.02.64.12.69.11.06,0,.1,0,.1.05,0,.02-.02.04-.04.04s-.04,0-.04-.02c0-.03-.41-.04-.63-.01-.14.02-.16.03-.1.04.05.01.09,0,.1,0,.02-.03.33,0,.53.06.03,0,.1.01.17.02.19,0,.08.03-.31.05-.25.02-.35.03-.33.06.01.02,0,.02-.02,0-.02-.02-.08-.04-.13-.04-.07,0-.07,0-.03.03.04.03.04.03,0,.04-.03,0,0,.02.07.05.06.02.13.04.16.03s.04,0,.04.03c0,.03-.03.03-.09.02-.05,0-.07,0-.06.01.02.02.08.03.15.03.17,0,.12.06-.07.06-.09,0-.19.02-.24.03-.06.02-.02.02.12.02.19-.01.2,0,.21.06,0,.04,0,.06-.02.03-.03-.05-.09-.04-.19.02-.05.03-.05.04-.02.04.03,0,0,.02-.05.03-.06.01-.1.04-.09.07,0,.03-.02.04-.07.03-.06-.01-.08,0-.07.04,0,.03,0,.06-.01.06-.01,0-.06,0-.11,0h-.08s.08.03.08.03l.08.03h-.08s-.11.02-.13.04c-.04.02-.02.03.08.04.07,0,.17.01.22.03.08.02.07.03-.07.06-.08.02-.19.04-.25.05-.08,0-.07.01.04.02.13,0,.24.07.12.07-.12,0-.46.1-.51.15-.04.04-.03.04.07,0,.07-.03.16-.05.22-.05h.09s-.11.05-.11.05c-.1.05-.15.14-.07.14.02,0,.02.02-.02.06-.03.03-.06.07-.06.09,0,.02-.06.07-.14.13-.13.09-.31.28-.3.32,0,0-.02.04-.04.07-.03.03-.04.07-.03.09.01.02,0,.07-.05.11-.04.04-.07.09-.07.1s.04-.02.1-.08.08-.12.07-.13c-.03-.02.04-.09.14-.15.03-.01.01.01-.03.06s-.07.09-.06.09c.03,0-.13.28-.21.37-.03.03-.04.06-.03.06s-.02.07-.08.15c-.06.08-.1.16-.1.17s.09-.11.21-.28.23-.31.25-.32c.02,0,0,.04-.05.11-.14.18-.24.38-.25.52,0,.07-.02.13-.03.14s-.02.04-.02.07.05-.01.1-.09c.11-.15.12-.16.15-.1.01.02,0,.03,0,.02-.02-.01-.05.03-.07.1-.03.1-.03.11.01.08.03-.02.05-.06.05-.09,0-.04,0-.04.02-.01,0,.02-.06.15-.17.28-.23.31-.31.44-.33.59l-.02.12.28-.29c.16-.16.27-.26.25-.22s-.08.11-.13.16c-.06.05-.09.11-.08.13,0,.02,0,.02-.02.02s-.06.02-.08.06-.06.08-.08.09c-.02.01-.06.07-.09.13-.03.05-.06.09-.08.08-.04-.02-.1.16-.1.28,0,.07,0,.08.03.03.02-.03.04-.1.04-.15,0-.05.01-.09.02-.08s.04-.01.08-.04c.06-.05.06-.05.02,0-.02.03-.03.07-.02.09.01.02,0,.05,0,.06-.04.03-.18.3-.17.35,0,.04.12-.17.12-.22,0-.02.01-.04.03-.05.06-.04.24-.41.22-.44-.01-.02,0-.02.01-.01.03.02.23-.16.36-.33.06-.08.03-.01-.08.17-.05.07-.1.13-.12.12-.04-.01-.21.26-.21.33,0,.03,0,.06-.02.07-.02.02-.14.35-.14.39,0,0,.04-.05.08-.13.05-.08.07-.16.06-.18-.01-.02,0-.03.01-.01.02.01.04,0,.06-.04s.05-.09.08-.13l.06-.07v.08s0,.07-.02.07c-.01,0-.06.07-.1.16-.04.09-.09.18-.11.2s-.02.03-.01.04.05-.01.07-.06c.03-.04.1-.14.15-.22s.12-.14.14-.14c.03,0,.03,0,0,.02-.05.02-.16.25-.15.32,0,.03,0,.05-.01.05-.09-.01-.07.02.04.05.09.03.12.05.1.08-.02.04-.04.03-.08,0-.05-.05-.05-.05-.05,0,0,.03,0,.09-.02.12-.02.05-.01.05.02,0,.04-.07.04-.07.11-.02.07.04.08.04.09,0,.01-.03,0-.05-.02-.05s-.03,0-.02-.02c.01-.01.05,0,.07.02.05.04.05.05,0,.07-.04.02-.04.04-.02.05.02.01.02.04,0,.07-.03.04-.03.04-.03,0,0-.03-.02-.07-.04-.08-.02-.01-.03,0-.03.02.01.09,0,.13-.05.13-.06,0-.06.02-.01.12.03.06.03.06.02-.01,0-.05,0-.07.02-.06.02,0,.04.05.03.08s0,.06.02.05c.01,0,.03,0,.05.03s.01,0,0-.05c-.01-.05,0-.1.02-.11.02,0,0-.02-.04-.02-.04,0-.07-.02-.06-.04.01-.02.03-.03.05-.02.02,0,.05-.02.08-.07.05-.09.05-.09.03,0-.05.2-.06.41-.01.44.04.02.04.03,0,.06-.02.02-.05.1-.05.2,0,.09-.02.18-.03.2-.02.04-.03.39-.01.37,0,0,.03-.13.05-.26s.05-.25.07-.26.03-.04.03-.07.01-.06.03-.06.04-.04.05-.08c.03-.13.05-.07.03.07-.02.09-.03.11-.05.08-.02-.03-.03-.03-.03.01,0,.03.01.06.03.06.02,0,.02.09.01.21-.01.16,0,.2.02.17.02-.02.04-.11.04-.2,0-.12.01-.16.05-.15.02,0,.06,0,.07-.03.04-.06.04-.1,0-.08-.02.01-.02,0-.01-.03.02-.04.03-.04.05-.01.03.05,0,.27-.05.3-.02.01-.02.02,0,.02.02,0,.01.02-.01.05-.06.07-.12.75-.08.89.03.1.03.09.03-.09,0-.28.04-.6.12-.76.04-.08.08-.18.09-.23l.03-.09v.11c0,.06-.02.13-.05.16s-.04.05-.03.05,0,.02-.02.05c-.02.03-.03.06-.02.08.01.02,0,.06-.01.1-.02.04-.04.13-.05.21-.01.12,0,.13.02.06.02-.04.02-.09.01-.11-.01-.02,0-.03.01-.03s.07-.14.12-.32c.05-.18.1-.3.11-.28,0,.02-.01.12-.04.21-.07.23-.08.33-.03.35.05.02.14-.2.16-.4,0-.09.02-.17.04-.18.03-.03-.01.39-.05.45-.02.03-.04.15-.05.26-.01.13,0,.17,0,.13.02-.04.03-.11.03-.17s.02-.12.03-.15c.02-.03.02.05.01.23-.01.16-.04.29-.06.31-.03.02-.02.03,0,.05.03.02.03.05.01.11-.02.04-.03.14-.03.21,0,.07-.03.2-.05.3-.03.09-.05.19-.05.22,0,.05.09-.24.14-.47.03-.13.09-.11.08.02,0,.06.01.15.03.21.03.08.03.06.01-.11-.01-.14,0-.21.02-.21s.03-.02,0-.07c-.04-.06-.04-.06-.06,0-.02.04-.02.04-.02,0,0-.03.01-.08.03-.12.02-.06.03-.06.05.02.01.05.04.09.05.09s.03.03.03.06c0,.05,0,.05.03,0,.05-.12.04.03-.02.18-.03.08-.04.14-.02.14.03,0,.1-.22.1-.31,0-.03.02-.05.04-.05s.03-.02.01-.03c-.01-.02-.03-.03-.05-.02-.03.02-.12-.24-.09-.27.01-.01.02.01.02.06,0,.07,0,.07.04.03.03-.04.03-.04.02,0,0,.03,0,.09.04.13.05.07.05.07.07.02,0-.02.03-.02.05-.04,0,0,0,0,0,0s0,0,0,0c.02-.01.02-.03.04-.03.06,0,.07,0,.03.02-.03.02-.06.02-.08.01,0,0,0,0,0,0-.02,0-.02.01-.01.05.01.04.01.07,0,.06-.04-.04-.1.07-.12.23-.01.09-.03.22-.04.28,0,.06.01,0,.05-.13.04-.13.06-.26.05-.27s0-.04.04-.05c.05-.02.05,0,.03.1-.03.17-.06.86-.04.84.02-.02.03-.1.07-.49.01-.12.03-.19.05-.17.02.04.01.32-.02.4-.01.04,0,.04.02,0,.03-.03.04-.13.05-.26,0-.12,0-.22.02-.23.02-.02.05.34.04.52,0,.07,0,.12,0,.12s.03-.11.07-.25c.03-.14.07-.25.08-.25s.04-.03.05-.06c0-.03.01.04,0,.15-.01.23.02.27.08.1.04-.1.04-.1.07-.04.04.1.04.22,0,.2-.03-.02-.03,0-.02.03.01.03,0,.11-.03.18s-.05.16-.05.19c0,.05.01.05.06-.03.08-.11.09-.16.02-.13-.03.02-.03.01,0-.02.02-.03.06-.14.08-.25.02-.11.05-.21.07-.23.01-.02.03-.06.04-.1.01-.05.02-.05.02.02,0,.05-.01.1-.03.12-.04.04-.1.44-.07.46.02.01.04-.06.05-.2,0-.04.01-.07.02-.06.01,0,.04-.08.06-.19s.06-.2.07-.2c.04,0,.04.02,0,.11-.03.07-.03.07.02,0,.03-.04.05-.09.04-.12s0-.07.02-.1c.02-.04.03-.04.03,0-.01.1,0,.17.04.17.04,0,.04-.18,0-.27-.02-.04-.02-.07,0-.08.04-.02.08.25.06.37,0,.05,0,.07.01.06s.03-.13.03-.26c0-.22,0-.23.05-.13.04.08.04.11,0,.16-.03.05-.03.07.02.1.05.03.05.08.04.23,0,.1,0,.19.01.19s.03-.06.03-.13c0-.16.05-.2.08-.06.03.14.02.23-.01.13-.02-.06-.03,0-.03.17,0,.2,0,.24.03.19.02-.03.04-.2.04-.37,0-.29.04-.47.05-.26,0,.05.02,0,.03-.14.09-.76.13-.91.15-.63,0,.07,0,.1-.02.08-.01-.02-.03.12-.02.32,0,.23.01.33.03.28.01-.05.03-.15.03-.23,0-.09.02-.13.04-.12.04.03.06-.03.1-.28.03-.2.03-.19.02.12,0,.18,0,.41,0,.51l.02.18.02-.22c.01-.13,0-.23-.01-.26-.02-.03-.02-.05,0-.07.04-.03.07-.6.03-.6-.01,0-.02-.02-.02-.04s.02-.02.04-.01c.03.02.03,0,.02-.03-.01-.03,0-.05.01-.04.02.01.03.06.02.12-.01.07,0,.1.02.1.03,0,.03,0,0,.03-.04.03-.04.22,0,.4.02.06.01.07-.01.03-.03-.04-.04-.04-.04.02,0,.04.01.07.03.07s.02.05.02.11c0,.06,0,.02.03-.09.02-.11.05-.22.07-.24.01-.02.04-.17.06-.33.03-.3.09-.54.13-.54.01,0,.03-.06.04-.14,0-.08.01.02.01.21,0,.29,0,.32-.02.15-.02-.17-.02-.15-.02.13,0,.18,0,.4-.02.48l-.02.15.05-.15c.03-.08.06-.33.07-.56.02-.27.03-.38.05-.32.02.08.02.07.03-.07,0-.1.02-.17.04-.17s.03-.02.03-.04-.02-.03-.03-.01c-.04.03-.04.03.02-.15l.05-.15v.13c-.02.07,0,.19.02.25.04.1.04.1.03.02,0-.05,0-.09,0-.08.02,0,.05-.08.07-.2.04-.23.13-.39.09-.17l-.02.12.05-.1.05-.1-.02.15c0,.08,0,.12,0,.09,0-.03.04-.06.07-.06.04,0,.04,0,.01-.05-.03-.04-.03-.06,0-.11.03-.05.04-.05.02,0-.02.08.04.11.07.04.01-.03.1-.13.18-.23l.16-.17-.12.21c-.07.13-.11.22-.09.23.02,0,.03.04.02.07-.01.04,0,.04.01.01.05-.07.17-.08.46-.02.15.03.31.06.37.06.3.04.38.06.37.07,0,0-.1,0-.22-.01-.11-.02-.2-.02-.19,0,0,.02.07.03.13.03s.11.01.11.03.06.04.12.06l.12.04-.12-.02c-.06,0-.22-.02-.35-.03h-.23s.2.02.2.02c.26.04.45.1.51.15.02.02.04.04.03.04s-.04,0-.07.02c-.04.01-.05,0-.03-.03.02-.05-.01-.05-.22-.05-.13,0-.2.01-.14.02.05,0,.15.02.22.03l.12.02-.1.02c-.05.01-.2.03-.31.03-.2,0-.2.01.12.03.18.01.39.04.46.06l.13.03h-.16c-.09-.02-.15-.01-.14,0,0,.01-.02.04-.06.05-.06.02-.03.04.16.08.36.1.71.2.7.22,0,0-.09,0-.19-.04-.23-.06-.49-.1-.49-.06,0,.01.15.06.33.11.18.04.32.09.31.11-.01.02-.04.02-.07,0-.12-.06-.66-.12-.69-.07,0,.02.04.04.12.05.21.04.16.08-.07.06-.11,0-.19,0-.18.01.03.03.05.03.18.04.11,0,.09.03-.06.05-.06.01-.12.03-.13.03-.01.01.23.03.44.03.03,0,.06.01.06.03s.04.03.08.03.08.01.07.03c-.01.02-.07.02-.15,0-.14-.04-.22-.01-.13.04.03.02.09.02.13.01.07-.01.07-.01.02.01l-.07.03.07.02s.03.01-.02,0c-.05,0-.11-.02-.15-.03-.04-.01-.01.01.06.05.14.08.16.12.05.08-.07-.02-.07-.02,0,.03.05.03.14.05.22.06.08,0,.1.01.06.02-.1.02-.06.08.04.08.04,0,.08.01.08.03s.04.02.1.02c.05,0,.1,0,.1.02s.05.04.11.06l.11.03h-.12c-.07,0-.12-.02-.11-.03.02-.03-.1-.05-.21-.04-.12.02-.14.06-.03.09.12.03.44.07.47.06.02,0,.02,0,0,.02-.03.03-.37.02-.47,0-.04-.01-.05,0-.04.02.01.02.06.04.11.04.05,0,.18.03.3.07.12.04.22.06.24.05s.06,0,.09.01c.04.02,0,.03-.18.03-.17,0-.23,0-.22.03,0,.03-.01.03-.06.02-.04-.01-.07,0-.05,0,.01.01.13.05.25.07.22.04.22.04.07.05h-.15s.14.04.14.04c.08.02.22.03.32.04s.19.02.21.04c.01.01-.11.02-.27,0-.16,0-.29-.01-.29,0s.03.03.07.04c.06.02.04.03-.1.03-.11,0-.17.01-.16.04.01.02.15.03.3.03s.28.01.28.03-.08.03-.17.02c-.09,0-.18,0-.18.02s0,.03.02.03.03.01.03.03-.03.03-.06.03-.07.01-.08.02.07.03.17.03.15,0,.1-.01c-.08-.01-.13-.11-.06-.11.02,0,.02.02.01.04-.02.03,0,.03.03.02.03-.01.06,0,.07.01s.05.02.1.01c.05-.01.09,0,.1.02.02.03.01.03-.01.02-.02-.01-.08,0-.13.02-.09.05-.09.05.06.03.08,0,.18,0,.22.02.05.03.02.04-.14.04-.11,0-.22.02-.25.03-.04.02-.04.03,0,.03.02,0,.03.01.02.03-.01.02.01.04.06.05.04.01.09.04.1.06.01.02.02.01.03-.03,0-.05,0-.05.03-.02.02.02.07.04.13.05.13,0,.1.06-.03.06-.05,0-.09.01-.08.02,0,.01.12.02.24.02.21,0,.22,0,.18.06-.06.06-.08.08-.05.02.02-.03,0-.03-.06-.01-.04.01-.13.04-.19.05-.07.01-.09.03-.05.03.11.01.36,0,.43-.02.04-.01.05,0,.04.01-.03.04.05.07.18.07.05,0,.1.02.12.03.01.02.06.03.12.02.05,0,.09,0,.08.02-.01.02-.05.03-.08.03s-.07.02-.08.04c-.01.03-.07.04-.17.04-.09,0-.12,0-.07,0,.2.04.23.05.21.08-.01.02.05.03.21.02.13,0,.24,0,.24.01s-.02.02-.03.02-.03.01-.03.03.03.02.07.01c.04,0,.07,0,.07.02s-.06.04-.12.06c-.07.01-.18.05-.25.09s-.15.06-.18.06-.05,0-.04.02c.01.01,0,.05-.01.09-.03.06-.03.06.03.04.13-.05.19-.06.16-.02-.03.05.02.05.07,0,.03-.03.04-.03.04.02,0,.03-.01.05-.02.05-.03,0-.21.06-.21.08,0,0,.06,0,.13-.02.07-.02.13-.05.13-.06s.01-.03.03-.03.02.02.01.05-.04.05-.06.05-.05.01-.06.03c0,.01.04.02.11.02.07,0,.09,0,.05,0s-.07.03-.07.05.03.02.06.01c.03-.01.11-.03.17-.03.06,0,.16-.02.22-.03.05-.01,0,.02-.11.06-.12.05-.22.09-.23.1-.03.03.41-.02.46-.05.05-.03.2-.04.38-.03.06,0,.06,0-.01.04-.06.03-.08.03-.11-.01-.02-.03-.03-.03-.03,0,0,.02-.04.04-.08.04s-.14.02-.21.05c-.13.05-.13.06-.05.09.06.03.12.02.25-.02.09-.03.27-.07.39-.09.12-.02.23-.04.26-.05.02,0,.04,0,.04.02s-.08.04-.17.05l-.17.03.13.02c.08.01.12.03.09.04-.02.01-.06.01-.1,0-.04-.02-.05,0-.04.03.01.04,0,.05-.02.04-.05-.02-.31.04-.33.08,0,.02.05.01.14,0,.28-.05.44-.1.42-.13,0-.01.02-.02.05,0,.06.01.03.04-.12.11-.38.17-.37.17-.26.15.05-.01.16-.05.24-.08.08-.03.13-.05.12-.03-.01.02,0,.03.03.03.04,0,.02.03-.06.1l-.11.1.22-.09c.25-.1.4-.14.24-.06-.06.03-.11.06-.11.06,0,.03.22-.05.23-.08,0-.02.04-.03.08-.03.07,0,.07,0,0,.03-.06.03-.06.03,0,.03.04,0,.09-.02.11-.06.03-.05.03-.05.03,0,0,.05.02.06.18.05.23-.02.2,0-.08.08-.21.05-.22.05-.09.06.07,0,.17.02.21.03.07.02.05.03-.12.08-.28.08-.3.14-.05.11.11-.01.23-.03.28-.04.17-.04.02.05-.22.14l-.23.08.25-.02c.14,0,.23,0,.2,0-.03.01-.09.04-.15.06s-.18.06-.28.07l-.18.03.2.1c.21.11.27.18.13.15-.04,0-.08,0-.08.02,0,.05.13.08.27.08h.12s-.12.05-.12.05c-.08.04-.17.05-.3.03l-.18-.02.12.05c.07.03.17.05.25.04.07,0,.1,0,.07,0-.12.03-.14.08-.02.06.11-.02.11-.02.03.02-.05.02-.09.05-.1.07s-.11.02-.22.02c-.11,0-.2-.01-.2,0,0,.02.44.14.47.13.02-.01.03,0,.03.02,0,.03-.19.05-.34.04-.12-.01-.05.03.17.1l.22.08-.17.02c-.16.02-.16.02-.06.04.13.03.14.09.02.09h-.09s.08.07.08.07l.08.07-.13-.02c-.07-.01-.16-.04-.19-.05-.04-.02-.06-.02-.06,0,0,.03.08.1.22.19.05.03.05.04-.03,0-.08-.03-.09-.02-.08.02.01.03,0,.04-.03.03-.03-.01-.04-.03-.03-.05s0-.04-.02-.05c-.02-.01-.03,0-.02.01.01.02,0,.04-.02.05-.06.02.09.15.18.15.03,0,.07.02.08.04.04.06-.25,0-.33-.06-.06-.05-.06-.05-.03,0,.02.04.07.12.12.18.09.12.11.19.04.15-.02-.01-.03-.01-.01,0,.02.02.04.03.06.03.02,0,.05,0,.07,0,.02,0,.01.02-.01.05-.03.03-.06.07-.06.09-.02.05-.07.01-.16-.11l-.07-.11.1.09c.14.13.17.11.04-.02-.06-.06-.12-.12-.13-.12-.03,0-.02.11.03.19.05.08.02.13-.05.07-.05-.05-.06,0,0,.06.03.03.05.03.08-.01.03-.04.04-.04.07-.01.02.03.01.04,0,.02-.05-.03-.04.11,0,.18.02.03,0,.02-.05-.02-.05-.04-.13-.1-.19-.14l-.11-.07.07.13c.04.07.11.17.16.22l.09.1-.13-.09c-.07-.05-.14-.09-.16-.09-.06,0,.07.14.2.22.08.05.14.09.14.1,0,.02-.11-.02-.16-.06-.02-.02-.04-.02-.04,0s-.03,0-.07-.03c-.1-.07-.13-.06-.09.01.02.04.03.07.02.07s0,.05.03.1c.05.1.05.1-.08.25-.07.08-.15.2-.17.27-.03.12,0,.24.14.63.04.09.05.26.05.56,0,.24.02.49.04.55.03.1.05.13.15.14.14.03.23-.04.26-.2.04-.18.05-.22.08-.22.02,0,.03.05.03.11,0,.1.12.38.21.49.05.06.25.13.32.1.02,0,.04-.07.04-.14,0-.18.05-.23.1-.11.05.12.21.25.34.28.14.03.22-.03.24-.2l.02-.15.1.12c.06.07.15.13.22.15.11.02.12.02.12-.05,0-.12.02-.12.22-.06.2.06.41.07.44.02.01-.02-.03-.06-.08-.1s-.09-.08-.09-.09c.01-.01.12,0,.61.11.16.03.04-.2-.13-.26-.02,0-.03-.03-.02-.04.04-.04.31.05.48.16.15.1.15.1.13.02-.01-.04-.02-.09-.02-.11,0-.02-.04-.09-.08-.16-.05-.07-.08-.13-.07-.14.03-.03.31.06.39.14.05.04.11.12.14.17.05.09.05.09.05.02,0-.12-.15-.39-.27-.48-.17-.12-.43-.1-.8.04-.26.1-.34.12-.62.12h-.32s-.12-.13-.12-.13c-.14-.16-.13-.24.04-.23.07,0,.18,0,.26-.03.1-.03.16-.03.23,0,.12.04.13.04.1-.02-.02-.04,0-.05.08-.03.06.01.13,0,.2-.03.06-.03.12-.04.13-.03.02.01.03-.03.03-.11v-.13s.05.09.05.09c.03.05.06.08.08.07.02-.01.02-.03.01-.05,0-.02,0-.04.02-.05.02-.01.04,0,.06.04.02.05.03.05.05-.02.02-.06.03-.07.06-.03.03.04.04.04.06,0,.02-.03.03-.04.03-.02,0,.02.02.01.04,0,.06-.06.09-.05.07,0-.03.07,0,.06.19-.03.15-.08.16-.08.13-.02-.05.08-.05.17,0,.17.02,0,.03-.01.02-.03s.01-.04.05-.05c.04,0,.07,0,.07.01,0,.02.02.02.06,0,.03-.02.11-.03.17-.03.08,0,.14-.02.21-.09.11-.1.15-.12.11-.05-.01.02.02,0,.06-.04.05-.04.08-.09.08-.1,0-.03.17-.25.19-.23,0,0,0,.08-.01.15l-.03.14.13-.14c.12-.13.13-.13.09-.04-.02.05-.05.12-.07.14-.08.09,0,.07.14-.03.2-.15.24-.18.21-.12-.02.03-.06.09-.1.15-.13.18-.13.2,0,.1.07-.05.12-.12.12-.14s.01-.03.03-.02c.02.01.03,0,.03-.01s.01-.04.03-.04.02.03.01.06c-.01.04.02.03.11-.04l.13-.1-.13.18c-.07.1-.1.16-.06.12.04-.03.08-.05.09-.04.01.01.05,0,.08-.03.11-.09.16-.11.09-.02-.09.11-.13.18-.08.15.05-.03.05.02,0,.08-.02.03,0,.02.03-.02.08-.06.1-.14.04-.1-.02.01-.03,0-.01-.02.01-.02.04-.03.05-.02.02,0,.05,0,.07-.03.02-.03.06-.05.07-.05s0,.02-.02.05-.07.11-.09.18c-.03.12-.03.15.05.28.1.17.28.3.45.32.06.01.35.04.63.07.33.03.59.08.72.13l.21.07.06-.07c.05-.07.06-.07.15,0,.12.07.2.08.22.02.01-.03.05-.03.18.02.42.16.39.16.4.07v-.07s.17.08.17.08c.09.04.24.09.35.1.18.02.19.02.19-.07,0-.05-.02-.13-.03-.17-.05-.12-.02-.14.12-.07.13.06.29.07.38.02.05-.03.08-.02.15.03.12.09.29.12.4.07.05-.02.19-.05.31-.05.15,0,.23-.02.25-.05.02-.04.04-.03.07.03.07.13.17.51.17.66,0,.17.05.27.13.27.08,0,.25-.21.21-.27-.02-.02-.01-.03.01-.02.02.01.05,0,.06-.01.03-.05.08-.04.08.02,0,.03-.03.12-.07.19-.09.17-.08.27.05.28.12.01.25-.07.29-.2.04-.12.07-.12.12,0,.02.06.09.15.16.22h0c.08.09.13.11.2.11.07,0,.09-.03.08-.08,0-.04-.02-.14-.03-.23l-.02-.17.06.11c.07.13.23.27.31.28.03,0,.09,0,.13.02.09.02.09.01.02-.14-.08-.19-.06-.2.07-.03.06.08.14.16.17.16.11,0,.28,0,.34-.03.06-.02.06-.03-.02-.18-.1-.2-.1-.2.02-.14.12.06.19.06.23,0,.03-.05.05-.04.16.03.15.1.2.11.17.03-.07-.17-.06-.17.08-.14.08.02.22.08.32.15.1.06.19.12.2.12.04,0,0-.13-.08-.27-.09-.15-.1-.16-.02-.12.04.02.12.09.17.14l.09.1-.08-.13c-.17-.3-.34-.41-.61-.41-.1,0-.19-.02-.2-.03s-.15-.03-.31-.03c-.32,0-.65-.06-.77-.14-.13-.08-.26-.3-.28-.46-.02-.13,0-.17.1-.34.07-.11.12-.21.12-.22s.02-.02.05,0c.03.01.04,0,.03-.05,0-.04,0-.09,0-.13.02-.05.03-.05.07,0,.05.06.05.06.03-.05-.02-.09-.01-.11.03-.07.05.04.1,0,.07-.07-.01-.02,0-.03.06-.02.06,0,.08,0,.09-.06.01-.09.07-.1.1-.02.02.05.03.04.04-.04.02-.11.07-.12.12-.02.05.09.08.06.08-.08,0-.16.04-.14.1.05l.05.16v-.12c.02-.18.06-.23.08-.1l.02.12.05-.11c.06-.13.1-.14.1-.02,0,.13.06.1.08-.04.03-.2.04-.2.07-.04.02.11.04.13.04.06,0-.11.07-.26.11-.26.02,0,.03.03.03.07,0,.07,0,.07.04-.02.02-.05.06-.09.08-.09s.04-.02.04-.05.01-.04.03-.03.03.06.03.1c0,.13.06.09.08-.06l.02-.14.06.13c.05.12.06.13.1.07.03-.04.05-.05.06-.03,0,.02.07.08.13.13.1.08.11.08.08.02-.05-.09-.05-.12,0-.09.02.01.03,0,.01-.06-.01-.05,0-.09.02-.11.03-.02.03-.01.02.01-.03.04.04.19.07.16.01-.01,0-.04-.02-.06-.02-.03-.03-.07-.02-.1.03-.07.12-.07.18,0,.02.03.13.06.24.07.11.01.22.04.25.06s.05.02.06.01.06,0,.11.03c.05.03.13.06.18.08.05.02.1.06.11.1,0,.04.04.06.06.05.02,0,.07.01.1.05.03.04.09.07.14.07.05,0,.08.02.09.06.02.07.4.27.52.27.05,0,.1.02.11.05.01.03.06.05.11.05.15,0,.19.03.23.15.04.13.13.14.16.02l.02-.08.09.07s.11.06.13.05c.02-.01.03,0,.02.01-.03.04.3.19.35.15.02-.01.03,0,.01.02-.02.02,0,.04.06.04.04,0,.09.02.1.05.02.04.03.04.07.02.04-.03.06-.03.1.02.03.03.05.04.05.01,0-.03.03-.02.09.02.05.03.11.05.13.04.03-.01.04,0,.03.01-.01.02,0,.03,0,.03.04,0,.24.19.24.23,0,.05.11.12.27.18.09.03.21.1.28.16.17.14.31.12.39-.04.03-.06.06-.1.06-.08,0,.12.71.31.97.26.09-.02.11-.04.11-.11,0-.08-.02-.1-.16-.16-.15-.06-.16-.08-.16-.18v-.11l.08.09c.06.07.1.09.16.07.19-.06.24-.05.55.07.27.1.36.12.49.11.09,0,.17-.04.19-.07.03-.04.08-.04.27-.02.13.01.27.04.32.06l.09.03v-.18c0-.17,0-.18-.11-.25ZM.7,3.94s.03-.03.06-.06c.05-.04.05-.04.01.01-.04.06-.07.07-.07.05Zm-.46,2.15s.03-.03.06-.06c.05-.04.05-.04.01.01-.04.06-.07.07-.07.05Zm.35.58s0-.03,0-.03c.01,0,0-.01-.01-.03-.03-.02-.03-.04,0-.07.03-.04.03-.04.03,0,0,.03,0,.08.01.11.01.06,0,.08-.03.02Zm.01-.2s-.03-.01-.01-.03c.01-.02.03-.03.04-.03s.01.01.01.03-.02.03-.04.03Zm.56-2.1s-.04.05-.09.09l-.09.06.08-.09c.08-.09.1-.1.1-.06Zm-.09.25s-.05.06-.06.06c-.03,0,0-.03.05-.07.05-.04.05-.04.01.01Zm-.04-.32c-.05.06-.07.06-.07.02,0-.02.02-.04.05-.05.05-.02.05-.01.01.03Zm-.1-.41s.07-.03.07-.02-.03.03-.07.05c-.04.02-.07.03-.07.02s.03-.03.07-.05Zm-.04.29c.05-.04.05-.04.01.01-.04.06-.07.07-.07.05,0,0,.03-.03.06-.06Zm.04.42s-.01.04-.04.07c-.06.05-.06.05-.02-.02.02-.04.05-.07.06-.06Zm-.04-.22c.05-.04.05-.04.01.01-.04.06-.07.07-.07.05,0,0,.03-.03.06-.06Zm-.04,1.09c.07-.1.1-.12.05-.02-.02.04-.05.07-.07.09-.02.01-.01-.02.02-.06Zm-.1-.14s-.05.05-.05.03c0-.02.02-.06.05-.1s.05-.05.05-.03c0,.02-.02.06-.05.1Zm-.21.78s-.03-.02-.03-.03.02-.03.03-.03.03.01.03.03-.01.03-.03.03Zm.1-.15s.01-.04.03-.03c.02.01.03.03.03.05s-.01.03-.03.03-.03-.02-.03-.05Zm.13.73c0-.05,0-.06-.03-.02-.02.03-.04.04-.06.02-.01-.01,0-.04.01-.06.03-.03.05-.03.08,0,.02.02.03.06.02.08-.01.03-.02.02-.02-.02Zm-.03-.55s-.08.06-.08.05c0-.04.13-.16.14-.14,0,0-.02.05-.07.09Zm.11,1.16c-.03.08-.05.09-.05.05,0-.04.02-.1.05-.15.03-.05.05-.07.05-.05,0,.02-.02.09-.05.15Zm.03-.2s-.01-.02-.01-.05.01-.05.03-.05.02.02.01.05-.02.05-.03.05Zm.05-1.27c-.06.1-.11.17-.12.17-.03,0,.13-.27.18-.31.03-.02,0,.04-.06.13Zm.05,1.34s.05,0,.07-.03c.04-.05.04-.05.02.02-.02.08-.06.1-.1.03-.01-.02-.01-.03,0-.02Zm.06.39c-.03.05-.06.1-.06.1-.03,0-.02-.07.02-.13.06-.11.1-.07.04.04Zm.11-.31s-.04.08-.03.09c.03.03-.03.05-.08.03-.06-.02-.05-.11,0-.11.03,0,.07-.05.1-.11.03-.08.05-.09.05-.04,0,.04-.02.1-.05.14Zm-.06-2.47c-.09.09-.15.14-.14.11.04-.08.31-.34.31-.3,0,.01-.08.1-.17.2Zm.49,2.84s0,.06,0,.08c0,.02-.02,0-.02-.04s0-.06.02-.04Zm-.02.52c.02-.09.03-.09.03-.02,0,.05-.01.12-.03.17-.02.06-.03.07-.03.02,0-.04.01-.11.03-.17Zm.13.85s-.01.02-.03.02-.04-.04-.05-.1c-.01-.07-.03-.09-.07-.08-.03.01-.05,0-.05-.02s.01-.03.03-.02.03,0,.03-.02c0-.04.13.16.13.21Zm-.03-5.94s-.07,0-.04-.04c0-.02.05-.03.09-.03.05,0,.06,0,.02.02-.03.01-.06.03-.07.05Zm.05-.41s-.05,0-.02-.02c.02,0,.05,0,.06,0,.01.01,0,.02-.04.02Zm.04,6.04c-.01-.06-.01-.07.01-.04.02.02.03.05.02.08,0,.02-.02,0-.03-.04Zm.06.2s-.02,0-.02-.04,0-.06.02-.04c0,.02,0,.06,0,.08Zm.04-.24s.02-.03.04-.03.03.02.01.03c-.01.02-.03.03-.04.03s-.01-.01-.01-.03Zm.06.17s-.03.01-.04,0c-.04-.04-.02-.06.05-.07.04,0,.06,0,.04.02-.02.01-.04.03-.05.05Zm.14.4s-.03-.01-.03-.05c0-.08,0-.08.04-.02.01.03,0,.06,0,.06Zm.04-.11s.03-.03.04-.03.01.01.01.03-.02.03-.04.03-.03-.01-.01-.03Zm.03.39s-.01-.03,0-.09c0-.06.02-.11.03-.13.01-.01.01.03,0,.09,0,.06-.02.12-.03.13Zm.03-7.12s-.01-.01-.01-.03.02-.03.04-.03.03.02.01.03-.03.03-.04.03Zm.07,6.61s-.01-.05.02-.02c.02.02.03.05.02.06-.01.01-.03,0-.04-.04Zm.03-6.67s0-.04,0-.05c.02,0,.03,0,.03.03,0,.06-.01.06-.04.02Zm.02,6.97s-.03-.01-.03-.05.01-.06.03-.06.03.02.03.05-.01.06-.03.06Zm0-7.07s-.03-.02-.01-.03.03-.03.04-.03.01.01.01.03-.02.03-.04.03Zm.14,7.29s-.02-.02-.01-.05c.01-.03.02-.05.03-.05s.01.02.01.05-.01.05-.03.05Zm.68-.75s-.02,0-.02-.06c0-.05,0-.07.02-.04,0,.03,0,.08,0,.1Zm.1.35s-.02,0-.02-.04c0-.04,0-.05.02-.02,0,.02,0,.05,0,.06Zm.01-7.88s-.03-.01-.01-.03c.01-.02.03-.03.04-.03s.01.02.01.03-.02.03-.04.03Zm.1.03s-.03-.03-.02-.03.06.01.08.03.03.03.02.03-.06-.01-.08-.03Zm.25,7.76s-.03-.02-.05-.03c-.03-.02-.03-.03,0-.03.02,0,.04-.07.05-.17.01-.17.01-.16.01.03,0,.11,0,.21,0,.21Zm-.01-8.06c0-.05,0-.06.03-.03.03.02.03.05,0,.07-.02.02-.03,0-.04-.04Zm.35,7.32s0,.1,0,.13c0,.03-.01,0-.01-.08,0-.07,0-.1.02-.06Zm.01.51s-.02.06-.03.06-.02-.05-.02-.11c0-.06.01-.15.02-.19,0-.07,0-.07.03-.02.01.03.02.09.02.13,0,.04,0,.1-.01.13Zm.46-1.5s-.03.03-.03.02.01-.06.03-.08.03-.03.03-.02-.01.06-.03.08Zm0-.18s-.03-.05.01-.03c.03.01.05.03.05.05,0,.04-.02.04-.07-.02Zm-.02-6.53s.03.02.05.07c.02.05.03.08.02.08-.02,0-.09-.14-.07-.15Zm.1,6.48s-.01-.02-.01-.05.01-.05.03-.05.02.02.01.05-.02.05-.03.05Zm-.09-6.55c-.12-.15-.16-.22-.08-.15.04.03.05.03.07,0,.01-.02.01-.01,0,.03,0,.04,0,.09.04.11.03.02.07.07.08.1.05.1.02.07-.11-.09Zm.15-.02c-.04-.05-.07-.11-.06-.12.02-.02.16.15.16.19s0,.04-.1-.07Zm.18,6.5s-.01-.02-.01-.03.02-.03.04-.03.03.01.01.03-.03.03-.04.03Zm-.04-6.47c-.08-.1-.08-.13,0-.06.05.04.09.09.09.09,0,.03-.06,0-.09-.03Zm.39,6.8s-.02-.02-.01-.05.02-.05.03-.05.01.02.01.05-.01.05-.03.05Zm.08,0s-.01-.02-.01-.03.02-.03.04-.03.03.02.01.03c-.01.02-.03.03-.04.03Zm.22-7.04s.03,0,.07.05c.06.07.07.07.05.01-.02-.05-.01-.06.02-.02.03.03.03.05,0,.08-.03.03-.15-.06-.15-.11Zm.43-.03s.06-.03.08.03c.01.03.02.06,0,.07-.02.02-.09-.06-.09-.09Zm.51,7.83s-.05,0-.02-.02c.02,0,.05,0,.06,0,.01.01,0,.02-.04.02Zm.15-.23s-.07-.01-.07-.03.03-.02.07-.01c.04,0,.07.02.07.03s-.03.01-.07.01Zm-.03.76s-.06,0-.04-.02c.02,0,.06,0,.08,0,.02,0,0,.02-.04.02Zm.07-.13s.01-.03.03-.01.03.03.03.04-.01.01-.03.01-.03-.02-.03-.04Zm.14.16c-.06,0-.11-.02-.11-.03,0-.02.16,0,.2.03,0,0-.03,0-.09,0Zm.34.47h0s0,.03-.02.03c-.06,0-.01-.08.05-.09.05,0,.05,0,0,.01-.03,0-.05.03-.04.04Zm.02-.42c-.06.01-.07.01-.04-.01.02-.02.05-.03.08-.02.02,0,0,.02-.04.03Zm.07-.19s-.05.01-.02-.02c.02-.02.05-.03.06-.02s0,.03-.04.04Zm.34.92s.02-.02.06-.01c.04,0,.08.02.08.03,0,.03-.13.01-.15-.02Zm.52.89s-.05,0-.02-.02c.02,0,.05,0,.06,0,.01.01,0,.02-.04.02Zm-.12.19c-.07,0-.14-.01-.15-.03-.02-.03.19-.03.24,0,.02.01-.02.03-.09.02Zm.23-9.6s0,.05,0,.06c-.01.01-.02,0-.02-.04,0-.04,0-.05.02-.02Zm0,9.05c-.05,0-.07,0-.04-.02s.08,0,.1,0c.02,0,0,.02-.06.02Zm.8-8.72s-.02,0-.02-.04c0-.04,0-.05.02-.02,0,.02,0,.05,0,.06Zm.43,10.07s.05.03.05.03c0,.03-.06.01-.08-.02-.01-.02,0-.02.03-.01Zm-.11.28s.07,0,.07.01-.03.02-.07.03c-.04,0-.07,0-.07-.01s.03-.03.07-.03Zm-.19.11c-.07-.03-.05-.08.03-.07.04,0,.06.01.03.02s-.03.03-.02.05c.02.03.02.03-.04,0Zm.26.14c-.1.06-.13.06-.13.02,0-.02-.02-.03-.05-.03s-.05-.01-.05-.03.02-.03.05-.03.04-.01.03-.03c0-.02.02-.02.07-.01.09.02.09.02.01.04-.04.02-.07.04-.05.06.02.03.03.03.06,0,.02-.02.06-.04.09-.03.03,0,.02.02-.03.05Zm.07-.12s-.04-.02-.05-.03,0-.03.01-.03.04.01.05.03,0,.03-.01.03Zm.08-.07h-.07s.07-.03.07-.03c.04-.02.09-.03.12-.03.04,0,.04,0,0,.03-.03.02-.08.03-.12.03Zm.1.1s-.05,0-.02-.02c.02,0,.05,0,.06,0,.01.01,0,.02-.04.02Zm.04-10.2s-.01-.05.02-.02c.02.02.03.05.02.06-.01.01-.03,0-.04-.04Zm.15,9.99c.08-.02.09.03.01.06-.07.03-.08.03-.08,0,0-.02.03-.04.07-.05Zm.02.2c-.05,0-.09-.02-.09-.03,0-.03.03-.03.12,0,.06.02.05.03-.02.02Zm-.23.41s-.04-.02.02-.05c.03-.01.04,0,.03.01-.01.02-.03.03-.05.03Zm.45-.4s-.05,0-.02-.02c.02,0,.05,0,.06,0,.01.01,0,.02-.04.02Zm.34-9.39s-.01,0-.01-.11c0-.11,0-.15.01-.09,0,.06,0,.15,0,.2Zm.14,9.95s-.04-.02.02-.05c.03-.01.04,0,.03.01-.01.02-.03.03-.05.03Zm.06-9.22s-.02,0-.02-.04c0-.04,0-.05.02-.02,0,.02,0,.05,0,.06Zm.19,9.14s-.05.01-.02-.02c.02-.02.05-.03.06-.02s0,.03-.04.04Zm.02-.15s-.04-.02.02-.05c.03-.01.04,0,.03.01-.01.02-.03.03-.05.03Zm.12.13s-.05,0-.02-.02c.02,0,.05,0,.06,0s0,.02-.04.02Zm-.01-9.03s0-.05.02-.02c0,.02,0,.05,0,.06-.01.01-.02,0-.02-.04Zm.03-.15s-.03.04-.03,0c0-.03.01-.08.03-.12l.03-.07v.07s-.01.09-.03.12Zm.28.43s-.02-.01-.04-.03,0-.03.01-.03.04.01.04.03,0,.03-.01.03Zm.03.16s-.02,0-.02-.04c0-.04,0-.05.02-.02,0,.02,0,.05,0,.06Zm-.14,10.38s-.05,0-.02-.02c.02,0,.05,0,.06,0s0,.02-.04.02Zm.35-10.67s.03-.04.03.02c0,.04-.01.1-.03.15-.03.08-.03.08-.03-.02,0-.05.01-.12.03-.15Zm.02.87c-.03.06-.05.09-.05.06,0-.05.09-.24.1-.19,0,.01-.02.07-.05.13Zm.97,1.15s0,.05,0,.06-.02,0-.02-.04c0-.04,0-.05.02-.02Zm0,.4c-.06.05-.06.05-.02-.02.02-.04.05-.07.06-.06s0,.05-.04.08Zm.08.11s-.03.04-.03,0c0-.03.01-.07.03-.1.03-.04.03-.04.03,0,0,.03-.01.07-.03.1Zm.03.38s.01-.06.03-.07c.02-.01.02.01.01.05-.02.08-.04.09-.04.02Zm.76,2.87s.02-.05.06-.07c.05-.04.05-.04.02.03-.04.08-.07.1-.07.05Zm1.89,7.84s.03-.03.06-.06c.05-.04.05-.04.01.01-.04.06-.07.07-.07.05Zm.86-.28s.01-.04.03-.05c.02-.01.02,0,.01.03-.02.06-.05.07-.05.02Zm5.06.51c-.28.03-.8.05-.89.03-.33-.06-.77-.17-.71-.17.02,0,.12-.06.22-.14.1-.07.21-.15.25-.17.06-.03.06-.03,0,.05l-.06.08.1-.04c.08-.03.11-.03.13,0,.02.02.04.03.07.02.02-.01.03-.04.02-.05-.01-.02,0-.02.04,0,.03.01.06,0,.08-.01.02-.04.51-.31.55-.31.01,0,.01.02,0,.04-.01.02,0,.04.05.05.04.01.06.04.05.06,0,.03,0,.05.03.05s.06.06.09.12c.02.07.07.17.1.22.03.06.06.11.06.12,0,.01-.08.03-.17.04Zm7.49-.13s-.03-.14.01-.14c.02,0,.03.01.03.03s0,.05.02.08c.02.05-.02.07-.06.03Z"/>
  </g>
</svg>