<?xml version="1.0" encoding="UTF-8"?>
<svg id="Layer_2" data-name="Layer 2" xmlns="http://www.w3.org/2000/svg" viewBox="0 0 33.94 33.94">
  <defs>
    <style>
      .cls-1 {
        stroke-width: 0px;
      }
    </style>
  </defs>
  <g id="Layer_1-2" data-name="Layer 1">
    <path class="cls-1" d="m7.03,16.01c-.16-.28-.48-.39-.74-.54.4-.39.88-.7,1.43-.85.4-.58.94-1.04,1.53-1.41.05,1.14.66,2.2,1.54,2.92.68.57,1.49.98,2.33,1.26,1.13.41,2.39.46,3.42,1.13,1.63.94,2.56,2.81,2.52,4.67.5-1.03.39-2.24.08-3.31-.44-1.49-1.16-2.88-2.02-4.17-.74-1.15-1.57-2.26-2.11-3.53-.22-.49-.3-1.03-.33-1.56.28.31.58.6.91.86-.45-.73-.7-1.6-.47-2.45.2.47.46.93.84,1.28-.43-.71-.59-1.58-.22-2.36.13.44.32.86.58,1.24-.02-.53-.15-1.09.05-1.61.13-.34.44-.55.69-.79-.25.51-.21,1.06-.02,1.58.16-.83.5-1.72,1.34-2.05-.11.39-.07.78.07,1.16.56-.74,1.22-1.47,2.16-1.69-.26.52-.38,1.09-.46,1.65.49-.76,1.32-1.29,2.24-1.21-.3.36-.48.8-.55,1.27.7-.42,1.51-.67,2.34-.59-.44.29-.84.63-1.18,1.03.63-.38,1.34-.6,2.08-.48-.32.29-.61.6-.88.94.71-.3,1.52-.29,2.19.13-.24.17-.49.33-.73.5.61-.15,1.26-.14,1.81.2-.29.04-.57.09-.85.13.77.12,1.54.4,2.07,1-1.45-.67-3.11-.44-4.59,0-1.05.3-2.02,1.08-2.28,2.17.31-.31.61-.61.92-.91-.23.5-.22,1.04-.29,1.58-.06.55-.43.98-.74,1.41.4-.14.76-.39,1.08-.67.03.88-.52,1.58-1.14,2.13.56-.15.99-.53,1.36-.96,0,1.15-.35,2.31-1.12,3.18.46-.18.87-.45,1.2-.82-.1,2.75-1.18,5.49-3.14,7.44-1.46,1.46-3.44,2.3-5.47,2.53-.07.31-.23.7-.62.67-1.34.01-2.68.01-4.02,0,.42-.92,1.56-.99,2.44-1.1-.85-.56-1.54-1.4-1.78-2.41-.37-1.42.19-3.02,1.35-3.92.54-.46,1.22-.66,1.89-.83-1.57-.2-2.87.85-4.31,1.23-.96.25-1.96.54-2.95.38-.26-.06-.67-.17-.58-.52.7-.72,1.9-.52,2.58-1.25.14-.42.15-.89.4-1.27-.78.3-1.59.54-2.42.65-.37.03-.81.09-1.09-.2-.04-.47.14-.92.19-1.38.34.11.72.24,1.06.05.56-.24.77-.99.44-1.5Zm-1.36,1.24c-.52-.32-.46-1.18.09-1.43.54-.3,1.27.17,1.21.79,0,.63-.8,1.02-1.3.65Zm.61-.74c.25.08.38-.35.14-.43-.26-.09-.36.33-.14.43ZM1.93,24.83C.2,21.56-.38,17.71.25,14.07c.66-3.89,2.74-7.51,5.76-10.05C8.56,1.84,11.77.46,15.1.1c3.58-.39,7.28.36,10.39,2.19,3.61,2.09,6.41,5.55,7.66,9.54,1.27,3.97,1.01,8.42-.74,12.21-1.75,3.85-5,6.99-8.9,8.61-3.73,1.57-8.03,1.73-11.88.45-4.14-1.36-7.7-4.39-9.71-8.26Zm2.69.27c2.04,3.12,5.3,5.42,8.93,6.26,3.13.75,6.5.44,9.44-.88,3.37-1.49,6.14-4.29,7.58-7.68,1.4-3.24,1.57-6.99.48-10.36-1.07-3.36-3.39-6.29-6.4-8.11-2.91-1.78-6.45-2.49-9.82-1.99-2.98.43-5.8,1.8-7.99,3.87-2.48,2.32-4.12,5.52-4.53,8.9-.45,3.46.38,7.08,2.31,9.99Z"/>
  </g>
</svg>