<?xml version="1.0" encoding="UTF-8"?>
<svg id="Layer_2" data-name="Layer 2" xmlns="http://www.w3.org/2000/svg" viewBox="0 0 28.98 33.94">
  <defs>
    <style>
      .cls-1 {
        stroke-width: 0px;
      }
    </style>
  </defs>
  <g id="Layer_1-2" data-name="Layer 1">
    <path class="cls-1" d="m4.2,11.37c-1.26,1.67-2.03,3.73-1.94,5.84,1.11-2.86,3.5-5.18,6.42-6.13,3.39-1.11,7.34-.42,10.07,1.9,1.87,1.6,3.32,3.88,3.41,6.39.24,2.86-.54,5.75-2.08,8.17.28-3-1.77-6.05-4.71-6.79-2.02.05-3.45-1.61-4.5-3.12.97-.72,1.7-1.74,1.97-2.93-1.33-.01-2.69.59-3.41,1.74-1.3-.25-2.72.2-3.54,1.26-.68,1.04-1.53,2.17-1.23,3.5,0,.72.73,1,1.31,1.18.99.31,2.06.01,2.9-.56-.07.57-.21,1.19-.67,1.58-.87.77-2.1.97-3.22.88-1.3-.02-2.52.74-3.14,1.86,1.1-.45,2.35-.57,3.48-.16,1.09.33,1.92,1.13,2.61,2.01.73-1.8,2.48-3.19,4.44-3.3,1.47.12,2.82,1.02,3.58,2.27-1.19-1.21-3.07-1.7-4.67-1.09-1.92,1.06-3.07,3.34-2.76,5.51.05.35.29.63.5.91-1.16-.39-2.36.5-2.55,1.65,2.83,0,5.65,0,8.48,0,.29-.29.6-.63,1.03-.71.53-.05,1.07.04,1.58-.15,1.21-.36,2.14-1.48,2.27-2.73,2.61-1.26,5-3.07,6.64-5.49,1.67-2.42,2.48-5.37,2.52-8.29,0-3.47-.79-7-2.64-9.96-1.77-2.86-4.54-5.14-7.79-6.09-3-.9-6.3-.6-9.13.7-2.91,1.34-5.46,3.5-7.12,6.25C.49,10.42-.29,13.98.1,17.41c.62-2.41,2-4.67,4.1-6.05Z"/>
  </g>
</svg>