<?xml version="1.0" encoding="UTF-8"?>
<svg id="Layer_2" data-name="Layer 2" xmlns="http://www.w3.org/2000/svg" viewBox="0 0 33.94 33.94">
  <defs>
    <style>
      .cls-1 {
        stroke-width: 0px;
      }
    </style>
  </defs>
  <g id="Layer_1-2" data-name="Layer 1">
    <path class="cls-1" d="m15.13.11c-3.09.33-6.07,1.53-8.52,3.43C3.04,6.27.63,10.47.12,14.95c-.45,3.7.36,7.54,2.28,10.74,2.3,3.86,6.18,6.74,10.56,7.78,4.62,1.13,9.71.22,13.62-2.51,4.09-2.78,6.84-7.42,7.28-12.35.51-4.96-1.32-10.08-4.85-13.59C25.45,1.38,20.19-.48,15.13.11Zm12.7,26.89c-1.9,2.07-4.41,3.58-7.14,4.29-3.07.8-6.4.58-9.33-.62-4.19-1.69-7.49-5.41-8.66-9.77-.96-3.49-.59-7.33,1.05-10.55C5.89,6.04,10.22,2.93,14.98,2.32c3.17-.43,6.49.19,9.27,1.79,4,2.24,6.83,6.43,7.38,10.99.57,4.27-.86,8.75-3.8,11.9Zm-.7-16.25c1.5,1.12,2.57,2.72,3.45,4.35-1.27-1-2.72-2.09-4.42-2-1.09.06-1.88.93-2.37,1.82.37-.4.81-.76,1.36-.87.84-.21,1.68.08,2.45.42-.77-.09-1.62-.24-2.31.2-.56.34-.76,1.01-.84,1.62-.35,2.46-1.55,4.8-3.38,6.49-1.68,1.56-3.86,2.62-6.16,2.83-.4.06-.78.23-1.19.22-1.41,0-2.83.01-4.24-.01.45-.69,1.33-.74,2.07-.88-.7-.53-1.35-1.18-1.6-2.04-.56-1.58.17-3.48,1.65-4.27.86-.51,1.92-.56,2.88-.32-1.08-.73-2.38-.29-3.56-.18-.94.1-1.88-.23-2.57-.87-.44-.42-.97-.83-1.1-1.46.89.04,1.6.81,2.5.72.46-.31.53-.98,1.02-1.29-.8-.05-1.59-.15-2.36-.37-.32-.11-.7-.24-.82-.59.55-.91,1.09-1.94,2.06-2.46.48-.28,1.04-.3,1.58-.26.37-.67.94-1.24,1.71-1.41-.37,1.13-.5,2.36-.18,3.52.39,1.54,1.49,2.8,2.77,3.7,1.25.89,2.35,2.17,2.56,3.74.12.73-.09,1.45-.35,2.13,1.4-1.28,1.46-3.35,1.4-5.11-.19-2.03.04-4.18,1.1-5.96.71-1.2,1.87-2.21,3.28-2.42,1.3-.21,2.61.28,3.64,1.05Zm-19.06,7.23c.08-.11.24-.32.32-.42.99.83,2.34.88,3.55.62-.35.2-.68.44-1.05.62-1.02.26-2.02-.23-2.82-.82Zm.28-.54c-.32.55-.94.75-1.38,1.16-.26-.28-.61-.43-.95-.58.08-.03.23-.1.3-.13-.19-.02-.38-.05-.57-.07l.18-.25c-.2-.6-.23-1.24-.27-1.86-.08.42-.08.85-.04,1.28-.06-.03-.19-.09-.26-.12.02-.49.06-.98.24-1.43.04.17.13.52.17.69.01-.15.03-.44.04-.59.83,0,1.67-.04,2.51.02.05.12.16.35.21.47-.44-.19-.91-.32-1.39-.34,0,.78.75,1.22,1.21,1.75Zm-2.76-.39l.1.03c0,.05,0,.15,0,.2l-.14-.03-.04-.14.09-.06Zm7.21-5.61c.49-.11,1-.11,1.48.05-.57.47-1.05,1.03-1.46,1.64-.06-.56-.07-1.13-.02-1.69Zm-5.88,3.23c-.05-.46-.13-.98-.53-1.29-.44-.4-1.07-.35-1.61-.46-.21-.14-.13-.46.1-.53.57-.16,1.27-.1,1.69.36.47.51.54,1.24.59,1.91.55.04,1.14.1,1.59.46-.37.27-.83.2-1.25.2-.76-.03-1.53.06-2.29-.07.31-.63,1.13-.5,1.71-.6Z"/>
  </g>
</svg>