<?xml version="1.0" encoding="UTF-8"?>
<svg id="Layer_2" data-name="Layer 2" xmlns="http://www.w3.org/2000/svg" viewBox="0 0 33.94 22.2">
  <defs>
    <style>
      .cls-1 {
        stroke-width: 0px;
      }
    </style>
  </defs>
  <g id="Layer_1-2" data-name="Layer 1">
    <path class="cls-1" d="m26.99.49c.28.05.26.26.29.45.02.11,0,.3.18.26.13-.03.15-.2.12-.32-.03-.16-.09-.31-.14-.46-.04-.13-.15-.25-.06-.42.35.27.27.76.56,1.04.12-.03.11-.11.12-.17.04-.24-.12-.6.12-.69.32-.12.18.4.42.49.26-.15.01-.43.24-.64.33.71.83,1.35.93,2.1.12.95.69,1.5,1.4,1.95.74.47,1.36,1.04,1.87,1.75.11.16.23.34.39.44.77.53.55.89.08,1.47-.44.55-.89,1.1-1.62,1.34-.55.18-.95.64-1.38,1.01-.22.19-.16.34.13.39.72.12,1.14.69,1.64,1.13.16.15.39.39.25.6-.13.19-.48.18-.7.13-.41-.08-.85-.14-1.13-.55-.1-.15-.32-.34-.48-.12-.13.17.1.32.25.41.25.14.52.25.77.37.73.36,1.26,1.25,1.18,2q-.71-.08-.95-.44c-.12.14.12.3-.04.43-.31-.05-.5-.29-.72-.5-.27-.27-.57-.41-.97-.26-.79.29-1.6.47-2.47.37-.48-.06-.97-.04-1.45,0-.94.06-1.76.45-2.55.94-1.48.92-2.7,2.17-4.21,3.06-.67.4-1.28,1.04-1.97,1.52-.1.07-.2.18-.14.32.05.14.19.14.32.16.23.03.47.03.69.09.29.07.47.3.47.59,0,.33-.3.29-.53.31-.46.04-.92.02-1.39.11-.44.08-.84-.16-1.18-.43-.19-.15-.39-.24-.64-.22-.24.02-.51.03-.56.32-.06.31.24.3.43.37.21.08.38.2.48.41.15.31.17.54-.29.58-.61.05-1.21.08-1.81-.09-.4-.12-.61-.34-.61-.77,0-.4-.01-.79.11-1.17.29-.89.16-1.85.51-2.73.08-.21,0-.5-.05-.74-.04-.21-.19-.34-.44-.29-.49.12-1,.06-1.47.27-.14.06-.41.24-.38-.17,0-.11-.05-.12-.13-.08-.77.4-1.59-.1-2.37.16-.04.01-.16-.06-.16-.1-.01-.53-.35-.37-.64-.31-.29.06-.56.11-.59-.35-.01-.15-.09-.46-.4-.37-.51.14-.72-.21-.85-.58-.09-.26-.24-.35-.47-.44-.63-.23-1.28-.43-1.85-.8-.28-.18-.61-.19-.94-.09-.59.17-1.18.06-1.42-.5-.13-.3-.53.33-.37-.18-.43-.17-.07-.66-.38-.92-.11-.09-.04-.41.12-.58.41-.45.9-.8,1.39-1.16.15-.11.38-.12.37-.39,0-.15.19-.2.29-.16.35.13.6-.1.89-.19.05-.01.11-.03.13-.07.12-.19.08-.57.43-.52.64.09,1.35-.14,1.91.38.17.16.33.24.64.19.42-.07.89.19,1.18.53,1.14,1.31,2.53,2.18,4.19,2.68.75.22,1.49.46,2.28.53.46.04.8-.18,1.18-.37,2.1-1.03,4.21-2.05,6.31-3.07.36-.17.69-.38,1.02-.6.79-.51,1.55-1.06,2.51-1.26.38-.08.63-.44.88-.74.28-.34.51-.72.85-1.02.3-.27.22-.71.37-1.05.2-.45-.12-.66-.4-.88-.77-.58-.79-1.32-.48-2.13.04-.09.01-.17-.03-.25-.17-.28.08-.32.23-.34.73-.12.73-.11.66-.8,0-.05.01-.1.02-.16Z"/>
  </g>
</svg>