<?xml version="1.0" encoding="UTF-8"?>
<svg id="Layer_2" data-name="Layer 2" xmlns="http://www.w3.org/2000/svg" viewBox="0 0 33.94 31.69">
  <defs>
    <style>
      .cls-1 {
        stroke-width: 0px;
      }
    </style>
  </defs>
  <g id="Layer_1-2" data-name="Layer 1">
    <path class="cls-1" d="m8.82,21.31c.83-.64,1.84-.94,2.87-1.09-2.68-.14-4.45,2.63-7.16,2.4-.1-.16-.59-.46-.2-.61,2.75-.22,4.68-2.97,7.55-2.69.98.03,1.39,1.31.69,1.95-.9.79-2.12,1.14-2.96,2.01-1.48,1.35-1.2,4.01.39,5.17,3.02,2.26,7.83,1.46,9.89-1.73,2-3.12,1.99-7.04,1.59-10.6-.28-2.55-1.37-5.27-.17-7.74.91-1.96,3.2-2.59,5.16-2.84-.36.13-.69.42-1.1.3-1.25.4-2.47,1.12-3.14,2.29-.87,1.39-.86,3.14-.41,4.67,1.13,3.85,1.39,8.07.12,11.91-.79,2.35-2.38,4.52-4.66,5.58-2.32,1.04-5.2,1.03-7.38-.36-1.89-1.18-2.76-3.65-2.27-5.78.23-1.05.91-1.9,1.64-2.64-.46.32-.88.7-1.19,1.16-1.84,2.51-.78,6.45,1.88,7.94,1.84,1.12,4.12,1.26,6.19.86,2.8-.59,5.07-2.72,6.27-5.26,1.74-3.64,1.84-7.85,1.16-11.76-.26-1.61-1.06-3.26-.48-4.9.56-1.69,2.45-2.52,4.12-2.52,2.41-.11,4.59,1.02,6.71,1.98-.76-2.08-1.76-4.12-3.3-5.74-1.55-1.74-3.7-3.01-6.04-3.23-2.19-.22-4.6.23-6.23,1.82-2.1,2.02-2.78,5.08-2.77,7.91,0,3.19,1.05,6.22,1.96,9.23-1.26-1.17-2.78-2.09-4.49-2.41-2.24-.45-4.56-1.33-6.02-3.17-.94-1.13-1.31-2.61-1.26-4.06-.68.39-1.43.75-1.88,1.43-.43.58-.6,1.3-.74,2-1.76.66-2.76,2.46-2.94,4.26-.05.85-.71,2.14.37,2.6,1.32.35,2.69-.15,3.94-.56-.09.47.23,1.35-.44,1.48-1.12.39-2.69-.38-3.48.74.71,1.05,2.08,1.28,3.22,1.6,1.83.46,3.54-.59,4.96-1.61Zm-5.99-6.68c.42-.11.87-.07,1.31-.09-.17,1.03-1.09,1.72-2.13,1.54.03-.59.29-1.17.82-1.45Zm-1.36,6.74c1.1-.13,2.3.25,3.32-.28.73-.48.39-1.46.69-2.15.42-.57.99-1.01,1.45-1.55-1.92.67-3.85,1.46-5.92,1.49,1.07-.37,2.21-.51,3.25-.95.84-.28,1.62-.77,2.49-.95.34-.14.53.33.34.57-.24.54-.47,1.1-.5,1.69-.14,1.35-1.37,2.34-2.61,2.68.06.13.17.4.23.53-.99-.09-1.94-.51-2.76-1.07Zm2.5-6.72c-.18.87-.95,1.37-1.82,1.32,0-.98.93-1.48,1.82-1.32Z"/>
  </g>
</svg>