<?xml version="1.0" encoding="UTF-8"?>
<svg id="Layer_2" data-name="Layer 2" xmlns="http://www.w3.org/2000/svg" viewBox="0 0 33.94 26.52">
  <defs>
    <style>
      .cls-1 {
        stroke-width: 0px;
      }
    </style>
  </defs>
  <g id="Layer_1-2" data-name="Layer 1">
    <path class="cls-1" d="m33.03,7.33c-.09-.1-.09-.23-.11-.35.05-.01.14-.04.18-.05.11-.23.3-.41.37-.66.03-.18.02-.36.02-.54-.07,0-.21-.02-.28-.03,0-.04.03-.12.03-.16.02-.03.05-.1.07-.14.02-.57.15-1.2-.17-1.71-.09-.09-.18-.17-.28-.25-.09.07-.15.26-.29.21.04-.09.11-.27.15-.36-.45.19-.74.6-1.1.91l-.06.06s-.03.11-.04.14c-.18.2-.22.47-.28.72-.04.16-.05.33-.06.5-.43-.12-.89-.16-1.33-.12-.03-.12-.06-.24-.09-.36h-.07c-.03-.72-.21-1.43-.37-2.13-.32-.27-.75-.15-1.13-.16-.1.06-.2.13-.29.19-.08.09-.17.18-.25.27-.08.15-.17.31-.27.45-.12.35-.24.71-.22,1.08-.09.05-.17.1-.25.15.07.22.13.44.24.65.04.03.12.09.17.11,0,.05-.01.14-.02.19-.11.05-.21.1-.31.16-.12.09-.25.16-.38.24-.08.09-.17.18-.26.27-.11.1-.24.19-.36.29-.27.17-.54.34-.82.5-.2.1-.41.18-.62.26-.12.11-.28.09-.43.1-.72.05-1.44,0-2.15-.05-.2-.13-.45-.1-.67-.05.12.06.24.12.37.17,0,.05.02.14.02.18-.13,0-.25-.02-.38-.02v-.08c-.43.02-.89-.11-1.29.07h-.07s.04.14.05.19c-.12,0-.24,0-.35.02-.35.13-.74.04-1.1.14-.56.19-1.14.3-1.7.5.05-.29.09-.59.24-.85.04-.57.03-1.14.01-1.72-.06-.58-.25-1.15-.45-1.7-.14-.33-.31-.64-.49-.94-.23-.36-.49-.7-.78-1.01-.09-.12-.17-.24-.27-.35-.08-.09-.16-.19-.24-.28-.09-.14-.19-.29-.3-.42-.06-.09-.12-.18-.18-.27-.24-.31-.43-.65-.63-.98-.05.23-.01.45.02.68-.43-.33-.87-.65-1.36-.89-.14-.01-.27-.03-.41-.05-.08-.02-.24-.05-.32-.06.08.06.3.13.19.27-.14,0-.28-.02-.41-.03-.52-.16-1.07-.05-1.6-.08-.92-.06-1.85-.04-2.76.12-.34.12-.72.07-1.06.22-.05.01-.15.03-.19.04-.21.08-.44.08-.63.21-.48.14-.93.38-1.42.5-.52.21-1.09.16-1.63.27.13.08.29.14.35.29l-.09.08c-.46.39-.83.86-1.05,1.42.07,0,.21-.01.28-.01-.1.3-.19.6-.32.88-.02.03-.05.1-.07.13-.06.11-.11.23-.17.34,0,.04-.02.13-.03.18-.12.16-.14.36-.19.55-.04.11-.07.23-.09.35-.22.9-.15,1.85-.04,2.76.15.79.11,1.61.06,2.41-.12.33-.28.63-.44.94-.12.09-.24.18-.36.25.06.01.17.04.22.05.13-.02.25-.04.37-.06.09-.04.18-.07.27-.1.14-.07.29-.14.43-.21.15-.14.34-.25.42-.45.02-.05.07-.16.09-.21.08,0,.16-.01.24-.02,0,.18,0,.37,0,.55.43-.17.77-.5,1.12-.8.06-.05.11-.1.16-.15.08-.09.16-.19.24-.28.29-.31.57-.63.86-.94.12-.13.26-.23.4-.33.1,0,.19.01.29.02.04.03.11.1.15.13.17.13.32.31.32.53.03.47-.26.86-.46,1.26-.16.3-.11.65-.12.97-.12-.07-.24-.13-.36-.2-.02.4.01.8.12,1.19.01.05.04.15.05.21l-.11-.02c-.27.81-.36,1.72-.13,2.55.19.41.46.77.81,1.05.12.09.24.17.36.26.14.1.29.19.44.28.1.08.22.14.34.19.23.1.43.24.59.44-.29,0-.58-.06-.86-.14.09.15.19.3.27.45.09.16.23.27.35.41.3.29.65.5.98.74.47.24.94.49,1.42.7.2.1.42.17.62.26.18.09.37.17.55.26.12.08.24.16.36.24.09.17.19.34.36.43.05.02.14.08.19.1.02.04.06.13.07.17-.16.06-.31.12-.46.19.16.1.33.19.51.27.08.04.17.08.25.12.17.09.35.18.51.29.03,0,.1.01.13.02,0,.08-.02.15-.02.23-.15,0-.3.01-.45.02v.14c.4-.01.74.2,1.09.34.41.32.67.79.87,1.26.02.23,0,.5.18.68.15.19.37.28.59.38.5.2,1.04.28,1.58.23-.13.03-.26.05-.38.07.79.05,1.59.15,2.37,0,.2-.1.42-.07.63-.08.56-.02,1.13-.02,1.69.02.17.09.35.16.52.24.09.01.18.03.27.04.55.17,1.13.11,1.69.13.98.03,2-.21,2.94.15.18.06.37.09.55.13,0-.15,0-.31.01-.46.19.11.39.17.59.22.47.16.98,0,1.46.08,0-.32-.02-.64-.13-.94-.15-.15-.33-.28-.51-.39-.54-.15-1.06-.42-1.64-.38-.07-.06-.13-.12-.2-.19-.08-.51-.7-.29-1.04-.25.08-.22.17-.45.3-.65.09-.18.16-.36.23-.54.23-.38.33-.83.48-1.24.01-.13.02-.27.03-.4h.08c.05-.55.13-1.12-.05-1.65-.07-.2-.15-.39-.23-.59-.18-.24-.35-.5-.63-.64-.02-.04-.07-.11-.09-.15-.04-.02-.13-.06-.17-.08-.01-.12-.03-.24-.04-.37.13-.31.5-.43.81-.44.59-.02,1.2.02,1.75.25.36.1.76.09,1.11-.05.21-.14.4-.31.56-.51.23-.29.48-.57.76-.81.3.13.59.31.92.32,0-.17,0-.34,0-.51.09.02.18.04.26.06.04.19,0,.41.15.56.07.28-.31.31-.32.57.24.03.48-.04.71-.12-.04.15-.09.3-.13.45.12.19.34.09.5.02.15-.2.32-.37.43-.59.28-.16.57-.3.81-.52.11-.41.22-.85.02-1.25-.36-.19.16-.51,0-.79-.19-.07-.38-.14-.56-.22-.33-.04-.66,0-.99,0-.1-.08-.2-.15-.31-.21,0-.03.01-.1.02-.13.22-.04.48-.05.58-.29.13,0,.25.02.36.08.26.04.5-.06.73-.18.16-.54.06-1.11.09-1.66.04-.03.12-.1.16-.14.15-.36.36-.69.42-1.07.21-.44.15-.96.13-1.43-.14-.72-.58-1.32-.89-1.97Z"/>
  </g>
</svg>