<?xml version="1.0" encoding="UTF-8"?>
<svg id="Layer_2" data-name="Layer 2" xmlns="http://www.w3.org/2000/svg" viewBox="0 0 33.94 33.94">
  <defs>
    <style>
      .cls-1 {
        stroke-width: 0px;
      }
    </style>
  </defs>
  <g id="Layer_1-2" data-name="Layer 1">
    <path class="cls-1" d="m4.82,16.91c.39-.99.66-2.09,1.44-2.87.47-.52,1.14-.79,1.82-.9.2-1.13,1.15-1.98,2.27-2.14-.27,1.22-.24,2.53.23,3.71.49,1.27,1.45,2.32,2.6,3.03.77.5,1.67.78,2.44,1.28,1.3.81,2.37,2.05,2.77,3.54.44,1.53.12,3.28-.9,4.52-1.7,2.09-5.09,2.45-7.24.85-1.29-.95-2.1-2.6-1.86-4.21.16-1.07.73-2.05,1.5-2.8-1.09.33-2.3.28-3.29-.32-.65-.41-1.39-.79-1.78-1.48-.07-.49.58-.35.88-.29.7.21,1.42.36,2.16.4-.96.15-1.89-.24-2.84-.22.7.74,1.64,1.27,2.62,1.55,1.81.43,3.38-1.07,5.19-.86.26-.02.6.18.5.48-.03.33-.43.26-.66.32-2.28.14-4.05,2.79-3.19,4.93.34.88,1.02,1.61,1.85,2.03,1.21.64,2.71.61,3.96.07,1.26-.55,2.15-1.82,2.27-3.19.18-1.57-.64-3.11-1.85-4.07-.97-.84-2.24-1.18-3.26-1.94-1.39-.96-2.47-2.41-2.83-4.08-.17-.7-.18-1.42-.17-2.13-.45.44-.75,1.01-.91,1.62-.67-.06-1.36.13-1.86.59-.86.72-1.12,1.85-1.63,2.8.18.13.36.29.6.34.96.21,1.95.11,2.92.1-1.01.13-2.05.29-3.06.11-.35-.05-.83-.34-.67-.76ZM.09,18.69c-.39-3.78.53-7.69,2.6-10.88C5.37,3.59,10,.67,14.98.11c3.07-.35,6.24.12,9.05,1.41,4.46,2.02,7.95,6.06,9.27,10.77,1.43,4.93.47,10.49-2.57,14.63-3.06,4.27-8.18,6.96-13.44,7.01-4.96.13-9.89-2.08-13.12-5.84C1.88,25.48.43,22.15.09,18.69Zm4.19,5.86c2.34,3.96,6.61,6.7,11.2,7.13,2.99.31,6.07-.32,8.69-1.79,2.61-1.45,4.76-3.71,6.07-6.39,1.28-2.57,1.76-5.53,1.4-8.37-.53-4.49-3.28-8.63-7.19-10.9-2.87-1.7-6.33-2.37-9.63-1.88-2.83.41-5.53,1.67-7.66,3.57-2.48,2.19-4.19,5.23-4.76,8.49-.62,3.46.05,7.14,1.87,10.16Zm15.95-8.97c-.17-.85-.31-1.8.09-2.6.24-.51.87-.71,1.39-.54.81.2,1.36.87,1.88,1.47-.36-.98-1.07-1.96-2.15-2.18-.83-.21-1.7.31-2.05,1.06-.56,1.14-.42,2.47-.16,3.67.29,1.38.97,2.63,1.32,3.99.39,1.42.54,2.94.16,4.37-.34,1.33-1.21,2.45-2.27,3.29,1.41-.52,2.56-1.68,3.1-3.08.64-1.59.57-3.39.16-5.03-.37-1.52-1.16-2.9-1.47-4.44Zm-1.14,9.96c-.59,1.58-1.87,2.76-3.22,3.71,1.81-.75,3.42-2.16,4.11-4.03.59-1.58.4-3.35-.22-4.89-.68-1.65-1.35-3.31-1.71-5.06-.27-1.29-.4-2.65-.07-3.94.32-1.21,1.12-2.34,2.26-2.91,1.62-.84,3.66-.81,5.25.09,1.34.73,2.25,2.03,2.89,3.38-.48-2.09-1.97-4.02-4.05-4.69-1.77-.58-3.81-.35-5.37.69-1.47,1.02-2.32,2.77-2.4,4.54-.17,3,1.05,5.84,2.29,8.51.63,1.43.82,3.12.23,4.6Zm5.75-15.92c-.93-.49-2-.65-3.04-.55.96.31,1.94.66,2.72,1.31,1.18.96,1.95,2.46,1.99,3.98.02,1.47-1.42,2.75-2.87,2.51-.96-.11-1.63-.87-2.15-1.62.17.95.74,1.85,1.63,2.27,1.22.59,2.75.21,3.66-.76.79-.81,1.11-2.01.92-3.11-.29-1.68-1.33-3.27-2.87-4.04ZM6.32,15.34c.6.16,1.23-.14,1.36-.77-.6-.13-1.17.18-1.36.77Z"/>
  </g>
</svg>