<?xml version="1.0" encoding="UTF-8"?>
<svg id="Layer_2" data-name="Layer 2" xmlns="http://www.w3.org/2000/svg" viewBox="0 0 31.22 33.94">
  <defs>
    <style>
      .cls-1 {
        stroke-width: 0px;
      }
    </style>
  </defs>
  <g id="Layer_1-2" data-name="Layer 1">
    <path class="cls-1" d="m17.83,21.05c-5.38.87-8.95,7.82-5.32,11.46,1.66,1.67,4,1.62,5.95,1.15,3.12-.76,6.32-1.17,9.54-1.17h.09s-.8-2.68-5.37-.4c0,0,.82-1.58,1.06-3.23.27-.34,1.08-1.64.98-4.13-.02-.44.33-.88.77-.84,3.02.26,4.41-1.33,4.41-1.33-1.27.41-2.9.47-4.04.45-.44,0-.6-.58-.23-.81l2.48-1.61c.21-.12.43-.17.65-.16,1.46.05,2.07-.64,2.33-1.14.14-.26.15-.57.04-.85-.37-.98-1.67-3.49-5.06-2.78-.28.06-.55-.15-.56-.44l-.03-.88c0-.23-.1-.45-.27-.61,0,0-.84-.85-.85-.85,0,0,0,0,0,0-1.56,1.07-2.13,7.45-6.56,8.16Zm2.6,4.09c-.34.07-.72.14-1.14.21,0,0,3.86.82,3.52,4.05-.19,1.79-1.56,3.22-3.33,3.53-2.53.45-6.14.39-6.79-3.38-.75-4.3,3.99-6.43,6.66-7.28.18-.06.36-.1.53-.13,1.95-.33,2.49,2.59.55,3Zm-1.89-21.86c2.65,2.64,3.87,6.82,2.39,10.35-1.81,4.3-6.79,5.66-9.44,9.22-2.71,3.63-1.71,8.77,2.31,11.02-.7-.29-13.12-2.64-6.65-19.61-2.21-.28-4.25-1.29-5.7-3.31C-2.67,5.22,2.79.52,8.21,0c.03,0,.05,0,.08,0-.34.05-.68.12-1.02.2-10.12,2.4-2.4,12.42-2.4,12.42C1.6,7.88,7.21,4.03,7.21,4.03c-2.32,3.88,3.68,7.13,3.68,7.13-1.08-1.56-1.06-2.78-.53-3.72,1.5-2.68,7.17-.82,6.76,2.22,0,.04-.01.09-.02.13-.38,2.5-2.12,4.57-4.64,5.92-8.6,4.59-2.07,15.38-2.07,15.38,0,0-5.25-9.22,1.46-12.41,2.02-.96,3.6-1.91,4.83-2.77,3.23-2.25,4.63-5.81,3.52-9.51-.38-1.26-.97-2.28-1.68-3.11Z"/>
  </g>
</svg>