<?xml version="1.0" encoding="UTF-8"?>
<svg id="Layer_2" data-name="Layer 2" xmlns="http://www.w3.org/2000/svg" viewBox="0 0 33.94 33.94">
  <defs>
    <style>
      .cls-1 {
        stroke-width: 0px;
      }
    </style>
  </defs>
  <g id="Layer_1-2" data-name="Layer 1">
    <path class="cls-1" d="m30.01,13.44c-1.37-.56-2.8-1.05-4.29-1.11-.75-.03-1.59.09-2.11.68-.41.44-.48,1.08-.49,1.66-.07,2.17-.75,4.33-1.95,6.14-1.57,2.38-4.06,4.17-6.84,4.83-.31.36-.71.71-1.22.71-1.62.01-3.23.02-4.85,0,.63-.77,1.68-.89,2.6-.87-1.14-.41-2.1-1.33-2.47-2.5-.45-1.31-.09-2.84.87-3.84.84-.92,2.12-1.28,3.34-1.2l.08.23s.06-.14.07-.18c-1.02-.56-2.18-.17-3.21.12-1.02.3-2.19.29-3.1-.32-.61-.43-1.33-.84-1.62-1.57.97-.15,1.83.71,2.78.41.42-.4.41-1.1.89-1.47-.94.05-1.91.06-2.83-.17-.28-.09-.7-.22-.64-.59.5-.96.89-2.06,1.81-2.71.48-.37,1.09-.48,1.68-.48.3-.76.84-1.45,1.65-1.7-.3,1.34-.24,2.79.35,4.05.66,1.48,1.94,2.58,3.34,3.33,1.46.8,2.73,2.1,3.13,3.76-.58,1.06-1.47,1.97-2.57,2.49-1.14.55-2.54.69-3.7.14-.52-.24-.98-.72-1.01-1.32-.05-.71.49-1.39,1.17-1.56.56-.15,1.13.06,1.68.17-.55-.35-1.2-.64-1.87-.51-1.16.17-2,1.49-1.57,2.61.39,1,1.42,1.59,2.42,1.82,1.17.24,2.45.14,3.51-.44,1.72-.89,3.05-2.65,3.11-4.62.04-2.14-.69-4.22-.54-6.37.08-1.59.73-3.17,1.9-4.26.82-.78,1.94-1.22,3.07-1.18,1.34.04,2.6.66,3.65,1.47,1.53,1.18,2.73,2.74,3.76,4.36Zm-18.22-2.65c-.53-.11-1.07-.05-1.58.13.02.58.08,1.17.23,1.74.38-.67.81-1.32,1.35-1.87Zm21.29.78c1.26,3.75,1.16,7.95-.3,11.63-1.69,4.33-5.25,7.89-9.59,9.57-4.94,1.97-10.81,1.42-15.29-1.46C3.71,28.69.78,24.16.15,19.26c-.49-3.6.2-7.35,1.98-10.52C4.74,3.99,9.73.65,15.12.1c3.5-.39,7.11.34,10.17,2.07,3.63,2.03,6.46,5.45,7.77,9.4Zm-1.49,3.07c-.66-4.35-3.4-8.3-7.22-10.49-2.81-1.63-6.17-2.28-9.39-1.84-3.79.5-7.33,2.56-9.67,5.58-1.81,2.32-2.9,5.18-3.08,8.11-.21,3.14.61,6.34,2.33,8.98,1.35,2.08,3.22,3.82,5.4,5,2.58,1.4,5.58,1.99,8.49,1.69,4.45-.41,8.62-3,11-6.77,1.93-3.01,2.7-6.74,2.13-10.26Zm-22.49,4.28c.36-.23.67-.52,1.02-.77-.94.26-1.95.5-2.91.18-.57-.16-1.04-.54-1.53-.84-.22-.14-.48.04-.7.09.37.45.88.75,1.4,1.01.82.45,1.83.67,2.73.33Z"/>
  </g>
</svg>