<?xml version="1.0" encoding="UTF-8"?>
<svg id="Layer_2" data-name="Layer 2" xmlns="http://www.w3.org/2000/svg" viewBox="0 0 33.94 32.97">
  <defs>
    <style>
      .cls-1 {
        stroke-width: 0px;
      }
    </style>
  </defs>
  <g id="Layer_1-2" data-name="Layer 1">
    <path class="cls-1" d="m6.47,6.05c-.1-.38-.12-.81-.13-1.18-.02-.53.05-1.04.25-1.53.16-.39.37-.78.62-1.15.28-.42.61-.82.97-1.16.05.17.06.34.02.53-.04.17-.08.33-.13.49-.02.07-.04.13-.05.2-.04.24-.04.49-.04.73,0,.47,0,.93-.13,1.39-.1.37-.26.73-.49,1.04-.13.18-.29.34-.48.46-.11.07-.22.11-.34.16-.02,0-.05.02-.07.03Zm5.63,24.97c.15,0,.31.01.46.05.25.06.54.15.68.38.05-.14-.04-.31-.12-.43,0,0,0,0,0,0-.33-.52-.74-1-1.11-1.5-.17-.23-.35-.47-.48-.72-.2-.37-.28-.82-.33-1.23-.14-1.08.08-2.14.46-3.15.18-.48.39-.95.66-1.39.14-.22.29-.45.48-.65-.05,0-.1-.02-.15-.05-.02.04-.05.07-.07.1-.07.08-.17.16-.28.19-.1.03-.19,0-.28-.03-.04.06-.07.12-.13.16-.08.07-.18.14-.29.12-.08,0-.14-.05-.2-.08-.05.08-.11.15-.19.2-.03.02-.07.01-.1,0-.1-.01-.18-.08-.25-.15-.04.09-.09.18-.17.23-.04.03-.1,0-.13-.03,0-.01-.01-.03-.01-.04,0,0-.01,0-.02-.01-.07-.05-.13-.11-.19-.18-.03-.03-.05-.06-.07-.1,0,.01,0,.02-.01.04-.05.11-.12.22-.22.28-.04.03-.1,0-.13-.03,0,0,0-.02,0-.03-.08-.06-.12-.16-.15-.25,0-.01,0-.02,0-.03-.08.11-.16.21-.27.29-.03.02-.07.01-.1,0-.03,0-.05,0-.07-.02-.14-.11-.28-.23-.4-.38,0-.01-.02-.02-.03-.04-.02,0-.03,0-.05-.01-.15-.09-.29-.2-.39-.34-.01,0-.03,0-.05,0-.22-.06-.44-.13-.62-.25-.21-.14-.39-.32-.56-.5-.2-.21-.37-.43-.53-.66.01.46-.13.92-.31,1.33-.13.3-.3.58-.36.91-.05.27-.03.54.03.81.02-.05.05-.09.08-.14.07-.09.23,0,.16.09-.35.47-.13,1.06.15,1.52-.01-.14-.03-.27-.07-.4-.04-.11.14-.16.18-.05.11.34.09.68.1,1.02,0,.3.07.57.24.8,0-.1.02-.19.02-.29,0-.12.19-.12.19,0,0,.17-.02.35-.04.52-.01.15-.02.31.02.45.03.1.1.17.17.25.03.03.06.05.08.08,0-.11-.01-.21-.03-.32-.02-.12.16-.17.18-.05.05.23.03.46.05.69.02.21.09.4.21.58.11.17.24.33.38.48-.08-.19-.13-.4-.12-.61,0-.12.19-.12.19,0-.01.45.25.87.5,1.23.02.03.04.05.06.08-.02-.06-.04-.12-.06-.19-.04-.11.14-.16.18-.05.07.21.13.44.22.65.03.05.06.1.08.16.03.05.06.1.09.15,0,0,0,.01.01.02.2.27.55.32.87.35.4.04.79.1,1.19.12.26.02.53.02.79.03Zm-3.13-.63c-.04-.06-.09-.12-.13-.17-.13-.17-.26-.33-.38-.51-.02-.03-.04-.06-.06-.1,0,0,0,0-.01,0-.3-.28-.6-.58-.82-.93-.12-.18-.2-.37-.22-.58,0-.05,0-.09-.01-.14-.15-.17-.36-.31-.44-.53-.05-.15-.05-.33-.04-.49-.26-.26-.38-.59-.4-.95,0-.11,0-.22,0-.32-.3-.42-.61-1-.51-1.53,0,0,0,0,0-.01-.11-.32-.16-.66-.12-1,.04-.33.17-.61.31-.9.1-.22.2-.45.27-.7.18-.47.16-.91.16-.91-.1-.38-.33-.86-.46-1.2-.02-.06-.08-.35-.11-.4-.01.13-.03.26-.05.39,0,.01,0,.02,0,.04-.02.21-.03.41-.04.62,0,.16,0,.32.02.48.02.15.05.3.06.45,0,.04-.02.07-.04.08-.01.01-.03.02-.05.02-.24.09-.36.26-.53.45-.1.11-.48.67-.55.87-.11.33-.25.73-.37,1.15-.25.82-.07,2.67-.06,2.66,0,0,0,0,.01-.01,0,.29.02.59.05.88.04.39.1.78.24,1.14.14.36.34.69.6.98.09.1.18.19.27.28.21.21.42.42.65.61.27.22.56.39.88.49-.26-.03-1.29-.13-2.08-.02-.06,0-.12,0-.18,0-.11,0-.23.01-.34.03-.13.02-.26,0-.36.1-.02.02-.04.06-.05.1-.06,0-.13.02-.18.05-.08.04-.13.13-.11.22,0,.01.01.02.02.04-.12.05-.2.14-.19.29.27.6,3.03.46,3.79.44.2,0,.4,0,.6-.01.15,0,.29-.01.41-.12.09-.08.14-.2.18-.3.01-.03.02-.06.03-.08,0-.04.01-.07.02-.1,0-.04.02-.08.04-.12,0,0,0-.01,0-.01.04-.16.14-.29.28-.36,0,0,0,0,0,0,.03-.03.07-.05.09-.09.02-.05.02-.1,0-.15,0,0,0,0,0-.01,0-.02-.02-.03-.02-.05Zm-6.36-14.22c.19-.15.39-.3.59-.43.09-.06.2-.11.3-.16-.24,0-.49,0-.72.06-.15.04-.33.13-.4.29-.03.07-.04.18,0,.24.02.03.07.05.11.07.03-.03.07-.05.11-.07Zm8.14,6.39s0,0,0,0c0,0,0,0,0,0,0,0,0,0,0,0Zm8.04,7.58c-.28.23-.81.43-1.35.66-.05.02-.09.04-.14.06-.43.19-.86.39-1.19.65-.24.18-.68.71-.87.93-.19.22-.44.47-.74.5-.1.01-.25,0-.28-.11-.01-.04,0-.07,0-.11-.11.07-.23.13-.36.15-.08.01-.17.02-.25-.02-.05-.02-.07-.06-.07-.1-.03.01-.05.02-.08.03-.15.05-.33.07-.48.03-.07-.02-.12-.07-.12-.13-.12.04-.26.08-.36-.02-.17-.16.05-.39.21-.53.09-.06.18-.12.26-.18.06-.04.12-.09.18-.13.03-.02.13-.11.16-.14.13-.15.17-.31.11-.5-.02-.06-.06-.12-.09-.18-.06-.12-.14-.23-.22-.34-.19-.26-.39-.52-.59-.78-.2-.27-.41-.54-.6-.82-.07-.11-.15-.22-.21-.34-.08-.14-.13-.3-.18-.46-.31-1.04-.23-2.16.09-3.19.18-.59.41-1.17.71-1.71.12-.22.25-.43.4-.63.13-.18.29-.35.47-.48.19-.11.37-.28.5-.4.21-.19.41-.38.59-.6.19-.25.35-.52.49-.8.16-.32.28-.66.39-1.01.04-.11-.14-.16-.18-.05-.22.69-.51,1.38-1,1.92-.19.21-.4.4-.62.58-.04.03-.1.08-.16.13,0,0-.01,0-.02,0-.04.03-.09.06-.13.09-.11.06-.23.08-.32.03.04-.09.09-.17.14-.25.03-.04,0-.1-.03-.13-.05-.03-.1,0-.13.03-.1.14-.16.31-.26.45-.05.07-.12.13-.19.16-.06.02-.11.02-.16,0,.03-.05.06-.1.1-.15.03-.04.04-.09,0-.13-.03-.03-.1-.04-.13,0-.06.07-.11.15-.15.24-.04.07-.08.15-.13.21-.03.03-.06.06-.09.08-.02.01-.03.02-.05.02,0,0,0,0,0,0,0,0,0,0,0,0,0,0-.02,0-.02,0,0,0-.01,0-.02,0,0,0,0,0,0,0,0,0,0,0,0,0-.02,0-.03-.02-.05-.02-.02,0-.03-.02-.05-.02,0-.01.01-.02.02-.03,0-.02,0-.05,0-.07-.01-.02-.03-.04-.06-.04-.02,0-.05,0-.07,0-.02.01-.03.03-.04.05,0,0,0-.01,0,0,0,0,0,0,0,.01,0,0,0,.01-.01.02,0,.02-.01.03-.02.05-.02.03-.04.06-.06.1,0,.01-.02.03-.03.04,0,0,0,0,0,0,0,0-.01.01-.02.02,0,0-.02.02-.03.03,0,0,0,0-.01,0,0,0-.02,0-.03,0-.02,0-.04-.02-.06-.03-.05-.04-.09-.08-.13-.12,0,0,0,0,0,0,0-.03.01-.06.02-.09,0-.05-.05-.1-.09-.09-.06,0-.09.04-.09.09,0,0,0,0,0,0,0,0,0,0,0,0,0,0,0,.02,0,.03,0,.02,0,.04-.01.06-.01.04-.02.08-.04.12,0,0,0,0,0,.01,0,0,0,.02-.01.03,0,.01-.01.03-.02.04-.06-.05-.12-.1-.17-.16,0,0-.01-.02-.02-.02,0,0,0,0,0-.01,0,0,0,0,0,0-.01-.02-.02-.03-.03-.05,0,0-.01-.02-.02-.03,0,0,0,0,0,0,0-.02-.01-.04-.02-.06,0-.01-.01-.03-.03-.04,0-.01,0-.03.01-.04,0-.05-.01-.1-.06-.11-.05-.01-.1.01-.11.07,0,.05-.02.09-.04.13,0,.03-.02.05-.03.08,0,0,0,.01,0,.02,0,0,0,0,0,.01,0,.01,0,.02-.01.03-.02.05-.05.1-.08.14,0,0,0,0-.01.01,0,0,0,0,0,0,0,0,0,0,0,0,0,0,0,0,0,0,0,0,0,0,0,0,0,0-.01-.02-.02-.03,0-.01-.01-.02-.02-.03,0,0,0,0,0-.01,0,0,0,0,0,0,0-.02-.02-.05-.02-.07,0-.02-.01-.05-.02-.08,0-.01,0-.02,0-.04,0,0,0,0,0-.01,0,0,0,0,0,0,0-.03,0-.06,0-.09.03-.06.07-.11.1-.17.03-.04,0-.1-.03-.13-.04-.03-.1,0-.13.03-.03.05-.06.1-.09.15-.02.01-.03.03-.04.06-.03.05-.06.1-.09.15-.02.04-.05.07-.07.1,0-.02,0-.04,0-.06,0-.12-.02-.24-.05-.35-.01-.05-.07-.08-.11-.06-.05.01-.08.07-.06.11.01.04.02.09.02.13,0,0,0,0,0,0t0,0s0,.01,0,.02c0,.01,0,.03,0,.04,0,.03,0,.06,0,.09,0,.06,0,.12,0,.17,0,0,0,0,0,0-.11-.09-.22-.18-.31-.29-.11-.13-.18-.28-.22-.44-.03-.12-.21-.07-.18.05.01.05.03.09.04.14-.15-.14-.27-.32-.28-.52,0-.05-.04-.09-.09-.09-.05,0-.1.04-.09.09,0,.1.03.2.07.29-.15-.05-.3-.1-.43-.18-.2-.13-.37-.31-.53-.48-.31-.32-.57-.68-.76-1.08-.33-.67-.48-1.42-.87-2.07-.27-.45-.77-.53-.92-.44,0,0,0,0,0,0-.13.08-.26.17-.39.24-.15.09-.34.05-.51,0-.12-.03-.22-.09-.32-.17,0,0,0,0,.01,0,.13-.05.24-.13.37-.19.11-.05.01-.21-.09-.16-.17.09-.34.22-.54.21-.09,0-.2-.04-.28-.1-.03-.02-.04-.05-.06-.07,0-.01-.02-.03-.02-.04,0,0,0,0,0,0,.22-.05.4-.21.56-.36.09-.08-.04-.21-.13-.13-.14.13-.29.27-.48.31-.07.02-.17,0-.24-.03-.07-.04-.05-.1-.02-.17.07-.02.13-.06.19-.09.09-.06.17-.12.26-.18.04-.03.06-.08.03-.13-.02-.04-.09-.06-.13-.03-.06.05-.13.1-.19.14-.04.03-.08.05-.13.08-.02.01-.04.02-.07.03,0,0,0,0,0,0,0,0,0,0,0,0-.01,0-.03,0-.04.01-.02,0-.04,0-.06.01h0s0,0-.01,0c0,0-.02,0-.03,0h0s0,0,0,0c-.01,0-.02-.01-.03-.02-.05-.06-.02-.17,0-.23.03-.07.08-.13.15-.17.02-.01.04-.02.06-.03-.03,0-.06.01-.09.02.01-.01.02-.02.03-.03.03-.03.07-.06.1-.08.02-.01.04-.03.07-.04.02,0,.03-.02.04-.04.13-.1.26-.19.39-.28.4-.28.92-.48,1.42-.39.11.02.23.05.34.1.1.05.18.12.27.18.09.06.2.1.3.15.12.06.22.13.33.2.43.29.86.59,1.26.91.47.37.86.8,1.27,1.23.08.08.2-.03.14-.12,0,0,0,0,0,0-.12-.73.11-1.47.48-2.1.15-.24.33-.45.52-.66.31-.33.65-.63,1.01-.9.2-.15.4-.29.61-.43.2-.13.42-.22.61-.35.1-.07,0-.23-.09-.16-.18.13-.39.21-.58.33-.19.12-.37.25-.56.38-.37.28-.73.58-1.05.91-.46.48-.82,1.01-1.02,1.65-.11.36-.16.73-.14,1.1-.32-.34-.64-.67-1.01-.97-.24-.19-.49-.38-.74-.56,0,0,0,0,0-.02.02-.12.11-.21.16-.32.05-.13.11-.27.14-.4.05-.2.06-.41.04-.61-.02-.3-.08-.66-.32-.86.11-.04.21-.06.32-.09.34-.07.68-.1,1.03-.15.32-.05.64-.06.96-.13.3-.06.58-.19.84-.35.29-.18.56-.39.77-.66.2-.25.42-.54.5-.86.03-.12-.15-.17-.18-.05-.07.27-.25.51-.42.73-.18.24-.41.44-.66.61-.25.16-.53.31-.82.38-.3.07-.6.08-.9.13-.31.04-.63.08-.94.13-.3.05-.59.12-.86.27-.27.15-.52.29-.82.37-.29.08-.58.11-.88.07-.63-.08-1.79-1.06-1.87-1.21-.16-.33-.13-.7-.05-1.05-.17-.06-.34-.1-.51-.15-.23-.06-.46-.12-.69-.21-.05-.02-.07-.07-.05-.12.02-.05.07-.07.12-.05.22.09.45.15.67.21.15.04.31.08.46.13-.18-.21-.39-.4-.61-.59-.17-.15-.34-.3-.5-.47-.04-.04-.03-.1,0-.13.04-.04.1-.03.13,0,.16.16.33.31.49.46.2.17.4.35.58.55.16-.66.35-2.67.69-3.35.36-.71,1.23-1.69,2.09-2.08.24-.11.49-.21.74-.29.08-.01.14-.04.21-.07.03-.01.07-.02.1-.04,0,0,0,0,0,0,.1-.04.2-.07.29-.12.19-.09.36-.22.5-.37.29-.3.49-.68.63-1.06.16-.46.22-.92.22-1.41,0-.27,0-.53.02-.8.01-.15.05-.3.08-.44.03-.12.07-.24.1-.36.06-.25.07-.48,0-.73,0-.02-.01-.04-.02-.06,0,0,0,0,0,0-.02-.05-.02-.12-.02-.15,0-.08.01-.16.03-.24.03-.16.09-.31.16-.45.02-.03.08,0,.06.03-.06.15-.1.31-.11.47,0,.05,0,.1,0,.15.02-.08.06-.17.1-.24.08-.16.2-.34.36-.42.03-.01.05.01.04.04-.04.08-.09.15-.13.23-.04.07-.08.15-.11.23-.03.08-.05.16-.07.24.02-.05.04-.1.06-.15.08-.15.16-.3.25-.45.02-.03.06,0,.05.03-.07.15-.13.31-.19.46-.03.08-.06.15-.09.23-.02.05-.04.11-.07.16.07.25.17.5.24.75.02.05.03.11.04.16.07.24.14.48.18.72.07.35.1.7.1,1.05-.14.37-.28.74-.42,1.11-.15.41-.31.82-.4,1.24-.1.47-.08.94.11,1.38.05.11.21.01.16-.09-.36-.81.02-1.69.3-2.46.29-.79.56-1.6.98-2.33.1-.18.21-.36.31-.55.03-.04.07-.09.1-.13.29-.41.6-.83.97-1.16.01-.05.02-.1.03-.14.04-.17.1-.33.17-.48.02-.04.08,0,.06.03-.06.16-.1.32-.13.49,0,0,0,0,0,0,.01-.01.03-.02.04-.03,0,0,0,0,0,0,.03-.06.07-.12.11-.17.12-.16.26-.29.42-.41.03-.02.08.03.04.06-.14.12-.25.27-.34.43-.03.05-.05.1-.08.15,0-.01.02-.02.02-.03.12-.14.26-.26.4-.37.03-.03.08.03.04.06-.13.11-.25.24-.35.38.14-.08.29-.15.45-.18.04,0,.05.05.02.06-.18.05-.34.14-.47.26-.07.06-.13.13-.18.2,0,.01-.02.02-.02.03-.01,0-.02.01-.03.02-.2.15-.39.34-.54.55-.06.09-.11.18-.16.28-.19.33-.35.67-.45,1.04-.14.52-.21,1.06-.2,1.61.01.56.04,1.11,0,1.67-.04.56-.2,1.18-.64,1.57-.09.08.04.21.13.13.35-.31.55-.8.64-1.24.1-.52.1-1.07.08-1.6-.02-.58-.03-1.13.08-1.7.1-.49.25-.96.51-1.39.02-.03.05-.05.07-.08.14-.21.29-.41.48-.58.02.21.07.42.13.61.02.06.03.12.05.18.15.41.35.79.51,1.19.31.76.43,1.59.39,2.41-.05.95-.35,1.91-.84,2.74.22.5.36,1.05.42,1.59.02.04.04.09.06.13.13.26.27.53.42.78.24.42.49.81.85,1.13.18.16.38.3.59.42,0-.02,1.54.98,2.32,1.5.44.29.88.6,1.28.94.37.32.69.69.98,1.09.57.79,1.03,1.66,1.36,2.59.31.88.55,1.8.68,2.72.07.45.03.93-.01,1.38-.12,1.35-.38,2.69-.69,4.01-.15.65-.32,1.3-.51,1.94-.03.1-.06.2-.09.3-.08.2-.14.4-.24.6-.1.19-.23.38-.46.57ZM5.65,14.26c-.38-.5-.82-.94-1.21-1.42-.07-.08-.19.04-.12.12.39.47.82.9,1.19,1.39.06.09.21,0,.14-.08Zm.42-.85s-.02-.09-.06-.1c-.4-.16-.79-.32-1.18-.49-.1-.04-.18.1-.08.14.4.18.81.34,1.22.51.04.02.09-.02.1-.06Zm1.75-3.88c-.2-.16-.44-.24-.69-.2-.25.04-.48.17-.68.34-.22.19-.39.43-.51.69-.03.06-.05.12-.08.18-.04.07-.1.12-.14.19-.05.08-.06.16-.06.25,0,0,0,0,0,0,0,.07.02.14.04.2,0,0,0,0,0,0,0,0,0,0,0,0,.02.05.05.1.09.14.1.11.24.13.38.15.15.02.31.02.46.04.15.01.3.03.45.02.5-.02.93-.35,1.07-.83.12-.42.01-.9-.33-1.18Zm-.27.04c-.41-.2-.86.1-1.13.4-.15.16-.24.34-.33.54-.05.11-.12.19-.19.28-.05.08-.06.16-.05.24,0,0,0,0,0,.01,0,.02,0,.03.02.05.03.08.08.14.17.17.15.05.3.04.46.05.28.02.56.08.84,0,.37-.11.64-.45.68-.83.04-.37-.13-.74-.47-.91Zm-2.9,5.84c.57.07,1.61.88,1.61.88l.14.09c.26-.4.3-.72.3-.72-.17-.21-1.04-.68-1.29-.84-.26-.16-.95-.07-1.36-.03-.4.04-.48.69-.48.69.27-.13.51-.15,1.08-.08Zm29.13-6.62c.05.07.11.11.17.12.03-.25-.07-.53-.21-.77,0,0,0-.01,0-.02.06.06.12.11.19.11.02-.31-.09-.62-.26-.89.04.03.08.07.12.11.02-.2-.07-.43-.19-.63.01,0,.02.01.03.01.02-.17-.02-.25-.12-.39-.04-.06-.09-.11-.13-.17.06.04.12.07.18.1,0-.17-.12-.33-.23-.47-.06-.08-.13-.16-.19-.25-.11-.27-.22-.53-.35-.78-.75-1.74-1.97-2.91-3.42-3.61-.08-.18-.37-.35-.62-.27,0,0-.02,0-.03-.01.16-.19-.26-.19-.45-.16-.01,0-.02,0-.04-.01.17-.14-.27-.17-.45-.12,0,0-.01,0-.02,0,.25-.17-.25-.27-.42-.15.11-.19-.3-.14-.47-.07.07-.05-.01-.1-.09-.13-.12-.05-.35.01-.47.07.13-.07.05-.12-.03-.16-.15-.08-.46.05-.56.16.32-.27-.33-.11-.45-.05,0,0,0-.03,0-.04-.13.04-.26.05-.39.09-.13,0-.25,0-.38.02-.08-.11-.26,0-.44.02-.14.01-.26-.07-.38.05,0,0-.02,0-.02,0,.08-.21-.27-.03-.4.06-.01,0-.03,0-.04,0,0-.03,0-.06,0-.08-.15-.02-.33.06-.46.17-.03,0-.06.01-.09.02,0-.03,0-.07,0-.1-.15.01-.29.09-.4.19-.03,0-.06.02-.08.02,0-.02,0-.05,0-.08-.18-.03-.38.09-.52.23,0,0,0,0,0,0,.1-.16-.31-.13-.47.11.01-.04,0-.07.01-.1-.18.01-.32.17-.43.32-.01,0-.02,0-.03.01.02-.08.04-.16.03-.24-.15.04-.36.23-.53.46-.09.04-.17.08-.26.12-.2-.08-.46.1-.61.3,0-.05,0-.09,0-.14-.15.05-.31.19-.4.36,0-.05,0-.1,0-.15-.15-.02-.33.16-.44.34,0-.03,0-.07-.02-.1-.24.01-.42.26-.49.5,0-.09,0-.18,0-.27-.17.08-.3.37-.35.58,0,0,0,0,0,0,.01-.12.02-.23.01-.35-.11.06-.22.21-.3.37-.02.04-.05.08-.06.12,0-.05,0-.11-.01-.15-.23.14-.39.42-.48.67,0,0,0,0,0,0,.02-.08.03-.17.02-.25-.16.11-.36.39-.43.62,0,0-.02.02-.02.02,0-.08,0-.15,0-.23-.21.04-.36.43-.4.69,0,0,0,0,0,0,0-.1,0-.21,0-.31-.25.08-.47.67-.48.98,0,0,0,0,0,.01-.01-.1,0-.2-.04-.3-.21.08-.3.51-.37.71-.08.26-.21.55-.3.85-.35.72-.63,1.46-.79,2.11-.29,1.17-.14,2.36.11,3.53.26.21.53.4.8.58.86.58,1.75,1.11,2.58,1.74.39.3.75.62,1.07,1,.31.37.59.78.85,1.2.5.83.88,1.74,1.15,2.67.14.47.25.95.34,1.43.05.28.11.57.13.86.03.52-.02,1.05-.08,1.56-.16,1.39-.44,2.76-.77,4.12-.11.47-.24.93-.37,1.39.19-.02.37-.06.55-.1.91-.24,1.73-.77,2.36-1.47.3-.08.54-.2.49-.4-.06,0-.13.01-.19.03,0,0,0,0,0,0,.15-.09.47-.18.47-.39-.08-.02-.16.01-.23.04,0,0,0,0,0,0,.17-.08.45-.29.45-.47-.08.02-.16.07-.24.09,0,0,0,0,0,0,.14-.1.44-.34.42-.51-.05.02-.1.06-.15.1.13-.12.35-.38.32-.56-.09.03-.14.1-.21.16.1-.15.28-.33.24-.53-.03.03-.07.08-.1.12.15-.26.31-.73.11-.9-.03-.03-.06-.03-.09-.02.01-.56-.06-1.11-.2-1.66-.37-1.41-1.08-2.76-.89-4.26.09-.74.37-1.43.72-2.08.31-.56.72-1.23,1.36-1.45.44.19.89.35,1.36.47.5.13,1.01.2,1.52.22-.02.04-.04.08-.06.12.14.03.25-.03.34-.12.01,0,.03,0,.04,0-.02.05-.02.09-.02.14.18.03.29-.04.41-.17,0,0,0,0,0,0-.2.24.25.21.43.04-.02.04,0,.07.08.08.12.01.3-.19.4-.3,0,0,0,0,.01,0-.03.06-.05.14-.04.21.1-.04.19-.11.28-.2,0,.03,0,.06,0,.08.24.05.41-.22.56-.4.01,0,.03-.01.04-.02-.02.06-.04.13-.05.19.08-.02.16-.1.24-.19.05-.06.1-.13.15-.18,0,0,0,0,0,0-.05.1-.1.22-.1.33.17-.05.35-.36.45-.51-.02.08-.05.17-.04.26.2-.06.32-.38.45-.54-.05.09-.08.19-.08.29.17-.09.32-.39.41-.61-.02.08-.03.15,0,.22.19-.02.27-.33.32-.57,0,.05,0,.1.02.15.16-.03.21-.26.24-.48.01-.01.02-.03.03-.04,0,.06.02.12.07.17.14-.08.19-.32.21-.55.01-.02.02-.03.03-.05.02.04.04.08.07.11.13-.07.18-.23.2-.4.01.01.03.03.04.03.25.1.2-.37.16-.61,0,0,0-.02.01-.03.03.08.07.18.12.23.01-.16,0-.33,0-.5,0-.02.01-.04.02-.06.05.09.12.17.2.19.07-.16.03-.45,0-.67.03-.02.05-.06.08-.14.02-.06.03-.14.03-.22.07,0,.12-.11.13-.25.01-.13,0-.26-.04-.4,0-.02.01-.05.02-.08.1,0,.16-.1.14-.39,0-.13-.03-.31-.08-.48ZM3.65,30.95c0-.05-.04-.09-.09-.09h-.33s0,0,0,0c-.04-.06-.02-.21,0-.3,0-.03,0-.05,0-.07.03-.37.13-.74.3-1.1.02-.05,0-.1-.05-.12-.05-.02-.1,0-.12.05-.17.38-.28.77-.32,1.16,0,.02,0,.04,0,.07-.01.1-.03.23,0,.33h-.05c0-.19.03-.41.05-.63v-.11c.06-.51.09-.93.04-1.38-.09-.77-.33-1.55-.74-2.38-.02-.05-.08-.07-.12-.04-.05.02-.07.08-.04.12.4.81.63,1.57.72,2.32.05.46.01.93-.03,1.34v.11c-.03.22-.05.45-.06.65h-.35c-.03-.08-.02-.32-.02-.42,0-.05,0-.09,0-.12-.03-.73-.16-1.43-.41-2.08-.02-.05-.07-.07-.12-.05-.05.02-.07.07-.05.12.24.64.38,1.32.4,2.02,0,.02,0,.06,0,.11,0,.19,0,.33.01.42h-.63c-.03-.1-.04-.21-.05-.33,0-.13-.02-.26-.06-.39-.02-.05-.07-.08-.12-.06-.05.02-.08.07-.06.12.03.11.04.23.05.35,0,.11.01.22.04.32H.09c-.05,0-.09.04-.09.09s.04.09.09.09h3.46c.05,0,.09-.04.09-.09Zm21.11.12h-.72s0-.02,0-.03c0-.03,0-.06,0-.1,0-.16,0-.29.08-.41.03-.04.02-.1-.02-.13-.04-.03-.1-.02-.13.02-.12.17-.11.35-.11.52,0,.03,0,.06,0,.09,0,.01,0,.02,0,.03h-.32v-.07c0-.29,0-.62-.21-.86-.03-.04-.09-.04-.13,0-.04.03-.04.09,0,.13.17.19.17.46.16.73v.08h-1.71s0-.03,0-.04c-.09-.2,0-.6.17-.76,0,0,0-.01,0-.01.03-.04.03-.08,0-.12-.04-.04-.09-.04-.13,0-.05.05-.1.12-.14.2-.12.23-.15.53-.08.74h-.28s0,0,0,0c-.08-.18-.07-.4-.02-.63.02-.11.06-.22.1-.33.13-.33.33-.65.52-.88.06-.07.11-.13.16-.18.04-.04.04-.09,0-.13-.04-.04-.09-.04-.13,0-.09.09-.19.21-.3.35-.19.25-.37.57-.48.9-.04.11-.06.21-.08.32-.03.2-.03.4.03.58h-.85c-.05,0-.09.04-.09.09s.04.09.09.09h4.63c.05,0,.09-.04.09-.09s-.04-.09-.09-.09Zm-5.06,0h-1.77c-.05,0-.09.04-.09.09s.04.09.09.09h1.77c.05,0,.09-.04.09-.09s-.04-.09-.09-.09Zm-1.05.78c-.14,0-.28,0-.42-.02-.15,0-.31-.02-.47-.02-.06,0-.11.04-.11.09,0,.05.04.09.09.09h0c.16,0,.32,0,.47.02.14,0,.28.01.42.02h0c.05,0,.09-.04.09-.09,0-.05-.04-.09-.09-.09Zm-6.61.62h-.3c.02-.06.03-.12.05-.19.02-.07.03-.15.06-.22.02-.05-.01-.1-.06-.12-.05-.02-.1.01-.12.06-.02.07-.04.16-.06.23-.02.09-.04.17-.06.23,0,0,0,0,0,0h-.32c0-.31-.03-.54-.16-.82-.02-.05-.08-.07-.12-.04-.05.02-.07.08-.04.12.12.24.14.44.15.74h-.37c-.05,0-.09.04-.09.09s.04.09.09.09h1.37c.05,0,.09-.04.09-.09s-.04-.09-.09-.09Zm-2.53-.43c-.05,0-.09.06-.08.11.02.15.03.27.03.39,0,.05.04.09.09.1h0c.05,0,.09-.04.09-.09,0-.12,0-.25-.03-.42,0-.05-.06-.09-.11-.08Zm11.07-.04c-.11.16-.2.29-.13.5.01.04.05.06.09.06.01,0,.02,0,.03,0,.05-.02.07-.07.06-.12-.04-.12,0-.19.1-.34h0c.03-.06.01-.11-.03-.14-.04-.03-.11-.01-.13.03Zm-18.09-.07s-.01.1.03.13c.13.08.18.23.14.43,0,.05.03.1.08.11,0,0,.01,0,.02,0,.04,0,.08-.03.09-.08.05-.28-.03-.5-.23-.62-.04-.03-.1-.01-.13.03Zm.85.2c-.05,0-.09.04-.09.09v.31c0,.05.04.09.09.09s.09-.04.09-.09v-.31c0-.05-.04-.09-.09-.09Z"/>
  </g>
</svg>