<?xml version="1.0" encoding="UTF-8"?>
<svg id="Layer_2" data-name="Layer 2" xmlns="http://www.w3.org/2000/svg" viewBox="0 0 30.67 33.94">
  <defs>
    <style>
      .cls-1 {
        stroke-width: 0px;
      }
    </style>
  </defs>
  <g id="Layer_1-2" data-name="Layer 1">
    <path class="cls-1" d="m30.65,19.82c-.1-1.2-.75-2.16-1.58-2.98-.47-.47-.85-.93-.75-1.64.02-.11-.02-.22-.04-.33-.14-.78-.48-1.46-1.13-1.95-.17-.12-.37-.22-.56-.03-.18.18-.09.38.03.56.13.19.27.36.39.55.3.48.34,1.15.1,1.56-.02-.13-.04-.23-.04-.33.01-.76-.4-1.31-.92-1.8-.17-.16-.38-.23-.59-.08-.2.15-.2.36-.12.58.02.06.07.11.07.17,0,.09,0,.2-.05.28-.14.23-.33.44-.44.69-.19.42-.51.64-.95.59-.75-.07-1.42.1-2.06.47-.53.3-1.05.25-1.57-.05-.55-.32-1.1-.63-1.68-.89-1.66-.74-3.41-.99-5.16-.47-3.23.97-5.54,3.87-5.89,7.56-.18,1.84.09,3.61.59,5.37.26.91.41,1.84.61,2.76-.1,0-.12,0-.13-.02-.92-2.08-1.55-4.23-1.66-6.51-.07-1.48.16-2.93.69-4.31.57-1.5,1.61-2.66,2.84-3.65,1.1-.89,2.32-1.54,3.73-1.79.67-.12,1.34-.23,2.01-.34,0-.02,0-.05,0-.07h-1.05s0-.04,0-.06c.57-.23,1.14-.46,1.72-.7,0-.02-.01-.04-.02-.06-.81.16-1.61.32-2.48.49.8-.57,1.73-.91,2.41-1.67-.41.16-.77.3-1.13.43-.01-.02-.02-.04-.03-.06.17-.15.35-.31.52-.46-.01-.02-.03-.04-.05-.06-.23.16-.47.33-.73.51.17-.27.32-.5.47-.73-.02-.01-.04-.03-.06-.04-.18.13-.37.27-.55.4-.01-.01-.02-.03-.04-.04.41-.59.82-1.18,1.24-1.77-.03-.02-.05-.04-.08-.06-.22.2-.45.41-.67.61-.02-.01-.04-.02-.06-.04.22-.4.44-.8.65-1.2-.01,0-.03-.02-.04-.02-.44.51-.87,1.02-1.31,1.53-.03-.02-.06-.04-.09-.06.29-.52.58-1.05.86-1.56-.18.13-.37.25-.55.38-.01-.01-.02-.02-.04-.04.36-.64.72-1.28,1.08-1.93-.04-.03-.08-.07-.12-.1-.14.18-.28.36-.43.54-.02-.01-.03-.03-.05-.04.15-.41.31-.82.46-1.22-.02,0-.04-.01-.05-.02-.28.46-.55.91-.83,1.37-.04-.01-.07-.03-.11-.04.15-.63.3-1.26.46-1.91-.13.19-.24.35-.36.51-.02-.01-.03-.02-.05-.03.1-.38.2-.76.31-1.15-.02,0-.03,0-.05-.01-.29.61-.59,1.22-.88,1.83-.04-.01-.08-.02-.12-.03.13-.86.26-1.73.38-2.56-.09.18-.2.4-.3.61-.03-.01-.05-.02-.07-.03.04-.44.09-.88.13-1.32-.01,0-.03,0-.04,0-.02.04-.04.08-.07.13-.02-.08-.03-.14-.05-.22-.08.49-.15.95-.23,1.42-.03,0-.05,0-.08,0-.02-.25-.03-.5-.05-.75-.01,0-.03,0-.05,0-.09.28-.18.57-.28.88v-2.57c-.07.22-.13.41-.2.64-.06-.42-.11-.79-.16-1.17-.04.47-.08.93-.12,1.39-.03,0-.06,0-.09,0-.09-.22-.18-.44-.27-.66-.02,0-.04.01-.06.02v.97s-.03,0-.05,0c-.17-.81-.34-1.63-.5-2.44-.02,0-.04,0-.06,0-.03.4-.06.8-.1,1.21-.11-.21-.22-.41-.33-.62-.02,0-.03.01-.04.02.02.29.04.57.06.86-.01,0-.03,0-.04,0-.43-.88-.87-1.77-1.3-2.65-.03.01-.05.03-.08.04.14.4.28.8.41,1.17-.31-.46-.64-.95-.96-1.43-.02.01-.04.03-.07.04.19.34.37.68.56,1.02-.01,0-.03.01-.04.02-.08-.06-.16-.12-.24-.18-.02.02-.03.03-.05.05.11.22.23.44.34.66-.03.02-.06.05-.09.07-.46-.52-.91-1.04-1.41-1.62-.01.17-.02.28-.03.38-.17-.18-.36-.38-.54-.57-.03.03-.06.05-.09.08.2.25.4.51.6.76,0,0-.02.02-.03.02-.17-.13-.33-.26-.5-.38,0,0-.02.02-.03.03.06.07.11.14.17.21,0,0-.02.02-.03.03-.28-.22-.57-.44-.85-.67-.03.03-.05.05-.08.08.55.55,1.09,1.1,1.64,1.66-.01,0-.02.02-.03.03-.8-.52-1.59-1.04-2.39-1.56-.03.03-.06.06-.09.09.13.15.25.29.41.48-.47-.21-.9-.4-1.33-.59,0,.01-.01.03-.02.04.27.18.54.36.85.57-.58-.19-1.1-.36-1.62-.52,0,.02-.01.04-.02.07.76.36,1.52.72,2.29,1.08,0,.03-.02.06-.03.09-.95-.21-1.9-.41-2.85-.62,0,.03-.01.05-.02.08.31.13.62.26.93.38,0,.01-.01.02-.01.04-.43-.06-.87-.13-1.3-.19,0,.03-.01.06-.02.09.34.12.69.24,1.03.36,0,.03,0,.06-.01.09-.67.04-1.34.08-2.01.12,0,.03,0,.06,0,.08.61.08,1.22.16,1.75.22-.72.09-1.53.2-2.34.3,0,.02,0,.05,0,.07h1.01s0,.03,0,.04c-.58.19-1.15.38-1.73.56.99-.12,1.94-.5,2.96-.34-1.21.17-2.38.5-3.47,1.09.2-.04.4-.08.68-.13-.45.28-.83.51-1.28.8.94-.32,1.78-.62,2.63-.91.01.03.02.06.03.09-.8.47-1.7.77-2.39,1.45.12-.04.24-.08.37-.12.02.02.04.05.06.07-.16.13-.31.26-.46.38.01.01.02.02.03.03l.48-.3s.08.09.12.13c-.45.38-.9.75-1.35,1.13.02.03.05.05.07.08.6-.42,1.2-.83,1.8-1.25.02.02.04.05.06.07-.76.66-1.45,1.38-1.96,2.25l.1.09c.24-.31.49-.61.73-.92.04.03.08.06.11.09-.18.39-.35.78-.53,1.17.01,0,.03.01.04.02.14-.16.28-.32.43-.48.02.01.04.03.07.04-.2.38-.39.76-.59,1.14.02.01.05.03.07.04.22-.33.44-.66.65-.97-.07.57-.15,1.15-.23,1.73.01,0,.03,0,.04,0l.34-1.5c.05.33.02.64.02.96,0,.32,0,.64,0,.95.01,0,.03,0,.04,0,.08-.46.15-.92.23-1.41.07.36.15.7.22,1.05.05-.31.04-.6.05-.9.03-.98.84-1.78,1.82-1.82.97-.04,1.88.51,2.23,1.48.23.62.36,1.31.4,1.97.05.85-.05,1.7-.09,2.55-.03,0-.06,0-.09,0-.08-.71-.17-1.43-.25-2.14,0,0-.02,0-.03,0-.06,1.18-.13,2.35-.19,3.53-.03,0-.05,0-.08,0-.05-.22-.1-.43-.15-.65-.02,0-.04,0-.06.01v1.22s-.04,0-.05,0c-.11-.64-.22-1.28-.33-1.92,0,0-.01,0-.02,0v1.99s-.04,0-.06,0c-.08-.26-.16-.53-.26-.84v2.83s-.07,0-.1.01c-.15-.59-.29-1.18-.44-1.76-.02,0-.04,0-.06,0,.07.73.13,1.47.2,2.2-.01,0-.03,0-.04,0-.17-.49-.34-.97-.51-1.46-.02,0-.04,0-.06.01.17.98.34,1.95.52,2.93-.03,0-.05.02-.08.03-.32-.64-.63-1.29-.95-1.93l-.06.02c.21.83.42,1.66.62,2.48,0,0-.02,0-.03.01-.28-.53-.56-1.05-.84-1.58-.01,0-.02,0-.04.01.36.95.73,1.9,1.09,2.85-.03.01-.06.03-.09.04-.38-.57-.76-1.13-1.14-1.7-.01,0-.03.02-.04.02l1.08,2.62-.09.05c-.4-.49-.8-.98-1.2-1.46l-.04.02c.24.51.49,1.01.75,1.55-.12-.07-.2-.13-.29-.18-.01.02-.02.03-.03.05.34.39.68.79,1.01,1.18-.01.01-.03.03-.04.04-.29-.22-.58-.43-.86-.65-.02.02-.04.04-.06.06.51.63,1.03,1.27,1.54,1.9-.02.02-.04.05-.06.07-.51-.32-1.01-.64-1.58-1,.53.64,1.01,1.21,1.49,1.79-.02.02-.04.04-.06.07l-1.02-.7s-.04.05-.06.08c.24.27.48.55.76.87-.29-.15-.52-.27-.76-.38-.02.03-.03.05-.05.08.63.52,1.27,1.05,1.9,1.57-.01.02-.02.04-.03.06-.57-.21-1.14-.42-1.72-.64-.01.02-.02.04-.03.06.61.48,1.23.96,1.84,1.44,0,.02-.02.03-.02.05-.53-.23-1.05-.45-1.58-.68l-.02.04c.29.19.59.38.88.58,0,.01-.02.03-.03.04-.16-.02-.32-.04-.48-.06,0,.02,0,.04-.01.06.43.2.86.41,1.29.61,0,.02-.02.04-.02.05-.1,0-.19-.02-.35-.03.5.21.95.4,1.4.59-.01.03-.02.05-.03.08-.58-.11-1.16-.22-1.73-.32,0,.03-.01.05-.02.08.43.18.86.36,1.28.54-.01.03-.02.05-.03.08-.16-.01-.32-.03-.54-.05.32.15.59.27.86.4,0,.01,0,.02,0,.03-.37-.04-.75-.08-1.17-.12.97.35,1.89.69,2.82,1.03,0,.02-.01.04-.02.07-.52-.08-1.04-.15-1.62-.24.09.08.13.11.2.17-.29-.02-.55-.03-.8-.05,0,.01,0,.02,0,.03.21.04.42.07.72.13-.19.01-.29.02-.48.04.14.09.21.16.28.17.33.05.67.06,1.01.12.48.09.96.2,1.44.3,0,.05-.01.1-.01.15h-2.16s0,.05,0,.07c1.06.16,2.13.31,3.19.47,0,.01,0,.03,0,.04-.39.05-.78.11-1.17.16,0,.02,0,.05,0,.07h1.7s0,.04.01.06c-.17.08-.34.16-.52.24.24,0,.48-.02.7-.1.36-.12.61,0,.82.29.38.51.92.74,1.54.79.9.06,1.8.17,2.7.16,1.67-.03,3.34-.12,5.02-.2.36-.02.71-.14,1.06-.14.38,0,.76.08,1.21.13-.01-.09,0-.23-.05-.28-.16-.14-.34-.27-.54-.36-.18-.08-.38-.1-.58-.15,0-.03.02-.07.03-.1.66-.05,1.16.5,1.82.47-.02-.06-.05-.14-.1-.25.25.07.49.14.73.21.02-.04.04-.08.06-.13-.19-.14-.36-.36-.57-.39-.42-.07-.81-.18-1.21-.36-.27-.12-.65-.04-.97-.01-1.04.1-2.08.18-3.1-.17-.29-.1-.64-.06-.96,0-.45.07-.9.21-1.35.3-.15.03-.32,0-.48,0,0-.03-.01-.06-.01-.08.94-.29,1.63-.91,2.2-1.66,1.19-1.55,1.57-3.34,1.41-5.24-.1-1.19-.61-2.21-1.63-2.9-.29-.19-.61-.33-.91-.5.89.1,1.5.69,2.12,1.24-.76-1.16-1.93-1.72-3.19-2.07-1.33-.36-2.59-.09-3.68.82.36-.44.78-.78,1.29-.99,1.31-.52,2.58-.31,3.8.3,1.19.59,2.13,1.42,2.5,2.76.22.8.27,1.61.16,2.44-.26,2.05-1.04,3.84-2.59,5.26-.06.06-.12.12-.23.24,1.1-.2,1.86-.8,2.47-1.6,1.2-1.58,1.35-3.39,1.09-5.27-.09-.62-.33-1.21-.49-1.77.38.46.55,1.07.71,1.68.09.32.16.66.3.96.23.49.75.58,1.2.73,1.42.47,2.87.51,4.35.31.27-.04.58.07.85.16.22.08.34.38.65.33.03,0,.11.09.1.13-.03.16-.09.31-.14.47-.02.07-.05.14-.08.2.07.01.15.04.22.03.32-.05.38-.33.46-.65.09.22.14.39.22.54.03.06.13.12.2.12.05,0,.12-.08.16-.14.03-.05.02-.12.02-.13.14-.06.29-.09.33-.16.18-.42.29-.86-.02-1.28-.1-.14-.21-.28-.28-.44-.15-.34-.42-.51-.76-.61-.07-.02-.17-.05-.2-.11-.28-.53-.75-.64-1.29-.64-.68,0-1.32-.18-1.91-.51-.08-.05-.2-.18-.18-.24.19-.56.39-1.12.62-1.66.09-.21.31-.27.53-.18.49.2.97.41,1.48.64-.18.08-.31.14-.49.21.19.01.31.02.49.03-.6.35-1.15.68-1.76,1.04.6-.02,1.03-.26,1.45-.56.27-.19.58-.34.89-.45.15-.05.34.02.58.05-.11.12-.15.16-.12.13.31.16.62.33.93.49-.04.1-.07.18-.1.27.18-.24.4-.23.64-.18.15.03.31.03.46.02.43-.02.8-.37.81-.78,0-.46-.02-.91-.02-1.37,0-.71.09-1.42.03-2.12Zm-2.79,6.96c.14.16.23.34.12.51-.24-.22-.48-.44-.72-.67.2-.06.43-.04.6.16Zm1.16-5.86c-.14-.16-.3-.22-.52-.19-.52.07-.89-.02-.99-.7-.04-.25-.12-.49-.18-.74-.04-.18.04-.27.23-.25.08,0,.17-.02.26-.04.58-.19,1.28.28,1.33.91.03.39.04.79.06,1.18-.05-.04-.12-.1-.18-.16Zm-.06-.92c-.01.46-.13.61-.5.6-.56-.02-.88-.31-.86-.78.01-.34.32-.67.61-.65.38.02.76.44.75.83Z"/>
  </g>
</svg>