<?xml version="1.0" encoding="UTF-8"?>
<svg id="Layer_2" data-name="Layer 2" xmlns="http://www.w3.org/2000/svg" viewBox="0 0 33.94 29.19">
  <defs>
    <style>
      .cls-1 {
        stroke-width: 0px;
      }
    </style>
  </defs>
  <g id="Layer_1-2" data-name="Layer 1">
    <path class="cls-1" d="m33.76,10.1c-.07-.2-.08-.43-.2-.61-.12-.56-.44-1.05-.68-1.56-.03-.03-.09-.08-.12-.11-.09-.24-.26-.44-.4-.65-.09-.1-.17-.2-.24-.31-.03-.03-.09-.08-.12-.11-.14-.18-.3-.34-.45-.51-.29-.3-.61-.56-.91-.85-.04-.02-.12-.06-.15-.08-.03-.04-.07-.11-.1-.14-.23-.12-.42-.28-.64-.42-.14-.1-.28-.18-.42-.27-.15-.09-.3-.18-.43-.28-.15-.08-.29-.15-.44-.23-.17-.09-.34-.18-.51-.26-.32-.13-.63-.29-.96-.41-.08-.04-.17-.08-.25-.12-.2-.06-.41-.11-.6-.2-.29-.11-.6-.19-.91-.21v-.07c-.65-.11-1.3-.3-1.96-.34-.98-.15-1.98-.07-2.97-.09v-.08c-.4,0-.8-.08-1.18-.19-.27-.12-.52-.27-.76-.44-.16-.16-.32-.32-.47-.5-.08-.12-.17-.24-.25-.36-.08-.14-.16-.29-.25-.43-.06-.15-.13-.31-.33-.28-.01.08-.03.23-.04.3-.04,0-.12,0-.15,0-.04-.15-.2-.17-.33-.21-.01.12-.03.24-.04.36-.17.36-.24.77-.27,1.16-.19-.05-.38-.1-.58-.11-.1,1.04-.15,2.11-.02,3.15l.08-.02c0,.33.12.63.21.94h.05c.06.13.13.27.2.41.11.13.2.28.29.43-.19,0-.39.02-.58.02,0,.03.02.1.03.14.1.14.18.29.27.44.09.14.18.29.3.41.12.19.26.36.41.53.09.09.17.18.25.27.38.38.78.73,1.22,1.04.21.13.41.27.62.39.16.11.34.19.51.27.19.11.4.2.59.3.22.08.44.16.66.21v.06c.18.04.37.09.55.16.14.02.3.03.42.12.32.05.64.16.96.19.19.07.39.08.59.1.74-.05,1.47.16,2.21.06,0,.05.01.15.02.2-.04,0-.13,0-.17,0l-.21.03c.06.06.12.13.17.2.27.1.64.11.77.42-.12.03-.24.05-.35.08-.05.01-.16.03-.21.04-.01.04-.03.11-.04.14.39.1.78.25,1.11.49.12.07.25.14.36.22.08.06.16.12.25.19.27.22.47.52.7.79.07.18.15.35.23.53.11.23.1.5.15.76h-.17c-.07-.12-.14-.23-.21-.34-.11-.13-.21-.26-.31-.4-.08-.09-.17-.18-.25-.27-.08-.09-.16-.19-.23-.28-.09-.09-.17-.18-.25-.27-.24-.22-.48-.44-.72-.66-.23-.21-.5-.37-.75-.56-.11-.07-.22-.13-.33-.2-.16-.1-.32-.18-.48-.27-.59-.33-1.24-.55-1.88-.73-.99-.26-2.02-.22-3.03-.2-.52.02-1.05.02-1.56.15-.13,0-.26.02-.39.02v.08c-.4.01-.8.09-1.18.21-.17.06-.34.1-.51.15-.13.06-.27.09-.41.13-.17.05-.35.06-.53.09.11-.09.18-.2.22-.34-.5,0-.96.24-1.32.57-.27.28-.58.51-.88.77,0-.09-.03-.26-.03-.35-.15.27-.3.55-.53.77-.17.17-.33.33-.49.51-.17.05-.34.11-.5.19-.81.07-1.63.01-2.44,0-.68-.12-1.38-.12-2.07-.17-.03-.1-.07-.19-.11-.28-.1-.46-.29-.89-.51-1.3-.04-.09-.08-.19-.12-.28-.15-.19-.3-.4-.5-.55-.26-.14-.57-.09-.83,0-.13.17-.3.32-.35.54-.06.51-.04,1.03,0,1.54-.31-.03-.63-.04-.94-.01-.14.1-.3.1-.46.1-.05-.22-.1-.45-.16-.67,0-.24-.01-.49-.15-.7-.08-.15-.22-.4-.42-.3-.17.16-.32.34-.48.51-.07.13-.14.26-.22.39-.18.38-.29.83-.19,1.25.06.23.28.5.05.7-.31.3-.69.53-.92.91-.05.13-.09.26-.13.39h-.06c-.09.26-.15.53-.23.81-.17.5-.14,1.04-.13,1.57,0,.4.18.81.05,1.21-.07.22-.12.45-.16.68-.07.12-.06.24.02.36.01.09.02.18.03.27.06.09.12.18.17.27.07.08.13.17.2.26.13.05.26.09.39.13l-.02.07c.5.12,1.05-.03,1.51.28.2,0,.42.02.6-.08.24-.05.49-.12.72-.21.6-.19,1.29-.4,1.9-.14.06.08.12.17.18.26.32.53.93.83,1.54.86.34.08.67.22.96.43.08.09.17.18.26.27.06.08.12.16.18.24.1.18.18.37.27.55.02.26.02.53,0,.79-.08.14-.15.28-.22.42-.36.66-.56,1.4-.73,2.14-.19,0-.4.04-.57-.08-.16-.02-.33-.02-.49-.04-.19-.19-.48-.15-.7-.05-.08.1-.17.19-.26.29-.09.08-.19.17-.28.24-.17.09-.33.2-.46.34,0,.18,0,.36,0,.54.1.15.24.28.39.39.23.01.46.02.7,0,.08-.12.23-.1.36-.11.08.06.16.12.24.18.41.03.87.11,1.22-.17.39,0,.78,0,1.14-.2.34-.1.66-.26.99-.41.47-.26.9-.59,1.26-.99.01-.04.04-.11.06-.15.39-.24.73-.56,1.09-.85.09-.09.17-.17.26-.26.16-.19.32-.37.47-.56.1-.13.2-.27.3-.4.05-.08.11-.17.17-.25.11-.19.2-.38.31-.57.1-.19.18-.4.28-.59.06-.16.1-.34.13-.51.15,0,.29.02.44.02v.1s.16.01.21.01c.98.27,2.02.19,3.02.13.4,0,.74-.25,1.14-.25.04.2.14.38.26.55.17.23.38.44.66.53-.02.14.01.31-.1.41-.32.36-.8.51-1.24.68-.58.07-1.19.08-1.75-.07-.37-.03-.75-.04-1.12,0-.06.07-.12.13-.19.2-.13.39-.54.67-.47,1.12.08.12.15.24.22.36.19.07.4.04.6.05.95-.01,1.91-.03,2.86,0,.57.07,1.16.13,1.74.06.04-.03.13-.08.18-.1.11-.06.23-.11.34-.17.13-.13.28-.25.42-.38.22-.21.43-.42.64-.63.12-.21.27-.41.38-.63.03-.03.09-.08.11-.11.23-.41.55-.76.83-1.13.28.05.53.19.8.28.09.01.18.02.27.04.48.2,1.03.13,1.54.15-.1.27-.14.56-.26.82-.07.27-.13.55-.2.82-.2.33-.48.58-.8.78-.63.13-1.27.09-1.91.06-.13-.02-.24.03-.34.1h-.05c-.05.17-.09.33-.15.49-.02.08-.03.17-.04.26-.08.07-.16.15-.24.23-.08.19-.1.39-.09.59.71.01,1.42.08,2.13.06.4,0,.82,0,1.2-.12.78-.11,1.55-.33,2.34-.43.17-.03.38-.02.49-.17.11-.51,0-1.04.14-1.54,0-.05.02-.14.03-.19.31-.81.66-1.61.95-2.43.12-.24.18-.51.31-.75.08-.24.15-.47.23-.71.15-.27.09-.59.21-.87.03-.49.06-.98-.06-1.46-.05-.21.02-.46-.14-.63-.02-.32-.13-.62-.18-.93.22-.1.44-.2.63-.35.12-.08.24-.15.36-.23.34-.29.67-.61.94-.98.26-.3.46-.65.69-.97.09-.17.17-.33.27-.5.09-.17.17-.35.27-.51.08-.17.15-.35.22-.52.08-.15.14-.3.2-.45,0-.04.02-.13.03-.18.42-1.03.5-2.18.32-3.27-.06-.14-.08-.3-.1-.45Z"/>
  </g>
</svg>