<?xml version="1.0" encoding="UTF-8"?>
<svg id="Layer_2" data-name="Layer 2" xmlns="http://www.w3.org/2000/svg" viewBox="0 0 26.08 33.94">
  <defs>
    <style>
      .cls-1 {
        stroke-width: 0px;
      }
    </style>
  </defs>
  <g id="Layer_1-2" data-name="Layer 1">
    <path class="cls-1" d="m23.47,33.92l-.66-.04c-1.66-.09-3.32-.02-4.82-.87-.04-.02-.07-.04-.11-.06-1.39-.84-2.24-2.31-3.03-3.69-.14-.26-.29-.5-.43-.77l-.1-.2c-.03-.07-.05-.14-.08-.21-.06-.14-.1-.29-.13-.43-.04-.15-.05-.3-.08-.45,0-.15-.02-.3,0-.45.03-.6.26-1.18.63-1.63-.16.24-.27.52-.34.79-.44,1.61,4.16,2.77,4.28,2.21.16-.74.7-1.33.97-2.04.34-.9.22-1.85-.35-2.61.18.18.35.38.47.61.13.23.21.48.25.75.04.26.03.53-.01.79-.13.92-.73,1.66-.89,2.56-.08.48.03.98.19,1.44.25.72.62,1.43,1.22,1.9.44.34.97.54,1.47.79.73.38,1.1.95,1.55,1.6Zm-.1-16.25c-.07-.05-.15-.1-.18-.18-.03-.07-.04-.15-.04-.22,0-.91,0-1.82,0-2.73,0-.18-.06-.47-.29-.49-.21-.02-.4.27-.51.41-.62.81-1.23,1.63-1.85,2.44-.05.07-.11.14-.18.19-.08.05-.18.06-.27.08-.83.13-1.63.45-2.32.93-.32.22-.62.48-.96.68-.9.54-1.99.66-3.03.54,1.02.26,2.14.2,3.1-.24.36-.17.69-.38,1.02-.59.8-.49,3.96-.95,4.85-.47,1.07.58,1.8,1.65,2.25,2.77.45,1.12.62,2.34.7,3.55,0,.07,0,.15-.03.21-.04.07-.11.11-.18.14-1.45.72-3.27.63-4.65-.22.6.5,1.35.81,2.13.93.14.02.28.03.42.04.92.05,1.85-.16,2.69-.56.07-1.34,0-2.7-.42-3.97-.41-1.28-1.17-2.46-2.26-3.24Zm-7.92,13.97c-.88-.13-1.78.25-2.66.13.44-.67,1.17-1.15,1.45-1.91.19-.51.14-1.08,0-1.61-.42-1.72-1.6-3.14-2.76-4.48,1,1.35-5.35,7.57-6.16,6.16-.3-.51-.43-1.1-.53-1.68-.35-2.08-.37-4.63,1.03-6.36-.18.19-.35.4-.5.62-.14.23-.28.46-.38.7-.11.24-.2.5-.28.75-.5,1.47-.47,3.2-.22,4.71.1.58.24,1.15.54,1.66,0,0,0,.01,0,.02.65,1.08,1.98,1.63,3.24,1.57-.32.53.43,1.48.53,1.58.14.12.29.22.47.29.63.24,1.37.12,2.03.12.79,0,1.57-.02,2.36-.02,1.54-.01,3.09-.01,4.63,0-.73-.99-1.59-2.06-2.81-2.24Zm-7.68-8.21c.29-1.24,1.05-1.9,2.02-2.63.4-.3.83-.57,1.26-.82-.81.44-1.61.9-2.27,1.56-.52.52-.94,1.1-1.01,1.89Zm-4.12,6.24c-.51-.6-.99-1.21-1.45-1.85-.12-.16-.21-.32-.31-.49-.1-.17-.21-.33-.3-.5-.18-.35-.37-.69-.52-1.05-.17-.35-.28-.72-.41-1.09l-.15-.56c-.05-.19-.07-.38-.11-.57-.12-.76-.14-1.54-.03-2.3.11-.76.34-1.5.66-2.19.66-1.39,1.68-2.59,2.83-3.62.92-.81,1.92-1.52,2.97-2.15.83-.5,2.09-.86,2.58-1.75.35-.63.24-1.46-.19-2.05-.42-.59-1.11-.95-1.82-1.08-.86-.16-1.73-.05-2.5.35-.37.2-.71.43-1.02.69-.63.53-1.16,1.14-1.64,1.78-.32.44-.62.9-.9,1.37-.18-.79-.22-1.6-.15-2.41.08-.97.32-1.91.65-2.82.29-.8.59-1.65,1.28-2.2.58-.47,1.26-.81,1.94-1.09.95-.39,1.96-.58,2.98-.58,2.29,0,4.55.91,6.27,2.41,1.67,1.45,2.84,3.52,2.85,5.77.01,2.8-1.76,5.18-3.85,6.87-.5.4-1.05.73-1.61,1.04.38-.2.78-.39,1.17-.56,1.63-.74,3.33-1.36,4.83-2.35,1.1-.72,1.78-2.13,2.1-3.38.68-2.65.09-5.65-1.17-8.04C17.35,2.79,14.88.53,12.03.09,8.62-.43,5.15,1.31,3.05,3.94c-.35.44-.67.91-.95,1.4-.27.49-.53,1-.73,1.53-.41,1.05-.69,2.15-.78,3.29-.09,1.13.02,2.29.4,3.38l.24.69.33-.66c.34-.67.75-1.34,1.2-1.96.45-.62.96-1.2,1.53-1.69,1.11-.92,2.58-1.39,3.91-.6.49.29.92.78.91,1.36,0,.44-.28.84-.63,1.12-.72.56-1.67.92-2.45,1.43-.86.57-1.69,1.2-2.45,1.9-1.17,1.07-2.21,2.33-2.87,3.79-.33.73-.56,1.51-.66,2.3-.1.8-.06,1.61.09,2.39.04.19.07.39.13.58l.17.57c.14.37.27.75.45,1.1.16.36.36.7.55,1.05.1.17.21.33.32.5.11.16.21.34.33.49.48.63.97,1.24,1.51,1.82.53.58,1.09,1.14,1.74,1.59-.63-.47-1.16-1.05-1.68-1.64Zm20.37-7.52c-.09-.05-.17-.09-.25-.12-.16-.08-.34-.18-.47-.31-.08-.08-.39-.57-.13-.57.07,0,.15.02.21.04.13.05.25.12.35.23.18.19.24.48.27.73.29-.4.22-1.01-.14-1.34-.18-.17-.42-.25-.66-.3-.06-.01-.63-.09-.64-.05-.14.43-.23.87.05,1.27.24.35.69.53,1.11.46.1-.01.19-.03.28-.05Z"/>
  </g>
</svg>