<?xml version="1.0" encoding="UTF-8"?>
<svg id="Layer_2" data-name="Layer 2" xmlns="http://www.w3.org/2000/svg" viewBox="0 0 33.94 30.02">
  <defs>
    <style>
      .cls-1 {
        stroke-width: 0px;
      }
    </style>
  </defs>
  <g id="Layer_1-2" data-name="Layer 1">
    <path class="cls-1" d="m28.54,2.4c-.06-.01-.12-.02-.18-.04.06,0,.11,0,.17-.01,0,.02,0,.03,0,.05Zm4.39,7.49c.48.85.76,1.77.97,2.72,0,.02,0,.05,0,.14-.11-.37-.19-.68-.3-.99-.11-.32-.23-.63-.38-.93-.2-.38-.42-.75-.65-1.12-.05-.09-.17-.14-.26-.2-.24-.27-.48-.53-.72-.8-.12-.19-.28-.32-.49-.38-.02.02-.04.04-.05.06.15.14.3.28.45.42.13.15.25.3.38.45.01.01.02.02.03.03.01.02.02.04.03.06.05.12.09.25.16.36.75,1.27,1.15,2.64,1.22,4.11,0,.13,0,.26.03.38-.19-.84-.39-1.68-.58-2.52,0,0-.01.01-.02.01l.14,3.31s-.09,0-.13,0c0-.56.04-1.12-.01-1.67-.06-.56-.17-1.12-.33-1.66-.16-.54-.4-1.05-.65-1.55.5,1.12.84,2.26.76,3.5-.02.38-.07.75-.13,1.13.03-1.26-.18-2.48-.61-3.66-.1-.28-.22-.55-.36-.81.17.63.39,1.25.51,1.89.12.63.16,1.29.22,1.93.07.66-.01,1.31-.2,1.94.05-.63.09-1.26.14-1.89-.02,0-.04,0-.07,0-.07.3-.13.6-.22.97-.03-.69-.06-1.29-.09-1.9.02,1.06-.09,2.1-.63,3.05.25-.82.42-1.66.4-2.52-.02-.86-.2-1.69-.55-2.47.35,1.1.44,2.22.27,3.36-.01-.08-.03-.15-.04-.23-.12.48-.24.95-.36,1.42,0,0-.02,0-.03,0,.08-.49.15-.99.23-1.48-.01,0-.02,0-.04,0-.29.95-.59,1.9-.88,2.85-.03,0-.05-.01-.08-.02.41-1.49.82-2.97.58-4.54,0,.35.02.69,0,1.04-.03.35-.1.7-.17,1.05-.07.35-.17.69-.3,1.02.01-.09.02-.18.05-.34-.26.56-.49,1.06-.72,1.56-.01,0-.02-.01-.03-.02.19-.66.39-1.33.58-1.99-.04-.01-.07-.02-.11-.04-.18.5-.36,1-.54,1.49-.02,0-.04-.01-.06-.02.02-.09.03-.18.05-.27.19-.63.38-1.26.57-1.89-.03,0-.05-.02-.08-.02-.18.58-.37,1.15-.55,1.73-.2.39-.41.79-.61,1.18-.02,0-.04-.02-.06-.02.26-.66.52-1.32.78-1.97-.03-.01-.06-.03-.08-.04-.37.88-.8,1.72-1.56,2.34.21-.33.43-.66.62-1,.18-.34.32-.69.44-1.06-.38.68-.74,1.37-1.38,1.87.09-.15.18-.29.27-.44-.02-.02-.05-.05-.07-.07-.13.11-.27.23-.4.34l-.04-.02c.07-.11.13-.22.23-.38-.12.09-.19.14-.26.19.36-.56.73-1.11.77-1.84-.4,1.02-.95,1.85-2.06,2.14.5-.24.84-.62,1.04-1.13-.37.21-.57.65-1.09.73.13-.08.22-.12.3-.19.08-.07.15-.16.19-.27-.27.1-.53.2-.85.32.28-.19.51-.36.74-.52-.02-.03-.04-.06-.05-.09-.14.06-.28.12-.43.18,0-.01-.02-.03-.03-.04.15-.22.31-.45.46-.67-.02-.01-.03-.03-.05-.04-.12.09-.24.19-.37.27-.13.09-.28.2-.39-.04.09-.08.19-.16.31-.26-.24.05-.46.1-.68.15.3-.19.63-.32.83-.73-.34.26-.65.4-1.01.19.69-.12,1.01-.53.88-1.23-.17-.95-.6-1.75-1.42-2.29-.56-.37-1.18-.46-1.8-.15-.64.33-.94.92-.93,1.6.01.63.17,1.26.27,1.89.03.16.07.33.1.47.09-.48.17-.98.26-1.47.02,0,.04,0,.06,0v1.9s.05,0,.07,0c.05-.22.1-.43.13-.57v2.33c.18-.79.38-1.66.57-2.5.05,1.4-.04,2.81-.38,4.21.26-.73.53-1.45.79-2.18.05.9-.19,1.74-.47,2.57.03.01.06.03.09.04.25-.49.49-.98.72-1.43-.08.92-.34,1.84-.94,2.72.13-.1.21-.14.27-.2.06-.06.11-.14.16-.21.02.01.04.03.06.04-.31.47-.63.94-.95,1.42.5-.27.84-.69,1.13-1.17.02.01.04.02.06.04-.2.4-.37.82-.61,1.2-.24.38-.55.72-.84,1.11.09-.02.15-.03.24-.04-.08.38-.45.51-.63.89.42-.22.79-.4,1.22-.63-.05.17-.04.3-.11.38-.48.54-.97,1.06-1.46,1.58-.03.04-.07.06-.11.1.02.02.03.05.05.07.39-.23.78-.46,1.19-.7-.57.85-1.32,1.48-2.13,2.07l.04.07c.38-.18.75-.36,1.13-.54.01.01.02.02.03.03-.46.4-.93.81-1.39,1.21.05,0,.12.01.27.03-.97.5-1.79,1.07-2.43,1.8,1.19.07,2.43.14,3.66.21,0,.04,0,.07,0,.11-.24.03-.49.08-.73.1-1.1.06-2.21.15-3.31.15-3.16,0-6.31-.02-9.46-.05-.59,0-1.17-.06-1.81-.1.4-.41.9-.52,1.36-.71-.63-.08-1.25-.13-1.79.34-.02-.02-.04-.05-.06-.07.1-.13.19-.28.31-.39.37-.31.82-.45,1.28-.56.9-.21,1.82-.24,2.75-.11-1.46-1.43-1.69-3.16-1.17-5.02.48-1.71,2.14-2.88,4.1-3.02-.52-.25-1.25-.25-1.9,0-.56.21-1.11.48-1.69.64-.89.25-1.8.18-2.7-.01-.74-.16-1.48-.23-2.19.14-.38.2-.66.5-.68.95,0,.1.06.22.13.29.23.22.28.32.21.66-.35.06-.76-.25-.77-.69-.01-.36.12-.73.19-1.09-.18.02-.3.18-.37.37-.14.35-.13.69.14,1,.1.12.13.29.2.48-.4-.03-.58-.23-.69-.5-.1-.25-.16-.52-.26-.78.01.24.03.48.05.77-.31-.15-.39-.4-.41-.66-.04-.58.1-1.12.81-1.53,0-.1-.05-.2-.02-.27.09-.17.19-.34.33-.48.62-.62,1.42-.77,2.25-.82.67-.03,1.3-.2,1.73-.76.5-.65.72-1.39.55-2.21-.12-.6-.61-.89-1.2-.73-.27.07-.52.19-.78.26-.27.07-.54.09-.81.2.58,0,1.16.02,1.73.03.54,0,.7.16.69.7-.02.72-.21,1.36-.84,1.84.03-.55,0-1.07-.29-1.54-.29-.45-.72-.71-1.24-.72-.47-.01-.94.07-1.4.12-.3.04-.59.09-.88-.06.12.08.24.16.43.29-.41.04-.76.07-1.1.11,0-.02-.01-.05-.02-.07.05-.05.1-.11.16-.17-.03,0-.05-.02-.07-.02-.42.02-.81-.08-1.17-.3-.13-.08-.3-.08-.45-.13-.24-.08-.44-.19-.47-.48,0-.09-.11-.17-.18-.24-.17-.19-.17-.31.06-.45.44-.26.66-.65.73-1.15.19-1.26.64-2.41,1.55-3.33.38-.38.8-.75,1.27-1.01.74-.4,1.04-.97,1.02-1.8-.03-1.16.11-2.31.6-3.39.14-.31.31-.62.5-.91-.13.41-.26.83-.39,1.24C6.83,1.5,7.26.79,7.84.33c-.65,1.07-1.26,2.15-1.41,3.4,1.07-1.93,1.39-2.05,2.07-2.43-.54.41-1.01.87-1.21,1.6.49-.43.94-.85,1.65-.93-.4.21-.77.39-.92.82.29-.08.57-.15.85-.22,0,.02.02.04.02.06-.43.21-.85.45-1.15.87.29-.08.55-.15.81-.21-.53.25-.97.55-1.15,1.24.39-.45.81-.66,1.39-.59-.87.4-1.07.72-1.07,1.66.08-.1.14-.17.22-.25v.62c.1-.03.19-.06.27-.08,0,.06-.02.14-.04.22.02.01.03.02.05.03.12-.16.24-.32.37-.5,0,.38-.06.7-.32.98-.31.34-.4.73-.2,1.16.05.12.17.22.27.3.34.25.63.53.78.94.05.13.18.23.32.39-.16-.05-.25-.08-.34-.11.13.87.98,1.1,1.49,1.64-.07,0-.13.02-.18.02,0,.01,0,.02,0,.03.34.06.68.13,1.01.19v.02h-.58c.24.07.41.12.58.17v.04c-.28.02-.57.04-.75.06.55.08,1.22.08,1.82.28,2.97.95,5.25,2.69,6.28,5.77.58,1.73.51,3.49.12,5.24-.24,1.08-.49,2.16-.74,3.24.03.01.06.02.09.03.23-.59.5-1.17.69-1.77.41-1.3.65-2.64.7-4.01.06-1.87-.49-3.56-1.54-5.09-.85-1.24-1.99-2.14-3.26-2.91-.51-.31-1.05-.57-1.42-1.06-.04-.05-.07-.11-.08-.21.07.04.14.09.22.12.42.18.84.35,1.17.48-.24-.26-.66-.53-.79-.9-.19-.5-.61-.82-.83-1.32.16.08.27.25.44.07.03-.03.23.1.35.16h0c.26.11.52.22.78.34-.63-.59-1.08-1.3-1.39-2.1.15.19.3.39.45.58l.07-.03c-.15-.5-.29-1-.44-1.49.01,0,.03-.01.04-.02.3.53.59,1.06.89,1.59,0,0,.02-.01.03-.02-.3-.84-.61-1.68-.91-2.52.03,0,.05-.02.08-.03.38.82.61,1.71,1.24,2.45-.21-.58-.41-1.12-.6-1.65.03-.01.06-.03.09-.04.09.15.18.31.29.49-.16-.65-.31-1.27-.46-1.89l.08-.02c.09.19.17.38.26.57,0,0,.02,0,.03,0-.05-.5-.11-1-.17-1.55.25.88.48,1.71.72,2.54.03,0,.06-.01.1-.02-.34-1.08-.52-2.18-.38-3.11.13.73.28,1.64.44,2.56.03,0,.07,0,.1-.01-.11-1.21-.35-2.43.2-3.61-.24,1.21-.13,2.41.12,3.61,0-.43-.02-.87,0-1.3.03-.45.08-.91.16-1.35.08-.43.21-.86.34-1.28-.12.89-.35,1.76-.27,2.67.03-1.2.41-2.27,1.09-3.22-.14.47-.33.96-.44,1.46-.1.5-.12,1.02-.18,1.53.02,0,.05,0,.07.01.11-.49.18-.99.34-1.47.16-.47.4-.91.6-1.36.02,0,.04.02.07.03-.16.52-.32,1.04-.49,1.55.02,0,.04.02.06.02.27-.94.71-1.79,1.38-2.5.11-.12.23-.23.39-.32-1.03,1.18-1.5,2.56-1.63,4.09.3-1.91,1.29-3.38,2.89-4.45-.97.82-1.51,1.9-1.88,3.09.49-.78.9-1.61,1.66-2.18-.08.12-.17.24-.25.37.73-.67,1.53-1.2,2.42-1.61-1.22.74-1.99,1.84-2.54,3.12.76-1.15,1.59-2.23,2.98-2.68-.7.37-1.34.83-1.86,1.45,1.01-.66,2.03-1.3,3.02-1.66-.62.46-1.36,1.01-2.09,1.56-.43.32-.83.67-1.11,1.14.39-.36.79-.72,1.18-1.08.21-.16.41-.32.62-.48.23-.16.47-.31.71-.47.01.02.02.04.03.06-.24.21-.47.42-.7.63.92-.44,1.82-.91,2.85-1.05-.8.24-1.54.59-2.21,1.09.19-.07.39-.14.58-.21,0,.01.01.03.02.04-.4.29-.81.58-1.21.87.01.02.02.04.03.06,1.25-.75,2.49-1.49,4-1.53-.74.14-1.41.41-2.01.87,1.33-.39,2.67-.29,4.02-.15-1.58-.19-3.01.23-4.36,1.03,1.79-.66,3.6-.85,5.49-.25-.5-.06-.95-.11-1.4-.17,0,.03,0,.05-.01.08.14.03.28.06.42.09-.8.05-1.6.09-2.4.15-.16.01-.32.07-.5.11.97-.04,1.91-.09,2.86-.13,0,.04,0,.09,0,.13h-1.29s0,.05,0,.07c1.51-.02,2.88.45,4.18,1.18-.49-.18-1.01-.32-1.48-.55-.51-.24-1.04-.29-1.58-.29-.54,0-1.07.07-1.61.14,1.01,0,2.03-.06,3.04.26-.84-.03-1.64-.06-2.45-.09,1.58.11,3.09.4,4.4,1.38-1.71-.64-3.44-1.09-5.29-.81.55.03,1.1.03,1.65.09,1.37.15,2.68.49,3.87,1.22.13.08.21.22.32.33,0,.02,0,.03,0,.05,0,0,0,0,0,0h0s.07.04.11.06c0,0-.02.01-.02.01,0,.01.01.02.02.03-.06-.02-.11-.04-.17-.06,0,0,0,0,0,0,0,0,0,0,0,0,0,0,0,0,0,0,0,0,0,0,0,0,0,0,0-.01.01-.02,0,0,0-.01,0-.02-.11-.03-.22-.04-.32-.09-.67-.34-1.39-.51-2.13-.59-.08,0-.16,0-.24.03.33.08.68.12.99.26.55.26,1.11.52,1.59.88.49.37.89.86,1.33,1.3.05.05.08.13.12.2-.15-.13-.29-.25-.44-.38,0,0-.02.02-.03.03.04.09.08.18.13.28-.16-.12-.35-.21-.48-.35-.31-.32-.68-.53-1.09-.69-.03-.02-.05-.03-.08-.05-.03-.03-.05-.06-.08-.1-.03.08-.06.16-.09.26-.3-.09-.61-.17-.91-.26.4.18.81.34,1.19.55.44.24.8.58,1.08,1,.1.14.21.27.31.41.16.21.34.42.48.64.22.36.41.73.57,1.12-.37-.55-.74-1.09-1.11-1.64-.05-.02-.1-.04-.16-.06.11.2.22.41.33.61.07.14.14.29.18.45-.26-.33-.52-.67-.78-1-.12-.07-.25-.14-.37-.21,0,0-.02,0-.03,0h.03c-.03-.1-.05-.21-.11-.27-.43-.5-.94-.9-1.55-1.14-.29-.12-.58-.23-.87-.35,0,.02-.02.04-.02.06.27.12.55.24.82.35.03.03.06.06.1.08.5.31.99.62,1.35,1.1.05.07.14.12.22.18.01,0,.02,0,.03-.01,0,0-.02,0-.03.01h0s0,.07,0,.1c0,0,0,0,.01,0,0,0,0,0,0,.01.09.13.18.26.27.4.01-.02.03-.03.04-.05-.01.02-.02.04-.04.05.02,0,.03.02.05.02.02-.03.03-.06.05-.08.04.04.07.07.11.11-.02.02-.03.03-.05.05h.03s.02,0,.02,0c0,.02,0,.04-.01.06h0s.04,0,.06,0c0,.01,0,.03,0,.04.02-.01.05-.02.07-.04.02.07.04.13.05.2-.03,0-.06,0-.09-.01.12.28.22.57.37.84Zm-1.65-3.55s.02-.02.03-.03h0s-.01,0-.02.01c0,0,0,.01-.01.02ZM5.17,11.86c-.16-.38-.69-.6-1.19-.49-.54.12-1.1.87-1.05,1.42,0,.03.03.05.05.07,0,0,0,0,0,0h0s0,0,0,0c-.04.06-.08.13-.15.23.31-.16.52-.02.73.11.4.23.8.21,1.18-.06.36-.26.58-.92.42-1.29Zm5.12,16.92c-1.02-.09-1.55.03-2.04.45.33-.11.65-.25.98-.32.32-.07.66-.08,1.06-.12Zm18.01-13.12s-.03-.01-.04-.02c-.14.22-.27.45-.41.67.03.02.07.04.1.05.12-.23.23-.47.35-.7Zm1.89-9.39c-.65-.23-1.32-.27-2-.23.36.03.73.05,1.09.09.31.03.61.09.91.14Zm2.15,3.49c.21.4.42.8.63,1.2.02-.01.04-.02.06-.03-.2-.41-.4-.82-.59-1.23-.03.02-.07.04-.1.06ZM24.99,1.46c.61-.1,1.22-.2,1.83-.3,0-.01,0-.03,0-.04-.61.09-1.22.18-1.83.27,0,.02,0,.04,0,.07Zm8.1,4.93c-.21-.18-.41-.37-.62-.55-.02.03-.04.05-.07.08.22.17.43.34.65.52.01-.01.02-.03.04-.04ZM3.25,12.84c-.08,0-.17.02-.25.03.18-.31.34-.63.56-.91.29-.38.95-.39,1.29-.07.04.04.09.09.1.15.09.29-.31,1.01-.61,1.06-.14.02-.35,0-.44-.09-.2-.22-.42-.19-.66-.16Zm.48-.8c.34.21.42.19.52-.12-.15.04-.3.07-.52.12Z"/>
  </g>
</svg>