<?xml version="1.0" encoding="UTF-8"?>
<svg id="Layer_2" data-name="Layer 2" xmlns="http://www.w3.org/2000/svg" viewBox="0 0 33.94 28.99">
  <defs>
    <style>
      .cls-1 {
        stroke-width: 0px;
      }
    </style>
  </defs>
  <g id="Layer_1-2" data-name="Layer 1">
    <path class="cls-1" d="m33.77,27.68c-.8-.99-1.76-1.59-3.1-1.36-.55.09-.98-.16-1.24-.64-.34-.64-.71-1.28-.9-1.99-.12-.44-.09-.8.12-1.24.55-1.2.98-2.44,1.16-3.78.2-1.46.69-2.9,1.56-4.06.6-.81,1.13-1.62,1.49-2.54.45-1.15,1.1-2.29.59-3.61-.16-.43-.34-.83-.87-.85-2.31-.09-4.57.1-6.51,1.53-.44.33-.86.41-1.39.29-.83-.18-1.72-.47-2.49-.06-.45.24-.68.9-1,1.38,0,.01.11.15.17.15.6,0,.83.6,1.33.79.52.2.35.67.29,1.07-.08.5-.46.47-.81.43-.46-.05-.92-.22-1.38-.22-1.91,0-4-.7-5.38,1.37-.08.11-.22.2-.35.25-.58.25-.95.65-1.27,1.23-.23.41-.36.97-.81,1.28-.19-.21-.07-.38,0-.52.64-1.47,1.25-2.96,2.4-4.14,1.06-1.1,2.01-2.28,2.33-3.83.07-.34.25-.73.05-1.03-.53-.82-.24-1.68-.22-2.52,0-.21.19-.46-.14-.65-.2.13-.41.26-.6.39-.32-.18.02-.48-.22-.66-.17.14-.34.28-.51.42.3-.9.16-1.53-.4-2.32-.4-.56-.43-.68-.82-.15-.28-.19-.03-.56-.31-.7-.6.49-1.08.42-1.57-.21-.73-.94-.74-.94-1.48-.08-.4-.53-.77-1.28-1.53-1.04-.38.12-1.06.49-.59,1.35-.77-.22-1.21-.65-1.67-1.03-.47-.39-.76.17-1.13.23-.32.05.05.4.19.59.16.21.4.39.28.69-.17.4-.54.2-.77.13-1.23-.35-2.18.47-3.26.72-.21.05-.89.22-.36.78.03.03,0,.2-.04.21-.66.25-.75,1.19-1.57,1.25-.13,0-.38.04-.29.32.18.54.04.94-.37,1.36-.32.32-.66,1.01,0,1.17.73.18.47.46.25.73-.87,1.04.69,1.36.61,2.15,0,.09.06.22.14.29.04.04.17.01.25-.01,1.18-.4,2.37-.79,3.35-1.61.9-.75,1.81-1.48,2.72-2.21.51-.41,1.08-.69,1.71-.86.31-.08.87-.06.83.2-.1.58.07,1.29-.4,1.74-.63.61-.52,1.69-1.4,2.14-.07.04-.07.28-.05.42.09.68-.18,1.36.11,2.05-1.2-.2-1.62.21-1.23,1.2.22.55,0,1.17.42,1.66-.37.26-.62-.15-.85.08-.13.13,0,.25.07.38.35.63,1.12,1.24.11,1.95-.05.04-.06.26,0,.32.34.41.34.98.87,1.35.43.31.82.75,1.22,1.14.2.2.56.63-.05.88-.57.23-.15.47.04.59.21.13.5.11.75.18.7.21.88.75.39,1.26-.24.25-.17.38-.06.66.37.96-.42,2.63-1.21,2.48-.81-.15-1.41.1-2.06.44-.3.16-.84.22-.73.61.11.4.36.96.91.95,1.15-.02,2.32.08,3.47-.02.13-.06.26-.13.39-.19.46-.22.92-.43,1.36-.67.22-.12.44-.25.65-.39.1-.06.19-.13.28-.2.03-.02.06-.05.08-.07.26-.22.52-.36.83-.43.1-.28.24-.55.44-.79.37-.44.92-.55,1.46-.44.29.06.47.3.53.57.89-.27,1.9-.28,2.78-.1.39-.1.81-.14,1.21-.15.22,0,.43.04.62.13.52-.11,1.04-.21,1.57-.26.24-.03.5-.03.75-.02,0-.02.02-.04.03-.06.19-.36.7-.48,1.03-.27.5.31.91.72,1.21,1.21.1.16.12.33.09.49.02.03.03.06.05.09,1.15.43,2.42.57,3.49,1.19,1.03.01,2.05.02,3.08.07.47.02.84-.2,1.23-.4.35-.18.27-.36.06-.61Z"/>
  </g>
</svg>