<?xml version="1.0" encoding="UTF-8"?>
<svg id="Layer_2" data-name="Layer 2" xmlns="http://www.w3.org/2000/svg" viewBox="0 0 33.94 32.16">
  <defs>
    <style>
      .cls-1 {
        stroke-width: 0px;
      }
    </style>
  </defs>
  <g id="Layer_1-2" data-name="Layer 1">
    <path class="cls-1" d="m4.19,11.02c-.06.95-1.07,1.34-1.89,1.13.2-.88,1.05-1.29,1.89-1.13ZM20.66,1.29c-2.19,1.41-3.51,3.93-3.68,6.5-.23,3.16.68,6.28,1.85,9.19.74,1.92,1.91,3.71,2.19,5.79.15,1.33.09,2.73-.4,3.99-.86,2.31-2.73,4.01-4.68,5.41,2.08-.86,3.97-2.29,5.18-4.21,1.13-1.78,1.54-3.97,1.19-6.04-.26-1.9-1.18-3.6-1.82-5.38-.95-2.53-1.74-5.18-1.73-7.9-.03-1.77.51-3.59,1.68-4.94,2.28-2.63,6.52-3,9.45-1.27,1.86,1.04,3.09,2.87,4.05,4.72-.67-3.02-2.88-5.79-5.89-6.72-2.43-.77-5.21-.47-7.39.87Zm-1.06,29.22c2.49-.79,4.32-3.07,4.92-5.57.77-3.08,0-6.29-1.19-9.15-.74-1.93-1.49-3.97-1.24-6.07.08-.92.79-1.9,1.8-1.8,1.4.09,2.37,1.21,3.2,2.22-.44-1.37-1.4-2.68-2.82-3.11-1-.33-2.16.02-2.81.83-.81.99-1,2.32-.95,3.56.04,2.31.94,4.47,1.74,6.59.82,2.34,1.3,4.88.79,7.34-.45,2.07-1.73,3.9-3.43,5.16Zm7.42-14.97c1.68.51,3.58-.12,4.74-1.41,1.15-1.21,1.53-3,1.22-4.62-.47-2.3-1.9-4.45-4-5.55-1.41-.76-3.05-.99-4.63-.81,2.33.56,4.62,1.8,5.84,3.94.82,1.47,1.47,3.28.84,4.94-.63,1.75-2.75,2.81-4.51,2.15-1.06-.36-1.78-1.26-2.4-2.14.18,1.6,1.35,3.06,2.92,3.49Zm-17.63,15.52c2.86,1.17,6.49.59,8.62-1.71,1.58-1.66,2.21-4.13,1.73-6.36-.44-2.27-1.98-4.22-3.9-5.46-1.16-.8-2.54-1.21-3.73-1.99-1.62-1.01-2.99-2.49-3.68-4.29-.69-1.69-.75-3.59-.33-5.36-1.65.16-3,1.45-3.31,3.06-.88.14-1.75.47-2.4,1.1-1.34,1.2-1.72,3.02-2.39,4.61.22.46.64.77,1.14.83,1.44.23,2.91.02,4.35-.13-1.45-.08-2.94.12-4.35-.26-.27-.09-.76-.28-.54-.65.54-1.14.92-2.39,1.77-3.35.75-.89,1.93-1.41,3.1-1.25.23-.86.61-1.69,1.29-2.28-.06,1.55.12,3.13.75,4.56,1.06,2.61,3.38,4.5,5.9,5.63,2.22,1.01,4.28,2.82,4.85,5.27.6,2.26-.35,4.83-2.3,6.12-2.27,1.48-5.57,1.41-7.62-.44-1.39-1.19-2.2-3.18-1.68-4.98.5-1.75,1.77-3.35,3.52-3.96.63-.24,1.33-.21,1.98-.38.08-.12.23-.36.31-.48-.18-.19-.29-.52-.59-.52-1.86-.3-3.57.64-5.31,1.12-1.27.38-2.66.18-3.81-.47-.8-.47-1.7-.88-2.25-1.66,1.38-.1,2.84.89,4.14.11-1.39.55-2.71-.53-4.1-.44-.45-.05-.54.53-.26.78.64.8,1.54,1.33,2.41,1.86,1.4.82,3.15.99,4.68.43-1.22,1.3-2.16,2.98-2.17,4.81-.03,2.66,1.79,5.12,4.2,6.13Z"/>
  </g>
</svg>