<?xml version="1.0" encoding="UTF-8"?>
<svg id="Layer_2" data-name="Layer 2" xmlns="http://www.w3.org/2000/svg" viewBox="0 0 28.47 33.94">
  <defs>
    <style>
      .cls-1 {
        stroke-width: 0px;
      }
    </style>
  </defs>
  <g id="Layer_1-2" data-name="Layer 1">
    <path class="cls-1" d="m8.06,21.73c-.21.25-.41.28-.6.04-.18-.22-.38-.23-.61-.12-.06.03-.13.08-.11.16.02.09.1.08.17.07.11-.02.23-.04.39-.07-.13.25-.36.24-.55.33.15.27.38.11.57.11-.17.24-.43.31-.75.19-.32-.12-.64-.23-.98-.25-.09,0-.18-.03-.26.02-.23.15-.41.05-.54-.13-.34-.46-.83-.85-.87-1.49-.02-.33-.03-.64.17-.94.16-.24.2-.54.24-.83.03-.21.05-.41.15-.6.23-.44.07-.9,0-1.34-.04-.26-.07-.51.02-.76.15-.47.02-.83-.33-1.17-.1-.1-.44-.2-.22-.49-.28-.21-.06-.58-.27-.82-.02-.02-.04-.05-.04-.08-.03-.63-.61-.66-.99-.76-.45-.12-.73-.36-.99-.69-.09-.11-.12-.24-.31-.27-.22-.04.06-.13,0-.22-.08-.05-.16.08-.26.04.07-.47-.31-.09-.42-.25.12-.02.24-.05.37-.07.12-.02.26-.01.25-.19,0-.2-.16-.18-.29-.17-.26,0-.52.04-.77.05-.07,0-.15.03-.24-.03.34-.05.66-.1.99-.09.06,0,.16-.08.17-.09.44-.14.16-.27,0-.41q.33.04.44-.28c.15-.47.18-.97.4-1.43.16-.32.4-.62.41-1.01.24,0,.21-.28.37-.36.35-.17.47-.45.45-.82-.03-.62-.06-1.24-.08-1.87,0-.05-.03-.11,0-.15.11-.19.15-.5.13-.75-.04-.41-.07-.83-.07-1.24,0-.3.19-.55.22-.86.02-.18,0-.35,0-.52,0-.08-.02-.18.08-.21.1-.03.16.05.17.13.04.26.25.46.21.76-.02.15.04.34.23.42.11-.1.06-.3.25-.36-.02.24-.11.47-.03.71.14.03.03-.23.17-.16.1.05.15.16.15.28,0,.08.03.17,0,.24-.31.59.22,1.13.08,1.72.16-.48.23-.99.54-1.4-.32.59-.23,1.24-.33,1.86.18-.31.39-.6.5-.94.02-.06.03-.12.11-.12.07,0,.08.07.11.13.13.28,0,.54-.11.76-.12.23-.15.47-.24.74.14-.11.22-.23.38,0,.1.14.46.14.7.11.22-.03.42-.07.64.01.08.03.22.04.25,0,.15-.21.49-.25.55-.54.14-.64.39-1.26.62-1.87.22-.58.39-1.21.82-1.7.04-.05.09-.12.09-.19,0-.27.17-.45.35-.64.05.37-.27.67-.22,1.08.16-.12.04-.37.27-.38.1.07-.06.19.05.27.27-.42.41-.91.67-1.35.1.08-.07.25.09.27.11.02.15-.12.21-.19.07-.06.11-.22.22-.15.1.06.01.18-.02.27-.08.25-.17.49-.26.73-.02.04-.06.09,0,.13.05.03.1,0,.13-.03.04-.05.06-.1.1-.15.3-.46.58-.95.98-1.35-.28.4-.41.86-.62,1.34.18-.03.15-.16.24-.22,0,.03.02.06.01.08-.1.24-.07.54-.32.72-.05.04-.1.13-.09.18.04.25-.17.38-.25.56-.23.52-.67.92-.86,1.47-.06.19-.16.37-.33.49-.14.1.02.25-.06.37.13-.08.26-.16.39-.24-.13.29-.42.49-.35.88.24-.28.44-.13.68-.03-.15.17-.38.14-.51.33-.19.26.12.27.16.4.05.14.27.22.08.43-.16.18-.34.39-.05.63.04.03.06.08.01.09-.34.13-.11.32-.05.48.16.41.33.81.53,1.2.08.15.19.33.31.41.35.22.59.57.98.72.05.02.13.05.14.1.24.58.87.73,1.25,1.16-.08-.26-.37-.35-.45-.64.26.4.59.13.93.1-.36-.26-.58-.69-1.01-.87.02-.53-.63-.61-.74-1.07.2-.04.28.17.46.15.03-.32-.37-.43-.37-.73.07-.06.14-.02.17.02.32.3.74.43,1.08.7.28.23.68.3.84.71.1-.35-.2-.59-.12-.92.12.06.1.22.26.25-.08-.37-.26-.72-.1-1.13.04.05.07.08.09.11.05.08.04.23.18.17.11-.05.09-.2.04-.26-.37-.47-.14-.99-.13-1.48,0-.15-.08-.31,0-.47.21.2.31.44.4.7-.01-.21.03-.42-.04-.63.16.01.16.2.3.21.15-.35-.41-.66-.02-1.03.06.17.11.34.18.51.07.18.15.15.21,0,.17.52.4,1.02.47,1.56.21-.69.16-1.4.21-2.1.12.57.08,1.16.22,1.77.09-.66.32-1.26.28-1.96.19.37.05.73.14,1.07.28-.21-.03-.49.11-.69,0,0,.01,0,.02.01.03.1-.01.31.14.28.17-.03.08-.2.04-.32-.06-.21-.03-.39.08-.59.11-.21.29-.4.24-.67,0-.02.02-.05.04-.07.1.04.04.15.11.23.03-.2.05-.38.08-.6.16.27.05.54.15.79.06-.24.11-.48.17-.72.12,0,.03.12.11.14.08-.12.05-.28.19-.41-.02.33-.06.63.2.93,0-.23.02-.4.09-.57.21.05.24.18.17.37-.05.13-.05.28-.11.4-.16.37-.06.76-.13,1.14-.01.06-.01.12-.02.18,0,.1-.16.24-.03.28.13.05.18-.14.24-.25.01-.03.01-.06.03-.08.45-.4.56-1.01.92-1.47-.08.53-.06,1.07-.33,1.63.27-.09.33-.25.38-.4.07-.2.29.25.3-.15.03.24-.12.38-.07.57.5-.19.83-.58,1.19-.93.25-.24.52-.39.88-.32.16.03.3.06.12.25-.04.04-.1.09-.04.15.05.04.13.05.16,0,.06-.14.27.04.29-.16,0-.04.07-.01.09.02.05.06.08.15.01.19-.15.09-.14.25-.18.39-.02.07-.09.14,0,.21.08.06.16.06.26.02.17-.06.31-.19.5-.19.43,0,.83-.18,1.32-.24-.26.23-.19.6-.51.75-.08.04-.1.13-.12.23-.04.24-.21.38-.44.42-.3.04-.49.25-.69.43.6-.02,1.1-.38,1.69-.43-.61.18-1.11.68-1.8.66-.08,0-.15.04-.23.06-.07.02-.2.04-.16.14.05.11.13,0,.2-.02.05-.01.1-.08.23-.01-.1.04-.17.07-.25.1.02.03.04.06.06.09.79-.12,1.53-.36,2.25-.74-.22.26-.46.51-.77.65-.09.04-.2.07-.18.2.02.15.14.09.24.09.34.02.64-.1.94-.21.1-.03.2-.07.32-.07-.27.19-.59.28-.86.49.07.09.18-.03.24.05,0,.09-.13.04-.14.14h.73c-.05.1-.17.02-.22.14.21.04.41.08.61.12-.37.19-.75.24-1.18.24.11.13.23.09.3.15.06.05.33-.09.18.17,0,0,.03.03.05.03.43.03.78.35,1.24.28.39-.06.4-.03.75.26-.15.07-.33.03-.5.16.28.08.51.14.69.37.12.14.35.31.61.2.06-.03.19,0,.19.05-.03.41.34.3.58.42-.4.12-.66-.12-.95-.25-.09.08.15.17,0,.24-.09.04-.17.02-.25-.03-.1-.07-.21-.14-.43-.16.26.28.45.54.79.6.08.02.16.02.24.03.05,0,.1.04.1.09,0,.07-.06.08-.1.08-.22,0-.38.22-.63.14.2.26.56.26.74.54-.22,0-.37-.13-.53-.21-.2-.11-.3.04-.3.16,0,.12-.02.12-.1.08-.25-.13-.54-.07-.78-.21,0,0-.02,0-.03.02.11.1.3.11.38.28-.16.01-.31-.08-.5.03.44,0,.52.37.79.62-.71-.14-1.17-.76-1.88-.75.28.15.41.44.65.64-.4-.16-.77-.37-1.1-.68-.07.13.08.16.05.25-.32-.14-.64-.29-.96-.43.05.2.28.23.32.42-.09.04-.15-.04-.21-.08-.64-.42-1.3-.79-1.97-1.16-.28-.16-.51-.4-.74-.64-.3-.32-.65-.58-1.05-.76-.23-.1-.98.27-1.05.52-.04.15.06.28.09.43.02.14.07.28.28.27.06,0,.18.12.22.25.09.3.28.55.44.81.16.28.52.54.44.97.15-.28.02-.6.19-.86q.33.31.5-.06c.12.12.22.37.42.09.04-.05.09-.04.12.01.16.27.46.47.43.85-.02.2.07.41.12.61.01.06.04.12.11.12.06,0,.08-.06.08-.11,0-.22.35-.2.35-.46.19.36.37.71.56,1.08.09-.03.09-.13.14-.2.16.18.22-.14.37-.06.18.1.13.27.1.4-.06.24.09.47-.01.71.13.02.27-.03.3.17.04.23.15.19.3-.04-.02.21-.09.3-.17.39-.04.05-.08.11,0,.15.07.04.1-.03.13-.09.07-.15.12-.29.34-.35.26-.08.45-.02.46.26,0,.05-.03.12,0,.14.25.25.1.48-.06.7.11.12.15-.08.27,0-.44.3-.06.59,0,.96.11-.34.36-.36.61-.39-.08.57-.16,1.15-.24,1.75.2-.07.26-.24.42-.37,0,.29-.54.42-.15.74.11-.05.12-.23.3-.27-.13.27-.05.58-.34.86.3-.12.33.19.52.2-.09.18-.24.31-.37.46-.1.11-.15.23.12.18-.13.16-.29.22-.36.36-.04.07-.08.15-.04.22.05.1.14.04.21.02.08-.02.17-.03.24-.04-.1.51-.52.83-.7,1.32.18-.04.3-.18.46-.26.07-.04.16-.07.21.02.05.09-.05.12-.09.16-.08.07-.17.14-.2.27.13.01.19-.15.33-.1.05.16-.13.24-.16.39-.02.12-.35.12-.17.37-.05.03-.09.08-.14.1-.08.03-.18.04-.25.13.3.12.14.27.03.4-.1.11-.25.17-.2.38.02.07-.09.2-.17.26-.23.17-.3.48-.57.63-.16.09.1.39-.26.42.19.13.31,0,.44,0-.08.16-.26.16-.38.28.14.07.32,0,.42.17-.19.1-.47-.02-.62.23.19.11.36-.05.52-.06.07.12-.43.21,0,.35-.1.12-.28.14-.32.32.05.08.26-.04.24.16-.02.16-.15.16-.27.17-.11.01-.21.03-.32.08-.17.07-.25.14-.01.29-.33.03-.62-.09-.91.13.21.07.4-.03.65.11-.68-.13-.79.49-1.18.72.02.09.11.16.18.23.02.02.07.05.06.06-.04.11-.14.22.07.28.13.03.24.12.39.2-.15.04-.23,0-.3-.05-.26-.18-.41.02-.57.16-.09.08-.07.21.03.25.21.09.16.25.14.43-.23-.08-.55-.16-.66.05-.13.23.22.35.35.52-.04.08-.12.06-.16.05-.25-.11-.53.11-.78-.07-.08-.06-.22.04-.18.15.1.27-.05.15-.16.13-.19-.03-.32,0-.19.24.03.05.07.11.02.16-.05.06-.11.03-.16,0-.15-.09-.37.04-.48-.16-.02.11-.2.14-.13.29.03.07.07.14.1.23-.15-.25-.43-.08-.61-.22-.07.12.09.22-.01.33-.03,0-.08-.01-.1-.03-.25-.28-.38-.09-.54.11-.08.11-.24,0-.29-.04-.26-.27-.24-.02-.27.13,0,.03-.02.05-.03.08-.38-.08-.36-.07-.47.33-.05.18-.23.33-.35.5-.07.1-.3.09-.19.33.03.07-.17.09-.28.1-.66.06-1.33.14-1.99.17-1.04.04-2.1.13-3.13.05-.65-.05-1.29-.07-1.94-.03-.1,0-.21.01-.3-.02-.11-.05-.34-.05-.18-.28.03-.05,0-.1-.05-.12-.05-.02-.1,0-.13.05-.04.06-.08.13-.13.2-.15-.07-.03-.2-.07-.29-.18.02-.13.22-.28.29-.07-.24-.03-.43.15-.59.08-.07.17-.13.26-.2.08-.07.11-.15.03-.23-.07-.08-.15-.07-.24,0-.06.05-.09.2-.2.1-.07-.06-.03-.18.02-.25.16-.25.36-.46.67-.5.39-.05.75-.19,1.11-.34.51-.21.72-.18,1.11.21.06.06.13.13.2.18.1.07.21.08.3-.01.11-.11-.02-.16-.07-.25-.17-.33-.44-.53-.74-.7-.14-.08-.19-.22-.18-.36.02-.24-.17-.49-.27-.51-.47-.11-.36-.62-.63-.83-.26-.21-.23-.57-.39-.78-.15-.2-.09-.46-.18-.54-.25-.21-.25-.51-.39-.73-.14-.23-.12-.48-.22-.7-.12-.27-.06-.59-.23-.87-.12-.19-.17-.45-.1-.67.09-.27-.03-.52.02-.78.03-.21.09-.38.21-.54.17-.22.28-.47.41-.71.02-.05.05-.08.09-.11.31-.23.32-.59.13-.92-.21-.36-.61-.46-.87-.74-.07-.08-.15,0-.21.05-.12.12-.24.2-.41.05-.09-.08-.21,0-.32,0-.12,0-.21.08-.22.2-.01.19.18-.02.21.09Zm-1.74-1.15c0-.08,0-.16,0-.24-.02-.16-.05-.32-.22-.39-.18-.08-.26.08-.37.17-.09.08-.17.18-.3.15-.1-.02-.2-.09-.21.09,0,.13.04.22.17.23.2.02.38.1.55.2q.38.22.38-.21Zm14.16.09c.01.43.22.72.36,1.03.02.05.08.1.14.07.07-.03.05-.1.04-.16-.05-.33-.19-.64-.32-.95-.03-.07-.08-.12-.16-.1-.1.03-.07.11-.07.1Z"/>
  </g>
</svg>