<?xml version="1.0" encoding="UTF-8"?>
<svg id="Layer_2" data-name="Layer 2" xmlns="http://www.w3.org/2000/svg" viewBox="0 0 33.94 16.39">
  <defs>
    <style>
      .cls-1 {
        stroke-width: 0px;
      }
    </style>
  </defs>
  <g id="Layer_1-2" data-name="Layer 1">
    <path class="cls-1" d="m29.27,9.45c-.67-.45-.69-1.41-.29-2.04.7-1.22,2.02-1.91,3.31-2.36.4-.16,1.03-.05,1.2-.54.2-.47-.27-.79-.53-1.1-.69-.78-1.82-1.03-2.82-.82-.16-.51-.43-.97-.78-1.36-.24.84-.44,1.8-1.17,2.37-.9.75-1.98,1.4-3.18,1.49-2.28-.03-4.55.76-6.38,2.11C17.04,3.55,13.52.84,9.62.14c-1.96-.34-4.06-.1-5.77.96C2.31,2.02.96,3.39.31,5.08c-.45,1.16-.44,2.51.16,3.61.71,1.42,2.09,2.44,3.63,2.81.67-.57,1.12-1.44.99-2.33-.09-.55-.28-1.13-.72-1.5-1.01-.9-1.36-2.47-.79-3.7.33-.73.99-1.28,1.75-1.53,1.57-.53,3.28-.46,4.88-.1,2.02.47,3.96,1.56,5.12,3.31.58.76.85,1.85,1.8,2.25-.6,1.47-.93,3.15-.46,4.71.13.44.11.93-.09,1.35-.46,1.11-1.54,1.77-2.5,2.4,1.58.14,3.14-.61,4.1-1.86.65.29,1.45.19,2-.25.32-.24.5-.6.71-.93.68-1.07,1.59-2,2.63-2.73.95-.71,2.23-.9,3.38-.65.63.12,1.17.48,1.78.67,1.71.57,3.64.44,5.25-.37-1.59.08-3.27.02-4.68-.81Z"/>
  </g>
</svg>