<?xml version="1.0" encoding="UTF-8"?>
<svg id="Layer_2" data-name="Layer 2" xmlns="http://www.w3.org/2000/svg" viewBox="0 0 33.94 21.82">
  <defs>
    <style>
      .cls-1 {
        stroke-width: 0px;
      }
    </style>
  </defs>
  <g id="Layer_1-2" data-name="Layer 1">
    <path class="cls-1" d="m33.67,4.48c.09-.36-1.19-.37-.87-1.26-.87-.58-1.74-1.17-2.57-1.82-.37-.29-.95-.3-1-.97-.02-.27-.33-.24-.58-.26-.96-.05-1.94.12-2.89-.09-.69-.15-1.39-.05-1.97.21-1.04.47-2.02,1.1-2.98,1.73-1.77,1.15-3.14,2.7-4.14,4.56-.51.95-1.23,1.37-2.31,1.29-.92-.07-1.84-.02-2.76-.03-.63,0-1.25.11-1.81.4-1.19.61-2.35,1.28-3.29,2.27-.19.21-.38.5-.75.35-.5-.21-.83.04-1.17.37-.71.69-1.89.44-2.24-.46-.08-.19-.11-.43-.37-.44-.26-.01-.34.22-.42.4-.16.36-.2.74-.14,1.14.03.23.15.52-.05.68-.91.76-.96,1.81-1.19,2.87-.28,1.31-.27,1.47.92,2.01.45.21,1.22.01,1.32.5.09.44-.32.98-.51,1.47-.14.38-.33.7-.6.92,0,.12-.06.25-.18.36-.02.02-.04.04-.07.06-.01.07-.04.15-.09.23-.05.07-.1.14-.14.22,0,.2.03.37.13.53,0,0,0,0,0,0,.01.02.03.03.05.05,0,0,.04.02.07.04,0,0,.06.02.09.02.01,0,.15,0,.14,0,.03,0,.06,0,.09,0,.61-.17,1.24-.43,1.42-1.09.05-.19.17-.31.31-.37.89-1.06,1.73-2.07,2.38-3.21.18-.32.52-.4.86-.35.88.12,1.77.21,2.61.53.51.2.72.59.76,1.1.04.5-.27.75-.68.88-.02.1-.08.19-.2.23-.3.12-.57.39-.32.69.1.12.24.22.39.31.04-.02.08-.02.12-.02s.09,0,.13.03c.03,0,.07,0,.11,0,.02,0,.03,0,.05,0,.31-.01.6-.11.89-.21.28-.25.48-.6.74-.87.02-.12.07-.23.16-.31-.02-.16-.02-.32,0-.49.16-.87.26-1.76.12-2.66-.07-.46-.09-.96.14-1.4.32-.64.76-.68,1.08-.06.42.81,1.04,1.14,1.9.91.76-.2.88.19.8.78-.08.57-.1,1.12.14,1.66.17.39.47.51.87.46.45-.05.48-.36.44-.72-.04-.38-.19-.8-.09-1.13.52-1.6.55-3.26.73-4.91.1-.88.42-1.16,1.29-1.02.99.16,1.99.78,2.92-.17.03-.03.16.03.25.06.61.21,1.07-.08,1.55-.41.8-.56,1.58-1.14,2.61-1.26,1.4-.16,2.77-.14,4.12.3.5.16,1,.03,1.35-.22.51-.36,1.06-.66,1.55-1.03.48-.36.87-.86,1.04-1.42.19-.63-.41-1.2-.23-1.94Z"/>
  </g>
</svg>