<?xml version="1.0" encoding="UTF-8"?>
<svg id="Layer_2" data-name="Layer 2" xmlns="http://www.w3.org/2000/svg" viewBox="0 0 30.79 33.94">
  <defs>
    <style>
      .cls-1 {
        stroke-width: 0px;
      }
    </style>
  </defs>
  <g id="Layer_1-2" data-name="Layer 1">
    <path class="cls-1" d="m10.07.52h0s0,0,0,0h0Zm20.66,15.98c-.34.56-.87.8-1.5.88-.09.01-.16.1-.25.15-.08.05-.16.1-.25.11-.53.11-1.02-.05-1.51-.26-.03-.01-.08-.04-.09-.07-.15-.47-.57-.45-.94-.52-.17-.03-.34-.01-.52,0-.43,0-.69.25-.73.69-.01.19,0,.38,0,.57.43,0,.84,0,1.25,0,1.55.01,2.46.98,2.7,2.4.06.33-.09.52-.33.49-.06.15-.08.33-.18.43-.08.09-.26.08-.4.08-.12.16-.24.44-.52.29-.29-.16-.06-.4.02-.6.03-.09.05-.2.07-.29-.03.01-.07.03-.1.04-.08-.12-.16-.24-.2-.31,0,.17.02.4,0,.62-.02.13-.1.3-.2.34-.12.05-.29.02-.42-.03-.03-.01,0-.21,0-.32,0-.06.05-.11.06-.12-.2,0-.41,0-.61-.02-.02,0,0-.24,0-.42-.22-.12-.5-.05-.77.02-.48.12-.96.26-1.42.38,0,0,.04.03.09.06,0,.02,0,.04,0,.06-.26-.03-.51-.06-.78-.09.07.05.14.1.21.15,0,.01-.01.03-.02.04-.35-.08-.69-.17-1.03-.25.02.07.05.14.1.3-.28-.15-.5-.26-.78-.4.11.21.2.38.28.54-.03.02-.05.04-.08.06-.17-.2-.34-.39-.51-.59-.02.01-.03.03-.05.04.09.18.18.36.28.54,0,0-.02.02-.03.03-.26-.21-.51-.42-.8-.66v.33c-.38-.22-.51-.59-.6-.99-.03,0-.05.02-.08.03.07.38.13.76.2,1.16-.1-.11-.18-.22-.28-.34-.02.03-.04.07-.07.12-.44-.3-.38-.8-.47-1.32-.08.23-.13.39-.18.55-.02,0-.04,0-.06,0-.03-.16-.07-.31-.11-.52-.14.16-.25.27-.35.39v-.7c-.16.08-.31.16-.49.25.12-.29.21-.52.3-.75-.2.36-.75.58-.53,1.17-.14.05-.31.12-.47.18,0,.01,0,.02,0,.03.36-.03.72-.06,1.08-.09-.03.05-.06.11-.11.17.2.01.41.02.62.04.01.04.02.07.04.11-.17.1-.35.21-.49.3.27.14.55.29.9.47-.2.05-.33.07-.44.1.22.04.46.09.7.13,0,.02,0,.04,0,.06-.06.01-.11.03-.25.06.58.06,1.04.22,1.42.64-.12-.02-.21-.04-.31-.06,0,.01-.01.03-.02.04.16.11.32.22.42.28.03.12.02.18.05.22.21.33.5.62.63.98.44,1.21,1.01,2.39,1.03,3.7.01.69-.14,1.38-.22,2.07,0,.04-.04.08-.08.14v-1.86s-.03,0-.04,0c-.02.44-.04.87-.08,1.31-.04.47-.31.82-.65,1.17.12-.06.22-.1.4-.18-.34.59-.71,1.05-1.23,1.38.06.04.12.08.24.16-.22.15-.41.29-.6.42.73.58,1.59.47,2.45.4.44-.04.88-.02,1.32-.09.26-.04.52-.12.75,0,.32.16.62.36.9.58.07.06.09.25.06.36-.02.06-.19.1-.29.11-.18,0-.37-.02-.56-.03,0,.03,0,.06,0,.09h2.01s0,.1.01.14c-.18.03-.36.07-.54.07-3.05.03-6.09.07-9.14.08-1.23,0-2.46-.06-3.69-.08-.79-.01-1.57,0-2.37-.06.36-.07.72-.15,1.14-.24h-2.15s0-.02-.01-.03c.31-.08.61-.16.92-.23,0-.02,0-.05,0-.07h-2.08s0-.02,0-.04c.43-.07.86-.14,1.29-.21,0-.04,0-.08,0-.13h-1.54s0-.07,0-.1c.34-.05.69-.11,1.03-.16,0,0,0-.02,0-.03-.99-.16-1.97-.32-2.96-.48,0-.03,0-.06.01-.09.41.03.82.06,1.27.09-.73-.29-1.42-.57-2.1-.85,0-.02.01-.05.02-.07.84.24,1.68.48,2.53.71,0,0,0-.01,0-.02-1.15-.59-2.3-1.18-3.44-1.77,0-.02.02-.04.02-.06.42.15.84.31,1.26.46.22.11.44.23.65.34,0-.02.02-.03.03-.05-.23-.13-.45-.27-.68-.4-.21-.14-.42-.28-.62-.43-.06-.04-.1-.11-.14-.16.44.18.87.36,1.31.54-.32-.23-.65-.44-1-.62-.24-.12-.5-.2-.76-.3-.28-.11-.56-.23-.84-.34,0-.02.01-.04.02-.06.49.11.98.22,1.47.33l.05-.07c-.14-.12-.27-.25-.42-.35-.66-.44-1.32-.88-1.99-1.31.01-.02.02-.04.03-.06.47.24.93.47,1.4.71.02-.03.03-.05.05-.08-.17-.12-.33-.24-.5-.36,0,0,0-.02,0-.03.08.03.17.09.25.09.11.01.22-.01.34-.02-.05-.1-.08-.24-.17-.29-.54-.31-1.09-.59-1.64-.88-.09-.05-.18-.09-.25-.17.29.08.58.16.87.24.02-.03.03-.05.05-.08-.36-.36-.71-.72-1.07-1.08,0-.01.01-.02.02-.03.74.5,1.48,1,2.22,1.49.02-.01.04-.03.06-.04-.04-.09-.07-.19-.13-.26-.35-.38-.72-.76-1.08-1.14-.13-.14-.34-.27-.37-.43-.04-.27-.25-.41-.35-.62-.06-.13-.04-.29-.06-.43.32.24.67.49,1.02.75.02-.02.05-.05.07-.07-.4-.57-.8-1.14-1.22-1.75.3.25.57.46.83.68.03.02.05.03.08.05.04,0,.08,0,.15.01-.04-.05-.08-.08-.11-.12h0c-.36-.81-.72-1.62-1.07-2.43.02-.01.05-.03.07-.04.35.54.71,1.07,1.06,1.61.04-.02.08-.04.11-.06-.2-.5-.37-1.02-.6-1.51-.22-.49-.5-.95-.76-1.43l.08-.06c.02.07.05.14.07.21.04-.02.08-.05.12-.07-.07-.24-.13-.49-.2-.73.01,0,.03-.01.04-.02.15.35.3.69.45,1.04.03,0,.06-.01.08-.02-.24-.86-.48-1.72-.72-2.58.03,0,.06-.02.09-.02.16.58.33,1.17.49,1.75.02,0,.04,0,.06-.01-.22-.98-.44-1.96-.65-2.94.03,0,.06-.02.09-.03.24,1.3.7,2.51,1.34,3.65.03-.01.05-.02.08-.03-.16-.74-.31-1.48-.47-2.22.03,0,.05-.01.08-.02.07.22.14.45.21.67,0,0,.01,0,.02,0-.06-.78-.12-1.57-.17-2.35.03,0,.05,0,.07-.01.05.22.1.43.14.65.02,0,.04,0,.05,0v-1.89s.05,0,.07,0c.06.76.11,1.52.17,2.28.04,0,.08,0,.12,0v-1.13s.05,0,.07,0v.84h.06v-2.94s.04,0,.06,0c.07.87.14,1.74.22,2.67.15-.53.3-1,.41-1.47.12-.48.22-.97.28-1.46.06-.5.06-1.01.14-1.53.07.55.13,1.11.2,1.66.02,0,.04.02.06.03.14-.44.32-.86.4-1.31.12-.66.16-1.33.24-2,.02-.16.09-.31.11-.47.03-.16.03-.32.05-.47-.03-.01-.06-.02-.09-.04-.15.15-.29.31-.44.46-.02,0-.03-.02-.05-.03.12-.2.24-.39.36-.59,0-.02-.02-.03-.03-.05-.21.1-.42.19-.63.29-.02-.03-.03-.05-.05-.08.21-.15.41-.3.63-.46h-.58s.08-.07.12-.11c-.68.04-1.19.4-1.61.88-.44.51-.53,1.15-.58,1.79-.12-.56-.06-1.1.09-1.64-.1.24-.2.49-.29.73-.01,0-.03,0-.04-.01.04-.24.09-.47.13-.71-.35,1-.27,2.02-.1,3.05-.07-.19-.15-.38-.22-.58-.07-.21-.13-.42-.19-.63-.06-.21-.12-.42-.21-.63v.46s-.07,0-.1,0c-.04-.38-.07-.76-.1-1.13-.03,0-.06,0-.09,0-.02.26-.06.53-.05.79.01.27.07.54.08.82-.23-.68-.43-1.36-.19-2.13-.2.2-.2.2-.23.88-.01.31,0,.61,0,.93-.02-.05-.05-.08-.06-.12-.21-1.19-.19-2.34.51-3.39.02-.03.03-.07.04-.1.08-.12.16-.24.24-.36-.04-.03-.07-.05-.11-.08-.1.12-.21.24-.31.36-.11.21-.25.4-.33.62-.29.8-.49,1.63-.53,2.49,0,.03-.01.05-.02.1-.25-.7-.15-1.4-.11-2.1-.03,0-.06,0-.09,0-.09.3-.17.6-.27.95-.12-.55.26-1.01.23-1.51-.04,0-.08-.02-.12-.03-.15.48-.31.96-.46,1.45-.02,0-.03,0-.05,0,.1-.45.21-.9.3-1.35.02-.09-.01-.19-.02-.29,0-.05-.02-.1,0-.14.18-.25.36-.51.56-.74.2-.23.41-.46.64-.66.56-.49,1.22-.79,1.94-.98.28-.07.56-.13.88-.2-.58-.11-1.11-.02-1.61.17-.6.23-1.2.49-1.79.75-.59.26-.93.79-1.31,1.27-.03.04-.04.08-.1.09.4-.74.74-1.52,1.35-2.13-.64.11-1,.61-1.43,1.01-.02-.02-.03-.04-.05-.06.08-.08.15-.17.24-.25-.05-.09-.1-.18-.19-.33.6-.33,1.21-.66,1.83-.99,0-.02,0-.03,0-.05-.81.21-1.63.43-2.44.64,0-.02-.01-.04-.02-.07.56-.16,1.11-.35,1.68-.48.57-.12,1.16-.18,1.74-.27,0-.05-.01-.1-.01-.15-1.01-.14-1.99.1-2.99.25l-.02-.08c.8-.23,1.6-.46,2.4-.69,0-.01,0-.02,0-.03-.84.08-1.68.17-2.5.25,1.33-.46,2.71-.41,4.11-.23-.26-.05-.52-.1-.77-.16,0,0,0-.02,0-.03h1.16s0-.04,0-.06c-.65-.07-1.3-.14-1.88-.21,1.39-.27,2.73.23,4.1.61,0-.03.02-.06.02-.09-.44-.13-.88-.28-1.33-.39-.46-.12-.93-.23-1.4-.3-.47-.08-.95-.11-1.42-.2.81-.1,1.6.01,2.41.07-.38-.11-.76-.21-1.15-.32,0-.02,0-.04.01-.07.84.15,1.67.3,2.46.44-.79-.37-1.98-.57-4.11-.73h2.48c-.19-.1-.31-.17-.44-.22-.13-.05-.27-.08-.39-.18.35.05.69.09,1.04.14.07-.05.13-.11.2-.16-.07-.04-.14-.09-.21-.13-.1-.01-.21-.02-.31-.04-.4-.07-.8-.15-1.2-.22,0,.02-.01.04-.02.06.05.04.1.07.15.11-.61-.07-1.22-.13-1.62-.18h2.76s0-.05,0-.08c-.59-.14-1.18-.27-1.78-.41.92-.13,1.81.15,2.72.23.01-.04.03-.07.04-.11-.64-.33-1.28-.65-1.92-.98.01-.03.02-.05.03-.08.66.26,1.32.53,2.01.81-.34-.23-.65-.44-.96-.64.03-.04.05-.09.08-.13.94.52,1.87,1.05,2.81,1.57.72.44,1.45.87,2.23,1.2-.21-.21-.45-.37-.69-.53-.51-.35-1.02-.7-1.53-1.05-.07-.07-.15-.13-.25-.23.21.02.37.04.53.06.06-.05.13-.09.19-.14.5.27,1,.56,1.51.81.53.26,1.07.5,1.61.74.03.01.07-.01.11-.02.01-.03.03-.06.04-.08-.4-.21-.8-.42-1.21-.61-.16-.07-.3-.11-.39-.29-.05-.1-.15-.17-.24-.24-.64-.43-1.28-.86-1.92-1.29-.03-.02-.05-.05-.1-.1h.2c.11.06.21.11.32.17.15.07.21.03.2-.14.69.44,1.38.88,2.08,1.31.13.08.27.14.44.17-.58-.76-1.41-1.25-2.05-1.98.32.18.62.35.91.52.02,0,.04,0,.06,0,0,0,.01.02.02.03.01-.01.03-.02.04-.03,0,0,0,0,0,0,.35-.02.52.27.74.46.18.15.32.34.48.52.08.07.15.14.23.2.2.18.4.36.6.55-.03-.04-.06-.07-.1-.11.03-.04.05-.09.08-.13.04,0,.08,0,.12,0,.01-.02.03-.04.04-.07-.17-.13-.35-.25-.52-.38-.11-.15-.22-.3-.32-.46-.05-.08-.09-.17-.14-.26h.06s.04,0,.06,0c.02,0,.04,0,.06,0,.06.04.11.08.16.12.02,0,.04,0,.06,0h0s.04.04.06.06h.03s.02-.02.02-.02c-.02-.01-.03-.03-.05-.04h0s-.01-.04-.02-.06c-.1-.22-.2-.43-.3-.65,0-.01.02-.02.02-.04.09.08.2.14.27.24.3.46.56.93.87,1.38.17.24.4.44.67.64-.06-.18-.09-.38-.18-.54-.15-.29-.35-.55-.5-.83-.05-.09,0-.24,0-.36,0,0,0,0,0,0,0-.12-.01-.23-.02-.37.26.44.5.87.76,1.28.26.41.55.81.82,1.22.03-.02.06-.04.09-.05-.15-.42-.29-.84-.44-1.27.03-.01.05-.02.08-.03.48.94.96,1.89,1.44,2.83.03-.01.06-.02.09-.04-.09-.26-.17-.52-.27-.77-.11-.27-.24-.52-.35-.78-.12-.26-.23-.52-.34-.77.02-.01.05-.02.07-.03.37.66.75,1.32,1.11,1.99.2.38.38.77.57,1.16.06.11.15.21.25.29.03-.7-.28-1.31-.4-1.97.56.88.98,1.82,1.19,2.86.03,0,.06-.01.09-.02-.05-.44-.08-.88-.16-1.31-.08-.43-.21-.84-.27-1.28.21.55.42,1.1.63,1.67.01-.05.02-.09.03-.15.03.03.05.05.11.12-.02-.18-.04-.32-.06-.45.35,1.13.18,2.26.07,3.45.28-.41.31-.83.3-1.24-.02-.77-.09-1.53-.13-2.3,0-.08-.02-.17-.02-.25.03,0,.07,0,.1-.01.11.97.21,1.94.32,2.9.01,0,.03.01.04.02.12-.56.23-1.12.36-1.72,0,1.18-.33,2.27-.5,3.41.24-.49.49-.98.76-1.54-.1.32-.17.58-.26.83-.1.26-.23.5-.35.76.02.01.04.02.06.04.26-.3.51-.59.76-.89-.4,1.03-1.15,1.79-1.98,2.48.48-.13.96-.26,1.44-.39,0,.02.01.04.02.06-.38.16-.77.33-1.23.52.18-.02.28-.03.38-.04,0,.02.02.05.03.07-1.04.55-2.09,1.1-3.13,1.65-.02-.02-.03-.05-.05-.07.14-.15.28-.3.42-.45-.01-.02-.03-.03-.04-.05-.83.51-1.67,1.02-2.5,1.53-.01-.02-.03-.04-.04-.06.13-.14.25-.28.38-.42-.02-.02-.05-.05-.07-.07-.79.72-1.65,1.38-2.36,2.17-.72.79-1.29,1.71-1.94,2.59-.01-.09-.02-.16-.03-.24-.02,0-.04,0-.07-.01-.24,1.07-.48,2.14-.72,3.18-.1-.34-.2-.72-.31-1.12-.12.86.33,1.62.32,2.45-.09-.24-.18-.47-.28-.75-.02,1.38.36,2.63.97,3.83-.03.01-.06.02-.09.03-.2-.31-.41-.62-.6-.91.25.82.54,1.65.74,2.49.21.86.5,1.69.94,2.46.34.6.8,1.1,1.37,1.5.39.28.81.41,1.35.37-.48-.2-.96-.31-1.33-.75.29.08.52.14.71.2-.26-.32-.53-.65-.79-.98-.02-.02-.03-.04-.05-.07v-.07s-.03-.03-.04-.04c-.01-.02-.03-.04-.04-.07,0-.01,0-.02,0-.04-.04-.13-.09-.26-.13-.4.16.08.3.14.45.21.04.07.09.14.13.21.03-.01.06-.03.09-.04-.03-.11-.04-.22-.1-.32-.25-.47-.52-.93-.8-1.45.14.43.26.81.39,1.2-.64-.52-.62-1.22-.54-2.03-.1.22-.16.37-.25.59-.02-.43-.04-.78-.05-1.12-.02,0-.04,0-.05,0-.06.17-.13.33-.19.5-.02,0-.04,0-.06,0,.06-.74.12-1.49.18-2.3-.08.1-.12.14-.21.24v-1.24s-.03,0-.05,0c-.07.18-.14.36-.22.55-.02,0-.04-.01-.06-.02.04-.23.08-.46.13-.75-.08.15-.14.26-.2.37-.01,0-.02,0-.04-.01.06-.43.11-.86.17-1.3-.02,0-.03-.01-.05-.02-.12.32-.24.65-.36.97-.05-.95.17-1.84.53-2.7-.03-.01-.05-.02-.08-.03-.18.29-.36.57-.58.93.15-.99.84-1.63,1.17-2.46-.19.21-.39.43-.59.64.1-.56.57-.86.81-1.32-.15.16-.3.32-.45.49-.03-.02-.05-.04-.07-.05.19-.33.34-.67.57-.97.22-.29.5-.54.73-.86-.14.07-.28.15-.43.22.54-.79,1.14-1.85,2.88-2.23h-.86c.23-.26.4-.32,1.45-.51-.03-.01-.06-.02-.13-.05.29-.03.54-.06.79-.09,0-.02,0-.04,0-.06-.19-.03-.37-.05-.55-.08,0-.01,0-.03,0-.04.39-.08.78-.16,1.17-.23,0-.01,0-.03,0-.04h-.57s0-.06-.01-.09c.6-.09,1.21-.17,1.81-.26,0-.02,0-.04,0-.06-.22.01-.44.02-.65.04.63-.49,1.41-.62,2.15-.85.49-.15,1.01-.23,1.51-.36.17-.04.33-.14.46-.2-.27-.02-.58-.05-.97-.09.47-.1.86-.18,1.25-.26,0-.02,0-.05,0-.07-.14,0-.29-.01-.49-.03.33-.1.6-.18.94-.28-.13-.05-.19-.06-.24-.08.49-.07.51-.56.79-.87.02.14.04.23.06.4.18-.28.33-.49.44-.67-.25-.36.16-.4.22-.61-.1.01-.19.02-.28.03.47-.31.71-.81,1.09-1.27.04.16.06.28.1.42.33-.28.3-.64.24-1.06.1.12.16.18.21.24-.05-.32-.1-.64-.15-.97.03,0,.06-.02.08-.02.09.13.18.25.27.38.03,0,.06-.01.09-.02.02-.22.11-.45.06-.65-.12-.45-.03-.86.16-1.25.13-.26.1-.48-.01-.74-.24-.51-.45-1.03-.67-1.54-.02-.06-.03-.12-.01-.19.08.15.17.31.25.46.02,0,.04,0,.06-.01v-.84h.04c.04.34.08.69.12,1.03.02,0,.04,0,.05,0,.03-.26.05-.51.08-.77.02,0,.03,0,.05,0,.03.28.03.57.1.84.07.28.21.55.37.8-.04-.12-.09-.25-.13-.37.02,0,.03-.01.05-.02.1.15.19.31.32.51v-.47c.16.59.49,1.09.83,1.58.29.4.31.87.26,1.35-.03.22,0,.46.03.68.01.09.13.16.19.24.06-.09.17-.17.18-.26.02-.21,0-.42-.03-.63-.08-.47-.16-.94-.27-1.4-.12-.47-.28-.94-.41-1.4-.02-.05-.02-.1-.04-.18.77,1.13,1.22,2.36,1.51,3.66.06.28.1.57.18.84.13.43.4.75.78.99,1.32.83,2.21,1.98,2.52,3.53.1.51.14,1.04.15,1.57.02.62.13,1.17.6,1.62.07.07.05.32-.02.43Zm-14.26-10.66c.12.28.24.57.36.85.03-.01.06-.03.09-.04-.13-.28-.25-.56-.38-.84-.02.01-.05.02-.07.03Zm-4.9-2.38c.12.31,1.15,1.03,1.54,1.1-.43-.49-.91-.85-1.54-1.1Zm-7.21,2s0-.05-.01-.07c-.41.07-.81.14-1.22.22,0,.03.01.06.02.09.41-.08.81-.15,1.22-.23Zm-2.11,4.06c-.32.43-.15.88-.14,1.32.05-.45.09-.87.14-1.32Zm1.12-2.41s0-.07,0-.1c0,0,0-.01,0-.02-.01.01-.03.03-.04.04h0s0,0,0,0c-.06.02-.12.04-.17.06-.07.02-.16.03-.2.08-.3.39-.66.75-.76,1.26,0,.04.02.09.02.09.28-.39.57-.79.86-1.19,0,0,0,0,0,0,.1-.07.21-.14.31-.22Zm.03-.14s-.01,0-.02,0c0,0,0,0,0,0,0,0,0,0,0,0,0,0,.01,0,.02,0Zm4.23,12.04s-.06,0-.09,0c.02.26.04.53.05.79.01,0,.02,0,.03,0v-.79Zm.36-16.3c-.34-.18-.67-.35-1.08-.57.27.48.7.47,1.08.57Zm-.28,7.97c.03.21.06.41.1.65.14-.46.15-1.11,0-1.47-.04-.09-.12-.18-.21-.21-.05-.02-.16.08-.2.15-.49.77-.25,1.59-.17,2.41.33-.46.34-1.01.49-1.53Zm6.48,5.81c-.11.14-.22.29-.34.43.02.03.04.06.05.09.82-.18,1.35-.88,2.08-1.21,0-.03-.01-.06-.02-.09-.54.1-1.08.2-1.61.3,0,.02,0,.05.01.07.33-.06.65-.11.98-.17,0,.02,0,.03.01.05-.42.16-.83.32-1.25.48.02.02.05.03.07.05Zm-.86,3.99c-.3.89-.38,1.76-.29,2.66.1-.87.19-1.75.29-2.66Zm4.45,4.57s-.05.01-.08.02c.1.39.19.77.29,1.18.29-.47-.08-.81-.21-1.19Zm-1.14-3.69c.28-.03.53-.06.84-.1-.73-.24-1.42-.35-2.13-.26.25-.12.5-.24.75-.35,0-.04-.02-.07-.02-.11-.48.02-.96.04-1.48.06.13-.12.24-.22.35-.33,0-.02-.02-.03-.02-.05-.12.03-.23.06-.42.12.24-.39.45-.72.65-1.06-.01-.01-.03-.03-.04-.04-.19.12-.38.24-.57.36-.03-.03-.05-.06-.08-.09.22-.24.44-.48.65-.71-.02,0-.07-.01-.12-.02.17-.27.32-.52.48-.76-.02-.02-.04-.04-.06-.05-.23.19-.47.39-.7.58-.02-.02-.04-.03-.06-.05.16-.25.31-.5.47-.75-.01-.01-.02-.03-.03-.04-.26.15-.52.3-.78.45.23-.24.38-.54.75-.64.27-.07.48-.34.79-.57-.6-.15-.93.3-1.37.43.17-.18.33-.35.49-.51-.41-.27-2.11.94-2.47,1.67.2-.07.39-.14.59-.21-.35.36-.73.67-.99,1.12.53-.28,1.01-.53,1.5-.79-.43.45-.97.78-1.24,1.37.27-.23.55-.47.75-.63-.34.8-.72,1.66-1.09,2.53.02,0,.04.02.06.03.09-.12.18-.25.31-.42-.04.28-.07.5-.1.72.03,0,.07.02.1.02.13-.53.26-1.06.39-1.59.02,0,.04.01.06.02-.06.27-.12.55-.18.82.32-.66.67-1.28,1.21-1.79-.22.52-.41,1.04-.36,1.68.08-.14.13-.21.14-.22.14.56.28,1.16.42,1.75.03,0,.06-.01.1-.02.04-.24.09-.48.13-.72.03,0,.06,0,.09,0,.16.71.33,1.41.47,2.05.09-.54-.07-1.1-.24-1.68-.07-.25-.05-.53-.07-.79.16.41.29.81.43,1.2.15.4.41.77.28,1.31.07-.32.12-.57.18-.87.16.45.3.83.45,1.25.02-.25.04-.43.06-.62.04,0,.08-.02.11-.02.1.31.2.62.32,1.01v-1.52c.24.46.45.86.66,1.26.03-.01.05-.02.08-.03-.04-.19-.09-.38-.13-.58.1.01.19,0,.24.04.19.14.38.3.56.45.16.13.28.1.36-.08,0-.04,0-.07,0-.11-.02,0-.03-.01-.05-.02h0s0,0,0,0c-.02-.01-.03-.03-.05-.04-.04-.04-.11-.08-.11-.12-.01-.24,0-.49-.25-.65l.29.05s0-.03.01-.04c-.11-.05-.21-.1-.32-.15,0-.01,0-.03.01-.04.1.01.2.02.29.03,0-.03.02-.05.03-.08-.34-.2-.67-.4-.99-.58.11.01.25.03.39.04,0-.02.02-.05.03-.07-.16-.08-.33-.17-.54-.28h.71s0-.03.01-.05c-.27-.08-.53-.16-.8-.25,0-.01,0-.03,0-.04.25-.03.49-.07.74-.1,0-.03,0-.06,0-.08-.44-.14-.88-.28-1.32-.43,0-.02,0-.05,0-.07.55.05,1.09.11,1.64.17,0-.01,0-.02,0-.03-.4-.09-.81-.19-1.24-.28Zm5.88-7.52s.02.05.03.08c.25-.12.51-.23.76-.35,0-.02-.02-.04-.03-.07-.26.11-.51.22-.77.34Zm.89.17c-.34.24-.61.44-.88.63.12.11.2.17.3.26.29-.21.5-.46.58-.89Zm1.32,2.43s-.04-.01-.07-.02c-.1.19-.2.38-.3.56-.01,0-.03-.02-.04-.02.05-.44.11-.87.16-1.31-.04-.02-.07-.04-.11-.05-.02.07-.04.13-.06.2-.01-.01-.03-.03-.04-.04.04-.25.07-.5.11-.75-.03,0-.05-.01-.08-.02-.1.11-.2.21-.31.32-.13-.38.22-.51.39-.77-.21.08-.38.15-.54.21,0-.01-.01-.03-.02-.04.15-.14.31-.28.46-.42-.02-.02-.03-.04-.05-.06-.39.11-.78.21-1.03.58,0,0,0,.03.01.06.05-.01.11-.02.19-.04-.04.09-.07.14-.1.2.11-.04.21-.07.33-.12-.07.14-.12.24-.18.36.07-.02.11-.03.18-.06.05.66.1,1.3.15,1.92.07-.11.19-.26.3-.42-.01.11-.07.2-.08.29-.01.08.01.17.02.25.26-.04.15.19.2.3.05.11.06.23.09.35.03,0,.05,0,.08,0,.11-.49.22-.98.33-1.48Zm4.29-2.94c0-.06-.03-.2-.04-.33-.1-.92-.6-1.36-1.52-1.37-.44,0-.78.18-.84.6-.18,1.21-.21,1.52,1.03,1.93.16.05.34.08.51.08.54.02.87-.31.87-.92Zm-1.28-1.07c-.46-.24-.72-.11-.84.39-.03.15-.05.3-.07.41,0,.38.24.48.49.57.2.07.39.14.59.2.13.04.33.13.37.08.12-.14.28-.35.25-.51-.09-.48-.34-.9-.8-1.13Z"/>
  </g>
</svg>