<?xml version="1.0" encoding="UTF-8"?>
<svg id="Layer_2" data-name="Layer 2" xmlns="http://www.w3.org/2000/svg" viewBox="0 0 28.22 30.38">
  <defs>
    <style>
      .cls-1 {
        stroke-width: 0px;
      }
    </style>
  </defs>
  <g id="Layer_1-2" data-name="Layer 1">
    <path class="cls-1" d="m27.76,9.05c.18.3.3.62.45.93-.43-1.57-1.43-2.71-2.77-3.56-1.39-.88-2.9-.92-4.45-.61,2.41-.8,4.59-.41,6.49,1.34-.87-1.01-2.46-2.36-6.17-2.36,1.95-.25,3.8.02,5.52,1.07-.05-.08-.11-.13-.18-.17-.76-.49-1.57-.87-2.43-1.15-2.22-.71-4.25-.41-6.07,1.08-.04.03-.08.07-.12.1-.03.03-.07.05-.14.09.8-1.05,1.89-1.57,3.05-1.99l-.39.07c.08-.07.17-.12.27-.14.46-.13.93-.17,1.4-.12,1,.1,1.95.36,2.88.74.15.06.3.11.45.17.15.06.29.12.44.18-1.52-.78-3.08-1.38-4.84-1.23,1.02-.28,2.04-.13,3.11.07-2.87-1.17-5.17-.26-7.16,1.81.48-.71,1.08-1.31,1.76-1.81,1.3-.96,2.8-.95,4.31-.85-.84-.22-1.69-.19-2.54-.16.33-.06.66-.13.99-.19-1.17,0-2.26.34-3.33.78.91-.77,1.94-1.26,3.11-1.44-.2,0-.39,0-.58.02-.97.09-1.86.39-2.65.96-1.12.81-2.06,1.81-2.91,2.9-.04.06-.09.11-.14.16-.02-.02-.05-.04-.07-.05.36-.57.67-1.17,1.08-1.7.41-.54.91-1,1.36-1.5,0,0-.01-.02-.02-.03-.23.18-.47.36-.7.54-.02-.02-.03-.04-.05-.06.45-.4.91-.79,1.36-1.19-.08.03-.16.07-.24.11-1.14.7-1.96,1.71-2.62,2.86-.2.35-.42.69-.66,1.09.05-.54.18-1,.44-1.4.25-.39.53-.77.8-1.15-.02-.02-.05-.05-.07-.07-.34.34-.67.68-1.01,1.02,0-.04,0-.08.01-.15-.36.39-.48.85-.69,1.27.03-.16.06-.31.08-.47-.02,0-.05-.01-.07-.02-.12.41-.23.83-.36,1.27-.02-1.75.55-3.13,2.23-3.9-.83.11-1.37.63-1.85,1.25.85-1.66,2.29-2.64,3.9-3.45-.08,0-.15.02-.21.05-1.14.49-2.15,1.17-3.02,2.06-.7.72-1.21,1.55-1.49,2.52-.33,1.16-.56,2.32-.51,3.59-.56-1.97-.24-3.77.66-5.52-.37.6-.72,1.2-1.03,1.82-.31.63-.48,1.31-.6,2-.29-.6-.2-1.21-.09-1.82-.02,0-.03,0-.05-.01-.11.31-.23.63-.36.98.01-1.21.35-2.3.84-3.35-.57.95-.94,1.98-1.08,3.08-.15,1.11,0,2.19.54,3.19-.53-.65-.87-1.39-1.02-2.21-.07.42-.01.83.1,1.22.12.39.27.77.41,1.15-.02.01-.05.03-.07.04-.19-.32-.4-.63-.55-.97-.35-.78-.33-1.6-.19-2.43-.02,0-.04,0-.06-.01-.08.37-.15.74-.2.96v-2.3c-.08,1.59-.27,3.2.39,4.74-.18-.16-.35-.31-.53-.47.55,1.01,1.36,1.85,1.8,2.96-1.18-1.34-2.41-2.63-2.61-4.51-.06.76.13,1.46.43,2.15-.03.01-.05.02-.08.04-.2-.34-.4-.68-.59-1.01,0,0,0,0,0,.02,0,.04.01.07.02.11.12.59.44,1.07.8,1.53.24.3.37.65.46,1.02-.5-.48-.98-.96-1.28-1.6.07.27.14.53.26.77.34.7.88,1.25,1.44,1.79.4.39.79.81,1.18,1.21-1.07-.41-1.98-1.04-2.68-1.96-.02.02-.04.03-.05.05.27.35.53.71.83,1.1-.11-.09-.19-.15-.26-.21.36.62.97.95,1.59,1.35-.54-.02-.93-.24-1.29-.51-.36-.26-.69-.55-1.03-.83.03.11.1.19.16.26.62.71,1.36,1.25,2.2,1.68.35.18.69.4,1.04.6,0,0,0,.02-.02.02-.62-.27-1.24-.54-1.86-.81-.01.02-.03.04-.04.07.24.17.48.34.72.51,0,0,0,.01,0,.02-.4-.15-.8-.3-1.21-.45,0,.02-.02.04-.03.06.37.19.75.39,1.12.58-.58,0-1.07-.24-1.58-.46.05.05.1.09.16.12.72.5,1.53.79,2.36,1.03,1.42.42,2.73,1.02,3.76,2.12.88.95,1.5,2.02,1.72,3.31.17,1,.14,2.01.06,3.02-.04.48-.13.95-.38,1.37-.08.14-.18.26-.28.39-.04-.08-.05-.14-.04-.19.16-1.41.23-2.82.12-4.24-.09-1.07-.45-2.05-1.17-2.87-.62-.7-1.32-1.28-2.11-1.77-1.06-.65-2.19-.97-3.45-.78-.1.02-.21-.02-.37-.04.09-.05.12-.06.18-.09-.27-.1-.5-.19-.76-.29.08-.02.13-.03.19-.04,0-.02,0-.04,0-.06-.32-.04-.63-.09-.95-.13,0-.02,0-.03,0-.05h.46s0-.04.01-.06c-.22-.08-.45-.16-.71-.25.15-.06.26-.1.4-.15-.17-.09-.32-.17-.42-.22-.2.1-.39.19-.58.28,0-.02-.02-.04-.03-.06.08-.05.17-.1.27-.17-.14-.04-.24-.08-.34-.11.05-.07.08-.11.12-.16-.08-.03-.15-.05-.23-.07.04-.05.07-.08.11-.13-.07-.03-.12-.06-.21-.11.07-.04.12-.06.19-.1-.08-.04-.11-.06-.14-.08.06-.09.11-.17.18-.26h-.16c.04-.12.09-.23.14-.38-.12.06-.2.1-.29.14-.02-.36.32-.62.25-.99-.09.02-.16.04-.28.07.07-.3.13-.58.2-.88-.28.19-.53.36-.82.56.2-.42.39-.82.6-1.24-.1.08-.18.14-.26.2-.01-.01-.02-.02-.03-.04.15-.2.29-.4.44-.6-.07.02-.13.07-.18.11-.57.52-.91,1.17-1.06,1.91-.18.9-.78,1.41-1.51,1.83-.25.15-.33.08-.33-.21,0-.48.07-.94.29-1.4-.07.04-.1.06-.14.07.04-.82.61-1.34,1.11-1.88-.5.36-.87.84-1.18,1.38-.02-.05-.02-.09,0-.12.12-.33.24-.65.36-.98,0-.02-.03-.05-.04-.08-.11.19-.21.39-.32.58-.02,0-.03-.02-.05-.02.1-.2.21-.41.31-.61.13-.19.26-.38.39-.58-.16.12-.28.25-.38.41-.43.65-.68,1.38-.87,2.12-.23.89-.64,1.65-1.3,2.29-.42.41-.79.88-1.09,1.38-.56.93-.71,1.97-.61,3.04.02.23-.03.39-.21.56-.15.14-.25.32-.36.5-.03.05-.02.17.02.22.15.21.33.41.64.37.06,0,.15,0,.18.03.29.34.64.28,1,.17.08-.02.16-.05.24-.08-.04.32.01.37.32.39.49.02.95-.08,1.41-.24.39-.14.76-.28,1.19-.26.79.03,1.23.35,1.43,1.11.02.06.04.12.07.23.27-.99-.03-1.61-1.1-2.3.16.02.29.03.42.05.45.09.81.3,1,.75.42,1.04-.27,2.24-1.41,2.35-.55.06-.93.33-1.28.69-.08.09-.16.27-.12.36.04.13,0,.19-.04.29-.07.19-.15.39-.16.6,0,.2.04.4.11.59.05.14.15.28.27.37.13.1.31.15.47.22,0-.08,0-.16.01-.25.24.05.51-.04.64.27.05-.29-.26-.32-.37-.51.26-.07.42.07.61.17.02-.19-.08-.28-.19-.38-.09-.08-.18-.19-.2-.31-.12-.54.5-1.09,1.06-.92.23.07.39.02.59-.03-.05.06-.09.11-.17.2.19-.07.32-.13.46-.17.12-.03.26-.04.39-.06,0,.02,0,.03,0,.05.11-.05.22-.11.38-.18-.24.66-.29,1.28-.13,1.91.18.73.59,1.44.91,1.61-.35-.55-.61-1.13-.49-1.81-.04.1-.07.2-.11.3-.01,0-.03,0-.04,0,.02-.3.03-.6.05-.9-.03.03-.07.08-.12.13-.02-.35.02-.51.21-.78.07-.1.09-.19-.02-.31.07-.09.16-.2.26-.33-.06,0-.11.01-.17.02.63-.95,1.44-1.67,1.91-1.66-.05.11-.1.21-.14.3.27-.12.53-.25.79-.37-1.23.6-1.83,1.66-2.13,2.92-.32,1.32.22,2.43.91,3.5-.26-.14-.5-.29-.74-.43-.21-.12-.36-.1-.49.1-.08.12-.16.14-.28.14-.08,0-.16.06-.24.1,0,.02,0,.05.01.07.14.04.28.08.46.14-.1,0-.17,0-.23,0-.21.04-.46.02-.63.13-.22.13-.44.19-.68.26-.27.08-.58.57-.55.87.12-.18.17-.41.42-.47.03.09.06.15.09.23.09-.05.16-.08.23-.12,0,.29,0,.28.27.22.08-.02.17-.02.26-.02-.24.15-.48.28-.56.64.26-.15.44-.38.75-.26v.28s.02,0,.03,0c.04-.09.09-.18.11-.23.09.01.14.04.18.02.13-.03.24-.1.37-.11.82-.08,1.63-.17,2.45-.21.62-.03,1.25,0,1.87.03.56.02,1.13.07,1.69.08.23,0,.46-.08.69-.12,0-.02,0-.05,0-.07-.11-.05-.22-.1-.37-.17.07-.03.1-.06.12-.06.26.07.44-.08.63-.22.05-.04.13-.07.18-.05.2.07.31-.05.43-.17.41-.4.88-.7,1.46-.76.37-.04.75-.05,1.13-.07.36-.02.72-.07,1.05-.25-.46.07-.92.11-1.4,0,.71-.17,1.4-.31,2.08-.51.69-.2,1.29-.57,1.8-1.08-.04,0-.08.03-.11.05-.57.4-1.16.75-1.85.88-.31.05-.62.07-.91-.06.36-.12.7-.24,1.05-.36-.07-.04-.12-.03-.18-.03-.05,0-.11,0-.17,0,1.04-.44,1.82-1.18,2.43-2.11-.59.65-1.23,1.22-2.03,1.57.49-.53,1-1.05,1.47-1.61.47-.55.87-1.16,1.2-1.81-.8,1.15-1.68,2.21-2.94,2.88.22-.27.46-.52.69-.78.11-.12.28-.27.27-.39-.01-.2.13-.25.21-.36.18-.23.38-.44.56-.67.1-.13.19-.28.29-.42-.01,0-.02-.02-.03-.02-.18.14-.35.29-.53.43-.02-.02-.04-.03-.06-.05.96-1.26,1.43-2.7,1.57-4.25-.25,1.37-.81,2.58-1.8,3.59.34-.74.91-1.37,1.04-2.21-.16.25-.32.49-.47.73.09-.41.24-.78.35-1.17.11-.4.2-.8.24-1.21.04-.39,0-.79,0-1.19-.08.69-.18,1.36-.58,2,.2-1.12.14-2.18-.11-3.24,0,1.03-.11,2.04-.44,3.02,0-.35.02-.7.03-1.04,0-.35,0-.7-.01-1.05-.02-.35-.06-.69-.12-1.04-.06-.33-.14-.66-.22-.99-.01,0-.02,0-.03.01v1.64s-.02,0-.03,0c-.19-.66-.39-1.32-.59-2.03-.01.19-.02.33-.03.52-.25-.66-.48-1.28-.71-1.89,0,0-.02,0-.03.01.12.74.25,1.47.37,2.21-.03,0-.06.02-.09.02-.26-.75-.56-1.49-.76-2.26-.19-.77-.06-1.53.45-2.18.37-.48.87-.64,1.45-.54.52.09.87.41,1.03.92.21.64-.21,1.18-.86,1.14-.03,0-.06,0-.13,0,.08.09.14.16.19.23-.03.03-.06.05-.11.09.16.07.3.14.43.2-.04.05-.06.09-.09.13.52.1,1-.04,1.4-.45.47-.47.77-1.06.98-1.67.13-.37.09-.79.13-1.16.47.43.57,1.02.46,1.68.02,0,.04,0,.06,0,.07-.24.15-.49.23-.76.28.46.19.91.02,1.36.41-.32.43-.79.48-1.28.38.54.28,1.21-.26,1.95.56-.3.69-.82.86-1.33.07.75-.21,1.35-.74,1.84-.1.09-.24.14-.37.17-.23.05-.49.06-.65-.13-.11-.12-.13-.31-.18-.45-.19.25-.14.6.17.81.23.16.49.22.77.16.54-.11.94-.42,1.17-.91.3-.63.39-1.31.29-2-.06-.38-.18-.75-.26-1.09.52.53.78,1.21.84,1.99.03-.23.03-.44,0-.66-.08-.63-.32-1.2-.56-1.78-.04-.08-.05-.18-.07-.26.02,0,.03-.01.05-.02.14.15.29.31.43.46.01-.01.03-.02.04-.04-.07-.14-.14-.28-.21-.42-.06-.13-.12-.26-.18-.4.03-.01.05-.02.08-.03.39.75.78,1.5.86,2.36.06-.92-.25-1.74-.67-2.54-.43-.8-1.03-1.45-1.71-2.04.81.22,1.38.74,1.85,1.4.47.65.81,1.36,1,2.14-.14-1.2-.7-2.22-1.33-3.22.26.24.51.48.73.75.22.27.43.56.61.87ZM2.42,18.93c.14-.04.3-.16.4-.12.48.18.93.2,1.36-.12-.36.47-1.02.59-1.77.23Zm.25-.81c-.12.15-.2.32-.3.48-.02-.42.19-.85.55-1.21.31-.02.53-.01.74-.04.44-.07.43-.06.54.37.04.16.21.28.38.51-.16-.04-.33-.03-.4-.11-.45-.55-1.08-.56-1.52.01Zm2.61,2.35c-.32-.06-.63-.13-.95-.19,0-.03.01-.07.02-.1l.95.22s-.01.05-.02.07Zm-.71,4.4c.07.22.15.46.23.69-.25-.19-.32-.39-.23-.69Zm3.94,4.27s0-.05,0-.08c.32-.03.64-.07.96-.1,0,.03,0,.05,0,.08-.32.04-.64.07-.96.11Zm9.72-17.4c.07-.49.32-.94.71-1.28-.24.42-.48.87-.71,1.28Zm.91,3.92c-.42-.93-.86-1.86-.78-2.92.04-.55.23-1.04.63-1.43-.8,1.48-.38,2.92.15,4.35Zm4.41-3.99c-.11-1.32-.29-1.65-1.3-2.55.91.03,1.73,1.65,1.3,2.55Z"/>
  </g>
</svg>