<?xml version="1.0" encoding="UTF-8"?>
<svg id="Layer_2" data-name="Layer 2" xmlns="http://www.w3.org/2000/svg" viewBox="0 0 31.6 33.94">
  <defs>
    <style>
      .cls-1 {
        stroke-width: 0px;
      }
    </style>
  </defs>
  <g id="Layer_1-2" data-name="Layer 1">
    <path class="cls-1" d="m31.54,6.69s-.02-.06-.09-.13c-.07-.07-.12-.14-.11-.15s-.01-.05-.06-.09c-.08-.07-.11-.16-.04-.12.07.04.04,0-.05-.08-.07-.06-.08-.06-.03,0,.04.05.04.07,0,.07-.02,0-.05-.01-.05-.03-.01-.11-.04-.17-.08-.22-.13-.14-.23-.26-.2-.26.02,0,.07.04.12.1.05.05.11.09.13.07.02-.01.03,0,.01.02-.02.03.01.06.08.09.16.06.16.05,0-.12-.08-.09-.17-.16-.19-.16-.03,0-.29-.21-.39-.31-.39-.41-.49-.53-.39-.46.02.01.05,0,.06-.05.02-.05,0-.09-.06-.14-.05-.04-.07-.07-.06-.07s0-.02-.03-.06c-.03-.03-.06-.05-.08-.04-.01,0-.06-.02-.1-.07-.07-.08-.07-.08,0-.03.14.11.26.07.12-.04-.03-.03-.05-.06-.04-.07.01-.01.07.03.14.08.07.06.14.1.16.08.02-.01.06.01.09.05.04.05.04.06,0,.04-.03-.02-.05,0-.05.03,0,.04.02.05.04.04.05-.03.36.24.32.28-.01.01,0,.01.05,0,.06-.02.04-.05-.12-.2-.11-.09-.17-.17-.14-.17.03,0,.05.01.05.03s.07.07.15.11.21.12.28.17c.09.07.13.08.13.04,0-.04,0-.04.04,0,.02.03.04.04.04.02,0-.05-.24-.26-.31-.26-.03,0-.05-.02-.05-.04s-.02-.03-.04-.02c-.02.01-.06,0-.08-.04-.03-.03-.06-.05-.08-.04-.02.01-.04-.02-.04-.06,0-.06-.03-.08-.08-.08-.05,0-.08-.03-.08-.06,0-.04-.02-.06-.06-.04-.04.01-.05,0-.04-.03.01-.03-.02-.08-.06-.11-.05-.03-.08-.08-.08-.11s-.07-.1-.16-.16c-.08-.05-.07-.12-.11-.18-.02-.01-.03.01-.05-.02-.02-.04-.02-.07,0-.07-.01-.04-.06-.05-.07-.11,0-.03-.02-.06-.04-.06s-.03.03-.02.06c.04.1-.06.06-.13-.05-.03-.06-.05-.07-.04-.03.02.06.01.07-.03.03-.03-.02-.07-.03-.08-.02-.01.01-.05,0-.09-.02-.03-.03-.06-.03-.06-.02s-.02,0-.04-.03c-.02-.04-.09-.08-.16-.09-.07-.02-.12-.05-.12-.09,0-.04-.02-.05-.06-.04-.03.01-.06,0-.06,0s-.04-.05-.09-.08q-.09-.05,0-.02c.28.06.33.07.31.04-.02-.02-.07-.04-.12-.05-.05,0-.1-.03-.11-.05-.01-.02-.08-.05-.14-.06-.07-.02-.12-.05-.12-.09s.01-.05.02-.05c.01,0,.13.06.26.12.13.06.25.14.28.17.05.06.38.24.55.3.1.03.11.03.06-.02-.03-.03-.07-.06-.1-.06s-.05-.02-.05-.04-.02-.03-.04-.02-.05,0-.06-.04c-.03-.07.01-.08.11,0,.04.03.1.05.12.05.02,0,.06.05.09.1.03.06.07.1.1.1.03,0,.03-.01,0-.05-.08-.08-.05-.13.03-.05.04.04.07.08.06.1s0,.04.02.06c.02.01.03-.01.02-.06,0-.04,0-.08.02-.08s.04.03.04.06.02.06.05.06.07.02.1.05.08.05.11.06c.04,0,.1.03.15.05.11.06.27.11.3.11.01,0,.05.02.08.05.07.06.32.1.29.05-.01-.02-.04-.04-.06-.04s-.11-.04-.2-.08-.2-.08-.25-.08-.1-.02-.11-.04-.06-.04-.1-.04-.08-.02-.08-.04-.02-.03-.04-.02c-.02.01-.06,0-.08-.04-.04-.05-.02-.05.12,0,.1.03.21.07.25.08s.13.04.19.06c.06.02.12.03.13.02.02-.02-.18-.12-.23-.11-.02,0-.03-.01-.03-.04s-.01-.03-.03-.02-.06,0-.11-.03c-.05-.03-.18-.09-.29-.13-.11-.04-.24-.11-.27-.15-.06-.07-.06-.07.07-.03.07.02.16.06.2.08.09.05.13,0,.04-.06-.08-.05-.32-.11-.55-.14-.03,0-.04-.02-.01-.05s.06-.02.09,0c.04.04.08.03.16,0,.08-.04.09-.06.04-.08-.03-.01-.06,0-.06.02s-.05.01-.12-.02c-.07-.04-.11-.08-.09-.11.02-.03.03-.03.04,0,0,.03.04.05.08.05.05,0,.05-.01.01-.06-.06-.07-.12-.08-.17,0-.04.05-.09.04-.4-.05-.2-.06-.36-.11-.37-.12-.04-.04.04-.05.12-.02.17.06.4.09.37.05-.01-.02-.09-.05-.16-.07-.22-.04-.2-.09.03-.07.14.01.24.05.3.11.07.06.09.07.07.02-.02-.05,0-.07.11-.08h.13s-.12-.06-.12-.06c-.11-.05-.31-.08-.47-.09-.04,0-.13-.04-.2-.08l-.13-.08.16.03c.09.01.23.03.32.03.1,0,.15.02.12.04-.03.02-.03.03.01.02.09-.02.07-.16-.02-.18h-.08s.08.03.08.03c.07.03.06.04-.05.04-.15,0-.14-.05.03-.11.07-.02.11-.03.1,0-.01.02.01.04.05.04s.11.01.15.02c.05.01.04,0-.02-.03-.05-.03-.08-.07-.06-.08.02-.02.01-.03,0-.03s-.08-.01-.13-.02c-.05,0-.19,0-.3.02-.14.03-.2.03-.21,0,0-.02-.07-.04-.14-.05s-.17-.02-.22-.04c-.07-.02-.03-.03.13-.02.14.01.22,0,.21-.02-.01-.02-.05-.03-.08-.02-.03.01-.07,0-.08-.02-.01-.02,0-.04.02-.04s.04,0,.03-.02-.1,0-.21.04c-.22.07-.66.11-.58.06.03-.02.12-.04.2-.04.2,0,.31-.05.35-.09-.02,0-.04-.01-.05-.02-.02-.04-.38.01-.49.07-.1.05-.53.1-.44.05.03-.02.13-.05.22-.06.19-.03.49-.15.49-.19,0-.04-.48,0-.59.04-.09.04-.09.04-.01.04.05,0,.09-.02.1-.04,0-.03.04-.03.07-.01.08.05-.03.1-.28.12-.15.01-.18,0-.11-.01.07-.02.08-.04.03-.04-.04,0-.07-.02-.07-.05,0-.06-.17,0-.21.07-.04.07-.11.07-.08,0,.01-.03,0-.06-.03-.06-.03,0,.04-.03.16-.06.24-.06.41-.15.24-.12-.33.06-.51.11-.49.15.01.02-.02.04-.07.03-.09,0-.09,0-.01-.05.08-.04.08-.05-.02-.07l-.1-.02.11-.02c.07-.01.1,0,.08.02-.02.02,0,.03.05.02.04-.01.18-.05.31-.09.13-.04.26-.08.3-.09.03-.01.12-.03.2-.04.08,0,.16-.04.2-.07.03-.03.13-.09.21-.13.08-.04.14-.09.12-.1-.02-.01-.08,0-.15.04-.06.03-.14.06-.17.06-.03,0-.05.02-.03.05.02.03,0,.04-.04.02-.04-.01-.11,0-.16.02-.08.05-.34.15-.38.15-.04,0,.25-.21.3-.22.07,0,.23-.17.17-.17-.02,0-.06.03-.09.06-.02.03-.1.06-.16.07s-.14.03-.17.06c-.03.03-.09.05-.13.05s-.07.02-.05.04c.01.02,0,.03-.04.02-.03-.01-.06-.04-.06-.06s.01-.03.03-.02c.02.01.06-.02.09-.06.08-.11.25-.27.29-.27.02,0,.06-.03.09-.06s.04-.06.02-.06-.05.02-.08.04c-.02.02-.07.05-.1.05-.12.02-.39.17-.36.2.02.02,0,.02-.02,0-.03-.02-.1,0-.16.04-.09.06-.1.06-.06,0,.03-.03.04-.07.02-.08-.04-.02-.18.07-.15.1,0,0-.02.04-.06.07-.07.05-.08.04-.04-.03.06-.11.05-.13-.03-.08-.05.03-.07.07-.05.12.01.05,0,.08-.06.1-.05.01-.08.03-.08.05s-.05.06-.12.1c-.07.04-.12.06-.12.04,0-.03.05-.07.25-.2.09-.06.1-.08.04-.1-.04-.01-.1,0-.13.02-.06.04-.06.04,0-.02.03-.04.07-.06.1-.06.02,0,.08-.02.14-.06s.11-.06.14-.05c.03,0,.08-.03.13-.09.18-.25.27-.33.31-.3.03.02.02,0-.01-.05-.03-.04-.04-.06,0-.04.03.02.05,0,.05-.02,0-.03.02-.02.04.03.02.04.04.06.04.03s-.02-.09-.04-.13c-.04-.07-.05-.07-.14.04-.05.06-.1.13-.1.16s-.02.05-.05.07c-.03.02-.04,0-.02-.05.02-.06.01-.06-.04.01-.03.05-.09.09-.13.09-.04,0-.12.04-.18.1s-.13.1-.15.1-.03.02-.03.05c0,.05-.21.31-.44.56-.14.15-.14.15-.17.06-.05-.17-.05-.23,0-.19.03.02.05.07.05.11,0,.06,0,.06.04,0,.05-.08.05-.13,0-.1-.09.05-.03-.05.11-.2.08-.09.15-.14.16-.11,0,.03.03.04.06.02.03-.02.02-.04,0-.05-.03-.02,0-.08.12-.2.09-.09.14-.16.1-.14-.1.03-.09-.02.05-.21.13-.18.12-.29,0-.12-.11.15-.25.28-.27.26,0,0,.06-.12.15-.24.17-.23.17-.28,0-.12-.11.1-.22.26-.2.31,0,.02,0,.02-.03,0-.02-.01-.07.03-.11.1-.04.07-.08.12-.1.12-.06,0-.03-.06.07-.17.1-.11.1-.12.03-.18-.07-.06-.07-.06-.04,0,.01.04,0,.06,0,.05-.02-.01-.05.02-.06.07-.02.06-.03.07-.05.04-.01-.03,0-.08.03-.11.06-.07.09-.37.04-.37-.02,0-.04.02-.04.05,0,.04,0,.04-.02,0-.01-.03-.04-.02-.1.04l-.08.09.02-.15c.03-.18-.02-.16-.12.05-.04.09-.1.16-.13.16-.06,0-.07-.06,0-.1.02-.01.04-.05.03-.09,0-.06,0-.06-.02,0-.01.04-.03.07-.05.07s-.05.05-.08.12-.06.12-.08.12c-.05,0-.09-.14-.04-.15.06-.02.05-.09-.01-.09-.03,0-.06-.03-.07-.07-.01-.04-.02,0-.02.08,0,.19-.08.2-.08.01s-.1-.19-.11,0c0,.08.01.14.03.14s.04.03.04.07c0,.06,0,.06-.04,0-.03-.04-.04-.02-.04.09,0,.08-.02.14-.04.13s-.03-.15-.02-.3,0-.28-.02-.28-.02-.04-.01-.08c.03-.12-.02-.09-.06.04-.02.07-.03.11,0,.1.02-.01.03,0,.01.04s-.03.05-.05.05c-.01,0-.03.04-.04.11,0,.07-.05.25-.11.4l-.1.28.02-.26c.01-.18,0-.23-.02-.18-.02.04-.04.15-.05.24,0,.1-.01.12-.03.07,0-.05-.04-.08-.06-.06-.03.02-.03-.02-.02-.14.01-.09,0-.17,0-.18-.02-.01-.04.14-.05.34,0,.23-.03.37-.06.39-.03.02-.07.1-.09.19l-.04.16v-.16c.02-.09.05-.25.08-.35.04-.15.04-.24,0-.42-.05-.24-.12-.35-.12-.21,0,.05-.03.14-.06.22l-.06.13.02-.18c.01-.1.03-.2.04-.23,0-.03-.01-.05-.05-.04-.05,0-.06-.01-.06-.06,0-.04,0-.07-.03-.07-.05,0-.12.21-.13.35,0,.09-.01.08-.03-.04-.02-.08-.03-.1-.03-.06,0,.04-.03.12-.06.16s-.06.09-.06.12c0,.02.02.01.04-.02.03-.05.04-.05.04,0,0,.04-.03.08-.06.09-.06.02-.06,0-.04-.15.01-.1,0-.18-.01-.18s-.03-.03-.01-.06c.01-.03,0-.06-.02-.06s-.05.02-.05.05c0,.03-.01.07-.02.09s-.01.08-.01.13c0,.13-.08.06-.08-.08,0-.08-.02-.11-.04-.09-.03.02-.04,0-.02-.06.01-.05,0-.08-.01-.08-.03,0-.07.37-.08.75,0,.03-.02.19-.04.36-.02.16-.03.31-.02.33,0,.02,0,.03-.02.03-.03,0-.04-.16-.04-.45,0-.27-.01-.42-.04-.39-.02.04-.05-.02-.08-.18-.05-.24-.11-.41-.12-.3,0,.04-.02.04-.05.01-.04-.03-.05,0-.04.12v.17s-.05-.16-.05-.16c-.06-.15-.06-.15-.04.2l.02.36-.07-.16c-.04-.09-.08-.19-.08-.23,0-.08-.07-.13-.09-.06,0,.03,0,.16.03.29.07.32.07.36,0,.3-.03-.02-.08-.13-.1-.22-.11-.38-.14-.2-.05.27.03.17.05.32.04.33s-.06-.11-.11-.26c-.05-.15-.11-.28-.12-.28s-.02-.02,0-.05c.01-.03,0-.11-.04-.19-.06-.13-.06-.13-.04.2l.02.34-.08-.23c-.09-.25-.14-.25-.16,0,0,.09-.03.15-.05.14-.02-.01-.02,0,0,.03.03.03.05.09.05.14s.02.15.05.22c.08.19.12.39.07.39-.02,0-.07-.1-.11-.22-.04-.12-.08-.22-.1-.22s-.03-.11-.03-.25c-.01-.32-.02-.35-.05-.32-.05.05-.08.33-.05.33.02,0,.04.06.04.13,0,.12,0,.12-.08-.07-.11-.28-.17-.32-.13-.1.02.12.02.17-.02.15-.08-.05-.05.1.09.41.08.17.14.35.14.4,0,.14-.18-.28-.27-.62-.05-.18-.09-.28-.13-.29-.05,0-.05.02-.03.17.02.1.06.25.1.33.04.08.07.16.06.18s.06.22.14.45c.12.37.14.43.09.52l-.05.1-.13-.14c-.07-.08-.13-.17-.13-.21s-.01-.05-.02-.04c-.01.01-.08-.05-.14-.13-.06-.09-.13-.16-.15-.16s-.04-.04-.06-.08c-.01-.05-.05-.08-.09-.07-.05,0-.07-.01-.07-.06,0-.04-.01-.06-.03-.05-.02.01-.05-.01-.06-.06-.02-.08-.09-.12-.2-.15-.04,0-.03.02,0,.1.08.15.07.18,0,.11-.03-.03-.09-.06-.12-.06-.04,0-.04,0,0,.07.04.06.03.09,0,.12-.03.03-.04.03-.03,0,.01-.02,0-.07-.04-.1-.06-.05-.06-.05-.01.02.04.06.04.07,0,.07s-.04.01,0,.05c.03.03.05.08.05.12s.02.06.04.05c.02-.01.03,0,.02.04-.03.08-.04.08-.2-.04-.11-.09-.13-.09-.11-.03.01.04.09.14.17.22.08.08.2.24.26.36.11.22.1.22-.06.02-.09-.11-.09-.11-.07-.02.01.05.03.12.03.15,0,.03.02.04.05.02.03-.02.04-.01.02,0s0,.08.05.15c.05.06.07.12.06.13s-.08-.07-.16-.18c-.08-.11-.16-.2-.18-.2s-.03-.03-.03-.06c0-.03-.01-.06-.03-.06-.05,0-.11-.12-.09-.16.01-.02-.02-.07-.07-.11l-.09-.07.08.09c.08.09.04.12-.06.04-.05-.04-.05-.04,0,0,.08.09.06.14-.03.06-.04-.04-.08-.06-.08-.04,0,.02-.02,0-.04-.02-.02-.04-.04-.04-.04-.01,0,.03.02.06.04.07.02.01.06.06.08.11.03.06.03.08,0,.05-.04-.02-.04-.01-.03.03.03.08-.01.09-.09.02-.04-.04-.05-.04-.02,0,.02.03.06.1.09.14s0,.03-.06-.03c-.08-.07-.14-.1-.17-.07-.03.02-.04.04-.01.06.02.01.05,0,.06-.02.01-.02.02-.02,0,0s-.04.05-.09.04c-.07,0-.07,0-.01.04.13.1.38.51.27.44-.02-.01-.04-.05-.04-.08s-.04-.08-.08-.12c-.08-.08-.11-.03-.03.05.03.03.04.06.02.07s-.09-.04-.17-.13c-.08-.08-.13-.13-.12-.09.02.04,0,.06-.04.06-.03,0-.06-.02-.06-.04s-.02-.02-.05,0c-.03.02-.06.03-.08.02s-.03,0-.03.04.04.08.1.1c.05.02.1.05.1.06s-.02.01-.04,0c-.1-.06-.02.06.14.21.21.2.22.26,0,.08-.08-.07-.15-.11-.15-.09,0,.04.16.21.2.21.04,0,.16.11.25.26.05.07.08.1.09.07.01-.04.03-.03.07.02.04.05.04.08,0,.1-.03.02-.01.06.05.13.11.12.08.19-.04.08-.04-.04-.08-.06-.08-.04s-.05-.01-.11-.07c-.06-.06-.14-.12-.18-.14s-.15-.11-.25-.21c-.23-.22-.27-.19-.06.03.11.11.13.15.07.12-.05-.03-.1-.07-.12-.09-.02-.03-.05-.02-.1.02-.07.05-.07.05-.02-.01.03-.04.04-.07.03-.07s-.05-.01-.08-.02c-.05-.02-.06,0-.05.05,0,.04.03.1.04.12.02.03,0,.05-.03.05-.03,0-.07-.02-.08-.03-.01-.02-.06-.04-.1-.06-.16-.04.32.37.57.49.13.06.23.12.2.12-.02,0,.04.05.14.12.1.07.16.12.14.12-.05,0-.42-.23-.45-.28-.01-.02-.07-.05-.13-.07-.07-.03-.1-.03-.08,0,.02.03-.01.03-.08.02-.07-.02-.1,0-.1.02s-.03.03-.1-.02c-.06-.04-.11-.06-.12-.05,0,0,.04.05.1.09.12.08.15.14.08.14-.02,0-.05-.02-.06-.04-.01-.02-.05-.03-.08-.02-.03.01-.05.04-.04.06.02.04-.12.12-.15.09-.01-.01-.05-.01-.09,0-.06.02-.05.04.03.1.05.04.12.08.14.08s.04.01.04.03.13.08.3.15c.34.13.35.17.02.07-.43-.12-.64-.17-.61-.14.05.05.76.31.93.34.08.01.18.05.22.08.06.04.04.04-.13,0-.11-.03-.33-.09-.49-.12-.16-.04-.34-.09-.39-.12-.05-.03-.1-.05-.11-.04-.03.03.14.17.3.24.07.03.13.08.13.11,0,.04,0,.04-.03,0-.04-.06-.27-.11-.3-.06-.01.02-.06.03-.09.02s0,.02.08.06c.18.1.18.11.04.09-.09-.01-.1,0-.03.02.08.04.07.04-.01.04-.05,0-.08.02-.07.04.01.02.06.03.1.02.04-.01.08,0,.1.04.02.05,0,.06-.07.06-.06,0-.1.02-.1.06,0,.05.08.1.33.19.04.01.07.03.06.04-.01.01-.29.05-.4.06-.02,0-.02.02,0,.04s.04.03.06.02c.02-.01.04,0,.04.02s.08.05.18.07.19.04.2.06.08.04.15.04c.07,0,.1.01.05.02-.04.01-.15,0-.25-.03s-.22-.03-.26-.02c-.1.03-.13.02.5.17.19.05.34.09.33.1-.01.01-.18,0-.39-.04s-.41-.06-.47-.06h-.1s.12.06.12.06q.12.05.02.07c-.06,0-.1.04-.11.09-.01.06,0,.07.05.05.03-.01.06-.02.06,0s-.04.04-.09.06c-.08.03-.07.04.07.04h.16s-.16.04-.16.04c-.13.02-.15.03-.07.06.06.02.08.05.06.09-.01.03,0,.05.01.04.02-.01.13.01.25.05l.22.07h-.22c-.33,0-.33,0-.28.06.02.03.1.07.17.09.28.07.33.09.14.08-.11-.01-.18,0-.17.02.01.02,0,.04-.03.05-.03,0-.01.01.04,0,.07-.01.08,0,.06.05-.02.06.02.07.39.08.06,0,.12.02.13.03.02.02-.1.03-.26.02-.17,0-.3.01-.33.04-.03.03-.03.05,0,.05.03,0,.04.02.03.04-.03.04.15.1.27.09.05,0,.07.01.05.05-.02.04.04.06.24.08.61.06.71.09.21.08-.33-.01-.47,0-.42.02.07.03.06.04-.07.04-.14,0-.27.08-.13.08.03,0,.06.02.06.04s-.02.04-.04.04,0,.04.06.08c.06.05.09.1.08.12-.01.02.01.04.06.04.05,0,.1.04.12.09.03.07.04.07.04.02,0-.08.12-.09.34-.03.11.03.1.03-.07.03-.18,0-.27.08-.1.09.08,0,.08,0-.03.06l-.12.05h.11c.14,0,.14.07.01.1-.12.03-.1.12.03.16.05.01.07.03.04.05-.09.04.08.17.21.17s.18.06.07.1c-.1.04.03.13.28.2.29.07.45.14.45.18s-.26.09-.31.06c-.02-.01-.04-.01-.04,0s.09.06.2.08c.11.03.26.1.34.17.08.06.17.12.21.12s.12.06.18.14c.15.18.31.33.35.33.02,0,.03.02.03.04s-.06.05-.14.06c-.17.03-.18.08-.01.15.09.04.13.08.13.14,0,.07.07.14.26.26.34.23.35.24.2.28l-.13.03.36.27c.41.31.53.46.37.46-.04,0-.01.04.09.11.15.11.14.18-.02.09-.08-.04-.07-.03.03.16.12.22.23.35.47.54.17.14.08.11-.19-.06l-.15-.1.08.12c.1.14.1.17.02.17-.09,0-.04.17.11.42.07.11.16.3.2.42.04.12.1.26.14.31s.08.17.11.26c.02.09.06.2.07.25.02.07.02.08-.04.06-.06-.02-.06,0-.04.09.04.16.05.17.13.17.05,0,.05,0,.02.03-.04.02-.03.07.04.23.05.11.09.27.1.35.04.61.07.88.12.96.09.14.07.17-.06.13-.24-.07-.53-.26-.78-.52-1.18-1.22-3.21-2.23-4.83-2.42-.78-.09-1.95-.05-2.51.08-.13.03-.44.1-.69.15-.25.05-.7.18-.99.28-.66.23-1.08.29-1.82.29-.88,0-1.18-.09-1.58-.47-.12-.11-.23-.2-.26-.2-.02,0,0-.02.04-.04.07-.03.07-.03.01-.04-.04,0-.07-.02-.07-.04s-.07-.06-.15-.1c-.12-.06-.14-.08-.08-.1.06-.02.04-.05-.13-.15-.11-.07-.19-.14-.18-.16.01-.02-.13-.15-.32-.29-.52-.38-.57-.43-.55-.46,0-.02-.03-.06-.1-.11-.13-.09-.15-.14-.05-.14.04,0,0-.05-.1-.12-.09-.07-.16-.14-.15-.17.02-.05-.22-.23-.3-.23-.02,0-.04-.02-.04-.03s-.08-.08-.17-.13l-.17-.09.2-.4-.13-.34c-.09-.24-.17-.38-.29-.49-.34-.33-.43-.39-.66-.39-.14,0-.35.09-.33.13.01.02,0,.02-.04.01-.04-.01-.1.03-.16.12-.11.15-.18.15-.18.01,0-.15-.16-.61-.23-.68-.04-.03-.11-.07-.17-.08s-.12-.02-.14-.03c-.09-.03-.36.06-.45.14-.25.23-.35.71-.28,1.31.07.61.07.59-.04.6-.05,0-.22.02-.36.03-.39.03-.63.07-.66.11-.01.02-.04.03-.06.01-.05-.03-.31.06-.4.13-.03.03-.08.05-.11.05s-.1.03-.17.07c-.1.06-.12.06-.15.01-.03-.05-.05-.04-.12.05-.05.06-.11.1-.14.09-.03-.01-.05,0-.05.02s-.04.06-.08.08c-.07.04-.09.03-.12,0-.02-.04-.03-.03-.03.04,0,.08,0,.09-.06.04-.05-.04-.06-.04-.08.03-.01.05-.04.08-.05.07-.02-.01-.04,0-.06.04-.02.05-.04.05-.08.01-.05-.04-.06-.03-.06.04,0,.11-.06.19-.2.27-.06.03-.11.09-.13.13-.01.06-.04.07-.1.06-.05-.01-.08,0-.08.03,0,.06-.19.25-.23.22-.01-.01-.04.04-.07.11-.02.07-.07.15-.11.18s-.16.2-.27.38c-.12.19-.25.37-.29.42-.05.05-.06.11-.05.14.02.03.02.04,0,.02-.05-.04-.24.24-.31.46-.08.24-.03.46.15.64.15.15.46.26.49.18,0-.03.07.05.13.19.12.25.42.55.59.58.05,0,.12.04.15.07.04.03.08.05.11.04.02,0,.09.05.15.12.06.08.15.19.21.25s.14.16.19.22c.05.06.11.11.12.1.02,0,.04,0,.05,0,.05.02.29.04.56.04.45,0,.84.04.93.09.02.02.25.05.49.09.32.04.48.08.56.14.06.04.14.08.17.08.12,0,.22.08.32.28.12.23.12.28.02.47-.04.08-.1.29-.14.47s-.1.41-.14.53c-.04.12-.08.24-.08.27s-.06.11-.12.17c-.09.08-.12.13-.1.19.02.07-.09.18-.14.14,0,0-.2.16-.43.38-.33.31-.44.4-.56.42-.1.02-.15.05-.15.09,0,.07-.31.2-.47.2-.04,0-.17-.07-.27-.15-.33-.26-.39-.29-.63-.29-.16,0-.28-.03-.45-.11-.17-.08-.28-.11-.48-.11-.14,0-.29.01-.34.03-.04.02-.19.04-.34.04-.45.02-.88.3-1.05.69-.12.27-.12.29.02.16.13-.12.47-.31.5-.28.05.05.01.19-.12.45-.15.3-.18.4-.05.19.13-.22.43-.55.55-.61.19-.09.36-.11.48-.03.06.04.11.09.11.12,0,.06.01.06-.16.01-.11-.03-.17-.02-.31.04-.19.09-.27.2-.23.31.03.09.16.13.22.07.03-.03.24-.05.54-.06h.49s-.06.1-.06.1c-.03.07-.07.2-.08.3l-.02.18.13-.09c.07-.05.2-.16.3-.24.17-.15.27-.18.41-.11.06.03.08.08.07.18-.01.17,0,.19.14.14.16-.06.23-.01.22.14,0,.09,0,.15.05.17.07.04.23.01.32-.06.16-.13.23-.14.42-.06.1.05.24.07.3.07.15-.02.14.06-.01.17-.08.05-.22.1-.4.12-.28.04-.39.02-.39-.05,0-.03-.14-.03-.4-.02-.36.02-.41.01-.58-.07l-.18-.09-.15.09c-.08.05-.34.27-.57.5-.44.44-.49.53-.49.88,0,.22.09.26.14.07.05-.18.11-.15.13.07.01.12.03.17.05.14.02-.03.02-.07,0-.1-.02-.03-.01-.04.02-.02.03.02.05,0,.05-.02,0-.03.05-.11.12-.19l.12-.14.03.13c.01.07.04.13.06.13s.1-.07.19-.16c.13-.13.2-.17.41-.22.14-.03.33-.05.43-.06.12,0,.2-.03.27-.09.08-.07.09-.07.09-.02,0,.04-.02.08-.04.09s-.03.05-.01.07c.01.03.01.03,0,.02-.04-.03-.22.18-.22.26,0,.03.03.1.07.15.06.08.08.08.17.04.09-.05.51-.35.55-.39.01-.01.27-.03.59-.03.44,0,.6-.03.71-.08.12-.06.24-.07.76-.06.45,0,.62.02.65.06.03.04.06.04.14-.04.07-.07.11-.08.15-.05.06.05.37.07.37.02,0-.02.03-.02.07,0,.05.02.12.02.21-.01.13-.04.15-.04.19.03.04.07.06.07.11.02.04-.03.12-.08.18-.11.09-.05.12-.05.13,0,.01.04.04.04.09-.02.06-.05.09-.06.14-.03.05.04.09.02.18-.06.09-.09.12-.1.19-.05.05.03.08.03.08,0,0-.02.06-.04.13-.03.11,0,.13,0,.14-.08.01-.1.02-.1.14-.04.16.09.26.07.3-.04.04-.1.04-.1.06-.02.04.12.07.11.15-.01l.06-.1.19.16.04-.22.04-.22.07.14c.07.15.08.14.14-.16.04-.16.04-.17.04-.05,0,.14.08.17.11.05.01-.04.04-.07.06-.06s.04,0,.04-.04c0-.07.1-.05.21.05.06.05.07.05.07,0,0-.04.02-.07.04-.07s.04-.06.04-.13v-.13s.06.14.06.14c.06.13.06.14.09.05.02-.05.11-.12.22-.17.16-.07.2-.07.31-.03.1.04.14.04.19,0,.05-.04.07-.04.08,0,.01.04.05.05.11.04.05-.01.1,0,.14.05.03.04.05.05.05.02,0-.08.12-.1.2-.02.07.07.08.07.08,0,0-.05.02-.06.09-.04.05.01.25.06.44.1s.37.1.39.13c.03.04.03.04.03,0,0-.04.02-.04.1,0,.05.03.14.07.19.08s.14.04.18.06c.07.04.08.03.06-.02-.03-.09.02-.07.13.03.08.07.1.08.13.03.03-.05.04-.05.06,0,.01.04.05.06.08.04.03-.01.08,0,.12.03.05.04.06.04.06,0,0-.03.05-.02.13.03.07.04.19.09.27.11.08.02.22.07.32.12.2.1.36.15.36.1,0-.02.11.04.24.12.13.09.25.15.28.14s.13.02.24.08.22.1.25.1.1.04.15.1.11.09.12.08c.02-.01.07,0,.12.03.05.03.11.05.13.04.02,0,.09.05.16.11.06.07.15.12.2.12s.13.04.18.1c.05.05.11.1.14.1s.07.05.1.11c.07.15.16.25.19.23.02,0,.08.11.16.26.07.15.14.28.16.28s.12.13.23.29c.11.16.24.33.29.39.05.05.24.28.42.5.18.22.38.43.44.47.11.07.13.08.21.09.02,0,.05.04.06.09.02.07.03.07.07.03.03-.04.04-.04.06,0,.01.03.04.04.07.03.03-.01.07,0,.08.03.02.04.04.04.06,0,.02-.03.07,0,.17.08.15.13.17.13.1,0-.04-.08-.04-.08.07,0,.06.04.14.1.18.13.05.04.07.05.07,0s.01-.04.05,0c.03.02.1.05.15.06.05,0,.1.02.11.02s.01,0,.02,0c0,0,.05.02.11.05.05.03.11.06.13.06s.05.03.07.06c.03.05.04.05.04,0,0-.04.04-.03.14.03.08.05.13.07.12.04-.06-.09.23,0,.39.12l.16.13-.09-.14-.09-.14h.14c.08.02.17.05.21.08.06.05.06.04.04-.02-.02-.06-.02-.06.06-.02.05.03.12.07.16.11.06.05.07.05.07,0,0-.06.01-.06.06-.02.05.04.06.04.06,0,0-.03.04-.01.1.04l.1.1-.03-.09c-.03-.11,0-.11.13-.02.2.14.22.14.19.05-.03-.11-.02-.11.18.06.09.08.15.12.14.08-.04-.11.02-.12.16-.01l.13.1-.03-.11c-.02-.1-.02-.1.06-.08.05.02.08,0,.08-.02,0-.05.06-.04.21.02.05.02.07.02.05-.01-.02-.03,0-.03.09,0,.09.02.11.02.09,0-.02-.03,0-.03.04-.02.04.02.06.01.04-.01-.03-.05.08-.05.18,0,.07.04.08.03.05-.04-.02-.06-.01-.08.03-.06.11.04.1.13-.03.4-.17.34-.27.66-.42,1.28-.17.71-.18.94-.09,1.59.04.3.1.57.12.59.02.02.04.08.04.12,0,.08,0,.08.05,0,.1-.17.18-.03.28.51.04.19.04.27,0,.28-.02.01-.01.02.02.02.04,0,.1-.06.15-.14.05-.08.1-.13.12-.12.02.01.07.14.12.3.05.15.1.28.12.28.06,0,.12-.33.09-.5-.02-.16-.02-.17.09-.18.1-.01.11-.02.1-.18,0-.09.01-.17.03-.17s.07.08.12.18c.1.2.17.24.14.07-.01-.06,0-.2.03-.31.03-.11.06-.3.08-.41.03-.21.03-.21.15-.19.07,0,.15.02.18.03.05.01.06-.04.06-.33,0-.33,0-.35.08-.35s.09-.03.11-.36c.01-.2.03-.53.03-.74,0-.21.03-.5.06-.64.09-.39.12-1.37.06-1.88-.03-.24-.05-.5-.06-.57-.04-.55-.07-.68-.19-.82-.09-.1-.11-.15-.07-.17.04-.02.02-.07-.06-.2-.06-.1-.11-.18-.1-.2,0-.01-.1-.13-.23-.25-.19-.18-.23-.24-.19-.28.04-.04.03-.05-.01-.05-.03,0-.07-.03-.08-.06-.01-.03-.09-.1-.18-.15-.22-.12-.24-.19-.05-.16l.15.02-.08-.1c-.09-.11-.1-.11-.22-.2-.08-.06-.09-.08-.04-.1.04-.03.03-.05-.05-.1-.15-.1-.13-.15.04-.13l.15.02-.12-.05c-.09-.04-.1-.05-.04-.06.04,0,.06-.01.03-.02-.09-.04-.05-.09.08-.09h.13s-.16-.14-.16-.14c-.16-.14-.15-.14.1-.07l.1.03-.11-.12c-.17-.18-.13-.2.15-.11.04.01,0-.02-.08-.08-.08-.06-.15-.11-.15-.13s.08-.01.18,0c.2.02.22,0,.09-.12l-.08-.08.11-.02c.06-.01.16,0,.21.01.09.03.09.03.03-.04-.06-.07-.06-.08,0-.13.05-.04.05-.06.02-.11-.04-.04-.03-.05.03-.03.06.02.07.01.05-.04-.02-.05,0-.07.06-.07.08,0,.08,0,.02-.04-.04-.02-.07-.06-.07-.08s.01-.03.03-.02.05,0,.08-.04c.03-.04.04-.06,0-.06-.02,0-.03-.02-.02-.04.01-.02.06-.04.11-.04.09,0,.09,0,0-.07l-.1-.07.09-.05s.13-.04.17-.02c.08.02.07,0-.03-.08l-.12-.1.15.03c.17.03.2-.03.07-.1-.11-.06-.07-.09.06-.04.09.03.12.03.18-.04.04-.04.11-.08.16-.08.09,0,.11-.06.02-.09-.03-.01-.05-.04-.04-.06s.05-.03.09-.01c.05.02.06,0,.04-.04-.02-.06-.01-.06.06-.04.07.02.08.02.04-.06-.02-.05-.07-.08-.09-.09-.03,0-.07,0-.09-.01-.02,0-.07-.01-.1-.02-.08-.01.2-.12.33-.12.17,0,.13-.07-.07-.12-.1-.03-.18-.05-.17-.06,0,0,.12-.02.24-.02.25,0,.25-.04,0-.11-.09-.03-.18-.07-.21-.1-.06-.06-.01-.07.26-.06.08,0,.12-.01.11-.03-.01-.02-.07-.04-.13-.04-.14,0,.26-.1.56-.14.13-.01.23-.04.23-.06s-.08-.05-.19-.06l-.19-.03.22-.05c.12-.03.29-.05.38-.06.15,0,.15,0,.03-.02-.18-.02-.16-.08.03-.06.08,0,.17,0,.18-.03s0-.04-.02-.04c-.1,0,0-.07.14-.1.08-.01.14-.04.14-.07s-.02-.03-.04-.02c-.02.01-.03-.01-.02-.06.02-.06,0-.08-.05-.08-.04,0-.06-.01-.05-.03.02-.02.07-.03.26-.05.09,0,.01-.06-.14-.08l-.15-.03.14-.05c.11-.04.12-.04.03-.03-.06,0-.11,0-.11-.02s.06-.03.14-.02c.08,0,.14,0,.14-.02s.04-.03.08-.03c.05,0,.08-.02.07-.05-.02-.06-.32-.12-.54-.1-.12.01-.16,0-.12-.02.04-.03.03-.03-.04-.02-.05.01-.13,0-.17,0-.06-.02-.03-.04.11-.07.15-.03.19-.03.22.01.03.05.04.05.08,0,.03-.03.07-.06.1-.06s.02.02-.01.04c-.05.03-.04.04.02.01.04-.02.12-.04.17-.05.05-.01.08-.04.07-.07-.01-.04-.11-.05-.32-.05-.34,0-.42-.03-.18-.07.16-.03.21-.07.11-.11-.03-.01,0-.02.06-.02.07,0,.1-.02.08-.05-.02-.03-.01-.03.01-.02.05.03.31-.08.4-.16.03-.03.07-.04.09-.03.02.01.04,0,.04-.02s.04-.06.08-.09c.06-.03.08-.03.06,0-.03.05.16.02.31-.04.11-.04-.35-.04-.62,0-.38.06-.69.09-.65.05.03-.03.47-.11.83-.14.19-.02.55-.15.57-.21.01-.04-.03-.05-.23-.03-.24.02-.25.02-.13-.03.07-.03.15-.06.18-.06.04,0,.03-.02-.02-.04-.08-.03-.08-.03,0-.04.13,0,.21-.05.21-.11,0-.05-.03-.05-.11-.03-.06.02-.14.03-.19.03-.11,0-.73.07-.85.09-.09.02-.09.01.02-.03.16-.07.45-.14.7-.17.38-.04.64-.1.7-.16.05-.05.05-.06-.04-.06-.05,0-.16-.03-.24-.06l-.14-.05h.14c.08-.01.18-.03.24-.05.08-.03.07-.03-.08-.04h-.18s.17-.05.17-.05c.19-.05.18-.1,0-.11h-.12s.16-.08.16-.08c.15-.07.16-.08.03-.05-.18.03-.16-.01.03-.09.09-.04.15-.07.14-.08s-.08,0-.16.04-.15.06-.16.06c-.01,0-.11.05-.23.1-.11.05-.27.1-.35.12l-.14.02.12-.04c.25-.09.44-.17.53-.24.05-.04.11-.06.13-.05.02.01.07-.01.11-.05.07-.07.07-.07-.07-.06-.22.01-.3.04-.29.09,0,.04,0,.04-.04,0s-.12-.01-.29.07c-.13.06-.25.1-.27.09-.02-.01-.03,0-.03.02s-.15.08-.33.15c-.18.06-.35.13-.38.15-.06.05-.11.02-.07-.04.01-.02.16-.09.33-.16.17-.07.34-.16.38-.21.05-.05.07-.06.07-.03,0,.03.02.02.04-.03s.04-.06.04-.03c0,.09.69-.29.9-.5.2-.2.26-.29.16-.27-.03,0-.05-.02-.06-.06s0-.07.02-.06c.07.01.13,0,.13-.04,0-.07-.07-.05-.25.08-.15.1-.57.26-.78.3-.03,0-.1.02-.16.04-.15.04-.05-.03.16-.12.45-.18.87-.4.99-.53.12-.12.12-.13.04-.09-.05.03-.15.09-.22.14-.11.08-.46.28-.63.34-.14.06-.03-.04.13-.11.09-.04.16-.09.16-.11s.02-.03.05-.03c.07,0,.47-.32.47-.37,0-.03-.01-.02-.03,0-.02.03-.08.05-.13.04-.07,0-.09,0-.09.06,0,.06,0,.06-.05.02-.05-.04-.06-.04-.09,0-.02.03-.09.06-.16.06s-.15.04-.19.06c-.05.04-.05.04-.03-.01.02-.06.16-.12.23-.11.02,0,.1-.04.18-.09.08-.05.16-.09.18-.07s.02,0,.02-.02.01-.08.03-.12c.02-.07.02-.07-.05,0-.04.03-.15.09-.23.13s-.23.11-.32.15l-.16.08.1-.08c.05-.04.15-.1.22-.13.19-.07.48-.3.48-.37,0-.05-.01-.05-.1,0-.19.12-.6.33-.57.28.01-.02.12-.08.23-.14.21-.09.34-.2.48-.37l.08-.1-.12.07-.12.07.1-.11c.11-.12.09-.18-.02-.08-.15.13-.65.46-.65.43,0-.01.09-.08.21-.16.24-.16.48-.39.49-.48,0-.05,0-.05-.07-.01-.04.03-.08.06-.08.07,0,.04-.39.27-.45.27-.03,0-.11.04-.18.1-.07.05-.15.09-.16.08s-.04,0-.06.02c-.01.02-.06.06-.11.08l-.09.04.09-.08c.14-.12.06-.13-.12-.02-.09.06-.17.11-.18.13s-.07.05-.14.07l-.12.05.1-.08c.05-.04.12-.1.15-.12.03-.02.11-.08.18-.13.15-.1.21-.16.64-.56.16-.15.29-.25.31-.22.04.06-.03.16-.3.42-.14.13-.23.21-.22.19.03-.04.02-.04-.05,0-.05.03-.08.08-.08.11,0,.14.47-.26.68-.58.06-.1.06-.1-.02-.16-.08-.05-.09-.05-.15.03-.06.08-.07.08-.12.02-.03-.04-.03-.05-.01-.04.06.03.3-.15.37-.27.03-.06.04-.1.02-.09-.11.05-.24.11-.29.13-.03.01-.1.05-.16.09-.05.04-.02,0,.07-.1.1-.09.16-.19.14-.21-.02-.02-.01-.03.01-.02.04.02.37-.43.37-.5,0-.04-.14.09-.14.14,0,.02,0,.05-.01.06,0,.02-.02,0-.04-.03-.03-.05-.05-.03-.08.07-.03.07-.06.12-.07.11s-.05,0-.08.05c-.04.05-.05.05-.04.01,0-.03.1-.17.2-.31.2-.27.2-.28.16-.36-.02-.04-.07-.01-.18.1-.08.08-.15.16-.15.19s.07-.03.16-.11c.09-.08.16-.13.16-.11s-.01.05-.03.05c-.05,0-.51.46-.59.58-.09.14-.17.24-.38.49-.12.14-.42.37-.42.32,0-.02.07-.1.16-.17.18-.15.81-.9.75-.9-.02,0-.02-.04,0-.1.02-.05.06-.1.07-.1.04,0,.29-.25.36-.36.04-.06.07-.16.08-.23l.02-.13-.14.14c-.08.08-.16.14-.18.14s-.04.02-.04.04c0,.05-.13.18-.35.34l-.15.11.1-.11c.05-.06.17-.19.25-.28.17-.18.42-.54.42-.6,0-.02-.03,0-.06.07s-.08.11-.11.11c-.03,0-.03-.01,0-.05.06-.06.06-.11.01-.11-.02,0-.06.05-.08.12-.04.09-.06.11-.08.07-.03-.04-.04-.04-.08,0-.04.04-.04.05,0,.03.03-.02.05,0,.05.02s-.02.04-.06.02c-.07-.03-.18.06-.2.15,0,.04-.03.07-.06.07-.03,0-.08,0-.11.04-.04.03.08-.1.26-.28s.32-.34.3-.37c-.01-.02-.07.01-.14.09l-.11.13.09-.18c.05-.1.1-.18.12-.17s.02-.02,0-.06c-.01-.04,0-.11.03-.14.03-.03.05-.11.06-.18,0-.11,0-.12-.04-.05-.03.04-.04.09-.03.12.01.03,0,.06-.02.08-.03.02-.03,0-.02-.02.02-.03.01-.05,0-.05s-.07.05-.11.12c-.04.07-.08.11-.09.1-.01-.01,0-.06.04-.11.03-.05.07-.14.08-.19.02-.09.02-.09-.04.02-.04.07-.07.13-.06.14,0,.01-.05.07-.11.13-.1.1-.11.1-.09.03.01-.04.05-.12.09-.16.06-.07.24-.39.24-.44,0-.01-.04.03-.09.1s-.14.17-.2.23c-.06.06-.11.13-.11.15,0,.05-.19.23-.24.23-.03,0,0-.06.06-.13.06-.07.09-.15.07-.16-.02-.02,0-.02.02,0,.03.02.06-.02.09-.09.03-.1.03-.12-.05-.16-.08-.04-.07-.04.03-.02.11.02.11.02.04-.04-.04-.03-.06-.06-.04-.06s0-.02-.04-.05c-.04-.03-.06-.07-.04-.1.03-.05.05-.17.07-.44,0-.08.03-.16.04-.19s.02-.06.01-.07c-.01-.01-.05.03-.09.09-.08.13-.36.34-.3.22.02-.04.07-.1.11-.15.1-.1.15-.2.18-.35l.03-.12-.08.14c-.04.08-.08.12-.08.09,0-.03-.02-.04-.04-.03s-.03.04-.02.06c.01.02,0,.04-.03.04-.06,0-.22.17-.41.42-.06.08-.17.21-.23.27l-.11.12.13-.24c.07-.13.14-.24.16-.23.02.01.22-.38.31-.64.03-.07.05-.2.06-.29v-.17s-.06.12-.06.12c-.04.07-.06.14-.05.16.01.02,0,.04-.04.04s-.08.05-.12.11c-.17.34-.84,1.51-.88,1.55-.08.07-.07-.05.03-.16.04-.05.08-.13.08-.17,0-.04.02-.07.04-.07.02,0,.03-.04.02-.09-.02-.07-.02-.08.02-.03.02.03.04.05.04.03,0-.01.01-.06.03-.1.02-.05.01-.06-.02-.04-.04.02-.04.01,0-.05.02-.05.05-.08.07-.08s0,.02,0,.05c-.02.03-.01.03.02.02.02-.01.03-.05.02-.08-.02-.05.24-.62.28-.62,0,0,.03.02.04.05.02.03.01.03-.02.02-.03-.02-.05-.01-.05.01s.02.05.04.06c.04.03.05-.02.04-.16,0-.05,0-.06.03-.03.04.06.27-.31.35-.57.07-.23.07-.23,0-.17-.03.02-.05.08-.06.13,0,.13-.08.31-.13.31-.03,0-.03-.01,0-.05.02-.03.03-.06.02-.08s0-.03.02-.03c.05,0,.09-.14.05-.2-.02-.03-.04-.02-.06.04-.01.05-.04.07-.06.06s-.05,0-.06.05-.05.13-.08.19c-.03.07-.07.17-.09.24-.02.07-.04.09-.04.05,0-.04.02-.13.05-.2.1-.22.18-.47.15-.51-.01-.02,0-.03.02,0,.06.03.17-.2.13-.28-.03-.08-.09,0-.3.39-.29.54-.3.57-.3.63,0,.05,0,.05-.03,0-.02-.04-.06.02-.11.16-.14.37-.3.7-.33.7-.02,0-.03,0-.03-.02,0-.06.45-1,.49-1.03.04-.03.5-.9.5-.95,0,0-.03-.01-.07-.01-.05,0-.06,0-.02.03.04.03.04.04,0,.06-.07.03-.37.54-.42.71-.02.07-.09.21-.16.32-.16.25-.15.24-.17.22-.01-.01.05-.12.12-.23.08-.12.17-.3.19-.39.06-.2.14-.41.29-.72,0-.02-.01-.02-.05,0s-.06.03-.06.05c0,.04-.16.37-.22.46-.03.04-.05.09-.03.11.01.02,0,.03-.02.01-.03-.02-.06.01-.09.07-.03.06-.06.1-.08.1s.02-.08.08-.17c.15-.22.32-.57.33-.66,0-.04.03-.1.06-.14.03-.04.06-.11.06-.15,0-.07,0-.07-.07-.01-.04.04-.08.06-.09.04s-.03,0-.05.04c-.02.04,0,.05.02.04.02-.01,0,.04-.06.13s-.12.22-.16.29c-.1.24-.56,1.14-.57,1.13-.02-.02.31-.76.61-1.34.05-.1.1-.26.11-.36s.03-.21.04-.27c.01-.05-.03.01-.09.15-.07.14-.13.25-.14.25s.02-.11.06-.25c.04-.14.08-.3.08-.36,0-.11,0-.11-.05-.04-.15.22-.48.84-.51.97-.01.05-.03.08-.05.07s0-.07.02-.14c.02-.06.05-.23.06-.37,0-.14.02-.31.03-.38,0-.07.02-.11.04-.1.02.01.02-.03.01-.1-.01-.07-.01-.12.01-.1.02.01.04,0,.03-.05,0-.04.01-.11.03-.15.07-.18-.11.11-.26.43-.17.37-.19.38-.07.03.05-.13.07-.26.05-.28-.02-.03-.01-.04.02-.02.03.02.06-.03.09-.14.05-.2.03-.3-.04-.14-.02.06-.03.13-.02.15.01.02,0,.03-.02.02-.02-.01-.05,0-.07.02-.02.05,0-.04.04-.22.02-.08.01-.07-.06.02-.07.1-.08.11-.1.04-.01-.06-.02-.05-.02.02,0,.05-.02.13-.05.16-.03.05-.04.04-.02-.02.01-.04.03-.15.05-.23.02-.13.02-.15-.04-.12-.04.01-.06.05-.06.07s-.03.08-.06.12c-.06.07-.06.07-.02,0,.02-.05.04-.15.04-.22,0-.13,0-.12-.04.04-.02.09-.05.16-.07.15-.02-.01-.03-.05-.01-.09.02-.05.01-.05-.02-.02-.02.03-.03.1-.02.16s-.01.03-.04-.07c-.05-.17-.05-.18-.06-.05,0,.07-.02.12-.03.11s-.03.02-.04.07c0,.13-.09.3-.13.3-.02,0-.04-.02-.04-.04s.01-.04.03-.04.02-.09.02-.2c0-.11,0-.22.03-.25.02-.03.03-.09.02-.12-.02-.04-.01-.06,0-.05.02.01.04-.06.05-.17,0-.14,0-.2-.05-.21-.04-.01-.06,0-.06.03,0,.07-.12.38-.14.37,0,0,.01-.1.04-.21.07-.23.08-.48.01-.37-.05.09-.11.05-.09-.06.02-.09.02-.09-.02,0-.02.05-.03.13-.03.18s0,.06,0,.04c0-.03-.04-.05-.07-.05-.04,0-.06-.05-.06-.17v-.17s-.08.16-.08.16c-.04.09-.08.21-.09.28-.01.07-.05.23-.08.36-.04.14-.07.38-.08.55-.02.28-.09.64-.1.47,0-.04-.02-.06-.05-.04-.03.02-.04-.01-.02-.12.02-.1.01-.14-.01-.12-.05.03-.05,0,0-.09.08-.16.32-1.29.32-1.54,0-.18-.05-.16-.15.06l-.09.19.02-.21c.01-.15,0-.23-.04-.27-.04-.04-.06-.04-.08,0-.01.03-.02-.02,0-.1.02-.13,0-.15-.06-.13-.09.03-.09.03-.04-.21.02-.09.02-.18,0-.19-.02-.01-.03-.07-.04-.13,0-.15-.04-.29-.08-.26-.04.03,0-.14.05-.21.03-.04.02-.05-.04-.05-.04,0-.05-.01-.02-.02.03-.01.05-.05.05-.1s.02-.08.04-.08.03-.03.02-.07c-.03-.07.06-.17.2-.24.04-.02.34-.03.68-.03h.6s.26.16.26.16c.14.08.38.24.52.36.23.19,1.19,1.12,1.35,1.31.03.04.09.1.14.13.06.05.06.04-.02-.08-.1-.15-.28-.39-.41-.56-.08-.1.04.02.56.59.17.18.32.33.34.33.02,0,.08.05.12.12.08.12.17.18.21.14.01-.01,0-.04-.02-.05-.05-.04-.22-.27-.22-.31,0-.02-.06-.09-.14-.16-.08-.07-.14-.15-.14-.18,0-.03.05,0,.1.06.07.09.09.09.06.03-.03-.07-.03-.09,0-.09.03,0,.1.09.16.21.06.11.14.21.17.22.05.01.04-.02-.05-.14-.13-.16-.15-.21-.09-.21.02,0,.04.01.03.03s.15.19.34.38.34.34.34.32c0-.04-.16-.26-.28-.39-.12-.13-.15-.23-.04-.13.04.04.09.07.12.07s.04.01.04.03c0,.02.07.1.16.19.14.13.16.14.12.06-.03-.05-.05-.1-.04-.1s-.01-.03-.05-.07-.08-.06-.09-.05c-.01,0,0,0,.02-.03.03-.04.05-.04.08.01.02.03.04.04.04.02,0-.02.03-.01.07.02.06.05.06.05.02-.03-.03-.05-.08-.09-.12-.09-.08,0-.26-.3-.22-.37.02-.03,0-.02-.04.01-.07.05-.07.05-.03-.02.02-.04.03-.11.02-.14-.02-.04,0-.04.05.01.04.04.09.06.11.04.02-.01.03,0,.02.01-.02.04.31.35.38.35.02,0,.05.03.08.06.04.05.04.05-.02,0-.04-.03-.07-.04-.07-.02,0,.04.12.15.17.16.02,0,.06.05.1.11.04.06.08.09.09.08.01-.01.04.02.05.08.03.11.12.21.15.16.04-.06-.05-.22-.1-.18-.03.02-.02-.02.02-.08s.05-.1.03-.09c-.02.01-.05,0-.06-.05-.01-.04-.06-.11-.1-.15-.04-.04-.1-.13-.15-.19-.07-.1-.08-.11-.12-.05-.03.04-.06.05-.07.02-.01-.02,0-.04.02-.04.05,0,.03-.14-.03-.21-.03-.03-.05-.07-.05-.1s-.01-.05-.03-.03c-.02.01-.03-.02-.04-.06,0-.04-.04-.11-.07-.16-.04-.04-.05-.07-.02-.07.03,0,.05.02.05.04s.02.03.05.01c.02-.02.04-.01.02,0s.07.12.17.23c.22.22.22.13,0-.11-.07-.08-.15-.19-.18-.25-.03-.07-.06-.09-.09-.06s-.05.02-.04-.03c0-.04-.02-.07-.04-.06-.03,0-.05,0-.05-.03s-.05-.09-.1-.16c-.11-.13-.19-.13-.15-.01.01.04-.01.02-.06-.04s-.08-.12-.08-.14c0-.02.03,0,.06.04.05.07.13.03.08-.05-.01-.02,0-.05.03-.07.03-.02.04-.02.02,0-.01.02.02.07.07.13s.13.14.16.19c.09.13.15.12.07-.01l-.06-.11.08.1c.04.05.07.11.07.12,0,.01.03.06.08.11s.18.21.27.36c.13.2.19.27.24.25.04-.01.06,0,.06.03,0,.08.14.23.2.23.04,0,.04-.01,0-.04-.03-.02-.04-.04-.02-.04Zm-1.89-3.8c.06,0,.09.02.09.06,0,.04.03.09.07.12.04.03.06.05.05.05-.01,0-.06-.01-.11-.02s-.08-.04-.08-.06c0-.03-.01-.07-.05-.09-.05-.04-.05-.05.03-.05Zm-.3-.74s0,.02-.05.02-.08,0-.05-.02c.03-.01.07-.01.1,0Zm-2.07-.86s.08-.04.08-.06.01-.04.03-.04.03.02.03.05-.05.07-.11.1c-.06.02-.11.03-.11,0s.04-.04.08-.06Zm-.78-.43c.13-.15.17-.17.17-.11,0,.04-.01.08-.03.07s-.09.06-.17.15c-.08.08-.14.14-.14.12s.08-.12.17-.22Zm-.26.36c.06-.05.06-.05.01.01-.03.04-.06.07-.07.07-.03,0-.01-.03.05-.08Zm-6.19,2.79c.03.07.02.07-.05.02-.03-.02-.04-.04-.01-.06.02-.01.05,0,.06.03Zm-.31-.16c-.1-.08-.11-.1-.06-.13.03-.02.06-.03.06-.03s.05.07.12.14c.14.15.06.17-.12.03Zm.27.55c-.1-.11-.11-.13-.06-.13.02,0,.07.05.12.12.11.14.06.16-.06.02Zm-.51.32s-.07-.06-.06-.07.05.02.1.06c.09.09.07.1-.04.02Zm.26,1.16c-.07-.05,0-.05.1,0,.05.02.06.03.02.04-.03,0-.09-.02-.12-.04Zm-.06.66c-.06,0-.1-.02-.1-.04,0-.04.15-.04.18,0,.01.02-.02.04-.08.03Zm.19-.15c-.09,0-.5-.16-.48-.18.02-.02.51.13.54.16.01.01-.02.02-.06.02Zm-.12,2.61s-.06-.01-.02-.02c.03-.01.06-.01.08,0,.01.01-.01.02-.05.02Zm.47.44s-.06-.01-.02-.02c.03-.01.06,0,.08,0s-.01.02-.05.02Zm-.02-6.08c-.05-.06-.05-.06.01-.01.04.03.07.06.07.07,0,.03-.03.01-.08-.05Zm.17,1.7s-.04-.06-.03-.08,0-.08-.04-.12c-.05-.05-.05-.08-.02-.1.03-.02.04-.01.02,0-.01.02.02.09.07.14s.1.12.1.15c0,.05-.04.05-.11,0Zm.08,2.34s0-.02,0-.03.09.02.17.08c.09.05.14.1.12.1-.03,0-.14-.05-.29-.15Zm2.55-5.71s-.05-.2-.03-.22c.01,0,.03.04.04.1,0,.06,0,.12,0,.12Zm.12-.7s-.02,0-.02-.05,0-.08.02-.05c.01.03.01.07,0,.1Zm.44.55s-.02,0-.02-.05,0-.08.02-.05c.01.03.01.07,0,.1Zm.04-.4s-.02,0-.02-.05,0-.08.02-.05c.01.03.01.07,0,.1Zm.12-.22s-.02-.01-.02-.05c0-.05.01-.06.02-.02.01.03,0,.06,0,.08Zm.12.44s-.02-.01-.02-.05c0-.05.01-.06.02-.02.01.03.01.06,0,.08Zm0-.15s-.04-.06-.04-.13c0-.16.05-.15.07.02.01.07,0,.12-.03.12Zm.16.2s0-.07.02-.11c.03-.06.04-.05.04.04,0,.11-.02.14-.06.07Zm.06-.22s-.03-.05-.01-.21c.03-.3.05-.32.05-.04,0,.12-.02.23-.04.25Zm.12-.14s-.05-.07,0-.18c.03-.07.03-.06.04.05,0,.07-.02.13-.04.13Zm.16.03c0-.12.02-.23.04-.25.02-.02.03.06.02.2-.03.3-.06.32-.06.04Zm.04.68s-.03-.02-.02-.04.03-.04.04-.04.02.02.02.04-.02.04-.04.04Zm.24-.31c-.06.1-.07.1-.05-.02.01-.05.03-.09.05-.08.02.01.02.05,0,.1Zm.09-.19c-.06.06-.08-.04-.05-.2l.02-.14.03.15c.02.09.02.17,0,.19Zm.14,5.92c-.05.14-.1.25-.12.25-.04,0,.11-.47.16-.53.06-.06.05,0-.04.28Zm.2-.52c-.05.03-.05-.02,0-.1.03-.05.04-.05.04,0,0,.04-.02.08-.04.09Zm.11-6.28s.01.06,0,.08-.02-.01-.02-.05c0-.05.01-.06.02-.02Zm0,.83s-.02-.01-.02-.05c0-.05.01-.06.02-.02.01.03.01.06,0,.08Zm0-.35s-.03-.03-.04-.06c-.01-.03,0-.06.02-.06s.04.03.04.06,0,.06-.02.06Zm3.41,19.27s.03.04,0,.07c-.02.04-.04.04-.06,0-.03-.05,0-.1.05-.07Zm-.14-.27s0,.02-.05.02-.08,0-.05-.02.07-.01.1,0Zm.65-1.42s-.01.02-.05.02c-.05,0-.06-.01-.02-.02.03-.01.06-.01.08,0Zm-.29-.17s-.05.04-.09.04c-.06,0-.06,0,0-.04.08-.05.13-.05.1,0Zm.92-.7s-.04.04-.1.06c-.07.02-.12.03-.12.02,0-.03.21-.1.23-.08Zm-.75-.08s-.01.02-.05.02c-.05,0-.06-.01-.02-.02.03-.01.06,0,.08,0Zm-.29.46s.06-.02.07-.05c.01-.03.02-.02.02.02,0,.04-.01.07-.03.07s-.07.01-.11.03c-.05.02-.06.01-.04-.02.02-.03.05-.05.08-.05Zm1.38-1.53s0,.02-.05.02-.08,0-.05-.02c.03-.01.07-.01.1,0Zm-.74.42c.11-.05.17-.05.1,0-.03.02-.09.04-.12.04-.04,0-.03-.01.02-.04Zm.76-2.06c.06-.05.06-.05.01.01-.05.07-.08.09-.08.05,0,0,.03-.04.07-.07Zm-.72,1.15s.06,0,.06.02-.03.03-.06.04c-.03.01-.06,0-.06-.02s.03-.04.06-.04Zm-.25-.08c.08-.04.08-.04.02.01-.04.03-.06.07-.04.08.01.01,0,.03-.02.03-.08,0-.05-.07.04-.12Zm.15.16s-.03.04-.07.05c-.04.01-.1.03-.14.05-.05.02-.07.02-.05-.01.03-.05.26-.14.26-.09Zm.27-3.69s-.01.05-.05.09c-.07.07-.07.06-.02-.02.03-.05.06-.08.07-.07Zm-.8-.27s-.02-.01-.02-.05c0-.05.01-.06.02-.02.01.03.01.06,0,.08Zm.04.68c0,.06-.02.11-.05.11-.03,0-.03-.03,0-.11.05-.14.06-.14.06,0Zm-.04-.43v.1c0,.05-.01.09-.03.08-.04-.02-.09.11-.08.2,0,.04-.04.13-.1.2l-.1.12.08-.15c.05-.08.08-.17.08-.2-.01-.11,0-.18.07-.26l.07-.09Zm-.08.65s-.04.07-.06.07c-.05,0-.04-.02.02-.08.05-.04.06-.04.04.01Zm-.22-.25l-.09.05.08-.09c.04-.05.08-.1.09-.11s.01.01.01.05-.04.09-.09.11Zm-.03.55c-.03.05-.04.05-.04,0,0-.04.02-.08.04-.09.02-.01.04-.01.04,0,0,.02-.02.06-.04.09Zm.38,4s-.03,0-.02-.01c0,0,.05-.04.1-.07.07-.05.07-.05.02.01-.03.04-.07.07-.1.07Zm-.07-.83c-.06,0-.04-.03.02-.05.04-.01.05,0,.04.02-.01.02-.04.04-.06.04Zm.18-1s.03,0-.04.06c-.07.06-.14.1-.16.1-.05,0,.08-.1.2-.16Zm-.28.7c.08-.03.14-.08.14-.1s.01-.03.03-.02.05,0,.08-.02c.04-.03.07-.03.1,0s.02.05-.06.08c-.06.02-.18.08-.26.12-.09.05-.16.06-.16.04s.06-.07.14-.1Zm-.14-2.98s.02-.05.04-.06c.02-.01.04,0,.04.02s-.02.05-.04.06c-.02.01-.04,0-.04-.02Zm1.18.83s-.02.06-.1.13-.13.1-.13.08c0-.05.19-.22.23-.2Zm-.93,1.08c.11-.08.28-.22.38-.31s.14-.12.1-.06c-.04.05-.13.15-.2.2s-.11.11-.1.13.09-.05.18-.13c.43-.39.53-.46.53-.36,0,.02-.03.04-.06.04s-.13.07-.21.15c-.17.17-.52.45-.47.37.02-.03.02-.05,0-.05-.02,0-.09.05-.24.18-.11.1-.18.12-.15.04.01-.03.11-.12.23-.2Zm.58-2.51s.04.02.04.04-.02.05-.04.06c-.02.01-.04,0-.04-.04s.02-.06.04-.06Zm-.04-.2s-.04.07-.08.1c-.08.07-.08.07-.03-.03.05-.1.11-.14.11-.07Zm-.13,1.55c.06-.09.11-.15.12-.14.04.04-.17.35-.4.58-.15.14-.28.29-.3.34-.03.07-.03.07-.04,0,0-.04.11-.2.25-.35.14-.15.3-.34.36-.43Zm-.16-1.81s0,.09,0,.12c-.01.03-.02,0-.02-.07s0-.09.02-.05Zm-.03.35l.11-.09-.06.11c-.03.06-.08.11-.12.12-.09.01-.07-.03.06-.13Zm-.06,1.44c.08-.12.12-.14.06-.03-.02.04-.06.09-.08.1-.02.01-.01-.02.02-.08Zm-.5-2.18c.05-.07.12-.16.16-.22.04-.05.11-.14.16-.2l.09-.1-.07.15c-.04.08-.08.15-.1.15s-.03.02-.04.05-.07.1-.15.17l-.14.12.09-.12Zm-.14,7.12c-.06.02-.06.02-.02-.02.03-.03.06-.04.07-.03.01.01,0,.03-.05.05Zm.06-.67s-.01.02-.05.02c-.05,0-.06-.01-.02-.02.03-.01.06-.01.08,0Zm-.05-5.11s-.02.05-.06.08c-.04.04-.08.05-.08.03,0-.04.11-.14.14-.12Zm-.12,5.53s.11-.03.14-.03c.04,0,.03.01-.02.03-.04.02-.11.03-.14.03-.04,0-.03-.01.02-.03Zm-.06-5.63s-.03.07-.06.12c-.06.07-.06.07-.01-.02.06-.12.08-.14.08-.09Zm-.07,6.62c.07,0,.08,0,.03.04-.08.05-.17.05-.14,0,.01-.02.06-.04.11-.04Zm-.01.88c.07.02.12.05.12.06,0,.02-.05.02-.15-.02-.13-.05-.11-.08.03-.03Zm.35-10.87s0,.04-.03.07c-.04.04-.04.03-.02-.02.01-.04.04-.06.05-.05Zm-.74,1.23s.04-.01.04,0c0,.02-.02.06-.04.09-.03.05-.04.05-.04,0,0-.04.02-.08.04-.09Zm-.02-1.71s-.03.13-.08.27-.1.23-.1.21c0-.06.16-.5.18-.48Zm-.31.02s.01.06,0,.08-.02-.01-.02-.05c0-.05.01-.06.02-.02Zm-.04.14s-.02.09-.06.17c-.04.08-.08.14-.08.13,0-.05.12-.32.14-.3Zm-.22.46s.04-.04.04-.02-.02.07-.04.1c-.02.03-.04.04-.04.02s.02-.07.04-.1Zm-.13,1.11c.11-.32.14-.43.15-.6,0-.06.02-.11.03-.11.01,0,.05-.07.07-.16.07-.24.09-.16.03.11-.1.42-.11.43-.05.29.08-.21.15-.41.15-.48,0-.03.03-.08.06-.11.08-.06-.05.42-.18.71-.05.12-.12.28-.15.37-.06.19-.2.42-.2.34,0-.03.05-.19.1-.36Zm-.1-.42s.01-.06.02-.02c.01.03,0,.06,0,.08-.01.01-.02-.01-.02-.05Zm.04-1.86c.09-.19-.02.18-.15.51-.13.35-.17.43-.17.35,0-.04.25-.71.32-.87Zm-.44.38s.03-.01.01.1c-.04.23-.1.36-.07.14.01-.1.04-.2.06-.24Zm-.07-.6s0,.1-.01.13c-.02.04-.03.01-.03-.07,0-.14.02-.17.05-.05Zm-.13.2c.03-.05.04-.05.04,0,0,.04-.02.08-.04.09-.05.03-.05-.02,0-.1Zm-.33-.28s.01.06,0,.08c-.01.01-.02-.01-.02-.05,0-.05.01-.06.02-.02Zm-.29.6s.02.04.04.08c.01.04,0,.08-.02.08s-.04-.04-.04-.08,0-.08.02-.08Zm.09-1.08s0,.06,0,.08c-.01.01-.02-.01-.02-.05,0-.05.01-.06.02-.02Zm-.13-7.13c.07-.07.1-.08.1-.03,0,.02-.02.06-.05.1-.04.05-.06.06-.08.03-.02-.03,0-.07.03-.1Zm.1.57s-.02.04-.04.04-.03-.02-.02-.04c.01-.02.03-.04.04-.04s.02.02.02.04Zm-.18-.34c.06-.06.07-.05.04.04-.01.03-.04.06-.06.06-.05,0-.04-.04.02-.1Zm.2.88s-.06.05-.06.08-.04.07-.08.1c-.12.07-.09-.01.06-.15.08-.07.14-.11.14-.08s-.03.05-.06.06Zm0-.6c-.03-.08-.03-.08.04-.08.03,0,.06.02.06.05,0,.08-.07.1-.09.03Zm.21.02s-.03-.02-.02-.04c.01-.02.04-.04.06-.04s.03.02.02.04c-.01.02-.04.04-.06.04Zm-.08-.26s.04-.01.04,0c0,.02.02,0,.04-.03.03-.05.04-.05.04,0,0,.04-.03.07-.06.09-.07.03-.12-.04-.06-.07Zm.05-.18s-.05.02-.06.05c-.01.03-.02.04-.02.02,0-.06.11-.31.15-.31.02,0,.05.03.06.07.02.07-.05.17-.12.17Zm.3-.01s-.02-.01-.02-.05c0-.05.01-.06.02-.02.01.03.01.06,0,.08Zm.36,1.28s-.07.02-.08.05c-.01.03-.02.02-.02-.02,0-.04.02-.07.05-.07s.07-.02.08-.05c.01-.03.02-.02.02.02,0,.04-.02.07-.05.07Zm.55-.51s0,.03-.05.05c-.06.02-.06.02-.02-.02.03-.03.06-.04.07-.03Zm-.12.49s.05,0,.04.02c-.01.02-.04.04-.06.04-.06,0-.04-.03.02-.05Zm-.07.11s.13,0,.18,0,0,.02-.09.02-.14,0-.09-.02Zm.17.22c-.05,0-.08,0-.05-.02s.07-.01.1,0,0,.02-.05.02Zm.18-.48s.05,0,.04.02c-.01.02-.04.04-.06.04-.06,0-.04-.03.02-.05Zm.04.25s-.06-.01-.09-.03c-.03-.02,0-.03.09-.03s.12.01.09.03c-.03.02-.07.03-.09.03Zm.15.16s-.06-.01-.02-.02c.03-.01.06-.01.08,0s-.01.02-.05.02Zm.18-.19s-.08.04-.1.04-.01-.02.02-.04c.03-.02.08-.04.1-.04s.01.02-.02.04Zm0-.18s.07-.01.1,0c.03.01,0,.02-.05.02s-.08,0-.05-.02Zm.19.42c-.11.05-.17.05-.1,0,.03-.02.09-.04.12-.04.04,0,.03.01-.02.04Zm1.5.79s0-.03.04-.02c.03.01.06.03.06.04,0,.03-.08.01-.1-.02Zm.05-.18c.07.04.08.06.04.07-.07.03-.16-.03-.14-.08,0-.03.05-.02.11,0Zm-.23-.03s-.02.02-.04.02-.04-.02-.04-.04.02-.03.04-.02.04.03.04.04Zm-.06-.39c-.07,0-.09,0-.05-.02s.09,0,.12,0,0,.02-.07.02Zm-.05-.44s.09.05.15.06c.07.01.06.02-.05.02-.08,0-.16-.01-.17-.04-.04-.06.01-.09.07-.05Zm.23.35h0s0,.01,0,.01c0,0-.04-.01-.08-.02-.04-.01-.07-.03-.07-.05s-.04-.05-.08-.06-.07-.04-.06-.05c.02-.02.3.14.3.17Zm-.29,0s-.01.02-.05.02c-.05,0-.06-.01-.02-.02.03-.01.06-.01.08,0Zm-.7.46s-.05-.02-.06-.04,0-.04.04-.04.06.02.06.04-.02.04-.04.04Zm-.01-.66s.04-.03.03-.05c0-.01.07-.03.17-.04s.2-.03.21-.06c.02-.04.03-.04.03,0,0,.03.04.05.08.05s.09.01.1.03c.01.02-.04.02-.12.01-.1-.01-.13,0-.11.03.02.03,0,.03-.07,0-.07-.02-.14-.02-.2,0-.1.04-.2.05-.11.01Zm.31.05c.05,0,.14,0,.18-.03.07-.04.08-.03.05,0-.02.04-.01.04.03.02.04-.01.07,0,.07.02,0,.02-.07.04-.17.03-.09,0-.19,0-.22.02-.03.02-.05,0-.05-.03,0-.04.03-.05.1-.04Zm.07.63s-.08,0-.09.02c-.02.03-.04.03-.05,0-.01-.02,0-.04.02-.04s.04-.01.02-.03c-.01-.02.01-.03.05-.04s.08.02.1.06c.02.04,0,.05-.04.04Zm1.05,4.01s.04.02.04.04,0,.04-.02.04-.03-.02-.04-.04c-.01-.02,0-.04.02-.04Zm-.78-3.44c-.05,0-.13-.1-.1-.13.03-.03.13.05.13.1,0,.02-.02.03-.03.03Zm.51.32s-.05-.02-.06-.04,0-.04.02-.04.05.02.06.04,0,.04-.02.04Zm.13,3.05s.02.05-.06,0c-.04-.02-.04-.04-.01-.04.03,0,.06.02.07.04Zm-.03-3.14s-.09-.01-.13-.05c-.12-.11-.24-.17-.33-.17-.04,0-.09-.03-.1-.06-.01-.03-.02-.06,0-.06s.18.08.39.18c.21.1.41.18.44.18s.08.04.1.08c.05.1.23.28.29.29.03,0,.07.06.1.12.07.16.03.18-.05.03-.05-.09-.09-.12-.15-.11-.06,0-.08,0-.08-.04,0-.03-.04-.11-.11-.19-.14-.16-.16-.14-.04.03.05.06.07.13.06.14-.01.01-.02,0-.02-.02s-.02-.04-.05-.02c-.03.02-.03.01-.02-.01.01-.02-.02-.08-.08-.12-.06-.05-.09-.1-.07-.13.02-.03.01-.04-.01-.02-.02.01-.05,0-.07-.01s-.05-.03-.07-.02Zm.13.18c.07.06.08.08.03.08-.06,0-.18-.1-.15-.14,0,0,.06.02.11.06Zm-.1,2.61s0-.03.04-.02c.03.01.06.03.06.04,0,.03-.08.01-.1-.02Zm.07-2.33c-.1-.11-.09-.16.02-.07.04.04.09.07.1.07s.05.02.08.05c.03.03.09.08.13.11.04.03.07.07.06.09s-.05,0-.09-.05c-.1-.11-.14-.1-.06.02.04.06.05.1.02.1-.02,0-.07-.05-.11-.11-.04-.06-.11-.15-.16-.21Zm.38.58s-.03.01-.08-.05c-.05-.06-.05-.06.01-.01.04.03.07.06.07.07Zm-.18,1.68s.02.05-.06,0c-.04-.02-.04-.04-.01-.04.03,0,.06.02.07.04,0,0,0,0,0,0,0,0,0,0,0,0Zm.02-1.48c-.04-.05-.04-.06.01-.04.04.01.07.04.07.06,0,.05-.02.04-.08-.02Zm.16.24s.02-.05.04-.04c.02.01.04.04.04.06s-.02.04-.04.04-.04-.03-.04-.06Zm.08.5s.02-.04.04-.04.04.02.04.04-.02.04-.04.04-.04-.02-.04-.04Zm.08.36s-.05-.05-.04-.08c0-.02.04,0,.06.03.06.09.05.09-.02.04Zm1.01.93c.01.05.06.12.09.15.04.03.08.07.1.1.05.08,0,.06-.1-.06-.13-.14-.21-.29-.15-.29.02,0,.05.04.07.1Zm-.57-.44c-.05-.05-.07-.1-.06-.1s.06.04.1.08c.04.04.06.09.06.1s-.06-.03-.1-.08Zm0-.5s.04.06.03.07-.03,0-.05-.05c-.02-.06-.02-.06.02-.02Zm.31.64s-.04.06-.04.01c0-.02-.11-.15-.25-.3-.14-.15-.24-.27-.22-.27.05,0,.52.5.52.55Zm-.55-.29s.03.06,0,.06c-.05,0-.1-.08-.08-.1,0-.01.04,0,.07.04Zm-.09.12s.08.09.06.11c-.01.02-.03.03-.04.03-.02,0-.02,0-.03-.07,0-.02-.02-.06-.04-.09-.02-.04,0-.03.05.02Zm-.03-1.62s-.03-.06,0-.06c.02,0,.05.03.06.06s.02.06,0,.06-.04-.03-.06-.06Z"/>
  </g>
</svg>