<?xml version="1.0" encoding="UTF-8"?>
<svg id="Layer_2" data-name="Layer 2" xmlns="http://www.w3.org/2000/svg" viewBox="0 0 33.94 29.98">
  <defs>
    <style>
      .cls-1 {
        stroke-width: 0px;
      }
    </style>
  </defs>
  <g id="Layer_1-2" data-name="Layer 1">
    <path class="cls-1" d="m11.65,29.17c-4.21-1.02-4.88-5.74-4.07-9.37.19-.87.44-1.83.81-2.64l.15-.37c-.07.04-.14.07-.21.11-1.13.53-2.13.4-2.98-.54-.47-.51-.83-1.13-1.32-1.62-.74-.74-1.68-.92-2.66-.62.18-.07.36-.14.55-.18.2-.04.39-.06.58-.06.67,0,1.27.29,1.79.77.49.45.89,1,1.36,1.47.22.23.47.44.77.55.39.14.82.06,1.22-.06,4.56-1.3,3.44-7.95,2.72-8.46.76.45,1.49.96,2.19,1.51.7.55,1.37,1.14,1.99,1.78.63.63,1.22,1.31,1.75,2.04.53.72,1.02,1.49,1.42,2.3.4.82.72,1.67.94,2.56.23.89.32,1.81.31,2.73-.02,1.53-.41,3.08-1,4.48-.41.99-1,1.93-1.84,2.62-1.23,1.01-2.94,1.38-4.49,1ZM2.52,12.36c.2,0,.41.01.62.07.11.02.21.06.32.1.05.02.1.04.15.06.03.01.05.02.08.03l.09.04c.11.06.23.11.34.17.12.06.24.12.37.17.25.1.5.18.76.22.07.01.14.01.2.02.07,0,.14,0,.21,0,.14-.01.3-.06.43-.15.13-.09.22-.23.26-.36.04-.12.04-.23.03-.33-.02-.19-.07-.33-.12-.45-.05-.11-.1-.2-.13-.25-.03-.06-.05-.08-.05-.08,0,0,0,.14,0,.37,0,.11-.02.25-.07.38-.02.07-.05.13-.09.17-.04.04-.07.06-.11.06-.07.01-.22-.01-.4-.08-.17-.07-.37-.17-.56-.29-.1-.06-.2-.12-.3-.19-.05-.03-.1-.07-.15-.1-.06-.04-.12-.07-.18-.11l-.08-.05s-.07-.03-.1-.05c-.07-.03-.14-.07-.21-.1-.14-.05-.28-.11-.44-.14-.3-.07-.63-.1-.94-.06-.31.03-.61.14-.87.28-.52.28-.86.69-1.08,1.05-.22.36-.34.69-.41.92-.03.12-.05.21-.06.27-.01.06-.01.1-.01.1,0,0,.02-.03.06-.07.04-.05.1-.12.18-.2.16-.17.38-.41.67-.66.28-.24.63-.49,1.01-.63.19-.07.39-.11.59-.12Zm-1.66-3.75c.6.6,1.37.98,2.17,1.23.55.17,1.83.73,2.36.44-.34.57-.24,1.18-.03,1.78-.1-.35-.09-.72,0-1.07.11-.38.43-.64.56-.96-.7-.38-1.6-.34-2.34-.61-.81-.29-2.34-.89-2.24-1.94.17-1.94,1.5-3.7,3.26-4.49.73-.33,1.24-.3,1.68-1.01.29-.46.6-1.17,1.27-1.02.38.09.45.85.4,1.18-.04.22-.32.61-.13.81.1.11.68.17.84.25.51.23.96.61,1.28,1.08.64.96.55,1.97.25,3.02l-.14.39-.16.39.23-.35.21-.37c.44-.94.66-1.9.29-2.92-.2-.55-.56-1.02-1-1.39-.21-.17-.59-.3-.76-.5-.18-.21-.11-.2-.11-.48,0-.75-.19-2.03-1.18-2.06-.71-.02-1.6.69-1.98,1.25-.43.62-1.16.71-1.79,1.05-.66.36-1.25.84-1.74,1.4-.68.78-1.17,1.73-1.4,2.74-.1.43-.15.86-.14,1.3,0,.17.01.34.08.5.06.14.16.25.27.36Zm20.17-.74c.43-.87,1.26-1.59,2.22-1.69.75-.08,1.54.23,2.03.81-1.71-3.51-5.3-.98-5.88,2.65-.31,1.96.09,3.95.42,5.9.36,2.09.57,4.23.32,6.33-.53,4.37-3.03,7.29-7.47,7.85,1.52.7,3.78-.08,5.1-.93,2.43-1.56,3.56-4.52,3.81-7.29.35-3.72-.97-7.13-1.06-10.8-.02-.97.07-1.97.51-2.84Zm2.49,8.37c-.04-.61-.15-1.21-.16-1.81-.08-5.73,4.08-6.65,4.22-6.64-.02,0-.08-.04-.2-.09-.14-.05-.34-.12-.61-.15-.27-.03-.62-.03-.99.06-.38.09-.8.25-1.2.52-.2.14-.4.28-.6.48-.18.18-.36.39-.51.63-.31.46-.56,1.01-.71,1.59-.16.58-.24,1.19-.26,1.82-.02.61.02,1.24.07,1.86.06.6.12,1.21.18,1.8.01.15.02.29.04.44.01.14.02.29.03.43.01.29.02.57.02.85,0,.56-.03,1.1-.08,1.61-.05.51-.12.99-.2,1.43-.08.44-.18.85-.27,1.2-.1.35-.18.67-.26.92-.08.25-.14.45-.19.59-.05.14-.07.21-.07.21,0,0,.04-.07.11-.19.07-.12.18-.31.3-.55.12-.24.26-.53.41-.88.14-.35.29-.75.42-1.19.13-.44.26-.93.35-1.46.1-.53.17-1.09.2-1.67.02-.29.02-.59.02-.89,0-.15,0-.3-.01-.45,0-.15-.02-.31-.03-.46Zm-2.86-10.42c-.07.09-.12.18-.17.27-.05.09-.1.16-.14.24-.07.16-.15.28-.19.4-.08.22-.13.34-.13.34,0,0,.06-.11.18-.31.06-.1.15-.22.24-.36.04-.07.11-.14.17-.22.06-.07.12-.16.2-.24.28-.33.77-.8,1.34-.98,10.78-3.49,12,7.52,1.87,9.31l.21.3c.07.09.17.21.28.34.12.12.25.27.43.42,2.38,1.91,6.08,1.73,7.94-.86,1.39-1.95,1.38-4.71.24-6.81-2.44-4.51-9.07-6.13-12.45-1.83Z"/>
  </g>
</svg>