<?xml version="1.0" encoding="UTF-8"?>
<svg id="Layer_2" data-name="Layer 2" xmlns="http://www.w3.org/2000/svg" viewBox="0 0 33.94 26.1">
  <defs>
    <style>
      .cls-1 {
        stroke-width: 0px;
      }
    </style>
  </defs>
  <g id="Layer_1-2" data-name="Layer 1">
    <path class="cls-1" d="m6.91,9.95c-.38-.4-.42-.72-1.04-.23-.96.76-1.69,1.89-3.01,2.16-1.07.22-1.37.25-1.53-.89-.01-.1-.06-.28-.11-.29-.92-.16-.84-.95-1.14-1.57-.23-.47.08-.7.06-1.04-.06-.85.17-1.62.92-2.2.31-.24.53-.61.26-1.1-.09-.17.03-.68.08-.68,1.16-.08.98-1.35,1.66-1.83.5-.35,1.25-.24,1.63-.83.54-.84.93-.21,1.37.12.21.16.45.28.74.46.09-.6-.3-1.07-.1-1.64.18-.54.38-.44.7-.25.3.19.57.44.88.6.35.18.68.4,1.04-.15.26-.39.8-.1,1.03.15.29.33.69.6.78,1.26.14-.5-.11-.79.17-1.27.05,1.11,1.15.8,1.58,1.49.2.32.36.59.41.96.07.44.04,1.08.81.6.17-.1.4.02.44.11.36.87,1.26,1.53,1.04,2.65-.15.78.17,1.56.05,2.36-.18,1.27-.72,2.42-1.18,3.58-.5,1.28-.73,2.59-.95,3.92-.15.87.22,1.68.42,2.5.04.17.16.39.4.33.16-.04.13-.22.11-.35-.31-2.27.92-3.9,2.28-5.48,1.84-2.13,4.17-3.63,6.47-5.2,1.72-1.17,3.3-2.54,4.32-4.43.19-.36.32-.84.82-.82.49.01.86.41.95.81.25,1.05,1.07,1.44,1.88,1.9.76.43,1.32,1.09,1.68,1.88.24.53.48,1.04.82,1.52.45.64.31,1.22-.44,1.55-1.03.46-2.1.77-3.27.43-.91-.27-1.11-.1-1.27.83-.13.71-.1,1.43-.03,2.14.04.48.27.83.72,1.02.48.2.8.56,1.02,1.03.25.51.42.98-.21,1.34-.02.01-.04.04-.06.06-.26.26-.24,1.02-.6.84-.47-.23-.78-.87-.72-1.46.05-.49.11-.77-.54-.73-.22.01-.47-.31-.75-.45.48.56.64,1.26.89,1.91.07.19.09.4-.07.54-.16.14-.3-.1-.44-.09-.8.08-1.17-.51-1.61-1-.34-.37-.83-.41-1.27-.55-.37-.12-.43.22-.53.48-.46,1.29-.94,2.59-1.4,3.88-.34.93-.96,1.65-1.62,2.36-.18.2-.49.37-.08.64q.64.42.32,1.17c1.32-.25,2.61-.46,3.82.57-1.12.47-2.18.57-3.27.52-.83-.03-1.65,0-2.48-.03-.84-.03-1.55-.25-2.21-.9-.53-.53-1.35-.77-2.06-1.1-.46-.22-.94-.34-1.17-.91-.15-.38-.52-.52-.94-.67-.95-.34-1.85-.85-2.75-1.33-.41-.22-.84-.41-1.26-.6-.48-.22-1.35-.09-1.18-1.13.04-.26-.46-.57-.76-.81-1.08-.88-1.89-1.92-1.8-3.43,0-.16-.03-.34-.11-.48-.39-.62.02-1.36-.3-1.99-.02-.04.02-.14.04-.15,1.33-.26.53-1.4.75-2.07.18-.52.29-.61.84-.54Z"/>
  </g>
</svg>