<?xml version="1.0" encoding="UTF-8"?>
<svg id="Layer_2" data-name="Layer 2" xmlns="http://www.w3.org/2000/svg" viewBox="0 0 31.01 33.94">
  <defs>
    <style>
      .cls-1 {
        stroke-width: 0px;
      }
    </style>
  </defs>
  <g id="Layer_1-2" data-name="Layer 1">
    <path class="cls-1" d="m30.87,22.92c-.09-.08-.16-.25-.14-.35.11-.53.07-1.06.02-1.59-.05-.61-.2-1.19-.62-1.67-.47-.54-.96-1.06-1.44-1.6-.1-.12-.21-.26-.23-.41-.12-.66-.2-1.32-.32-1.97-.06-.31-.16-.61-.25-.91-.01,0-.03,0-.04.01.06.29.11.57.17.86-.37-.91-.64-1.86-1.15-2.71.17.56.34,1.12.51,1.68-.52-1.05-1.01-2.11-1.94-2.88.65.64,1.08,1.42,1.4,2.26.3.79.62,1.58.62,2.44-.2-.44-.37-.89-.5-1.35-.19-.69-.52-1.29-1.06-1.76-.15-.13-.32-.22-.47-.33.74.77,1.12,1.32,1.05,1.63-.5-.49-.61-.56-.93-.53.3.17.58.34.72.69-.24-.07-.45-.13-.66-.19.51.44.53.47.57.95-.05-.05-.14-.12-.26-.22,0,.16-.02.3,0,.41.06.22.03.43-.09.61-.2.3-.41.6-.61.89,0,0-.03,0-.04.01-.04-.04-.08-.08-.1-.09-.23.15-.33-.12-.51-.14.04.15.07.28.1.4-.32-.02-.63-.03-.94-.05,0,.02,0,.04,0,.06.16.03.32.06.44.09-.43.21-.87.42-1.31.64,0,.02.02.04.03.06.22-.05.44-.1.66-.15-.17.14-.36.25-.52.38-.41.31-.82.35-1.3.15-.28-.12-.6-.16-.9-.23,0,.01,0,.03,0,.04.6.26,1.19.53,1.79.79-.56-.11-1.1-.25-1.63-.39-.21-.06-.42-.12-.62-.18.27.04.54.08.81.12-.38-.27-.81-.28-1.25-.25.15.04.3.09.45.14-.14-.02-.28-.05-.42-.07-.18-.03-.35-.05-.53-.07.67.18.89.26.99.39-.79-.05-1.57-.08-2.3.24.51,0,1.02-.08,1.56.09-.83.03-2.03.34-2.3.6.29-.08.57-.18.86-.23.29-.05.59-.05.89-.07,0,.02,0,.04,0,.05-.31.08-.62.14-.91.25-.3.11-.58.26-.85.44-.26.17-.48.39-.72.58.01.02.03.04.04.06.57-.31,1.13-.67,1.79-.79-.84.32-1.57.8-2.13,1.5-.55.69-1.11,1.38-1.33,2.26.17-.22.34-.44.52-.65.02,0,.03.02.05.03-.46.78-.85,1.57-.82,2.51.11-.19.22-.38.34-.57-.06.25-.17.48-.24.72-.24.82-.17,1.62.05,2.44.09.33.1.67.15,1.01-.03,0-.06.01-.08.02-.39-.72-.61-1.5-.78-2.29-.17-.8-.15-1.61.17-2.42-.09.06-.14.1-.2.13-.02-.01-.04-.02-.05-.03.1-.25.2-.5.3-.75,0,0-.02-.02-.03-.02-.08.1-.17.2-.28.33.14-.94.63-1.66,1.11-2.38-.17.15-.35.3-.52.45-.02-.02-.04-.04-.06-.06.46-.51.92-1.01,1.37-1.52-.01-.01-.02-.02-.03-.03-.36.29-.71.59-1.07.88-.01-.02-.03-.03-.04-.05.04-.05.08-.11.12-.16.64-.74,1.28-1.47,1.92-2.2.19-.22.41-.41.61-.62-.78.53-1.51,1.12-2.19,1.78.58-1.09,1.17-2.17,2.07-3.03-.01-.01-.03-.02-.04-.03-.27.26-.55.51-.82.77-.01-.02-.03-.03-.04-.05,0-.06.02-.12.02-.17-.19.24-.38.49-.57.73-.03-.02-.06-.04-.09-.06.39-.74.77-1.48,1.16-2.21,0,0,0,0-.01-.01-.22.29-.43.59-.65.88,0,0-.01-.01-.02-.02.44-.78.88-1.56,1.32-2.34-.02-.01-.05-.03-.07-.04-.62.97-1.24,1.93-1.85,2.9-.02,0-.03-.02-.05-.02.27-.57.51-1.15.81-1.7.32-.56.7-1.08,1.05-1.62.05-.08.09-.16.13-.24,0,0-.02,0-.03-.01-.39.5-.78,1-1.2,1.53.29-.87.6-1.68.82-2.51.23-.83.37-1.68.55-2.52-.02,0-.04-.01-.06-.02-.08.05-.17.11-.26.17.03-.19.06-.36.08-.52-.12.32-.22.66-.39.96-.08.13-.15.27-.22.41-.06.14-.14.28-.22.45.15-.8.29-1.55.43-2.31-.02,0-.04,0-.05-.01-.19.58-.09,1.24-.47,1.78,0-.39.04-.78.08-1.16,0-.04.02-.1,0-.12-.23-.25-.18-.55-.16-.84.02-.28.07-.55.1-.82.03-.29.05-.58.06-.87.01-.29,0-.58,0-.86-.06.84-.08,1.68-.29,2.5-.02,0-.05,0-.07,0-.09-.39-.19-.79-.27-1.14v.71c.16.31.33.61.2.98-.05.15-.08.32-.12.48-.03,0-.05,0-.08,0v-1.45c-.04-.11-.07-.22-.11-.33-.02,0-.04,0-.06,0v1.15c-.13-.58-.2-1.16-.32-1.73-.14-.65-.25-1.29-.16-1.96.02-.18,0-.37,0-.5-.02.17-.06.4-.09.68-.06-.48-.11-.89-.17-1.31-.01,0-.02,0-.04,0,.03.57.06,1.13.08,1.7-.02,0-.04,0-.05,0-.05-.13-.09-.27-.14-.4-.02.06-.01.12,0,.17.17,1.18.36,2.36.52,3.54.04.26,0,.53,0,.79-.13-.56-.2-1.13-.34-1.68-.13-.54-.09-1.11-.34-1.64-.11-.23-.14-.5-.2-.76-.12-.48-.23-.96-.34-1.44-.01,0-.03,0-.05,0,.05.27.1.55.16.82-.02,0-.04.01-.06.02-.25-.71-.49-1.42-.75-2.15.01.14.03.25.04.37,0,0-.02,0-.02,0-.15-.34-.29-.67-.44-1.01-.01,0-.03.01-.05.02.07.25.15.5.22.75-.02,0-.03.01-.05.02-.09-.2-.2-.39-.28-.59-.25-.67-.42-1.38-.78-2.02-.14-.23-.23-.49-.36-.72-.09-.17-.21-.32-.32-.47-.01,0-.02.01-.03.02.38.8.76,1.6,1.14,2.4-.02,0-.03.02-.05.02-.14-.26-.29-.52-.43-.79-.01,0-.02.01-.03.02.12.29.23.59.34.88.28.55.56,1.1.84,1.65.06.11.09.23.13.35h-.01s0,0,0,0c.6,1.37,1.16,2.75,1.4,4.24-.08-.27-.15-.53-.23-.8,0,0-.02,0-.03,0,.03.56.05,1.13.08,1.69-.44-1.69-1.07-3.31-1.68-4.93.04.46.25.88.26,1.34h-.05c-.17-.51-.36-1.03-.52-1.56-.12-.41-.22-.84-.29-1.26-.03-.2.03-.42.05-.63-.05.1-.1.21-.19.37-.17-.59-.32-1.13-.47-1.68-.02,0-.03,0-.05.01.2.81.4,1.62.6,2.42-.31-.2-.41-.5-.48-.81.01.09.02.18.04.26-.01,0-.02,0-.04.01-.1-.29-.21-.57-.31-.86,0,.1.02.19.04.29.09.45.19.91.28,1.36.02-.01.05-.02.07-.03.05.21.09.42.14.64-.03,0-.05.01-.08.02-.06-.16-.12-.33-.18-.49-.13-.27-.26-.54-.38-.82,0,.07,0,.14.02.26-.13-.36-.24-.67-.35-.98-.1-.25-.21-.49-.29-.74-.07-.21-.13-.42-.17-.63-.04-.21-.05-.43-.08-.68-.08.73.18,1.36.33,2.02-.09-.1-.18-.2-.28-.3.09.21.21.39.32.57.04.06.07.14.06.21-.02.32-.05.65-.08.97-.04-.13-.08-.27-.12-.41,0,0-.01,0-.02,0,.05.38.1.77.15,1.15-.01,0-.02,0-.03.01-.21-.37-.41-.73-.61-1.1-.02,0-.03.01-.05.02.34.74.68,1.49,1.02,2.23-.02.01-.04.02-.07.03-.09-.14-.18-.27-.26-.41-.38-.71-.76-1.42-1.13-2.14-.1-.2-.16-.43-.24-.64-.23.04-.27.02-.31-.23-.05-.31-.09-.62-.13-.95v.78s-.06-.01-.11-.02c.04.09.08.16.1.24s0,.17.02.25c0,.03.04.05.07.07.15.1.24.34.17.52-.07-.04-.14-.07-.22-.11.09.15.16.28.23.41.02.06.04.12.05.17.01.01.03.03.04.04,0,0,0,0,0,0,0,0,0,0,0,0,.03.05.05.1.11.2-.07-.05-.11-.07-.14-.1,0-.03,0-.07,0-.1,0,.03,0,.07,0,.1.01-.03.02-.07.03-.1-.01,0-.02,0-.04,0,0-.01,0-.02,0-.04l-.13-.04s0,.02,0,.03c-.01,0-.02,0-.03-.02.01,0,.02,0,.03-.01,0-.06,0-.11,0-.17-.04.01-.09.02-.13.04,0,.01,0,.02,0,.04,0,0-.02,0-.03,0,0-.01,0-.02,0-.03-.25-.25-.51-.5-.76-.74-.03.03-.07.07-.1.1.13.1.34.18.38.31.07.24.26.3.42.42,0,.12-.02.24-.03.38-.06-.06-.11-.11-.16-.15-.12-.08-.24-.16-.36-.24-.01-.01-.03-.02-.04-.03-.07-.05-.12-.12-.2-.14-.2-.07-.41-.12-.62-.18-.11-.03-.21-.08-.31-.12.39.3.79.6,1.18.89,0,.01-.01.02-.01.04.01,0,.03,0,.04,0,0,0,0,0,0,0,0-.02,0-.03-.01-.05.06.07.12.14.18.22l.05.09s.03,0,.04.01c.11.12.23.24.34.36-.01.02-.02.03-.04.05,0,.01,0,.03,0,.04-.06-.06-.11-.11-.17-.17-.01.03-.03.06-.04.09,0,0,0,0,0,0,.04.05.08.11.12.16-.11-.05-.22-.11-.33-.16,0,0,0,0,0,0-.24-.17-.48-.35-.73-.52h-.02s-.02,0-.02,0h0s.02-.02.04-.02c0-.02,0-.03,0-.05-.16-.09-.32-.17-.48-.26,0,.01-.01.03-.02.04,0-.01,0-.03,0-.04-.02.02-.04.03-.06.05-.05.14.02.23.13.29.07.09.14.17.21.26-.01.05-.02.11-.03.17-.22-.18-.43-.33-.63-.49-.31-.25-.58-.54-.95-.73-.44-.23-.82-.6-1.2-.95-.35-.32-.66-.69-.99-1.04-.02.02-.05.05-.07.07.36.38.71.76,1.07,1.14,0,.01-.02.02-.03.03-.21-.08-.42-.17-.62-.25,0,0,0,.02,0,.03.45.24.91.48,1.39.73-.07.05-.1.07-.1.07.53.27.89.75,1.35,1.11-.28-.08-.55-.15-.83-.23.09.08.18.12.29.15.45.12.83.36,1.15.69.09.1.17.21.26.31.12.13.25.26.38.4,0,.01,0,.03,0,.04h0s.03.03.04.04c-.01,0-.02,0-.04,0-.08-.03-.15-.06-.23-.1-.18-.1-.37-.21-.55-.31-.01.02-.03.04-.04.06.2.16.39.33.61.51-.09.03-.14.05-.21.07.55.2.96.56,1.34.99-.05.01-.1.05-.13.03-1.48-.81-2.82-1.8-3.95-3.07.04.07.07.13.14.25-.16-.07-.27-.11-.37-.16.56.5,1.12,1,1.68,1.5-.02.02-.03.04-.05.07-.13-.09-.26-.17-.34-.23-.13,0-.22.01-.33.02.06.03.12.06.18.09.41.22.82.43,1.22.67.16.1.29.27.43.4.22.09.43.2.54.5-.21-.17-.37-.32-.54-.46-.06,0-.11,0-.17,0,0,.02,0,.03,0,.05,0,.02,0,.03,0,.05-.07-.02-.14-.04-.21-.05.03-.01.06-.03.08-.04-.02,0-.03-.02-.05-.03-.01.02-.02.05-.04.07,0,0,0,0,0,0-.08-.03-.17-.07-.25-.1,0-.02,0-.05,0-.07h0s0-.02-.01-.04h.02s-.07-.02-.11-.03c-.02,0-.03,0-.03-.02-.01,0-.03-.02-.04-.03,0,0-.01,0-.01,0,0,.01,0,.02,0,.03.06.1.13.2.2.31-.37.08-.58-.24-.86-.36-.31-.13-.56-.37-.84-.56-.01.02-.03.03-.04.05.17.17.33.33.57.57.37.13.68.49,1.05.89-.1,0-.16,0-.19-.02-.24-.15-.5-.28-.7-.47-.43-.42-.91-.75-1.46-.99.27.31.68.49.89.86-.31-.15-.61-.31-.92-.46.02.03.03.05.05.08,0,.02,0,.05,0,.07,0,0,0,.02,0,.03v.04s-.05.02-.07.02c-.02-.02-.03-.04-.05-.06,0,0,0,0,0,0h0s-.09-.05-.13-.08c0,0,0,0,0,0-.16-.16-.33-.32-.49-.48,0,0,0-.02,0-.03,0,0-.02,0-.03,0-.01,0-.03,0-.04,0,.06.11.12.22.18.32.03.06.07.12.1.18-.51-.26-1.03-.53-1.54-.79,0,0,0,0,0,.01.18.14.36.29.55.43,0,.01-.02.03-.03.04-.06-.02-.13-.03-.19-.05.68.38,1.36.76,2.03,1.15,0,.03-.01.06-.02.09-.06,0-.12.03-.17,0-.3-.1-.6-.22-.9-.31-.24-.07-.48-.11-.72-.17.17.11.32.22.49.33.21-.1.61.06,1.09.47-.22-.02-.4-.03-.62-.05.09.05.14.08.23.13-.2.06-.36.1-.52.15.09.02.17.02.25,0,.23-.03.46-.07.68-.12.49-.1.88.13,1.26.37.11.07.2.2.15.32-.18-.05-.33-.09-.48-.13,0,.01,0,.02,0,.03.2.16.4.31.59.47,0,0,.01.01.02.02.02,0,.04.01.06.02.01.01.02.03.04.04h0s.05.06.08.09c.02.08.04.15.06.23-.02.02-.03.04-.05.05-.45-.17-.9-.33-1.34-.49-.01.02-.02.03-.03.05.13.09.26.18.39.27-.01.02-.02.04-.03.06-.43-.14-.86-.27-1.29-.41,0,.01-.01.03-.02.04.04.03.09.06.17.11-.47.07-.83-.21-1.28-.26.12.07.19.11.26.15,0,.02,0,.03-.01.05-.17,0-.34-.02-.51-.03,0,.02,0,.04,0,.06.18.03.37.05.55.08,0,0,0,.02,0,.02-.08.01-.15.02-.23.03,0,.02,0,.04,0,.06.21.05.42.1.63.14.41.07.83.1,1.24.19.23.05.44.17.66.26,0,.02-.02.04-.02.06-.31-.09-.62-.18-.94-.27,0,0,0,.01,0,.02.07.04.14.09.21.13,0,0,0,.02,0,.03l-1.36-.18s0,.03,0,.04c.18.04.36.08.58.12-.58.04-1.11-.24-1.63-.1.33.04.68.08,1.04.12,0,.02,0,.04,0,.06-.41.03-.83.07-1.24.1.98.05,1.96,0,2.92.28,0,.02,0,.04,0,.06-.94.06-1.88.13-2.79.19-.35.16-.74.19-1.08.37.73-.22,1.46-.38,2.24-.22-.69.15-1.38.31-2.07.46,0,0,0,0,0,.01.41-.03.83-.06,1.25-.1-.52.31-1.02.6-1.52.89.01.02.02.04.03.06.62-.31,1.19-.74,1.92-.82-.02.05-.03.08-.02.06.23-.06.48-.12.72-.19-.41.27-.85.49-1.27.74-.91.53-1.58,1.27-1.88,2.3-.11.39-.25.76-.37,1.15-.07.25-.12.5-.18.75.15-.26.24-.55.36-.81.13-.26.29-.51.44-.76.01,0,.02.01.03.02-.17.8-.33,1.61-.5,2.41.06-.14.13-.28.18-.39-.03.64-.07,1.31-.11,1.97.02,0,.04,0,.05,0,.03-.44.07-.88.1-1.33.14,1.04.33,2.05,1.11,2.89-.07-.23-.13-.41-.19-.59.02,0,.04-.02.06-.03.3.63.72,1.16,1.2,1.61.28-.12.41.2.6.17.27-.05.37.22.62.22-.25-.19-.5-.39-.75-.59.34-.02.65-.04.97-.06,0-.03,0-.05,0-.08-.06,0-.12.01-.17,0-.22-.06-.47-.02-.62-.25.29.02.58.08.85-.11-.56.15-.94-.16-1.32-.49.11.13.21.26.32.39-.07-.02-.16-.02-.21-.07-.41-.4-.68-.88-.91-1.4-.05-.11-.07-.22-.1-.34,0,0,.01,0,.02,0,.11.2.22.4.33.6.02,0,.04,0,.07-.01-.65-1-.48-1.99-.06-2.99-.02.22-.06.43-.08.65-.06.84.02,1.65.58,2.33.33.41,1.1.76,1.53.56-.83-.2-1.35-.93-1.27-1.76.05-.55.59-1.32,1.02-1.39-.35.59-.43.84-.38,1.35.03-.09.05-.16.07-.2.07.22.15.46.23.73.03-.04.04-.05.04-.06-.02-.06-.03-.12-.05-.18-.13-.46-.09-.89.29-1.21.18-.15.41-.24.62-.36.11-.06.21-.11.35-.18-.36-.2-.69-.25-1.05-.2.45-.24.89-.28,1.37-.07.92.41,1.1,1.66.92,2.49-.08-.52-.1-1.03-.36-1.49.05.27.11.53.16.8-.09-.11-.14-.22-.2-.33-.06-.11-.12-.21-.18-.31-.07-.1-.14-.19-.21-.29-.02.05-.01.07,0,.1.39.58.57,1.24.59,1.93.02.56,0,1.12,0,1.68v.26s-.05,0-.07,0l-.35-2.08s-.03,0-.05,0c.03.38.06.76.09,1.14-.02,0-.05.01-.07.02-.27-.59-.55-1.18-.82-1.76-.01,0-.03,0-.04.01.32.8.64,1.61.95,2.41-.01,0-.03.01-.04.02-.23-.33-.46-.66-.69-.98-.02.01-.04.03-.06.04.04.07.09.14.12.21.13.28.31.55.37.85.1.55.13,1.11.18,1.67,0,.01,0,.02-.02.06-.37-.51-.61-1.05-.7-1.67.01.14.03.28.04.42-.01,0-.03,0-.04,0-.09-.12-.18-.24-.27-.36.22.57.45,1.13.7,1.68.07.16.15.29-.04.44-.36-.43-.72-.86-1.08-1.29,0,0-.01.01-.02.02.1.2.2.39.3.59,0,.01.01.03.02.04.04.08.05.18.11.23.34.28.56.66.78,1.03.05.08.09.17.15.28-.09-.01-.14-.02-.17-.02.31.44.62.87.93,1.3-.02.02-.04.03-.06.05-.45-.36-.91-.72-1.36-1.08-.01.01-.02.03-.03.04.41.4.83.79,1.24,1.19-.34-.09-.67-.22-1-.32-.34-.1-.68-.18-1.03-.26,1.16.46,2.34.86,3.19,1.83-.01.02-.02.04-.03.07-.4-.21-.8-.41-1.21-.62.04.09.1.14.16.19.18.16.37.33.55.49.41.24.82.48,1.23.73.1.06.19.14.28.22-.43-.13-.87-.24-1.22-.55-.03-.03-.09-.04-.13-.06,0,.04-.02.08-.03.13-.77-.28-1.48-.74-2.32-.86.33.13.65.26.97.39,0,.01,0,.02,0,.04-.13.02-.27.04-.4.07,0,.02-.01.04-.02.06.75-.17,1.2.31,1.75.71-.22-.04-.39-.07-.57-.1,0,0,0,.02,0,.03.35.17.7.33,1.1.52-.22-.02-.4-.03-.57-.05,0,0,0,.02,0,.03.39.12.79.25,1.18.37,0,.02-.01.04-.02.06-.36.03-.72.06-1.08.09,0,.01,0,.02,0,.03.14.03.29.07.43.1.05.04.1.09.16.12.3.17.6.35.9.52-.01.03-.03.06-.04.08-.54-.22-1.09-.45-1.65-.68.1.1.17.18.24.26,0,.01-.02.02-.03.03-.19-.04-.39-.09-.59-.13.81.35,1.61.7,2.41,1.05,0,.03-.02.05-.03.08-.45-.05-.91-.06-1.35-.16-.45-.1-.87-.3-1.31-.45,0,.01-.01.03-.02.04.4.17.8.35,1.2.52,0,.01,0,.03-.01.04-.42-.05-.85-.1-1.27-.14.33.15.71.17,1.01.42-.24.05-.46.1-.68.14.86,0,1.63.35,2.41.57-.46.09-.92.19-1.38.28,0,.01,0,.02,0,.03.49-.03.98-.05,1.46-.08,0,.02,0,.04,0,.06-.26.09-.52.17-.79.26,0,.02,0,.04,0,.06.59-.22,1.18-.22,1.83-.03-.43.21-.82.39-1.21.58.26-.03.51-.1.76-.16.07-.02.15.01.26.03.06-.15.2.02.36.04-.05-.06-.08-.1-.12-.16.37-.03.71-.05,1.04-.08,0,.02.01.05.02.07-.15.11-.3.22-.49.37.28-.11.49-.24.72-.28.63-.09,1.21.06,1.74.41.23.16.44.34.66.52-.07.41-.04.44.37.55.05.01.11.03.15.07.33.3.55.33.93.09.23-.15.46-.16.69-.04.28.15.58.17.89.16.8-.02,1.59-.05,2.39-.05.49,0,.98.05,1.47.06.42,0,.84-.04,1.26-.05.33,0,.65.02.94.2.2.12.43.12.63,0,.3-.17.61-.17.93-.13.14.02.27.07.48.12-.06-.13-.08-.24-.15-.28-.13-.09-.27-.17-.42-.19-.27-.04-.55-.03-.83-.05-.09,0-.18-.04-.27-.07,0-.02.01-.05.02-.07.39-.14.77-.14,1.14.06.24.12.24.13.33-.12.06,0,.12.01.17,0,.05-.01.09-.06.13-.09-.03-.05-.06-.11-.1-.14-.05-.03-.12-.02-.18-.03-.2,0-.39,0-.59,0,0-.02,0-.05,0-.07.04-.01.08-.05.11-.04.28.05.57.1.85.15.06,0,.12-.02.18-.03-.02-.06-.02-.16-.06-.17-.14-.06-.29-.1-.43-.13-.07-.02-.14,0-.2-.01,0-.02,0-.04,0-.06.06,0,.12,0,.18,0,.08,0,.16-.02.24-.04-.07-.06-.13-.12-.21-.17-.04-.02-.1-.02-.15-.02-.26.02-.52.04-.79.05-.09,0-.19,0-.27-.03-.58-.24-1.14-.28-1.69.07-.13.08-.28.14-.42.2-.06.03-.14.03-.21.04,0-.02-.02-.04-.03-.06.04-.04.07-.1.11-.13.4-.23.68-.58.91-.97.59-.98.87-2.04.67-3.18-.21-1.22-.94-2.12-1.91-2.82-.54-.39-1.18-.51-1.85-.41-.23.03-.46.12-.69.18,0,0,0-.01-.01-.02.18-.13.35-.26.53-.39,0-.01-.02-.03-.02-.04-.18.07-.36.14-.54.21.8-.67,1.66-.58,2.54-.17-.09-1-.17-1.82.19-2.19-.02.65-.06,1.3.18,1.93.08-.29.15-.58.23-.87.01,0,.03,0,.04.01-.01.28-.03.56-.04.84.01,0,.03,0,.04,0,.04-.08.07-.16.14-.29-.02.34-.03.61-.05.88.01,0,.03,0,.04.01.04-.06.08-.13.11-.19.03.01.05.02.08.03-.17.28,0,.5.13.7.15.24.36.46.58.64.42.35.87.66,1.3,1,.18.14.39.28.48.46.21.41.36.85.52,1.28.09.24,0,.46-.16.65-.03.04-.08.07-.09.11-.02.07-.03.15,0,.21.02.03.13.03.19,0,.09-.04.15-.12.2-.15.09.05.16.09.23.13.04-.09.09-.17.12-.26.03-.08.03-.17.06-.3.09.2.22.24.32.13.06-.07.1-.17.12-.26.03-.12.05-.24.08-.39.07.07.12.11.18.17.35-.36-.14-.57-.11-.86.05.08.1.16.16.25.07-.04.14-.08.22-.12-.03.07-.07.12-.07.18,0,.08.01.15.02.23.07-.01.14-.01.2-.04.08-.04.15-.1.22-.15.13.17.03.29-.02.43-.02.07.02.15.03.23.07-.02.16-.01.2-.06.12-.13.22-.27.32-.39.1.09.24.07.26-.05.05-.32.19-.65.04-.98-.12-.26-.25-.53-.38-.78-.18-.35-.42-.61-.85-.6-.09,0-.18-.02-.27-.04-.27-.06-.55-.12-.69-.4-.43-.87-.28-1.7.23-2.48.32-.49.98-.51,1.47-.07-.4-.13-.78-.22-1.14.11.15.04.27.07.39.11.67.19,1.33.43,2.01.54.79.13,1.6.23,2.27-.43.21-.21.37-.52.1-.78Zm-14.36-3.8s.04.04.06.07c-.16.13-.32.26-.48.39-.01-.01-.02-.02-.03-.03.15-.14.3-.28.46-.42Zm-.13-9.37c.06.53,0,1.72-.3,2.47.02-.84-.09-1.69.3-2.47Zm.2,3.61s-.02,0-.03-.01c-.09.16-.17.32-.28.51.06-.71,1.07-3.1,1.42-3.36-.17.83-.26,1.67-.62,2.43-.3.64-.61,1.29-.92,1.93-.02.04-.04.07-.08.1.17-.53.34-1.07.51-1.6ZM9.51,3.61h0s0,0,0,0h-.01Zm-1.52.94s-.02,0-.03.01c0,0,0-.02,0-.03h0s.02,0,.02.02Zm-.03.06s0,0,0,0h0c-.07-.02-.14-.05-.21-.08h.15s.04.03.06.04c0,.01,0,.03,0,.04.01,0,.02.01.03.02h0s-.02,0-.03-.02c0,0,0,0,0,0Zm.82,1.04c-.16-.12-.3-.23-.43-.34-.03-.03-.06-.07-.07-.12-.03-.1-.04-.21-.06-.31.01-.01.02-.03.03-.04.05.08.08.16.14.23.11.12.22.25.35.35.11.09.11.16.03.22ZM.83,14.18s-.1.06-.16.09c-.01-.06-.05-.14-.03-.18.1-.21.21-.41.33-.61.02-.04.1-.05.16-.07.06-.08.12-.16.18-.23,0,0,.05,0,.07.01h0s0,0,0,0c0,.04-.02.08-.03.12-.01,0-.03,0-.04,0-.03.03-.06.05-.09.07,0,.04.02.1,0,.13-.12.22-.25.44-.38.65Zm.34.32c-.09.39-.18.79-.27,1.19-.02,0-.04,0-.06-.01.09-.4.03-.82.34-1.17Zm-.3,1.5c.06,1.15.12,2.31.53,3.41-.57-1.07-.74-2.22-.53-3.41Zm7.27,12c-.15-.09-.31-.17-.46-.26.02-.03.04-.06.07-.09.14.1.29.19.43.29-.01.02-.03.04-.04.06Zm.63,2.38c-.4-.04-.81-.08-1.21-.11,0-.02,0-.03,0-.05.4.03.81.05,1.21.08,0,.03,0,.06,0,.08Zm3.7-25.78c-.12-.24-.21-.43-.32-.66.23.07.39.37.32.66Zm-.26,1.32c.17.29.33.59.5.88-.03.02-.05.03-.08.05-.17-.29-.33-.59-.5-.88.03-.01.05-.03.08-.04Zm.51,2.12c-.42-.86-.84-1.73-1.28-2.63.06.04.12.07.16.11.6.73.86,1.62,1.12,2.52Zm-1.26-3.68c.04.2.08.4.13.59.03.1.1.19.13.29.01.03-.01.08-.02.12-.04-.01-.09-.01-.12-.04-.1-.12-.19-.24-.17-.43.03-.17-.01-.35-.02-.53.02,0,.04,0,.06,0Zm-.2.78c-.19-.08-.25-1.16-.09-1.63.02,0,.05,0,.07-.01.04.35.09.69.13,1.04-.02,0-.05.01-.07.02-.04-.04-.07-.08-.13-.14-.06.27.26.47.09.72Zm-.86,1.2s-.04.04-.07.05c-.13-.18-.26-.37-.39-.55.02-.01.03-.03.05-.04.14.18.28.36.41.54Zm-.71,1.78c.21-.03.22-.02.21.23-.1-.07-.17-.12-.24-.17.01-.02.02-.04.03-.06Zm-.08-3.06s-.02-.02-.02-.03c.01,0,.02,0,.03.01v.02Zm.28-.54s0,0,0,.02c-.01,0-.02,0-.03,0,0,0,0,0,0-.01.01,0,.02,0,.04,0Zm-.27.46s-.03.03-.04.04c0,0,0,0,0,0-.03-.03-.06-.06-.09-.1,0,0,.01,0,.02,0,0,0-.01,0-.02-.01,0-.02,0-.04,0-.06.04.04.09.08.13.13Zm-.27-1.01v.02s-.02-.01-.02-.03h.02Zm-.13-.13v.02s-.02-.01-.02-.03h.02Zm-.02,1.25h.01s.02,0,.02,0c.2.07.4.29.39.42-.09-.07-.19-.13-.28-.2-.06-.06-.12-.13-.18-.19.01,0,.03-.02.04-.03Zm.43.75s-.05.05-.08.07c-.13-.15-.27-.3-.39-.46,0,0,.05-.06.07-.09.01,0,.03,0,.04.02.12.15.24.31.36.46Zm-.56-.59s.02-.04.03-.06c-.01,0-.02,0-.04-.01,0-.01,0-.02,0-.03.01.01.03.03.04.04,0,0,0,0,0,0,0,0,0,0,0,0,.02.04.05.08.07.12-.04-.02-.07-.04-.11-.06Zm.37,4.98c.27.55.53,1.09.81,1.63.1.2.22.39.29.61-.24-.31-.5-.61-.72-.93-.31-.46-.6-.94-.89-1.42-.04-.07-.02-.18-.03-.27.3-.02.38.05.55.38Zm-.55-.38c-.19,0-.29-.12-.35-.28-.02-.04-.01-.13.01-.15.04-.03.12-.05.17-.04.21.05.29.27.17.47Zm-.54-2.45c.06-.01.15-.06.19-.03.09.06.17.16.25.24-.02.02-.04.05-.06.07-.12-.07-.25-.15-.37-.22,0-.02,0-.04,0-.06Zm-.68.78c.19.1.36.14.3.42-.12-.08-.23-.13-.32-.21-.03-.03,0-.12.01-.22Zm-.53-.64c.2.16.42.31.5.57-.01.02-.03.04-.04.06-.1-.05-.21-.09-.3-.16-.11-.08-.21-.19-.3-.29-.03-.04-.03-.11-.05-.17.06,0,.15-.04.19-.01Zm.07,1.32c-.16-.05-.23-.14-.16-.33.17.07.25.15.16.33Zm-.27.19c.25.21.51.43.76.64-.03.03-.06.06-.09.09-.24-.23-.48-.46-.71-.69.01-.01.03-.03.04-.04Zm-3.24,3.89c.09-.08.18-.17.28-.23.46-.24.91-.49,1.38-.69.3-.13.62-.04.96.16h-.77c.47.1.94.17,1.35.44-1.25-.43-2.39-.27-3.44.57.08-.08.15-.17.23-.25Zm-2.11,1.91c-.01-.48.65-1.79.95-1.93-.31.63-.64,1.3-.95,1.93Zm1.03,2.57c-.36-1.45.56-3.38,2.13-3.41-1.48.66-2.13,1.82-2.13,3.41Zm2.34-3.79c.09.02.17.04.26.07-.94.21-1.87.46-2.54,1.23.82-1.26,2.06-1.93,3.53-1.76.85.1,1.59.44,2.23,1.01.22.19.46.36.72.52-.15-.28-.35-.52-.31-.88.06.13.11.24.16.36.01,0,.02,0,.03,0-.02-.11-.04-.22-.06-.34.34.61.69,1.23,1.03,1.84.02,0,.03-.01.05-.02-.07-.26-.14-.53-.21-.79.32.44.55.93.62,1.46.08.59.13,1.18.17,1.78.06.7.1,1.4.1,2.11-.07-.34-.14-.69-.21-1.03-.31-1.66-.95-3.18-2.01-4.5-.25-.31-.61-.54-.93-.81-.06-.05-.13-.07-.19-.11,0,.01-.01.02-.02.03.05.05.1.09.16.15-.44-.13-.86-.27-1.28-.36-.43-.09-.87-.06-1.3.03Zm5.39,11.15s-.03.09-.08.19c-.07-.12-.13-.18-.15-.25-.01-.03.04-.09.06-.13.06.06.13.12.17.19Zm-2.16-3.96c.2.41.41.82.61,1.22,0,0,.01,0,.02,0-.08-.46-.17-.92-.25-1.39.04,0,.08-.01.11-.02.09.41.18.82.27,1.26v-.78s.06,0,.08-.01c.17,1.03.35,2.06.52,3.1-.56-1.09-1.05-2.2-1.38-3.38Zm1.02,4.13c-.59-.81-1.1-1.67-1.35-2.65.57.82,1.03,1.7,1.35,2.65Zm-.36-5.11c.05.21.26.39.15.69-.26-.21-.13-.47-.15-.69Zm-1.53-3.63s-.02.01-.04.02c-.11-.15-.22-.29-.33-.44.02-.02.04-.03.07-.05.1.15.2.31.3.46Zm-.56-1.74s-.06.08-.09.13c-.06-.07-.13-.13-.17-.21-.01-.03.04-.09.1-.21.08.14.14.21.17.29Zm-.52,1.46c.38.39.58.83.71,1.28-.22-.4-.46-.82-.71-1.28Zm.08,6.85s.09-.01.11,0c.08.08.14.18.23.3-.26.05-.32-.1-.38-.22,0-.02.02-.08.04-.08Zm-.18.28c.08.08.14.13.17.19.24.45.48.91.72,1.36.01.03.02.06.03.09-.5-.42-.86-.92-.93-1.64Zm1.05.32c.42.39,1.92,2.5,2.31,3.26-.97-1-2.09-2.59-2.31-3.26Zm1.7,2.97s-.04.09-.08.18c-.07-.1-.12-.16-.13-.22,0-.03.05-.08.08-.12.05.05.11.1.14.16Zm-1.01,2.34c-.09-.04-.19-.05-.29-.08.26,0,.55-.05.79.04.7.24,1.39.52,2.08.79.07.03.13.07.2.11,0,.02-.01.05-.02.07-.43-.09-.87-.13-1.28-.27-.5-.18-.98-.44-1.47-.66Zm2.28,1.33s-.02.04-.02.06c-.24-.05-.48-.1-.72-.16,0-.02.01-.05.02-.07.24.06.49.11.73.17Zm-.45.61c-.2.03-.38-.01-.51-.21.18.05.35.11.53.16,0,.02-.01.04-.02.05Zm.18.47c.33-.09.64-.04.98.11-.37.13-.68.09-.98-.11Zm.69-20.33c.09.22.17.43.26.65.01-.02.03-.04.04-.06.12.05.28.07.36.16.1.12.12.29,0,.45-.03.03-.01.12,0,.17.15.38.3.76.45,1.14.01.03.02.06.02.1-.52-.81-.92-1.67-1.13-2.61Zm1.73,14.59c-.64-.71-.69-1.51-.6-2.34.2.76.39,1.53.6,2.34Zm-1.02.14c.21.26.42.53.62.79-.23,0-.59-.46-.62-.79Zm1.27,1.9c-.16-.23-.54-.31-.51-.73.43.11.32.52.51.73Zm-.49.19c.52.41.85.98,1.31,1.49-.25-.13-1.16-1.15-1.31-1.49Zm1.13-8.53s-.05,0-.07-.02c.14-.57.28-1.13.41-1.7.02,0,.04,0,.05.01-.13.57-.26,1.13-.4,1.7Zm-.23-7.99s-.04,0-.06,0c.07.41.14.82.22,1.28-.55-1.22-.88-2.49-1.64-3.56.02-.01.05-.03.07-.04.51.74,1.01,1.48,1.52,2.23,0,0,.02,0,.03,0-.08-.33-.14-.67-.25-.99-.11-.33-.26-.64-.4-.95.02,0,.04-.02.06-.03.31.68.62,1.35.95,2.07-.02-.23-.03-.44-.04-.64-.01-.21-.02-.43-.03-.66.37.77.36,1.6.48,2.41.02,0,.04,0,.06,0-.04-.77-.07-1.53-.11-2.3.02,0,.03,0,.05-.01.07.37.18.73.21,1.11.04.64.02,1.28.02,1.92,0,.68,0,1.36,0,2.04.02,0,.04,0,.06,0,.16-.42.32-.84.48-1.25.02,0,.03.01.05.02-.23.88-.46,1.76-.69,2.64-.03,0-.05,0-.08,0,.07-1.83-.15-3.61-.98-5.27Zm.89,6.37c.07-.25.14-.51.21-.76.02,0,.03,0,.05.01-.07.25-.13.51-.2.76-.02,0-.04-.01-.06-.02Zm.89-.27s.06.02.08.04c-.1.17-.19.34-.29.52-.03.05-.1.1-.09.14.07.34-.18.51-.37.72-.04.04-.07.08-.11.12-.02-.01-.04-.03-.06-.04.28-.5.56-.99.84-1.49Zm-.8,10.23c.36.94.71,1.83,1.05,2.71-.59-.76-1.04-1.91-1.05-2.71Zm8.02-8.28c-.37-.06-.73-.12-1.1-.19v-.05c.37.06.74.11,1.11.17,0,.02,0,.05-.01.07Zm4.62,8.5c.17.15.11.32.05.51-.02-.3-.23-.43-.49-.51.16-.1.33-.1.44,0Zm1.98-5.81c-.13,0-.26-.02-.38-.06-.92-.31-.9-.54-.76-1.43.05-.3.29-.44.62-.44.68,0,1.05.33,1.13,1.01.01.1.03.2.03.24,0,.45-.24.69-.64.68ZM9.45,3.97s0,0,0,0c0,0,0,0,0,0,0,0,0,0,0,0,0,0,0,0,0,0Zm-6.74,2.2s.05.03.08.05c-.03,0-.07-.02-.1-.02l.02-.02Zm3.56,22.37c-.07-.04-.13-.11-.19-.17.04-.03.08-.08.11-.07.08.03.14.08.27.16-.11.05-.17.1-.19.08Zm-1.84-22.05s-.07.03-.1.05h0s0-.02,0-.03c.03,0,.06,0,.09-.01Zm4.17-2.09s.04.09.06.13c-.03-.04-.07-.09-.1-.13.01,0,.03,0,.04,0,0,0,0,0,0,0Zm-4.31,2.01s0,.03,0,.04c0,0-.02-.01-.03-.02,0,0,.02-.02.03-.03Zm-.55-.34s0,0,0,0h0s-.03-.03-.04-.04c-.01-.01-.03-.03-.04-.04h0s0,0,0,0c.02.01.03.03.05.04.01.01.03.03.04.04Zm5.09-1.06h0s0-.01,0-.01c0,0,.02,0,.03,0h-.02Zm-.08-.35s.04-.03.06-.04c0,.01,0,.02,0,.03-.02,0-.04,0-.06,0Zm.06-.05s0,0,0,0c0,0,0,0,0,0h0s0,0,0,0Zm0,.04s0,0,0,0h0,0Zm.52-.72h0s0,0,0,0c0,0,0,0,0,0,0,0,0,0,0,0Zm-2.21,2.88s0,0,0-.01c0,0,.01,0,.02.01,0,0-.01,0-.01,0Zm0-.01s0,0,0,0c0-.01,0-.02,0-.03h0s0,.02,0,.03c0,0,0,0,0,0Zm21.74,14.42c.02.11-.09.27-.18.38-.03.03-.18-.03-.28-.06-.15-.04-.3-.09-.44-.15-.18-.07-.36-.14-.36-.42.01-.08.03-.19.05-.3.08-.37.28-.46.62-.29.34.17.52.48.59.84Z"/>
  </g>
</svg>