<?xml version="1.0" encoding="UTF-8"?>
<svg id="Layer_2" data-name="Layer 2" xmlns="http://www.w3.org/2000/svg" viewBox="0 0 28.88 33.94">
  <defs>
    <style>
      .cls-1 {
        stroke-width: 0px;
      }
    </style>
  </defs>
  <g id="Layer_1-2" data-name="Layer 1">
    <path class="cls-1" d="m9.82,17.44c-.79,1.53-1.86,4.06-1.96,6.73-.11-1.35-.03-2.9.31-4.66.47-2.47-.5-4.98-2.5-6.51-.04-.03-.09-.07-.13-.1.89-.92,1.9-1.69,2.8-1.69.69,0,1.23.47,1.66,1.43.68,1.52.61,3.27-.18,4.79Zm3.99,5.45c2.57-3.45,7.39-4.76,9.14-8.93,1.51-3.58.13-7.86-2.69-10.38C17.69,1.29,14.03.02,10.64,0,.35-.06-3,11.7,2.9,15.97c0,0,0,0,0,0-1.03-4.4-.28-10.76,6.29-11.19,1.55-.1,3.28.57,4.68,1.4,1.43.85,2.53,2.05,3.09,3.37.99,2.33.32,4.88-1.9,7.19-3.25,3.39-4.75,6.68-4.45,9.78.38,3.85,3.48,6.07,3.51,6.09,0,0,.38.3,1.45.53-3.89-2.18-4.38-6.73-1.76-10.25Zm-3.61-10.33c.71,1.6.62,3.43-.18,4.99-1.79,3.46-4.7,11.43,3.98,15.24,0,0-8.77-6.12.9-16.2C24.57,6.51.24-2.91,2.9,15.97c0,0,0,0,0,0,0,0,5.1-8.35,7.3-3.41Zm18.18,6.38c-.15-.29-.24-.61-.26-.94v-.02c-.03-.51-.22-1-.53-1.39-.23-.29-.54-.64-.95-.99-.52-.45-.91-1.01-1.21-1.63-.21-.44-.58-.94-1.21-1.29,0,0,.12,3.9-4.8,6.8-4.88,2.87-9.43,8.45-3.98,13.54.09.09.21.14.33.15l7.22.79s.27-1.19-4.16-1.63c0,0,4.49-3.94.93-9.43l2.16,2c.53.49,1.31.61,1.96.29.58-.28,1.23-.36,1.86-.21l.74.17c.34.08.71-.02.96-.26h0c.44-.41.45-1.1.03-1.52l-.53-.54c-.2-.2-.46-.31-.74-.32h-.93c-.35-.02-.67-.19-.87-.48l-1.35-2.01,2.24,1.27s5.17,1.81,3.09-2.34Z"/>
  </g>
</svg>