<?xml version="1.0" encoding="UTF-8"?>
<svg id="Layer_2" data-name="Layer 2" xmlns="http://www.w3.org/2000/svg" viewBox="0 0 27.67 33.94">
  <defs>
    <style>
      .cls-1 {
        stroke-width: 0px;
      }
    </style>
  </defs>
  <g id="Layer_1-2" data-name="Layer 1">
    <path class="cls-1" d="m27.26,20.89c.38.88.55,1.89.27,2.82-.04.12-.88.25-1.01.28-.36.08-.72.13-1.08.16-.49.04-.98.04-1.47,0-.23-.02-.46-.04-.69-.08-.23-.04-.45-.08-.68-.13-.22-.05-.43-.12-.65-.18,5.01-4.48-6.06-4.4-7-4.97.79-.08,1.4-.04,1.92-.15.62-.13,1.1-.21,1.65-.52,1.24-.71,2.51-1.53,3.25-2.78.34-.58.66-1.18,1.18-1.62.23-.19.57,0,.53.29h0c-.05.41-.01.81.1,1.2.38,1.25,1.3,2.28,2.11,3.28.6.75,1.2,1.52,1.58,2.41Zm-2.8,12.19c-.51-.66-1.15-1.12-1.94-1.35-.51-.15-1.05-.26-1.5-.55-.44-.29-.77-.73-.97-1.22-.17-.41-.25-.84-.29-1.28-.03-.31-.18-.72-.06-1.02.07-.16.36-.35.47-.5.16-.2.3-.42.41-.65.47-.89.66-1.98.32-2.95,0-.01-.1-.28-.1-.28l.06.29c.1.83,0,1.65-.38,2.4-.17.34-.38.65-.63.93-.12.13-.25.26-.39.38-.02.02-.22.14-.23.17,0,0,0,.11,0,.11-.05,1.36.05,3.11,1.23,4.01.48.36,1.07.51,1.63.7.57.19-2.1.74-3.39-.38-1.42-1.23-2.09-3.06-3.4-4.37,0,0-.27-.27-.27-.27l.23.3.21.31c.14.21.27.42.4.64.25.43.49.87.74,1.31.57,1.04,1.23,2.01,2.09,2.74.55.47,1.18.84,1.93,1.08,1.22.39,2.47.35,3.68-.03.22-.07.3-.33.16-.51h-.01Zm-5.92-.31c-.46-.61-1.05-1.17-1.82-1.35-.5-.12-1.02-.03-1.52.06-.49.09-.99.14-1.48.21l.3-.37c.21-.27.43-.53.63-.82.2-.28.38-.59.51-.91.13-.32.19-.68.16-1.02-.02.34-.13.67-.29.96-.16.3-.36.56-.58.82-.22.25-.46.5-.7.74l-.7.75-.38.41.57-.07c.3-.03.94.27,1.44.54.18.1.1.36-.1.36-1.49-.07-2.98-.07-4.47-.17-.29-.02-.62-.08-.75-.34-.1-.2-.03-.45-.04-.67-.01-.29-.18-.56-.43-.7-.28-.16-.63-.15-.95-.1-.15.02-.34.07-.54.11-.29.05-.6.07-.81-.09.58.44,1.37,0,2.01.25.1.04.21.1.27.19.19.25.04.6.05.91,0,.2.1.4.24.55.17.18.42.27.66.33.68.17,1.38.13,2.08.18.47.03.93.08,1.4.12.67.05,1.34.1,2.01.15l1.68.11c.56.03,1.13.05,1.69.06.27,0,.43-.29.29-.51-.15-.22-.29-.45-.46-.67Zm-13.89-5.33c-.14-.88-.28-1.96-.19-3.2.22-3.2,2.14-5.52,5.22-6.37,2.03-.56,4.23-.64,6.16-1.55,1.63-.76,2.96-2.1,3.68-3.73.42-.96.68-2,.72-3.06,0-.02,0-.05,0-.07C20.54,4.16,15.44.25,10.55.01c-1.93-.09-3.87.29-5.67,1.02-1.21.49-2.38,1.15-3.29,2.1C.67,4.09.17,5.3.03,6.56c-.11,1.1.06,2.24.49,3.29.61,1.47,1.68,2.7,2.93,3.67h0s.05-.14.08-.32c.03-.11.06-.24.11-.4.06-.15.12-.33.21-.51.18-.37.45-.8.85-1.21.39-.41.93-.79,1.57-1.05.32-.13.68-.21,1.03-.25.21-.02.36-.02.56,0,.19.01.37.04.56.09.37.1.74.25,1.04.5.15.12.28.26.4.41.11.15.19.34.24.49l.04.17c0,.05.01.09.02.13,0,.09.02.19,0,.29,0,.2-.05.4-.11.59-.13.39-.36.76-.64,1.09-.58.66-1.4,1.12-2.23,1.63-.42.25-.83.54-1.21.85-.4.32-.75.66-1.08,1.02-.33.36-.63.75-.9,1.15-.26.4-.5.81-.7,1.24-.4.84-.67,1.71-.8,2.56-.02.1-.03.2-.05.31-.01.11-.02.21-.03.32-.02.21-.03.41-.04.61,0,.4,0,.79.04,1.15.14,1.48.6,2.63.98,3.39.19.38.37.66.5.85.13.19.2.29.2.29,0,0-.06-.11-.16-.31-.1-.2-.24-.5-.4-.89-.3-.78-.65-1.94-.7-3.36-.03-.71.03-1.47.19-2.27.08-.39.19-.79.33-1.19.14-.4.31-.79.51-1.18.39-.78.92-1.53,1.54-2.2.31-.34.65-.66,1.01-.94.36-.29.75-.55,1.16-.8.4-.25-3.12,3.13-3.35,8.46-.05,1.26.14,2.35.32,3.23.18.88.37,1.56.49,2.02.13.46.19.71.19.71,0,0-.05-.25-.16-.72-.1-.47-.25-1.16-.4-2.04Z"/>
  </g>
</svg>