<?xml version="1.0" encoding="UTF-8"?>
<svg id="Layer_2" data-name="Layer 2" xmlns="http://www.w3.org/2000/svg" viewBox="0 0 33.94 16.99">
  <defs>
    <style>
      .cls-1 {
        stroke-width: 0px;
      }
    </style>
  </defs>
  <g id="Layer_1-2" data-name="Layer 1">
    <path class="cls-1" d="m5.07.41c.32.32.64.66.94,1.01-.28.56-.44,1.17-.72,1.74-.42.16-.89.14-1.34.2.02-1.08.4-2.14,1.12-2.95Zm28.11,2.74c-.95.02-1.7.69-2.4,1.26-2.02,1.79-3.76,3.87-5.64,5.81-1.05,1.05-2.08,2.16-3.37,2.92-.5.29-1.27.52-1.7,0-.63-.81-.48-1.9-.65-2.85-.22-1.84-1.27-3.54-2.84-4.54-2.41-1.55-5.4-1.87-8.2-1.7.69-1.33.07-2.82-.53-4.06-.98.45-1.65,1.4-2,2.4-.15.35-.21.78-.52,1.04-.91.13-1.88.15-2.66.7-1.22.84-1.75,2.28-2.38,3.55-.2.44-.48,1.01-.14,1.46,2,1.25,5.17,1.22,6.54-.96-.45,1.19-1.56,1.93-2.67,2.43-.42.17-.3.77.09.9,1.01.48,2.07-.12,2.95-.62,1.12.62,1.99,1.61,2.47,2.79.18-.62.37-1.25.76-1.77.65-.92,1.8-1.45,2.93-1.36-.74.21-1.49.51-2.01,1.11-1.02,1.05-1.16,2.8-.33,4-.75.09-2.02.26-1.83,1.32,2.37-.02,4.74.05,7.11-.08,5.45-.27,10.88-2.52,14.59-6.59,1.36-1.54,2.62-3.28,3.1-5.31.12-.66.21-1.76-.69-1.86ZM5.81,12.09c-.18.36.14.69.5.68.71.07,1.28-.44,1.77-.88-.33-.26-.68-.51-1.02-.75-.46.25-1,.45-1.26.95Z"/>
  </g>
</svg>