<?xml version="1.0" encoding="UTF-8"?>
<svg id="Layer_2" data-name="Layer 2" xmlns="http://www.w3.org/2000/svg" viewBox="0 0 31.17 33.94">
  <defs>
    <style>
      .cls-1 {
        stroke-width: 0px;
      }
    </style>
  </defs>
  <g id="Layer_1-2" data-name="Layer 1">
    <path class="cls-1" d="m31.1,18.47c.1.28.09.59-.04.85-.25.49-.86,1.18-2.32,1.13-.22,0-.44.05-.65.16l-1.17.65,1.21-1.38c.07-.08.16-.15.25-.2.26-.15.87-.46,1.58-.66.49-.14.61-.79.19-1.09-1.9-1.35-3.73-1.42-4.56-1.37-.27.02-.52-.16-.58-.42,0,0-.55-.91-.63-.69-.12.35-.27.89-.27,1.38,0,0-.19-.21-.38-.55,0,0-1.79,5.18-4.41,6.02-2.66.85-7.39,2.98-6.65,7.27,1.03,5.92,7.55,2.66,7.55,2.66,0,0-4.37,3.67-7.73.3-3.62-3.64-.06-10.58,5.31-11.45,4.42-.71,4.99-7.08,6.55-8.15,0,0,0,0,0,0,0,0,.84.84.84.84.16.16.26.38.27.61l.03.87c0,.29.28.49.56.44,3.39-.7,4.68,1.8,5.05,2.78ZM.52,5.4c.53-1.16,1.52-2.2,2.86-3,1.29-.78,2.85-1.28,4.38-1.43.45-.04.91-.06,1.37-.06,3.19,0,6.07,1,8.12,2.83,1.37,1.22,2.4,2.88,2.89,4.67.52,1.88.43,3.74-.26,5.39-.98,2.32-2.94,3.73-5.01,5.22-1.56,1.12-3.17,2.28-4.35,3.86-1.41,1.89-1.94,4.27-1.45,6.54.24,1.13.71,2.17,1.38,3.07-.12-.06-.24-.13-.35-.2-.39-.24-.76-.49-1.1-.76,2.15,1.76,4.49,2.24,4.78,2.36-4.01-2.25-5.01-7.37-2.3-11,2.65-3.55,7.62-4.91,9.43-9.21,1.55-3.69.14-8.11-2.78-10.71C15.46.6,11.67-.26,8.19.07,3.39.52-1.46,4.29.41,9.14c-.46-1.29-.43-2.56.1-3.74Zm6.92,8.76l-.72-.09c-1.53-.19-2.87-.75-3.97-1.64,1.26,1.08,2.78,1.67,4.38,1.87-2.26,5.93-2.21,10.07-1.16,12.96-1.11-3.22-.71-7.38,1.21-12.41l.26-.68Zm20.6,18.33s-.8-2.68-5.36-.4c0,0,.82-1.58,1.06-3.22.3-.38,1.25-1.93.91-4.97,3.48.18,4.87-1.79,4.87-1.79-1.95,1.45-4.18,1.06-5.02.84-.2-.05-.42.04-.52.23l-.33.61s-.36.9-4.39,1.57c0,0,6.16,1.31,2.22,7.13h6.56Z"/>
  </g>
</svg>