<?xml version="1.0" encoding="UTF-8"?>
<svg id="Layer_2" data-name="Layer 2" xmlns="http://www.w3.org/2000/svg" viewBox="0 0 32.01 33.94">
  <defs>
    <style>
      .cls-1 {
        stroke-width: 0px;
      }
    </style>
  </defs>
  <g id="Layer_1-2" data-name="Layer 1">
    <path class="cls-1" d="m31.67,9.08c-.34-.85-.42-1.69-.6-2.54-.2-.94-.45-1.77-1.26-2.5-.41-.37-.91-.78-1.29-1.3-.76-1.06-1.56-2.04-3.09-2.43-1.52-.39-2.75-.42-4.29,0-1.83.49-3.22,1.5-4.7,2.48-1.34.89-1.93,2.32-2.73,3.62-.85,1.38-1,2.79-.4,4.31.12.3.46.71-.01.95-.47.24-1.08.58-1.53.21-.71-.58-1.57-1.17-1.85-2.05-.45-1.45-.67-2.97-.97-4.46-.1-.51.25-1.23-.36-1.47-.65-.26-1.14.36-1.65.71-.07.05-.11.15-.18.2-.81.59-.7,1.6-1.09,2.47-.15-.14-.22-.18-.23-.22-.03-.11-.08-.26-.04-.35.52-1.02-.11-1.94-.25-2.89-.04-.27-.24-.69-.48-.31-.55.88-1.52,1.49-1.71,2.6-.19,1.13-.35,2.27.05,3.39.29.81.2,1.5-.57,2.06-1.31.97-1.87,2.3-1.67,3.94.08.64-.05,1.26-.33,1.84-.27.54-.26,1.02.2,1.47.08.08.15.16.2.23.04,0,.08,0,.13.01,0,0,0,0,.01,0,.03-.01.06-.02.09,0,.05.02.09.03.14.05.07,0,.13.04.19.08.03,0,.06.01.08.03.02,0,.03,0,.05,0,.09.03.17.07.25.11.12.03.24.07.36.09.03,0,.06.02.07.04.02,0,.03.02.05.04.05,0,.09.03.11.06,0,0,.02,0,.02,0,.07.03.11.09.1.17-.01.06-.07.1-.13.1,0,0,0,0-.01,0-.02.05-.06.09-.13.09-.2,0-.4-.02-.59-.07h-.7s-.01,0-.02,0c-.01.06-.05.11-.13.11-.03,0-.06,0-.08-.03-.03.04-.06.07-.1.11-1.1,1.16-.7,2.6.77,3.1.14.05.35.06.41.16.55.89.99.26,1.4-.11.26-.23.51-.36.78-.15.29.24.69.27.96.49.52.44,1.48.6,1.37,1.5-.13,1.01.3,1.81.59,2.69.14.42.84.78.56,1.12-.36.41-1.01,0-1.54-.06-.47-.05-.97-.4-1.39-.05-.58.48-1.11,1.02-1.57,1.61-.29.37-.4.91-.15,1.37.25.48.73.29,1.14.28.66-.02,1.32-.05,1.97-.05.51-.06,1.01-.21,1.52-.18.1-.06.22-.09.37-.08.15,0,.29.01.44.01.31-.16.64-.14.97-.09h.52c.05-.03.11-.05.19-.05h1.67c.06,0,.12.01.16.03.05-.02.1-.03.15-.03.34,0,.65.15.85.43.13.18.02.44-.15.55-.08.05-.17.07-.26.05,0,.04-.02.09-.05.12-.04.06-.09.11-.14.14.02.1.01.21,0,.32.09.16.19.31.27.47.02,0,.03,0,.05.01,2.52.7,4.89.07,7.22-.83.46-.18,1.06-.41,1.08-.99.07-1.43,1.03-2.53,1.29-3.89.14-.71.67-1.15,1.19-1.64,1.24-1.16,2.82-1.98,3.58-3.63.33-.71.39-1.55.82-2.18.83-1.23.59-2.65.91-3.97.22-.92-.42-1.64-.87-2.38-.19-.31-.25-.63-.05-.93.2-.29.49-.1.75-.1.64,0,1.13.36,1.66.65.9.49,1.48.09,1.71-.92.3-1.29.36-2.6-.11-3.76Z"/>
  </g>
</svg>