<?xml version="1.0" encoding="UTF-8"?>
<svg id="Layer_2" data-name="Layer 2" xmlns="http://www.w3.org/2000/svg" viewBox="0 0 33.94 26.48">
  <defs>
    <style>
      .cls-1 {
        stroke-width: 0px;
      }
    </style>
  </defs>
  <g id="Layer_1-2" data-name="Layer 1">
    <path class="cls-1" d="m33.94,5.71c-.49.09-.77.45-1.03.83.1-.43.24-.85.22-1.29-.04.13-.07.26-.13.38-.24.04-.37.27-.56.34-.09-.17-.15-.33-.25-.47-.17-.22-.43-.34-.66-.49-.32-.22-.62-.48-.53-.94.08-.43.11-.87.15-1.3.03-.33.11-.67.01-1-.18-.57-.45-1.11-.88-1.53-.38-.37-1.08-.3-1.31.22-.09.19-.06.39-.1.58-.1.48-.16.97-.06,1.47-.08-.11-.15-.22-.22-.33-.22-.35-.87-.59-1.21-.4-.2.11-.38.28-.53.46-.18.21-.19.48-.19.75,0,.38-.06.78.08,1.14.1.24.11.47.08.72-.05.51-.27.95-.62,1.32-.07.08-.11.17-.15.26-.14.3-.27.61-.46.9-.23.34-.57.57-.75.94-.05.11-.08.23-.15.33-.17.24-.37.47-.5.74-.13.27-.26.55-.45.78-.33.41-.61.86-.9,1.3-.22.34-.47.66-.68,1-.11.19-.24.37-.33.56-.19.4-.49.73-.69,1.12-.04.07-.13.13-.14.22-.02.19-.12.32-.22.47-.17.26-.33.53-.48.8-.18.32-.35.65-.51.98-.15.32-.37.59-.55.89-.23.37-.48.43-.81.13-.1-.09-.21-.16-.32-.22-.39-.22-.74-.51-1.04-.82-.3-.31-.61-.62-.93-.92-.06-.06-.09-.13-.2-.18-.14-.06-.32-.12-.41-.28-.03-.06-.02-.15-.08-.17-.25-.08-.32-.34-.51-.48-.09-.06-.18-.1-.26-.15-.2-.13-.3-.38-.52-.52-.2-.13-.32-.34-.53-.47-.29-.19-.63-.3-.83-.61-.04-.06-.13-.1-.2-.14-.21-.12-.46-.19-.61-.4-.05.02,0,.1-.06.12-.1-.02-.07-.2-.17-.16-.18.07-.3.04-.38-.13-.02-.05-.05-.1-.11-.08-.11.03-.19-.06-.24-.12-.16-.19-.41-.18-.58-.2-.16-.01-.24-.06-.32-.16-.01-.01-.03-.02-.05-.03-.05.05.03.12-.04.16-.1.02-.1-.2-.19-.11-.11.1-.12,0-.16-.04-.13-.11-.19-.13-.4-.11-.02,0-.05-.02-.07-.04-.04-.06-.08-.11-.13-.18-.05.07.04.12-.03.18-.02-.02-.05-.03-.06-.05-.08-.09-.13-.21-.31-.13-.09.04-.26.02-.35-.11-.02-.03-.04-.07-.09-.02l-.48.07c-.12.02-.25-.14-.35.04-.07-.06-.15.05-.22-.01-.08-.07-.16-.07-.28-.06-.13.01-.32.11-.42-.06-.1,0,.05.19-.11.12-.2-.09-.35.14-.54.05-.02-.01-.09.01-.09.07,0,.06-.04.06-.08.03-.1-.06-.16-.08-.26.05-.05.07-.29-.08-.36.13-.14-.16-.27,0-.38.05-.15.05-.42-.02-.42.27-.14-.02-.21.08-.29.16,0,0-.06-.03-.09-.05-.06-.03-.08-.11-.16-.1.02.16,0,.25-.03.24-.11-.04-.19.07-.3.06-.15-.01-.28.18-.46.08-.04.14-.23.12-.25.18-.05.12-.3.14-.16.34-.22-.05-.25-.03-.28.16,0,.06-.01.13-.09.13-.34-.01-.47.28-.6.49-.09.13-.21.25-.27.4-.05.12-.18.14-.26.25-.2.27-.44.51-.6.81-.04.07.08.11,0,.13-.14.04-.11.24-.27.25-.02,0-.03.05,0,.08.07.08-.1.24.09.28,0,.01-.01.03-.02.03-.13.07-.1.19-.07.28.05.17-.01.33-.08.47-.06.11-.08.17.03.25.1.08.11.2.03.31-.06.07-.05.09,0,.18.09.14.2.31.23.47.03.14.08.17.19.21.16.05.27.16.19.35-.02.04-.02.07.03.08.07.02.08.06.04.11-.12.16-.06.22.12.2.04,0,.07,0,.09.05.05.13.26.13.23.31.09,0,.08.21.22.09.03-.02.11,0,.08.06-.06.14.07.16.13.18.12.03.16.1.19.2.07.27.35.32.54.39.19.07.38.11.55.22.05.03.06.04.11.04.16.01.33,0,.46.05.35.12.49.12.71-.13.04-.04.09-.04.13-.06.1-.06.26,0,.31-.06.12-.16.34-.2.43-.39.01-.03.05-.04.07-.02.14.09.17-.04.23-.12.03-.04.05-.12.1-.11.19.04.21-.12.29-.21.08-.09.13-.19.24-.25.21-.12.45-.19.63-.37.04.08-.08.1-.03.17.16-.1.28-.26.48-.3.4-.1.8-.2,1.19-.29.08-.02.16-.04.24-.03.47.06.94.13,1.41.21.22.04.43.1.6.29.11.13.34.14.49.24.21.14.39.32.64.39.08.02.15.06.22.12.15.12.34.26.51.26.15,0,.24.06.34.13.12.08.22.14.39.03-.06.16,0,.2.09.26.28.18.57.37.85.54.25.15.5.34.82.33.58-.03,1.15.12,1.73.03.03,0,.06,0,.09.01.26.13.54.11.81.11.09,0,.2.02.23.09.04.09.1.09.18.11.41.07.5.35.31.71-.22.42-.29.9-.2,1.36.11.54.41.97.9,1.25.41.24.84.46.9,1.04.03.26.25.36.5.33.12-.02.15.05.19.13.06.14.17.27.32.26.14,0,.25,0,.35.11.07-.11.01-.18-.02-.26-.03-.06-.09-.13-.01-.2.07-.06.15-.04.22.01.1.07.18.15.23.26.13.28.37.33.64.3.1-.01.2-.01.3-.01.15,0,.28-.11.45-.03.03.02.05-.08.05-.13.01-.11.06-.14.16-.09.04.02.08.08.13.01.04-.05.01-.1,0-.15-.09-.27-.27-.44-.53-.55-.15-.06-.3-.12-.4-.26-.18-.27-.44-.34-.74-.34-.39,0-.73-.13-.97-.45-.1-.13-.1-.21.07-.25.2-.06.41-.11.61-.17.25-.06.47-.17.64-.36.15-.18.34-.24.56-.25.59,0,1.13.19,1.66.41.18.08.26.21.52.06.18-.11.52-.09.75.07.22.15.48.17.72.24.09.03.16-.03.19-.11.07-.18.21-.18.36-.16.26.03.52.08.77.17.09.03.19.04.26-.04.07-.08.03-.17-.02-.24-.05-.08-.08-.16-.02-.24.15-.19.06-.34-.07-.48-.15-.16-.33-.24-.54-.27-.26-.04-.5-.16-.77-.08-.07.02-.15-.02-.2-.07-.16-.2-.32-.15-.51-.04-.31.19-.64.28-1,.12-.06-.03-.13-.04-.14-.12-.01-.08.06-.11.12-.14.26-.12.49-.29.73-.45.55-.37,1.01-.83,1.32-1.43.14-.27.24-.56.39-.83.2-.36.23-.74.19-1.14-.03-.3-.18-.52-.39-.71-.4-.35-.49-.75-.25-1.23.16-.33.2-.72.49-.99.02-.02.03-.05.03-.08.04-.44.35-.76.48-1.16.02-.05.06-.09.12-.08.06,0,.11.05.1.1-.05.26.24.35.25.58,0,.05.06.07.1.04.2-.18.31.02.44.11.06.04.09.16.19.12.09-.04.05-.14.05-.22,0-.15.02-.28.23-.26.1,0,.11-.06.08-.13-.03-.08,0-.15.01-.23.07-.39.07-.77-.22-1.09-.1-.11-.2-.21-.3-.32-.06-.06-.08-.13.03-.16.18-.05.38-.09.56-.02.13.06.24.03.35-.03.46-.26.87-.55.86-1.16,0-.06.01-.12.03-.17.11-.44-.03-.8-.36-1.1-.07-.06-.1-.13-.05-.21,0,0,0-.02-.01-.02,0,0,0,0,0-.01,0,0,0,0,0,0-.02-.03-.03-.06-.01-.09-.07-.18-.08-.33-.07-.48.01-.17.13-.27.28-.32.08-.03.17,0,.22.05,0,0,0,0,0,0,.02-.01.04-.02.07-.01.05.01.09.03.13.06.07-.02.15-.02.24,0,.34.07.66-.04.95-.2.37-.21.72-.47,1.03-.77.29-.28.31-.43.1-.81q-.17-.31.1-.53s0-.02,0-.05c-.04.02-.08.04-.12.05-.06.02-.12.11-.17.04-.06-.08.04-.12.09-.17.11-.12.27-.19.4-.38-.19.09-.28.24-.48.28.26-.54.55-1,1.12-1.21Zm-1.18.92c-.03.08-.09.06-.12-.01-.06-.13-.12-.27-.17-.4-.04-.1,0-.16.08-.22.15-.12.3-.24.46-.36.04.36-.11.68-.24,1Z"/>
  </g>
</svg>