<?xml version="1.0" encoding="UTF-8"?>
<svg id="Layer_2" data-name="Layer 2" xmlns="http://www.w3.org/2000/svg" viewBox="0 0 31.88 33.94">
  <defs>
    <style>
      .cls-1 {
        stroke-width: 0px;
      }
    </style>
  </defs>
  <g id="Layer_1-2" data-name="Layer 1">
    <path class="cls-1" d="m26.99,7.63c-3.35-1.21-7.45.11-9.33,3.16-1.21,1.94-1.48,4.47-.63,6.6.33.68.79,1.29,1.12,1.97,1.28,2.56,2,5.48,1.69,8.34-.62-2.91-1.21-5.94-2.87-8.46-1.35-1.76-2.7-3.63-3.19-5.84-.32-1.7,1.1-3.4,2.79-3.56.64-.07,1.16-.69,1.12-1.34,0-.52.27-1.12-.09-1.58-.3-.25-.68-.39-.89-.75-1.35-1.89-3.7-2.97-6.01-2.82-.85,0-1.72.49-2.55.07-1.33-.6-1.83-2.11-2.13-3.43-1.31.9-2.16,2.43-2.23,4.02-.11,1.66.67,3.24,1.67,4.51-1.2.68-1.74,2.18-1.37,3.49C1.46,14.27-.03,17.81.38,21.26c.21,1.07.46,2.18.23,3.28-.54,1.36-.72,2.89-.43,4.34.21,1.03.86,1.9,1.7,2.51.43.22.26.92-.2.98-.74.18-1.31.73-1.68,1.38,2.12.02,4.25,0,6.37.01,1.46.14,2.64-.94,3.75-1.74.65.5.59,1.41,0,1.93,3.37-.07,6.74.02,10.11-.04,1.86-.84,3.38-2.48,3.98-4.44.04-3.01,0-6.01.02-9.02.02-.93-.13-1.92.32-2.77.67-1.5,2.49-2.37,4.08-1.89,1.36.35,2.32,1.59,2.55,2.94.91-2.1.93-4.57.1-6.7-.79-1.93-2.22-3.78-4.29-4.39Zm-1.25,4.18c.5.19.99.44,1.44.73-3.58-.74-7.29,2.94-6.35,6.53-.72-.69-1.29-1.55-1.52-2.53-.5-1.91.18-4.06,1.67-5.34.98-.85,2.28-1.34,3.58-1.3,1.74,0,3.39,1.01,4.33,2.45-.99-.45-2.08-.66-3.16-.53Z"/>
  </g>
</svg>