<?xml version="1.0" encoding="UTF-8"?>
<svg id="Layer_2" data-name="Layer 2" xmlns="http://www.w3.org/2000/svg" viewBox="0 0 28.69 33.94">
  <defs>
    <style>
      .cls-1 {
        stroke-width: 0px;
      }
    </style>
  </defs>
  <g id="Layer_1-2" data-name="Layer 1">
    <path class="cls-1" d="m4.2,26.37c.92-.3.92-.62.41-1.34-.57-.8-1.06-1.65-2.02-2.26.63-.27.95.28,1.38.16.13-.33-.26-.35-.33-.57-.07-.21-.13-.43.1-.58.69-.47.76-.8.28-1.5-.19-.27-.54-.5-.44-.88.18-.67.34-1.36.66-1.97.25-.48.1-.84-.12-1.19-.29-.47-.05-.77.33-.8.63-.05,1.23-.57,2.02-.02-.52-1.33-.89-2.48.2-3.57.29.31.6.63.9.96-.48-.97.48-1.55.57-2.41.46.43,1.46.25,1.69-.25.61-1.34-.04-2.52-1.48-2.54-1.06-.02-2.08-.23-3.11-.39-.4-.06-.98.18-1.08-.53,0-.04-.12-.1-.15-.08-.74.31-1.26-.44-2.02-.38-1.25.1-1.66-.33-1.94-1.47-.03-.13-.1-.22.07-.28l1.61-.32c.33-.35,1.13.56,1.22-.46,0-.01.29-.01.44,0,.37.04.74.04,1.09-.1.16-.39-.43-.41-.36-.78.53-.16,1.04.05,1.55.07.36.02.68.43.98-.27.22-.51.77.31,1.23.13.08-.18-.07-.28-.13-.41-.12-.24-.37-.49-.1-.75.23-.22.53-.16.78-.02.51.28,1.27-.09,1.61.65.06.14.36.16.48-.03.17-.3-.34-.19-.29-.48.57-.11.68.4.95.69.23.25.28.79.76.67.46-.12.21-.57.26-.88.03-.15.04-.31.29-.43.24.74.48,1.47.75,2.3.31-.36.12-.89.53-1.12.14-.08-.11-.49.25-.4.23.06.53-.05.69.33.44.98,1.11,1.87,1.01,3.02.1-.01.18,0,.2-.03.29-.33.49-1.05.94-.86.47.2.3.92.26,1.41-.04.48-.23.94-.34,1.38.39.39.71-.79,1.03.01.17.43-.37.77-.27,1.22.17.22.26-.05.39-.06,1-.06,1.33-.5.98-1.43-.53-1.41-.83-2.91-1.65-4.22-.43-.69-1.07-1.14-1.74-1.48-.86-.44-.1-1.13-.38-1.64-.04-.07.27-.2.38-.09.37.37.95.38,1.28.84.73,1.02,1.65,1.89,2.18,3.07.45,1,.77.84,1.85.6,1.13-.25,2.37-.05,3.57-.03.08,0,.15.1.23.14.29.14.35.76.73.55.31-.17.53-.59.69-.95.55-1.3,1.07-2.61,1.58-3.92.11-.28.17-.51.57-.41.36.08.34.29.42.57.2.64-.03,1.04-.41,1.53-.55.71-.78,1.57-.85,2.5-.07,1.1-.21,2.22-.49,3.28-.31,1.13-.21,2.17.41,3.1.53.8.56,1.64.36,2.47-.39,1.53-.11,3.05.05,4.54.21,2.04-1.42,3.87-3.49,3.7-.5-.04-1.03.1-1.54.22-.38.09-.24.34-.11.57.72,1.23.43,2.55.33,3.85-.01.18-.15.38-.11.54.41,1.42-.48,2.48-.95,3.66-.2.51-.66.74-1.07,1.05.96.89,2.08.86,3.16.63.84-.18,1.64-.26,2.46-.04.39.11,1.19.13,1.03.46-.19.42-.43,1.11-1.28,1.08-1.29-.05-2.59.09-3.88.15-3.74.2-7.45-.25-11.17-.51-1.1-.08-2.23.11-3.27-.42-.15-.08-.48-.2-.38-.26.93-.52-.28-1.55.53-2.09.23-.15.14-.38-.18-.43-1.05-.16-1.57-1.25-2.6-1.48-.42-.1-.2-.68-.19-.79.1-.8.1-.91-.79-1.55Z"/>
  </g>
</svg>