<?xml version="1.0" encoding="UTF-8"?>
<svg id="Layer_2" data-name="Layer 2" xmlns="http://www.w3.org/2000/svg" viewBox="0 0 37.45 37.46">
  <defs>
    <style>
      .cls-1 {
        stroke-width: 0px;
      }
    </style>
  </defs>
  <g id="Layer_1-2" data-name="Layer 1">
    <path class="cls-1" d="m.75,23.99c1.14,3.92,3.61,7.45,6.92,9.85,3.44,2.54,7.78,3.83,12.05,3.58,3.72-.19,7.38-1.52,10.34-3.79,3.3-2.5,5.73-6.11,6.77-10.12,1.04-3.93.76-8.2-.79-11.96-1.68-4.07-4.84-7.51-8.77-9.51C23.87.31,19.93-.35,16.14.18,9.55,1.03,3.66,5.69,1.28,11.9-.23,15.72-.4,20.05.75,23.99Zm11.07-13.65c-.7.75-1.29,1.59-1.78,2.49-.19-.77-.33-1.56-.27-2.36.67-.17,1.36-.26,2.04-.13ZM3.03,15.76c-.34-.15-.38-.58-.17-.86.63-1.19,1.14-2.53,2.28-3.33.66-.52,1.5-.69,2.33-.68.39-1.02,1.12-1.95,2.19-2.29-.49,2.18-.2,4.56,1.02,6.46.98,1.57,2.49,2.72,4.1,3.6,1.94,1.1,3.67,2.85,4.15,5.1-.79,1.31-1.87,2.49-3.24,3.19-1.56.82-3.51,1.1-5.15.34-.72-.32-1.39-.95-1.44-1.77-.09-1,.69-1.94,1.65-2.14.76-.19,1.52.1,2.24.31-.99-.91-2.61-1.16-3.72-.32-1.05.73-1.51,2.26-.88,3.41.79,1.48,2.53,2.18,4.13,2.31,3.61.36,7.13-2.39,7.9-5.88.42-2.29-.22-4.58-.47-6.85-.28-2.21-.23-4.58.84-6.58.9-1.8,2.54-3.32,4.56-3.66,2.12-.39,4.23.5,5.91,1.73,2.16,1.61,3.86,3.75,5.26,6.02-1.88-.76-3.85-1.42-5.89-1.49-1.04,0-2.23.23-2.88,1.13-.68.95-.44,2.18-.61,3.27-.42,4.01-2.42,7.83-5.5,10.43-1.84,1.54-4.02,2.72-6.37,3.26-.45.59-1.12,1.02-1.88.97-2.08,0-4.15.02-6.23-.02.8-1.06,2.23-1.11,3.44-1.18-1.81-.69-3.28-2.32-3.52-4.28-.39-2.31,1.05-4.74,3.24-5.57.9-.38,1.9-.41,2.86-.3-1.59-.98-3.38,0-5.03.2.33.27.74.31,1.15.2-.55.4-1.03,1.02-1.78,1.04-1.52.25-2.95-.48-4.18-1.28-.31-.19-.54-.46-.68-.78.33,0,.71-.15,1.01.07.65.44,1.31.91,2.09,1.1.86.24,1.75.15,2.63.05-.57-.47-1.31-.16-1.97-.26-1.31-.15-2.39-.99-3.35-1.84-.29-.24-.49-.56-.62-.91,1.23-.13,2.29.77,3.52.65.88-.36.69-1.62,1.49-2.13-1.48.08-3.06.16-4.44-.44Z"/>
  </g>
</svg>