<?xml version="1.0" encoding="UTF-8"?>
<svg id="Layer_2" data-name="Layer 2" xmlns="http://www.w3.org/2000/svg" viewBox="0 0 33.94 22.56">
  <defs>
    <style>
      .cls-1 {
        stroke-width: 0px;
      }
    </style>
  </defs>
  <g id="Layer_1-2" data-name="Layer 1">
    <path class="cls-1" d="m2.72,6.27c.78.06,1.53.3,2.28.52-.06,0-.19.01-.26.02.24.04.46.13.66.26.09.07.19.13.29.19.03.03.08.1.11.13.11.07.22.15.33.23l-.02.04c.19.17.36.36.52.56.13.15.25.31.39.46.06.09.13.18.2.27.19.27.37.56.53.85.13.21.25.43.36.66.06.13.11.27.17.4.1.2.16.41.24.62.14.3.18.64.27.95.02.13.03.26.05.39.15.44.08.91.15,1.37,0,.56.13,1.11.13,1.67h.08c.02.33.02.68.18.98,0,.02,0,.06,0,.08.27.48.61.92,1.08,1.22.16.1.32.19.47.3.23.08.46.17.69.26v.04c.47.09.95.11,1.42.1l-.03.12.13-.03v.07c.07.06.14.13.22.19.13.08.25.16.38.24.18.13.4.22.62.28l-.02.05c.21.05.41.1.62.17.57.15,1.16.11,1.73.23,0,.03-.02.1-.02.14-.17.13-.25.33-.29.53l-.07-.03c-.02.29-.02.59,0,.88l.07-.04c.07.36.32.62.64.78.03,0,.1-.02.13-.03,0,.03,0,.08-.01.1.27.04.53.08.81.07,1.12,0,2.25,0,3.37,0,.42,0,.85.03,1.26-.06,0-.07.02-.2.03-.26-.06,0-.17,0-.23,0l.02-.08c-.12-.06-.24-.12-.35-.18-.06,0-.17-.03-.22-.04l.02-.08c-.42-.11-.84-.22-1.28-.28-.37-.03-.75.04-1.1-.11-.01-.12-.02-.24-.03-.36.18,0,.35-.01.53-.01l-.02-.08c.39-.01.77-.08,1.14-.21l-.02-.07c.23-.04.47-.11.65-.28.16-.05.32-.09.48-.13,0,.05.01.15.01.21h.05c.15.22.35.42.55.6.1.09.19.18.29.28.2.34.42.81.9.72l-.03.07c.34,0,.68,0,1.03,0,.05-.03.15-.1.2-.13,0-.15-.01-.29-.02-.44.05-.01.15-.04.2-.05-.39-.09-.83.02-1.19-.21-.03,0-.08,0-.11,0-.13-.34-.07-.7-.02-1.04.02,0,.05,0,.07,0,.07-.13.15-.25.24-.37.25-.07.51-.11.77-.08.08.03.25.08.33.11,0,.01,0,.03,0,.04.12.07.24.16.36.25.08.07.17.13.25.19.03.04.1.12.14.16.16.04.33.07.49.09v.1s.1-.03.14-.04c.08.17.16.34.23.51l.05-.03c.07.26.17.52.24.78h.05s.06.17.06.17c.56.05,1.11,0,1.67.02l-.02-.08c.3,0,.6,0,.9-.03.05-.12.11-.24.18-.35-.03-.13-.05-.25-.08-.38-.34-.02-.68-.02-1.02-.02l.02-.07c-.27,0-.55-.04-.81-.11-.08-.14-.23-.25-.24-.42-.04-.47-.03-.96.14-1.41.06-.2.11-.41.16-.62l.05.02c.04-.15.13-.27.24-.37,1.04-.3,2.13-.15,3.19-.2l-.03-.07c.15,0,.31,0,.46-.02.16-.1.32-.18.44-.33.04-.03.13-.08.18-.11h.35v-.07c.07-.07.16-.15.24-.23.03,0,.1.01.13.02v-.07c.11-.08.18-.19.23-.32h.06c0-.16-.01-.33-.01-.49l-.11.02s.03-.11.03-.14c-.09-.12-.17-.25-.26-.37-.2-.23-.35-.49-.49-.76,0-.06,0-.18,0-.24-.02,0-.06,0-.08,0,0-.26-.08-.5-.24-.7-.12-.05-.24-.1-.36-.15-.02-.03-.07-.09-.1-.13-.24-.14-.46-.3-.68-.46-.11-.07-.22-.14-.34-.21,0-.43,0-.86-.09-1.28l-.09.02c0-.06-.02-.18-.02-.23-.06-.08-.13-.16-.19-.24-.37-.23-.8-.18-1.16.03-.05.12-.1.24-.14.37l-.06-.03c-.03.16-.06.32-.1.47-.16,0-.33,0-.49.01-.12-.13-.3-.17-.46-.22l.02-.07c-.31-.03-.6.07-.86.23-.01.13-.02.27-.03.4-.03.09-.07.19-.1.28-.15.05-.3.1-.44.15l.02.09c-.15,0-.3-.01-.45-.02-.21-.11-.43-.21-.64-.31-.16-.1-.32-.19-.48-.29-.12-.08-.24-.16-.36-.24h-.02c-.12-.09-.24-.18-.36-.27h-.02c-.39-.28-.78-.56-1.2-.8-.17-.11-.35-.2-.54-.26l.02-.05c-.22-.07-.45-.16-.67-.23v-.05c-.38-.06-.76-.18-1.15-.27-.95-.16-1.93-.11-2.88.09v.05c-.3.03-.6.12-.88.27-.15.05-.29.1-.44.14l.03.06c-.17.07-.34.15-.51.22l.03.05c-.29.14-.56.33-.8.54-.1.07-.2.14-.3.21-.02.04-.05.11-.07.15-.05.03-.14.09-.19.11-.08.1-.16.19-.25.28l.03.06h-.08c-.1.14-.23.26-.31.41-.03.06-.08.18-.1.25-.06.01-.17.04-.23.06,0-.18-.02-.36-.02-.54,0-.05,0-.15,0-.21-.02,0-.06.01-.09.02,0-.54-.13-1.07-.21-1.61-.02,0-.05.02-.07.03-.02-.31-.08-.61-.16-.9-.03-.11-.05-.23-.07-.34l-.06.02c-.05-.32-.13-.64-.22-.95l-.06.03c-.04-.3-.13-.58-.23-.87l-.05.02c-.05-.18-.09-.36-.17-.53-.09-.19-.17-.39-.26-.58-.02-.04-.05-.12-.07-.16-.15-.34-.34-.66-.48-1.01l-.05.02c-.07-.16-.15-.33-.22-.49l-.05.03c-.08-.16-.16-.33-.24-.49l-.06.03c-.05-.11-.11-.22-.17-.33-.13-.16-.25-.33-.38-.48-.06-.09-.12-.18-.18-.26-.19-.21-.38-.41-.55-.64l-.03.03c-.08-.11-.15-.22-.23-.33l-.03.03c-.08-.08-.16-.15-.24-.23l.02-.02c-.23-.16-.43-.35-.64-.54-.25-.19-.51-.37-.75-.56-.11-.07-.22-.13-.33-.2-.37-.25-.77-.44-1.16-.65-.15-.06-.3-.12-.44-.19-.25-.14-.54-.21-.83-.27l.04-.06c-.47-.09-.93-.24-1.42-.22l.02-.08c-.3,0-.6,0-.9,0l.04.08c-.21,0-.41.02-.61.04-.18.07-.36.12-.54.17l.03.08c-.06,0-.18.01-.24.02-.34.2-.68.41-.96.69-.09.1-.18.19-.27.29-.07.1-.13.2-.2.3-.01.02-.04.05-.05.06-.07.14-.13.28-.18.42h-.06c-.1.32-.2.65-.21.99-.02.59-.07,1.2.13,1.77.13.16.25.32.38.48.13.1.27.2.4.3.19.1.39.18.59.22l-.03.05c.12.03.23.06.34.09.3.07.61.12.92.13l-.05.07Z"/>
  </g>
</svg>