<?xml version="1.0" encoding="UTF-8"?>
<svg id="Layer_2" data-name="Layer 2" xmlns="http://www.w3.org/2000/svg" viewBox="0 0 33.94 30.4">
  <defs>
    <style>
      .cls-1 {
        stroke-width: 0px;
      }
    </style>
  </defs>
  <g id="Layer_1-2" data-name="Layer 1">
    <path class="cls-1" d="m.75,11.08c.42-.16.85-.28,1.27-.42.12-.04.24-.07.35-.11.21-.1.44-.15.68-.17-.21.26-.47.48-.76.65-.12.09-.25.18-.39.23l.02.05c-.08.03-.16.06-.24.09.22.03.43-.03.64-.09v-.06c.16,0,.33-.04.47-.12.05-.01.09-.03.14-.04.15-.07.31-.11.47-.18.16-.08.33-.13.5-.21.02-.01.07-.04.09-.05.29-.16.58-.3.87-.45.11-.06.24-.06.36-.07-.3.25-.64.46-.98.65-.02,0-.07.02-.09.03-.04.03-.11.09-.15.11-.03,0-.1-.02-.13-.03,0,.01,0,.04,0,.06.07,0,.13,0,.2,0v-.06c.09,0,.18,0,.26-.05.79-.31,1.52-.75,2.24-1.19.15-.05.29-.1.41-.21.28-.09.65-.18.87.1.3.35.55.73.79,1.13.07.14.13.28.24.39,0,.04.01.12.01.16-.03-.01-.09-.03-.12-.04-.2-.21-.4-.42-.59-.64-.04-.1-.07-.19-.1-.29-.08.78-.04,1.56-.03,2.34h.06c-.03.55.16,1.07.29,1.59.09.16.15.34.21.52h.05c.05.15.12.3.22.43.12.2.26.4.42.57.06.08.12.15.2.21.06.08.13.15.21.2.26.28.59.46.9.68.07.04.14.08.22.12.2.12.42.18.62.3.14.04.29.08.42.14.08.01.16.03.23.04,0,.48.05.95.17,1.42.1.23.13.49.21.73h.05c.03.16.07.33.16.47.06.11.12.22.18.32.12.22.25.44.42.64.06.1.12.19.18.29.07.05.12.13.16.2.02.03.07.08.09.1.06.09.12.17.2.25.13.13.24.28.34.44.03.02.09.06.12.08.02.03.05.09.07.12.08.06.16.13.23.21.2.2.41.39.63.57.09.06.18.13.27.2.11.05.23.08.34.11,0-.58-.45-.99-.7-1.46.15.03.29.08.41.19l.04.03c.08.03.16.06.24.1.16.09.35.13.52.22.28.13.62.21.89,0,.08-.1.15-.21.22-.31,0-.04,0-.13,0-.17.06-.04.12-.08.19-.11.02-.09.03-.19.04-.28.12-.11.12-.26.11-.41-.25-.08-.47-.23-.73-.27-.07-.03-.14-.06-.21-.08-.18-.07-.38-.08-.55-.16-.07-.03-.15-.05-.22-.08-.11-.03-.23-.05-.34-.08,0-.03.02-.1.03-.13.2-.02.41-.04.59-.13.16-.07.32-.14.47-.22.12-.07.25-.13.36-.21.1-.06.19-.12.29-.18.12-.08.23-.15.34-.24.22-.14.45-.26.66-.42.16-.04.32-.08.47-.15.12,0,.24,0,.36,0,.12.05.24.1.36.14.21.14.41.3.62.44.2.22.43.41.61.66.22.23.38.52.59.75.06.12.13.24.22.35.05.11.11.22.17.33.09.17.13.36.26.51.1.42.06.85.1,1.28.06.21.01.43.11.63.02.22.05.43.09.65.1.24.15.5.24.75.02.04.06.11.08.14.03.12.08.24.14.35.06.1.12.21.17.32.12.2.25.4.38.6.1.11.19.23.29.34.04.07.09.14.14.2.15.2.29.42.43.64.07.12.13.25.2.36.07.13.14.27.22.4.05.1.11.2.16.31.14.19.24.42.45.55.11.22.51-.06.54.22.02.08.05.15.07.23.04.08.09.16.13.23.17.04.35.07.53.04.04-.09.07-.18.1-.27.16.01.31.02.47.02.03-.1.07-.19.18-.21-.03,0-.09,0-.13.01,0-.1,0-.2,0-.29.2-.05.23-.24.23-.42.2-.02.22-.2.21-.36.11,0,.23,0,.35,0-.01-.19-.03-.38-.06-.57h-.06c-.04-.2-.05-.44-.21-.59,0-.03-.02-.1-.03-.14-.08-.03-.15-.06-.23-.09-.13,0-.25-.02-.38-.02-.14-.08-.28-.17-.38-.3-.03-.52.24-.99.41-1.46.07-.14.11-.3.21-.43.16-.46.41-.88.59-1.33.03,0,.1.02.13.02.28.33.66.55.96.87.1.07.21.12.32.18.04,0,.13.02.17.03.15.08.32.06.49.04.11-.09.23-.17.34-.26.19-.22.34-.47.45-.74.19-.34.49-.59.75-.87.07-.07.14-.14.21-.21.15-.13.29-.28.42-.42.08-.07.14-.15.2-.24.02-.02.08-.06.1-.09.03-.09.07-.17.15-.23.09-.27.12-.56.05-.84-.09-.28.03-.57.09-.84.01-.27-.06-.53-.07-.79.13-.04.24-.1.33-.2.07-.04.14-.08.21-.12.07-.08.14-.15.21-.21.07-.08.13-.15.2-.23.04-.08.08-.15.13-.22.23-.33.21-.77.04-1.12-.06,0-.17.01-.23.01-.42.31-.78.73-1.28.9-.03-.07-.06-.13-.09-.2-.05-.07-.1-.14-.16-.21-.07-.07-.14-.14-.2-.21-.21-.22-.48-.37-.73-.53-.17-.11-.36-.16-.54-.26-.16-.06-.33-.1-.49-.15,0-.45.05-.91-.04-1.36-.35-.17-.65.09-.9.31-.06.06-.13.12-.19.18-.1.16-.22.31-.33.46-.03,0-.08-.01-.11-.02-.05-.07-.11-.13-.17-.2-.06-.06-.13-.11-.19-.17-.26-.23-.53-.45-.83-.64-.41-.33-.89-.57-1.34-.83-.1-.05-.2-.09-.3-.13-.26-.21-.48-.46-.73-.67-.07-.07-.14-.14-.21-.21-.08-.06-.15-.13-.23-.19-.06-.06-.12-.11-.18-.17-.2-.15-.39-.31-.58-.47-.09-.06-.17-.11-.25-.17-.08-.06-.16-.11-.24-.16-.11-.08-.23-.15-.35-.22-.11-.08-.23-.14-.36-.2-.14-.08-.29-.14-.43-.21-.19-.1-.4-.16-.61-.22-1-.36-2.13-.39-3.16-.13-.21.04-.44.03-.64.14-.04,0-.11.02-.14.03-.37.1-.73.26-1.12.32.06-.1.13-.21.22-.28.07-.1.13-.19.19-.29.06-.06.1-.14.14-.21.09-.11.16-.23.23-.35.07-.14.13-.28.22-.42.08-.14.12-.29.17-.44.12-.19.18-.41.21-.63.22-.38.14-.84.27-1.24.04-.38.03-.76.02-1.13,0-.29-.11-.56-.11-.84-.11-.54-.3-1.07-.55-1.56-.06-.09-.11-.17-.16-.26-.15-.19-.3-.38-.49-.53-.14,0-.29,0-.43,0-.06.15-.11.3-.14.46-.02-.05-.07-.16-.09-.21-.11-.33-.31-.61-.46-.92-.09-.11-.16-.22-.24-.33-.06-.08-.12-.16-.18-.24-.21-.26-.42-.52-.66-.75-.06-.08-.13-.15-.21-.21-.07-.07-.14-.14-.22-.2-.11-.1-.22-.2-.33-.3-.03-.02-.09-.05-.12-.07-.18-.1-.37-.19-.57-.21.12.33.27.67.53.91-.05,0-.09,0-.14.01-.19-.16-.37-.34-.55-.51-.19-.18-.4-.33-.62-.47-.11-.08-.23-.16-.34-.24-.09-.05-.18-.09-.26-.14-.12-.08-.26-.13-.39-.17-.1-.06-.21-.08-.34-.06.05.11.1.21.18.3-.07-.04-.11,0-.1.08-.61-.05-1.22-.21-1.84-.15-.38.09-.77.07-1.15.13v.06c-.09,0-.17,0-.25.01-.2.08-.43.08-.62.18-.2.06-.4.12-.6.17v.05c-.37.07-.69.27-1.04.38v.05s-.14.03-.19.04l.11.06c.58-.06,1.16-.12,1.73-.02-.14.13-.33.17-.51.16-.5.04-.93.32-1.4.48-.24.17-.53.27-.76.45-.1.06-.2.12-.3.18-.11.08-.22.16-.33.24-.14.12-.28.23-.44.33-.14.14-.28.28-.44.41-.1.1-.21.21-.31.31-.16.15-.3.33-.46.48-.09.12-.19.23-.28.34.11-.01.2-.07.28-.15.16-.09.31-.2.47-.3.05-.04.11-.07.16-.11.25-.18.56-.28.85-.38-.16.17-.34.31-.53.43-.24.15-.43.36-.65.54-.19.16-.32.37-.48.56-.22.31-.41.63-.6.96-.08.14-.13.29-.21.43-.13.34-.33.65-.39,1.02h-.05c-.06.17-.11.36-.16.54-.13.26-.17.55-.22.83-.13.13-.09.34-.16.5-.03.14,0,.3-.1.41-.04.19-.04.39-.12.57-.02.18-.03.36-.05.54-.06.09-.1.18-.11.29.13,0,.25-.03.31-.15.15-.05.3-.1.44-.18Z"/>
  </g>
</svg>