<?xml version="1.0" encoding="UTF-8"?>
<svg id="Layer_2" data-name="Layer 2" xmlns="http://www.w3.org/2000/svg" viewBox="0 0 30.5 33.94">
  <defs>
    <style>
      .cls-1 {
        stroke-width: 0px;
      }
    </style>
  </defs>
  <g id="Layer_1-2" data-name="Layer 1">
    <path class="cls-1" d="m30.06,20.28c-.42-.32-.85-.62-1.23-.99-.23-.23-.48-.45-.77-.61-.33-.19-.69-.31-1-.55-.53-.41-1.13-.72-1.79-.85-.25-.05-.4-.15-.42-.4-.04-.48-.19-.94-.3-1.41-.11-.47-.51-.72-.68-1.17-.11.18.01.27.02.41-.31-.23-.49-.57-.87-.78.05.13.08.19.1.25-.43-.27-.83-.53-1.24-.77-.24-.14-.52-.27-.78-.25-.27.02-.51,0-.76-.04-.06-.01-.13-.03-.18.06.13.04.18.14.2.28-.27,0-.53-.14-.81-.06.07.11.18.1.27.14.17.09.34.2.51.3.22.13,0,.34.11.5-.11-.04-.18-.12-.27-.13-.26-.03-.46-.45-.79-.11.26.04.44.16.64.29.09.06-.06.17.09.18.21.02.36.13.44.33.04.1.22.19.11.28-.09.07-.12-.11-.17-.18-.05-.06-.13-.1-.19-.06-.09.07,0,.12.05.17.07.09.12.17.05.28-.12-.03-.07-.13-.1-.18-.03-.05-.06-.1-.12-.06-.04.03-.12.07-.02.13.02.02.01.08.03.12.01.04.05.09,0,.12-.05.05-.1,0-.14-.02-.04-.03-.06-.09-.17-.07.13.06-.03.19.12.26.46.21.7.69,1.09.99.11.09,0,.18,0,.25-.1.05-.1-.1-.19-.07-.03.18.12.16.19.22.05.04.13.06.11.14-.02.06-.09.04-.14.05-.06,0-.12.01-.18.03-.17.05-.23-.02-.23-.18,0-.06.02-.13-.03-.2-.01.12-.02.22-.03.33-.01.09-.17-.12-.14.06.05.24-.09.24-.24.17-.07-.03-.09-.02-.13.02-.04.04-.02.08.02.11.07.06.12.13.2.18.06.04.12.08.1.17-.04.21-.08.4-.37.42-.16,0-.39.08-.41.19-.03.16-.16.2-.23.28-.57.58-1.31.38-1.95.24-.58-.12-1.06-.57-1.63-.8-.13-.05-.24-.14-.4-.13-.11,0-.23-.01-.25-.18-.03-.16.06-.19.18-.23.08-.02.19-.05.19-.15.02-.25.05-.49.02-.74-.03-.25.02-.45.32-.51-.19.03-.36-.16-.52,0-.04-.06-.02-.1,0-.11.18-.09.08-.16-.01-.24-.03-.02,0-.25.02-.28.07-.07.06-.17.08-.25.04-.2-.08-.42.12-.6-.17-.03-.28.13-.44.07.09-.21.29-.32.41-.49.13-.18-.03-.41.1-.61-.23-.03-.21.25-.39.26,0-.09.18-.21-.05-.23-.12-.01-.08-.09-.05-.16.07-.16.2-.32.19-.48,0-.22-.02-.43.09-.62.02-.03.03-.08-.02-.08-.16,0-.08-.07-.06-.15.03-.1-.02-.18-.11-.24-.08.1-.07.27-.23.26-.04-.39.31-.56.49-.82-.39-.12.09-.25-.02-.38-.08-.02-.18.07-.24-.03-.07-.1.02-.18.07-.27.01-.02.03-.04.05-.06.19-.17-.02-.13-.1-.16.11-.14.12-.33.23-.45.09-.1.12-.18.04-.26-.09-.09-.18-.03-.26.04-.05.04-.1.11-.16.07-.1-.06,0-.12.03-.17.02-.06,0-.1-.02-.15-.07-.21-.17-.43.08-.61.06-.04.12-.19.09-.24-.11-.23.03-.43.03-.64,0-.14.05-.37-.22-.38.11-.25.09-.55.23-.79.05-.08.02-.15-.07-.2-.11-.06-.21-.14-.36-.07.02-.14.14-.17.17-.26.02-.07.1-.15.04-.22-.06-.07-.13.01-.19.03-.11.03-.13.04-.17-.11-.04-.17-.11-.3,0-.46.02-.02.03-.06,0-.09-.15-.16-.15-.16-.08-.36.07-.23.17-.47-.02-.72-.09.14-.15.27-.32.09-.08-.08-.05-.14-.04-.21.03-.17.07-.33.11-.5.06-.23-.23-.21-.28-.38,0-.03-.04.1-.13.07.02-.24.1-.49.03-.79-.09.33-.4,0-.48.26-.08-.08.09-.21-.08-.23-.18-.02-.15-.14-.13-.25.02-.11.05-.23.06-.34,0-.08.02-.17-.07-.21-.08-.03-.13.04-.18.09-.06.05-.11.16-.19.1-.07-.04-.03-.15-.03-.23,0-.11.14-.25.01-.32-.16-.08-.18-.47-.49-.24-.03.02-.06-.03-.07-.06-.03-.07-.06-.16-.14-.14-.1.02-.06.13-.08.21-.01.06-.02.12-.04.18-.01.05,0,.14-.09.13-.06,0-.07-.08-.08-.13-.03-.2-.06-.39-.09-.59-.1.19-.17.38-.31.52-.11-.08.02-.21-.09-.27-.11.08.01.22-.11.3-.11-.28-.32-.54-.09-.86-.14,0-.12.17-.23.12-.09-.04-.06-.14-.07-.21-.04-.36-.11-.46-.45-.47-.18,0-.24-.09-.29-.25-.06.08-.11.18-.12.17-.29-.08-.24.16-.3.3-.03.07-.06.19-.15.14-.18-.1-.16.06-.22.13-.04.05,0,.17-.1.16-.1,0-.14-.09-.18-.18-.04-.1-.04-.23-.2-.29.03.21.06.39.09.57,0,.07.05.17-.04.19-.11.02-.09-.1-.11-.17-.01-.07,0-.17-.09-.17-.08,0-.06.09-.07.15-.01.06,0,.14-.08.15-.07,0-.1-.07-.13-.12-.07-.13-.19-.18-.3-.25-.17-.12-.16.07-.23.12-.14.1,0,.13.05.17.08.05.2.12.12.19-.12.13-.06.22,0,.33.02.05.05.1,0,.15-.04.03-.09,0-.12-.02-.17-.11-.44-.06-.51-.33-.01-.05-.11-.08-.18-.12-.04.07,0,.12,0,.17.01.05,0,.09-.07.09-.05,0-.13,0-.12-.07.04-.28-.23-.16-.31-.31-.04.1,0,.14.03.19.04.11.12.26.03.32-.11.08-.25,0-.34-.12-.04-.05-.08-.1-.12-.14-.06-.06-.09-.16-.2-.15-.16.02-.29-.05-.41-.21-.03.47-.35.13-.5.21-.03.1.15.13.05.21-.07.06-.15,0-.22-.05-.07-.04-.13-.11-.22-.08-.22.08-.41.27-.67.15,0,0-.04.01-.04.03-.11.29-.28.14-.48.05.02.2-.09.37-.23.38-.36.02-.28.23-.24.44.01.05.05.12-.04.12-.08,0-.18-.05-.17.08.01.11.04.23.17.29.07.03.18.05.14.16-.04.1-.14.04-.21.03-.18-.02-.32,0-.3.24,0,.06-.04.16-.1.14-.24-.1-.28.18-.45.23-.17.06-.21.19-.06.34.11.11.12.27.19.43-.52-.09-.14.24-.18.37-.11,0-.22-.09-.28.03-.05.11.04.2.11.28.08.09.15.19.21.28-.09.12-.21,0-.28.08,0,.01,0,.02,0,.03,0,.15.41.29,0,.44,0,0,0,.07.02.09.17.25.15.58.37.81.05.05.04.1-.02.14-.08.06-.03.1.03.14.07.05.14.11.16.21-.03,0-.07.02-.08.01-.11-.08-.23-.13-.33,0-.09.12.05.2.08.31.07.23.17.44.3.64.03.04.03.09,0,.13-.13.14-.08.29,0,.44-.12-.02-.22-.12-.3-.03-.07.08.04.16.07.24.07.16.11.34.24.47.04.04.07.15-.02.14-.35-.05-.07.15-.1.24-.2-.1-.25.06-.26.19-.02.16.3.08.25.31-.1-.04-.19-.07-.34-.12.16.2.33.35.16.56,0,0,0,.04.01.05.17.09.12.35.35.4.1.02.17.13.31.24-.36-.07-.6-.24-.87-.47.04.24.18.32.27.44.07.1.23.19.18.3-.05.12-.23.09-.34.06-.13-.04-.15.08-.23.11-.09.04.02.11.05.17.02.05.09.1.04.17-.18.25-.18.28-.05.51.03.05.12.12.06.15-.16.07-.06.15-.04.23.03.14-.01.3.11.42.02.02,0,.06-.03.09-.2.12-.2.13-.01.27.12.09.16.17.02.27-.04.03-.07.07-.05.11.04.09.08,0,.12,0,.08-.02.12.04.07.08-.23.18-.1.24.09.3.06.02.08.08.06.13-.04.12.04.16.12.2.11.06.21.12.35.2-.06.01-.09.03-.11.02-.2-.1-.36.05-.54.09-.11.02-.16.17,0,.25.05.03.12.04.13.11-.05.06-.12-.04-.14,0-.02.14.26.16.07.29-.16.11-.07.19,0,.23.16.09.09.18-.04.32.29-.09.33.12.5.21-.08.01-.1.02-.13.02-.08-.02-.16-.08-.22,0-.05.09.05.14.09.2.02.04.06.06.1.09.12.07.14.1,0,.19-.06.04-.17.18-.16.31.03.27.36.31.43.55.02.06.13,0,.2,0,.05,0,.12-.01.13.06,0,.07-.07.07-.12.07-.14,0-.29,0-.43,0,0,.04-.01.07-.02.11.4-.02.66.32,1.03.37.14.02.21.06.09.23-.15.21-.33.1-.5.11-.06,0-.13-.06-.19.02-.08.11.09.11.07.21-.09.03-.19.06-.32.11.09.05.26.05.2.16-.16.31.11.25.24.31-.02.08-.15,0-.13.08.27.43.73.46,1.24.54-.32.12-.45.37-.7.41-.07.01-.13.03-.14.13,0,.12.07.13.14.16.18.07.36.17.55.21.16.03.1.16.11.22,0,.08-.11.04-.17.05-.08,0-.15,0-.25-.01.07.12.16.1.24.13.2.06-.05.15.01.21.02.02.06.03.1.04.04.02.08.03.06.1-.04.14.11.36.24.39.15.04.35,0,.4.19.03.1.07.15.16.18.06.02.13.04.12.12-.02.19.12.19.24.2.07.01.16-.03.22.06-.07.1-.21.04-.29.15.04.08.1.09.16.11.24.08.28.22.11.4-.05.06-.13.12-.15.19-.08.27-.27.48-.41.72-.08.13-.08.3-.2.4-.16.14-.31.28-.32.52,0,.04-.03.08-.06.11-.17.2-.26.45-.49.61-.07.05-.1.15-.05.24.03.06.02.12-.01.18-.14.22-.24.45-.3.7-.02.11-.16.09-.15.19.03.35.11.7.1,1.07,0,.19.04.36-.07.53-.05.08-.02.1.05.16.16.14.26.34.24.55-.02.21-.24.26-.41.34-.42.2-.82.17-1.24.01-.15-.06-.32-.09-.46.02-.25.18-.52.2-.81.17-.3-.03-.58.08-.82.25-.07.05-.17.14,0,.19.2.06.21.18.17.35-.04.14-.01.26.15.28.48.06.97.02,1.45.11.02,0,.04,0,.05,0,.98-.15,1.96-.19,2.94-.27.1-.09.23-.15.36-.17.5-.1.97-.31,1.45-.5,0-.16.11-.31.25-.34.25-.05.43-.22.65-.3.53-.19,1.03-.48,1.65-.51.16.04.36.05.55.02.13-.02.2.08.26.15.32.39.72.58,1.23.59.28,0,.44.29.72.33.07,0,.06.07.02.12.53.22,1.02.63,1.42.98,0,0,.01.01.02.02.49.08.99.06,1.47.2.27.08.59.08.8.32.13.16.29.28.44.42.24.22.53.4.7.69.18.32.24.36.58.26.27-.08.53-.06.79,0,.2.04.41.09.61.06.62-.1,1.39.05,1.6-.85,0-.02.03-.04.05-.06.08-.06.08-.12.05-.21-.04-.09-.11-.12-.19-.11-.14.01-.28.04-.42.04-.03,0-.05,0-.08,0-.03.01-.05.02-.07.03-.14.04-.34.03-.46-.06-.04-.03-.08-.05-.12-.08-.02,0-.04-.01-.07-.02,0,0,0,0,0,0-.23,0-.43-.13-.53-.32-.13-.04-.22-.12-.29-.24-.25-.42-.27-.86-.13-1.32.04-.13.12-.23.27-.26.29-.07.58.03.87.03.09,0,.2.05.25.14.09.17.25.28.38.4.32.32.58.71.98.96.13.08.21.25.18.4-.04.2.07.25.21.31.15.06.3.05.45.05.47.01.94.04,1.38.23.06.03.14.02.21.01.41-.03.83-.15,1.24,0,.08.03.18.01.26-.03.19-.09.38-.11.6-.08.28.04.38-.06.4-.33.01-.2.08-.31.3-.24.07.02.13.02.16-.06.02-.06,0-.1-.03-.15-.13-.19-.29-.28-.52-.22-.16.04-.3.03-.44-.02-.09.03-.18.04-.28.04-.05,0-.1,0-.15-.01-.27.1-.56.15-.85.12-.12-.01-.24-.03-.34-.07,0,0,0,0-.01,0-.21,0-.41-.07-.57-.18-.25-.05-.49-.23-.56-.47-.15-.54-.11-1.09-.11-1.63,0-.05.02-.11.04-.16.26-.68.28-1.41.54-2.09.18-.46.18-.98.57-1.36.4-.4.72-.87,1.04-1.34.12-.18.28-.35.49-.4.51-.14.99-.38,1.51-.5.41-.09.8-.25,1.2-.38.09-.03.2-.1.27.01.05.08.06.1.09,0,.06-.16.22-.19.36-.25.23-.1.19.16.31.25,0-.07,0-.11,0-.14-.04-.37-.05-.37.3-.45.28-.06.46-.24.61-.49.14-.24.27-.5.46-.71.46-.5.4-.99-.14-1.39Z"/>
  </g>
</svg>