<?xml version="1.0" encoding="UTF-8"?>
<svg id="Layer_2" data-name="Layer 2" xmlns="http://www.w3.org/2000/svg" viewBox="0 0 28.26 33.94">
  <defs>
    <style>
      .cls-1 {
        stroke-width: 0px;
      }
    </style>
  </defs>
  <g id="Layer_1-2" data-name="Layer 1">
    <path class="cls-1" d="m2.33,12.87C4.35,8.53,7.47,4.56,11.64,2.1,15,.14,19.2-.67,22.95.63c1.54.58,3.12,1.37,4.17,2.69.57.79,0,1.76-.76,2.14-2.39,1.37-5.2,1.59-7.83,2.18-4.33,1.07-8.27,3.55-11.27,6.84-1.86,2.09-3.42,4.57-3.98,7.35-.32,1.68-.14,3.48.68,5-.04-2.7,1.35-5.36,3.63-6.81,2.99-1.95,6.71-2.33,10.2-2.14-.73-1.59-.17-3.4.64-4.85.57-.28,1.06.56,1.47.9.93.86.96,2.27,1.74,3.2,1.17.13,2.43.2,3.42.94,1.44,1.08,2.09,2.84,2.86,4.4.25.56.67,1.44-.03,1.85-1.71.94-3.85,1.22-5.7.54-.96-.33-1.67-1.07-2.3-1.82.46.86,1.07,1.67,1.9,2.2.57.42,1.3.59,1.79,1.1.14.66-.58.98-1.12,1.02-1.11.14-2.08-.48-3-.98-1.37.81-2.54,2-3.03,3.54-.33-1.23-.86-2.53-1.98-3.25-.82-.59-1.84-.75-2.82-.78,1.2.32,2.43.88,3.11,1.99.9,1.31.85,3.1,0,4.42.96.12,2.4.33,2.34,1.6-1.9.06-3.81.01-5.71.03-2.98.04-6.08-.86-8.29-2.93-1.77-1.67-2.72-4.05-2.96-6.44-.41-4.02.59-8.06,2.24-11.7Zm19.33,3.96c.56.05,1.13.11,1.69.16-.06-1.33-.51-2.64-1.41-3.64-.41.41-.81.84-1.18,1.29.35.71.63,1.45.9,2.2Z"/>
  </g>
</svg>