<?xml version="1.0" encoding="UTF-8"?>
<svg id="Layer_2" data-name="Layer 2" xmlns="http://www.w3.org/2000/svg" viewBox="0 0 33.94 22.73">
  <defs>
    <style>
      .cls-1 {
        stroke-width: 0px;
      }
    </style>
  </defs>
  <g id="Layer_1-2" data-name="Layer 1">
    <path class="cls-1" d="m32.83,10.26s-.07,0-.1,0c-.34-.24-.79-.17-1.17-.16-.8.15-1.61.09-2.42.09-.03-.13-.07-.26-.1-.4h-.07c-.02-.23-.08-.47-.14-.7-.03-.1-.05-.21-.08-.31h-.08c-.01-.18-.02-.37-.03-.55.55-.02,1.11.02,1.66-.07.16-.01.32-.02.49-.03.16-.1.37-.14.46-.33.07-.18.3-.14.45-.2.05-.02.14-.07.19-.09.1-.06.21-.11.27-.21h.06s.01-.07.01-.07c.08-.06.14-.13.2-.21.14-.08.29-.15.45-.21v-.05c.17-.06.32-.15.38-.32h.07c.03-.1.06-.21.09-.32-.02-.05-.07-.15-.09-.2-.25-.29-.56-.51-.88-.71-.16-.16-.32-.32-.47-.49-.08-.12-.17-.25-.26-.37-.07-.09-.14-.19-.2-.28-.12-.16-.24-.32-.37-.46-.19-.33-.48-.58-.72-.87-.11-.08-.23-.16-.34-.23v-.05c-.17-.08-.36-.16-.56-.22l.02-.06c-.28-.09-.56-.19-.85-.22,0-.02,0-.06,0-.08-.3-.04-.59-.06-.89-.1-.19-.04-.28-.24-.37-.39-.2-.28-.44-.55-.54-.89h-.07c-.04-.16-.08-.32-.11-.48-.11,0-.22,0-.33-.01-.12.3-.2.62-.22.95h-.09c0,.08-.01.24-.01.33-.13-.03-.18-.12-.18-.24l-.09.02v-.11s-.1,0-.1,0c0-.04.01-.13.01-.17-.16,0-.31,0-.46,0-.02.46-.04.93,0,1.39-.26.19-.52.38-.72.62-.14.1-.23.24-.24.42h-.09s.02.11.03.15c-.1.07-.2.15-.29.22-.08.09-.15.18-.23.27-.02,0-.07,0-.09.01-.12.09-.24.17-.36.25-.14.08-.27.17-.4.26.05.02.15.06.2.09-.02.05-.06.16-.08.21-.2.07-.41.15-.58.29-.23.09-.47.16-.7.22,0,.02,0,.07,0,.09-.84.04-1.68.06-2.52.18v.07c-.6,0-1.16.27-1.7.52-.11.06-.22.11-.33.17v.05c-.27.13-.5.32-.7.53-.1.09-.2.18-.3.27-.08.08-.15.17-.23.25h-.05c-.21.3-.5.52-.7.83h-.05c-.07.12-.15.23-.22.34-.12.14-.21.3-.3.46-.22.3-.39.64-.54.98h-.06c-.06.24-.13.48-.25.7-.1.22-.12.45-.15.69h-.08c-.01.11-.02.22-.03.33-.05.18-.09.36-.11.55-.09,1.07-.05,2.15.13,3.21-.2-.18-.36-.38-.5-.61-.12-.14-.22-.3-.32-.45-.08-.17-.16-.34-.22-.52h-.06c-.06-.24-.14-.49-.21-.75h-.07c-.15-1.06-.71-2.08-1.53-2.79h-.04c-.24-.18-.49-.34-.74-.48-.01.04-.04.12-.05.16.16.16.32.32.45.51.03,0,.08,0,.11,0,0,.06,0,.17,0,.23-.02,0-.06-.01-.08-.02l.02-.15c-.05.01-.15.04-.2.06v-.09c-.14-.07-.28-.15-.42-.24-.27-.14-.53-.31-.82-.4-.91-.33-1.86-.7-2.85-.5.44.07.88.13,1.27.34-.41.04-.82,0-1.22-.08-.65-.12-1.29.09-1.9.27-.11.03-.2.09-.3.13-.13.08-.27.16-.4.24-.13.09-.26.17-.39.25-.12.1-.26.2-.39.29-.09.07-.19.15-.27.23-.03,0-.1,0-.13,0,0,.04.01.12.02.15l-.19.08c.11-.03.22-.05.29-.15.04.01.12.04.16.06l-.03-.11c.15-.03.3-.1.44-.18.06,0,.12.02.18.03-.06,0-.17.02-.22.03,0,.04,0,.12,0,.16-.47.22-.78.66-1.16,1.01-.09.1-.19.19-.28.28-.25.34-.52.67-.76,1.03-.12.21-.23.44-.35.65-.07.17-.12.34-.15.52h-.07c-.15.64-.15,1.31-.05,1.97.02.28.25.15.43.11.02.43.03.86.02,1.29.09-.14.19-.28.29-.42,0,.05,0,.16-.01.21-.01.63-.1,1.3.12,1.91.01.11.02.23.04.34h.08c.04.18.05.39.17.55.04.05.13.17.17.22-.03-.24-.06-.48-.1-.72.05.01.15.05.2.06.06.18.11.35.17.53.01.05.04.16.06.21h.06c.07.16.15.31.24.46.22.29.47.56.73.81.07.04.22.12.3.15-.04-.12-.11-.36-.14-.48.16.08.32.16.43.31.13.08.26.16.39.24.13.08.28.12.42.16v.05c.11.03.21.07.32.1.77.15,1.58.15,2.35,0,.09-.04.18-.08.28-.11.18-.07.36-.13.54-.21.15-.09.31-.18.46-.28.35-.23.64-.54.93-.84.06-.09.12-.19.18-.28.12-.11.21-.25.26-.41.02,0,.06.01.08.01,0-.06,0-.17-.01-.23h-.08l.02.16s-.11-.02-.14-.02c-.11.1-.21.2-.32.29-.08.08-.17.17-.24.25-.04,0-.11-.01-.15-.02l.02.15-.13-.06c.06.16.03.24-.08.23,0-.05,0-.15.01-.2.09-.11.18-.22.27-.33,0-.02,0-.07,0-.1.12-.11.22-.25.29-.4l-.03-.14c-.1.07-.21.13-.31.2.04-.31.13-.61.22-.9-.15,0-.29.01-.44.02-.05-.32-.12-.65-.2-.96.7.2,1.43.07,2.12-.07-.08.09-.15.19-.23.27-.09.05-.18.11-.26.16.14,0,.29.01.43.01l-.03-.1c.45-.01.89-.02,1.34-.03,0,.05-.01.17-.02.22-.18.04-.35.09-.53.14.05,0,.15.02.2.02,0,.04-.01.12-.02.16.05.01.17.04.22.05.13.16.34.21.52.28v.06c.16.06.33.12.49.19.06,0,.19.02.25.02l-.02.09c.09.01.27.04.36.05.05,0,.16-.03.21-.04,0,.05,0,.11,0,.17-.21.03-.42.07-.63.11.18.1.37.21.55.31.16.04.34.07.49.15.05.01.15.03.2.04.24.07.5.12.75.13,1.29.09,2.58.04,3.87,0,0,.06-.02.17-.02.23.38,0,.76-.08,1.13-.13v-.08c.34-.01.7-.08.98-.3.05.01.14.03.19.04.02.13.04.27.06.4.05.12.1.25.15.38.08.06.16.12.24.17.09.04.17.08.26.12,1,.1,2.02.05,3-.21.95-.24,1.94-.11,2.9-.04.44.12.89.09,1.34.09v-.1c.05,0,.19,0,.25,0,0-.06.01-.19.02-.25.04-.04.11-.12.15-.17.03-.18.12-.48-.15-.52-.03-.12-.06-.24-.09-.36-.55-.22-1.15-.07-1.72-.07-.5.03-1-.08-1.5-.09-.62.06-1.25.13-1.88.07-.01-.21,0-.45.15-.61,0-.02.02-.07.03-.09.09-.16.17-.32.26-.47,0-.02,0-.06.01-.08.11-.18.21-.37.31-.56.05-.11.1-.23.15-.34.02,0,.05,0,.07-.01.07-.18.15-.36.21-.54h.08s.04-.15.05-.2c.14-.54.31-1.07.3-1.63.06.17.12.35.19.52.27-.97.08-2-.34-2.89.05,0,.14,0,.18.01.08.1.16.2.22.32l.08.18.12-.21c.03.08.1.24.13.32.23-.13.46-.26.7-.38.44-.08.86-.23,1.31-.25.38-.16.76-.31,1.15-.45v-.07c.18-.06.37-.13.55-.21v-.07c.19-.06.38-.13.57-.2v-.07c.23-.04.47-.08.68-.18.28-.04.56-.05.84-.02.2.2.42.39.63.58.24,0,.49,0,.73-.01v-.09c.11-.03.23-.07.35-.11,0-.07,0-.21,0-.28h.07c.1-.12.23-.22.36-.31-.19-.14-.24-.39-.38-.58-.05-.4-.48-.53-.74-.78Z"/>
  </g>
</svg>