<?xml version="1.0" encoding="UTF-8"?>
<svg id="Layer_2" data-name="Layer 2" xmlns="http://www.w3.org/2000/svg" viewBox="0 0 33.94 32.32">
  <defs>
    <style>
      .cls-1 {
        stroke-width: 0px;
      }
    </style>
  </defs>
  <g id="Layer_1-2" data-name="Layer 1">
    <path class="cls-1" d="m4.13,15.34c-.44-.45-.9-1.7-.83-2.26.29.78.54,1.49.83,2.26Zm-1.95-1.46v-1.24s-.03,0-.04,0v1.25s.03,0,.04,0Zm-.49-2.29c.03-.5.05-1,.08-1.5-.03,0-.06,0-.09,0v1.49s0,0,0,0Zm31.91,3.24c-.34.2-.68.4-1.05.53-.55.2-1.09.16-1.58-.21-.12-.09-.26-.17-.41-.28.14-.03.24-.06.38-.1-.63-.31-1.27-.53-2.06-.49.15-.09.21-.12.27-.16-.59-.16-.94.06-1,.62.1-.12.2-.25.31-.37l.04.02c-.1.29-.21.58-.31.87.01,0,.02.01.03.02.07-.09.13-.17.2-.26.02,0,.04.01.06.02-.12.52-.25,1.04-.37,1.57.02,0,.04.01.05.02.08-.22.16-.43.24-.65.03,0,.06.01.1.02-.12.68-.24,1.35-.37,2.11.13-.25.23-.43.33-.63.08.25.14.5.25.72.4.79,1.07,1.17,1.94,1.25.33.03.72.02.98.19.55.35,1.16.72,1.11,1.53,0,.06,0,.14.03.18.31.44.13.9.06,1.35-.06.39-.34.63-.77.7.39-.31.4-.72.35-1.12-.04.19-.03.44-.15.62-.11.17-.34.26-.56.34.2-.29.58-.49.3-.94-.21.16-.38.4-.69.3.11-.16.29-.3.31-.46.02-.16-.13-.34-.18-.51-.1-.37-.33-.47-.69-.43-.44.04-.89.01-1.34,0-.12,0-.25-.03-.37-.05.02.2,0,.21-.66.05.03.06.05.11.1.22-.26-.05-.48-.09-.73-.14.09.11.17.21.28.34-.54.1-.94-.17-1.42-.43.12.23.2.41.3.57,1.13,1.8.55,4.46-.53,5.72-.23.27-.52.49-.78.73-.35.34-.3.65.11.91.34.22.71.28,1.11.28.48,0,.97.02,1.45.08.2.03.41.16.57.3.18.15.34.2.57.17.5-.08,1.17.28,1.36.72-.11-.04-.2-.08-.32-.13.02.11.03.21.04.31-.35-.16-.7-.33-1.04-.49,0,.02-.01.04-.02.06.17.16.33.32.5.48-.02.03-.04.06-.07.1-.47-.15-.94-.28-1.4-.45-.3-.11-.57-.18-.88-.03q.92.28,1.01.55c-.3-.06-.6-.12-.9-.17-.01.03-.03.05-.04.08.34.45.98.67,1.07,1.36-.15-.13-.27-.24-.43-.38v.38c-.16-.17-.28-.3-.45-.49.03.2.05.33.07.46-.29-.27-.56-.57-.99-.59.11.17.22.33.32.47-.85-.24-1.67-.5-2.51-.68-.43-.09-.9-.05-1.35-.06-.84-.02-1.69,0-2.52-.06-.58-.04-1.08-.33-1.49-.75-.09-.09-.25-.15-.38-.16-.51-.02-1.01,0-1.53,0,.06-.04.12-.08.17-.11,0-.02-.01-.04-.02-.06-.83.08-1.67.16-2.54.24.11-.07.19-.13.35-.23-.72.1-1.37.19-2.01.28,0-.02,0-.04-.01-.06l1.3-.49s0-.03,0-.04h-2.34s0-.03,0-.04c.32-.1.65-.2.88-.27-.73-.14-1.53-.27-2.32-.45-.29-.06-.56-.21-.93-.35h2.43s0-.04,0-.05c-.62-.15-1.25-.31-1.87-.46v-.07h.94s0-.05.01-.08c-.85-.28-1.7-.56-2.53-.83.6-.05,1.24-.11,1.88-.17,0-.02,0-.04,0-.06-.36-.1-.73-.21-1.09-.31,0-.02,0-.05.01-.07.32.04.65.07,1.04.11-.78-.57-1.62-.7-2.49-.75.34-.04.68-.08,1.02-.11.01-.02.02-.04.03-.06-.42-.19-.83-.38-1.23-.56h.44c-.21-.16-.38-.3-.56-.43.03-.03.06-.06.08-.09,1.01.54,2.02,1.07,3.02,1.61,0,0,.01-.02.02-.02-.58-.45-1.16-.89-1.74-1.34-.58-.44-1.15-.88-1.8-1.38.92.37,1.74.7,2.57,1.03.02-.03.04-.06.05-.09-1.16-.83-2.44-1.53-3.25-2.78.88.83,2.01,1.17,3.08,1.63.02-.02.04-.05.06-.07-.7-.61-1.39-1.22-2.1-1.83.38.15.75.3,1.12.45.01-.02.02-.04.03-.06-.6-.54-1.2-1.07-1.81-1.61.02-.02.04-.05.06-.07.53.4,1.07.79,1.6,1.19.02-.02.05-.04.07-.06-.23-.35-.46-.69-.69-1.04.01-.01.03-.03.04-.04.18.2.37.39.55.59.02-.01.03-.02.05-.03-.45-.63-.9-1.26-1.35-1.9.02-.01.03-.03.05-.04.29.21.57.41.86.62,0-.01.02-.03.03-.04-.6-.63-1.2-1.27-1.79-1.9.03-.03.06-.06.09-.09.41.4.82.79,1.26,1.21-.21-.47-.4-.91-.59-1.35.02,0,.05-.02.07-.03.39.45.78.9,1.18,1.35.02-.01.04-.02.06-.04-.41-.94-.81-1.89-1.22-2.83.02,0,.04-.02.06-.03.78,1.2,1.57,2.39,2.36,3.59-.58-1.3-1.16-2.61-1.47-4.03.2.34.4.68.6,1.02.02,0,.04,0,.06-.01-.08-.76-.16-1.52-.24-2.29,0,0,.02-.01.03-.02.07.16.15.32.22.47.02,0,.04,0,.06-.01-.1-.55-.21-1.09-.33-1.72.2.3.35.54.51.79.26-.59,0-1.12-.2-1.65.03,0,.05-.02.08-.03.16.35.33.69.49,1.03.31-.58.22-1.26.34-1.9.03,0,.05,0,.08,0v2.81c.29-.27.37-.69.46-1.94.05-.67-.03-1.32-.37-1.92.02-.02.05-.03.07-.05.07.09.14.18.22.27.08.09.17.18.31.25-.2-.52-.4-1.04-.6-1.56.02-.01.05-.03.07-.04.18.27.36.53.53.79,0-.64-.59-1.51-1.33-1.85-.74-.34-1.47-.27-2.12.21-.51.38-.79.93-.86,1.56-.05.42.07.79.43,1.06.15.11.29.23.4.4-.21-.08-.41-.16-.64-.25.26.31.5.6.75.89-.02.02-.04.05-.06.07-.32-.3-.64-.59-.96-.89.06.36.41.78,1.15,1.42-.59-.33-1.08-.74-1.32-1.44-.11.89.31,1.44,1.1,1.77-.03.03-.06.07-.1.1-.2-.09-.39-.18-.63-.28.12.51.54.79.75,1.21-.23-.19-.46-.37-.76-.62.21.43.38.79.56,1.14-.65-.45-.98-1.12-1.39-1.75.06.25.11.5.19.83-.62-.79-.94-1.62-.96-2.61-.22.3-.19.58-.15.87.1.73.48,1.33.91,1.91.1.13.17.27.26.41-.02.01-.04.03-.07.04-.34-.46-.67-.92-1-1.36.15.87.59,1.66.99,2.47-.98-1.14-2.08-2.92-1.73-5.11-.54.8-.71,1.7-.58,2.64.13.93.59,1.74,1.14,2.55-1.01-.79-2.38-3.43-1.67-6.25-.35.47-.43.98-.5,1.49-.14.98.01,1.95.16,2.92.05.34.08.69.11,1.03l-.12.03c-.22-.83-.47-1.66-.66-2.5-.21-.97-.08-1.92.17-2.87.21-.81.66-1.44,1.36-1.9.07-.05.14-.1.17-.21-.24.11-.49.21-.73.32-.02-.02-.04-.03-.05-.05.2-.2.39-.4.6-.59.21-.19.45-.35.69-.53-.54.08-1.34.7-2.06,1.59-.57.71-.95,1.51-1.09,2.41-.13.87-.2,1.75-.29,2.52-.11-.29-.21-1.8.26-3.82-.03-.01-.06-.03-.09-.04-.41.94-.81,1.88-1.2,2.77.05-.92.81-2.71,1.95-4.68-.24.27-.5.53-.73.81-.24.28-.46.57-.67.88-.21.31-.4.63-.63.93.48-.98.97-1.96,1.77-2.75-.49.34-.98.68-1.47,1.02,1.42-1.37,2.89-2.67,4.8-3.33-1.56.13-2.84.87-4.07,1.75,1.2-1.21,2.65-1.98,4.27-2.47-1.43-.09-2.6.66-3.85,1.15,1-.7,1.94-1.5,3.16-1.82,0-.03-.02-.07-.03-.1-.54.09-1.08.15-1.61.28-.52.13-1.03.33-1.54.5,0-.03-.02-.05-.03-.08.69-.34,1.38-.68,2.12-1.05h-1.63c.82-.16,1.55-.3,2.29-.45,0-.04,0-.07,0-.11-.44-.04-.87-.08-1.31-.12,0-.03,0-.05,0-.08.92-.04,1.83-.07,2.75-.11,0-.02,0-.04,0-.06-.7-.09-1.39-.18-2.09-.27,1.28-.16,2.57-.11,3.87-.03-.36-.16-.71-.31-1.07-.47,0-.02.02-.05.02-.07.39.15.79.29,1.19.44-.27-.22-.54-.44-.82-.66,0-.01.02-.03.03-.04,1.17.56,2.33,1.11,3.53,1.68-.87-.63-1.72-1.25-2.56-1.86.02-.03.04-.07.06-.1.6.27,1.2.54,1.82.82-.08-.11-.13-.19-.21-.29,1.24.81,2.46,1.61,3.63,2.38-.05-.26-.36-.6-1.34-1.49-.52-.47-.99-.98-1.48-1.48.02-.02.04-.04.06-.07,1.09.8,2.18,1.6,3.27,2.4-.15-.49-.3-.99-.46-1.51.08,0,.11,0,.11,0,.38.72.77,1.44,1.13,2.17.37.75.71,1.52,1.04,2.21-.05-.27-.1-.64-.2-.99-.1-.36-.24-.72-.37-1.07-.14-.35-.29-.7-.45-1.04-.15-.34-.31-.68-.46-1.02.03-.02.06-.03.09-.05.6.99,1.2,1.97,1.79,2.96.01,0,.02,0,.04-.01-.13-.93-.26-1.86-.38-2.8.02,0,.04,0,.06-.01.36,1.17.71,2.34,1.07,3.51,0,0,.02,0,.03,0-.02-.35-.03-.7-.05-1.05.28.56.54,2.02.66,3.54.28-1.53.03-3.03-.18-4.55.09.32.19.64.27.96.08.33.16.65.23.98.07.34.14.68.24,1.01.08-.58.16-1.16.24-1.74.01,0,.02,0,.04,0,0,.2,0,.4,0,.61.08,1.58-.06,3.14-.51,4.67,0,.02,0,.04,0,.06.53-.39.82-1.3.93-2.78.05.35.1.71.15,1.07.07-.37.13-.72.17-.94v2.07c.52-.63.85-1.39,1.18-2.16-.13,1.15-.51,2.21-1.24,3.14.7-.34,1.13-.95,1.66-1.49-.32.61-.63,1.22-.95,1.83.02.02.04.04.05.06.52-.47,1.03-.94,1.55-1.42.02.01.04.02.05.04-.28.38-.54.79-.85,1.14-.32.36-.69.68-1.09,1.07.34-.05.64-.09.93-.14.01.02.02.04.03.06l-1.3.8s.02.05.03.08c.76-.22,1.51-.45,2.27-.67,0,.01.01.02.02.04-.66.36-1.3.76-1.97,1.09-2.65,1.29-3.97,3.56-4.67,6.28-.4,1.57-.39,3.18-.16,4.77.13.94.38,1.87.6,2.8.06.25.2.48.3.72.03,0,.06,0,.09,0,.09-.49.18-.98.26-1.48-.02,0-.04,0-.06-.01-.05.22-.1.43-.17.73v-2.67c-.16.51-.3.93-.43,1.35-.02,0-.03,0-.05-.01.15-1.1.29-2.2.44-3.3-.02,0-.04,0-.06-.01-.12.33-.24.66-.36,1-.01,0-.03,0-.04-.01.24-.97.48-1.93.71-2.9-.03-.01-.06-.02-.09-.03-.26.6-.51,1.21-.77,1.81-.03-.01-.06-.02-.09-.03.19-.58.34-1.18.57-1.74.24-.57.57-1.11.81-1.7-.4.54-.81,1.08-1.21,1.63.48-1.17.97-2.34,1.99-3.16-.02-.02-.04-.04-.06-.07-.27.25-.55.48-.8.75-.27.28-.51.59-.77.87.38-.98,1.05-1.73,1.86-2.38-.02-.02-.04-.04-.05-.06-.41.36-.82.72-1.23,1.07.05-.55,1.5-1.98,3.13-3.12-.73.22-1.34.65-1.97,1.09.07-.09.14-.18.22-.26,1.32-1.27,2.92-1.95,4.69-2.3.59-.12,1.18-.2,1.77-.32.22-.05.42-.17.62-.3-.29.06-.58.13-.95.21.57-.29,1.06-.55,1.54-.8-.01-.02-.03-.05-.04-.08-.31.11-.62.23-.92.34-.01-.02-.03-.05-.04-.07.73-.29,1.33-.73,1.75-1.5-.25.19-.43.33-.6.47-.02-.02-.04-.05-.06-.07.33-.26.67-.52,1.02-.8-.17.06-.33.1-.48.15-.01-.01-.02-.03-.03-.04.17-.12.33-.24.52-.38-.02-.03-.04-.08-.06-.1.09-.12.18-.24.29-.38.04.01.14.04.21.06.19-.55.24-1.08,0-1.61.1.18.19.36.3.57-.07-.56-.13-1.07-.18-1.59.02,0,.05,0,.07-.01.12.32.23.64.35.95.02,0,.05-.01.07-.02-.01-.12-.03-.25-.05-.4.08.06.15.11.22.17.03,0,.06,0,.09-.01-.06-.33-.08-.66-.18-.98-.1-.31-.27-.6-.43-.93.57.23.73.8,1.09,1.25-.06-.5-.21-.91-.54-1.23-.31-.3-.65-.58-.96-.9.45.22.91.43,1.34.64-.04-.06-.1-.16-.16-.25-.51-.42-1.03-.84-1.55-1.27.66.23,1.21.61,1.64,1.17.09.04.19.08.28.12.02-.01.04-.03.06-.04-.43-.54-.86-1.08-1.29-1.62.99.77,1.88,1.64,2.44,2.8-.1-1.07-.66-1.94-1.23-2.8.63.52,1.06,1.18,1.31,1.94.23.69.41,1.41.61,2.09.02-.02.06-.06.11-.11.03.06.09.11.09.17.02.35.05.69.05,1.04,0,.25.04.43.25.6.69.59,1.39,1.16,2.01,1.81.58.61,1.01,1.35,1.14,2.21.05.3.02.61.02.91,0,.4.1.74.41,1.02.36.33.33.68-.1.94ZM5.92,9.97s-.07-.02-.11-.03c-.1.4-.21.8-.31,1.2.04,0,.08.02.11.03.1-.4.2-.8.31-1.2Zm2.39-7.73c-1.04-.51-2.1-.57-3.2-.21.54,0,1.08-.03,1.61,0,.53.04,1.06.14,1.59.21Zm17.76,18.95c0,.06,0,.11.01.25-.32-.28-.59-.51-.87-.75.04.14.08.27.11.4-.22-.35-.73-.35-.88-.77-.07-.22-.18-.42-.28-.63-.03,0-.05.01-.08.02.05.36.1.72.15,1.09-.4-.45-.54-.96-.43-1.58-.13.08-.24.15-.3.19-.3-.83-1.05-.52-1.66-.64.12-.11.22-.19.31-.26-.01-.02-.03-.05-.04-.07-.5.21-.99.43-1.49.64.01.03.03.07.04.1.17-.04.34-.08.51-.12.01.01.02.02.03.04-.06.02-.13.04-.26.09.31.06.49.1.75.15-.48.22-.9.42-1.31.61,0,.01.01.02.02.04.19-.02.39-.04.6-.07-.03.09-.05.14-.07.22.95.07,1.84.24,2.53.99-.38-.15-.72-.28-1.07-.42-.01.03-.02.05-.04.08,1.31.71,2.36,1.62,2.31,3.31.03-.06.04-.11.06-.15.03.01.07.02.1.03-.14.52-.27,1.03-.41,1.56.07-.09.14-.17.2-.26.02.01.04.02.06.03-.16.31-.32.61-.47.92.01,0,.02.01.04.02.08-.1.16-.19.24-.29-.31.91-.73,1.76-1.36,2.49-.24.28-.5.54-.72.83-.22.3-.09.58.27.65.15.03.31.03.47.02.33-.03.65-.09.97-.1.46-.02.93,0,1.48,0-.84-.63-1.77-.52-2.73-.62.13-.2.21-.35.31-.47.15-.16.32-.3.49-.45.85-.75,1.47-1.65,1.77-2.74.14-.53.17-1.09.25-1.65.05.13.08.25.12.36.02,0,.03,0,.05,0-.1-.53-.2-1.06-.3-1.59.45.48.54,1.09.68,1.7.05-.37.1-.75.15-1.14.07.11.13.19.18.27.02,0,.03,0,.05-.01-.02-.22-.05-.43-.08-.71.08.11.12.17.15.22.02,0,.03,0,.05-.01-.04-.34-.09-.68-.14-1.11.11.14.17.21.22.28-.09-.44-.35-.75-.77-.95Zm5.69-.67c.29.21.53.38.81.58-.18-.33-.38-.56-.81-.58Zm-3.72-13.05c-.35.6-.35.97,0,1.42.22-.48.23-.94,0-1.42Zm2.19,3.8c.02-.12.47-.25.7-.22.24.03.48.21.66.39.18.18.27.44.41.68-.03-.71-.45-1.36-1.06-1.49-.3-.07-.66-.04-.96.06-.21.08-.36.34-.56.56.17.09.34.12.37.2.08.24.1.5.16.75.13.52.46.81.95.77.31-.03.62-.15.92-.23-.01-.05-.03-.09-.04-.14-.2.06-.4.13-.6.17-.36.07-.77.01-.89-.33-.13-.36-.13-.8-.06-1.19Zm.96,4.32c-.26-.11-.51-.24-.78-.33-.26-.09-.53-.14-.82-.22-.02.96-.12,1.83-.5,2.65-.19.4-.09.82.25,1.12.65-1.04.86-2.16.62-3.37.42.09.8.37,1.23.14Zm-9.77,4.4c.4.08.82.16,1.25.25-.39-.28-.8-.43-1.25-.25Z"/>
  </g>
</svg>