<?xml version="1.0" encoding="UTF-8"?>
<svg id="Layer_2" data-name="Layer 2" xmlns="http://www.w3.org/2000/svg" viewBox="0 0 33.94 20.69">
  <defs>
    <style>
      .cls-1 {
        stroke-width: 0px;
      }
    </style>
  </defs>
  <g id="Layer_1-2" data-name="Layer 1">
    <path class="cls-1" d="m28.58,5.47c.18.08.27.22.35.4.08.19.16.37.32.52-.12-.25-.23-.5-.22-.84.09.15.17.26.22.39.19.57.53,1.07.65,1.67.07.34.35.59.41.93.07.37.27.54.62.72.59.31,1.26.53,1.76,1.01.12.12.25.22.34.36.15.23.35.4.58.53.36.21.44.53.18.87-.21.27-.33.62-.64.82-.12.08.04.23,0,.38-.03-.06-.04-.12-.07-.15-.1-.08-.2-.21-.33,0-.08.12-.16.29-.36.24-.05,0-.1.04-.1.09-.02.14-.05.09-.1.01,0-.01-.08,0-.11.02-.16.12-.36.11-.54.15-.85.18-1.65.46-2.4.91-.16.1-.27.25-.38.39-.24.3-.57.53-.61.97-.03.28.12.68.36.82.3.18.41.46.43.79.02.3-.01.6-.1.89-.02.08-.03.2-.12.21-.27.03-.37.25-.52.42-.04.05-.1.09-.17.1-.06.01-.14,0-.1-.08.1-.17-.03-.2-.13-.26-.13-.07-.2-.15-.11-.3.04-.06.01-.11-.02-.16-.1-.13-.05-.23.07-.32.15-.11.18-.36.03-.44-.2-.1-.36-.26-.56-.36-.23-.11-.36-.05-.43.15-.09.26-.22.51-.27.76-.07.35-.06.73.07,1.08.05.13.09.25.1.38.03.25.17.43.36.58.11.1.24.03.35-.02.15-.07.29-.09.43,0,.2.12.41.09.63.08.2,0,.43-.06.61.17-.21,0-.33.05-.45.22-.08.11-.34.07-.51.07-.64.01-1.28.09-1.92.04-.3-.02-.4-.26-.58-.41-.3-.26-.52-.6-.82-.86-.19-.17-.37-.37-.5-.59-.16-.27-.35-.53-.61-.68-.28-.17-.56-.45-.95-.32-.07.02-.13-.02-.19-.02-.06,0-.17-.01-.19.01-.09.2-.27.18-.43.19-.52.04-.83.45-1.25.67-.31.16-.57.39-.92.48-.26.07-.43.31-.72.49.36.08.64.3.97.07.11-.08.22-.09.34.02.11.11.25.06.38.02.23-.07.45-.1.68,0,.08.04.16,0,.25,0,.25-.01.56-.03.68.21.08.16.18.29.29.42.03.03.05.08,0,.11-.03.02-.08.03-.12.02-.14-.06-.25-.04-.34.09-.05.07-.15.06-.23.05-.79-.05-1.59-.03-2.39-.02-.73,0-1.46-.04-2.19-.02-.19,0-.28-.08-.39-.24-.25-.37-.3-.79-.39-1.21-.11,0-.12.16-.25.18.06-.35-.23-.2-.38-.27-.19-.08-.38-.2-.56,0-.11-.08-.04-.17-.07-.26-.1.05-.2.1-.26-.04-.08-.19-.22-.14-.32-.04-.14.14-.26.06-.38-.01-.13-.07-.07-.17-.03-.26.01-.03.03-.09.03-.09-.33-.13.07-.22-.02-.34-.13-.04-.34.02-.47-.04-.21-.1-.31.13-.48.09.05-.17.27-.25.23-.49-.19.1-.39.1-.62.14.07-.13.22-.1.28-.23-.25-.11-.49-.03-.81-.03.23-.09.4-.15.6-.23-.18-.03-.28.08-.41.05,0-.07.07-.06.1-.08.11-.06.15-.09,0-.17-.27-.16-.57-.18-.87-.23-.07-.01-.17.03-.19-.07-.01-.07.05-.13.12-.18.08-.05.16-.11.25-.18-.18-.06-.34-.16-.53-.1-.17.06-.04-.21-.19-.18,0-.09.07-.03.1-.06.02-.02.04-.05.01-.06-.28-.12.06-.1.03-.17-.32-.27-.75-.11-1.1-.3h.48s0-.02,0-.04c-.22-.07-.44-.14-.68-.22.27-.18.56-.01.8-.07-.44-.28-.99.04-1.47-.3.28-.09.54-.08.87-.09-.25-.1-.46-.1-.66-.1-.17,0-.35.06-.4-.21-.02-.11-.18-.12-.3-.14-.1-.02-.19-.04-.32-.06.26-.1.51-.07.8-.15-.21-.04-.39-.06-.57-.09,0-.01,0-.02,0-.03h.53c-.43-.13-.89-.05-1.32-.18.07-.2.24-.13.38-.15-.36-.08-.76-.05-1.03-.36.1-.03.23-.01.34-.1-.19.06-.25-.18-.45-.15.06-.08.13-.07.19-.06.19.03.37-.01.44-.18.06-.14.15-.07.23-.1.07-.03.16.08.23-.05-.21-.08-.42-.08-.63-.06-.16.02-.31-.04-.47-.05-.06,0-.08-.02-.08-.09,0-.09.06-.06.1-.06.12,0,.25,0,.38-.03-.23-.11-.5-.03-.72-.17.06-.08.18-.02.24-.11-.11-.03-.22.05-.35-.01.29-.12.59-.1.92-.2-.31-.04-.56-.1-.8-.19.12-.08.26-.01.44-.05-.35-.11-.68.05-1.01-.12h.94c-.17-.09-.37-.01-.57-.15.32-.11.61-.13.93-.07-.08-.11-.19-.06-.26-.11.04-.04.1-.09.09-.11-.02-.06-.1-.06-.15-.05-.21.04-.42.05-.65.02.04-.12.14-.11.24-.18-.35-.06-.64-.24-.98-.25.23-.1.48-.02.71-.11h-.57s0-.02,0-.04c.2-.03.39-.05.59-.08,0-.27-.17-.29-.38-.26-.1.01-.22.04-.32-.03.19-.23.46-.2.72-.21-.42-.05-.84.01-1.28-.13.19-.11.38-.1.57-.11-.03-.08-.11-.01-.15-.08.13-.07.27-.12.43-.11-.27-.13-.55.02-.83-.02.08-.13.18-.16.32-.14.05,0,.13,0,.12-.09,0-.06-.08-.06-.12-.05-.12,0-.23.02-.36.04.07-.1.1-.24.27-.14.04.02.15.03.2-.05.01-.02.02-.06,0-.07-.06-.08-.14,0-.2,0-.03,0-.06,0-.1,0,.01-.13.15-.04.19-.12-.18-.08-.36-.06-.58,0,.08-.15.24-.11.3-.2-.04-.12-.16-.07-.24-.11,0-.07.09-.01.1-.08-.22-.03-.44-.05-.69-.08.17-.12.35-.07.51-.19-.24-.1-.46.03-.7,0,.04-.08.15-.11.01-.23-.2-.17.12-.14.16-.24-.41-.16-.8.14-1.22.04,0-.08.13-.04.15-.13-.28-.05-.5.13-.75.18-.26.05-.44.28-.7.44.04-.18.19-.23.29-.35-.15.02-.24.09-.33.17-.06.05-.11.16-.2.05-.07-.09,0-.15.07-.21.03-.03.06-.05.09-.1-.28.11-.54.31-.88.24.06-.13.25-.16.32-.32-.19,0-.33.08-.45.18-.14.11-.15-.25-.29-.02.08-.53.58-.45.87-.67-.18-.03-.31.18-.48.08,0-.07.11-.06.07-.16-.2,0-.3.13-.34.35-.05-.06-.08-.08-.08-.11-.02-.33-.19-.22-.36-.13-.1.05-.2.12-.34.09.08-.21.26-.24.48-.3-.23-.07-.38.1-.59.05.09-.06.16-.11.23-.16.09-.08.17-.14.19-.29.01-.14.1-.29.28-.35.08-.03.22-.06.18-.19-.03-.11-.16-.06-.24-.06-.05,0-.1.02-.14-.03,0-.11.18-.19.11-.28-.08-.11-.21,0-.32,0-.09,0-.18.01-.23-.06-.07-.1.05-.12.1-.16.15-.12-.07-.1-.06-.17.05-.07.16,0,.22-.09-.09-.07-.22.05-.27-.07-.04-.08.1-.08.1-.15-.02-.07-.08-.04-.12-.04-.12.01-.09-.11-.11-.16-.03-.08.07-.07.12-.08.17-.03.35-.04.52-.07.08-.02.22,0,.21-.12,0-.11-.14-.09-.23-.08-.09.01-.17,0-.25-.03-.08-.02-.14-.06-.15-.15-.02-.1.06-.11.13-.15.14-.09.29-.13.44-.14.09,0,.19,0,.21-.13.01-.06.07-.07.12-.07.35,0,.67-.18,1.02-.18,0-.03,0-.06,0-.06-.31.04-.58-.19-.89-.18-.06,0-.15.03-.17-.06-.02-.09.05-.13.14-.14.03,0,.07,0,.08-.05-.05-.09-.16,0-.22-.09.04-.1.16-.02.22-.09.02-.09-.09-.07-.12-.13-.02-.05-.04-.1,0-.14.03-.04.09,0,.12-.02.21-.05.43.21.62-.05-.17-.21-.45-.25-.68-.37.04-.1.12-.06.18-.08.11-.03.24.08.34-.08.04-.06.19.02.26.09.19.19.51.25.66.19.2-.08.25.05.37.08.16.03.33-.05.49.05.06.04.21.09.26-.01.04-.09-.02-.18-.1-.26-.17-.17-.33-.34-.58-.46.13,0,.23,0,.33,0,.02,0,.04,0,.05.01.12.08.02-.27.19-.1.07.08.12.19.23.22.02,0,.05,0,.1,0-.12-.19-.26-.32-.39-.48.17.12.37.1.56.17,0-.14-.09-.18-.17-.23-.1-.06-.12-.12-.06-.22.07-.1.15-.11.23-.04.11.1.25.08.36.15.08-.06,0-.15.06-.22.06-.01.15.25.19-.01,0-.04.05-.03.08,0,.2.15.12-.05.14-.12.12.03.12.19.25.19.07-.1-.06-.14-.06-.24.17,0,.27.12.39.24.07-.13-.03-.23-.03-.36.12.08.23.12.22-.09,0-.15.15-.24.28-.15.1.07.16.17.31.15.05,0,.01.1.04.16.08-.03.02-.13.09-.16.08,0,.05.12.12.13.01,0,.03-.02.03-.03-.04-.12,0-.23.02-.34.02-.06.01-.13.09-.17.11-.05.08.11.16.11.06-.1-.05-.2.02-.31.11.19.22.37.33.56.02-.06.04-.09.06-.14.09.24-.07.5.1.72.16-.01.22-.2.39-.26,0,.13,0,.26.14.33.03.01.05.06.07.06.21.02.21.02.24.25.11-.14.37-.17.31-.46.14.09.18.41.37.08.09.21.02.39.08.56.1.03.05-.11.13-.11.09.21.1.3.08.41.25-.02.28-.22.33-.4.01-.05,0-.27.15-.06.04.05.06-.04.09-.04.13,0,.3-.08.3.18,0,.17.17.32.08.57.15-.13.11-.28.19-.37.07.05.04.12.04.18.01.11,0,.24.06.31.27.34.07.64-.07.95-.03.06-.06.12-.04.2.25-.35.36-.81.79-1.01.05.03-.04.11.02.14.11-.05.14-.27.28-.2.16.07.13.25.07.4.07.05.05-.08.13-.03,0,.1-.13.25.08.32.06.02.02.12,0,.18-.04.08-.11.14-.09.25.11-.01.12-.14.23-.18-.05.38-.24.69-.41,1.01.16.07.27.05.36-.11.07-.13.17-.25.35-.24.06,0,.11-.04.14-.09.1-.17.2-.18.37-.05.08.06.09.05.04.14-.1.16-.2.32-.24.51.1.03.15-.16.24-.06.06.07.08.18,0,.28-.03.03-.05.07-.02.11.04.05.09.03.14.01.08-.03.13-.11.21-.1.12.23.04.47.09.7,0,.04-.01.08-.02.12-.02.07-.15.15-.06.21.1.07.12-.11.24-.12-.02.16-.05.3-.18.42.08.05.13-.07.18-.01.05.06-.06.09-.03.16.09,0,.1-.1.16-.14.01,0,.04.01.04.02.03.25.44.45.1.75-.07.06-.12.13-.22.25.26-.12.36-.32.56-.44.09.29-.09.48-.23.68.1.03.13-.07.23-.07-.04.21,0,.41-.05.64-.04.17.03.42,0,.64.09.01.12-.09.2-.13,0,.29-.13.56-.14.83,0,.3-.09.58-.18.86-.01.04-.01.1.03.11.23.08.12.24.12.39,0,.19-.11.41.17.52.07.03.04.14.03.21-.1.44-.03.89-.07,1.34-.02.24.1.47.16.7.07.27.15.54.22.82.06.26.26.39.47.48.1.05.25-.05.27-.19.06-.32.33-.51.49-.76.16-.25.32-.52.54-.73.31-.3.54-.67.87-.95.68-.59,1.51-.9,2.34-1.21.86-.32,1.75-.37,2.65-.35.42,0,.85.16,1.26.26.64.16,1.27.33,1.96.28.34-.02.7-.09,1.05-.04.27.03.43-.18.64-.29-.17-.23.36-.19.18-.44-.01-.02.13-.04.2-.07.06-.02.17-.03.14-.1-.03-.07.09-.2-.1-.21.18-.02.33-.07.45-.19.12-.12.02-.25.05-.38.04-.15.19-.28.15-.44-.03-.14,0-.28,0-.43.05-.03.07.05.11.05.06,0,.12.02.16-.03.05-.06-.01-.11-.04-.15-.24-.36-.48-.72-.71-1.09-.05-.09-.13-.17-.11-.3.36.47.6,1.04,1.11,1.36-.07-.35-.35-.94-.59-1.21-.13-.15-.16-.44-.07-.57.07-.09.11-.09.19-.01.21.21.36.46.5.71.12.21.28.38.41.61.06-.15.11-.28.17-.4.09-.17-.06-.3-.11-.45-.17-.46-.34-.93-.5-1.4-.01-.04.02-.09.03-.14h0Z"/>
  </g>
</svg>