<?xml version="1.0" encoding="UTF-8"?>
<svg id="Layer_2" data-name="Layer 2" xmlns="http://www.w3.org/2000/svg" viewBox="0 0 33.18 33.94">
  <defs>
    <style>
      .cls-1 {
        stroke-width: 0px;
      }
    </style>
  </defs>
  <g id="Layer_1-2" data-name="Layer 1">
    <path class="cls-1" d="m2.48,17.79l.17.08h-.37c-.2-.02-.39-.03-.42-.05-.03-.02-.05-.01-.05.01,0,.05.03.06.37.08.07,0,.07.01.02.05-.04.03,0,.03.12.02.19-.03.26.04.1.1-.1.03-.11.09-.03.12.03.01.18.02.33.03s.29.03.31.05.06.03.11.01c.06-.02.07-.02.05.02-.02.04-.11.04-.28.02-.17-.02-.26-.01-.28.02-.02.03-.11.05-.21.05-.17,0-.18,0-.1-.06.05-.04.07-.06.04-.06-.02,0-.08.03-.12.06-.05.04-.12.06-.16.06s-.09.02-.1.04c-.01.02.04.03.11.02.13-.01.13-.01.06.09-.04.07-.11.11-.18.11-.1,0-.1,0,.04.05.08.02.22.04.31.03.18-.02.21.02.08.11-.05.03-.08.07-.07.08s-.14.01-.34,0c-.19,0-.33,0-.3.01.08.03.07.12-.01.09-.04-.01-.06,0-.04.02.01.02,0,.04-.02.04s-.04.02-.02.05c.02.03,0,.02-.04-.03s-.07-.06-.07-.03-.02.05-.05.04c-.03,0-.06,0-.07.03-.02.05.3.08.43.04.06-.02.07-.04.03-.07-.06-.06-.06-.12,0-.12.03,0,.03.02.02.04s0,.04.05.04c.05,0,.06.02.05.06-.02.05,0,.06.08.02.06-.02.13-.04.16-.04.07,0-.02.07-.12.1-.07.02-.06.03.06.08.13.06.13.07.06.09-.06.01-.1,0-.11-.04-.02-.05-.06-.06-.18-.04-.09.01-.14,0-.13-.02.03-.05.01-.05-.08-.01-.04.01-.06.04-.04.07.01.02-.02.04-.08.04-.08,0-.09,0-.04-.04.07-.05.02-.05-.12-.02-.08.02-.09.04-.04.09.05.06.04.06-.04.02-.14-.07-.22-.06-.32.05-.05.05-.08.07-.06.04.02-.04.02-.05-.01-.03-.03.02-.04.07-.04.11,0,.05.03.07.05.05.09-.06.72-.12.72-.07s-.35.14-.69.18c-.11.01-.22.04-.25.07-.03.02-.08.03-.11.01-.04-.02-.04-.02,0,.02.03.03.08.04.13.02.14-.06.45-.07.42-.01-.02.03-.01.04.02.02.03-.02.04-.05.03-.07-.01-.02.02-.05.06-.06.05-.01.09,0,.09.02s-.02.04-.04.04-.04.02-.04.05.04,0,.1-.04c.11-.1.18-.12.22-.05.01.02,0,.03-.04.02-.03-.01-.08,0-.09.02-.02.03.03.05.14.05.13,0,.15-.01.1-.05-.05-.04-.05-.04.01-.02.04.01.12.03.17.03s.08.01.06.03c-.03.03-.39.11-.52.12-.04,0-.08.02-.08.05s-.02.02-.05,0c-.06-.06-.29-.02-.38.07-.05.05-.03.06.17.03.13-.02.28-.04.34-.04.05,0,.13-.03.16-.06.04-.04.06-.04.08,0,.01.04.04.04.1,0,.05-.03.11-.03.14-.01.03.02-.09.06-.32.11-.21.04-.39.09-.41.12-.02.02-.05.04-.07.04s-.13.03-.23.08c-.14.07-.17.09-.1.09.05,0,.1.02.1.04s-.04.03-.1.02c-.07-.02-.08,0-.04.02.05.03.04.05-.03.06-.05.01-.08,0-.07-.02.04-.07-.02-.04-.11.04-.07.07-.07.09-.02.11.03.01.07,0,.09-.02.01-.02.05-.03.09-.02.03.01.06,0,.07-.01.01-.03.34-.2.47-.24.01,0,.08-.03.15-.06s.13-.04.14-.03c.02.02-.3.22-.35.21-.02,0-.12.04-.22.1-.1.06-.22.11-.26.11s-.07.02-.07.04.04.03.1.02c.08-.02.09-.01.03.03-.05.04-.04.05.05.02.17-.04.15,0-.06.11-.1.05-.16.11-.15.14.02.03.01.04-.02.02-.03-.02-.04-.05-.02-.08.02-.02-.02-.01-.09.03-.06.04-.1.09-.09.11.01.02,0,.04-.03.04s-.04,0-.03.02c.03.03.42-.08.7-.21.17-.08.26-.1.28-.06.02.03.01.04-.02.02-.03-.02-.05-.01-.05.01s-.04.05-.1.07-.14.06-.18.09c-.09.07-.08.07,0,.02.12-.06.16-.06.12,0-.05.09.15.09.3,0,.09-.05.18-.08.21-.06.03.02.03,0,.02-.02-.02-.03-.01-.05.01-.05.12,0,.03.12-.15.19-.11.05-.18.1-.17.12.01.02,0,.04-.04.04-.03,0-.14.07-.25.15-.11.08-.24.17-.29.19-.13.06-.12.08.04.07.08,0,.14-.03.13-.06,0-.03.03-.05.08-.05s.08.02.06.04c-.01.02,0,.04.02.04.06,0,.06-.06,0-.12-.04-.04-.04-.05.02-.05.05,0,.07.04.07.11,0,.13.07.14.19.03.08-.08.31-.11.26-.04-.01.02-.06.03-.1.01-.07-.02-.08.04-.05.19,0,0,.04,0,.08-.04.04-.03.03,0-.02.05-.05.06-.14.11-.2.11h-.1s.1-.04.1-.04c.13-.06.12-.1-.03-.1-.07,0-.12.02-.1.04.01.02-.01.07-.06.1-.07.06-.07.06,0,.06.04,0,.08.02.08.05s-.02.03-.04.02c-.07-.04-.53.2-.6.32-.04.06-.1.13-.13.15-.03.02-.06.06-.06.08s.05,0,.1-.05.11-.08.12-.07c.04.04.33-.1.38-.18.02-.04.04-.06.04-.03,0,.08-.11.2-.18.2-.04,0-.08.04-.1.09-.02.05-.05.08-.09.07-.09-.04-.11.02-.04.11.07.08.17.11.13.04-.01-.02.01-.06.05-.1.07-.05.07-.05.02.02-.09.11-.01.09.15-.03.1-.08.15-.09.17-.06.02.03.01.04,0,.02s-.08.03-.13.1c-.05.07-.11.12-.14.11-.03-.01-.04,0-.03.02s0,.04-.04.04-.07.02-.07.05-.03.04-.07.02c-.04-.01-.06,0-.04.01s0,.05-.05.06c-.04.01-.12.08-.16.15-.05.07-.11.12-.14.11-.03-.01-.04,0-.03.05.01.04,0,.06-.01.05-.02-.01-.04.02-.05.08s-.04.15-.08.19c-.07.08-.07.08,0,.06.04-.02.07-.05.07-.07s.02-.04.05-.04.09-.05.15-.12c.06-.06.11-.11.12-.09s-.02.07-.07.12c-.05.05-.07.09-.05.09s.07-.04.12-.09c.04-.05.1-.09.14-.09s.06-.02.06-.05.01-.04.02-.03c.05.05-.04.17-.14.21-.06.02-.09.06-.08.08.01.02-.03.08-.09.13-.07.05-.09.08-.05.06.04-.02.1-.06.14-.1.12-.1.09-.02-.06.18-.13.16-.13.17-.03.1.17-.11.24-.27.16-.36-.05-.07-.05-.07.01-.02.06.05.08.05.1,0,.01-.03.01,0,0,.07-.03.12-.03.12.06.04.17-.16.39-.35.45-.39.1-.06-.02.1-.25.34-.13.13-.25.24-.27.24s-.04.03-.04.07c0,.06.01.06.07.02.04-.03.06-.04.06-.02s.05-.01.11-.07c.09-.09.11-.09.08-.02-.02.06-.02.07.02.05.03-.02.05-.06.05-.1,0-.05.01-.05.03-.02.03.06-.07.19-.12.16-.05-.03-.17.12-.2.24-.01.05-.03.11-.05.13-.02.01-.02,0,0-.05.01-.04,0-.08-.01-.08s-.04.03-.04.06-.02.07-.04.07c-.07,0-.09.12-.03.15.04.01.05,0,.04-.04-.01-.03,0-.07.02-.09.03-.02.05,0,.05.03s.08-.02.17-.11c.09-.09.17-.18.16-.19,0-.01.02-.06.07-.11.07-.07.08-.07.05-.01-.02.04,0,.08.02.08.03,0,.05-.02.05-.04s.03-.07.07-.12c.06-.07.06-.07,0,.06-.04.08-.09.14-.11.14s-.03.03-.02.07c.02.05.01.06-.03.03-.05-.04-.14,0-.15.09,0,.04-.07.13-.3.44-.09.13-.13.22-.11.27.03.07.02.07-.04.02-.06-.05-.07-.05-.07,0,0,.03.01.08.03.09.03.03.28-.19.25-.23,0-.01.02-.07.06-.13.06-.08.09-.09.11-.05.02.04.02.05-.02.02-.04-.03-.05-.02-.03.04.02.04.01.06-.01.05-.02-.01-.04,0-.04.05,0,.04-.03.12-.07.16-.11.14-.07.17.05.04.06-.07.13-.12.15-.11.02,0,.03,0,.01-.03-.03-.05.08-.23.12-.19.01.01.04-.02.05-.07.02-.05.05-.09.07-.09s.03.03.01.08c-.02.04-.04.12-.05.17-.01.05-.04.08-.07.07-.03-.02-.04,0-.02.04.02.04,0,.07-.02.06-.05-.01-.21.18-.23.27-.04.17-.08.25-.11.23-.02-.01-.03,0-.01.05.02.06.03.06.11,0,.04-.04.08-.05.08-.03s-.02.06-.05.08c-.03.02-.04.05-.02.09.01.03,0,.08-.04.11-.06.05-.04.22.03.22.02,0,.03-.03.02-.07-.02-.04,0-.11.05-.15.04-.04.06-.09.04-.11-.04-.04.06-.14.15-.14s.07.1-.03.21c-.03.03-.05.07-.03.09s0,.05-.03.07c-.03.02-.04.01-.02-.03.02-.04.02-.05-.02-.02-.03.02-.04.06-.03.09s-.02.13-.07.21-.08.16-.07.17c.03.03.21-.26.37-.6.15-.32.22-.36.12-.07-.03.1-.06.22-.05.27,0,.05,0,.07-.03.06-.02-.01-.03-.05-.01-.07.02-.03,0-.03-.02-.02-.03.02-.05.06-.05.1s-.05.15-.11.25c-.05.08-.06.14-.06.19,0-.02.03-.06.07-.09.07-.05.07-.05.02.04-.05.1-.09.12-.09.06,0,.02-.02.05-.02.06.01.04,0,.07-.02.07-.06,0-.1.12-.04.16.03.02.04.01.02-.02-.02-.03,0-.06.03-.08.03-.02.08-.08.11-.13s.07-.09.09-.07c.02.01.04-.01.04-.05,0-.04.01-.11.03-.16.02-.06.02-.07-.02-.05-.03.02-.04,0-.02-.04.02-.05.04-.06.06-.02.02.04.05.03.08-.03.03-.04.05-.06.05-.03,0,.03-.02.06-.04.08-.02.01-.04.05-.04.08.01.08-.1.33-.13.31-.02-.01-.06.05-.09.13-.03.08-.08.15-.11.15-.03,0-.02.02.01.04.05.03.05.04,0,.04-.05,0-.05.01,0,.06.03.03.04.09.02.12-.02.04-.01.04.04,0,.05-.04.06-.07.03-.09-.03-.02,0-.11.08-.26.08-.14.13-.2.13-.15,0,.11.05.06.06-.07,0-.1.14-.38.18-.38s-.05.29-.14.47c-.05.1-.08.21-.06.23.02.03,0,.03-.07.02-.05-.01-.08,0-.07,0,.03.04-.07.31-.12.31-.04,0-.05.15,0,.18.05.05.15-.02.15-.09,0-.06,0-.06-.04,0-.02.04-.05.05-.07.03-.02-.02,0-.07.05-.11.06-.06.08-.06.1-.02.01.04.04.03.09-.04.04-.05.05-.11.04-.12s-.05,0-.07.04c-.02.04-.04.04-.04.02,0-.02.05-.1.1-.16.06-.06.09-.13.08-.15s0-.02.02,0c.05.03.11-.12.13-.36,0-.08.04-.16.07-.18s.04-.04.03-.04c-.04,0,.05-.26.1-.26s.01.2-.05.3c-.02.04-.05.14-.06.22s-.04.16-.05.19c-.02.03-.03.07-.04.09,0,.02-.02.09-.04.15-.02.08,0,.07.06-.04l.09-.15-.03.17c-.02.12-.01.16.02.14.07-.04.06-.01-.04.18-.1.18-.15.48-.1.56.02.03.04-.02.04-.11,0-.15.12-.49.16-.49.01,0,.01.05,0,.12-.01.07-.04.22-.06.34-.02.12-.05.27-.06.32-.02.08,0,.08.04-.03.04-.08.08-.14.11-.14s.07-.07.1-.15c.03-.08.07-.15.09-.15.05,0,.04.03-.06.23-.13.26-.17.41-.11.45.03.02.03,0,.02-.02-.02-.03,0-.06.02-.07.02-.02.03-.04.02-.07s.05-.17.13-.34c.15-.29.22-.54.09-.31-.03.06-.06.08-.06.05s.06-.14.13-.24c.07-.1.12-.14.1-.1-.02.05-.05.21-.08.36-.03.16-.06.26-.09.24-.03-.02-.03,0-.01.05.02.04,0,.1-.02.14-.03.03-.04.07-.02.09s.03,0,.03-.03c0-.04.02-.03.07.02.06.06.06.09,0,.27-.04.12-.05.22-.03.24.02.02.06-.04.09-.15.06-.19.17-.4.17-.31,0,.03-.04.17-.1.32-.08.21-.1.34-.08.55.01.23.03.26.08.21.03-.03.06-.11.07-.16,0-.08,0-.08.03-.02.01.04,0,.13-.02.19s-.02.18,0,.25l.03.13v-.14c-.03-.15.02-.14.06.01.02.07.02.06.03-.03,0-.06.02-.13.05-.14s.04-.08.05-.14c0-.1,0-.11.04-.03.03.07.04.05.04-.09,0-.16.08-.54.12-.54.03,0,0,.5-.04.58-.03.07-.02.08.04.05.07-.03.07,0,.05.23-.02.14-.02.26,0,.26.03,0,.11-.38.16-.74.03-.21.03-.2.02.11-.01.22,0,.31.02.26.03-.08.04-.07.04.03,0,.06.02.17.04.23.03.07.03.12,0,.14-.02.01-.03.07-.02.12.01.05.03.18.04.29.03.26.11.7.12.72,0,0,.02-.14.02-.32,0-.6.01-.62.08-.38.03.12.05.23.04.24-.01.02,0,.05.04.08.05.04.05.01.03-.14-.02-.11-.01-.18,0-.17.02.01.04,0,.06-.03.01-.03.02.01,0,.09s0,.14,0,.12c.04-.04.14.11.14.22,0,.05.03.11.07.12.04.02.07.09.07.22,0,.11.02.19.05.19s.03-.04.02-.09c-.02-.05-.01-.09,0-.09s.03-.09.03-.2c0-.11.01-.25.03-.31.03-.09.04-.07.02.11-.01.17,0,.23.05.23.03,0,.05.02.03.04-.01.02,0,.08.02.12.04.06.04.05.05-.07,0-.18.07-.15.08.03,0,.07.03.18.05.23l.04.1-.02-.1c-.01-.05,0-.1.02-.1.05,0,.1.28.07.39-.01.05,0,.08.01.06.02-.01.04.02.06.08.01.05.01-.03,0-.18-.02-.28,0-.3.05-.07.01.07.04.11.06.1.02-.01.05,0,.06.04.01.04,0,.07-.02.09-.07.04-.05.1.05.15.08.04.09.04.06-.14l-.02-.19.06.13c.03.07.05.17.04.22-.02.07,0,.06.04-.02.08-.13.09-.19.01-.15-.04.02-.04.02,0-.04.05-.06.05-.07,0-.1-.04-.02-.04-.03,0-.05.03-.02.04-.11.01-.29-.02-.15-.03-.29-.02-.31,0-.02.03.06.05.18.03.23.1.28.16.12.03-.08.03-.08.03,0,0,.05-.02.12-.06.15-.07.06-.09.15-.02.11.05-.03.13.11.14.24,0,.09,0,.09.04.01.02-.05.02-.12,0-.16-.02-.04-.02-.13,0-.19l.04-.13-.02.14c-.01.08,0,.13.02.12.02-.01.05.02.07.07.05.18.13.34.16.34.02,0,.01-.04-.01-.09-.04-.07-.03-.09.02-.09.03,0,.07-.02.09-.05s.01-.01,0,.04c-.01.05,0,.13.02.17.04.07.04.07.02-.02-.01-.05,0-.1.01-.12.02-.01.04.02.04.07,0,.05.04.14.08.2.07.1.08.1.11.04.02-.04.03-.11.01-.15-.02-.06,0-.06.07.01.05.05.07.06.05.02-.06-.07-.07-.15-.01-.11.02.01.03-.01.02-.06-.01-.05-.04-.08-.06-.06s-.03.05-.01.08c.02.03,0,.03-.03,0-.05-.04-.05-.07,0-.11.03-.03.05-.1.06-.16,0-.06.01-.08.03-.05.01.04.03.09.05.13.01.04.02.08.02.1,0,.02.01.03.04.03s.03.03.02.08c-.02.06-.01.06.03.03.04-.04.04-.07,0-.14-.06-.12-.1-.65-.05-.68.03-.02.04.09.05.27,0,.27,0,.28.04.12.02-.1.04-.27.04-.39v-.22s.05.17.05.17c.03.11.02.22,0,.31-.03.11-.03.18.02.32.03.1.05.22.04.25-.01.04,0,.03.03-.02.03-.05.04-.13.02-.17-.05-.12-.06-.39-.02-.52.04-.11.04-.11.03.03,0,.29,0,.35.05.32.03-.02.04-.07.03-.11-.01-.04,0-.07.01-.06s.04-.03.05-.1c.02-.11.02-.11.02.02,0,.08.02.14.04.14s.02-.1,0-.23c-.01-.13,0-.3.02-.38l.04-.15.02.12c.01.11.03.11.08.07.06-.05.07-.04.05.06-.01.06,0,.11.01.09.02-.01.04.03.04.1,0,.07.02-.01.04-.18.02-.16.06-.32.08-.35.04-.04.05-.03.04.02,0,.04,0,.1,0,.15,0,.07.01.07.04.03.02-.03.02-.13,0-.22-.06-.24-.05-.3.03-.19.04.05.06.12.04.14-.01.02,0,.04.02.04s.05-.04.05-.08.01-.12.03-.16c.02-.05.01-.07-.02-.05-.03.02-.06,0-.07-.01-.01-.02,0-.04.02-.04.03,0,.04-.04.02-.09-.02-.05,0-.09.02-.09s.05.04.06.1c0,.05,0-.06,0-.25-.01-.24,0-.33.03-.3.03.02.05.12.06.22,0,.1.01-.04,0-.3-.01-.47-.01-.47.04-.26.06.24.07.24.09.03,0-.08,0-.14-.02-.14-.04,0-.05-.39-.01-.49.01-.04.04-.06.06-.05.02.01.02-.03.01-.09-.01-.07,0-.1.02-.09.06.04.09-.16.04-.25-.02-.04-.03-.08-.02-.09s.05.03.09.1l.07.12-.02-.19c-.02-.15-.01-.18.02-.13.04.05.04.04.02-.07-.07-.43-.08-.51-.03-.48.03.02.04.04.03.06,0,.02,0,.07.02.12.03.06.03.02.02-.13-.01-.12,0-.18.01-.13.02.05.04.07.06.04.02-.03,0-.08-.04-.11-.09-.09-.09-.19,0-.11.06.05.07.05.05,0-.01-.04-.04-.1-.05-.15l-.03-.09.07.09c.07.08.07.08.05,0-.01-.04-.03-.11-.03-.14,0-.04-.02-.05-.05-.03-.03.02-.04.01-.02-.02.02-.03.06-.04.11,0,.05.03.09.03.12,0s.08,0,.14.05c.05.05.1.08.1.07s.06,0,.14.04c.08.03.17.05.21.03.06-.02.06-.01,0,.06-.06.07-.06.08,0,.05.04-.01.11,0,.16.04.05.04.12.05.16.04s.09,0,.12.04.08.06.11.06.14.05.25.12.26.14.32.17c.18.1,0,.06-.21-.04-.11-.05-.22-.1-.23-.1-.02,0-.04-.02-.06-.03-.02-.02-.07-.03-.11-.03s-.08-.02-.08-.05-.03-.04-.06-.02c-.03.01-.1,0-.15-.04-.12-.08-.22-.03-.1.05.04.03.1.06.13.06.06,0,.57.3.52.3-.02,0-.1-.03-.18-.07-.16-.08-.25-.05-.11.03.05.03.09.07.09.09s-.02.03-.05.01c-.03-.02-.04-.01-.02,0,.02.02.06.04.09.04.03,0,.13.06.22.12.16.11.17.11.04.1-.07,0-.1,0-.07,0,.03.01.04.04.03.06-.01.02.03.02.1,0,.09-.03.14-.01.2.05.07.07.07.08.01.08-.04,0-.07-.02-.07-.05,0-.06-.18-.03-.21.04,0,.03.03.07.08.09.18.07-.05.05-.26-.02-.21-.07-.29-.04-.2.09.03.05.08.07.09.05s0-.05-.03-.07c-.04-.02-.05-.04-.03-.04.05,0,.34.18.32.2-.01.01-.06,0-.11-.04-.05-.03-.1-.04-.12-.02s0,.05.04.08c.04.02.07.06.05.08-.01.02.02.06.08.08.06.02.23.1.38.17.29.14.32.18.05.07-.09-.04-.2-.06-.25-.06-.06,0-.05.02.06.06.08.03.19.08.24.11.08.05.07.05-.04.03-.12-.02-.12-.02-.03.02.06.02.17.05.25.06s.15.01.15.02-.04.03-.09.06c-.06.03-.08.04-.06,0,.02-.03-.02-.05-.1-.06-.31-.02-.38-.03-.53-.07-.09-.03-.16-.03-.16,0,0,.02.02.04.04.05.02,0,.06,0,.08.02.02,0,.09.02.17.04.08.02.15.06.16.09.02.05,0,.04-.13,0-.08-.03-.16-.06-.17-.06-.04,0,0,.11.05.11.02,0,.11.04.19.08.33.16.49.28.3.22-.18-.06-.3-.06-.33,0-.02.03,0,.03.02.02.03-.02.05,0,.06.02,0,.03.04.05.08.06.19.04.3.08.3.12,0,.02-.03.03-.07.02-.04-.01-.07,0-.07.01,0,.05.15.09.32.09.09,0,.11.01.07.04-.04.03,0,.05.13.08.11.02.15.04.1.05-.09,0-.34-.05-.47-.1-.06-.02-.07-.02-.05.04.01.04,0,.07-.02.07-.1,0-.04.09.08.11.07.01.14.05.15.08.02.05-.04.05-.27.04-.27-.02-.28-.02-.21.05.05.04.13.07.18.07.1,0,.37.12.37.16,0,.01-.06.01-.13,0s-.13,0-.13.01c0,.05.12.08.26.08.07,0,.13.02.13.04s-.05.03-.11.02c-.06-.01-.11,0-.11.03s.03.04.06.02.07,0,.07.02.09.07.2.1c.28.07.27.11,0,.09-.17-.01-.23,0-.21.03.02.03.18.05.41.05h.38s-.26.04-.26.04c-.14.02-.28.02-.3,0s-.03,0,0,.03c.02.03.09.05.16.05.08,0,.12.02.1.04-.01.02-.08.03-.14.02-.09-.02-.1-.02-.05.02.04.03.12.05.19.04.26-.01.41,0,.41.04,0,.05-.28.11-.42.1-.05,0-.1,0-.1.03s.03.04.08.04c.05,0,.07.02.06.06,0,.05.01.07.11.05.11-.02.11-.02.06.05-.03.04-.04.07-.02.06s.09,0,.15.02.2.04.31.05c.26.03.28.14.02.12-.14-.01-.17,0-.12.03.1.07.39.06.39-.02,0-.04.03-.07.07-.07s.07.02.07.04.02.05.05.06c.03.01.01.01-.04,0-.05,0-.1,0-.1.03s.06.05.14.05c.12,0,.13,0,.05.04-.05.02-.14.04-.21.04-.18,0-.14.09.05.09.23,0,.26.06.07.12l-.17.05h.19c.27,0,.31,0,.13.05-.08.02.06.02.32.02.35-.01.44,0,.35.03-.07.02-.16.03-.21.02-.09-.03-.11.05-.02.08.03.01-.01.03-.1.03-.14,0-.14.01-.04.04.06.02.15.02.2.01s.11,0,.12.03c.03.05-.05.06-.2.05-.04,0-.08.01-.08.04s-.04.05-.09.05c-.09,0-.12-.08-.03-.09.04,0,.04,0,0-.02-.03-.01-.08,0-.12.04-.08.08-.08.12,0,.09.04-.01.07,0,.07.01s.08.04.18.05c.1,0,.2.02.21.03.02.01.04,0,.06-.02.03-.05.3-.04.32.02,0,.02-.02.05-.06.05-.19.01-.26.03-.25.06.01.02.05.03.09.03.04,0,.16,0,.27.02s.27.02.36.02c.22,0,.16.09-.06.09-.1,0-.16.02-.15.04.01.02.16.04.32.04s.31.02.32.04c.01.02-.02.04-.08.04s-.11.02-.11.04-.08.06-.18.08c-.16.04-.13.05.36.07.3.02,1.52.04,2.71.05,1.38,0,2.21.03,2.27.06.06.02.09.05.07.05-.02,0,.02.04.1.09s.14.12.14.15c0,.14.64.04,1.06-.17l.31-.15h.92c.8,0,1.09-.03,1.6-.11.06,0,.12-.04.14-.07.03-.04.05-.05.12,0,.08.05.09.04.09-.05,0-.1,0-.1.12-.04.09.05.12.05.14,0,.03-.09.11-.12.17-.07.04.03.06.03.06,0,0-.03.03-.04.07-.02.04.02.06,0,.06-.04,0-.13.13-.02.31.26.1.15.23.32.3.38l.13.11h2.13c2.27,0,2.66.03,2.93.21h0c.16.1.36.12.54.05.09-.04.11-.06.09-.16-.01-.07-.01-.1,0-.07.13.17,1.12.26,1.11.1,0-.05.07-.07.43-.07q.43,0,.48.12c.03.07.06.11.08.09.05-.05.03-.24-.04-.36-.08-.13-.45-.35-.6-.35-.06,0-.15-.05-.21-.11-.11-.11-.38-.24-.72-.34-.16-.05-.3-.05-.62-.02-.27.03-.47.02-.58,0-.32-.09-1.09-.05-1.55.07-.23.06-.54.12-.69.13-.43.04-.87.05-.89.02,0-.02.06-.06.16-.11.1-.04.19-.1.2-.13.05-.07.22-.16.27-.13.02.01.04,0,.04-.04,0-.07.05-.09.16-.07.03,0,.05-.02.06-.05,0-.08.16-.26.21-.23.02.01.04,0,.04-.03,0-.03.03-.12.07-.2.06-.14.07-.14.07-.04,0,.11,0,.11.06-.02.03-.07.06-.11.06-.09,0,.09.13-.1.16-.25.02-.11.05-.15.09-.14.04.01.07-.03.09-.15.02-.14.04-.16.09-.12.05.04.06.02.06-.12,0-.12.03-.2.09-.25.05-.04.09-.12.09-.17,0-.08,0-.08.05-.03.04.06.04.06.03,0-.03-.09.08-.5.13-.49.04,0,.18-.52.18-.71,0-.06.02-.11.04-.13.02-.01.04-.13.04-.26s.02-.25.05-.26c.03-.02.03-.08.02-.15-.01-.06,0-.29.02-.49.04-.32.03-.41-.04-.65-.12-.4-.22-.7-.26-.79-.02-.05-.05-.13-.06-.18,0-.05-.04-.13-.06-.18s-.05-.15-.05-.23c0-.08-.04-.23-.09-.33s-.07-.18-.06-.18c.04,0-.33-.67-.45-.82-.07-.08-.11-.17-.1-.2,0-.03-.01-.1-.05-.17-.04-.07-.05-.13-.02-.14.02,0,.04-.03.04-.06s-.02-.03-.05-.01c-.03.02-.04,0-.02-.07.02-.05.01-.09,0-.07-.02.01-.04-.01-.04-.06s.02-.07.03-.06c.02.01.03,0,.03-.02s-.02-.05-.03-.05-.03-.05-.03-.12c0-.07-.05-.2-.14-.31-.08-.1-.14-.21-.15-.23,0-.02,0-.06-.01-.08,0-.02-.02-.05-.03-.07s-.02-.06,0-.09-.01-.11-.05-.17-.06-.11-.04-.11,0-.03-.04-.07-.06-.1-.05-.13c.01-.03,0-.06-.02-.06s-.04-.06-.04-.13-.02-.12-.04-.11c-.02.01-.03-.06-.02-.16.03-.35.04-.67,0-.62-.06.09-.03-.03.03-.15.03-.07.04-.13.02-.14-.02-.01-.02-.07,0-.13.02-.06.04-.19.03-.31,0-.12.01-.21.04-.22.03,0,.04-.06.03-.11-.03-.14.06-.35.13-.31.04.02.04.02,0-.03-.03-.03-.06-.18-.07-.31-.01-.14-.06-.3-.09-.36-.04-.06-.06-.1-.04-.1s0-.02-.02-.06c-.03-.03-.03-.08,0-.12.02-.04.02-.09,0-.14-.02-.04-.03-.1-.02-.12.01-.02,0-.04-.02-.04s-.05-.02-.05-.05.02-.03.05-.01c.03.02.03,0,0-.04-.05-.07-.05-.08,0-.12.05-.03.05-.04,0-.04-.06,0-.06,0,0-.04.04-.02.05-.04.02-.04-.02,0-.01-.02.02-.04.06-.04.06-.05,0-.09-.05-.03-.04-.04.05-.04.1,0,.12-.01.09-.1-.02-.08,0-.11.06-.12.05-.01.11,0,.13.02.03.03.05.03.05,0s.06-.03.19,0c.11.02.23.02.26.01.07-.03.29.15.26.2-.01.02.04.1.11.18.14.16.2.42.15.69-.02.09,0,.27.02.39l.05.21-.24.43c-.13.24-.24.44-.24.46,0,.05.1.02.22-.07.08-.06.13-.07.13-.04,0,.09-.1.34-.14.34-.02,0-.03.02-.03.05,0,.03.04.02.11-.02.17-.11.21-.09.19.09-.01.09-.03.2-.05.25-.07.19.22-.22.41-.57.2-.39.33-.52.26-.27-.02.07-.02.13,0,.13.04,0,.35-.45.35-.5,0-.02.03-.15.07-.28l.07-.24.04.14c.04.16.07.17.2.05.21-.2.16.17-.06.47-.28.37-.46.59-.62.76-.11.12-.13.15-.06.12.05-.03.12-.07.15-.11.03-.03.17-.13.31-.22.17-.11.27-.21.31-.31.08-.19.15-.19.15-.01v.14l.21-.21c.12-.12.23-.26.24-.33.01-.07.07-.15.12-.2.15-.13.2-.32.23-.82.02-.35.02-.52-.03-.65-.03-.09-.06-.27-.06-.39,0-.14-.05-.31-.12-.46-.06-.13-.13-.32-.16-.41-.05-.2-.07-.59-.03-.65.03-.05-.07-.16-.12-.11-.02.02-.02,0,0-.04s0-.08-.02-.1-.04-.04-.03-.06-.05-.09-.14-.16c-.28-.22-1.07-1.05-1.03-1.09.01-.01-.07-.11-.18-.21s-.17-.18-.12-.16c.06.02.05,0-.05-.12-.08-.08-.14-.16-.14-.18s-.06-.12-.12-.22c-.07-.1-.15-.26-.18-.36-.03-.1-.08-.2-.11-.24-.07-.08-.12-.24-.13-.41,0-.07-.02-.19-.04-.27-.02-.08-.01-.15.02-.17.03-.02.03-.05,0-.11-.02-.05-.03-.1-.02-.12.01-.02,0-.09-.02-.15-.05-.13-.01-.24.05-.15.03.04.03.03,0-.03-.02-.05-.03-.14-.03-.19s-.02-.12-.05-.14c-.03-.02-.02-.06.04-.13.05-.05.06-.08.02-.06-.05.03-.05.02-.03-.04.02-.04.01-.06,0-.05-.02.01-.06-.26-.09-.59-.06-.77-.06-.88,0-.91.03-.01.03-.02-.02-.03-.07,0-.1-.2-.03-.24.02-.01.03-.05.01-.08-.03-.08.06-.25.12-.22.02.01.03,0,.01-.05-.02-.05-.01-.06.03-.04.04.03.04.01,0-.06-.03-.06-.04-.09,0-.07.03.02.09-.02.15-.07.17-.16.29-.25.33-.25.02,0,.04-.02.04-.04s.03-.04.07-.04.07-.02.07-.04.04-.04.09-.04.09-.02.09-.05.02-.03.04-.02c.02.01.04,0,.04-.05,0-.07,0-.07.07,0,.05.07.06.07.06.01,0-.05.02-.06.07-.05.04.01.06,0,.06-.02s.03-.05.06-.05.07-.03.09-.07c.02-.05.06-.06.13-.04.11.03.33-.05.33-.11,0-.02.02-.03.04-.02.02.01.06,0,.09-.04.03-.03.08-.05.11-.04.03.01.11,0,.16-.05.06-.04.12-.06.13-.04.04.04.5-.15.63-.25.06-.04.13-.08.16-.08s.06-.02.06-.05.05-.09.11-.15c.06-.06.11-.14.11-.19s.02-.08.05-.08c.05.01.16-.38.17-.6,0-.12.02-.14.19-.19.23-.07.54-.26.54-.34,0-.03.04-.06.09-.06.05,0,.09-.03.09-.07,0-.04.04-.12.08-.18.1-.14.17-.35.22-.67.03-.19.07-.27.15-.34.35-.27.32-.76-.06-1.11-.29-.27-1.53-1.09-1.64-1.09-.03,0-.11-.04-.18-.09s-.2-.12-.29-.15c-.34-.14-.4-.17-.4-.2,0-.02-.03-.02-.06,0-.03.01-.11,0-.17-.05-.06-.04-.16-.08-.23-.09-.07,0-.15-.02-.19-.03-.04,0-.18-.04-.32-.07-.14-.03-.38-.08-.52-.11-.33-.08-1.77-.09-1.67-.02.05.04.04.04-.06.03-.07-.01-.36.03-.65.09-.39.08-.62.1-.89.09-.44-.02-.52-.08-.71-.57-.2-.49-.57-.86-1.03-1.05-.4-.16-.58-.21-.54-.14.03.05-.05.04-.3-.03-.04-.01-.08,0-.08.02s.02.05.05.05.04.03.02.07,0,.07.02.07.04.02.04.04c0,.06-.11.05-.25-.02-.15-.08-.41-.14-.31-.07.04.02.07.07.07.1,0,.03.03.05.06.04.03,0,.04,0,.03.03-.01.02,0,.05.05.06.04.01-.01.01-.13,0-.11,0-.24-.04-.3-.06-.05-.03-.1-.04-.12-.03-.01.01.04.05.12.09.16.08.15.13-.02.07-.06-.02-.14-.03-.16-.02-.03.02-.03,0-.01-.03.03-.04.02-.05-.04-.03-.04.01-.07.01-.07,0s-.05-.03-.11-.04c-.06,0-.11,0-.11,0s.1.07.22.15c.12.07.22.15.22.18s-.06,0-.14-.05c-.13-.08-.12-.08.03.06.13.12.15.16.09.16-.07,0-.07,0-.02.04.03.02.08.03.09.02.02-.01.02.02,0,.06-.01.05-.05.08-.09.06-.04-.01-.01.03.06.09s.1.1.07.08c-.04-.02-.05,0-.03.07.02.06.01.09-.01.07-.04-.03-.11.14-.12.3,0,.05-.03.08-.06.07-.05-.01-.04.01.01.1.04.06.06.13.05.15-.01.02.03.19.08.37.12.38.14.52.05.49-.04-.02-.07,0-.08.07,0,.05-.04.09-.07.08-.07-.02-.07.07,0,.1.05.02.05.05-.02.17-.05.08-.07.17-.06.19.01.02,0,.04-.02.04s-.04.02-.02.04,0,.04-.03.04c-.04,0-.04,0,0,.04.05.03.05.06-.02.16-.07.1-.07.12,0,.09.11-.04.08.04-.03.1-.05.03-.06.04-.02.03.1-.03.1.07,0,.15-.11.09-.41.58-.36.59.06.02,0,.26-.12.5-.06.12-.11.28-.11.37,0,.09-.03.24-.07.35-.04.11-.07.24-.08.3s-.02.2-.04.31-.05.33-.09.49c-.04.15-.06.3-.06.32,0,.02-.03.21-.09.43-.05.22-.1.45-.11.52-.05.35-.14.61-.28.77-.06.07-.08.1-.04.07.04-.03.09-.04.11-.03.04.04-.22.53-.4.78-.08.11-.13.2-.1.21.02,0-.01.09-.08.19-.11.16-.18.29-.21.43,0,.02-.08.23-.16.45-.08.23-.2.67-.26,1-.25,1.28-.33,1.58-.58,2.2-.08.2-.14.39-.14.43s-.04.18-.09.31c-.05.13-.1.29-.1.35s-.07.27-.15.48c-.29.78-.36.98-.36,1.06,0,.05-.05.26-.12.47-.13.4-.16.53-.08.41.04-.06.04-.06.04,0,0,.04-.03.18-.06.31-.03.14-.04.24-.02.22.02-.01.03,0,.02.06-.04.14-.12.51-.14.64,0,.07-.03.34-.06.61-.04.45-.1.81-.16,1.06-.02.08-.02.09.02.04.03-.05.04.06.03.39-.02.49-.06,1-.09,1.17-.01.06,0,.09.02.06.04-.05.07.45.07,1.19,0,.22.02.39.04.38.02-.01.03.09.03.23,0,.14.03.84.06,1.55.08,1.55.08,2.79.02,3.25-.05.39-.24,1.01-.3,1.01-.02,0-.04.02-.04.04s.03.03.08.01c.07-.03.07-.02.01.05-.22.27-.44.19-.94-.35-.21-.23-.48-.56-.6-.73-.12-.17-.2-.26-.18-.21.01.05.04.14.05.19.05.23-.11-.13-.26-.6-.15-.43-.16-.53-.18-1.04-.01-.31-.04-.57-.06-.59-.02-.01-.02-.22,0-.47.02-.25.03-.46.02-.47s-.02.01-.02.06,0,.07-.02.06c-.01-.01,0-.13.02-.26.03-.13.06-.38.08-.56s.05-.38.07-.45c.02-.08.02-.11-.01-.09-.03.02-.03-.04,0-.16.07-.24.12-.8.06-.64-.07.18-.08.03-.01-.24.07-.27.05-.38-.04-.25-.04.06-.04-.01.02-.25.14-.61.15-.89,0-.35-.03.1-.06.18-.07.17s0-.1.04-.21c.04-.15.04-.19,0-.21-.03,0-.05-.04-.05-.06s.02-.03.04-.02c.03.02.04-.06.03-.19,0-.2-.01-.21-.08-.14-.08.1-.22.2-.22.17,0-.01.03-.05.06-.08.03-.03.07-.11.09-.17.03-.1.03-.1-.04-.02-.08.1-.08.06,0-.21.08-.25.06-.31-.04-.12-.04.07-.08.13-.09.13s-.01-.01,0-.03c.05-.09.2-.44.2-.47,0-.02-.04.03-.09.11-.05.08-.1.14-.1.13,0,0,.02-.15.07-.31.06-.21.07-.32.04-.35-.05-.05-.03-.6.02-.8.02-.06.01-.08,0-.04-.05.09-.14.1-.14.01,0-.04.03-.11.06-.16.07-.1.08-.15.02-.15-.03,0-.04.02-.02.04.01.02,0,.05-.04.06-.03.01-.07,0-.08-.03-.01-.03-.02-.03-.02.01,0,.04-.04.12-.09.2l-.09.13.03-.15c.01-.08.03-.2.03-.25,0-.07.03-.09.07-.07.05.02.05.01,0-.05-.06-.07-.06-.06-.1.04-.02.06-.06.12-.08.12s-.03.02-.01.04,0,.05-.02.07c-.03.02-.03-.06-.02-.19.02-.22,0-.26-.11-.16-.05.04-.05.04-.03-.05.07-.26.07-.28,0-.16-.04.07-.07.17-.07.22,0,.11-.07.23-.11.19-.02-.02-.01-.05.01-.09.02-.03.05-.08.05-.12,0-.04.02-.12.03-.18.05-.23-.05-.12-.23.25-.1.2-.19.35-.21.34-.01-.01-.03.02-.03.08,0,.1,0,.1-.04.02-.02-.05-.02-.11,0-.14.02-.03.03-.08.02-.12-.01-.04,0-.08.01-.09.02-.01.03-.05.01-.09-.01-.04,0-.06.03-.06s.04-.02.02-.05c-.02-.03-.01-.04.02-.02.03.02.03.07,0,.16-.02.07-.03.15-.02.18.01.03.02.02.03-.03,0-.05.03-.11.06-.15.09-.11.26-.52.23-.55-.04-.04-.15.11-.18.26-.01.07-.04.11-.07.09-.03-.02-.03-.07-.02-.14.02-.06.04-.17.04-.24,0-.07.02-.18.04-.24.03-.09.03-.1-.03-.04-.04.04-.09.14-.12.22-.07.2-.19.26-.14.09.02-.07.04-.15.07-.19.02-.04.03-.1.01-.14-.01-.04,0-.07.02-.07s.05.02.07.05c.01.03.02.02.03-.03,0-.06-.02-.07-.08-.06-.05.01-.09,0-.11-.03-.01-.03-.01,0,0,.07.01.07,0,.12-.02.12s-.04-.05-.03-.12c.05-.32.08-.4.11-.38.02.01.02-.02.01-.07-.04-.15-.13-.08-.11.09,0,.01-.03.03-.06.03s-.06-.02-.06-.04.01-.04.03-.04.04-.1.05-.22c.01-.2,0-.22-.05-.17-.04.03-.08.09-.09.14-.01.05-.05.08-.09.08-.04,0-.05.03-.03.07.02.06.03.06.06.01.02-.04.04-.04.04,0,0,.03-.04.08-.1.12-.05.04-.07.06-.04.05.04-.02.04,0,0,.1-.03.07-.07.14-.09.16-.02.02-.03.07-.03.11,0,.06,0,.06.04,0,.02-.04.04-.04.04-.02,0,.03-.03.07-.06.1-.03.03-.08.11-.09.18-.02.07-.04.12-.05.11s0-.13.02-.25c.14-.66.17-.83.16-.86-.01-.02,0-.08.02-.14.02-.06.03-.11,0-.11s-.07.11-.11.24c-.05.16-.09.23-.13.22-.03-.01-.07,0-.08.03s-.01-.03,0-.14c0-.1.03-.2.05-.22.02-.02.02.01,0,.07-.01.05,0,.12.01.15.02.04.04-.01.04-.15,0-.22-.06-.27-.11-.11-.02.05-.05.11-.07.12-.02.01-.05.12-.06.24-.02.26-.07.42-.11.39-.02-.01-.03.03-.03.1,0,.06-.02.19-.05.27-.04.14-.04.12-.04-.14,0-.16.02-.28.04-.27s.03-.09.02-.23,0-.43.02-.64q.03-.39-.03-.15c-.03.13-.06.2-.06.15,0-.05.02-.17.04-.28.05-.23.06-.27.1-.5.02-.12.02-.15-.01-.08-.02.05-.06.11-.09.13-.05.03-.04-.05.03-.3.02-.06,0-.08-.04-.06-.05.02-.06,0-.04-.06.01-.05,0-.08-.03-.08s-.04.02-.02.04c.01.02,0,.04-.02.04s-.04.02-.03.05c.03.07-.08.18-.12.12-.02-.02,0-.07.02-.1.02-.03.04-.12.04-.19,0-.12-.01-.13-.06-.07-.03.04-.04.1-.03.14.01.04,0,.05-.02.03-.05-.03-.15.34-.16.6-.02.38-.02.41-.08.39-.04-.02-.07.03-.09.15-.02.1-.05.18-.07.18s0-.17.04-.38c.05-.21.07-.4.06-.42s-.02,0-.02.05c0,.05-.02.11-.04.12-.02.01-.05.14-.07.28s-.04.26-.06.26c-.04,0,.02-.45.08-.58.08-.18.08-.23.03-.28-.06-.05-.09.05-.14.46,0,.08-.04.18-.06.24l-.04.1v-.11c0-.06-.03-.14-.05-.17-.03-.05-.04-.04-.05.04,0,.08-.02.06-.05-.07-.02-.1-.03-.25-.02-.34.01-.11,0-.15-.02-.11-.02.04-.04.04-.04.01,0-.03.02-.06.04-.08.07-.04.05-.14-.02-.14-.05,0-.07.05-.07.18,0,.24-.04.57-.08.83-.03.18-.04.13-.03-.29,0-.28,0-.51,0-.51-.04,0-.14.14-.14.2,0,.05-.01.06-.04.04-.05-.05-.09-.59-.04-.56.02.01.04-.01.04-.05,0-.06-.01-.06-.06-.02-.05.04-.06.1-.04.22.02.11.01.17-.02.17-.03,0-.05.08-.05.21,0,.11-.02.26-.04.34-.07.24.02-.79.09-1.13.05-.23.05-.27,0-.19-.03.05-.04.03-.02-.09.01-.08,0-.34-.02-.56l-.04-.41v.45c0,.25,0,.54-.02.65-.01.11-.04.33-.05.5-.03.31-.06.43-.07.23-.01-.82-.03-1.19-.07-1.18-.02,0-.03-.1-.02-.24.01-.19.02-.22.05-.14s.03.06.04-.1c0-.12-.01-.2-.04-.18-.02.01-.05,0-.06-.03-.03-.1-.13.39-.1.5.03.08.02.09-.03.04-.04-.04-.06-.18-.06-.52,0-.25,0-.41-.01-.36-.05.36-.06.41-.11.34-.03-.05-.04-.03-.02.07.04.22-.05.28-.09.06-.03-.16-.04-.1-.04.29,0,.27.01.48.02.47.01,0,.02.2.03.47,0,.39,0,.44-.03.29-.02-.11-.04-.23-.05-.27,0-.04-.03-.06-.05-.05-.02.01-.03-.06-.01-.19.02-.17.02-.18-.01-.08-.05.17-.06.44-.02.65.02.12.02.15-.01.11-.03-.05-.05-.03-.06.07-.01.08-.02.06-.02-.07,0-.22-.05-.48-.09-.48-.04,0-.03-.17.02-.28.02-.05.02-.09-.02-.1-.03-.01-.04-.06-.03-.13.02-.09.02-.1-.03-.05-.04.05-.05.05-.03-.03.01-.05,0-.1-.02-.1-.02,0-.03.09-.01.21.02.14.01.22-.02.24-.03.02-.05.05-.05.07s.02.03.05.01c.03-.02.04-.01.03,0s0,.14.01.26c.02.13.02.23,0,.26-.03.03-.03.01,0-.04.02-.05.02-.07-.01-.06-.03.02-.07-.05-.1-.16-.03-.1-.09-.27-.14-.37-.05-.1-.08-.2-.08-.23s-.02-.04-.04-.04-.04-.04-.03-.1c.01-.09-.02-.25-.1-.44-.02-.05-.05-.15-.07-.22l-.03-.13-.04.11c-.04.11-.04.16.03.32.02.06.02.07-.02.05-.04-.02-.04.01-.03.11.01.1,0,.09-.03-.04-.03-.1-.06-.18-.08-.18s-.02-.04-.01-.09c.01-.05,0-.09-.03-.09s-.05-.02-.05-.05.02-.03.04-.02.04,0,.04-.02-.02-.05-.05-.05-.04-.02-.02-.04c.01-.02-.02-.03-.07-.03-.06,0-.1.04-.11.1,0,.05,0,.09.03.07.02-.01.04.03.03.09,0,.07.01.15.05.18.03.03.06.14.06.23,0,.11.02.16.05.14.03-.02.03,0,0,.07-.04.08-.04.12,0,.2.05.09.05.11,0,.15-.04.03-.05.05-.01.07.07.04.13.25.06.21-.05-.03-.07.1-.06.33.01.17-.1.15-.17-.03-.03-.08-.04-.2-.02-.25.02-.07.01-.08-.01-.04-.03.04-.05.02-.07-.08-.02-.08-.05-.13-.1-.13-.04,0-.06-.02-.04-.04.03-.05-.02-.18-.06-.18-.05,0,.04.36.1.4.04.03.04.03,0,.02-.07-.02-.23-.42-.2-.47.01-.02.05-.02.07,0,.04.02.04.01,0-.04-.03-.04-.04-.08-.03-.09s0-.08-.04-.15c-.04-.07-.07-.1-.07-.07,0,.03-.03.05-.07.05-.06,0-.06-.01-.02-.06.04-.05.04-.1,0-.21-.07-.18-.13-.16-.1.03.01.08.03.18.03.23,0,.05.03.08.06.08.03,0,.04.03.01.13-.03.1-.02.15.02.18.04.03.05.09.03.15-.03.1-.03.09-.09-.08-.03-.1-.08-.18-.1-.18s-.03-.02-.01-.04c.04-.06-.02-.22-.07-.19-.04.02-.06-.11-.05-.28,0-.05,0-.05-.05.01-.06.09-.06.11.11.68.07.22.11.43.1.45-.04.06-.12-.14-.28-.7-.07-.25-.16-.48-.18-.51-.04-.04-.04,0,.04.17.01.04,0,.07-.02.07s-.05-.04-.05-.08-.03-.12-.06-.16c-.11-.15-.08-.02.07.24.13.24.17.36.11.4-.03.02-.04.04,0,.04.03,0,.07.07.09.15.03.08.03.15.02.15-.03,0-.18-.32-.26-.57-.05-.16-.16-.2-.23-.1-.03.04-.04,0-.03-.09,0-.02-.01-.04-.04-.05-.02-.01-.05-.08-.07-.15-.03-.11-.02-.12.04-.05.04.04.06.09.04.11-.01.02,0,.04.02.04s.04.03.03.06c-.02.06.07.07.12.02.04-.04-.11-.3-.15-.28-.02.01-.03-.03-.02-.09,0-.06,0-.1-.01-.09s-.06-.05-.1-.15-.1-.17-.12-.17-.03-.03-.02-.06c.01-.03,0-.08-.04-.11-.05-.04-.06-.04-.05.05.02.16.07.27.17.35.05.04.06.07.03.05-.05-.02-.05-.01,0,.06.03.06.04.12,0,.17-.04.06-.04.06-.05-.04,0-.06-.04-.15-.1-.2-.06-.05-.08-.06-.05-.02.02.04.04.07.04.09,0,.03.14.34.2.45.04.07.03.08-.03.05-.07-.03-.07-.03,0,.05.09.1.1.16.02.11-.03-.02-.02,0,.02.05.04.05.08.11.07.15,0,.04-.05,0-.12-.08-.14-.17-.21-.14-.09.04.05.07.08.18.08.25-.01.15-.03.16-.1.06-.08-.1-.07-.14.02-.11.06.02.05,0-.02-.06-.05-.05-.1-.11-.1-.14s-.05-.1-.12-.17c-.07-.06-.12-.14-.12-.16s-.03-.04-.05-.03-.05-.02-.05-.05-.03-.07-.07-.09c-.07-.03.08.2.23.36.1.1.04.22-.07.13-.05-.04-.04-.02.01.07.04.07.07.13.05.15-.01.02,0,.07.05.12q.08.09-.02,0c-.05-.04-.09-.1-.07-.12.01-.02-.06-.12-.16-.23-.1-.11-.18-.22-.17-.26,0-.05,0-.06-.05-.05-.04.02-.1-.03-.18-.14-.06-.09-.11-.14-.11-.11s.02.06.04.08c.07.04.05.21-.01.17-.03-.01-.02,0,.02.03.04.03.07.07.05.08-.01.01.06.11.16.22s.16.22.15.25c-.01.02,0,.07.03.1.14.14.2.24.17.24-.02,0-.08-.06-.13-.13-.07-.09-.12-.12-.17-.11-.05.02-.13-.02-.23-.13-.11-.12-.15-.13-.13-.07.01.05.06.12.1.16.05.04.08.09.08.12s-.06-.04-.14-.14c-.08-.1-.17-.18-.21-.18-.09,0-.14-.07-.08-.11.06-.04,0-.15-.08-.15-.06,0-.06,0,0,.06.07.05.07.06,0,.08-.04.01-.06.01-.05,0,.03-.05-.21-.31-.28-.31-.03,0,0,.06.07.13.1.1.11.13.05.13-.04,0-.07-.02-.07-.04s-.03-.07-.07-.11c-.07-.07-.07-.08,0-.13.07-.05.06-.06-.04-.11-.1-.05-.11-.05-.06.02.04.05.04.08.01.11s-.07,0-.13-.07c-.07-.09-.09-.1-.11-.05-.02.04.02.09.08.13.11.07.12.2.02.23-.04.01-.05,0-.03-.05.02-.04,0-.06-.03-.05-.03,0-.16-.11-.29-.26-.13-.15-.28-.28-.32-.3-.06-.02-.05,0,.05.1.08.07.14.15.14.17,0,.06.82.87.88.87.03,0,.02.02-.02.04-.05.04-.05.05.02.07.05.01.13.08.17.16l.08.13-.21-.15c-.12-.08-.22-.14-.23-.14-.03,0-.23-.13-.27-.18-.02-.03-.03-.03-.03,0,0,.02-.02,0-.05-.03-.02-.04-.08-.08-.13-.08-.07,0-.05.03.09.16.1.09.16.17.15.18s0,.05.03.08c.04.05.04.07,0,.11-.04.04-.05.04-.03,0,.04-.06-.18-.27-.28-.27-.04,0-.08-.03-.1-.07s-.06-.06-.1-.06c-.05,0-.05.01-.02.03.03.01.05.04.05.06,0,.05-.13,0-.23-.08-.07-.06-.08-.06-.06,0,.02.08.38.27.46.24.03-.01.04,0,.03.04-.03.08,0,.08-.31-.07-.14-.07-.34-.14-.45-.15-.16-.02-.18-.02-.08.02.11.05.2.07.29.08.03,0,.04.03.03.06-.01.03.01.07.05.09.06.02.06.02.02-.04-.08-.09-.02-.08.13.03.16.11.19.25.03.15-.14-.1-.21-.08-.08.02.13.1.1.11-.1.02-.19-.08-.22-.08-.18-.02.02.03,0,.03-.06,0-.05-.03-.14-.05-.21-.04-.12,0-.12,0-.02.04.05.02.1.06.1.08s.02.04.05.04.03-.02.01-.05,0-.02.05.02c.06.05.1.06.16.03.05-.03.08-.03.08,0,0,.03-.02.05-.05.05-.05,0,.2.15.48.28.08.04.14.08.14.09,0,.03-.18-.03-.41-.15-.23-.11-.34-.15-.39-.15-.03,0-.08-.03-.12-.06-.04-.03-.07-.05-.07-.03s-.05,0-.12-.02c-.07-.02-.17-.05-.23-.06-.19-.03-.36-.07-.39-.09-.02-.01-.04,0-.05.01-.01.02.11.07.27.11.57.16.82.25.85.32.01.04.05.06.09.04.03-.01.07,0,.08.04.02.05,0,.05-.1.02-.07-.02-.16-.06-.21-.08-.11-.06-.15-.06-.12,0,.01.02-.02.04-.08.03-.06,0-.1-.02-.09-.03,0-.02-.07-.05-.18-.09-.11-.03-.19-.08-.18-.1,0-.02-.03-.04-.08-.04s-.09.02-.08.03c.03.04-.16.02-.23-.03-.04-.02-.05-.01-.03.04.02.05.01.06-.03.04-.04-.02-.05-.02-.03.01.02.04.06.04.11,0,.05-.03.09-.03.11,0,.03.04-.14.12-.21.09-.11-.03-.36-.03-.34,0,.01.02.05.03.07.02s.11,0,.19.04c.07.03.15.04.16.03s.04,0,.06.02c.04.06.14.08.24.04.05-.02.1-.01.13.02.04.04.04.05,0,.02-.03-.02-.07-.02-.1,0-.05.03.13.18.19.16.02,0,.02.01,0,.04-.02.03-.04.04-.08,0-.03-.03-.08-.05-.12-.05s-.08-.02-.08-.05-.01-.04-.03-.02-.07,0-.12-.02c-.09-.05-.18-.07-.46-.1-.08,0-.22-.03-.3-.04l-.15-.02.15.07c.08.04.19.06.25.05.06-.01.1,0,.1.01s.07.05.15.06c.08.02.18.06.22.1.04.04.11.06.15.05.05-.01.08,0,.07,0s.08.06.19.09c.12.03.23.08.24.1.02.03,0,.04-.05.01-.05-.02-.17-.04-.27-.06s-.19-.04-.19-.07-.02-.02-.03.02c-.02.05-.06.06-.14.04l-.11-.03h.11c.09-.01.1-.02.03-.06-.05-.03-.1-.03-.16,0-.05.03-.11.03-.14.02-.03-.02-.02-.04.03-.06.08-.03.08-.03-.01-.04-.05,0-.1.02-.1.05,0,.03-.08.04-.27.02l-.27-.03.17.08Zm-1.3,1.73c-.05,0-.06-.01-.03-.03.03-.01.07-.01.08,0s-.01.02-.06.02Zm.02,1.61c-.06,0-.05-.03.03-.06.04-.01.06,0,.04.02-.01.02-.04.04-.07.04Zm.03.52s0-.05.01-.06c.02-.01.04,0,.04.04,0,.07-.01.08-.05.02Zm-.54.84c-.07.04-.13.06-.13.05s.06-.05.13-.09c.07-.04.13-.06.13-.05s-.06.05-.13.09Zm-.31.93c-.03.08-.08.16-.11.17-.08.03-.06-.04.06-.18l.11-.13-.06.15Zm.08.03s.02-.06.08-.06c.07,0,.1,0,.08.06-.03.08-.13.08-.16,0Zm.41-.16c-.12.1-.16.1-.21.03-.02-.03-.01-.04.02-.02.03.02.09,0,.14-.06.05-.05.11-.08.12-.06s-.02.06-.08.11Zm-.12,1.04s-.01-.04.06-.09c.07-.05.07-.05.02.02-.03.04-.07.08-.08.08Zm-.24.78s-.03-.02-.02-.04c.01-.02.05-.04.07-.04s.03.02.02.04-.05.04-.07.04Zm.68-2.67c-.06.04-.11.06-.11.04,0-.02.05-.07.11-.11s.11-.06.11-.04c0,.02-.05.07-.11.11Zm.12.07s.02.04,0,.09c-.03.05-.05.09-.06.09s0-.04,0-.09c.01-.05.04-.09.06-.09Zm-.19,2.63s.01.07,0,.08c-.01.01-.02-.01-.02-.06,0-.05.01-.06.03-.03Zm.27-.04s-.04-.03-.06-.01c-.01.02,0,.07.02.1.06.09.05.14,0,.1-.03-.02-.04,0-.02.04.02.04,0,.08-.04.09-.04.01-.05.04-.04.07.01.02,0,.04-.04.04-.06,0-.06-.02-.02-.09.03-.05.04-.1.03-.11-.03-.03-.17.19-.14.23.01.02-.02.04-.06.04-.1,0-.1-.03-.02-.14.04-.05.05-.11.03-.14-.02-.04-.04-.03-.08.02-.02.02-.06.01-.06.04,0,.02.02,0,.05-.04,0,0,0,0,0,0,.03-.04.06-.1.11-.08.11.05.23.03.26-.03.01-.04,0-.05-.03-.03-.06.04-.01-.06.1-.21.06-.08.06-.08.06.04,0,.07-.01.1-.03.07Zm-.26-.16c0-.05.01-.06.03-.03.01.03.01.07,0,.08-.01.01-.02-.01-.02-.06Zm.03-.19s.03-.14.12-.25c.11-.13.14-.15.12-.07-.01.05-.04.1-.07.1s-.03.02-.01.04c.01.02,0,.04-.02.04s-.05.04-.05.08c0,.11-.07.15-.1.05Zm.34-.28c-.07.07-.08.07-.02-.02.03-.05.07-.09.08-.07.01.01-.01.05-.06.1Zm.04,1.35s-.02-.03-.02-.07.02-.07.04-.07.03.03.02.07-.03.07-.04.07Zm0-1.95s-.07.1-.07.13-.02.05-.05.05c-.03,0-.04.03-.02.07.02.04.02.06,0,.05-.02-.02-.07.02-.13.08-.07.08-.11.1-.13.06-.02-.03-.01-.05.02-.04.05.01.2-.21.32-.46.04-.08.07-.11.09-.07.02.03,0,.09-.04.13Zm.04-2.46s0,0,0,0c-.01.02-.04.04-.07.04-.06,0-.05-.03.03-.06.04-.01.06,0,.04.02h0s0,0,0,0Zm7.69,6.76s-.06-.02-.07-.04c-.01-.02,0-.04.02-.04s.06.02.07.04c.01.02,0,.04-.02.04ZM22.3,1.03s.02-.03.04-.02.04.04.04.05-.02.02-.04.02-.04-.02-.04-.05Zm-.06,2.17s.02.02.02.04-.02.04-.05.04-.03-.02-.02-.04c.01-.02.04-.04.05-.04Zm-6.92,20.89s.01.1,0,.13-.02,0-.02-.08c0-.07.01-.1.02-.05Zm-.79-4.42c.04-.07.06-.08.04-.03-.02.05-.03.12-.03.16,0,.09-.01.09-.05.03-.01-.02,0-.1.04-.16Zm-.04.28s.01.07,0,.08c-.01.01-.02-.01-.02-.06,0-.05.01-.06.03-.03Zm0,.22s.01.07,0,.08-.02-.01-.02-.06c0-.05.01-.06.03-.03Zm-.65-.07s.01.02.01.07-.03.09-.06.09c-.05,0-.05-.01-.01-.07.03-.04.06-.08.06-.09Zm-.07-.6s.05,0,.02.02c-.03.02-.06.07-.08.1-.02.05-.02.04-.02-.02,0-.05.04-.09.07-.1Zm-.26-.88s.04.03.04.06,0,.07-.02.07-.03-.03-.04-.07c-.01-.04,0-.06.02-.06Zm.05.69s.03-.02.01.07c-.05.21-.11.33-.08.15.01-.08.04-.18.07-.22Zm-.48-.86c0,.09,0,.09.04-.03.03-.12.03-.12.04-.02h0c0,.06-.01.15-.03.19-.03.08-.04.07-.07-.06-.02-.08-.02-.16,0-.17.01-.01.03.02.03.08Zm-.08.3s.01.09,0,.09c-.03,0-.07-.13-.05-.16.01-.01.03.02.04.07Zm-.33-.4s.01.07,0,.08-.02-.01-.02-.06c0-.05.01-.06.03-.03Zm-.04,13.97s-.01.02-.06.02c-.05,0-.06-.01-.03-.03.03-.01.07-.01.08,0Zm-.25-14.59c.02-.05.04-.06.04-.02,0,.04-.02.11-.04.17-.03.09-.04.09-.04.02,0-.05.02-.13.04-.17Zm-.01.49s.01.07,0,.08-.02-.01-.02-.06c0-.05.01-.06.03-.03Zm-.13-.52s.01.08,0,.11c-.01.03-.02,0-.02-.05s0-.08.02-.05Zm0,.3s.01.08,0,.11c-.01.03-.02,0-.02-.05s0-.08.02-.05Zm-.36,13.95c-.05,0-.06-.01-.03-.03.03-.01.07-.01.08,0,.01.01-.01.02-.06.02Zm.14-14s.01.08,0,.11c-.01.03-.02,0-.02-.05s0-.08.02-.05Zm-.03.51s.03,0,.02.04c-.03.08-.06.09-.06.03,0-.02.02-.05.04-.07Zm-.11-.6s.06-.07.06-.06-.03.09-.06.17c-.04.1-.06.12-.06.06,0-.05.03-.12.06-.17Zm-.05,13.79s.07.02.07.04-.02.04-.04.04-.05-.02-.07-.04c-.01-.02,0-.04.04-.04Zm-.5-14.25c.03-.05.04-.05.04.03,0,.05-.02.11-.04.12-.06.03-.06-.07,0-.15Zm-.09-.15s.04,0,.04.02-.02.06-.04.07c-.02.01-.04,0-.04-.02s.02-.06.04-.07Zm-.49-.57s.01.11,0,.15c-.01.04-.02,0-.02-.08s0-.12.02-.08Zm-.1-.91s.03.15.05.35c.02.2.02.39.01.43-.01.03-.03-.12-.05-.35-.02-.22-.02-.41-.01-.43Zm-.19-.32c.03-.05.04-.04.04.05,0,.06-.02.13-.04.14-.06.03-.06-.11,0-.19Zm-.1,1.74s.01.1,0,.13-.02,0-.02-.08c0-.07.01-.1.02-.05h0Zm0-.24s.01.08,0,.11c-.01.03-.02,0-.02-.05s0-.08.02-.05Zm-.3-.39s.01.08,0,.11c-.01.03-.02,0-.02-.05s0-.08.02-.05Zm.02.5s.04.11.03.15c-.01.07-.02.07-.05,0-.02-.04-.03-.11-.03-.15,0-.06,0-.06.05,0Zm-.44-.49s.04.01.04.03c0,.02-.02.07-.04.12-.03.08-.04.07-.04-.03,0-.07.02-.12.04-.12Zm-.16,10.91c-.05,0-.06-.01-.03-.03.03-.01.07-.01.08,0,.01.01-.01.02-.06.02Zm.02-11.52s.04.03.03.06,0,.14.02.24c.02.1.03.19.02.2-.03.03-.07-.06-.1-.28-.02-.17-.02-.22.02-.22Zm-.03.9c0-.09.02-.14.05-.12.02.02.02.09,0,.16-.04.12-.05.12-.04-.04Zm-.03-.25s-.12-.31-.1-.34c.01-.01.03,0,.03.05s.02.07.03.05c.02-.01.04.04.04.11s0,.13,0,.13Zm-.07-.5c0-.05.01-.06.03-.03.01.03.01.07,0,.08-.01.01-.02-.01-.02-.06Zm0-.34s.04.06.04.11-.02.08-.04.08-.04-.05-.04-.11.02-.1.04-.08Zm-.2.8s.04.04.06.08c.03.06.03.08-.02.08-.03,0-.06-.04-.06-.08s0-.08.02-.08Zm-.08.51s.01.07,0,.08c-.01.01-.02-.01-.02-.06,0-.05.01-.06.03-.03Zm-1.37,6.14c-.04-.05-.04-.07.01-.07.09,0,.13.07.07.11-.04.02-.03.04.03.07.08.03.08.03,0,.03-.05,0-.14-.05-.21-.11-.07-.06-.1-.11-.08-.11s.06.03.09.07c.03.04.07.06.1.06s.02-.03-.01-.06Zm.36,1.23s.05.09.03.09-.06-.03-.07-.07c-.01-.04-.05-.06-.08-.05-.03.01-.08,0-.1-.04-.04-.04-.03-.06.02-.08.1-.04.14-.03.06.02-.06.04-.06.04,0,.04.04,0,.1.04.14.09Zm-.07-.6s.07.03.1.06h0c.07.08.04.08-.07,0-.05-.03-.06-.06-.04-.06Zm-.14.3s.05-.04.07-.04.03.02.02.04-.05.04-.07.04-.03-.02-.02-.04Zm.07-.69s-.04-.04-.01-.04c.03,0,.06.02.08.04.03.05.02.05-.07,0Zm0,.4c0,.13-.05.16-.1.07-.02-.03,0-.06.02-.07.03-.01.03-.05-.02-.13-.07-.11-.07-.11.02-.05.06.04.09.1.09.18Zm.09,1.23s-.03,0-.04,0-.08-.03-.14-.04c-.06,0-.11-.03-.11-.04,0-.02.01-.03.03-.02.02,0,.04-.02.06-.05.02-.04.06-.03.13.04.05.05.09.1.08.11Zm-.04-.31s.07-.01.08,0-.01.02-.06.02c-.05,0-.06-.01-.03-.03Zm-.31-1.35c.08.03.15.06.16.08.05.09-.05.07-.17-.03l-.13-.1.14.05Zm-.11,2.63s.04.06.03.08c-.01.01-.04-.01-.05-.05-.02-.06-.02-.07.02-.02Zm.06.21s-.06-.06-.04-.06c.03,0,.07.03.1.06.07.08.04.08-.07,0Zm1.26.09s.07.03.07.04c0,.04-.08.02-.11-.03-.02-.02,0-.03.04-.02Zm-.17-.24c.03.05.02.05-.06,0-.04-.03-.04-.04-.01-.04.03,0,.06.02.08.04Zm-.24-10.18s.03-.04.01-.1c-.01-.05,0-.08,0-.07.02.02.04.08.05.14.01.12-.04.19-.08.09-.01-.04,0-.06.01-.06Zm-.15,8.92s.07.02.07.04-.02.04-.04.04-.05-.02-.07-.04c-.01-.02,0-.04.04-.04Zm-.15.79s.02.03.04.01c.02-.01.08,0,.12.02.07.05.07.05,0,.02-.05-.01-.07,0-.05.02.02.02.06.04.1.03s.08,0,.09.03c0,.02.05.07.1.1.09.06.09.06-.01.03-.06-.02-.15-.03-.19-.03-.05,0-.12-.04-.16-.08s-.1-.08-.13-.08c-.07,0,.12.15.29.24l.13.06-.12-.02c-.1-.02-.11-.01-.07.04.03.03.07.06.08.06.07,0,.26.1.24.14-.01.02,0,.06.05.09.06.04.06.04,0,.05-.04,0-.09-.02-.12-.05-.04-.04-.07-.04-.1,0s-.01.07.07.14c.14.11.08.12-.07.02-.06-.04-.14-.08-.17-.08-.1-.01.22.24.35.27.06.02.15.05.19.09h0c.1.07.04.08-.06.02-.04-.02-.1-.03-.14-.02-.04.01-.09,0-.12-.06-.02-.04-.05-.06-.05-.04,0,.02-.03,0-.06-.04-.03-.04-.11-.08-.17-.08s-.12-.02-.12-.04-.02-.03-.04-.01c-.1.06-.43-.24-.43-.39,0-.05-.04-.12-.08-.17-.07-.08-.07-.08.02-.04.07.04.1.04.13,0,.02-.03.01-.04-.02-.02-.03.02-.06,0-.07-.02-.01-.02,0-.06.04-.07.04-.01.06-.04.04-.06-.04-.06-.11-.05-.08.02.02.04.02.04-.03,0-.08-.07.01-.18.1-.11.15.12.21.09.07-.03-.16-.14-.18-.24-.03-.19.05.01.08,0,.08-.02s-.04-.05-.09-.05-.09-.02-.09-.04.02-.04.05-.04.04-.03.02-.07c-.02-.04,0-.06.05-.06.1,0,.3.07.23.08-.03,0-.05.03-.03.07.02.05,0,.06-.07.02-.09-.04-.09-.04-.01.02.05.04.12.06.17.04.07-.02.07-.01-.02.05-.06.04-.08.06-.04.05.04-.01.12,0,.17.04.1.06.1.06-.05.04-.14-.02-.14-.02-.05.03.05.03.1.07.1.09Zm-.09-.92c-.17,0-.32-.08-.23-.11.03-.01.04-.04.03-.06-.04-.07.02-.04.19.07l.16.11h-.15Zm-.02-.48s0-.03.04-.02c.04.01.07.03.07.04,0,.04-.08.02-.11-.03Zm.05-7.67c.03.07.04.13.03.13-.02,0-.15-.19-.15-.23,0-.08.07-.02.12.1Zm-.3,5.97s.06.05.1.05.07.02.06.04c-.01.02,0,.05.03.06.04.01.03.02-.01.02-.04,0-.13-.04-.22-.08-.13-.07-.14-.08-.07-.11.05-.02.09-.01.1.02Zm-.23-6.71s.06.09.06.14c0,.09,0,.09-.04.06-.01-.01-.02-.05,0-.09.01-.03,0-.06-.02-.06s-.05-.02-.05-.05c0-.03.02-.03.06,0Zm.07.59s-.04.01-.11-.05c-.1-.1-.08-.13.02-.04.05.04.09.09.09.09Zm-.06,6.55s.06.05.04.05,0,.02.07.04c.09.02.1.04.03.06-.04.02-.11,0-.17-.05-.11-.09-.08-.16.04-.09Zm-.02-7.47s.04.09.03.1-.03-.01-.05-.05c-.04-.11-.03-.14.02-.05Zm-.33-.54s-.02-.06,0-.07c.01-.01.03,0,.05.05.03.08,0,.09-.04.02Zm-.21,1.89c-.21-.26-.2-.3.02-.05.1.11.17.21.17.22,0,.05-.04,0-.19-.17Zm.21-.07s.07.1.06.11-.06-.02-.1-.07c-.04-.05-.07-.1-.06-.11s.06.02.1.07Zm-.31-.7s0-.03.03-.03.07.06.11.13c.04.07.05.14.03.15-.03.02-.07-.04-.17-.25Zm-.19.23c-.04-.07.02-.03.15.1.11.11.2.23.2.25q0,.05-.16-.11c-.07-.07-.16-.18-.19-.24Zm-.13,13.71s.04,0,.04.04-.02.08-.04.09-.04,0-.04-.04.02-.08.04-.09Zm-.27.06s.01.07,0,.08-.02-.01-.02-.06c0-.05.01-.06.03-.03Zm-.95-13.98c-.09-.12-.06-.18.04-.08.04.04.06.09.05.12-.01.04-.04.02-.09-.05Zm.29.13c-.12-.05-.16-.2-.06-.2.04,0,.07.02.05.04s.01.07.05.12c.08.09.08.09-.05.04Zm-.21,15.06s-.02-.01-.02-.06c0-.05.01-.06.03-.03.01.03.01.07,0,.08Zm.04-.12c-.04-.18,0-.22.04-.04.02.07.02.15,0,.16-.01.01-.03-.04-.05-.12Zm.13-.48h0s.01.07,0,.08c-.01.01-.02-.01-.02-.06,0-.05.01-.06.03-.03h0s0,0,0,0Zm-.25-13.99c.08.05.21.13.27.19.07.05.1.12.09.14-.02.03-.13-.05-.27-.19-.2-.2-.22-.22-.09-.14Zm.01.22c.09.05.16.1.16.11,0,.02,0,.02-.11-.02-.05-.02-.12-.07-.15-.11-.05-.05-.02-.05.1.02Zm-.59.26s-.27-.17-.24-.17c.06,0,.25.1.25.14,0,.02,0,.04-.01.04Zm.03-.23s-.07-.07-.06-.08.06,0,.1.04.07.07.06.08c-.01.01-.06,0-.1-.04Zm.25,14.05c0-.16,0-.18.04-.1.02.06.02.14,0,.19-.03.08-.04.06-.04-.1Zm.04.28s.02-.07.04-.09c.02-.01.03.01.02.06-.03.1-.06.11-.06.02Zm-.02-13.81s.07.03.07.04c0,.04-.08.02-.11-.03-.02-.02,0-.03.04-.02Zm-.11.1c.05.03.04.04-.03.03-.05,0-.1-.02-.1-.04,0-.05.05-.04.13,0Zm-.28-.13c.03.05.02.05-.06,0-.04-.03-.04-.04-.01-.04.03,0,.06.02.08.04Zm-.25,13.59s.01.07,0,.08-.02-.01-.02-.06c0-.05.01-.06.03-.03Zm-1.1-13.68c-.08,0-.14-.02-.14-.04,0-.06.13-.06.22,0,.05.03.03.04-.08.04Zm-.7.77c-.06,0-.08,0-.05-.02.03-.01.08-.01.11,0,.03.01,0,.02-.05.02Zm-.31.54s-.04,0-.05-.03c-.02-.04-.05-.06-.09-.04-.04.01-.07,0-.07-.02s.06-.05.13-.06c.07-.01.13,0,.13.02,0,.03.1.03.25.02.19-.02.23-.01.17.02-.04.03-.16.05-.26.05-.1,0-.19.02-.21.04Zm.18.15s-.03.05-.07.05c-.07,0-.07,0,0-.07.08-.08.23-.05.18.03-.02.03-.04.03-.07-.01-.03-.04-.04-.04-.04,0Zm.03.24s-.01.02-.06.02c-.05,0-.06-.01-.03-.03.03-.01.07-.01.08,0Zm-.8.68s-.03-.05.03-.08c.07-.04.08-.04.08.03,0,.09-.03.1-.11.05Zm.05-.21c-.09.02-.11.02-.07-.01.06-.04.26-.07.21-.03-.01,0-.08.03-.15.04Zm-.02.71s.09-.02.09,0-.04.04-.09.06c-.05.03-.09.03-.09,0s.04-.05.09-.06Zm-.11.14c.03.05.02.05-.07,0-.04-.03-.04-.04-.01-.04.03,0,.06.02.08.04Zm-.74.54c-.06.02-.06.02-.01-.05.03-.04.06-.08.07-.09,0-.01.01.01.01.05s-.03.08-.07.09Zm-.06-.17c-.06.01-.08.01-.04,0,.04-.02.08-.04.09-.06.01-.02.1-.04.19-.05.09-.01.14,0,.1,0-.04.01-.08.03-.08.05s-.03.03-.08.04c-.04,0-.12.02-.18.03Zm.43.1s-.05-.02-.13-.01c-.15.02-.14-.04.01-.07.06-.01.13,0,.16.04.04.04.04.07,0,.11-.04.04-.07.02-.05-.06Zm.09-.12s.12-.11.15-.08c0,0-.02.04-.07.07-.05.03-.08.04-.08,0Zm.17.09s-.03.04-.07.04c-.06,0-.06,0,0-.07.04-.04.1-.07.14-.07.06,0,.06-.01.02-.04-.04-.03-.02-.05.06-.09.06-.03.1-.03.09,0-.01.02,0,.04.02.04.09,0,0,.08-.13.11-.07.02-.13.05-.13.07Zm.08,3.41c.07-.05.07-.05.02.02-.03.04-.07.08-.08.08-.04,0-.01-.04.06-.09Zm.04,1.54c.07-.08.07-.08.03,0-.02.05-.05.12-.06.15-.02.06-.02.06-.03,0,0-.04.03-.11.06-.15Zm-.15,1.17c-.06.06-.06.03.03-.22.1-.3.15-.33.08-.06-.03.13-.08.25-.1.27Zm.2-.04s-.06.12-.06.16c0,.06-.09.17-.09.11,0-.06.11-.32.16-.37.08-.08.07,0,0,.1Zm.03-5.29c-.05.02-.1.06-.11.1-.02.07-.02.07-.02,0,0-.09.1-.18.18-.15.04.01.02.03-.04.05Zm.1,3.17s-.02-.01-.02-.06c0-.05.01-.06.03-.03.01.03.01.07,0,.08Zm.02-4.28s.02-.04.05-.04.03.02.02.04c-.01.02-.04.04-.05.04s-.02-.02-.02-.04Zm.04,4.12s.02-.05.04-.07c.02-.02.03,0,.02.04-.03.07-.06.09-.06.03Zm.03-3.69c-.09.05-.09.05-.02-.02.04-.04.08-.07.1-.06.01.01-.02.05-.07.08Zm.04-.65s-.07.04-.07,0c0-.05.08-.11.11-.08.01.01,0,.04-.05.07Zm.04-.35s0-.04.04-.04.06.02.04.04c-.01.02-.03.04-.04.04s-.03-.02-.04-.04Zm.06.69c-.06,0-.08,0-.05-.02.03-.01.08-.01.11,0,.03.01,0,.02-.05.02Zm.32-.41c-.06.02-.07.02-.02-.02.03-.03.06-.04.08-.03.01.01-.01.04-.05.05Zm.06-.37c-.08,0-.08,0-.03-.04.09-.06.19-.06.15,0-.01.02-.07.04-.12.04Zm-.05-.22c-.14.03-.3.06-.36.08s-.1,0-.1-.02c0-.05.16-.11.21-.08.02.01.12,0,.22-.02.1-.02.21-.03.24-.03.03,0-.07.04-.21.07Zm0-.44s-.05-.03-.09-.02c-.04.01-.05,0-.04-.02.02-.03.1-.03.22-.02.16.02.2.01.25-.05.03-.04.07-.07.09-.05s0,.06-.04.1c-.08.08-.05.09.07.02.1-.05.21,0,.12.05-.08.05-.56.04-.59,0Zm.53,10.56s-.02-.01-.02-.06c0-.05.01-.06.03-.03.01.03.01.07,0,.08Zm.02-10.3c-.06,0-.08,0-.05-.02.03-.01.08-.01.11,0,.03.01,0,.02-.05.02Zm-.02-.42s.01-.03.06-.02c.05.01.09.03.09.04,0,.03-.13.02-.15-.02Zm.13-.26c-.19.05-.33.05-.3,0,.01-.02.12-.04.23-.04.18,0,.19,0,.07.04Zm-.11-.18s-.01-.04.08-.04c.08,0,.14,0,.14.02,0,.04-.17.06-.22.02Zm.42,11.49s-.02,0-.02-.05,0-.08.02-.05c.01.03.01.08,0,.11Zm0-.22s-.02,0-.02-.05,0-.08.02-.05c.01.03.01.08,0,.11Zm.02-11.3s-.04-.06-.01-.06.06.02.07.05c.04.07,0,.08-.06.01Zm.11,11.39s-.02,0-.02-.05,0-.08.02-.05c.01.03.01.08,0,.11Zm.1-11.32c-.06,0-.08,0-.05-.02.03-.01.08-.01.11,0,.03.01,0,.02-.05.02Zm-.07-.25s-.06-.03-.11-.02-.09,0-.11-.02c-.03-.05.04-.06.23-.02.07.01.14.04.14.07,0,.05-.12.05-.15,0Zm.22,12.1s-.02,0-.02-.05,0-.08.02-.05c.01.03.01.08,0,.11Zm.3.24s-.02-.01-.02-.06c0-.05.01-.06.03-.03.01.03.01.07,0,.08Zm.15-12.64s-.04-.04-.01-.04c.03,0,.06.02.08.04.03.05.02.05-.07,0Zm-.46-.39s.08.03.14.07c.06.04.14.06.19.05.05-.01.11.01.16.07.06.07.08.07.11.03.02-.04.03-.01.03.06,0,.06,0,.11-.01.11,0,0-.06-.05-.12-.11-.06-.06-.13-.1-.16-.08-.02.02-.12-.02-.21-.08s-.15-.11-.13-.11Zm.04.29c.06-.02.05.02.09.03.02,0,.05,0,.06,0,0,0-.02,0-.02,0,0,.01.07,0,.06.02-.03.05-.09.05-.21,0-.08-.03-.07-.04.03-.06Zm-.69-.03s.2.08.41.13.39.1.39.11c0,.02-.2.02-.22,0-.01-.01-.08-.03-.15-.04-.13-.01-.23-.05-.39-.12-.1-.05-.21-.01-.16.06.01.02-.02.04-.06.04-.11,0-.11-.06-.02-.15.08-.07.17-.09.21-.03Zm-.26-.01s-.05.06-.08.05c-.03-.01-.07,0-.08.02-.04.06-.15.05-.15-.02,0-.03.06-.07.14-.09.19-.04.21-.03.18.04Z"/>
  </g>
</svg>