<?xml version="1.0" encoding="UTF-8"?>
<svg id="Layer_2" data-name="Layer 2" xmlns="http://www.w3.org/2000/svg" viewBox="0 0 33.67 33.94">
  <defs>
    <style>
      .cls-1 {
        stroke-width: 0px;
      }
    </style>
  </defs>
  <g id="Layer_1-2" data-name="Layer 1">
    <path class="cls-1" d="m23.5,33.54c.86,0,1.74.07,2.6-.08-.15-.1-.3-.19-.46-.28-.14-.12-.29-.21-.43-.31-.19-.1-.38-.17-.58-.22v-.06c-.59-.17-1.17-.34-1.77-.48-.31-.14-.68-.06-.97-.23-.39,0-.77.11-1.16.09-.69-.01-1.37.11-2.05.08-.16-.02-.39-.02-.41-.23.08-.21.29-.33.45-.48.27-.24.53-.49.75-.77.1-.08.18-.19.25-.31.03-.03.1-.08.13-.11.05-.1.1-.2.19-.28.08-.13.15-.25.22-.38.13-.15.2-.34.28-.52.09-.14.15-.29.21-.44.26-.66.47-1.35.48-2.06.02-.69.03-1.4-.11-2.08-.02-.07-.05-.21-.07-.29.1,0,.21,0,.32,0,.24.27.68.16.98.34.66.15,1.35.12,2.01,0v-.07c.25-.03.49-.11.73-.2v-.06c.3-.08.56-.27.82-.44.12-.09.25-.17.38-.25.03-.03.09-.09.12-.12.2-.13.39-.28.57-.44.1-.08.2-.16.3-.23.16-.2.35-.37.54-.53.15-.16.3-.31.46-.45.09-.09.18-.18.27-.26.08-.09.17-.18.26-.27.09-.09.19-.18.28-.26.23-.22.48-.42.77-.56.2-.08.4-.16.6-.24v-.07c.19-.06.39-.14.55-.27.16-.05.31-.11.46-.17.22,0,.45,0,.67-.01.18-.18.35-.38.47-.61.27-.25.6-.42.82-.72.16-.22.31-.47.24-.75-.35.02-.68.14-1.02.21.04-.07.11-.2.15-.26.04-.03.12-.08.16-.11.04-.16.14-.35.05-.51-.17-.03-.34-.03-.51-.03-.06-.06-.12-.13-.18-.19,0-.35-.2-.65-.43-.9-.09-.07-.26-.15-.17-.29.13-.08.28-.14.36-.29.09-.08.19-.17.28-.25.18-.19.41-.36.49-.62.06-.38.02-.78-.22-1.1-.31-.48-.57-.99-.84-1.5-.07-.22-.13-.43-.22-.64-.09-.16-.17-.32-.25-.48-.07-.08-.15-.15-.22-.22-.08-.1-.16-.2-.23-.3-.1-.08-.19-.17-.28-.25-.54-.49-1.16-.89-1.8-1.23-.12-.08-.26-.15-.37-.25-.08-.33-.03-.7-.2-1.01-.03-.36-.11-.7-.2-1.05h-.07c-.03-.19-.07-.39-.12-.59-.03-.04-.08-.12-.11-.16-.11-.38-.36-.69-.72-.85-.33.07-.64.2-.83.49-.17.37-.21.76-.28,1.16-.02,0-.05,0-.07,0-.04-.1-.08-.19-.12-.28-.06-.11-.12-.23-.18-.34-.11-.08-.2-.18-.28-.29-.34-.22-.79-.35-1.17-.15-.46.14-.72.58-.93.98-.12.23-.15.49-.26.72-.02.09-.04.18-.07.28-.06.34-.13.67-.13,1.02-.1.12-.2.24-.3.36-.24.31-.06.73-.25,1.06-.08.1-.14.22-.21.33-.19.26-.48.41-.72.61.08.12.16.25.24.37-.33.13-.62.32-.94.46-.87.31-1.81.43-2.74.32-.13,0-.26,0-.39,0-.12-.24-.04-.51-.04-.76.02-.96.03-1.92-.13-2.87-.11-.51-.12-1.04-.28-1.53-.1-.35-.17-.71-.32-1.05-.03-.13-.07-.25-.11-.37-.2-.38-.34-.8-.58-1.16-.15-.28-.31-.57-.53-.79-.06-.09-.11-.17-.17-.26-.27-.27-.52-.56-.82-.79-.14-.1-.28-.2-.41-.32-.13-.07-.26-.14-.38-.22-.06-.02-.17-.07-.23-.1-.1-.03-.21-.06-.31-.08-.02-.05-.06-.15-.08-.19.27,0,.55,0,.82,0,.05-.13.2-.29.07-.42-.25-.36-.68-.54-1.09-.62-.71-.11-1.44-.06-2.16-.01-.26.04-.55.03-.77.19-.28.05-.57.1-.81.26-.21.07-.43.12-.63.22-.09.07-.19.1-.31.11,0,.03,0,.08-.01.11-.06,0-.12,0-.18,0,.13-.06.21-.19.3-.3.2-.17.29-.41.25-.66-.48-.04-.97,0-1.39.25-.18.08-.35.16-.51.27-.13.07-.26.16-.37.26-.09.05-.18.1-.27.15-.21.24-.48.41-.7.65-.17.16-.33.32-.47.51-.13.14-.24.3-.35.46-.09.12-.17.24-.25.35-.05.07-.09.15-.13.23-.2.44-.37.9-.63,1.31-.04-.38-.04-.76-.04-1.14,0-.01,0-.04,0-.05-.09-.06-.16-.14-.22-.23-.23.02-.42.13-.62.23-.6.62-1,1.41-1.21,2.24-.04.54-.06,1.09,0,1.63.07.23.16.46.18.7-.06-.03-.12-.07-.18-.1-.2-.13-.43-.2-.67-.19-.04.05-.11.14-.14.19,0,.08,0,.25,0,.33h.08c.03.22.09.44.27.58,0,.02,0,.07,0,.1-.27.37-.38.83-.51,1.26C-.08,11.23,0,12.55.02,13.83c.08.94.32,1.87.72,2.72.08.13.14.27.21.41.11.14.2.29.29.44.14.17.28.36.48.47,0-.04.02-.13.03-.18.17-.32.2-.7.25-1.05h.07c.09-.53.31-1.04.49-1.55.08-.15.13-.31.19-.47.16-.26.27-.61.59-.71,0,.27,0,.54-.03.81-.13.34-.1.71-.23,1.05-.11.31-.18.64-.2.97h-.07c-.09.37-.12.75-.27,1.1-.09.31-.18.63-.2.96h-.07c-.07.3-.12.62-.25.92-.05.18-.1.37-.17.55-.01.1-.02.21-.03.32h-.08c-.05.34-.14.68-.22,1.02-.14.37-.09.78-.19,1.16-.06.24-.05.48-.07.72-.09.35-.06.71-.07,1.07.01.3-.03.61.07.9.02.52.15,1.02.22,1.52.04.1.07.19.1.29.09.26.15.53.27.77.06.15.12.3.21.44.07.13.14.26.2.39.16.24.34.47.49.72.04.03.11.07.15.1.02.04.06.12.09.16.11.07.2.16.29.26.08.07.17.14.25.21.24.2.51.37.78.54.19.09.38.17.58.24.34.21.75.33,1.14.41.12.14.24.28.36.41.16.14.32.28.46.45.13.08.25.15.38.23.14.11.29.19.45.27.2.1.4.19.6.28.47.15.94.37,1.45.39,1.4.1,2.8,0,4.2-.05.25.02.53,0,.73.18.14.18.41.14.6.25.93.02,1.87.08,2.79-.09.8-.05,1.62,0,2.41-.16,1.01-.13,2.03-.32,3.05-.14Zm4.74-16.31c.29.1.6.07.9.09.13.08.11.25.15.38-.59.28-1.2.62-1.88.58-.06-.07-.13-.14-.19-.21-.18-.33-.35-.68-.42-1.05.49-.04.99.02,1.45.21Z"/>
  </g>
</svg>