<?xml version="1.0" encoding="UTF-8"?>
<svg id="Layer_2" data-name="Layer 2" xmlns="http://www.w3.org/2000/svg" viewBox="0 0 27.47 33.94">
  <defs>
    <style>
      .cls-1 {
        stroke-width: 0px;
      }
    </style>
  </defs>
  <g id="Layer_1-2" data-name="Layer 1">
    <path class="cls-1" d="m27.3,19.87s0-.1.02-.15c.04-.27-.11-.53-.02-.81.36-1.07.05-2.13-.07-3.2-.01-.09-.02-.2-.12-.23-.11-.04-.15.08-.21.14-.18.2-.26.45-.3.7-.08.52-.35.97-.58,1.43-.08.16-.18.21-.34.15-.41-.17-.88-.12-1.29-.29-.22-.09-.29.23-.51.13-.32-.15-.67.03-1.03-.06-.19-.05-.31-.09-.4-.23-.09-.15-.2-.32-.22-.49-.08-.56-.38-1.04-.58-1.55-.07-.19-.32-.12-.41-.28-.03.08-.06.16-.1.25-.06-.12,0-.26-.11-.33-.16-.05-.03.34-.28.17-.08-.05-.22-.13-.32,0-.09.12.26.15.07.3.65.38.41.91.26,1.44-.1.35-.17.72.05,1.06.16.26.22.54.29.83.07.31-.08.3-.24.21-.32-.19-.67-.32-.99-.51-.61-.37-1.25-.69-1.98-.64-.67.05-1.34.19-2,.29-.3.05-.67,0-.9.15-.61.41-1.26.73-1.93.94-.49.15-.83.47-1.2.74-.52.38-1.12.65-1.53,1.18-.15.19-.44.28-.32.66.06.18-.2.29-.39.35-.2.06-.27-.08-.29-.22-.06-.41-.2-.79-.27-1.19-.11-.6-.23-1.2-.29-1.82-.11-1.07-.22-2.13-.03-3.2.09-.51.12-1.06.41-1.48.59-.84,1.44-1.37,2.41-1.69.49-.16.96-.37,1.49-.37-.03-.19-.21-.17-.25-.3.27-.03.68.06.76-.13.12-.29.32-.23.5-.31.11-.05.25-.08.31-.25-.31.09-.58.08-.82-.17.56-.18,1.08-.36,1.23-1,.02-.1.14-.14.24-.18.11-.04.2-.1.24-.24-.12-.04-.23-.08-.35-.12.13-.07.29.01.36-.12-.05-.24-.35-.21-.42-.45-.04-.13-.18-.38-.42-.14-.04.04-.16.08-.2-.03-.03-.08.05-.14.13-.17.29-.12-.02-.55.32-.65-.01-.02-.03-.05-.05-.06-.16-.05-.3.02-.45.06-.13.04-.13.11-.06.23.08.12-.03.18-.13.15-.37-.11-.66.11-.99.24-.02-.35.18-.73.39-.79.61-.18,1-.61,1.45-.98.14-.11.19-.31.12-.41-.13-.16-.22.07-.34.12-.03.01-.07.05-.1-.03.14-.24.4-.38.61-.54-.07-.18-.25.08-.3-.11-.07-.24-.35-.43-.58-.43.11-.03,0-.3.23-.2.14.06.25.09.32.04-.24-.5-.69-.72-1.12-.98.05-.15.25-.23.23-.42-.15-.1-.34.2-.44-.03-.08-.16.19-.31.06-.55-.11.25-.29.13-.42.07-.31-.14-.41-.11-.24.23.03.06.03.13-.04.17-.06.04-.13.04-.17-.01-.14-.21-.38-.44-.14-.7.25-.27.25-.59.35-.97-.2.22-.4.04-.61.24.09-.3.15-.5.21-.7-.28.37-.28,0-.36-.13-.16.09-.24.21-.3.36-.07.18-.19.2-.35.19-.02-.21.2-.34.11-.53-.2-.1-.55.45-.61-.16,0,0-.05-.03-.07-.02-.26.14-.23-.07-.29-.21-.08-.17-.19-.33-.34-.57-.02.31-.02.56-.3.68-.01-.18-.03-.33-.04-.56-.05.12-.07.18-.11.26-.14-.27-.14-.59-.36-.83-.1.29,0,.56-.14.8-.04.07-.08.14-.17.14-.1,0-.13-.07-.13-.15,0-.28-.28-.46-.26-.75.01-.18-.18-.16-.3-.17-.15-.01-.14.12-.14.22,0,.27.07.54.03.8-.04.22.19.45-.05.68-.14-.37-.44-.6-.61-.93-.22.27.05.53-.03.79-.42-.19-.53-.57-.62-1.01-.07.2-.12.34-.25.1-.15-.27-.29-.55-.69-.59.16.45.73.68.56,1.26-.12-.09-.19-.42-.41-.1-.07.1-.25.07-.35-.09-.11-.16-.22-.34-.43-.43q0,.41-.92.25c.04.23.41.2.37.54-.32-.21-.63-.42-1.02-.28-.03,0-.08-.02-.1-.05-.2-.28-.39-.02-.59,0,.07.39-.23.27-.42.32-.05.01-.05.09-.02.14.16.28-.09.44-.16.66-.13.42-.39.16-.6.16-.04,0-.07,0-.14.02.32.17.48.51.85.59-.32.04-.62-.12-.89-.04.04.55-.42.09-.53.28.03.19.26.19.34.34-.03.15-.22.14-.26.28.1.15.32.14.43.32-.26.14-.42-.18-.65-.13.17.3.52.31.82.54-.46.17-.89-.11-1.27.1.06.13.2.06.28.14-.17.11-.44.07-.52.31-.1.28.29.28.31.51-.21.04-.5-.06-.52.25,0,.06-.09.5.35.32-.3.19-.28.62-.62.66.18.45.43.22.68.09.07-.03.15-.1.25,0-.29.2-.56.39-.88.61.22.01.39.03.55-.04.09-.04.19-.02.23.08.06.15-.09.12-.16.15-.08.04-.16.07-.24.11.25.27-.19.33-.18.53.26.08.37-.22.63-.23-.12.3-.43.52-.27.84.01.14-.21.15-.15.35.32-.13.65-.13.95-.3-.21.29-.53.49-.64.86.37.08.5-.2.7-.36.07-.06.13-.16.23-.08.09.07-.02.13-.05.19-.04.08-.1.17,0,.24.07.05.15,0,.21-.05.05-.04.09-.1.19-.03-.3.44.45.46.37.79-.21.1-.36.05-.49-.04,0,.02.01.03.01.05.08.32.06.61-.02.9.37.16.42.6.73.82-.36-.05-.6-.27-.84-.5-.08.19-.17.38-.27.56.1.06.21.11.34.16-.23.05-.38.08-.48.13-.01.03-.03.05-.04.08-.01.03-.03.05-.04.08,0,0,0,.01-.01.03-.02.08-.05.17-.06.25,0,.02,0,.04-.01.06,0,0,0,.01,0,.02,0,0,0,0,0,0-.03.16-.05.31-.06.49-.02.29-.02.58-.02.88.2.11.33.31.51.46-.08.07-.13.04-.17,0-.11-.1-.22-.14-.33-.15,0,.02,0,.04,0,.06,0,.29.01.57.03.85.18.06.37.13.52.32-.19-.04-.21.13-.26.15-.07.03-.14,0-.22-.02,0,.08.02.16.02.24.17.1.32.21.45.35.08.09.21.22.16.29-.24.35.1.26.23.32.09.04.21,0,.28.11-.17.1-.34-.12-.56.06.39.11.44.42.48.72-.1.09-.28-.03-.38.12.14.12.44.08.38.37-.07.4.12.56.49.61.22.03.43.07.65.11.26.05.5.16.75.25-.01.03-.02.07-.03.1-.46-.24-.96-.21-1.45-.27-.16-.02-.39-.02-.31.22.02.07.15.24.32.32.42.19.86.22,1.31.28-.1.16-.12.37-.24.51,0,0,0,0,0,0,.05.05.1.11.13.17.44.09.84.32,1.31.48-.29.11-.47-.07-.69.06.52.13.75.71,1.32.74-.03.12-.19.02-.2.15.04.08.12.08.19.11.53.26,1.06.5,1.51.91.42.38.78.83,1.23,1.19.31.25.27.37-.09.54-.07.03-.13.07-.19.11.05.13.18.04.25.16-.25.09-.2.23,0,.36-.34.13-.61.31-.88.49-.08.06-.2.1-.16.24.1.31-.14.47-.29.66-.22.26-.37.52-.12.84.07.08.06.13.02.23-.15.42-.02.85.07,1.24.13.56.46,1.08.46,1.68,0,.36.16.58.55.62.45.04.9.07,1.34.17.63.15,1.26-.03,1.89,0,.05,0,.13-.02.14-.05.1-.24.35-.27.53-.4,0-.03,0-.05.02-.08,0,0,0-.02,0-.02-.17-.31-.42-.46-.8-.44-.42.02-.78-.17-1.1-.44-.08-.07-.18-.09-.28-.11-.13-.02-.31.13-.39-.04-.11-.24-.33-.44-.31-.74.01-.18.02-.36.27-.39.12-.01.21-.1.28-.19.08-.12.23-.2.33-.17.27.06.5-.06.73-.07.54-.03.95-.22,1.31-.59.27-.28.68-.34.91-.69.09-.13.21-.01.21.13,0,.15-.03.31-.04.46-.09.84.28,1.48.85,2.05.44.45.89.9,1.33,1.35.08.08.2.16.12.29-.03.04-.07.06-.11.06.03.06.05.13.06.2.03.03.06.07.09.1.02.03.05.06.07.09.05.01.09.03.14.04.12.04.22.1.31.17.3.04.6.05.9.02.52-.06,1.03.01,1.54-.07.03,0,.05,0,.07,0,.1-.07.23-.11.35-.12.04,0,.08,0,.12,0,0,0,.01,0,.02,0,.02,0,.04-.01.05-.02.1-.11.25-.19.45-.19.15,0,.27.04.36.11.11.03.2.09.29.16.22.17.37.4.5.64.13.07.25.16.35.29.11.14.31.23.52.23.81.03,1.62.06,2.43.09.16,0,.33-.12.48,0,0,0,.01,0,.02.01.02-.02.04-.03.04-.04.01-.01.08-.09.1-.11,0,0,0-.01.02-.03,0-.18,0-.4.2-.4.05,0,.09.01.12.03.03-.02.07-.04.11-.06-.07-.38-.31-.52-.84-.59-.07,0-.21.09-.22-.07,0,0,0,0,0,0-.43-.29-.92-.38-1.41-.55-.02,0-.04-.02-.06-.03-.03,0-.06-.02-.08-.04-.08-.03-.15-.1-.2-.21-.27-.68-.51-1.36-.59-2.1-.03-.32-.2-.61-.21-.94,0-.11-.02-.26.11-.31.14-.05.19.09.25.19.24.41.43.84.49,1.1,0,.8.02,1.37.42,1.87,0,0,0,0,.01.01.04.01.07.04.09.07.62.14,1.18.5,1.8.64.06-.02.11-.04.17-.05.37-.08.64-.41,1-.42.22,0,.25-.05.17-.22-.15-.32.03-.35.28-.33.09,0,.18.13.28.02-.14-.38-.4-.5-.86-.38-.35.09-.71.16-1.04-.06-.1-.07-.22-.04-.34-.02-.59.12-.67.03-.58-.56.02-.13.06-.25.09-.38.15-.69.33-1.37.33-2.08,0-.23-.05-.46.01-.67.27-.33.47-.72.55-1.14.15-.01.3-.06.41-.14.43-.33.92-.62,1.05-1.21.04-.16.2-.2.28-.32.04-.06.08-.06.13-.03.05-.04.09-.08.15-.11.03-.02.07-.04.1-.05.01-.03.03-.05.06-.06.03-.05.05-.11.08-.16,0,.02.06-.15.06-.15.02-.06.04-.13.06-.19.04-.13.07-.25.09-.38.01-.07.04-.14.07-.2,0,0,0,0,0,0,.01-.09.03-.17.04-.26,0-.04,0-.06.01-.07,0,0,0-.03,0-.06.02-.17.04-.34.05-.51,0-.12.03-.23.08-.33-.03-.3-.07-.6-.11-.9-.06-.38-.1-.72,0-1.08Zm-9.91,11.24c-.07.04-.16.04-.22,0-.51-.36-1.06-.67-1.49-1.13-.16-.17-.14-.22.08-.41.24-.21.59-.38.76-.37.45.01.8-.18,1.2-.31.16-.05.15.09.17.19.03.2.02.42.29.48.09.02.04.13.06.2.08.22.05.49.35.61.21.08.31.29.33.59-.55-.2-1.05-.14-1.52.18Z"/>
  </g>
</svg>