<?xml version="1.0" encoding="UTF-8"?>
<svg id="Layer_2" data-name="Layer 2" xmlns="http://www.w3.org/2000/svg" viewBox="0 0 33.94 25.29">
  <defs>
    <style>
      .cls-1 {
        stroke-width: 0px;
      }
    </style>
  </defs>
  <g id="Layer_1-2" data-name="Layer 1">
    <path class="cls-1" d="m7.55,6.91c-.18-.79-.3-1.59-.3-2.41.62-.19,1.55-.55,2.06-.06-.72.71-1.26,1.58-1.76,2.46Zm-.41,7.34c-1.09.24-2.21.59-3.33.38-.94-.12-1.76-.65-2.52-1.19-.28-.23-.66-.08-.98-.1.04.23.07.48.29.62,1.43,1.06,3.26,1.94,5.06,1.4.54-.3.97-.77,1.48-1.11ZM28.34,1.58c-1.75-1.22-4.01-1.98-6.13-1.36-2.04.58-3.54,2.32-4.32,4.24-.9,2.18-.7,4.61-.37,6.9.25,1.85.69,3.74.35,5.61-.71,3.5-4.23,6.3-7.83,5.94-1.63-.13-3.39-.87-4.14-2.41-.72-1.48.37-3.38,1.95-3.66.91-.23,1.81.18,2.56.65-.7-.18-1.43-.42-2.16-.25-1.01.2-1.81,1.24-1.63,2.28.1.74.69,1.32,1.34,1.63,1.3.61,2.84.59,4.19.14,1.72-.56,3.17-1.8,4.1-3.34.18-.22.17-.51.07-.76-.61-2.09-2.3-3.67-4.15-4.71-1.58-.86-3.03-2.02-3.98-3.57-1.18-1.87-1.45-4.21-.95-6.34-1.15.28-1.79,1.31-2.3,2.28-.76.02-1.54.15-2.16.61-1.24.84-1.79,2.3-2.46,3.58-.25.46.32.79.69.89,1.27.35,2.61.32,3.92.29-.71.47-.59,1.51-1.27,1.98-1.27.31-2.39-.82-3.66-.57.34.91,1.23,1.42,1.97,1.97,1.17.84,2.71,1,4.09.64,1.48-.36,3.09-1.01,4.56-.27-1.75-.22-3.62.36-4.78,1.73-1.51,1.64-1.71,4.3-.51,6.17.62,1.03,1.63,1.79,2.75,2.22-1.23,0-2.64.15-3.45,1.2,2.19.03,4.38.02,6.56,0,.66,0,1.21-.45,1.59-.95,3.2-.74,6.1-2.61,8.21-5.12,2.3-2.72,3.6-6.25,3.69-9.81,0-.8.18-1.67.79-2.24.7-.64,1.69-.78,2.6-.77,2.03.08,3.98.75,5.86,1.49-1.47-2.41-3.28-4.67-5.61-6.3Z"/>
  </g>
</svg>