<?xml version="1.0" encoding="UTF-8"?>
<svg id="Layer_2" data-name="Layer 2" xmlns="http://www.w3.org/2000/svg" viewBox="0 0 28.88 33.94">
  <defs>
    <style>
      .cls-1 {
        stroke-width: 0px;
      }
    </style>
  </defs>
  <g id="Layer_1-2" data-name="Layer 1">
    <path class="cls-1" d="m28.77,23.1s-.02.03-.04.01c-.02-.01-.15.03-.29.11-.32.17-.4.17-.12,0,.18-.12.2-.14.12-.15-.05,0-.14,0-.18.03-.11.06-.12.01-.01-.07.07-.05.07-.06-.03-.06-.1,0-.09-.02.11-.19.22-.2.24-.3.04-.2-.14.07-.15.07-.13-.04.02-.1-.03-.11-.12-.03-.03.03-.09.06-.12.07-.04,0-.1.05-.14.08-.04.04-.09.06-.1.05s.09-.1.22-.19.24-.18.24-.2.02-.04.05-.04.07-.03.11-.06.08-.07.11-.08c.03-.01.04-.04.02-.07-.03-.05-.04-.04-.08.01-.02.04-.06.06-.09.04-.03-.02-.04,0-.02.02.02.02,0,.06-.04.07-.03.01-.08,0-.09-.02-.02-.03,0-.04.02-.02.03.02.05.01.05-.01,0-.06-.06-.06-.12,0-.08.08-.12-.08-.05-.17.04-.05.04-.06,0-.04-.1.06-.06-.05.05-.13.13-.1.14-.17.01-.1-.06.03-.04,0,.05-.08.08-.07.17-.13.18-.13.02,0,.03-.03.03-.08,0-.05-.01-.06-.05-.03-.03.03-.08.04-.11.03-.03-.01-.06,0-.06.03,0,.07-.13.17-.23.17-.04,0-.08.03-.08.08,0,.07,0,.07-.04,0-.05-.09-.01-.21.07-.21.04,0,.05-.02.03-.05-.02-.03,0-.04.05-.02.05.01.12-.01.19-.07l.11-.09-.12.07c-.16.09-.19.07-.07-.07.05-.06.09-.09.09-.06,0,.05.17-.11.17-.16,0-.02-.03,0-.07.04-.05.07-.07.07-.09.02-.01-.03-.04-.04-.05-.02s-.12.09-.23.15c-.12.06-.2.13-.19.16.01.03,0,.04-.05.03-.05-.02-.06-.01-.03.03.03.05.03.05-.04,0-.06-.05-.04-.09.27-.31.41-.3.44-.35.25-.32-.08.01-.17.02-.19.03-.03,0-.04.02-.03.03.02.03-.1.16-.17.18-.02,0-.04.04-.04.07s-.01.04-.04.03c-.02-.01-.08,0-.13.05-.05.04-.08.06-.08.04s-.04.01-.09.07l-.09.1.07-.12c.04-.07.08-.11.09-.1.02.02.27-.2.27-.25,0-.02-.07,0-.15.05l-.15.09.09-.15c.05-.08.07-.15.05-.15s.04-.08.13-.17c.1-.1.15-.19.13-.22-.02-.03,0-.08.05-.11.08-.06.06-.23-.02-.18-.08.05-.04-.05.09-.22.07-.09.13-.18.13-.21s.02-.08.05-.12c.03-.04,0-.01-.07.06-.07.07-.15.13-.17.12s-.02.02.02.06c.05.06.05.06,0,.05-.04-.01-.11.05-.19.15-.07.1-.17.2-.22.22-.08.04-.08.04-.02-.04.03-.05.1-.13.15-.18.05-.05.07-.12.05-.15-.02-.03-.01-.04,0-.03.02.01.07-.03.11-.1.04-.07.06-.13.04-.13-.05,0-.26.26-.27.32,0,.06-.34.34-.38.31-.01-.01-.05,0-.08.05-.05.06-.05.05,0-.07.05-.14.37-.56.56-.75.09-.09.06-.16-.03-.08-.03.03-.07.04-.09.02s-.02,0,0,.05c.02.06.02.08-.04.06-.04-.01-.09,0-.12.04-.04.05-.04.06,0,.06s.03.02,0,.06c-.05.05-.07.04-.12-.05-.01-.02.02-.04.02-.06-.01,0-.02-.01-.03-.02h0s.03-.04.05-.06c.01-.06-.02-.13.04-.18.03-.02.05-.05.05-.08s-.02-.03-.05-.02c-.03.01-.02,0,.01-.03s.11-.13.17-.21l.1-.15-.13.12c-.16.15-.24.16-.1.01.06-.06.08-.11.05-.11s-.06.03-.08.07c-.02.05-.04.05-.09.02-.05-.04-.05-.06-.01-.11.03-.03.03-.06.01-.06s.01-.05.07-.11c.06-.06.08-.11.06-.11s-.07.04-.1.08c-.03.05-.08.07-.1.06-.02-.01-.03,0-.01.03.03.05-.02.12-.08.13h0s-.03.02-.04.02c-.03-.01-.07,0-.08.05s-.04.06-.06.05-.03.03-.02.08c.01.06,0,.11-.03.11-.03,0-.04-.02-.02-.05.02-.03,0-.04-.04-.02-.07.03-.07.02,0-.07.04-.05.05-.12.03-.14-.02-.02-.01-.02.01,0,.03.01.07-.01.11-.06.03-.05.08-.11.11-.14.02-.03.07-.09.11-.14q.06-.09-.04,0l-.1.09.07-.1c.04-.05.13-.16.2-.24.16-.17.14-.24-.02-.09-.06.06-.12.09-.13.08s-.06.03-.1.1c-.04.07-.08.09-.08.06,0-.03-.02-.04-.05-.03-.03.02-.04.01-.02-.02.02-.03.05-.04.07-.03.02.01.06-.02.09-.06.05-.09,0-.12-.07-.04-.03.03-.04,0-.04-.1,0-.17.05-.26.11-.22.02.01.04,0,.04-.05,0-.06-.01-.06-.05-.02-.07.08-.14.06-.08-.01.03-.04.04-.07,0-.07-.02,0-.05.02-.06.05-.01.03-.04.04-.06.02-.02-.02,0-.06.04-.09.09-.07.1-.1.01-.1-.04,0-.06,0-.04.02s0,.05-.03.08c-.03.04-.03.07,0,.11.04.04.02.06-.05.06-.05,0-.11-.02-.12-.04-.04-.05,0-.16.05-.14.02.01.03-.01.02-.05,0-.04,0-.11.02-.14.02-.04,0-.1-.03-.15-.03-.05-.06-.06-.06-.03s.02.06.04.08c.03.02.03.05,0,.11-.02.05-.03.08-.02.08s-.01.04-.06.09c-.05.05-.09.12-.09.15s-.02.06-.05.06-.03.02-.01.05c.02.03.01.04-.02.02-.03-.02-.05,0-.05.03s-.04.1-.1.14l-.1.08.1-.16c.11-.19.12-.22.04-.18-.03.02-.04.01-.01-.03.02-.03.04-.07.04-.09,0-.02.02-.05.04-.07.02-.02.03-.02.01,0-.01.02,0,.07,0,.1.02.04.04,0,.06-.1.02-.08.05-.17.09-.2.07-.06.02-.33-.06-.32-.04,0-.05-.03-.03-.14.02-.08.02-.15.01-.15-.02,0-.17.41-.22.58-.01.05-.01,0,0-.11.03-.23.03-.25.1-.4.03-.07.05-.15.05-.17,0-.04,0-.04-.03,0-.01.03-.07.05-.13.05-.07,0-.12.03-.15.11-.02.06-.05.1-.07.09-.04-.04.15-.38.2-.38.03,0,.04.03.02.06-.04.1.04.08.09-.03.09-.19.1-.25.03-.22-.04.01-.06.05-.04.08s0,.06-.01.06c-.04,0-.1-.22-.07-.25.01-.01.02,0,.02.03s.02.04.04.03c.06-.03.08-.21.04-.31-.03-.06-.03-.05-.04.07,0,.14,0,.14-.06.07-.07-.1-.16-.06-.13.06.01.05,0,.09-.02.09s-.06.04-.07.09-.05.07-.07.06c-.03-.02-.04,0-.02.07.02.07.01.09-.02.05-.05-.05.02-.33.1-.42.02-.02.04-.08.04-.12s.02-.07.04-.05c.03.02.02-.02,0-.08-.04-.08-.03-.14.02-.25.06-.12.06-.13,0-.08-.06.05-.13.17-.21.39-.03.07,0-.17.04-.41.02-.12.02-.12-.03-.03-.03.05-.06.1-.08.1s-.06.09-.09.2c-.03.11-.07.21-.09.22-.02.01-.03.04-.01.06.01.02,0,.04-.03.04-.03,0-.04-.03-.02-.1.02-.05.03-.13.03-.17,0-.04.02-.08.04-.08s.03-.04.01-.09c-.02-.08-.03-.08-.08-.02-.04.06-.06.06-.09.02-.02-.04-.02-.05.01-.03.03.02.05.02.05,0,0-.1.03-.23.06-.39.02-.1.01-.19,0-.21-.02-.01-.05.03-.06.09-.04.2-.22.79-.23.77,0,0,.02-.15.05-.31.04-.16.07-.35.07-.42,0-.07.02-.11.04-.09.05.03.05.03,0-.14-.02-.08-.03-.15-.01-.17.03-.03.04-.24.02-.24-.04,0-.2.54-.25.86-.03.15-.06.23-.06.14,0-.03-.02-.04-.05-.03-.03.01-.02,0,.01-.03.05-.04.06-.15.06-.37,0-.17.02-.3.04-.29.02.01.01-.02-.01-.07-.03-.05-.05-.09-.06-.09-.02,0-.03.12-.04.33,0,.1-.02.17-.04.16-.02-.01-.03-.05-.01-.07.01-.03,0-.02-.04.02-.03.04-.07.06-.09.05-.04-.04-.03-.11.01-.08.03.02.03-.03.02-.12-.02-.11-.01-.13.02-.08.03.04.05.05.05.01,0-.03-.02-.06-.04-.08-.03-.02-.02-.07.03-.14.04-.06.05-.1.02-.08-.04.02-.04,0-.02-.1.02-.08.01-.14-.01-.14-.02,0-.03-.04-.02-.09s.04-.08.05-.07c.02.01.02-.03,0-.1-.02-.1-.03-.1-.04-.03,0,.05-.04.12-.08.16-.03.04-.05.08-.03.1.02.02,0,.03-.02.03-.06,0-.06-.09,0-.23.03-.07.03-.13,0-.18-.03-.06-.05-.02-.07.17-.03.25,0,.35.06.3.02-.01.04,0,.04.04s-.03.07-.07.09c-.05.02-.06,0-.05-.04.01-.03,0-.08-.03-.11-.05-.04-.04-.1,0-.36.03-.17.05-.33.04-.36,0-.02-.03.04-.05.14-.02.1-.05.18-.07.18s-.03.02-.02.04c.03.04-.01.18-.06.18-.02,0-.02-.09-.02-.21,0-.18,0-.19-.03-.08-.02.07-.05.21-.07.3-.02.1-.04.15-.05.13s0-.13.02-.23c.03-.14.03-.18-.02-.18-.03,0-.06-.01-.05-.03s0-.07-.03-.11c-.02-.04-.03-.13-.01-.2.01-.09,0-.12-.04-.1-.03.01-.05.04-.03.06s0,.04-.03.04c-.04,0-.03.02,0,.07.05.06.05.07,0,.04-.05-.03-.05-.02-.03.04.02.04.01.07,0,.07s-.06.07-.08.16l-.05.16.02-.19c.01-.11.04-.27.06-.36.02-.09.03-.2.02-.24,0-.04-.02-.09-.02-.12,0-.02-.03.02-.07.11-.03.08-.06.12-.06.08,0-.11-.1-.29-.15-.29-.03,0-.03.02,0,.05.06.06.03.17-.05.17-.03,0-.04-.08-.03-.23,0-.13,0-.21-.01-.2-.03.03-.06.18-.06.34,0,.06,0,.06-.05,0-.02-.04-.04-.04-.04-.02,0,.02.02.06.04.09.03.03.03.09,0,.18-.03.09-.02.14,0,.14.02,0,.03.02.02.04-.03.05-.2.04-.2,0,0-.02.01-.03.03-.03s.04-.11.04-.24c0-.18,0-.24-.05-.24-.04,0-.06.06-.06.18,0,.1-.02.21-.05.25-.04.05-.04.03-.02-.09.01-.09,0-.18-.03-.2-.03-.03-.03-.06,0-.1.02-.03.05-.17.07-.32.02-.25.02-.25-.02-.07-.07.3-.13.41-.11.18.01-.1,0-.18-.02-.18s-.03-.01-.02-.03,0-.07-.01-.12c-.02-.07-.04-.04-.06.1-.02.1-.05.18-.07.18-.06,0-.04-.23.02-.29.03-.03.06-.12.05-.2v-.14s-.06.17-.06.17c-.05.15-.06.16-.06.05,0-.07-.03-.12-.05-.12-.03,0-.02-.03.02-.08.04-.04.07-.12.07-.16,0-.07,0-.07-.02,0-.03.13-.09.08-.12-.11-.03-.15-.04-.17-.05-.08-.02.1-.02.1-.06.02-.02-.05-.03.03-.01.22.04.48.04.71,0,.77-.02.03-.03,0-.03-.08,0-.07,0-.16-.02-.21-.02-.04-.02-.12-.01-.16.01-.05,0-.09-.01-.09s-.03-.05-.02-.12c.04-.33.06-.72.02-.62-.02.06-.04.19-.04.3,0,.23-.06.21-.06-.02,0-.11-.03-.19-.1-.26-.06-.06-.1-.09-.1-.06s-.03.03-.07.02-.07,0-.07.03.02.04.04.02c.02-.01.04,0,.04.02s.02.04.04.02c.06-.04.11.07.05.12-.04.04-.04.03-.02-.04.03-.07.02-.08-.04-.03-.06.05-.07.05-.09,0-.02-.04-.02-.04-.03,0,0,.03.02.06.04.08.02.01.04.06.04.1,0,.06,0,.06-.04-.01l-.04-.09v.09c0,.05-.03.02-.07-.08-.03-.09-.05-.18-.04-.19.01-.01.02,0,.02.04,0,.09.08-.09.08-.2,0-.08,0-.07-.06.02-.06.11-.07.1-.08-.13,0-.06-.03-.11-.06-.12-.04-.01-.05.08-.04.41.01.28,0,.36-.02.23-.04-.22-.05-.2-.05.07v.17s-.03-.18-.03-.18c-.02-.1-.05-.2-.06-.21-.03-.03,0,.21.04.48.02.1.01.11-.02.06-.02-.04-.05-.14-.06-.22-.01-.08-.03-.18-.05-.22-.02-.04,0-.11.03-.14.05-.05.04-.06,0-.05-.04,0-.07-.07-.11-.29-.04-.26-.05-.29-.08-.18-.02.07-.02.19,0,.28.02.11.01.14-.02.1-.02-.04-.04-.12-.04-.18,0-.16-.09-.39-.18-.49-.07-.08-.1-.16-.08-.26,0-.02-.01-.02-.03-.01-.02.01-.08-.07-.13-.18l-.09-.2v.27c0,.15-.01.28-.03.3-.02.02-.03-.03-.02-.09.01-.09,0-.13-.06-.14-.06,0-.07,0-.03.08.03.05.04.1.02.11s-.03,0-.03-.03-.02-.04-.04-.03c-.02.01-.04-.02-.04-.07,0-.06-.02-.13-.04-.17-.03-.05-.04,0-.04.17,0,.15-.02.22-.05.2-.03-.02-.04-.11-.03-.23.01-.12,0-.22-.03-.25-.04-.04-.05,0-.04.19q.02.24-.05.11l-.07-.13v.16c.02.09.01.15,0,.14-.05-.03-.07-.28-.03-.31.02-.01.03-.07.03-.12,0-.09,0-.09-.04.01-.03.09-.04.09-.03-.05,0-.09,0-.15-.02-.14-.02.01-.03.08-.03.14s-.01.13-.03.15c-.04.04-.05.3,0,.38.02.05.01.08-.03.09-.06.02-.11-.09-.11-.26,0-.05-.02-.1-.04-.1s-.04-.02-.04-.05.01-.04.03-.03c.02.01.02-.14.01-.33l-.02-.35-.03.23c-.03.23-.08.35-.08.19,0-.05-.01-.15-.02-.23-.02-.11-.01-.13.02-.06.04.08.04.08.04,0,0-.04-.03-.13-.07-.18-.04-.06-.05-.11-.03-.11s.04-.04.04-.08-.02-.07-.03-.06c-.02.01-.03.05-.03.09,0,.06,0,.06-.05,0-.03-.05-.04-.04-.02.04.04.14.04.12,0,.4-.02.14-.05.26-.07.27-.02.01-.03-.03-.02-.1.05-.31.06-.54.03-.52-.02.01-.03-.05-.03-.15,0-.12.01-.15.05-.13.03.03.05,0,.04-.11v-.15s-.11.09-.11.09c-.06.05-.09.07-.08.04s.01-.06-.01-.07c-.03,0-.03-.08,0-.2.02-.1.04-.21.03-.24s-.03.03-.05.14c-.02.1-.05.18-.07.18s-.03-.01-.02-.03c.01-.02.03-.19.04-.38s.01-.29,0-.23-.04.12-.06.12-.05.05-.06.11c-.03.11-.08.11-.09,0,0-.04.01-.05.04-.04.03.02.04-.02.02-.11-.01-.08,0-.19.01-.25.03-.07.03-.1,0-.08-.02.01-.04.05-.04.09s-.02.07-.04.08c-.02.01-.03-.02-.03-.07,0-.05.01-.1.02-.1s.01-.09.02-.19c.01-.16,0-.18-.03-.09-.02.06-.03.14-.02.18.01.04,0,.08-.04.08-.04,0-.05.04-.04.11.01.06,0,.16-.04.23l-.06.12v-.15c0-.08.03-.21.06-.28.07-.13.07-.39.01-.35-.02.01-.03.04-.03.07.02.14-.01.25-.07.25-.04,0-.07.02-.07.05s.02.03.05.01c.04-.03.04-.02,0,.03-.03.04-.04.08-.02.11.02.02,0,.02-.03-.01-.04-.03-.06-.16-.06-.38,0-.18-.02-.34-.04-.35s-.04.1-.04.25c0,.38-.04.29-.05-.11,0-.2-.02-.31-.04-.28-.02.04-.03.01-.03-.06,0-.07.03-.11.05-.1.03.01.05-.11.05-.33,0-.41-.03-.43-.05-.03-.01.23-.03.28-.1.29-.04,0-.06,0-.03-.01.03-.01.05-.11.05-.23,0-.13-.01-.18-.04-.14-.06.09-.1-.18-.07-.4.02-.1.01-.17,0-.15s-.05.12-.07.22c-.02.11-.02.02-.01-.23,0-.24,0-.39-.02-.35-.02.03-.03.1-.02.14.01.04,0,.08-.03.08s-.05.02-.05.05.02.04.04.02c.05-.03,0,.33-.04.39-.04.04-.05-.09-.05-.54,0-.27,0-.27-.03-.09-.02.13-.03.16-.04.08,0-.08-.03-.12-.08-.12-.06,0-.06-.01-.01-.07.05-.06.05-.07,0-.04-.05.03-.06.02-.04-.06.01-.05,0-.1-.02-.12-.02-.01-.03-.04-.01-.07.01-.02.01-.1,0-.18-.02-.11-.04-.12-.07-.07-.02.04-.03.12-.02.19s0,.14,0,.16c-.02.03-.02.12-.02.22.02.25-.04.16-.07-.09-.01-.11-.04-.32-.06-.45-.02-.13-.04-.27-.04-.31s-.02-.08-.04-.08c-.06,0-.19.47-.17.64,0,.08,0,.14-.01.14-.07,0-.06-.33.03-.62.05-.17.2-.69.32-1.16.12-.46.24-.89.26-.95.08-.19.22-.92.19-1.02-.02-.08-.02-.08.02-.03.04.05.05.04.03-.04-.01-.06,0-.22.01-.36.02-.16.02-.26,0-.28-.03-.02-.03,0,0,.03.02.04.02.05-.01.03-.03-.02-.04-.06-.02-.09s.04-.05.06-.04.03,0,.01-.05c-.03-.07-.03-.07-.07,0-.02.04-.06.07-.08.07-.04,0,.07-.21.14-.26.03-.03.01-.17-.03-.21-.02-.02-.02,0,0,.05s0,.08-.02.08-.04.01-.02.03c.01.02,0,.07-.04.12-.06.08-.06.08-.05-.07,0-.08.02-.16.04-.17.01-.01.04-.07.05-.13.02-.08.01-.11-.04-.11-.04,0-.06.03-.04.1.01.06,0,.09-.03.07-.03-.02-.04-.13-.02-.27.01-.15,0-.22-.02-.18-.02.03-.04.11-.04.17,0,.06-.02.14-.04.17-.03.05-.04.04-.04-.05,0-.06-.01-.12-.03-.14-.04-.04-.14.11-.14.21,0,.05-.01.07-.03.06-.01-.01-.03-.1-.03-.18,0-.1-.02-.15-.05-.14-.03,0-.05.06-.05.11s-.02.08-.04.06c-.03-.02-.03.02-.01.1q.03.12-.04.03c-.05-.07-.06-.12-.02-.18.06-.11.06-.15,0-.11-.02.02-.05-.03-.05-.1,0-.09-.01-.1-.02-.04-.01.05-.05.15-.08.22-.03.08-.06.23-.06.35,0,.12-.01.23-.03.26-.02.03-.03-.22-.03-.54,0-.34.02-.6.04-.62.02-.02.01-.03-.03-.03-.05,0-.08.05-.1.13-.05.21-.08.11-.07-.23.01-.34-.06-.37-.1-.05-.02.16-.09.41-.12.41,0,0-.02-.06-.02-.13s0-.12.02-.11c.02.01.02-.04.01-.12-.02-.11-.03-.12-.04-.04,0,.05-.03.09-.05.08-.04-.03,0,.33.04.39.02.03.02.09,0,.15-.04.1-.04.1-.05-.03,0-.07-.02-.1-.03-.06-.01.04-.05.08-.09.09-.06.01-.07.04-.05.17.02.13.03.13.03.04,0-.06.03-.13.06-.15.04-.02.04,0,.02.07-.07.24-.08.34-.04.34.02,0,.03.05.02.12-.02.09-.04.05-.1-.21-.04-.18-.08-.39-.08-.48,0-.09-.03-.21-.07-.28q-.07-.12-.04.09c.01.12.03.26.05.3.04.2.07.34.04.29-.04-.08-.11-.07-.08.01.01.04,0,.07-.02.07-.07,0-.06-.13.01-.16.03-.01.05-.05.04-.09-.03-.09-.09-.08-.11.03-.01.05-.04.08-.07.06-.03-.02-.05,0-.04.03,0,.03,0,.15,0,.27,0,.23-.05.24-.07.02,0-.08-.01-.17-.02-.2-.01-.12-.09-.04-.1.11,0,.09-.02-.07-.02-.35,0-.28,0-.5.01-.49s.04.16.06.32l.03.3v-.38c.01-.33,0-.38-.07-.44-.05-.04-.09-.12-.1-.23-.01-.12-.02-.08-.02.12,0,.16-.02.3-.05.31-.02.01-.03-.05-.03-.14s0-.12,0-.07c-.03.16-.08.11-.07-.07.01-.15,0-.15-.02-.03-.02.07-.06.17-.09.22-.07.12-.06.16,0,.13.04-.01.06.02.05.09,0,.06-.02.12-.05.13-.03.01-.04.12-.04.31,0,.16,0,.23,0,.16-.02-.14-.1-.25-.1-.15,0,.03-.02.02-.04-.04-.06-.15-.08-.1-.04.14.02.12.02.21,0,.21-.02,0-.03.06-.02.13.01.07,0,.12-.01.11-.04-.02-.1-.4-.09-.5,0-.06,0-.06-.03,0-.04.07-.05.38-.01.45.01.02.03.12.03.22,0,.16,0,.17-.05.11-.03-.04-.06-.05-.06-.03,0,.05-.09-.07-.09-.13,0-.02.02-.01.04.02.05.08.05.02.02-.17-.02-.11-.04-.13-.09-.09-.04.03-.05.1-.03.2.02.08.01.15,0,.15s-.04-.05-.04-.12-.03-.12-.05-.13-.04-.03-.02-.05c.01-.02,0-.12-.02-.22-.03-.13-.06-.17-.1-.13-.04.03-.05,0-.06-.13,0-.14-.17-.5-.19-.43-.02.09-.02.52,0,.52.02,0,.03.06.03.14,0,.08.01.18.03.23.02.05.01.11-.01.12-.03.02,0,.14.07.33.06.17.1.32.09.33s-.04-.03-.07-.09c-.03-.07-.06-.1-.09-.09-.03.02-.04.01-.02-.02.02-.03.01-.08,0-.12-.07-.13-.1.02-.04.17.09.2.16.43.14.45,0,0-.11-.17-.23-.41-.12-.23-.24-.43-.26-.44-.04,0-.03.04.02.17.11.27.17.39.2.35.01-.02.01,0,0,.02,0,.03,0,.08.02.11.02.03.04.08.04.12,0,.06-.01.06-.06.03-.03-.03-.06-.03-.06-.01,0,.02-.02,0-.04-.03-.02-.04-.05-.05-.07-.04-.04.04.02.17.07.14.02-.01.03,0,.01.04-.01.03,0,.08.02.09.03.02.05.06.04.1,0,.05-.02.03-.07-.05-.04-.07-.08-.11-.1-.1s-.03-.02-.03-.07c0-.06-.02-.09-.05-.08-.03,0-.05,0-.03-.03.02-.04-.09-.35-.12-.35,0,0,0,.04,0,.1s-.03,0-.09-.12c-.08-.16-.11-.18-.09-.1,0,.06.04.16.07.21.04.08.04.1,0,.14-.04.03-.04.04.02.03.06,0,.11.06.2.26.07.15.13.25.14.22.01-.03.02-.01.02.05,0,.06.01.15.03.19s-.05-.08-.16-.29c-.2-.42-.29-.51-.15-.15.04.1.06.2.07.28,0,0,.01.01.01.02,0,0,0,0,0,0,0,.01.01.04.01.05,0,.07.02.16.04.21.04.08.09.28.06.25,0,0-.02-.03-.02-.05,0-.05-.27-.57-.3-.6-.01-.01-.03-.05-.04-.09s-.03-.09-.05-.13c-.03-.05-.04-.04-.03.03,0,.05.03.1.05.1s.03.01.02.02c-.01.01,0,.08.03.14.03.06.05.13.04.15-.01.02,0,.04.02.04s.05.03.07.07c.04.11-.09-.01-.16-.15-.25-.49-.33-.61-.36-.58-.02.02-.02,0,0-.06.02-.07.02-.08-.02-.03-.04.04-.04.08.02.21.04.09.06.14.03.13-.02-.01-.05,0-.06.03-.01.03-.03.02-.05-.02-.02-.05-.01-.07.02-.05.03.02.02-.03-.02-.1-.04-.07-.09-.15-.12-.16-.03-.02-.04,0,0,.06.03.05.04.1.02.11s0,.05.01.08c.02.03.04.09.04.12,0,.04.02.06.04.06s.05.04.05.1c0,.06-.01.09-.03.08-.02-.01-.02.03.01.09s.07.11.1.11c.03,0,.02-.02,0-.05-.07-.07-.07-.11.01-.11.04,0,.06,0,.04.02s.01.07.05.13c.07.1.07.11,0,.05-.07-.05-.07-.05-.05.1.01.09.05.18.08.2.04.02.04.04,0,.04-.03,0-.08-.05-.12-.11-.04-.06-.09-.1-.12-.08-.03.02-.03.04,0,.07.06.06.06.13,0,.09-.03-.02,0,.03.05.09.06.07.12.13.14.14s.03.06.03.11.05.17.11.27l.11.17-.12-.13c-.07-.07-.17-.19-.22-.26-.05-.07-.08-.1-.07-.06.06.12.24.37.37.51.07.08.11.14.09.14s-.07-.04-.1-.08-.08-.1-.12-.12c-.04-.02-.03.01.03.09.11.16.32.54.3.54-.01,0-.09-.11-.18-.24-.09-.13-.18-.24-.2-.24-.07,0-.04.05.08.19.07.08.05.07-.05-.03-.14-.13-.16-.17-.11-.2.05-.03.05-.05.01-.09s-.05-.04-.05.03c0,.08,0,.08-.09,0l-.09-.08s0,0,0,0l.07.12q.07.13,0,.03s-.06-.11-.07-.15h0s0,0,0,0c0,0,0-.01,0-.02,0-.04-.02-.06-.05-.06s-.07-.05-.1-.12-.05-.13-.06-.13c-.05,0,.01.31.09.42.16.24.16.25-.02.06-.1-.11-.18-.21-.18-.22s-.02-.04-.04-.06c-.04-.03-.04.06,0,.13.02.03.02.08,0,.12-.01.04,0,.07.02.07s.04.02.02.04,0,.04.02.04.04.03.02.07c-.01.04,0,.06.01.04s.1.04.18.13c.17.19.29.35.22.31-.07-.05-.06.07.02.19l.07.11-.1-.11c-.05-.06-.11-.1-.13-.1-.02,0-.04,0-.03-.02.01-.09-.02-.14-.19-.27-.15-.12-.17-.13-.08-.03.06.06.11.15.12.18s.05.11.1.18c.05.06.09.13.09.16s-.06-.03-.13-.13c-.17-.22-.17-.22-.17-.14,0,.04.09.16.21.28.21.22.3.39.2.39-.03,0-.04-.03-.03-.06.01-.03-.06-.15-.16-.26-.24-.27-.28-.29-.28-.16,0,.06.01.09.03.08.02-.01.05.01.08.05.05.06.04.06-.03.04-.06-.02-.06,0,.03.06.09.08.09.09.02.06-.07-.02-.06,0,.04.12.07.08.14.16.15.17.01.01.11.12.21.24.12.14.06.09-.17-.13-.25-.24-.34-.3-.28-.21.14.23.59.71.64.68.03-.02.03,0,.01.02-.02.03-.01.05.01.05s.05.03.07.08c.02.04-.07-.02-.19-.14s-.22-.19-.22-.16-.02.05-.05.05c-.04,0-.04-.02,0-.06.03-.04.03-.07-.03-.12-.04-.04-.14-.14-.21-.23-.14-.16-.14-.17-.22-.09-.06.06-.06.09-.02.1.03.01.04.04.03.06s.01.04.05.04c.06,0,.07,0,.02.04-.03.02-.05.06-.03.09.02.03.05.04.07.03.02-.01.06.01.09.05.05.07.05.07-.02.02-.06-.04-.08-.05-.08,0s-.02.04-.07,0c-.06-.05-.06-.04,0,.06.09.13.12.15.08.05-.02-.05,0-.06.04-.04.04.01.08.06.09.11.01.05.05.08.07.08s.03-.02.01-.05c-.02-.03-.01-.04.02-.02.03.02.04.05.03.08-.01.03.02.1.07.16.05.06.06.08.03.05-.03-.03-.08-.05-.11-.05-.03,0,.03.07.13.16.13.12.14.13.04.06-.07-.05-.19-.16-.25-.25-.07-.09-.13-.15-.14-.13-.01.01,0,.06.04.1.03.04,0,.03-.05-.04-.08-.09-.13-.1-.16-.07s-.06.03-.1-.01c-.04-.04-.04-.05,0-.03.03.02.06,0,.08-.01.01-.02-.01-.06-.06-.09-.08-.04-.11-.03-.09.06,0,.02-.02.01-.06-.02-.08-.07-.09-.15-.01-.1.04.02.04,0,0-.04-.06-.08-.11-.1-.07-.03.06.09-.05.03-.21-.12l-.17-.16.18.21c.1.11.17.23.16.25-.03.05-.15,0-.15-.05,0-.02.02-.03.05,0,.03.02.04.01.02,0-.02-.02-.05-.04-.07-.04-.06,0-.14-.07-.12-.11.01-.02-.01-.06-.05-.09-.07-.05-.07-.05-.02.02.03.04.05.08.03.08s.01.05.06.11c.05.06.08.13.07.15-.01.02.02.04.07.04.05,0,.11.01.13.02.02,0,.07.01.09.02.03,0,0,.04-.05.09-.1.08-.1.09-.02.09.05,0,.06.01.03.03-.03.01-.05.05-.05.08,0,.03.05.03.09.05,0,0-.02-.01-.03-.03-.01-.02,0-.04.02-.04s.05.02.05.04c0,.02,0,.03-.02.04.03,0,.04.04.06.03.02-.01.08.03.14.1.06.07.07.09.02.05-.12-.09-.21-.1-.18-.01.02.06.01.06-.04.01-.04-.03-.09-.04-.12-.02-.03.02-.04.01-.02-.02.03-.05-.04-.13-.13-.13-.02,0-.01.02.02.04s.05.04.03.04c-.02,0-.01.03.02.07.03.04.07.05.09.04.02-.01.05,0,.07.04.02.04.06.06.1.05.05-.02.14.04.28.19.21.22.23.26.16.26-.02,0-.04-.03-.04-.06,0-.07-.25-.32-.34-.34-.03,0-.07.02-.07.07,0,.05,0,.07.04.06.03-.01.11.03.18.09.12.1.12.11.01.04-.19-.11-.19-.08,0,.06.22.17.22.18.12.14-.05-.02-.19-.1-.32-.19-.25-.16-.5-.24-.37-.1.1.1.08.11-.05.03-.11-.07-.11-.06.03.09.16.18.14.22-.04.06l-.11-.1.11.12c.06.07.15.12.2.13.05,0,.08.02.07.03-.01.01,0,.05.03.08.04.04.03.06,0,.06-.03,0,0,.06.07.13.07.07.11.13.1.13s-.09-.07-.17-.16c-.08-.09-.12-.14-.1-.13.03.02.05.01.05,0s-.05-.04-.11-.04h-.11l.09.12c.05.07.11.13.13.15.02.01.08.09.14.16.08.12.07.11-.08-.04-.1-.1-.2-.22-.23-.27-.05-.09-.3-.24-.33-.21-.01.01.02.03.07.05.05.02.08.05.07.09-.01.03.02.09.06.13.05.04.07.09.06.12-.01.02,0,.03.02.02.02-.01.09.02.15.09.06.06.08.1.05.08-.06-.03-.08.06-.02.13.02.02,0,.01-.03-.02-.04-.04-.12-.11-.19-.17-.1-.09-.1-.07.04.1.09.11.15.21.12.21s-.08-.05-.12-.11c-.04-.06-.08-.1-.1-.09-.03.03.15.32.28.44.09.09.1.1.03.08q-.09-.03,0,.04s.1.06.11.06c.01,0,.06.02.1.07.07.07.07.08-.02.11-.06.02-.1,0-.11-.02,0-.03-.03-.04-.06-.02s-.04,0-.04-.01-.07-.04-.16-.04c-.13,0-.15,0-.1.06.03.04.11.06.18.06s.12.02.1.04,0,.05.05.07.06.04.05.05-.05,0-.08-.01c-.06-.04-.34-.14-.39-.14-.05,0-.04.09.02.11.03.01.11.04.18.07.21.08.33.09.33,0,0-.06,0-.06.04,0,.03.04.02.07-.01.1-.07.04-.44,0-.46-.05,0-.02-.04-.04-.08-.04s-.05.02-.04.04c.05.08-.03.05-.11-.04-.04-.05-.09-.08-.11-.08-.02,0-.11-.02-.19-.06l-.15-.07h.15c.08-.02.18-.02.23-.02.04,0,.06-.02.05-.04-.01-.02.01-.03.07-.01.05.02.09.01.09-.02,0-.03-.08-.05-.18-.05-.11,0-.17.02-.15.04.04.07-.03.05-.24-.07-.11-.06-.25-.13-.32-.16-.09-.04-.11-.06-.06-.09.03-.02.1-.04.16-.04.15,0,.12-.06-.08-.15-.1-.05-.19-.11-.2-.15-.01-.03,0-.05.03-.03.1.06.09-.07-.01-.17-.08-.08-.1-.12-.06-.15.04-.02-.02-.07-.15-.14l-.21-.11.2-.06c.11-.03.2-.07.2-.09s-.12-.06-.26-.1c-.15-.04-.25-.09-.24-.12.01-.02.05-.04.09-.04.14,0,.05-.09-.11-.11-.09-.01-.16-.04-.15-.07.01-.02-.01-.04-.05-.04-.07,0-.07,0,0-.06q.29-.2-.08-.18c-.2.01-.35,0-.36-.03-.02-.02,0-.03.02-.01.03.02.05.01.05,0s.06-.07.14-.11l.14-.07h-.19c-.12.01-.2,0-.21-.04-.01-.03,0-.05.04-.06s.09-.03.14-.06c.07-.05.06-.06-.1-.04-.1,0-.22.05-.26.08-.04.04-.09.06-.11.06-.02,0,0-.04.07-.1.06-.05.15-.14.19-.2.09-.1.08-.1-.09.01-.21.14-.25.14-.19,0,.04-.1.04-.12-.05-.18-.09-.06-.1-.1-.08-.32,0-.14,0-.25-.02-.25s-.02-.06,0-.14c.02-.12.02-.13-.04-.09-.06.05-.07.02-.12-.15-.08-.32-.09-.41-.04-.51.04-.08.04-.08-.02-.01-.09.11-.13.09-.11-.05.01-.07,0-.12-.02-.11-.02.01-.04,0-.04-.02s.02-.06.04-.07c.02-.01.04-.06.04-.09,0-.05-.02-.05-.08-.02-.11.06-.13-.01-.11-.26.02-.15.01-.17-.02-.09-.06.14-.09.12-.07-.06,0-.09,0-.13,0-.08s-.05.13-.08.19c-.05.1-.06.09-.04-.16l.02-.28-.05.21c-.03.11-.06.21-.09.21s-.03-.05-.01-.11c.02-.09.02-.11-.03-.08-.04.03-.05,0-.04-.1.01-.1,0-.14-.04-.14-.04,0-.05.01-.04.03.02.02,0,.05-.02.09-.03.03-.04.1-.03.14s0,.08-.01.06-.05,0-.06.03c-.01.03-.01-.05,0-.18,0-.13,0-.19,0-.14s-.04.09-.06.07-.04.03-.04.1c0,.12,0,.12-.05-.03-.04-.12-.05-.13-.07-.06-.03.14-.09.17-.12.06l-.03-.1-.03.11c-.03.1-.03.1-.04-.04v-.15s-.04.15-.04.15l-.03.15-.02-.3-.03.13c-.03.1-.03.11-.04.03,0-.12-.07-.13-.11,0-.01.05-.04.08-.07.06-.02-.01-.05,0-.06.03-.01.03-.02.02-.03-.03,0-.07-.02-.06-.07.04l-.06.13v-.26s-.07.15-.07.15l-.06.15v-.13c0-.18-.08-.09-.13.15-.04.19-.04.19-.09.09l-.05-.11v.12c0,.07-.02.11-.04.1-.02-.01-.05.02-.06.06-.01.05-.04.08-.06.08-.1-.02-.15,0-.13.06.01.03,0,.08-.02.1-.02.02-.06.4-.08.84-.03.5-.06.82-.1.86-.09.1-.34.25-.61.35q-.31.11-.25,0c.04-.07-.02-.05-.3.09-.19.09-.37.17-.4.17s-.16.05-.27.11-.23.09-.25.08-.03,0-.01.02c.02.02,0,.07-.04.1-.05.04-.06.04-.04-.01.02-.06,0-.06-.16,0-.29.1-.45.19-.55.31-.08.1-.1.1-.1.04,0-.07,0-.07-.07-.01-.04.04-.1.07-.15.07s-.13.06-.19.13c-.06.07-.12.13-.12.12,0,0-.08.05-.16.12-.08.07-.16.12-.18.12-.02,0-.07.05-.11.12-.08.13-.14.17-.14.08,0-.03-.05.05-.11.18-.07.14-.12.21-.14.18-.02-.03-.07,0-.13.1-.06.08-.12.14-.14.13-.02-.01-.03,0-.03.03,0,.09-.19.34-.25.32-.03-.01-.08.06-.13.15-.04.1-.1.16-.13.15-.04-.01-.07.05-.11.17-.03.1-.08.2-.11.22-.06.04-.54.87-.54.94,0,.08-.09.05-.09-.03,0-.04-.02,0-.04.1-.02.09-.07.19-.1.21-.04.02-.06.06-.06.1s-.1.29-.22.58c-.26.63-.28.83-.09,1.14.1.16.16.21.3.24.18.05.35.03.4-.04.01-.02.11.08.22.21.34.43.76.65,1.27.67.15,0,.28.03.28.04s.04.01.08-.01q.11-.06.18.08c.07.16.35.42.55.51.18.07.75.06.91-.02.07-.04.1-.04.12,0,.02.03.05.02.1-.02.07-.06.08-.06.17,0,.08.06.09.06.11,0,.01-.06.03-.05.14.03l.13.1-.1-.12-.11-.12h.15c.26-.01.31,0,.63.16.27.13.33.18.43.36.07.12.21.35.31.51l.19.3-.15.31c-.08.17-.15.34-.15.37s-.02.07-.05.07-.09.04-.14.08c-.07.07-.18.09-.52.11-.8.05-1,.07-1.24.16-.19.06-.29.08-.44.05-.25-.05-.7,0-.84.1-.09.06-.11.1-.09.2.01.07,0,.14-.02.15-.09.05-.04.2.1.28.08.05.11.09.08.09-.03,0-.22.06-.41.14-.29.12-.41.2-.69.46-.35.33-.39.43-.27.6.06.09.06.11-.03.27-.05.1-.1.25-.11.35-.02.15,0,.19.09.28.07.06.14.2.17.31.06.22.18.34.24.24.03-.04.05-.01.07.1.02.09.07.18.12.22.11.08.27.09.31.02.02-.03.07-.01.14.04.06.05.13.07.17.06.03-.01.14.02.24.07.17.09.19.09.29.02.09-.06.1-.1.08-.19-.02-.12-.02-.12.33-.24.2-.06.38-.14.41-.17.04-.04.1-.05.21-.02.08.02.3.04.48.05.28,0,.33.02.33.08,0,.04.02.06.05.05.04-.01.06,0,.06.05,0,.04.02.06.04.05s.04.02.04.07c0,.08.01.09.06.04s.07-.04.07.03c0,.05.04.1.09.11.07.02.09.05.07.12-.04.14.03.23.1.15.07-.08.13-.05.13.07,0,.09,0,.08.09-.01l.09-.1-.03.15c-.02.14-.02.15.04.07.07-.08.07-.08.04.03-.03.16.01.15.08-.02l.06-.14.05.12c.04.1.06.11.11.07.07-.06.24.02.24.13,0,.04.02.01.05-.05.06-.16.11-.15.09,0-.01.07,0,.14.03.15.03.02.05,0,.05-.02s.04-.05.09-.05c.06,0,.08.02.06.08-.02.07-.02.07.07,0,.09-.08.09-.08.1,0,0,.07.01.06.05-.03.04-.1.05-.1.07-.02.02.07.03.07.08-.04l.06-.13v.14c-.02.1,0,.14.03.14.03,0,.06-.02.06-.04s.03-.03.07-.02c.04.01.07.05.07.07s.04.07.09.1.09.08.09.12c0,.09.09.13.13.06.03-.05.04-.04.04.02,0,.04.02.08.05.08s.03.02.02.04c-.05.08.03.18.11.16.04-.01.08,0,.08.02,0,.02.03.02.08,0,.11-.06.23-.06.2,0-.01.02,0,.04.02.04s.05-.02.05-.04.04-.04.09-.04.08.02.06.04c-.03.04.07.06.28.05.09,0,.1,0,.04.04-.05.04-.04.04.06.02.1-.02.12-.02.08.03-.02.03-.05.1-.07.15-.02.07,0,.09.07.09.06,0,.09.02.09.08,0,.05.03.13.05.18.03.06.04.1,0,.12-.05.03-.04.24,0,.24.04,0,0,.22-.06.29-.02.03-.01.06.03.08.05.02.06.06.04.19-.02.13-.02.15.02.09.09-.14.13-.08.06.1-.03.1-.06.23-.06.29,0,.11,0,.1.06-.04.06-.15.06-.15.03.11-.01.14-.04.29-.06.33-.06.12-.29.78-.32.92l-.03.13.06-.11c.11-.18.07-.04-.06.28-.15.35-.17.46-.06.42.06-.02.07,0,.05.19-.01.12,0,.31,0,.43.02.12.04.19.04.15,0-.04.03-.02.05.04.02.06.03.17.02.24l-.03.13.08-.11.08-.11-.04.24c-.02.13-.07.27-.1.32-.03.05-.07.13-.08.17-.03.08-.02.08.05,0,.04-.05.1-.13.13-.17.04-.07.05-.04.03.16-.02.16-.01.22.02.18.03-.05.06-.02.09.13.03.11.07.25.09.32s.04.18.04.24c0,.09,0,.1.04.05.04-.06.04-.05.04.01,0,.04.04.16.08.26s.09.21.1.25c.01.04.02,0,.03-.06v-.13s.07.16.07.16c.04.09.08.16.11.16s.04.03.04.08c0,.06,0,.06.04.02.03-.04.05-.02.07.09.03.14.04.22.06.51,0,.12.02.14.08.12.06-.02.06-.02.01.05-.05.06-.05.07,0,.05.04-.01.08-.07.09-.13.03-.1.03-.1.03-.01,0,.05.02.11.05.12.02.01.03.05.02.07-.01.02-.01.08,0,.14.03.09.03.08.11-.05l.08-.15v.21c0,.2,0,.21.07.13.06-.08.06-.08.07,0,0,.05.03.12.07.17.04.05.06.12.07.17,0,.07.01.06.06-.04.05-.11.06-.11.07-.04,0,.05.03.16.07.26l.06.17-.02-.15-.02-.15.05.15c.03.08.06.16.08.17.02.01.04.05.05.09.02.04.03.02.03-.04,0-.09.01-.1.05-.04.02.04.04.11.04.17v.11s.06-.11.06-.11c.06-.1.06-.1.06-.02,0,.1.13.18.13.09,0-.03.02-.02.05.02.02.04.06.07.08.05s.05,0,.07.03c.02.03.04.03.07-.01.03-.04.04-.04.04,0,0,.05.12.19.3.34.09.08.1.08.08,0-.02-.05-.01-.07.01-.05.02.01.04.05.04.09s.02.07.05.08.04.03.03.05c-.02.02-.14,0-.28-.02-.35-.07-.64-.06-.78.03-.26.17-1.47.05-1.99-.19-.22-.1-.33-.12-.89-.17-.43-.04-.61-.03-1.23.08-.25.04-.34.08-.81.3-.18.09-.35.19-.36.23-.01.04-.12.14-.24.23s-.22.19-.22.21c0,.03.02.03.05,0,.03-.03.13-.05.23-.05.17,0,.17,0,.07.06l-.1.06.14.03c.08.02.24.03.36.03h.22l-.06.3h.18c.16,0,.18,0,.18.13s0,.13.23.15c.13.01.3.04.38.07h0,0c.1.03.69.04,1.82.03,1.54-.02,5.28-.03,5.33-.02.01,0,.15.01.3.02.3.02.43-.03.44-.14,0-.05.03-.02.06.06.03.08.06.1.06.06,0-.09.13-.15.13-.06,0,.03.02.07.04.09.03.02.03-.03.02-.12l-.02-.14.09.15c.08.14.09.15.09.04,0-.1,0-.1.07-.03.06.08.06.09.12-.1.01-.04.04-.01.09.09l.07.15v-.16c-.03-.18,0-.21.1-.07l.07.1v-.11c0-.06.02-.14.04-.17.03-.05.05-.04.08.04.04.09.04.07.05-.15,0-.21.01-.24.04-.14.02.07.07.15.1.19.06.06.07.06.07,0,0-.04,0-.11,0-.15-.01-.11.03-.09.1.04l.06.11.03-.18q.03-.18.11-.09c.1.11.13.12.13,0,0-.05.02-.09.04-.09s.03-.04.02-.1c-.02-.09-.01-.09.09.03.06.07.12.11.13.09.01-.02.01-.01,0,.02-.02.07.07.19.12.16.02-.01.05,0,.06.05.02.04,0,.06-.03.04-.03-.02-.01.02.04.07.15.16.18.06.04-.18-.16-.28-.15-.36.01-.12.07.11.17.24.21.3l.09.11-.03-.11c-.02-.11-.02-.11.04-.02.04.05.07.07.07.04,0-.02.04.02.09.09l.09.13-.03-.13c-.02-.07-.05-.16-.07-.2-.09-.17-.03-.13.12.08.08.12.16.23.18.23s0-.03-.03-.07c-.09-.11,0-.12.1-.01.05.06.07.07.04.03-.04-.05-.04-.08-.01-.08.03,0,.06.02.07.04.01.02.07.07.12.09l.1.05-.1-.11c-.05-.06-.1-.13-.1-.17,0-.04.03-.03.08.03.04.05.09.08.11.07s.09.03.16.1c.16.15.17.09.02-.11-.14-.19-.09-.23.07-.05.07.08.13.13.13.11s.06.05.13.15c.07.1.14.18.15.18s.01-.01,0-.03c-.03-.06-.15-.33-.18-.42-.03-.1.01-.06.08.07.03.05.12.14.2.21.13.09.14.1.07.02-.04-.05-.07-.12-.05-.15.02-.03.01-.04-.01-.02-.02.02-.07,0-.1-.03-.03-.04-.03-.07,0-.09.02-.01.06,0,.07.02.02.03.06.04.09.02.03-.01.05,0,.04.01-.02.04.18.25.21.22.02-.02-.01-.08-.14-.29-.05-.08-.04-.09.04-.06.08.02.09.01.04-.07-.03-.05-.07-.1-.09-.12-.02-.01-.04-.05-.04-.09,0-.04.09,0,.27.11.15.09.28.16.28.15,0,0-.02-.08-.06-.16l-.07-.14.13.12c.07.07.15.12.18.12s.06.03.08.07.04.07.07.07.03-.02,0-.05c-.02-.03.03,0,.1.04.18.13.2.12.1-.05-.05-.08-.09-.16-.09-.18,0-.04.09.05.15.16.02.04.11.12.19.17l.15.09-.14-.12c-.08-.06-.14-.14-.14-.17,0-.03.02-.03.05,0,.07.07.12.07.1,0-.02-.04.02-.06.13-.05.08,0,.18.03.21.04s.02-.01-.03-.07l-.09-.1.09.06s.12.09.16.13c.1.08.26.1.23.02-.02-.06.19-.02.35.06.15.08.16.06.01-.12-.14-.18-.13-.22.03-.11.05.03.1.05.12.04.01-.01.07,0,.11.05.07.07.1.07.14.02.04-.05.04-.05-.01-.03-.04.02-.03,0,.02-.04.06-.05.07-.07.02-.05-.04.01-.11-.02-.17-.09l-.1-.11.1.03c.05.02.15.04.2.04s.14.04.17.07c.11.09.08,0-.05-.14l-.12-.13.32.19v-.1c0-.05-.06-.15-.12-.22l-.11-.12.17.07c.09.04.17.06.18.05.03-.03-.05-.11-.11-.13-.11-.02-.33-.25-.34-.33,0-.09.02-.09.41.06.1.04.21.06.23.04.02-.01.04,0,.04.02s.02.05.05.05c.11,0-.04-.11-.32-.24-.17-.08-.29-.15-.28-.15.05,0,.63.16.69.2.03.02.04.01.02-.02-.02-.03-.17-.11-.34-.19-.17-.08-.29-.15-.26-.16.03,0,.11.02.18.06.08.04.15.06.16.05.04-.04-.35-.2-.42-.18-.04.01-.11,0-.15-.05-.08-.06-.08-.07.01-.02.05.03.12.04.14.02.02-.01.17.02.33.07.16.05.3.08.31.07.02-.03-.07-.12-.23-.23-.07-.05-.07-.05.02,0,.13.06.18.02.07-.07-.08-.06-.07-.06.09-.04.1.01.23.04.3.07.18.07.29.09.25.04-.02-.03-.06-.04-.09-.02-.03.01-.06,0-.06-.01s-.06-.07-.14-.1c-.12-.06-.13-.07-.04-.07.05,0,.13.02.17.04.16.08.5.14.55.09.03-.03.03-.04,0-.04-.02,0-.1-.01-.17-.04-.07-.03-.18-.05-.25-.06-.06,0-.11-.02-.1-.04.01-.02-.08-.05-.2-.06-.12-.02-.21-.05-.19-.07.01-.02.05-.03.08-.02.03.01.12,0,.19-.04.1-.05.18-.05.42-.02.38.06.38.06.32-.02-.04-.05-.03-.07.02-.09.04-.01.06-.05.05-.09-.01-.03-.01-.07,0-.08.02,0,0-.01-.03,0s-.08-.01-.11-.04-.2-.08-.36-.12c-.17-.03-.31-.07-.31-.1s.04-.03.1-.02c.26.05.57.07.53.03-.02-.02-.08-.05-.13-.06s.01-.02.13-.02c.12,0,.23.02.24.05.04.05.17,0,.17-.06,0-.04-.02-.04-.05,0-.04.03-.08.03-.14-.02-.08-.06-.08-.07.03-.04.14.03.15,0,.04-.09-.07-.05-.07-.06.03-.04.29.05.69.07.69.03,0-.02.02-.04.05-.04s.03.02.02.04c-.01.02.02.04.07.04h.1l-.1-.07c-.05-.04-.15-.07-.22-.08s-.13-.02-.15-.02c-.02,0-.03-.03-.03-.05s.02-.03.05-.01c.03.02.04.01.02-.02-.04-.07-.11-.06-.11.01,0,.03-.02.07-.04.09-.02.02-.03,0-.02-.04.01-.04,0-.07-.03-.07-.09,0-.02-.1.07-.11.26-.03.56-.07.57-.08,0,0-.16-.03-.37-.05-.43-.04-.68-.11-.36-.1.36,0,.47-.02.24-.04-.14-.02-.21-.05-.21-.08,0-.03-.02-.04-.05-.03-.03.01-.07,0-.09-.02-.02-.03.03-.05.14-.05.09,0,.18-.01.21-.02.02,0,.19-.01.36-.02.43,0,.37-.04-.09-.05-.21,0-.47-.02-.58-.04-.13-.02-.22-.02-.24,0-.01.02-.04.01-.05-.03s0-.07.02-.07c.02,0,.06,0,.08-.01.02,0,.05-.02.07-.04s.05-.03.08-.03.02.02-.02.04c-.04.03-.04.04-.01.04.03,0,.06-.02.08-.04s.07-.04.12-.04c.09,0,.09,0,.01.04-.07.03-.06.04.06.06.18.04.59.04.56,0-.01-.01-.13-.02-.27-.02s-.24-.02-.24-.04.06-.04.13-.03c.07,0,.14,0,.16-.02.03-.03-.08-.04-.58-.05-.17,0-.33-.02-.34-.04-.03-.03.36-.05.86-.04.04,0,.08-.02.08-.04s-.15-.04-.34-.04c-.25,0-.34-.01-.34-.06,0-.03.05-.06.11-.06.1,0,.1,0,.03.03-.08.03-.07.04.04.04.09,0,.12-.01.1-.06-.02-.04.02-.05.13-.04.09,0,.17.03.18.05s.05.04.08.04c.07.01.07-.06,0-.08-.02,0,.04-.02.15-.02.11,0,.24-.02.31-.03.09-.02.11-.01.11.05,0,.06,0,.06.03.01.02-.04.07-.07.12-.08.05,0,.12-.05.15-.09.05-.05.05-.06,0-.02-.08.07-.37.07-.48,0-.07-.04-.09-.04-.13,0-.03.05-.04.05-.07-.01-.03-.07-.03-.07-.09,0-.06.08-.09.03-.03-.06.06-.09.2-.11.62-.11.41,0,.43-.04.04-.1-.3-.04-.56-.12-.56-.16,0-.02.05-.02.11,0,.15.06.25.05.21,0-.02-.04.02-.04.16-.02.12.02.17.01.13-.01-.05-.03-.05-.04,0-.05.04,0,.09,0,.12,0,.03,0,.05-.01.05-.03s-.18-.04-.4-.05c-.53-.01-.51,0-.51-.05,0-.02.11-.04.25-.04.24,0,.24,0,.08-.04-.19-.03-.2-.03.22-.07.07,0,.14-.01.16-.02s.03-.03.03-.07c0-.04.07-.07.23-.08l.23-.02h-.27c-.3-.02-.42.01-.38.09.02.03,0,.03-.03,0-.03-.03-.09-.05-.13-.05-.05,0-.06,0,0,.04.05.03.04.04-.01.06-.04.01-.06,0-.05-.01s0-.06-.05-.08c-.07-.04-.07-.05,0-.05.05,0,.12,0,.15,0,.04,0,.12-.01.19-.03.27-.08.47-.1.43-.04-.02.03-.01.04.02.02.04-.02.03-.05-.02-.11-.04-.05-.1-.08-.12-.08-.03,0-.02.02.02.04.05.03.04.04-.07.05-.07,0-.28.02-.47.03-.19.02-.35.02-.36,0-.01-.02.05-.04.14-.04.09,0,.18,0,.21-.02s.11-.02.19-.02h.15s-.13-.04-.13-.04c-.16-.04-.12-.05.25-.05.17,0,.29-.02.29-.05,0-.02.03-.03.07-.02s.11,0,.16-.02c.08-.03.06-.04-.11-.03-.24.01-.26-.07-.02-.09.11,0,.16-.04.18-.09.01-.05,0-.07-.04-.06-.1.04-.45.04-.45,0,0-.02.08-.04.17-.04s.17-.01.17-.03.08-.04.18-.05c.1,0,.23-.02.29-.03s.13-.02.16-.02c.03,0,.05-.02.03-.04s-.11-.02-.21,0c-.1.02-.19.03-.2.02-.02-.02.3-.11.39-.11.09,0,.15-.08.09-.13-.02-.02-.12-.04-.22-.05-.21,0-.21-.03,0-.08l.14-.04h-.14c-.08.02-.14.01-.14,0,0-.04.3-.12.33-.08.01.02.06.04.1.03.07,0,.07,0,0-.02-.04-.01-.08-.04-.08-.06,0-.02-.14-.03-.32-.03-.18,0-.31,0-.3-.02.01-.02,0-.04-.03-.04s-.04-.02-.02-.04c.01-.02.05-.04.07-.04s.03.02.02.04c-.04.07.2.01.28-.07.06-.06.06-.06-.06-.02-.07.03-.13.04-.15.03s.03-.04.1-.07c.11-.04.12-.05.04-.08-.07-.02-.05-.04.09-.06.1-.02.22-.07.28-.12l.1-.09-.14.08c-.14.07-.27.05-.14-.03.04-.02.05-.04.02-.04-.02,0-.08.03-.13.08-.05.04-.07.05-.05.02.04-.07-.03-.07-.09,0-.03.03-.05.03-.05,0,0-.02-.06-.04-.14-.03-.13.01-.13.01-.04-.03.09-.04.39-.09.56-.1.03,0,.05-.02.05-.03s.06-.02.13-.02c.1.01.12,0,.1-.05-.02-.04-.05-.06-.1-.04-.04.02-.16.04-.27.04-.13.01-.17,0-.11-.02.05-.02.11-.03.13-.02s.07-.01.1-.05c.04-.05.04-.07,0-.07-.03,0-.04-.02-.03-.03s-.04-.04-.12-.04c-.13,0-.13,0-.03.03l.11.04h-.11c-.07-.01-.11-.04-.1-.09,0-.05,0-.06-.04-.04-.03.02-.1.03-.17.02-.09-.02-.11-.03-.07-.06.05-.03.04-.04-.01-.04-.04,0-.08.02-.09.04,0,.02-.05.01-.1-.02-.08-.06-.08-.06,0-.07.05,0,.11,0,.14,0,.03,0,.05-.01.05-.03,0-.06.16-.09.21-.04.03.03.05.02.07,0,.02-.03.01-.05,0-.04-.09.02-.12,0-.06-.05.05-.03.05-.04-.04-.04-.05,0-.09.02-.07.04.02.02-.05.04-.16.04-.1,0-.23,0-.28.03-.07.02-.1.02-.1-.02,0-.03.03-.04.07-.03.04.01.07,0,.07-.02s.05-.04.11-.04.11-.02.11-.04.06-.03.14-.03c.13.01.2-.03.21-.12,0-.06-.1-.03-.15.04-.04.06-.07.06-.12.02-.03-.03-.07-.04-.09-.03s-.13.03-.26.04c-.22.01-.22.01-.12-.04.06-.03.12-.05.14-.04.02.01.07,0,.11-.01.04-.02.09-.03.12-.04.23-.03.38-.09.41-.16.03-.06.03-.08-.02-.08-.11,0-.08-.08.06-.15.18-.09.16-.11-.05-.04-.21.07-.28.04-.09-.04.08-.03.13-.07.12-.08-.02-.02.05-.03.3-.05.16-.01.21-.08.06-.08-.05,0-.08-.02-.06-.04.01-.02,0-.05-.05-.06-.04,0,0,0,.1,0,.1.01.24,0,.32-.05l.15-.06h-.13c-.1.01-.13,0-.12-.07,0-.05,0-.07-.03-.05-.03.02-.04.07-.02.11.02.06,0,.08-.06.08-.1,0-.12-.06-.04-.11.03-.01-.03-.01-.14,0-.11.01-.18.02-.17,0,.01-.01.21-.09.43-.18.5-.2.53-.22.28-.21-.13,0-.19,0-.19-.04,0-.06.42-.26.63-.31.07-.02.13-.06.13-.09s-.03-.05-.06-.04c-.03.01-.06.04-.06.06Zm-.74-1.89s.03,0,.02.04c-.03.07-.06.09-.06.03,0-.02.02-.05.04-.07Zm-.27-.93c.05-.06.1-.09.11-.08.01.01-.03.06-.1.1l-.11.08.1-.1Zm-.07.21s-.04.05-.09.06c-.07.02-.08.01-.04-.04.06-.07.13-.08.13-.02Zm-.26.16s.04,0,.04.02-.02.06-.04.07c-.02.01-.04,0-.04-.02s.02-.06.04-.07Zm-.61-2.16s.04,0,.04.04c0,.07-.01.08-.05.02-.01-.02,0-.05.01-.06ZM18.27,1.29s.01.08,0,.11c-.01.03-.02,0-.02-.05s0-.08.02-.05Zm-.14,0s.07.03.07.04c0,.04-.08.02-.11-.03-.01-.02,0-.03.04-.02Zm-.29.05s.01.07,0,.08-.02-.01-.02-.06c0-.05.01-.06.03-.03Zm-2.82-.35s-.02-.01-.02-.06c0-.05.01-.06.03-.03.01.03.01.07,0,.08Zm-.44.96s-.02-.06,0-.07c.01-.01.03,0,.05.05.03.08,0,.09-.04.02Zm-.64,1.88c-.05-.06-.06-.1-.04-.08.03.02.05,0,.06-.01,0-.02.04,0,.06.04.08.13,0,.18-.09.06Zm.13.35c-.02-.06-.02-.07.02-.02.03.03.04.06.03.08s-.04-.01-.05-.05Zm-1.04,2.61s-.06-.06-.04-.06.07.03.1.07c.07.08.05.08-.06,0Zm.32.4s-.04.01-.09-.06c-.05-.07-.05-.07.02-.02.04.03.08.07.08.08h0Zm-.58.37h0c.05.07,0,.09-.07.02-.03-.04-.04-.07,0-.07.03,0,.06.02.07.05,0,0,0,0,0,0h0Zm-.3.52s0-.03.04-.02c.04.01.07.03.07.04,0,.04-.08.02-.11-.03Zm.17.69s0-.03.04-.02c.04.01.07.03.07.04,0,.04-.08.02-.11-.03Zm-8.62,1.3s-.07-.02-.06-.05c0-.03.03-.05.06-.05s.05.02.06.05c0,.03-.02.05-.06.05Zm8.9-1.09q-.15-.13-.01-.04c.08.05.15.11.16.13.04.07,0,.05-.15-.09Zm.13.35s0,.04-.02.04-.03-.02-.05-.04c-.01-.02,0-.04.02-.04s.05.02.05.04Zm-.69.26s.04.02.04.04-.02.04-.04.04-.04-.02-.04-.04.02-.04.04-.04Zm-.16.33s0-.01-.07,0c-.07.01-.12,0-.12-.02s-.04-.05-.1-.07c-.05-.01-.08-.04-.06-.06.04-.04.42-.05.42,0,0,.02.09.06.19.1s.21.09.22.11c.01.02-.03.02-.09,0-.06-.02-.16-.04-.21-.04-.09,0-.09,0,0,.02.21.05.33.11.27.15-.04.03-.03.04.03.04.05,0,.13.03.17.07.08.07.05.07-.13,0-.06-.02-.07-.02-.05.02h0c.03.05-.03.07-.08.02-.02-.02-.09-.03-.17-.04-.19-.01-.2-.02-.1-.06q.09-.04,0-.04c-.11,0-.22-.16-.14-.19Zm.71.64s-.01.02-.06.02c-.05,0-.06-.01-.03-.03.03-.01.07-.01.08,0Zm-.53-.19s.12.02.15.04c.08.05.02.05-.13,0-.09-.03-.09-.04-.02-.04Zm.12.23s.43.14.43.18c0,.01,0,.02-.01.02s-.09-.02-.18-.04c-.17-.04-.27-.1-.23-.15Zm.56,1.1s-.09-.02-.13-.04c-.06-.04-.06-.04,0-.04.04,0,.09.02.13.04.06.04.06.04,0,.04Zm0-.18c-.06,0-.08,0-.05-.02.03-.01.08-.01.11,0,.03.01,0,.02-.05.02Zm.17.22c-.06,0-.08,0-.05-.02.03-.01.08-.01.11,0,.03.01,0,.02-.05.02Zm-.59-.76s.37.13.37.17c0,.02.03.03.08.03s.12.03.18.06c.06.04.08.06.04.06-.08,0-.7-.3-.68-.33Zm.58-.92s.06.02.08.04c.03.05.02.05-.07,0-.04-.03-.04-.04-.01-.04Zm-.23-.29s-.13-.07-.23-.09c-.1-.01-.18-.04-.18-.05s.12,0,.27.01c.15.02.24.05.22.06-.07.02-.06.1.01.1.03,0,.11.04.16.09h0c.06.05.09.09.08.08-.05,0-.29-.14-.33-.2Zm.42.29s-.04-.02-.04-.05.02-.03.04-.02c.02.01.04.04.04.05s-.02.02-.04.02Zm.02-2.17s0-.03.04-.02c.04.01.07.03.07.04,0,.03-.08.02-.11-.03Zm.3-.66l-.08-.1.1.08c.05.05.1.09.1.1,0,.03-.03,0-.11-.08Zm.06-2.53c-.05-.07-.05-.07.02-.02.04.03.08.07.08.08,0,.04-.04.01-.09-.06Zm-.08.84s.06.05.13.18c.07.13.12.24.12.25-.02.02-.25-.37-.25-.43Zm.19.11s.03,0,.03.02.04.09.09.14c.05.05.07.09.05.09-.05,0-.19-.22-.16-.25Zm.11-.74c-.05-.07-.05-.07.02-.02.04.03.08.07.08.08,0,.04-.04.01-.09-.06Zm.26-.16s-.04-.08-.03-.09.05.02.07.07c.06.11.04.12-.04.02Zm.07.47s-.02-.06-.04-.1c-.03-.05-.02-.05.04,0,.04.04.07.1.05.13-.02.05-.03.05-.05-.04Zm.11-.1s-.06-.02-.07-.04,0-.04.02-.04.06.02.07.04,0,.04-.02.04Zm.11-1.71c-.04-.11-.03-.14.02-.05.03.04.04.09.03.1s-.03-.01-.05-.05Zm.17.01l-.08-.14.09.11c.05.06.09.12.09.14,0,.06-.02.03-.1-.11Zm.43-.93s-.05,0-.04-.04c.02-.05.1-.05.1,0,0,0-.03.03-.06.04Zm.29-.91s.03,0,.05.05c.03.08,0,.09-.04.02-.02-.03-.02-.06,0-.07Zm.12.42s.05.02.05.04,0,.04-.02.04-.03-.02-.05-.04c-.01-.02,0-.04.02-.04Zm.05.22s-.04-.02-.04-.05.02-.03.04-.02c.02.01.04.04.04.05s-.02.02-.04.02Zm.65-1.39s-.04-.04-.04-.1c0-.08,0-.09.04-.03.02.04.04.08.04.1,0,.02-.02.03-.04.03Zm.11-.48s.04-.04.05-.04.02.02.02.04-.02.04-.05.04-.03-.02-.02-.04Zm.09,1.33s-.02-.01-.02-.06c0-.05.01-.06.03-.03.01.03.01.07,0,.08Zm.43-.3c-.03-.08,0-.15.05-.11.01.01.02.06,0,.1-.02.08-.02.08-.05,0Zm.24-.12c-.05.08-.05.01,0-.11.02-.06.04-.06.04-.02,0,.04-.02.09-.04.13Zm.4-.42s-.05.03-.05-.05.01-.09.05-.05.04.06,0,.1Zm.28,6.26s-.02-.01-.02-.06c0-.05.01-.06.03-.03.01.03.01.07,0,.08Zm.08-.59c-.07,0-.08-.04-.02-.12.03-.04.04-.04.06.03.02.06,0,.09-.04.09Zm.05-.42s-.02,0-.02-.08c0-.07.01-.1.02-.05.01.04.01.1,0,.13Zm.06-.36s.05.02.05.04,0,.04-.02.04-.03-.02-.05-.04c-.01-.02,0-.04.02-.04Zm.01.3c0-.17,0-.18.03-.06h0c.02.07.02.15,0,.19-.02.04-.04-.01-.04-.13Zm.19.73s-.02-.01-.02-.06c0-.05.01-.06.03-.03.01.03.01.07,0,.08Zm.19.47s.02-.07.04-.09c.02-.01.03.01.02.06-.03.1-.06.11-.06.02Zm.2.29s-.02,0-.02-.05,0-.08.02-.05.01.08,0,.11Zm0-.24s-.02-.01-.02-.06c0-.05.01-.06.03-.03.01.03.01.07,0,.08Zm3.55,5.24s.01.08,0,.11c-.01.03-.02,0-.02-.05s0-.08.02-.05Zm-.24-.11c.01.07.02.12,0,.12-.03,0-.07-.13-.05-.18.01-.03.03,0,.04.06Zm-.25-.53s.03.03.04.07,0,.07-.02.07-.04-.03-.04-.07,0-.07.02-.07Zm-.16.21s.01.07,0,.08c-.01.01-.02-.01-.02-.06,0-.05.01-.06.03-.03Zm-.04-.35s.01.07,0,.08c-.01.01-.02-.01-.02-.06,0-.05.01-.06.03-.03Zm-.04-.52s.01.07,0,.08c-.01.01-.02-.01-.02-.06,0-.05.01-.06.03-.03Zm-.14-.36c.03.08,0,.09-.04.02-.02-.03-.02-.06,0-.07s.03,0,.05.05Zm-.16.45s.01.07,0,.08c-.01.01-.02-.01-.02-.06,0-.05.01-.06.03-.03Zm-.2.3s.04.11.03.19c-.01.14-.02.14-.05.04-.05-.17-.04-.29.01-.23Zm-.15-.04s.01.08,0,.11c-.01.03-.02,0-.02-.05s0-.08.02-.05Zm-.07-.38c.04-.06.04-.06.04,0,0,.04-.02.1-.04.15l-.04.09v-.09s.01-.12.04-.15Zm-.4.29s.01.08,0,.11c-.01.03-.02,0-.02-.05s0-.08.02-.05Zm-.04-.32s.01.11,0,.15-.02,0-.02-.08,0-.12.02-.08Zm-.16.16s-.02.09-.04.09-.04-.04-.04-.09.02-.09.04-.09.04.04.04.09Zm-.01.17s.01.07,0,.08-.02-.01-.02-.06c0-.05.01-.06.03-.03Zm-.07-.73s.04.02.04.04-.02.04-.04.04-.04-.02-.04-.04.02-.04.04-.04Zm-.01.21s0,0,0,0c.01.05.01.13,0,.17-.01.04-.02,0-.02-.1,0-.09,0-.13.02-.07h0s0,0,0,0Zm-.09,0s.01.07,0,.08c-.01.01-.02-.01-.02-.06,0-.05.01-.06.03-.03Zm-.22-1.02s.01.1,0,.13-.02,0-.02-.08c0-.07.01-.1.02-.05Zm-.09-.35s.01.1,0,.13-.02,0-.02-.08c0-.07.01-.1.02-.05Zm-.08.4c0,.11,0,.19-.01.19s-.02-.03-.02-.06-.01-.12-.03-.19c-.01-.07,0-.14.01-.14.02,0,.04.09.05.19Zm0,.31c.01.05.01.14,0,.19s-.02,0-.02-.1,0-.15.02-.1Zm-.03-.68s-.02.09-.04.11c-.02.01-.04-.02-.03-.08,0-.13.07-.15.07-.02Zm-.06-.33s.01.11,0,.15c-.01.04-.02,0-.02-.08s0-.12.02-.08Zm-.12-.14c.04-.06.04-.06.04,0,0,.04-.02.1-.04.15l-.04.09v-.09s.01-.12.04-.15Zm-.09-.09h0s-.02.1-.04.15l-.04.09v-.09s.01-.12.04-.15c.04-.06.04-.06.04,0Zm-.05.34s.01.08,0,.11c-.01.03-.02,0-.02-.05s0-.08.02-.05Zm0-.51s.02.02.02.04-.02.04-.05.04-.03-.02-.02-.04.04-.04.05-.04Zm-.24-.75s-.02.11-.04.15c-.03.05-.04.03-.01-.07.04-.16.06-.19.06-.08Zm-.06.32s.04-.04.05-.04.02.02.02.04-.02.04-.05.04-.03-.02-.02-.04Zm3.45,14.9c-.05.3-.11.71-.14.93-.07.56-.23,1.14-.43,1.52-.19.37-.53.8-.74.94-.22.14-.59.17-.72.06-.03-.02-.05-.11-.05-.18s-.02-.2-.05-.29c-.03-.08-.05-.37-.06-.63,0-.26-.03-.52-.05-.56l-.04-.09.07.09c.07.08.07.08.04-.11-.02-.11-.03-.23-.03-.28s-.03-.18-.06-.3c-.03-.12-.08-.44-.1-.71-.03-.27-.06-.55-.07-.62-.02-.08,0-.11.02-.1.07.05.02-.72-.06-.91-.04-.09-.08-.25-.09-.36-.02-.22-.07-.92-.08-1.09,0-.06-.02-.1-.04-.09-.02.01-.03,0-.02-.04.03-.08-.1-.44-.29-.84-.14-.29-.19-.46-.36-1.06-.04-.13-.07-.27-.09-.31-.04-.13.04-.09.47.23.97.74,1.73,1.46,2.09,1.96.23.32.48.78.57,1.03.04.1.11.25.17.34.07.11.12.27.15.54.05.35.04.46-.04.93Zm.16-10.76s-.02,0-.02-.08,0-.12.02-.08c.01.04.01.11,0,.15Zm.32-.01s-.03.06-.02.11.01.09,0,.09c-.05,0-.06-.18,0-.25.03-.04.06-.05.06-.03s-.02.06-.04.08Zm.48.8s-.04.04-.06-.03c-.01-.05,0-.08.01-.07s.05,0,.06-.03c.01-.04.02-.03.02.01,0,.04-.01.09-.03.12Zm.57,17.22s0,.02-.05.02-.08,0-.05-.02c.03-.01.08-.01.11,0Zm-.08-16.59s.03,0,.02.05c-.02.04-.03.09-.03.12s-.02.04-.04.04c-.05,0,0-.17.05-.2Zm-.06,16.98s.07-.01.08,0c.01.01-.01.02-.06.02-.05,0-.06-.01-.03-.03Zm.15.43s0,.02-.05.02-.08,0-.05-.02c.03-.01.08-.01.11,0Zm.08-.23c-.15.05-.26.05-.15,0,.05-.02.13-.04.17-.04.07,0,.07,0-.02.04Zm-.04-17.07c0-.06,0-.08.02-.05.01.03.01.08,0,.11-.01.03-.02,0-.02-.05Zm.11-.24c-.02.12-.07.12-.1,0-.02-.07.03-.06.04-.11,0-.01,0,0,0-.03h0c0-.07.01-.1.02-.05,0,.02,0,.03,0,.05.02-.05,0-.13.05-.14.08-.01.09,0,.07.04-.03.05-.04.08-.07.23Zm.44,17.12s0,0,.07,0c.07.01.19.02.26.02.07,0,.1,0,.07.02-.04.01-.09.04-.12.07-.04.03-.05.03-.05,0s-.04-.04-.14-.02-.12.01-.08-.01c.05-.04.05-.04,0-.06Zm-.23-16.16s-.02-.01-.02-.06c0-.05.01-.06.03-.03.01.03.01.07,0,.08Zm0-.22s-.02,0-.02-.08,0-.12.02-.08c.01.04.01.11,0,.15Zm.09.26s.01.08,0,.11c-.01.03-.02,0-.02-.05s0-.08.02-.05Zm-.01,15.65c-.05,0-.06-.01-.03-.03.03-.01.07-.01.08,0,.01.01-.01.02-.06.02Zm.36-.15s-.01.02-.06.02c-.05,0-.06-.01-.03-.03.03-.01.07-.01.08,0Zm-.16-16.18s.04.01.04.03c0,.02-.02.06-.04.1-.03.05-.04.05-.04-.03,0-.05.02-.1.04-.1Zm-.05,14.83s.07-.01.08,0c.01.01-.01.02-.06.02-.05,0-.06-.01-.03-.03Zm.05,1.46c-.09-.03-.09-.03.05-.04.09,0,.16,0,.16.01,0,.04-.12.05-.22.02Zm.17-15.94s-.03-.02-.02-.04c.01-.02.05-.04.07-.04s.03.02.02.04c-.01.02-.05.04-.07.04Zm.08,15.57s.07-.01.08,0-.01.02-.06.02c-.05,0-.06-.01-.03-.03Zm-.01-.31s.01-.03.06-.02c.05.01.09.03.09.04,0,.03-.13.01-.15-.02Zm.04.6c-.08-.04-.08-.04,0-.04.05,0,.11.02.12.04.03.05-.01.05-.13,0Zm.44-.27c.07.04.06.04-.04.04-.06,0-.1-.02-.08-.04.02-.02.07-.02.12,0Zm-.24-.46c.06,0,.16.03.22.06l.11.06h-.14c-.08,0-.15.03-.16.06-.01.03-.02.02-.03-.02,0-.04.02-.08.05-.08s0-.02-.05-.04l-.11-.03h.11Zm-.14.01s-.01.02-.06.02c-.05,0-.06-.01-.03-.03.03-.01.07-.01.08,0Zm-.05-14.7s-.01-.06,0-.09c.02-.02,0-.07-.02-.1-.03-.04-.03-.07,0-.12.04-.05.04-.05.02,0-.01.04,0,.08,0,.1.02.02.03.08.03.13,0,.12,0,.13-.05.06Zm.18-.14s.01.07,0,.08-.02-.01-.02-.06c0-.05.01-.06.03-.03Zm-.01,14.26s-.06-.02-.04-.04c.01-.02.05-.04.07-.04s.04.02.04.04-.03.04-.07.04Zm.11-13.58s-.05,0-.06,0c-.01.02-.01,0,0-.02,0-.03.01-.07.01-.08s.02,0,.04,0c.02.01.04.05.04.07s-.02.03-.04.02Zm.17.54s.02-.05.04-.07c.02-.01.03,0,.02.04-.03.08-.06.09-.06.03Zm.42.35s-.02.05-.03,0c0-.03-.03-.04-.06-.03-.04.02-.04.02,0-.03.03-.03.07-.05.08-.03.01.01.02.05,0,.08Zm-.08-.24s.04,0,.04.04c0,.07-.01.08-.05.02-.01-.02,0-.05.01-.06Zm-.12,11.82s.04.04.04.05-.02.02-.04.02-.04-.02-.04-.05.02-.03.04-.02Zm-.09-11.81c.04-.06.04-.05.04,0,0,.04-.02.09-.04.1-.05.03-.05-.02,0-.11Zm.02,11.99l.15-.04c.08-.02.16-.03.18,0s-.05.04-.15.04h-.18Zm.32.27s.05.04.02.04-.07-.02-.11-.04-.05-.04-.02-.04.07.02.11.04Zm.04.26s-.09.04-.13.04c-.06,0-.06,0,0-.04.04-.02.09-.04.13-.04.06,0,.06,0,0,.04Zm-.04-1c-.06,0-.08,0-.05-.02.03-.01.08-.01.11,0,.03.01,0,.02-.05.02Zm.2.24s-.01.02-.06.02c-.05,0-.06-.01-.03-.03.03-.01.07-.01.08,0Zm0-10.96c.01-.06.04-.11.05-.11s.02.04.01.09c-.03.13-.09.15-.07.02Zm.31.93s-.03-.02-.02-.04c.01-.02.05-.04.07-.04s.03.02.02.04-.05.04-.07.04Zm-.02-.8s.03-.08.03-.1.03-.05.06-.06c.05-.02.05,0,0,.1-.07.13-.13.18-.08.06Zm-.09.93s-.01-.04.01-.02c.03.02.06,0,.07-.03.02-.04.02-.04.03,0,0,.07-.07.11-.11.05Zm1.66,8.68s0,.02-.08.02-.12,0-.08-.02c.04-.01.11-.01.15,0Zm-.25.03s-.02.04-.05.02c-.03-.02-.07,0-.09.03-.03.05-.04.05-.02,0,.02-.08.16-.12.16-.04Zm-.15-.23s.06,0,.04.02c-.01.02-.04.04-.07.04-.06,0-.05-.03.03-.06Zm-.04.13s.06,0,.04.02c-.01.02-.04.04-.07.04-.06,0-.05-.03.03-.06Zm-.81-8.6s.05-.05.07-.11c.04-.16.08-.1.05.07-.03.13-.08.17-.13.09-.01-.02,0-.04.01-.04Zm-.04.09s.05,0,.04.04c-.01.03-.04.07-.08.08-.03.01-.05,0-.04-.04.01-.03.04-.07.08-.08Zm0,8.23h0c-.09.06-.13.05-.07-.02.03-.03.07-.05.09-.04.02.01.01.04-.02.06Zm.03-7.5s-.02-.02-.02-.04.02-.04.05-.04.03.02.02.04c-.01.02-.04.04-.05.04Zm.27,8.48s.05-.03.03.03c-.02.05-.07.07-.16.07-.12,0-.12,0-.03-.03.06-.01.13-.04.16-.07Zm-.1-1.68s.04-.04.05-.04.02.02.02.04-.02.04-.05.04-.03-.02-.02-.04Zm.32,1.04c.08-.05.14-.05.11,0-.01.02-.06.04-.1.04-.06,0-.06,0,0-.04Zm.27.18c-.02.08-.05.1-.05.04,0-.02-.05-.05-.12-.06-.11-.01-.1-.02.04-.04.13-.02.15-.01.14.06Zm-.05-.82c.07,0,.12.01.11.03-.03.05-.23.05-.23,0,0-.02.06-.03.13-.04Zm0-.52c.1-.04.2-.06.23-.05.03.01-.06.05-.2.09-.14.04-.3.08-.34.1-.05.01-.07,0-.05-.03.02-.03.07-.05.11-.05s.16-.03.26-.07Zm-.28-.23c.06,0,.11.01.11.03s-.06.03-.13.03-.12-.01-.11-.03.07-.03.13-.03Zm-.1.58s0,.02-.08.02c-.07,0-.1-.01-.05-.02.04-.01.1-.01.13,0Zm-.1-.52s-.04.03-.09.04c-.05.01-.09,0-.09-.02s.04-.04.09-.04.09,0,.09.02Zm-.13-6.12s.02-.04.05-.04.03.02.02.04c-.01.02-.04.04-.05.04s-.02-.02-.02-.04Zm.04-.54s-.04,0-.04-.02.02-.06.04-.07c.02-.01.04,0,.04.02s-.02.06-.04.07Zm.08-.66c.02-.09.03-.1.04-.04,0,.04,0,.1-.02.12-.03.03-.03,0-.02-.08Zm.05.68s-.04.05-.04.02.02-.07.04-.11.04-.05.04-.02-.02.07-.04.11Zm.43,5.33s-.02.04-.05.04-.03-.02-.02-.04c.01-.02.04-.04.05-.04s.02.02.02.04Zm-.09-4.81s.04-.03.04-.06.02-.07.04-.07c.02,0,.05-.04.06-.08,0,0,0,0,0,0,.02-.09-.01-.11-.09-.03-.04.04-.05.04-.02-.02.02-.04.06-.07.1-.07.04,0,0,.07.02.12,0,0,0,0,0,0,0,0,0,0,0,0,0,.05.05.08.02.13-.09.11-.2.19-.2.14,0-.03.02-.05.04-.05Zm-.09,5.42s-.04-.02-.04-.04.02-.04.04-.04.04.02.04.04-.02.04-.04.04Zm.04-4.18s.03-.04.08-.08c.07-.05.07-.05.02.02-.06.07-.09.1-.09.06Zm.31,4.01s.02.06,0,.08c-.03.05-.1.04-.1,0,0-.02-.04-.03-.09-.02-.05,0-.09,0-.09-.02,0-.06.24-.09.27-.03Zm.48-1.42s.09-.07.12-.07.02.03-.03.06h0c-.11.08-.17.08-.09,0Zm.04-1.05s.02-.05.06-.05c.04,0,.06-.02.04-.05-.02-.03-.01-.04.02-.02.04.02.03.06-.04.13-.09.09-.08.19.01.11.03-.02.07-.02.12.01.06.04.05.06-.05.14-.11.09-.11.09-.12,0,0-.05-.04-.13-.08-.17-.06-.07-.06-.08-.01-.07.04,0,.06-.01.05-.04Zm-.05.29s.04.02.04.04-.02.05-.04.06c-.02.01-.04,0-.04-.04s.02-.06.04-.06Zm-.05-.68s0,.05-.06.09c-.06.04-.11.06-.11.04,0-.06.12-.15.18-.13Zm-.38-.16s.1-.06.13-.06c.03,0,0,.03-.04.07-.05.04-.1.06-.13.06-.03,0,0-.03.04-.06Zm-.09,2.58c-.05,0-.06-.01-.03-.03.03-.01.07-.01.08,0,.01.01-.01.02-.06.02Zm.02-.99c-.06,0-.05-.03.03-.06.04-.01.06,0,.04.02-.01.02-.04.04-.07.04Zm.13-.3s.05.02.05.04,0,.04-.02.04-.03-.02-.05-.04c-.01-.02,0-.04.02-.04Zm.04,1.17s-.03-.02-.02-.04c.01-.02.04-.04.05-.04s.02.02.02.04-.02.04-.05.04Zm.49-.51c-.05.03-.09.07-.07.08.01.01,0,.05-.04.08-.05.04-.07.04-.07,0,0-.03.02-.05.05-.05s.04-.01.02-.03c-.01-.01-.11,0-.2.04-.28.11-.26.08.02-.06.26-.12.49-.18.29-.07Z"/>
  </g>
</svg>