<?xml version="1.0" encoding="UTF-8"?>
<svg id="Layer_2" data-name="Layer 2" xmlns="http://www.w3.org/2000/svg" viewBox="0 0 32.21 33.94">
  <defs>
    <style>
      .cls-1 {
        stroke-width: 0px;
      }
    </style>
  </defs>
  <g id="Layer_1-2" data-name="Layer 1">
    <path class="cls-1" d="m4.69,16.01c.22-.14.4-.35.49-.6.57-1.5,1.99-1.87,1.99-1.87l-.83,2.83c-.15.5-.51.91-1,1.11-2.27.94-3.16,2-3.5,2.76-.22.48.1,1.03.62,1.08l1.31.14c-8.12.49-.87-4.34.92-5.46Zm5.55,6.68c-10.83,3.45-2.91,9.46-2.91,9.46-4.54-4.97,2.91-9.46,2.91-9.46Zm-7.01-3.02c1.29.36,1.47-.68,1.47-.68-1.36-.52-1.47.68-1.47.68ZM28.74,1.09c-2.61-1.53-5.86-1.41-8.44.17-5.73,3.53-4.69,7.52-2.21,14.1,1.79,4.75.91,7.21.01,8.39.08-3.2-2.07-6.43-9.22-8.49-.49-.14-.89-.48-1.11-.94l-.37-.77-.25,2.76c-.05.55.34,1.04.88,1.12.99.15,2.59.48,4.1,1.25-3.46-.19-6.19,2.16-7.25,3.23-.34.34-.71.64-1.12.89-4.38,2.71.04,3.92.04,3.92l-.31-.95c-.12-.35.06-.73.4-.87.99-.41,1.82-1.12,2.39-2.03.85-1.33,1.86-2.21,2.87-2.79,2.41-1.39,5.51-.35,6.52,2.24.52,1.34.63,3.05.05,5.21-.15.57-.34,1.09-.54,1.56-.09.08-.15.13-.15.13,0,0,.04,0,.1-.02-2.13,4.73-6.63,4.12-9.49,3.12-1.53-.53-3.22.15-3.93,1.62v.02s6.36,0,6.36,0c2.99,0,5.8-1.44,7.54-3.88.26-.37.52-.75.76-1.15,3.62-.9,12.9-4.12,6.04-12.36-2.21-2.65-3.27-4.91-3.65-6.81-1.04-5.26,4.56-9.47,9.3-6.98,4.48,2.35,3.58,8.57,3.58,8.57,1.62-5.89-.43-8.81-2.89-10.25Zm-.73,12.73s5.61-5.37.75-9.26c-.89-.71-1.97-1.19-3.11-1.27-1.44-.11-3.36.31-4.6,2.82-1.17,2.37-1.02,5.17.3,7.45.5.87,1.17,1.88,2.07,2.99,2.97,3.7,1.74,6.6,1.74,6.6,0,0,2.15-3.73-1.58-8.82-1.09-1.49-1.66-3.33-1.46-5.17,0-.03,0-.06.01-.1.27-2.22,3.52-2.31,3.86-.09.12.78-.06,1.64-.87,2.5,0,0,3.64-.99,3.05-4.22,0,0,2.3,3.93-.16,6.55Z"/>
  </g>
</svg>