<?xml version="1.0" encoding="UTF-8"?>
<svg id="Layer_2" data-name="Layer 2" xmlns="http://www.w3.org/2000/svg" viewBox="0 0 33.93 33.94">
  <defs>
    <style>
      .cls-1 {
        stroke-width: 0px;
      }
    </style>
  </defs>
  <g id="Layer_1-2" data-name="Layer 1">
    <path class="cls-1" d="m4.34,16.42c0-.13.01-.38.02-.5.23-.09.39-.03.5.17.1.36-.27.36-.52.34Zm18.17,16.6c-3.36,1.17-7.09,1.23-10.49.2-3.36-1.02-6.37-3.11-8.51-5.89C1.21,24.36-.06,20.6,0,16.84,0,12.97,1.41,9.12,3.89,6.15,6.49,2.99,10.27.83,14.31.21c3.16-.5,6.47-.09,9.41,1.19,2.97,1.28,5.56,3.44,7.35,6.13,1.92,2.84,2.93,6.28,2.86,9.71-.04,3.53-1.23,7.04-3.35,9.87-2.02,2.72-4.87,4.81-8.07,5.91ZM3.38,16.42c-.08.58.46.94.94,1.1.72-.12,1.28-.97.76-1.61-.48-.71-1.67-.32-1.7.51Zm17.22,9.6c2.17-2.25,3.32-5.35,3.49-8.45-.41.37-.85.74-1.39.9.86-1,1.28-2.3,1.27-3.61-.44.42-.9.84-1.48,1.03.61-.69,1.28-1.43,1.23-2.43-.41.33-.85.61-1.35.8.46-.51.92-1.09.98-1.8.03-.55.08-1.09.26-1.61-.38.28-.69.62-1.01.96.25-1.17,1.23-2.07,2.32-2.46,1.76-.63,3.74-.83,5.54-.25-.59-.64-1.46-.85-2.27-1.06.21-.03.64-.1.85-.13-.6-.45-1.39-.38-2.03-.1.25-.27.64-.43.8-.78-.74-.39-1.6-.35-2.39-.14.29-.34.6-.67.85-1.04-.86-.1-1.67.2-2.37.68.39-.51.88-.93,1.39-1.32-.93-.03-1.83.22-2.62.71.04-.54.22-1.05.54-1.48-1.08-.07-2.01.58-2.56,1.46.08-.66.23-1.32.48-1.94-1.06.27-1.81,1.11-2.44,1.95-.18-.43-.21-.88-.2-1.34-.84.45-1.24,1.36-1.42,2.26-.36-.5-.29-1.16-.03-1.69-.29.26-.63.5-.77.89-.25.6-.09,1.25-.06,1.88-.31-.42-.53-.89-.71-1.37-.42.87-.18,1.82.27,2.62-.48-.34-.74-.87-.97-1.39-.28.97.07,1.95.55,2.79-.36-.28-.7-.58-1.05-.86.1,1.76,1.21,3.22,2.11,4.67,1.36,1.98,2.64,4.07,3.21,6.43.28,1.13.27,2.34-.18,3.42-.16-.78-.12-1.61-.44-2.36-.67-1.94-2.43-3.4-4.41-3.85-1.85-.39-3.78-.97-5.17-2.33-.85-.79-1.38-1.89-1.47-3.05-.73.32-1.23.95-1.74,1.54-.59.29-1.22.53-1.66,1.04.71.23,1.27,1.03.92,1.76-.28.72-1.18.91-1.83.58-.08.49-.21.98-.25,1.48.13.39.6.35.93.35,1.09-.05,2.14-.4,3.16-.77-.25.48-.26,1.03-.45,1.52-.82.91-2.43.56-3.09,1.66.45.33,1.01.47,1.58.43,1.73-.14,3.41-.69,4.98-1.43.85-.41,1.79-.58,2.73-.52-.65.2-1.33.37-1.9.76-1.36.86-2.18,2.5-2.02,4.11.09,1.45.99,2.72,2.17,3.51-.97.19-2.34.19-2.76,1.29,1.58-.03,3.15.02,4.73-.02.55-.02.39-.9.97-.83,2.35-.25,4.58-1.37,6.21-3.07Z"/>
  </g>
</svg>