<?xml version="1.0" encoding="UTF-8"?>
<svg id="Layer_2" data-name="Layer 2" xmlns="http://www.w3.org/2000/svg" viewBox="0 0 33.94 32.52">
  <defs>
    <style>
      .cls-1 {
        stroke-width: 0px;
      }
    </style>
  </defs>
  <g id="Layer_1-2" data-name="Layer 1">
    <path class="cls-1" d="m.57,14.64c-.75.42-.76,1.63-.02,2.06.76.55,1.93-.1,1.88-1.03.05-.92-1.11-1.57-1.86-1.03Zm.78.45c.35-.1.47.02.35.37-.35.1-.47-.02-.35-.37Zm.06-.98c.55-.63,1.28-1.01,2.06-1.28.64-.82,1.39-1.55,2.29-2.1.08,1.42.7,2.79,1.71,3.78,1.69,1.72,4.07,2.51,6.38,2.98,2.2.48,4.24,1.87,5.28,3.9.64,1.15.85,2.48.89,3.78.71-1.42.52-3.09.12-4.57-.65-2.28-1.78-4.41-3.1-6.37-1.12-1.74-2.39-3.42-3.1-5.38-.25-.62-.27-1.29-.24-1.95.27.52.69.94,1.17,1.26-.62-1.03-.97-2.29-.58-3.48.25.63.55,1.26,1.06,1.73-.5-1.01-.77-2.24-.13-3.26.14.62.4,1.2.74,1.72,0-.8-.2-1.65.17-2.4.22-.47.67-.75,1.07-1.06-.44.65-.51,1.5-.11,2.19.17-1.17.74-2.36,1.89-2.85-.09.53-.1,1.08.08,1.6.54-.4.84-1.03,1.38-1.43.5-.46,1.14-.74,1.79-.92-.31.74-.54,1.51-.61,2.31.7-1.08,1.9-1.82,3.22-1.68-.42.52-.67,1.15-.78,1.81,1.02-.58,2.18-.98,3.37-.83-.62.44-1.21.92-1.69,1.5.88-.59,1.93-.89,2.99-.68-.4.39-.82.77-1.1,1.25,1-.37,2.12-.27,3.04.28-.32.22-.64.43-.95.66.89-.19,1.79-.03,2.6.38-.42.05-.84.11-1.25.18,1.06.2,2.17.54,2.86,1.42-2.15-.85-4.55-.58-6.7.1-1.43.43-2.74,1.5-3.18,2.96.45-.43.91-.86,1.39-1.26-.64.97-.25,2.19-.76,3.2-.21.45-.55.83-.85,1.23.57-.27,1.09-.62,1.57-1.02.1,1.23-.66,2.19-1.44,3.04.71-.27,1.25-.8,1.75-1.35.05,1.65-.45,3.32-1.52,4.6.64-.26,1.18-.71,1.69-1.17-.21,4.16-1.83,8.36-4.94,11.22-2.08,1.94-4.82,3.07-7.64,3.35-.1.49-.37,1.03-.96.99-1.93,0-3.88.1-5.81-.07.61-1.3,2.22-1.41,3.46-1.58-1.84-1.22-3-3.48-2.6-5.69.33-2.38,2.36-4.37,4.75-4.67-1.13-.13-2.25.13-3.27.62-1.57.73-3.2,1.32-4.91,1.6-.97.17-2.09.35-2.99-.18-.31-.15-.24-.55.02-.71,1.06-.8,2.62-.64,3.56-1.64.25-.58.17-1.28.57-1.81-1.54.52-3.2,1.19-4.84.84-.64-.55.04-1.5,0-2.22.77.29,1.79.27,2.22-.55.59-.92-.14-2.07-1.11-2.31Z"/>
  </g>
</svg>