<?xml version="1.0" encoding="UTF-8"?>
<svg id="Layer_2" data-name="Layer 2" xmlns="http://www.w3.org/2000/svg" viewBox="0 0 33.94 27.64">
  <defs>
    <style>
      .cls-1 {
        stroke-width: 0px;
      }
    </style>
  </defs>
  <g id="Layer_1-2" data-name="Layer 1">
    <path class="cls-1" d="m33.92,14.41c-.08-.09-.16-.18-.24-.27.11-.17.3-.34.22-.56-.15-.24-.53-.15-.68.06-.03,0-.08-.01-.11-.01-.13-.51-.68-.6-1.13-.51,0,.22-.01.44-.01.66-.26,0-.53,0-.77-.1-.69-.24-1.4-.42-2.09-.65-.06-.01-.18-.04-.24-.05-.29-.12-.59-.2-.87-.31-.23-.23-.57-.39-.67-.72.05-.05.14-.16.19-.21v-.07s.08.02.08.02c.14-.11.28-.2.42-.3.74-.32,1.56-.25,2.35-.25l-.04-.1c.08,0,.24,0,.32-.01.05-.1.1-.2.15-.3.17-.07.34-.16.51-.25.05-.14.1-.28.15-.42.06,0,.19-.02.25-.03.07-.24.13-.47.19-.71h-.12c-.01-.06-.03-.2-.05-.27-.17-.1-.33-.21-.49-.32-.09-.18-.17-.36-.25-.54l-.06.02c-.08-.19-.17-.38-.26-.57l-.05.04c-.14-.27-.32-.5-.51-.73-.12-.1-.23-.2-.33-.31-.11-.09-.21-.17-.31-.26-.17-.09-.35-.18-.53-.25l.02-.06c-.21-.07-.41-.14-.61-.21-.06-.01-.17-.03-.23-.04-.37-.18-.78-.17-1.17-.27-.16-.02-.31-.04-.46-.06-.05-.2-.1-.4-.17-.6-.14-.1-.27-.2-.41-.3l.02-.04c-.13-.04-.26-.09-.39-.13-.19.03-.37.07-.56.11-.11.08-.21.16-.32.23-.08.11-.17.22-.25.33-.06.22-.11.45-.18.66-.11.14-.27.23-.41.35-.11.11-.21.23-.31.35-.12.2-.24.41-.36.61-.16.53-.37,1.06-.4,1.62-.05.3.04.67-.24.88-.08.07-.15.14-.22.22-.12.11-.25.21-.38.31-.26.23-.53.45-.79.68-.26.22-.52.44-.78.65-.11.1-.22.2-.33.31-.09.07-.18.14-.28.2l.02.08h-.07c-.1.08-.21.17-.31.26-.42.39-.82.79-1.22,1.19-.29.37-.64.71-.81,1.16l-.05-.02c-.37.96-.69,1.95-.86,2.97-.09.9-.22,1.8-.16,2.71-.43-.09-.82-.29-1.24-.4-.2-.14-.42-.25-.64-.34-.32-.23-.6-.49-.86-.77-.11-.17-.21-.34-.31-.52l-.05.05c-.07-.22-.15-.43-.24-.64,0-.04.02-.11.03-.15h-.13c-.22-1.34-.17-2.71-.05-4.06.01-.99.28-1.95.27-2.94.1-1.08.04-2.16-.05-3.23-.04-.17-.06-.34-.09-.51l-.08.03c-.02-.36-.05-.72-.21-1.05,0-.07-.02-.21-.03-.28l-.08.03c-.05-.21-.11-.42-.19-.62-.12-.21-.22-.43-.34-.64-.1-.17-.19-.34-.27-.51l-.05.02c-.1-.16-.2-.32-.31-.48-.1-.11-.2-.23-.3-.35-.09-.1-.17-.2-.26-.3-.11-.11-.22-.22-.33-.33-.1-.08-.2-.15-.3-.23-.12-.1-.23-.2-.35-.3-.15-.13-.32-.24-.49-.33l.04-.06c-.2-.09-.39-.18-.59-.27l.04-.06c-.23-.09-.46-.19-.69-.27l.04-.06c-.17-.06-.34-.12-.5-.19-.32-.16-.67-.23-1-.35-.1,0-.29-.02-.39-.03l.02-.08c-1.05-.15-2.12-.15-3.17,0l.03.08c-.07,0-.21.02-.28.03-.2.1-.41.16-.62.22l.03.05c-.21.09-.41.19-.6.32-.13.1-.27.19-.4.28-.21.21-.4.44-.58.68-.07.11-.13.22-.2.33-.17.24-.26.52-.3.81l-.08-.03c-.02.1-.05.29-.06.39-.12.6-.1,1.22.07,1.81l.07-.03c.06.24.14.48.26.7l.07-.04c.05.1.1.2.15.3.04.03.11.08.15.11.37.35.79.66,1.27.83l-.04.05c.21.09.42.17.63.25.2.18.45.26.7.33l-.03.06c.44.21.82.52,1.18.84.22.29.42.59.61.9.11.24.18.48.28.72,0,.07.02.21.02.28l.1-.03c.03.33.07.67.1,1,.02,0,.07.01.1.02.07,2.53-.07,5.06.06,7.59.12.49.12,1,.2,1.5l.07-.03c.04.42.18.82.26,1.23l.06-.04c.07.3.18.6.27.9l.06-.04c.16.55.53,1.01.95,1.37.18.11.37.22.53.35.16.06.32.11.49.17l-.02.07c.24.1.49.2.71.33.2.09.4.17.6.24,0,.02,0,.05,0,.07.2.06.41.14.61.22.07,0,.2.02.26.03l-.02.09c.36.09.71.2,1.08.26,0,.02-.01.06-.01.08.35.06.7.09,1.06.14.73.14,1.52.05,2.17-.31.16-.07.33-.13.49-.19l-.03-.06c.2-.08.39-.17.59-.25l-.04-.06c.19-.07.37-.16.54-.27.11-.06.22-.12.33-.17.06.14.11.29.17.43.11.12.22.24.31.38.17.09.34.18.51.26l-.02.06c.53.17,1.04.38,1.57.53.87.33,1.82.19,2.73.24.06.15.13.29.23.41,0,.02.02.06.02.08.09.09.18.18.26.27,1.14.25,2.32.12,3.47.09.64-.09,1.28.03,1.91.15l-.03.09h.24s0-.04,0-.04c.1-.09.19-.19.26-.31.03,0,.08.02.11.03.04-.08.12-.23.17-.3-.12-.02-.24-.04-.35-.05.07-.13.12-.27.18-.41-.07-.05-.19-.16-.26-.21-.45-.21-.94-.23-1.43-.24l.04-.1c-.38,0-.76,0-1.14,0l.04.1c-.44,0-.89.01-1.33,0l.06-.08c-.24-.03-.47-.08-.69-.13-.02-.33-.01-.65,0-.98l.08.02c.05-.25.16-.48.32-.67.07-.12.14-.24.22-.35.06-.08.12-.17.19-.25.17-.26.33-.51.42-.81l.07.04c.1-.26.19-.52.25-.78l.08.02c.25-.87.28-1.79-.01-2.65l-.07.05c-.07-.22-.11-.49-.35-.6-.27-.36-.03-.8,0-1.19l.09.04c0-.07.02-.2.03-.27.1-.23.17-.47.22-.71l.06.02c.09-.23.18-.46.27-.7.5.03,1.07.28,1.51-.07.2-.1.41-.18.62-.25l-.03-.06c.3-.08.6-.18.91-.25l-.03-.08c.81-.12,1.65-.25,2.46-.04.13.15.27.29.43.41.23.09.41.25.56.44.06-.02.18-.07.24-.09,0-.07,0-.2,0-.27.1.07.2.15.29.22.16-.03.33-.07.39-.25.08,0,.23.02.31.02-.02-.18-.03-.36-.04-.55.08-.01.25-.03.34-.04.02-.28.02-.57,0-.85Z"/>
  </g>
</svg>