<?xml version="1.0" encoding="UTF-8"?>
<svg id="Layer_2" data-name="Layer 2" xmlns="http://www.w3.org/2000/svg" viewBox="0 0 33.94 33.94">
  <defs>
    <style>
      .cls-1 {
        stroke-width: 0px;
      }
    </style>
  </defs>
  <g id="Layer_1-2" data-name="Layer 1">
    <path class="cls-1" d="m25.49,2.29C22.18.35,18.21-.38,14.42.19,8.98.97,4.06,4.61,1.69,9.58-.21,13.45-.52,18.06.81,22.16c1.65,5.26,6.03,9.55,11.33,11.08,5.43,1.65,11.65.33,15.91-3.42,4.16-3.53,6.41-9.16,5.79-14.58-.48-5.33-3.72-10.29-8.36-12.95ZM9.21,29.25c-1.21-.99-2.02-2.53-1.99-4.11-.03-1.52.77-2.92,1.8-3.98-1.17.25-2.46.35-3.55-.23-.94-.52-1.95-1.08-2.54-2.01.33-.46.93-.26,1.39-.16.68.22,1.38.33,2.09.36-1.08.14-2.11-.26-3.17-.26.71.9,1.8,1.43,2.86,1.81,2.24.72,4.2-1.24,6.43-.95.45-.09.78.58.35.81-.53.15-1.1.1-1.62.32-1.49.51-2.54,1.9-2.93,3.39-.33,1.39.22,2.89,1.24,3.86,2.05,2.03,5.87,1.81,7.62-.5,1.1-1.42,1.24-3.44.48-5.04-.74-1.57-2.16-2.7-3.71-3.41-1.96-.89-3.76-2.31-4.69-4.3-.63-1.29-.85-2.74-.77-4.16-.58.5-.92,1.19-1.13,1.92-.72-.05-1.47.1-2.04.57-1.06.8-1.45,2.12-1.98,3.27-.24.33.27.5.51.58,1.03.25,2.1.17,3.14.12-1.16.16-2.4.39-3.53.01-.38-.1-.63-.56-.41-.92.47-1.17.81-2.47,1.77-3.36.55-.55,1.29-.83,2.05-.95.24-1.33,1.34-2.33,2.65-2.56-.32,1.53-.27,3.16.37,4.6.68,1.61,2.01,2.9,3.54,3.71.82.44,1.7.77,2.48,1.29,1.61,1.03,2.91,2.65,3.27,4.55.39,1.83-.13,3.86-1.44,5.21-2.15,2.29-6.13,2.54-8.53.5Zm-2.84-15.47c-.26.61-.89.89-1.53.77.09-.66.96-1.22,1.53-.77Zm16.77,11.35c-.5,2-1.93,3.76-3.87,4.52,1.28-1.05,2.31-2.47,2.66-4.11.57-2.55-.18-5.16-1.14-7.52-.68-1.87-1.3-3.94-.72-5.92.28-1.03,1.22-1.97,2.35-1.87,1.34.1,2.31,1.25,2.77,2.42-.54-.54-1.03-1.16-1.75-1.45-.51-.21-1.16-.32-1.63.04-.62.45-.73,1.29-.72,2.01.06,1.72.69,3.36,1.32,4.94.85,2.18,1.31,4.62.73,6.93Zm5.65-8.65c-1.19,1.08-3.13,1.33-4.48.39-.78-.52-1.25-1.37-1.48-2.25.5.5.91,1.12,1.57,1.45.93.53,2.15.42,3.02-.18.98-.64,1.48-1.87,1.34-3.02-.23-1.62-1.04-3.18-2.32-4.21-.92-.76-2.04-1.24-3.19-1.51,1.14-.22,2.32.06,3.36.53,1.89.87,3.16,2.77,3.54,4.78.28,1.45-.21,3.06-1.35,4.01Zm-1.28-10.08c-1.88-1.05-4.26-1.07-6.18-.11-1.74.84-2.78,2.73-2.92,4.61-.17,2.21.39,4.4,1.1,6.47.73,2.22,2.05,4.34,1.89,6.76-.07,3.12-2.45,5.74-5.23,6.88,1.83-1.19,3.45-2.9,4.01-5.06.45-1.75.08-3.6-.69-5.19-1.37-2.9-2.6-6-2.55-9.25,0-2.23,1.03-4.49,2.88-5.79,2.4-1.58,5.76-1.59,8.11.09,1.51,1.06,2.52,2.71,2.99,4.48-.76-1.56-1.85-3.04-3.4-3.88Z"/>
  </g>
</svg>