<?xml version="1.0" encoding="UTF-8"?>
<svg id="Layer_2" data-name="Layer 2" xmlns="http://www.w3.org/2000/svg" viewBox="0 0 27.97 33.94">
  <defs>
    <style>
      .cls-1 {
        stroke-width: 0px;
      }
    </style>
  </defs>
  <g id="Layer_1-2" data-name="Layer 1">
    <path class="cls-1" d="m27.87,23.87c-.76.87-1.96,1.35-3.11,1.24-.1,0-.2-.02-.3-.04-1.21-.2-2.33-.84-3.54-1.06-.17-.03-.34-.05-.52-.06-.09,0-.17,0-.26,0-.07,0-.22-.13-.17-.13.03,0,.07,0,.09,0,.21,0,.41.03.61.07.64.12,1.24.34,1.82.55.59.22,1.14.42,1.71.51.09.01.18.03.27.03.09,0,.18.01.27.01.86,0,1.72-.37,2.3-.99-.14-.67-.27-1.27-.45-1.86-.21-.7-.44-1.33-.7-1.94-.64-1.44-1.37-2.36-2.25-2.83-.1-.05-.26-.14-.39-.33-.08-.13-.11-.25-.13-.32-.28-1.22-.3-2.23-.06-3.02-.22.2-.45.43-.67.69-.26.3-.48.63-.67.97-.07.12-.13.25-.19.38-.03.06-.05.11-.08.16-.01.02-.03.07-.04.12-.16.42-.26.7-.58.8-.12.03-.23.07-.34.11-.72.27-1.3.59-1.77,1.01-.06.05-.12.11-.18.16-.18.17-.37.34-.6.49-.46.3-1.03.47-1.75.52-.26.02-.51.03-.77.03-.66-.63-1.18-1.07-1.35-1.1.8.09,1.63.11,2.43.05.52-.04,1.04-.15,1.48-.43.26-.17.48-.39.72-.6.58-.5,1.24-.85,1.95-1.11.12-.04.25-.08.37-.12.07-.02.23-.51.27-.61.09-.2.18-.39.28-.58.21-.38.46-.74.74-1.07.56-.66,1.35-1.38,2.2-1.62.31-.09.48.34.2.49-.26.14-.45.32-.59.58-.47.9-.32,2.17-.1,3.12.01.05.02.1.05.14.04.07.12.1.18.14,1.19.63,1.96,1.89,2.49,3.09.29.65.53,1.33.73,2.01.19.66.34,1.32.48,2,.01.06.03.12,0,.18-.01.06-.05.1-.09.15Zm-7.34,9.5h.05s1.88.26,1.88.26l1.88.24.51.07c-.47-.94-1.11-1.69-2.13-2.06-.52-.19-1.1-.27-1.55-.61-.5-.39-.65-.97-.89-1.52-.26-.6-.56-1.2-.46-1.88.08-.53.39-.98.62-1.47.29-.61.45-1.28.46-1.95-.13,1.42-1.44,2.49-1.41,3.9.01.62.31,1.19.5,1.77.18.56.41,1.12.87,1.5.88.72-3.36-.56-4.28-2.27-.91-1.69-1.11-3.77-.45-5.58-.1.22-.19.44-.27.67-.57,1.73-.41,3.63.43,5.25.43.84,1.02,1.51,1.7,2.08.74.62,1.6,1.11,2.5,1.56,0,0,.03.02.03.02Zm-13.92-1.95c.55.24,1.17.33,1.77.31.01,0,.03,0,.04,0-.02.17-.02.35,0,.53.03.26.12.53.29.76.16.23.38.41.62.53.24.12.49.2.74.25.41.08.83.1,1.25.09.4,0,.8-.08,1.2-.11.84-.07,1.68-.08,2.53-.06,1.19.03,2.38.08,3.57.15l.52.03c-.07,0-.31-.42-.36-.49-.17-.23-.35-.44-.54-.65-.38-.41-.81-.79-1.3-1.06-1.32-.75-2.81.11-4.18.32.56,0,3.56,1.19,3.11,1.17-.97-.06-1.94-.05-2.91.01-.93.06-1.86.27-2.79.11-.43-.07-.84-.24-1.09-.55-.12-.15-.2-.34-.23-.55-.04-.21-.03-.43,0-.65.01-.12.06-.22-.05-.25-.13-.03-.39.06-.53.08-.36.03-.71.02-1.07-.05-.55-.1-1.08-.34-1.5-.72-.29-.26-.51-.57-.7-.91.07.17.15.34.24.5.32.55.8.97,1.39,1.23Zm6.98-.53c.91-1.97,1.64-4.15,1.67-6.34.02-1.23-.26-2.64-1.34-3.39-.33-.23-.7-.36-1.04-.42-.34-.06-.65-.06-.92-.05-.27.02-.5.06-.69.11-.19.04-.33.09-.43.13-.1.03-.15.06-.15.06,3.43,2.32,4.07,5.91,2.63,10.45,0,0,.1-.2.26-.54Zm-8.41.04c.19.33.3.5.3.5,0,0-.11-.17-.27-.52-.17-.34-.4-.85-.63-1.52-.43-1.29-.69-2.68-.64-4.04.03-.55.11-1.12.25-1.7.16-.58.39-1.16.7-1.72.32-.56.71-1.1,1.18-1.59,2.17-2.31,5.33-2.91,7.89-4.64,2.02-1.37,3.71-3.35,4.35-5.74.22-.81.33-1.64.32-2.47,0-.83-.14-1.65-.38-2.42-.24-.78-.6-1.5-1.05-2.15C15.44.36,12.52-.41,9.59.19c-.61.13-1.18.31-1.7.54-.52.23-.98.51-1.38.82-.81.6-1.38,1.29-1.78,1.88-.4.6-.62,1.12-.76,1.48-.14.36-.18.56-.18.56,3.31-7.67,21.97,1.39,9.74,9.86-2.5,1.73-5.73,2.32-7.77,4.72-.23.27-.47.54-.66.83-.21.28-.37.58-.55.87-.31.6-.53,1.22-.68,1.82-.13.61-.21,1.2-.21,1.77,0,.78.1,1.55.27,2.31.13.6.32,1.2.55,1.78.26.67.53,1.17.71,1.5Zm-3.57-4.67c.29.76.61,1.43.92,2.02.3.58.6,1.07.86,1.47.26.4.47.7.62.9.15.2.24.31.24.31,0,0-.08-.11-.21-.32-.14-.21-.32-.53-.55-.94-.46-.82-1.05-2.02-1.57-3.54-.26-.76-.48-1.59-.64-2.49-.16-.9-.24-1.86-.2-2.84.03-.99.2-2,.51-2.98.31-.98.77-1.94,1.36-2.81,1.8-2.66,4.73-4.23,6.62-6.82.37-.5.7-1.04.88-1.64.28-.96,0-1.81-.71-2.54-2.19-2.25-5.51,1.92-5.51,1.92-.02.11,8.19-3.23-.9,7.3-.72.83-1.95,3.39-2.27,4.43-.32,1.04-.47,2.1-.49,3.13-.02,1.03.1,2.02.29,2.94.19.92.46,1.76.75,2.52Zm-1.1-8.76c.08-.47.19-.97.33-1.47.14-.5.32-1.01.53-1.51.21-.5.48-.99.78-1.44.9-1.36,2.37-2.07,3.35-3.34.38-.49.64-1.12.47-1.71-.13-.44-.48-.78-.88-1-.4-.22-.85-.32-1.29-.43,3.33,1.77-1.2,4.76-2.12,6.16-.32.49-.6,1.01-.81,1.54-.22.53-.38,1.07-.51,1.6-.13.53-.21,1.05-.26,1.54-.05.49-.08.96-.08,1.39,0,.43.01.82.04,1.17.02.35.06.65.09.9.07.49.14.77.14.77,0,0-.02-.28-.02-.78,0-.5.01-1.2.09-2.04.04-.42.1-.87.17-1.35Z"/>
  </g>
</svg>