<?xml version="1.0" encoding="UTF-8"?>
<svg id="Layer_2" data-name="Layer 2" xmlns="http://www.w3.org/2000/svg" viewBox="0 0 33.94 33.6">
  <defs>
    <style>
      .cls-1 {
        stroke-width: 0px;
      }
    </style>
  </defs>
  <g id="Layer_1-2" data-name="Layer 1">
    <path class="cls-1" d="m12.09,33.12c.12,0,.24.01.36.02v.08c1.08.1,2.19.12,3.29.03.66-.07,1.31.06,1.97.1.23.11.48.08.73.09v.07c1.03.04,2.07.18,3.09-.03.95-.13,1.91-.06,2.87-.04.07-.11.15-.21.22-.31.14,0,.27,0,.41.01.05-.12.09-.25.14-.37.04-.03.11-.08.15-.11.1-.21.12-.44.09-.67-.12-.09-.23-.19-.35-.29-.1-.08-.2-.15-.29-.23-.02,0-.07,0-.09-.01-.09-.12-.24-.16-.37-.21-.03-.04-.08-.11-.1-.15-.22-.06-.45-.12-.68-.14l.03-.09h-.32l.02.09c-.28.01-.56.07-.83.16-.26.13-.55.18-.8.31-.06,0-.18.02-.24.03v.09c-.19.04-.39.08-.59.12v.08c-.63.03-1.25.03-1.88,0,0-.04,0-.13,0-.17.15-.04.31-.09.46-.14.42-.14.8-.36,1.23-.47v-.06c.22-.08.43-.17.63-.29.15-.08.3-.18.48-.16.69.04,1.38.06,2.07,0,.28-.03.47-.32.77-.27.66,0,1.35-.1,1.99.1.14-.07.29-.13.33-.3.18-.04.37-.07.55-.1,0-.07.02-.21.02-.28h.09c.18-.23.25-.51.22-.81-.16-.14-.32-.28-.49-.4v-.04c-.13-.08-.26-.15-.38-.23-.15-.09-.3-.17-.45-.24-.1-.04-.2-.09-.29-.14-.29-.07-.58-.05-.86,0l.03.08c-.34.04-.67.15-1.01.23l.02.07c-.27.06-.53.15-.79.24l-.02-.23h.1c.08-.22.16-.45.23-.69h.08c.04-.15.08-.32.12-.49h.1s-.04-.14-.05-.18h.11c.04-.24.09-.47.13-.7h.08c0-.06.02-.18.03-.25.11-.24.15-.49.17-.75l.08.02c.08-.49.22-.98.22-1.48.05,0,.14,0,.19.01v-.1c.73-.04,1.27-.64,1.96-.82v-.08c.55-.2,1.12-.03,1.68.02l-.02.08c.19,0,.39,0,.59,0,.13.1.27.19.41.29.23.11.47.23.74.2.25.02.42-.25.68-.2.27.03.54.05.81,0,.02-.1.04-.19.05-.29h.06c.07-.12.15-.25.23-.37.12-.08.24-.16.35-.25.09-.08.18-.15.27-.22.12-.16.26-.32.36-.49.04-.21.04-.5-.21-.58,0-.09,0-.26,0-.34h.11s0-.2,0-.2h-.07c-.02-.14-.08-.26-.17-.36-.12-.13-.29-.16-.46-.2-.03-.15-.06-.3-.08-.45-.22-.1-.46-.17-.71-.19l.03-.08c-.22-.02-.43-.05-.65-.06-.48-.02-.93.2-1.42.17-.04-.11-.08-.21-.12-.31l-.09.02c0-.11,0-.22,0-.33l.13.05c-.01-.12-.03-.24-.04-.37-.11-.09-.16-.23-.21-.36.19-.03.39-.07.58-.12-.05-.02-.14-.06-.19-.07-.09-.08-.18-.15-.27-.22l.02-.16c.53-.01,1.06-.01,1.58-.11v-.07c.37-.11.69-.38.9-.71.18-.05.36-.1.54-.13v-.07c.28-.05.48-.27.7-.42v-.09s.08.02.08.02c.06-.09.11-.17.17-.26.1-.17.19-.34.32-.49.27-.42.34-1.12-.06-1.47-.05-.14-.1-.29-.14-.43h-.07s.02-.13.02-.13h-.09c-.04-.18-.09-.38-.13-.58h-.07c-.11-.31-.19-.64-.23-.98h-.06c-.02-.15-.03-.3-.09-.43-.04-.18-.08-.37-.11-.55-.02,0-.07,0-.1.01,0-.06-.02-.19-.02-.26-.07-.15-.14-.3-.2-.44-.16-.2-.33-.39-.51-.56-.09-.07-.19-.13-.28-.2-.14-.09-.28-.17-.42-.25-.15-.12-.32-.21-.49-.29-.18-.15-.4-.23-.62-.29-.02-.05-.07-.16-.1-.21,0-.68.03-1.37-.11-2.04l-.08.02c-.05-.52-.34-.97-.54-1.44-.11-.19-.21-.39-.34-.57-.07-.13-.13-.26-.19-.4-.1-.13-.25-.17-.41-.18-.08-.27-.3-.43-.48-.63-.18-.05-.37-.09-.56-.12,0,.08.03.25.03.34-.18-.07-.35-.14-.54-.18.06.16.1.35.24.48,0,.02,0,.07,0,.09.09.16.17.32.27.48,0,.05.03.15.04.2.27.67.24,1.45-.03,2.12h-.06c-.08.12-.16.26-.23.39-.16.11-.33.2-.52.22.07-.53.14-1.07.03-1.6h-.12s.02-.14.03-.18c-.05,0-.14-.02-.19-.02-.01.06-.04.19-.05.25-.04-.36-.1-.72-.22-1.07-.06.04-.19.13-.25.17-.04,0-.12,0-.16,0-.02-.07-.05-.2-.07-.27-.02-.15-.1-.27-.21-.37-.06-.06-.17-.18-.23-.24-.01.18.02.35.1.52-.03.2-.08.39-.12.59-.11.15-.19.34-.33.47-.18.2-.34.41-.46.65h-.06c-.09.19-.17.38-.24.58h-.07c-.1.26-.18.53-.21.81l-.08-.03c-.1.51-.02,1.02.01,1.53-.13.06-.27.12-.41.17v.07c-.17.04-.35.1-.52.18-.22.13-.48.18-.71.31-.03,0-.08.01-.1.02-.18.12-.4.16-.61.21-.01.07-.03.22-.04.29-.05,0-.14-.03-.19-.03l.02.11c-.06,0-.19.03-.26.04-.19.09-.38.15-.58.21.03-.16.07-.32.11-.48.09-.35.14-.7.14-1.06l.09.02c0-.38.05-.76.07-1.14-.03-.41-.06-.83-.07-1.24l-.09.03c0-.38-.04-.77-.17-1.14,0-.06-.02-.19-.02-.25h-.09c-.03-.22-.08-.45-.13-.68h-.08c-.02-.06-.07-.2-.1-.27,0,.12-.01.37-.01.49-.04,0-.12-.01-.17-.01-.15-.37-.35-.71-.59-1.03-.08-.11-.17-.21-.25-.32-.1-.1-.19-.21-.29-.31-.11-.09-.21-.19-.31-.28-.11-.09-.21-.17-.32-.26-.11-.06-.21-.12-.32-.18-.18-.14-.39-.22-.6-.28-.03-.04-.1-.11-.13-.14.02.05.05.14.07.19-.14-.06-.27-.12-.41-.18.07.26.08.53.05.8-.08-.1-.15-.19-.22-.3-.02-.06-.07-.17-.09-.23-.08-.09-.15-.19-.22-.29-.1-.1-.19-.2-.29-.3-.09-.08-.19-.16-.28-.24-.14-.08-.28-.17-.42-.25-.13-.08-.26-.16-.39-.25-.02,0-.07-.01-.1-.01-.14-.08-.3-.14-.45-.19,0,.04,0,.11-.01.15.04.07.13.21.18.28-.27-.09-.52-.2-.77-.34-.31-.09-.62-.19-.95-.21v-.06c-.61-.02-1.22-.11-1.82-.06-.41.02-.81.05-1.22.06v.07c-.23,0-.46.01-.69.02v.09c-.37,0-.73.07-1.09.11l.02.06c-.41.03-.79.19-1.2.23l.02.09c-.07,0-.2.01-.26.02-.42.18-.87.3-1.26.54-.15.07-.3.15-.45.23-.24.18-.48.35-.72.54-.11.12-.23.24-.35.35-.07.11-.15.23-.22.34-.1.14-.18.3-.26.46,0,.07-.01.21-.01.28l-.1-.02c0,.23-.02.45-.02.68.23.06.45.14.66.26.15.06.3.11.45.16v.07c.15.05.31.11.47.15.1.02.21.04.31.06,0,.06.01.18.02.23-.05,0-.14.01-.19.02-.14.01-.29.03-.43.04l.03.09c-.42.02-.82.13-1.23.21.08.13.17.26.25.39.16.19.34.38.51.57.06.04.12.07.18.11.63.47,1.4.61,2.09.94-.25.03-.49.06-.72.17.29.09.56.24.82.4.1.07.19.14.29.21.32.25.63.55.75.95h.08c0,.32,0,.65,0,.98h-.08c-.04.19-.08.39-.12.59h-.11s0,.11.01.15c-.1.08-.17.19-.24.3-.18.18-.36.35-.55.51-.13.08-.26.15-.39.23v.06c-.21.08-.41.16-.61.23.01-.43.21-.82.24-1.24-.26.11-.5.26-.74.39-.27.2-.57.35-.8.6-.47.3-.85.72-1.16,1.18-.11.15-.23.31-.34.47-.08.2-.16.4-.3.57-.05.19-.09.38-.13.57h-.07c-.15.67-.26,1.38-.13,2.07.04.14.08.28.12.42-.07-.02-.2-.05-.27-.07-.08-.27-.16-.54-.16-.82,0-.22-.04-.45-.1-.66-.32,1.15-.34,2.41.07,3.54-.15-.04-.28-.1-.37-.23-.1-.1-.21-.19-.31-.28-.11-.09-.21-.17-.32-.26-.11-.07-.22-.13-.33-.19-.02-.03-.05-.1-.07-.13.02.15.05.3.07.45h.08c.02.11.06.22.12.33.04.15.08.31.11.46h.07c.06.33.16.66.21,1l.08-.03c.02.63.21,1.24.23,1.87l.09-.02c-.02.53.07,1.04.11,1.57-.39-.15-.52-.6-.73-.93-.02,0-.06-.02-.08-.02.01-.21-.06-.36-.29-.35,0,.11.01.33.02.44l.08-.02c-.05.51.16.99.22,1.49l.08-.02c0,.06.02.19.03.25.07.17.13.35.19.53.02,0,.05,0,.07.01.06.2.14.4.22.6l.06-.02c.07.17.15.34.22.5h.07c.05.11.1.21.15.32.18.12.36.28.26.52-.12-.4-.51-.58-.77-.89-.04-.08-.09-.16-.13-.24-.02.28.06.55.22.79.07.19.15.38.22.57h.07c.06.16.13.32.21.48.11.18.22.37.35.55.05.1.11.2.16.3.15.15.26.34.38.52.08.08.16.17.24.25.09.11.17.21.26.32.1.1.19.2.29.31.08.08.17.15.25.23.12.11.24.22.37.32.09.08.17.15.26.23.18.12.37.23.52.38.11.05.23.1.34.15v.08c.18.09.38.16.58.23v.07c.2.08.4.15.62.2l-.02.07c.29.09.58.19.89.23v.07c.47.09.94.2,1.43.23.74.21,1.52.13,2.27.11.21.02.42.11.62.17v.07c.24.04.49.08.73.19Z"/>
  </g>
</svg>