<?xml version="1.0" encoding="UTF-8"?>
<svg id="Layer_2" data-name="Layer 2" xmlns="http://www.w3.org/2000/svg" viewBox="0 0 33.94 30.49">
  <defs>
    <style>
      .cls-1 {
        stroke-width: 0px;
      }
    </style>
  </defs>
  <g id="Layer_1-2" data-name="Layer 1">
    <path class="cls-1" d="m33.76,28.97c-.14-.08-.3-.06-.45-.06-.24,0-.49.06-.71-.03-.45-.2-.93-.08-1.31.03-.57.17-1.11.02-1.65.07-.16.02-.19-.09-.11-.2.12-.15.25-.31.4-.43.35-.27.65-.57.84-.98.08-.17.17-.35.3-.48.41-.41.46-1.01.8-1.46,0,0,0-.02,0-.03-.07-.52.21-.98.24-1.48.01-.18-.02-.35-.03-.52,0-.1.03-.2.06-.3-.16-.67-.52-1.29-.54-1.98-.09-.15-.15-.31-.35-.32-.02,0-.07-.09-.05-.11.11-.2-.05-.16-.15-.2-.34-.13-.71-.27-.72-.71,0-.21-.2-.49-.01-.63.24-.17.13-.3.05-.46-.11-.23-.15-.47-.2-.71-.08-.39-.03-.77-.02-1.16,0-.45.2-.8.43-1.14.35-.54.57-1.13.59-1.75.02-.64-.04-1.28-.33-1.9-.22-.47-.52-.89-.68-1.4-.2-.63-.47-1.24-.71-1.86-.13-.33-.32-.63-.62-.84-.09-.06-.18-.11-.23-.22-.27-.5-.36-1.03-.19-1.58.06-.2-.05-.44.11-.63.25-.28.31-.66.34-.98.06-.77.56-1.28.94-1.87.15-.23.42-.39.52-.61.11-.25.21-.5.4-.71,0,0-.02-.07-.04-.08-.06-.03-.12.01-.15.06-.11.16-.26.28-.42.38-.08.05-.15.15-.25.07-.1-.08-.07-.19-.05-.3.04-.19.26-.28.3-.54-.33.22-.6.45-.91.59-.49.22-.9.54-1.18.99-.3.48-.69.81-1.25.91-.07.01-.13.03-.19-.04-.25-.27-.59-.06-.88-.13-.11-.02-.38.05-.5-.03-.2-.12-.35-.06-.54-.04-.26.03-.55.19-.78-.02-.1-.09-.09-.19-.16,0-.13-.12-.26.09-.37,0-.13-.1-.12-.24-.07-.39.02-.06.06-.13,0-.2-.27.16-.33.14-.35-.17-.03-.5-.06-.99-.23-1.48.02.31.03.63.05.94-.37-.47-.31-1.04-.37-1.58-.15.14-.07.35-.24.53-.07-.31-.13-.56-.19-.81.07.98-.05,1.97.28,2.92.11.33.05.69.19,1.01.03.07.02.16-.03.2-.4.31-.45.84-.76,1.18-.3.34-.21.82-.49,1.15-.03.03.01.05.04.07.31.23.21.52.12.8.08.09.16-.11.22.01.17.35.5.58.66.92.14.29.26.58.13.92-.14.38-.14.8-.18,1.18-.03.27-.09.5-.19.75-.02.04-.03.09-.03.14.03.36,0,.7-.19,1.02-.05.09-.12.16-.12.29-.01,1.07-.03,2.15.03,3.22.01.22-.01.45-.1.66-.28.71-.55,1.43-.53,2.22,0,.22,0,.44-.12.65-.22.43-.56.79-.7,1.26-.11.37-.4.67-.34,1.12.04.32-.17.35-.5.29-.26-.05-.55.03-.8-.14-.02-.01-.07.02-.1.04-.25.21-.45.09-.67-.08-.12-.09-.26-.17-.4-.23-.13-.05-.29-.16-.39-.03-.09.13.11.21.16.32,0,.02,0,.04,0,.02-.43.09-.79-.09-1.13-.3-.05-.03-.1-.09-.13.02-.03.12-.05.26-.22.2-.15-.06-.14-.21-.14-.34,0-.02,0-.03,0-.05-.03,0-.06,0-.09-.01-.06.29-.24.44-.61.52-.03,0-.05.02-.13.05.15.02.24.03.33.04-.19.04-.21.39-.39.31-.41-.18-.72.1-1.09.13.16.07.23.17.17.34-.07-.08-.08-.3-.23-.1-.08.11-.18.1-.28.09-.17-.02-.32-.03-.47.09-.07.06-.26.09-.3.05-.34-.33-.49.37-.8.13-.01-.01-.03.07-.01.12.02.05.11.12.01.14-.34.07-.59.37-.95.37-.18,0-.36.02-.53.03-.05,0-.11-.01-.12.08-.02.2-.02.2-.23.17-.18-.03-.41-.18-.47.16,0,.02-.05.04-.08.05-.58.1-1.16.21-1.75.04-.41-.12-.8-.06-1.16.17-.2.13-.42.26-.67.19-.35-.1-.69-.12-1.02.08.01.21.4.2.31.41-.09.2-.34.02-.52.07-.13.04-.28-.06-.41.11-.08.11-.37-.1-.42.05-.08.24.24.08.31.22,0,0,0,.02.01.06-.39.08-.85-.01-1.15.41.33.07.68-.03.98.15-.43.02-.84.27-1.26.18-.6-.13-1.18-.12-1.76.04-.14.04-.38-.03-.39.16-.01.22.23.12.37.17.02,0,.05,0,.07.02.06.02.15.02.17.11.01.08-.06.12-.13.15-.14.07-.29.1-.4.22-.02.02-.03.06-.05.09.07.09.17-.06.24.06-.1.15-.23.28-.41.35-.09.04-.2.07-.16.2.04.12.12.2.26.2.12,0,.23-.08.34-.01.04.12-.18.08-.12.23.53.01,1.02-.33,1.57-.23,0,.14-.24.08-.15.21.04.07.11.17.28.13.35-.08.71-.09,1.07-.13-.2.15-.4.29-.48.52-.03.1-.26.13-.13.28.1.11.24.07.37.06.23,0,.43-.17.66-.11.53.14,1.04-.03,1.49-.22.38-.15.75-.34,1.14-.48.14-.05.27-.19.43-.06.17.14-.06.27,0,.44.26-.03.48-.26.77-.14.08.03.16-.08.21-.17.07-.11.13-.23.2-.34.07-.11.17-.25.31-.17.12.07.01.19-.02.29-.02.08-.04.16-.05.24,0,.08-.02.18.05.23.09.07.15-.03.22-.06.29-.11.45-.37.76-.59-.11.37.14.56.32.49.23-.08.52-.15.69-.38.18-.24.41-.37.7-.43,0,.12-.22.33.11.25.13-.03.2.03.25.14.09.18.18.36.28.54.05.08.14.21.21.13.27-.37.43-.03.65.11.02-.41-.09-.79.05-1.19.19.19.1.39.17.55.03.07.05.18.16.17.11-.01.08-.13.11-.2.04-.11-.1-.22.01-.37.3.22.21.75.66.86.08-.38,0-.76.07-1.13.29.52.72.91,1.14,1.32.05-.11-.02-.16-.05-.21-.09-.16-.04-.25.13-.19.31.1.63.18.96.16.16,0,.3.3.44.07.08-.13.06-.35.05-.52,0-.18-.1-.34-.2-.49-.15-.23-.23-.48-.3-.8.12.14.24.22.29.34.29.73.87,1.2,1.44,1.68.06-.06.14-.1.22-.12-.08-.11-.13-.23-.16-.38-.04-.19,0-.23.19-.21.33.03.66.09.99.09.42,0,.5-.06.48-.48,0-.1-.08-.2.02-.3.16.11.08.32.2.45.07.08.14.17.27.15.1-.02.15-.1.14-.18-.06-.31-.03-.49.35-.34.03.01.08-.05.12-.06.07-.02.11-.17.2-.07.08.08.12.18.05.29-.11.19-.05.31.09.48.18.22.48.46.3.79,0,0,0,0,0,0,.13.25.18.52.24.8,0,0,0,0,0,.01.15.09.15.23,0,.42.69.1,1.36.29,2.07.29.25,0,.51,0,.76,0,.4.03.81-.01,1.21-.06.3-.04.44-.33.48-.56.05-.22-.23-.27-.43-.33-.42-.12-.85-.18-1.28-.26-.2-.03-.23-.17-.19-.31.12-.4.14-.81.1-1.21-.06-.55.27-.88.8-.75.13.03.26.04.39.06.41.06.82-.06,1.23-.04-.1.66.01,1.3-.01,1.94-.02.5.53.96,1.06.97,1.86,0,3.71.04,5.57-.04.3-.01.51-.08.5-.44,0-.14.03-.27.23-.23.08.02.2.12.24-.02.04-.12-.09-.18-.18-.23Z"/>
  </g>
</svg>