<?xml version="1.0" encoding="UTF-8"?>
<svg id="Layer_2" data-name="Layer 2" xmlns="http://www.w3.org/2000/svg" viewBox="0 0 28.88 33.94">
  <defs>
    <style>
      .cls-1 {
        stroke-width: 0px;
      }
    </style>
  </defs>
  <g id="Layer_1-2" data-name="Layer 1">
    <path class="cls-1" d="m28.18,9.89c.26-.34.43-.71.59-1.1.14-.38.13-.79.05-1.18-.12-.22-.22-.45-.35-.66-.23-.28-.41-.59-.62-.89-.05-.59.06-1.19-.09-1.77-.06-.61-.35-1.16-.41-1.77.25-.57.25-1.22,0-1.79-.18-.26-.27-.71-.64-.73-.06.13-.17.21-.29.27-.17.21-.34.43-.51.63-.08.13-.16.26-.24.38-.08.13-.15.27-.22.41-.94-.14-1.92-.19-2.85.04-.1.04-.19.09-.28.13-.24.06-.48.13-.69.26-.13.06-.26.11-.39.17-.06-.1-.12-.2-.17-.31-.06-.07-.11-.13-.17-.19-.49-.29-1.07-.19-1.61-.18-.61.92-.23,2.05.15,2.98.13.32.38.59.41.93-.2.19-.27.47-.4.71-.12.29-.2.59-.25.9-.2.46-.15.97-.14,1.46.24.66-.29,1.2-.65,1.69-.21.2-.44.38-.72.46-.2.15-.45.19-.7.2-.08.15-.14.3-.22.44-.03,0-.08.02-.11.03l-.09.02c-.15.06-.31.12-.45.21-.26.05-.52.11-.78.17-.06.02-.17.06-.23.08,0,.14,0,.28-.17.32-.13.07-.27.14-.4.2-.03.04-.09.11-.12.15-.38.11-.75.27-1.13.38-.43.14-.79.42-1.16.66-.31.29-.6.58-.89.88-.06.1-.13.2-.19.3-.25.25-.41.57-.58.88-.14.19-.22.41-.29.63h-.07c-.08.24-.16.48-.24.73-.19.26-.2.59-.29.89-.17.47-.24.98-.29,1.47-.12.39-.13.81-.15,1.22-.02,1.16-.04,2.32.07,3.48,0,.13.04.27.08.39.02.7.25,1.37.21,2.07-.13-.11-.19-.25-.17-.42-.04.06-.08.12-.12.18.03-.25-.09-.47-.21-.67-.12-.21-.21-.44-.35-.64-.12-.31-.26-.62-.49-.86-.01.1-.05.29-.06.38-.07-.15-.14-.3-.22-.44-.12-.48-.19-.98-.31-1.46-.05-.75-.04-1.51,0-2.26.16-.42.18-.88.3-1.32h.07c.05-.26.13-.51.24-.75.11-.22.19-.45.34-.66.08-.2.17-.39.3-.55.06-.11.12-.22.19-.33.1-.13.19-.28.25-.43.31-.41.58-.86.92-1.26.55-.79,1.15-1.54,1.62-2.38.14-.18.24-.38.3-.6h.06c.07-.18.15-.36.23-.55.1-.19.17-.39.25-.58,0-.05.03-.14.03-.19.16-.23.13-.53.26-.78.06-.72.06-1.44.02-2.16-.05-.32-.16-.62-.21-.94h-.08c-.04-.37-.12-.76-.27-1.12-.09-.24-.17-.49-.24-.73h-.06c-.08-.21-.18-.41-.31-.6-.11-.19-.22-.38-.38-.54-.04,0-.13,0-.18,0-.03.08-.08.23-.1.31-.2-.08-.34-.26-.49-.41-.05.03-.15.09-.2.13-.24-.27-.47-.55-.69-.84-.14-.16-.31-.3-.48-.43-.15-.12-.3-.23-.45-.34-.15-.07-.3-.15-.44-.24-.44-.22-.89-.46-1.4-.48v-.07c-.63-.12-1.28-.21-1.92-.12-.54.02-1.06.23-1.58.36-.55.23-1.06.52-1.55.87-.1.1-.2.2-.3.29-.18.15-.35.31-.51.48-.09.11-.17.22-.26.33.18.16.53.16.57.45-.13.08-.26.16-.38.24.12.07.24.14.36.21.12.07.24.14.37.22.14.12.29.24.43.35.25.21.44.49.64.75.1.17.19.33.3.49.09.21.17.44.22.66h.07c.01.27.05.55.09.82.08.93-.21,1.86-.71,2.65-.07.09-.14.19-.2.29-.13.17-.25.34-.37.52-.07.1-.14.21-.2.31-.48.61-.86,1.31-.97,2.09-.05,0-.14-.02-.18-.02,0-.07-.02-.21-.03-.27-.11.43-.14.87-.19,1.3-.1.16-.21.33-.31.49-.04.19-.07.39-.13.58,0,.29-.05.6.06.87,0,.08.01.24.02.32-.07.11-.18.22-.17.37,0,.4-.14.78-.13,1.18,0,1.08-.04,2.17.03,3.25.15.55.13,1.13.31,1.68.09.25.09.53.24.76,0,.05.02.15.03.19.14.41.32.8.49,1.2.21.38.41.76.66,1.11.3.45.65.86,1.04,1.24.3.26.56.56.91.75.34.25.69.5,1.11.59l-.02.06c.33.09.65.21,1,.21v.08c.74.07,1.48.16,2.22.23.53.18,1.1.11,1.65.24.35.04.71.01,1.06.07.1.07.21.14.31.2.07.09.14.18.21.28.1.09.2.19.3.29.51.4,1.11.68,1.74.82.26.05.54,0,.78.12.15.03.3.06.46.1-.01.27-.02.54.08.79.15.06.3.12.44.19.39.05.8.2,1.19.04.88-.08,1.77-.06,2.66,0,.46.14.78.5,1.07.87.17.01.33.02.5.02.02-.25.03-.49.02-.74.06,0,.18,0,.23.01.03.04.08.12.11.16.1.07.2.14.29.22.19.21.45.25.73.22-.05-.31-.17-.6-.29-.89.15-.13.3-.03.44.06.09.11.18.23.27.34.08.06.15.12.23.18.1,0,.31,0,.41,0-.15-.45-.39-.87-.62-1.28-.13-.17-.24-.35-.37-.51-.14-.15-.29-.28-.44-.42-.15-.08-.3-.16-.45-.25-.28-.12-.58-.12-.86-.23-.41-.07-.82-.15-1.23-.24.17-.16.37-.26.57-.38.24-.19.57-.11.83,0,.33.03.65.02.98.04.32.1.68.05.99.19.16.28.53.31.8.18.04-.14.15-.19.28-.22.11.21.28.34.53.34,0-.12.02-.24.02-.35.06-.05.18-.14.24-.18.12.1.24.2.36.31.13.11.29.16.45.2.01-.24.03-.48-.01-.72-.11-.38-.43-.64-.69-.91-.14-.07-.27-.13-.41-.2-.09-.02-.19-.03-.28-.05-.26-.19-.6-.13-.9-.18-.19-.09-.39-.08-.59-.1.01-.08.03-.16.05-.23.24-.17.43-.38.62-.6.34-.44.61-.94.84-1.45.01-.1.02-.2.04-.29.25-.43.24-.99.35-1.47.08-1.42-.02-2.85.11-4.27.07,0,.21-.01.28-.02.01.23,0,.45.03.68.05.01.14.03.19.05.12.2.06.44.06.66.12.07.24.14.36.21.42.06.82-.04,1.2-.22.09-.12.19-.23.32-.31.07-.13.14-.27.21-.4.03-.36.03-.72-.01-1.09-.1-.15-.11-.34-.15-.51-.11-.21-.23-.42-.33-.63-.27-.28-.54-.56-.82-.83.28-.29.61-.55.77-.93.08,0,.17,0,.25,0-.01.46.03.92-.02,1.37.05.03.16.09.22.12,0,.22-.01.44-.01.66.4.18.87.12,1.21-.16.4-.19.68-.54.83-.95.04-.1.07-.2.11-.3.07-.49.1-.99,0-1.48-.04-.1-.08-.2-.11-.3-.1-.17-.19-.34-.29-.51-.28-.24-.57-.5-.96-.53-.02-.4.05-.81.18-1.19.1-.87.18-1.79-.07-2.64-.01-.17-.02-.35-.03-.52.31-.04.48-.31.64-.54Z"/>
  </g>
</svg>