<?xml version="1.0" encoding="UTF-8"?>
<svg id="Layer_2" data-name="Layer 2" xmlns="http://www.w3.org/2000/svg" viewBox="0 0 33.94 29.42">
  <defs>
    <style>
      .cls-1 {
        stroke-width: 0px;
      }
    </style>
  </defs>
  <g id="Layer_1-2" data-name="Layer 1">
    <path class="cls-1" d="m.46,6.71l.05-.02c.24.41.54.77.84,1.13.27.29.49.62.71.95.11.27.2.55.36.8.29,1.15.15,2.33.02,3.48l-.09-.06c-.08.44-.2.87-.3,1.31l-.07-.04c-.08.35-.2.7-.31,1.05l-.07-.03c-.08.38-.21.75-.38,1.1-.07.25-.14.51-.25.75-.18.42-.26.88-.29,1.34l-.09-.03c-.27,1.44-.27,2.92-.17,4.38,0,.67.07,1.34.18,2,.15.42.14.87.3,1.29.14.28.26.58.4.86.27.42.59.81.98,1.12.21.16.43.29.67.41v.06c.26.1.52.2.79.29l-.03.07c.57.08,1.11.3,1.68.3l-.03.08c.53.03,1.06.11,1.59.1,1.63,0,3.26.05,4.88-.1l-.04-.09c.58,0,1.11-.22,1.68-.3l-.03-.11c.08,0,.24-.02.32-.03.2-.09.4-.17.61-.25l-.04-.08c.23-.07.46-.14.69-.19.05.27.27.42.49.54.6-.02,1.2-.02,1.8-.04,1.24-.16,2.5-.04,3.74-.21,0-.13-.01-.25-.02-.38-.06,0-.19.02-.25.02l.02-.16c-.6-.11-1.21-.1-1.82-.08,0-.14.01-.27.02-.41l.13.03c.11-.27.21-.54.3-.81l.07.04c.13-.51.3-1.01.31-1.54.03,0,.07.03.1.04.12-.99.16-1.99.13-2.99.15-.13.29-.27.41-.43.13-.13.26-.25.38-.38.15-.1.29-.2.43-.31.45-.27.91-.61,1.46-.57.18.01.28.18.41.28.08.1.16.19.23.29.25.15.5.27.76.4.58.19,1.19.16,1.79.1.15-.04.31-.07.47-.1.01-.05.04-.15.05-.2.03.08.09.25.12.33.01-.06.04-.18.05-.24.29-.04.58-.1.85-.21.08-.01.24-.04.32-.05l-.04-.08c.35-.08.7-.18,1.04-.31l-.02-.08c.23-.05.45-.1.67-.16l-.02-.07c.31-.11.63-.24.92-.41.24-.11.49-.2.74-.28,0-.02-.02-.06-.02-.08.48-.09.94-.21,1.42-.3l-.05-.08c.32-.06.63-.18.94-.31l-.02-.04c.2-.21.28-.5.41-.75.06-.05.18-.16.24-.21-.1-.21-.2-.42-.29-.63-.23,0-.47,0-.7.01.06-.19.13-.39.2-.58-.04-.07-.12-.23-.16-.3-.07,0-.2.01-.26.02-.23.02-.46.03-.69.05-.03-.1-.07-.31-.1-.41-.08.03-.24.09-.31.12,0,.1,0,.29,0,.39-.08,0-.26,0-.34,0-.15.12-.3.24-.44.36.09.15.18.3.28.44.01.07.02.15.03.22-.24.09-.49.18-.71.3-.45.1-.92.2-1.38.11-.37-.05-.65-.3-.95-.5-.31-.37-.55-.78-.69-1.24.7-.09,1.39.04,2.07.18l-.02-.15c.56-.25,1.17.02,1.73-.24.05-.04.16-.11.21-.14.31-.15.65-.25.97-.39.11-.48.03-1.01-.28-1.41-.09-.16-.16-.33-.24-.51h-.06c-.1-.2-.21-.41-.31-.62-.15-.21-.28-.43-.39-.66l-.04.04c-.11-.23-.22-.45-.32-.67l-.06.05c-.19-.41-.47-.76-.74-1.1-.13-.17-.27-.33-.4-.49-.32-.27-.67-.52-1.01-.77-.29-.13-.6-.19-.92-.22.15-.52.18-1.07-.05-1.57-.14-.13-.27-.26-.39-.41-.29-.12-.59-.12-.88-.01-.12.15-.26.3-.39.44-.09.23-.16.47-.21.71l-.09-.05c0,.22-.02.43-.02.65-.21.05-.42.1-.63.15l.04.07c-.45.08-.82.35-1.19.61-.14.12-.28.24-.42.36-.41.41-.86.77-1.28,1.17-.17.11-.33.23-.49.35-.48.38-1.05.56-1.64.69-.19.02-.39.03-.58.04l.03.1c-.61,0-1.24.06-1.84-.05-1.25-.22-2.49.05-3.73.2v.1c-.07,0-.23.02-.31.02-.28.13-.57.21-.85.34-.2.12-.41.22-.62.31l.02.04c-.15.08-.3.17-.44.27.37-.4.64-.87.97-1.31.23-.37.46-.74.7-1.1.12-.23.23-.47.32-.72l.07.03c.13-.5.39-.96.47-1.47.1-.95.08-1.91-.05-2.85-.03,0-.09,0-.13,0-.02-.19-.04-.37-.06-.56-.2-.47-.42-.93-.64-1.39-.15-.2-.29-.41-.44-.61-.42-.56-.85-1.13-1.44-1.52l.03-.04c-.16-.11-.31-.22-.47-.33-.2-.15-.41-.3-.61-.46-.15-.06-.3-.13-.45-.19v-.09s-.06-.03-.06-.03c-.19-.09-.39-.17-.59-.24,0-.03.02-.08.02-.11-.04,0-.13,0-.17,0-.23-.13-.49-.2-.75-.26l.03-.1c-.08-.01-.23-.03-.31-.04-.36-.15-.74-.22-1.12-.24l.06-.1C6-.04,4.95-.05,3.93.13l.06.09c-.41.03-.8.16-1.18.3l.03.08c-.59.14-1.04.57-1.5.94-.03.04-.1.11-.13.14-.23.25-.46.51-.59.83h-.07c-.11.25-.21.51-.28.79l-.07-.03c-.04.15-.08.31-.12.46-.1.7-.11,1.42.02,2.13.15.27.26.56.36.85Zm5.93,14.84c.1-.38.12-.79.24-1.17.14-.31.29-.61.4-.93l.07.04c.09-.17.19-.34.28-.51.24-.27.48-.54.76-.76-.18.53-.46,1.01-.59,1.56-.38,1.22-.3,2.51-.16,3.76l.12-.05c0,.18,0,.35-.01.53-.23-.24-.47-.46-.72-.68-.25-.21-.29-.54-.33-.84h-.07c0-.32,0-.64.01-.95Z"/>
  </g>
</svg>