<?xml version="1.0" encoding="UTF-8"?>
<svg id="Layer_2" data-name="Layer 2" xmlns="http://www.w3.org/2000/svg" viewBox="0 0 27.93 33.94">
  <defs>
    <style>
      .cls-1 {
        stroke-width: 0px;
      }
    </style>
  </defs>
  <g id="Layer_1-2" data-name="Layer 1">
    <path class="cls-1" d="m27.55,15.64c-.2.09-.25.09-.2,0,.05-.1.04-.51-.02-.72-.13-.45-.42-.89-.84-1.31-.17-.17-.29-.3-.26-.3.14.02.19,0,.25-.12.08-.16.04-.28-.21-.58-.25-.3-.29-.33-.56-.45-.12-.05-.25-.11-.28-.14s-.07-.03-.08-.02c-.01.01-.02.01-.01,0,.02-.05-.24-.64-.33-.73-.12-.13-.24-.18-.46-.18-.38,0-.4.12-.13.67.1.21.19.39.19.41s-.06.06-.13.1c-.07.03-.2.13-.28.21s-.16.15-.18.15-.08.07-.15.16c-.16.22-.17.37,0,.48.06.04.14.08.17.08s.05.02.05.05-.02.04-.05.03c-.06-.02-.42.35-.68.7-.49.65-.7,1.51-.53,2.15.04.15.1.31.13.35.03.04.04.09.04.1,0,0-.11.04-.22.06-.11.03-.32.09-.46.14-.3.11-.7.15-.85.08-.06-.02-.13-.09-.17-.15s-.15-.42-.26-.81c-.32-1.17-.65-2.15-.89-2.63-.26-.53-.28-.57-.21-.67.05-.07.08-.08.35-.08.21,0,.42-.03.69-.09.33-.08.45-.09.73-.08.19,0,.4,0,.46-.02.36-.1.89-.67,1.2-1.28.16-.32.34-.84.34-.98,0-.07.04-.11.18-.19.31-.18.61-.56.65-.85.03-.19-.09-.37-.67-.98-.7-.75-.88-.91-1.36-1.34-.63-.54-1.05-.8-1.91-1.16l-.52-.22-.08-.31c-.16-.65-.1-2.17.11-2.97.08-.3.07-.46,0-.27-.03.07-.09.26-.13.43-.04.17-.09.35-.11.41l-.03.1v-.1c0-.09.02-.25.15-1.06.03-.17.07-.34.1-.39.03-.04.04-.09.03-.1s-.04,0-.05.03c-.07.1-.24.7-.28.95-.02.14-.05.28-.07.29-.05.06-.03-.85.02-1.13.06-.29.05-.38-.02-.15-.02.08-.05.2-.07.25-.06.2-.17.93-.21,1.44l-.04.51-.04-.2c-.08-.37-.04-1.39.07-2.16.03-.19.05-.36.05-.38,0-.02.05-.13.12-.23.07-.11.1-.19.08-.18-.07.02-.26.4-.36.73-.05.17-.13.48-.16.68-.03.21-.07.39-.09.41-.09.1.02-.81.16-1.26.03-.09.05-.17.04-.18-.01-.01-.13.28-.13.32,0,.01-.01.04-.03.06-.08.1-.15.62-.13,1.03.01.23.03.44.04.48s0,0-.05-.07c-.09-.18-.17-.83-.17-1.29,0-.3.08-.88.16-1.13.01-.03,0-.06-.02-.06s-.04.02-.04.05-.03.15-.07.27c-.08.25-.16.63-.19.96-.04.36-.08.27-.08-.15,0-.39-.02-.43-.1-.18-.03.1-.03.3,0,.73.02.33.03.6.02.6-.03.03-.2-.63-.22-.85-.02-.26-.08-.34-.08-.1,0,.36.1.97.31,1.99.03.16.07.42.08.58.02.26.02.28-.03.21-.03-.05-.08-.18-.12-.29-.09-.27-.16-.4-.34-.64-.2-.26-.52-.9-.58-1.15-.04-.17-.05-.18-.05-.08,0,.14.07.35.26.75.12.25.18.41.3.74.01.04-.04-.04-.11-.17-.17-.31-.42-.65-.56-.79-.09-.08-.1-.09-.05-.02.04.05.08.1.1.12.14.13.37.73.46,1.18.08.39.17,1.12.17,1.34v.16l-.16.02c-.09.01-.39.07-.66.13-.27.06-.58.11-.69.12l-.19.02-.16-.17c-.31-.33-.46-.69-.58-1.38-.05-.31-.08-.58-.08-.97,0-.3-.01-.54-.03-.54-.04,0-.08.51-.08,1.05,0,.29-.01.49-.02.46-.01-.03-.06-.27-.1-.53-.04-.26-.09-.46-.11-.44s0,.2.02.41c.03.21.03.38.02.38s-.04-.05-.05-.11c-.01-.06-.09-.27-.18-.47-.2-.47-.26-.68-.39-1.2-.05-.24-.11-.46-.12-.5-.02-.09,0,.23.05.55.04.3.04.55,0,.51-.02-.02-.09-.26-.16-.53-.14-.53-.21-.7-.17-.44.03.24.19.84.29,1.08.02.06.29.88.33,1.04.04.13-.11-.17-.21-.44-.16-.4-.38-.91-.57-1.29-.17-.35-.48-1.25-.58-1.69-.04-.17-.06-.25-.06-.18,0,.32.6,2.57.85,3.13.04.09.1.23.14.32.09.2.03.16-.2-.15-.23-.31-.47-.72-.61-1.04-.13-.31-.36-1.12-.43-1.5-.02-.14-.06-.26-.07-.26s-.02.03-.01.06c0,.03.03.13.04.21.04.31.26,1.24.36,1.53.06.16.14.45.19.63.05.18.13.46.19.63.06.17.1.31.09.32-.05.05-.4-.71-.52-1.12-.06-.2-.08-.23-.08-.14,0,.3.24,1.04.53,1.61l.09.17-.09.06c-.05.03-.13.1-.18.14l-.09.08-.06-.17c-.03-.1-.07-.17-.08-.16,0,0,0,.07.03.13.03.09.03.2,0,.48-.05.48,0,.82.2,1.22.23.45.39.62.82.8.1.05.19.08.2.09,0,0-.09.15-.21.33-.36.53-.42.87-.31,1.61.18,1.16.05,2.31-.38,3.56-.36,1.03-.51,1.61-.61,2.31-.05.34-.05.59-.04,1.86.03,1.99-.04,2.75-.32,3.77-.22.8-.36,1.17-.77,2.05-.3.64-.36.78-.44.99-.11.3-.35,1.14-.42,1.49-.2,1.02-.2,2.58,0,3.32.03.1.06.22.07.25,0,.03.02.09.03.13.04.14-.05.09-.24-.11-.6-.65-1.1-1.8-1.3-3-.08-.49-.09-.6-.07-1.18.03-.96.15-1.52.63-2.93.47-1.38.63-1.89.73-2.4.18-.86.17-1.69-.02-2.46-.09-.36-.17-.54-.1-.22.03.12.03.32.02.56l-.02.38-.04-.24c-.06-.33-.25-.93-.42-1.32-.23-.52-.24-.46-.03.19.07.22.08.33.04.27-.02-.02-.12-.25-.24-.51s-.26-.54-.32-.62c-.06-.08-.22-.29-.36-.47-.16-.21-.27-.33-.32-.33-.09,0-.08.02.04.35.06.15.09.29.08.3-.01.01-.03,0-.04-.02,0-.02-.1-.16-.21-.29-.33-.42-.91-.92-1.28-1.11-.17-.09-.2-.08-.1.04.1.1.34.58.4.76.07.24,0,.25-.09.01-.15-.39-.37-.68-.65-.83l-.09-.05.09.12c.39.49.34.55-.15.17-.38-.3-.47-.36-.74-.51l-.13-.07.12.09c.32.25.73.73.67.79,0,0-.03-.01-.05-.05-.05-.09-.41-.35-.67-.48-.3-.15-.72-.25-1.21-.28-.89-.06-.97-.06-.87-.05.44.06.58.1.79.2.15.07.31.19.44.31.22.22.26.32.09.23-.15-.08-.6-.12-1.23-.12-.86,0-1.41.13-1.86.43-.13.08-.23.16-.22.17s.12-.06.24-.14c.48-.32.95-.36,1.77-.17.29.07.32.1.11.13-.52.07-1.62.35-2.12.54-.47.18-.52.22-.13.11.3-.08.63-.09.68,0,.01.02,0,.03-.02.03s-.12.05-.22.11c-.21.13-1.11.55-1.42.65-.12.04-.21.08-.21.09,0,.01.13,0,.28-.05.22-.05.33-.06.49-.04l.21.03-.17.12c-.09.07-.28.18-.42.26-.33.19-.91.7-.86.75,0,0,.13-.08.26-.19.25-.2.44-.28.64-.27.05,0,.07.01.04.02-.18.07-.8.65-1,.94-.15.21-.28.5-.26.53,0,0,.05-.04.09-.11.04-.07.12-.18.18-.25.16-.16.53-.42.58-.41.02,0-.06.13-.18.27-.32.38-.66.82-.66.88,0,.03-.02.09-.05.13-.07.13-.01.13.19-.02.11-.08.26-.19.34-.24.08-.05.21-.13.29-.18.08-.05.15-.09.16-.08,0,0-.13.17-.31.35-.34.35-.52.65-.68,1.08-.06.18-.17.76-.27,1.45-.05.35.02.19.08-.18.08-.49.27-.88.6-1.23.14-.14.25-.26.26-.25s-.05.11-.12.23c-.2.31-.55,1-.62,1.22-.04.1-.06.23-.06.28v.09s.02-.08.02-.08c.03-.14.15-.42.21-.49.03-.03.13-.11.23-.16.1-.06.21-.13.26-.16.08-.06.08-.06.03,0-.16.19-.28.5-.49,1.3-.05.19-.11.37-.13.41-.03.05-.02.06,0,.03.02-.02.08-.14.13-.27.08-.21.28-.52.41-.63.04-.04.04-.02,0,.07-.03.06-.06.19-.07.29-.01.09-.04.24-.05.33-.02.08-.04.21-.05.29-.02.17.05.11.13-.13.03-.09.07-.18.08-.2.01-.01.03.22.03.51,0,.29.03.62.06.73.02.11.04.24.04.3,0,.06,0,.1.02.08.04-.04.1-.3.1-.4,0-.05.01-.08.03-.07.02.01.03.07.03.12,0,.23.05.21.13-.07.05-.16.1-.3.11-.32.05-.05.04.01-.02.21-.03.09-.09.38-.14.64-.05.26-.09.49-.11.52-.04.11.04.05.18-.12.08-.1.16-.21.18-.25.04-.06.04-.03.03.22-.01.23-.04.33-.12.51-.06.12-.15.27-.2.34l-.09.11.13-.08c.23-.13.45-.3.47-.36.04-.11.05-.02.02.18-.02.11-.06.28-.1.37-.08.18-.05.3.03.14.03-.05.12-.21.21-.35l.16-.25v.12c.02.07-.01.3-.05.53-.04.23-.07.42-.07.43s.11-.09.25-.22c.26-.25.39-.36.41-.33.03.03-.27.55-.48.81-.13.16-.22.29-.21.3,0,0,.15-.13.3-.3s.29-.3.3-.28c.02.08-.13.36-.29.53-.09.1-.14.18-.13.18.05,0,.35-.2.35-.24,0-.02.02-.04.03-.04.07,0,.03.09-.13.31-.27.36-.27.46,0,.18.36-.37.68-.66.68-.6s-.25.4-.44.6c-.12.13-.04.12.1-.01.11-.11.44-.29.46-.26,0,0-.03.06-.08.12-.09.1-.09.11-.03.16.06.05.14.07.44.15.13.03.13.03-.07.02-.12,0-.27-.04-.37-.09-.09-.04-.17-.07-.18-.06-.08.08.59.5.81.5.07,0,.07,0,.03.03-.16.1-.44,0-.7-.24-.22-.21-.26-.24-.26-.15,0,.03.03.05.06.05.06,0,.3.23.39.38.08.13.28.21.57.23.29.02.34.03.34.08,0,.02-.09.04-.22.04-.12,0-.22.01-.22.03,0,.07-.13.07-.39-.02-.3-.1-.35-.16-.23-.25.07-.05.07-.06.02-.08-.09-.04-.12-.03-.1.04,0,.03,0,.09-.04.12s-.05.06-.05.07c.29.21.39.29.57.48.12.13.21.23.21.24s-.13-.03-.28-.09c-.29-.11-.39-.11-.21-.02.05.03.19.11.3.17l.21.12h-.12c-.07,0-.24-.04-.38-.08-.14-.05-.26-.08-.27-.07-.03.03.44.3.78.43.21.08.37.16.36.16-.04.04-.61.07-.82.04-.13-.02-.24-.03-.25-.02s.08.08.18.16c.12.09.27.16.4.19.32.08.76.16.9.16h.13s-.08.07-.08.07c-.11.09-.28.13-.66.14-.18,0-.32.02-.31.03.01.01.09.05.18.08.51.19.62.22.92.24.41.02,1.13.09,1.12.11,0,0-.19.06-.4.12-.48.13-.88.19-1.05.14-.1-.03-.12-.02-.12.02,0,.06.44.27.72.34.25.06,1.05.06,1.47,0,.36-.06.87-.07.79-.02-.03.02-.12.04-.21.05-.08.01-.25.08-.38.14-.12.06-.29.13-.37.15-.19.05-.4.14-.38.16,0,0,.15.04.32.07.24.04.43.05.9.03.33-.01.69-.03.8-.04.28-.03.21.03-.14.12-.15.04-.36.1-.45.14-.1.04-.23.07-.29.07s-.1,0-.09.02c.01.01.22.03.46.05.4.03.61.02,1.07-.05.11-.02.11-.01-.06.07-.1.05-.28.11-.39.13l-.21.04.29.04c.41.06.62.06,1.26-.02.92-.11,1.11-.14,1.23-.19.08-.03.11-.03.1,0,0,.02-.15.09-.32.16-.17.07-.39.16-.5.2-.1.04-.28.1-.39.13-.33.09-.31.12.07.12s.88-.07,1.81-.26c.32-.06.59-.11.59-.1.01.01-.65.34-.77.38-.04.01-.07.03-.06.04.02.02,1.62-.49,1.78-.57.08-.04.07-.04-.01.17-.08.2-.1.46-.03.63.03.06.11.21.19.33.27.38.71.54,1.62.6.75.04,1.35.1,1.56.14.19.04.26.08.55.31.11.09.28.2.38.25h0,0c.19.09.37.1.62.04.22-.06.32-.11.32-.18,0-.04.04-.03.14.04.13.09.17.09.48.09.44,0,.45,0,.54-.53.04-.22.07-.44.07-.49,0-.19-.13-.38-.34-.52-.27-.18-.36-.22-.58-.22-.15,0-.22-.02-.32-.09-.07-.05-.23-.11-.35-.14l-.23-.06.21-.08c.12-.04.27-.12.35-.17l.14-.09.23.24c.24.25.8.71.99.81.19.1.6.16,1.09.16.38,0,.57-.02.98-.1.72-.14.93-.15,1.35-.09.46.07.84.19,1.31.4.43.2.66.24.73.15.06-.08.06-.19-.01-.26-.09-.1-.04-.1.14,0,.18.1,1.03.29,1.28.29.08,0,.19-.02.24-.05.18-.09.18-.23.01-.69-.15-.4-.16-.42-.34-.49-.41-.17-.94-.25-2.24-.31-.44-.02-1.21-.06-1.71-.09-.5-.03-1.18-.07-1.52-.08-.65-.02-.8-.06-.8-.17s.34-.42.74-.67c.49-.3.71-.48.96-.74.45-.48.77-1.13.92-1.88.1-.48.05-1.23-.11-1.72-.21-.65-.75-1.35-1.41-1.81-.49-.34-.47-.32-.5-.77-.02-.43-.14-1.29-.22-1.64-.05-.23-.24-.75-.29-.8-.02-.02-.03-.07-.03-.11,0-.07.02-.08.2-.1.29-.04.74-.18,1.01-.31.36-.18.66-.4,1.06-.79.46-.44.69-.6,1.21-.86.55-.27.71-.31,1.59-.31.39,0,.79-.02.89-.04.29-.06.53-.22.95-.63.67-.65.88-1,.85-1.41,0-.14-.03-.23-.07-.27-.05-.05-.05-.07.04-.18.33-.43.25-.67-.17-.48ZM19.44.97h0s0,.08,0,.1-.02,0-.02-.06,0-.08.02-.04ZM.35,18.49s.12-.16.26-.31c.14-.15.21-.2.15-.13-.19.25-.41.48-.41.44Zm9.3-3.1c-.03-.1-.13-.33-.21-.5-.09-.18-.15-.33-.14-.33.02-.02.2.23.3.44.06.11.11.28.12.39.01.1.01.19,0,.19s-.04-.08-.07-.18Z"/>
  </g>
</svg>