<?xml version="1.0" encoding="UTF-8"?>
<svg id="Layer_2" data-name="Layer 2" xmlns="http://www.w3.org/2000/svg" viewBox="0 0 33.94 30.63">
  <defs>
    <style>
      .cls-1 {
        stroke-width: 0px;
      }
    </style>
  </defs>
  <g id="Layer_1-2" data-name="Layer 1">
    <path class="cls-1" d="m17.79,20.89c.97-.16,1.91-.46,2.87-.68-2.25,1.1-4.28,2.68-5.77,4.71-1.27,1.69-2.13,3.67-2.63,5.72-1.09-3.46-.47-7.4,1.72-10.31,1.09.8,2.53.77,3.81.56Zm11.03-3.88c-1.62-.3-3.28-.33-4.92-.17-2.91.27-5.64,1.77-8.61,1.46-.83-.01-1.27-.85-1.36-1.57-.33-2.28.58-4.47.82-6.7.25-2.13.2-4.4-.82-6.33C12.93,1.75,10.91.47,8.79.12c-2.2-.39-4.56.18-6.33,1.55-.71.56-1.39,1.21-1.72,2.07C-.64,6.7-.06,10.44,2.19,12.82c-.44-1.05-.75-2.19-.63-3.33.15-2.34,1.86-4.38,3.97-5.28.25,0-.11.24-.19.25-1.15.57-1.99,1.65-2.58,2.78-.83,1.61-.9,3.51-.43,5.24.04-1.63.4-3.37,1.6-4.56,1.17-1.35,2.91-2.14,4.69-2.14-.95.2-1.9.48-2.73,1.01-1.75,1.06-2.94,2.96-3.2,4.98.65-1.07,1.62-1.96,2.82-2.33,1.53-.4,3.24.49,3.83,1.94.78,1.88,1.57,3.75,2.22,5.68.8,1.89,2.63,3.59,4.79,3.49,1.47.02,2.93-.3,4.28-.86.33-.14.66-.27,1.02-.33,1.88-.36,3.8-.62,5.71-.5,1.8.1,3.66.64,4.99,1.92-.41-1.76-1.76-3.31-3.53-3.77Zm1.7-4.35c-.5-.41-.29-1.17-.28-1.74-.91.57-1.61,1.44-1.96,2.45-4.21.54-8.3,2.05-11.83,4.4,3.59-.72,7.21-1.55,10.9-1.51.74.03,1.51-.02,2.23.21.99.33,2.07.43,3.11.3.53-.15,1.16-.54,1.14-1.15.06-.3.23-.65,0-.92-.76-1.11-2.03-1.73-3.3-2.04Z"/>
  </g>
</svg>