<?xml version="1.0" encoding="UTF-8"?>
<svg id="Layer_2" data-name="Layer 2" xmlns="http://www.w3.org/2000/svg" viewBox="0 0 33.94 27.08">
  <defs>
    <style>
      .cls-1 {
        stroke-width: 0px;
      }
    </style>
  </defs>
  <g id="Layer_1-2" data-name="Layer 1">
    <path class="cls-1" d="m12.14,1.02c-.3-.22-.6-.45-.9-.67.01-.02.02-.04.04-.06.31.21.61.42.92.63-.02.03-.04.07-.06.1Zm21.73,9.91c-.22.27-.45.55-.86.51-.03,0-.07.02-.1.04-.3.14-.61.17-.92.03-.25-.11-.5-.14-.77-.09-.4.08-.78-.03-1.12-.26-.36-.25-.75-.35-1.18-.16-.1-.29-.19-.57-.29-.87-.04.04-.06.05-.06.05.1.45.19.9.31,1.34.12.43.36.57.81.54.5-.03,1.02-.12,1.51-.05,1.39.2,2.32,1.16,2.24,2.69-.02.29-.19.58-.3.87-.05.12-.17.17-.28.08-.04-.04-.03-.17,0-.25.05-.15.12-.28.18-.43-.02,0-.04-.02-.07-.03-.08.11-.14.24-.23.32-.07.06-.22.1-.29.07-.13-.08-.08-.21,0-.31.08-.09.16-.18.27-.3-.09.05-.14.09-.2.1-.15.04-.25-.07-.2-.22.01-.04.04-.08.07-.12.23-.34.17-.56-.25-.81.05.12.12.19.12.27,0,.09-.05.18-.08.27-.07-.04-.18-.06-.21-.12-.1-.23-.27-.33-.51-.36-.05,0-.11-.02-.15-.05-.31-.23-.63-.16-.94,0-.33.16-.65.34-.98.51-.8.41-1.65.67-2.56.64-.57-.02-1.1-.19-1.57-.51-.45-.31-.67-.77-.8-1.28-.13-.53-.2-1.06-.28-1.54-.14.22-.25.96-.23,1.44.02.58.3,1,.73,1.36-1.99-.7-3.84-.54-5.51.83.21-.11.42-.22.64-.32.23-.1.46-.18.7-.25,1.52-.48,2.99-.33,4.42.35,1.13.54,1.77,1.48,2.02,2.68.42,1.98.21,3.89-.76,5.68-.25.46-.61.88-.92,1.32.24.14.55.17.85.18.57.02,1.15.03,1.72.05.45.02.88.12,1.27.35.09.05.2.06.29.11.23.13.47.26.69.42.06.05.09.24.05.32-.07.14-.2.06-.28-.02-.33-.32-.73-.33-1.14-.27.28.13.57.23.83.39.11.07.18.23.23.36.02.04-.05.15-.11.19-.05.03-.16,0-.19-.03-.26-.35-.61-.47-1.03-.44-.06,0-.13-.03-.19-.07-.64-.44-1.37-.56-2.13-.59-.21,0-.42,0-.63-.02-.29-.02-.58-.04-.76-.31-.02-.02-.05-.04-.07-.05-.02,0-.04,0-.06,0-.02.3.17.5.53.53.4.03.8.03,1.2.05.7.03,1.33.27,1.82.78.08.08.16.18.18.28.02.08-.01.23-.07.27-.06.04-.2,0-.28-.04-.15-.09-.26-.23-.41-.31-.2-.11-.28-.04-.27.23-.12-.03-.24-.05-.34-.09-.52-.2-1.06-.25-1.62-.24-1.17.02-2.34.01-3.51,0-.19,0-.39-.04-.58-.09-.29-.07-.43-.23-.43-.45,0-.22.12-.38.41-.47.27-.08.54-.12.82-.18.15-.03.3-.08.45-.11,0-.03,0-.06,0-.09-.21-.06-.41-.13-.63-.18-1.34-.28-2.62-.03-3.89.42-.79.28-1.59.52-2.4.73-.38.1-.8.07-1.2.1,0-.02,0-.05,0-.07.09,0,.19-.01.28-.02-.45-.1-.89-.21-1.37-.32.05-.02.08-.04.17-.09-.42-.06-.78-.13-1.15-.15-1.54-.1-2.98-.51-4.25-1.43-.04-.03-.07-.06-.1-.1,1.39.76,2.84,1.3,4.46,1.18-1.84-.18-3.49-.95-5.11-1.76,1.39.68,2.82,1.17,4.4,1.1-.5-.09-1-.19-1.5-.28,0,0,0-.01,0-.02.41.02.81.05,1.22.08-.82-.16-1.65-.28-2.43-.56.46.05.93.1,1.39.14,0-.02,0-.05.01-.07-1.25-.11-2.36-.59-3.35-1.33-.92-.69-1.82-1.4-2.59-2.26-.06-.07-.12-.14-.16-.23,1.33,1.42,2.98,2.31,4.75,3.01.01-.02.03-.05.04-.07-.17-.09-.34-.17-.51-.26.64.19,1.29.26,1.96.23-1.32-.29-2.55-.82-3.67-1.56-1.1-.73-2.19-1.5-2.98-2.6.24.22.47.44.71.64.22.19.44.37.67.54.05.04.12.05.18.08.09.07.18.15.27.22.13.09.27.18.4.26.02-.03.04-.06.06-.09-.12-.09-.25-.18-.37-.27-.12-.09-.24-.18-.36-.26-.57-.62-1.22-1.16-1.66-1.89.74.79,1.52,1.53,2.43,2.12.91.59,1.82,1.19,2.97,1.23-2.79-1.03-4.81-2.91-6.17-5.52.66,1.09,1.54,1.99,2.53,2.78.02-.02.04-.04.06-.05-.18-.19-.37-.37-.56-.56-.2-.2-.42-.39-.61-.6-.18-.2-.34-.43-.47-.68.25.26.49.53.74.79.02-.01.03-.02.05-.04-.71-.97-1.25-2.04-1.73-3.13.25.43.49.86.76,1.28.27.42.56.83.85,1.24.02-.01.04-.03.06-.04-.34-.73-.68-1.45-1.02-2.17.03-.01.05-.03.08-.04.34.59.63,1.21,1.13,1.7-.35-.84-.71-1.69-1.06-2.53.02,0,.04-.02.06-.03.31.63.59,1.28.95,1.89.36.61.79,1.17,1.22,1.74.43.58.95,1.06,1.58,1.44-1.41-1.32-2.38-2.91-2.9-4.77.24-.18-.05-.34,0-.54.15.28.3.56.46.84l.05-.02c-.19-.5-.38-1.01-.57-1.51,0,0,0,0,.01,0,.12.19.23.37.35.56.02-.01.04-.02.06-.04-.34-1.02-.82-1.96-1.67-2.67.8.4,1.23,1.13,1.66,1.86-.34-1.19-.84-2.28-1.91-3.1.57.26,1.42.97,2.46,3.21-.08-.21-.15-.42-.23-.63-.09-.22-.2-.44-.31-.65-.1-.2-.21-.41-.3-.61,1.05,1.24,1.24,2.86,1.92,4.27-.11-.16-.22-.32-.33-.47-.02.01-.04.03-.06.04.31.53.63,1.07.94,1.6.01,0,.02-.01.03-.02-.22-.7-.44-1.4-.65-2.1-.33-1.11-.62-2.24-.96-3.34-.28-.88-.72-1.68-1.45-2.28-.17-.14-.36-.24-.53-.37.93.38,1.48,1.15,2.01,1.95-.15-.31-.29-.62-.47-.91-.18-.29-.39-.56-.59-.84.02-.02.04-.03.06-.05.28.35.6.68.85,1.06.25.38.44.8.67,1.21-.08-.69-.34-1.31-.61-1.94.74,1.01,1.1,2.16,1.24,3.39,0-.36.03-.72,0-1.07-.03-.36-.1-.72-.19-1.07-.09-.36-.22-.7-.3-1.06.12.27.25.54.36.82.11.28.21.57.27.86.07.3.11.61.15.91.04.3.06.6.1.9.03-1.21.13-2.43-.45-3.62.28.27.85,1.48,1,2.57.13.9.18,1.81.25,2.59.17-1.12.24-2.39.2-3.66l.11.5c-.05-.36-.08-.73-.19-1.06-.34-1.03-.98-1.82-2.02-2.25-.93-.38-1.79-.24-2.59.34-.88.64-1.4,1.48-1.4,2.6,0,.55.21,1.01.67,1.34.24.17.42.16.66-.02q-.05-.12-.4-.17c.05-.18.19-.25.35-.25.2,0,.41.19.43.4.04.28-.08.49-.3.64-.51.34-1.04.37-1.58.08-.6-.32-.97-.84-1.21-1.45-.57-1.5-.38-2.95.32-4.35.36-.71.85-1.32,1.47-1.81.41-.32.81-.67,1.26-.93.45-.26.96-.43,1.44-.64-.17.04-.34.08-.51.12-.17.05-.35.1-.51.17-.8.31-1.51.79-2.15,1.35-.25.21-.46.47-.7.69-.88.78-1.18,1.82-1.28,2.94,0,.09-.01.18-.02.27,0,.01-.01.02-.02.04-.02,0-.04,0-.06,0,.04-.4.04-.82.12-1.21.26-1.19.8-2.22,1.68-3.08.47-.45,1.04-.69,1.61-.95.89-.41,1.83-.66,2.82-.61.2.01.4.05.61.07.09,0,.17,0,.31.02-.75-.39-2.89-.35-4.4.54-1.22.71-2.47,1.88-2.78,3.42.04-.56.24-1.08.5-1.57.79-1.44,2.03-2.36,3.53-2.97.44-.18.89-.31,1.3-.44-1.27.06-2.37.67-3.45,1.37.06-.05.11-.12.18-.16,1.27-.94,2.67-1.55,4.28-1.59.91-.02,1.82.03,2.74.04.1,0,.2,0,.31-.02-.9-.32-1.82-.43-2.77-.41.21-.02.41-.05.62-.06.21-.02.42-.03.63-.03.22,0,.44.02.66.04,1.19.11,2.29.48,3.31,1.12,1.03.65,1.72,1.58,2.17,2.69.01.03.03.07.09.09-.11-.45-.22-.9-.33-1.35-.03,0-.08,0-.1-.03-.18-.23-.34-.48-.54-.69-.13-.15-.3-.26-.46-.39-.18-.16-.34-.33-.54-.46-1.3-.86-2.7-1.46-4.29-1.53-.68-.03-1.34.07-1.99.23-.03,0-.06.01-.1.02.28-.19,1.34-.37,2.07-.36.71,0,1.4.09,2.07.31.67.21,1.33.46,1.97.68-.22-.48-1.98-1.12-3.7-1.33,0-.02,0-.04,0-.06.52.08,1.03.14,1.55.23.9.17,1.71.57,2.47,1.07.07.05.15.1.22.15.13.14.25.3.38.43.1.1.22.19.34.28-.22-.27-.45-.54-.67-.81-.08-.09-.17-.18-.25-.27.02-.02.03-.04.05-.06.29.13.45.42.7.6.09.1.17.2.26.3.02-.02.04-.04.07-.06-.08-.11-.16-.22-.24-.33-.06-.07-.13-.14-.19-.21-.27-.31-.55-.61-.82-.92,0-.01.02-.02.03-.04.29.28.57.55.86.83.25.31.5.63.75.94.05.06.07.13.1.2.03-.03.06-.05.1-.08-.11-.22-.23-.43-.34-.65.93,1.29,1.09,2.75,1.1,4.25h.02s.02.08.02.13c.11-.83.1-1.66-.04-2.48-.15-.83-.46-1.59-.85-2.32.96,1.38,1.43,2.92,1.48,4.61.03-.31.07-.61.08-.92,0-.32,0-.65-.05-.97-.04-.31-.1-.62-.18-.93-.07-.3-.18-.6-.24-.91.86,1.79.9,3.67.58,5.66.48-1.46.59-2.88.41-4.34.54,2.24.39,4.79-1.43,7.65.93-.53,2.01-2.9,2.24-4.84-.02.35-.02.7-.06,1.05-.04.37-.1.73-.17,1.09-.07.35-.17.69-.26,1.03.02,0,.05.02.07.03.09-.21.17-.43.28-.69-.2,1.28-.82,2.28-1.56,3.25.15-.17.31-.33.44-.5.15-.18.28-.37.41-.57.13-.19.24-.4.38-.6,0,.04,0,.09-.02.13-.25.73-.71,1.34-1.13,1.98-.55.83-1.12,1.65-1.62,2.51-.71,1.23-.85,2.59-.73,3.99.08.99.26,1.97.56,2.92.05.16.11.33.19.48.29.59.67.75,1.29.56,1.03-.31,1.57-1.2,1.31-2.25-.14-.56-.36-1.1-.52-1.66-.88-3.05-.37-5.83,1.63-8.32.43-.53.96-.94,1.54-1.29-.14.06-.29.12-.42.19-.14.08-.28.17-.45.22.08-.07.17-.15.26-.22,1.45-1.07,3.06-1.54,4.86-1.31.72.09,1.35-.08,1.88-.57.22-.2.43-.4.65-.6.34-.32.7-.62,1.19-.79-.09,0-.15-.01-.2-.02.4-.22.79-.39,1.23-.1.15-.09.2-.24.19-.4-.01-.26-.04-.53-.04-.79,0-.34.11-.65.31-.93.15-.21.3-.41.45-.62.03,0,.05,0,.08,0,.02.21.04.41.06.61.28-.33.35-.6.22-1.45.11.29.22.57.32.83.05-.39-.08-.99-.34-1.75.1.17.22.33.31.51.09.18.14.38.22.62-.03-.65-.25-1.2-.55-1.71.02-.01.05-.03.07-.04.18.27.37.53.55.8,0,0,.02,0,.03,0-.12-.34-.24-.68-.36-1.02.33.34.47.76.56,1.21.02,0,.04-.01.07-.02-.14-.47-.28-.94-.41-1.41.01,0,.02-.01.04-.02.15.34.34.68.43,1.04.24.99.43,1.98.64,2.98.02.11.04.22.05.33.02.21.11.34.31.47,1.08.72,2,1.61,2.37,2.9.14.47.16.98.22,1.47.03.3.05.6.34.79.15.1.12.27.03.38ZM9.45,2.1c.26.08.53.15.79.23-.4-.22-.65-.29-.79-.23Zm-2.04-.27c.59.07,1.18.13,1.77.2,0-.03,0-.06,0-.09-.59-.05-1.18-.09-1.77-.14,0,.01,0,.02-.01.03Zm1.05,10.16c0-.35,0-.69,0-1.04,0-.06-.04-.12-.06-.18v1.22s.04,0,.06,0Zm4.14-6.09c-.55-1.92-3.76-4.28-7.29-3.63,2.97.02,5.6.93,7.29,3.63Zm19.62,2.31s-.1-.08-.17-.13c-.46-.38-.89-.37-1.32.04-.21.2-.28.43-.12.65.45.64.58.8,1.34.44.1-.05.19-.11.27-.19.26-.24.27-.53,0-.81Zm-1.07.07c-.32.1-.39.27-.22.56.05.08.11.16.15.22.17.18.33.11.48.05.12-.05.25-.11.37-.17.08-.04.21-.09.21-.13,0-.12-.03-.29-.11-.35-.26-.18-.56-.27-.88-.17Z"/>
  </g>
</svg>