<?xml version="1.0" encoding="UTF-8"?>
<svg id="Layer_2" data-name="Layer 2" xmlns="http://www.w3.org/2000/svg" viewBox="0 0 22.21 33.94">
  <defs>
    <style>
      .cls-1 {
        stroke-width: 0px;
      }
    </style>
  </defs>
  <g id="Layer_1-2" data-name="Layer 1">
    <path class="cls-1" d="m7.91,21.83c2.93-.16,6.16.22,8.45,2.22,1.27,1.1,1.83,2.75,2.03,4.37.65-1.74-.32-3.51-1.26-4.93-2.24-3.22-5.15-5.89-7.51-9-1.76-2.26-3.27-4.92-3.34-7.85-.09-2.09.79-4.25,2.52-5.47-.23.87-.43,1.76-.39,2.67.19-1.12.61-2.27,1.56-2.96C11.49-.23,13.56-.14,15.29.35c-.69.18-1.37.4-1.98.77,1.02-.25,2.12-.41,3.13,0,1.86.71,3,2.49,3.85,4.19-1.67-.64-3.61-1.07-5.3-.27-1.12.47-1.88,1.48-2.31,2.58-.13-1.47.82-2.73,1.93-3.57-1.17.52-2.37,1.3-2.79,2.58-.51,1.56.12,3.2.85,4.58.71,1.28,1.18,2.7,1.19,4.18.23-.85.22-1.73.01-2.59h.21c1.28,1.78,2.11,3.98,1.94,6.19.31-.33.24-.82.28-1.24.04-1.09-.3-2.14-.57-3.18,1.68,1.88,2.48,4.41,2.54,6.91.44-1.59-.12-3.21-.59-4.73,1.81,1.52,2.25,4.02,2.27,6.26.29-1.03.18-2.1.05-3.14,1.6,1.98,1.48,4.71.97,7.06.6-1.01.77-2.19.82-3.34.7,1.89.46,4.05-.41,5.85-.95,1.93-2.82,3.26-4.84,3.89-2.6.92-5.4.5-8.1.58-.07-.97,1.03-1.13,1.75-1.19-.67-1.05-.68-2.5.1-3.49.5-.74,1.36-1.08,2.16-1.39-.82.09-1.68.26-2.31.83-.67.54-.94,1.37-1.23,2.14-.44-1.1-1.27-2.01-2.31-2.57-.77.49-1.73,1-2.66.63-.4-.09-.56-.73-.14-.9.94-.44,1.83-1.05,2.39-1.95-1.51,1.61-4.08,1.72-5.93.65-.47-.32-.19-.93-.02-1.34.53-1.1.99-2.29,1.9-3.14.79-.75,1.92-.85,2.95-.93.26-.56.44-1.15.72-1.7.33-.66.92-1.13,1.48-1.59.67,1.14,1.18,2.57.62,3.86Z"/>
  </g>
</svg>