<?xml version="1.0" encoding="UTF-8"?>
<svg id="Layer_2" data-name="Layer 2" xmlns="http://www.w3.org/2000/svg" viewBox="0 0 33.94 20.28">
  <defs>
    <style>
      .cls-1 {
        stroke-width: 0px;
      }
    </style>
  </defs>
  <g id="Layer_1-2" data-name="Layer 1">
    <path class="cls-1" d="m4.73,9.16c-1.33-.81-2.96-.96-4.27-1.81-.39-.23-.59-.74-.36-1.15.72-1.36,1.88-2.52,3.34-3.06.93-.39,1.97-.43,2.89-.83.41-.16.57-.58.7-.96.68.7.55,1.7.31,2.54,1.17,1.19,1.97,2.91,3.65,3.48,1.49.4,3.09.43,4.51,1.09,1.89.8,3.5,2.47,3.88,4.53.27,1.23.05,2.51-.4,3.67.51-.64.83-1.42.93-2.23.39-2.77-.55-5.57,0-8.34.35-1.8,1.16-3.6,2.62-4.76,1.05-.83,2.37-1.32,3.72-1.33-.87.59-1.45,1.57-1.4,2.64.48-.92,1.1-1.85,2.1-2.27,1.45-.6,3.29-.18,4.33,1.01-1.09-.21-2.34-.08-3.13.79,1.1-.42,2.42-.55,3.45.11.75.44,1.18,1.23,1.55,1.99-.94-.83-2.35-1.14-3.49-.52,1.32-.1,2.69.47,3.39,1.62,1.07,1.75,1.26,4.11.29,5.95,0-1.79-.65-3.7-2.14-4.79-1.05-.79-2.54-.81-3.67-.18-1.56.9-2.51,2.53-3.29,4.11-1.16,2.6-2.38,5.27-4.43,7.3-1.39,1.4-3.27,2.29-5.23,2.48-1.38.18-2.84.03-4.08-.65-1.89-.99-3.19-3.02-3.26-5.15-.1-2,.86-4,2.46-5.2-1.17.36-2.1,1.27-2.7,2.31-.73,1.26-.96,2.73-1.01,4.17-.81-1.68-.93-3.63-.58-5.45.11-.48-.29-.86-.65-1.09Z"/>
  </g>
</svg>