<?xml version="1.0" encoding="UTF-8"?>
<svg id="Layer_2" data-name="Layer 2" xmlns="http://www.w3.org/2000/svg" viewBox="0 0 33.94 30.75">
  <defs>
    <style>
      .cls-1 {
        stroke-width: 0px;
      }
    </style>
  </defs>
  <g id="Layer_1-2" data-name="Layer 1">
    <path class="cls-1" d="m4.79,27.5c-.11.28-.2.58-.22.89-.42.18-1.12-.6-1.03-.78.06-.39.5-1.02.76-1.38.21-.23.41-.47.6-.71.21-.23.42-.45.68-.61.06-.04.12-.08.19-.13,0,0,0,0,0,0,.17-.06.34-.11.5-.17.22-.08.45-.12.64.04.18.15.21.39.34.56.02.03.05.06.08.09,0,.02,0,.05-.01.07-.21.04-.41.15-.6.24-.32.15-.61.35-.89.56-.24.18-.46.37-.64.61-.17.22-.3.47-.41.73Zm-1.29-7.21l.02.03s.09.07.14.07c.1,0,.21-.04.31-.06.18-.05.38-.07.54-.19.22-.15.32-.43.26-.69-.05-.25-.24-.45-.5-.49-.31-.04-.54.25-.65.5-.06.14-.08.28-.09.43,0,.08-.04.15-.06.23-.02.06,0,.12.02.17h0Zm4.9,7.55c-.39.21-.87.42-1.32.35-.08-.01-.16-.04-.24-.07-.13-.05-.31-.18-.27-.3-.14-.02-.26-.09-.28-.23,0-.1.06-.17.15-.23-.04-.01-.07-.02-.1-.04-.09-.04-.19-.12-.19-.24,0-.14.13-.22.25-.26.06-.02.12-.03.18-.04.04,0,.08-.01.12-.01-.08-.04-.16-.08-.23-.15-.12-.13,0-.29.12-.35.2-.1.42-.05.63,0,.21.05.43.11.64.04-.18-.27-.38-.52-.59-.77-.07.02-.14.05-.21.08-.14.06-.28.12-.41.19-.29.15-.55.35-.81.54-.22.17-.42.36-.57.59-.3.42-.5.96-.54,1.48.78.55,1.7.9,2.63,1.07.44.11,1,.03,1.2-.44.18-.39.2-.88.02-1.27-.07-.02-.11.01-.18.05Zm-4.16-1.78c.1-.11.19-.21.28-.32-.12-.13-.32-.26-.37-.29-.33-.21-.71-.35-1.1-.4-.07,0-.15-.02-.22,0-.12.06-.15.26-.18.38-.05.18.12.16.24.17.47.05.89.23,1.3.43.01,0,.03.01.04.02Zm29.61-17.91s-.08-.1-.11-.15c0,.01,0,.03,0,.04.01.32-.03.65-.11.98-.02-.03-.04-.06-.06-.1-.04.14-.09.28-.14.42,0,.26-.02.56-.17.75,0-.06-.03-.1-.03-.17-.09.23-.12.5-.3.68-.02-.04-.05-.07-.06-.13-.1.16-.19.6-.47.53,0-.04-.01-.09,0-.14-.08.1-.18.45-.36.32l-.02.03c-.1.14-.21.31-.4.27.01-.07.01-.16.04-.22-.19.16-.4.38-.65.45,0-.11.07-.2.07-.32-.14.12-.28.35-.48.34,0-.1,0-.2,0-.31-.58.05-1.15-.02-1.72-.15-1.06-.25-2.08-.76-2.97-1.37-1.6.62-1.15,2.36-.73,3.64.34,1.11.85,2.16,1.28,3.24.03.06.05.13.08.19.04.1.08.21.12.31,0-.03,0-.05,0-.08.13.31.22.62.27.96,0-.05,0-.2.03-.28.19.36.03.8.14,1.16.02-.12.03-.26.05-.37.19.35.05.74.08,1.1.03-.12.07-.26.15-.34.04.55-.13,1.18-.38,1.72-.01.04-.02.09-.03.13-.45,1.68-1.75,3.46-3.5,3.9-.12,1.93-1.26,3.71-2.89,4.75-.53.75-1.68.4-2.46.38-.76-.03-1.43.34-2.17.41-.03,0-.07.01-.1.02-.07,0-.15,0-.22,0-.11,0-.22-.04-.31-.12-.22.07-.66.13-.68-.2-.06,0-.11-.01-.16-.01-.07,0-.13,0-.2-.02-.14-.03-.16-.17-.12-.29,0-.01.01-.02.02-.03.04-.13.14-.23.25-.31.5-.35,1.15-.46,1.75-.44-.1-.11-.42-.43-.55-.49-.66-.32-1.22-.5-1.4-.53-.22-.04-.5,0-.8.08-.22.07-.44.13-.66.19-.22.05-.42.13-.66.13-.11,0-.27.01-.26-.12,0-.03.02-.06.05-.09-.27.02-.64-.04-.41-.26-.03,0-.05,0-.08,0-.07-.01-.18-.01-.23-.09-.01-.02-.02-.04-.02-.06-.04,0-.09,0-.12,0-.17-.04-.1-.19-.02-.29.11-.14.25-.21.41-.28.67-.3,1.47-.16,1.52-.18-.24-.21-.87-.58-1.14-.75-.03-.01-.05-.02-.08-.03.14-.26.14-.57.15-.86.02-.3.02-.6-.04-.89-.02-.1-.18-.06-.15.04.06.27.05.55.04.83-.01.28,0,.58-.15.83-.02.04-.05.07-.08.11-.86.59-1.87,1.03-2.93,1.05,0,0,0,0-.01,0-.02,0-.04,0-.05,0,0,0-.01,0-.02,0,0,0,0,0,0,0-.09.02-.17.08-.25.12-.13.07-.25.13-.39.18-.27.1-.58.18-.86.09-.03-.01-.07-.02-.1-.04-.03-.01-.05-.02-.08-.03-.03-.01-.05-.03-.07-.05-.03-.03-.03-.02,0-.04l.03-.02h0c.14-.01.27-.07.41-.08.04,0,.08-.03.08-.08,0-.04-.04-.08-.08-.08-.08,0-.16.03-.24.05-.04,0-.08.02-.12.03-.02,0-.02,0-.04,0-.09,0-.2.01-.28-.03-.02-.01-.03-.02-.04-.03l-.02-.03h0s0-.01,0-.01h0s0-.02,0-.02h0s.02-.02.02-.02c.05-.05.13-.08.21-.1.03,0,.04-.02.05-.04.03-.05,0-.14-.09-.12.02,0,0,0-.01,0h-.03s-.06-.02-.08-.03c-.04-.01-.08-.03-.11-.04-.04-.02-.08-.04-.1-.06h-.01s0-.01,0-.01h0s0-.04,0-.04c.03-.09.17-.11.25-.13.11-.02.22-.03.33-.02.06,0,.19.02.24-.03.05-.03.05-.13-.02-.14-.1-.03-.2-.06-.3-.1-.07-.03-.15-.07-.21-.12-.03-.03,0-.06.03-.08.06-.05.14-.06.22-.06.19,0,.38.08.57.12.2.04.39.03.58-.05.03-.01.04-.03.04-.06.14-.07.32-.18.51-.31.12-.02.23-.07.33-.13.08-.05.16-.1.24-.16.07-.05.15-.1.23-.15.14-.1.13-.25.07-.39-.08-.19-.15-.38-.21-.57-.12-.35-.19-.72-.22-1.09-.03-.36-.03-.74.04-1.1.08-.4.25-.77.54-1.05.07-.07-.04-.18-.11-.11-.51.49-.66,1.21-.65,1.9.01.74.19,1.44.48,2.11.02.04.02.08.02.1-.49-.09-.97-.34-1.42-.67-.05-.09-.11-.18-.16-.27-.03-.05-.06-.1-.08-.15-.16-.28-.33-.56-.55-.79-.22-.23-.49-.38-.78-.51-.07-.03-.13-.06-.2-.08-.09-.04-.17-.08-.25-.13-.03-.02-.05-.04-.08-.05-.28-.27-.51-.45-.68-.49.23-.23.4-.5.58-.77.12-.18.24-.35.39-.5.13-.14.24-.29.32-.46.14-.32.18-.66.24-1,.02-.09.04-.18.06-.27.03-.1-.13-.14-.15-.04-.03.13-.06.27-.08.4-.04.24-.08.48-.16.71-.06.19-.16.36-.3.51-.14.15-.26.3-.38.47-.22.31-.4.64-.68.9-.08.08-.17.15-.26.22-.05.02-.09.04-.14.07.22.16.4.37.5.61.02.04,0,.09-.04.11-.01,0-.02,0-.03,0-.03,0-.06-.02-.07-.05-.1-.24-.29-.45-.52-.6-.07.03-.14.06-.2.09.13.17.24.37.28.62,0,.04-.02.09-.06.09,0,0,0,0-.01,0-.04,0-.07-.03-.08-.07-.04-.23-.15-.42-.27-.58-.04.02-.07.03-.09.03-.47.12-1.14.44-1.88.14-.24-.1-.41-.24-.54-.41-.26-.31-.38-.72-.35-1.22-.35-.02-.75.08-1.01.21-.01,0-.02,0-.04,0-.03,0-.06-.02-.07-.04-.02-.04,0-.09.04-.11.28-.14.71-.25,1.09-.23,0-.01,0-.02,0-.04-.29-.09-.59-.18-.91-.18-.05,0-.08-.04-.08-.08s.04-.08.08-.08c.34,0,.64.08.93.17.03-.29.07-.67.09-.82.03-.39-.04-.8.05-1.19.14-.85.64-1.64,1.29-2.19-.88-1.32-.52-2.78.14-4.09.14.11.26.24.36.39.15.25.25.55.28.84.02.31-.04.59-.18.86-.14.26-.32.5-.43.77-.13.34-.09.71.02,1.05.03.1.19.06.15-.04-.11-.33-.15-.69,0-1.02.13-.28.33-.53.46-.82.24-.55.15-1.2-.14-1.71-.13-.22-.31-.39-.51-.55-.03-.1-.07-.2-.09-.31-.02-.07.08-.1.11-.03.04.1.08.2.12.3.01-.02.03-.03.04-.04-.01-.22-.04-.44-.08-.66-.01-.06.06-.08.08-.02.09.21.15.43.18.66.05-.27.11-.55.15-.82,0-.06.11-.04.1.01-.02.29-.03.59-.08.88.07-.21.14-.42.21-.64.03-.08.14-.04.12.03-.07.27-.14.53-.22.8.59.57,1.04,1.33,1.14,2.16.34-.98.88-2.06,1.82-2.57.18-.34.46-.63.73-.91.03-.03.07.01.04.04-.21.24-.42.49-.57.77h0c.21-.37.53-.66.93-.83.04-.02.08.04.04.06-.28.17-.52.41-.69.7h.02c.24-.19.52-.35.82-.42.06-.01.08.07.02.09-.22.07-.42.18-.6.33.04.01.06.06.03.1-.09.09-.16.18-.24.28.21-.17.45-.31.7-.42.05-.02.09.05.04.07-.2.11-.39.23-.56.38-.13.04-.26.07-.4.1-.19.04-.39.06-.55.18-.29.22-.46.58-.59.91-.28.7-.52,1.54-.19,2.27.1.22.25.4.38.6.07.11.14.22.18.35.04.13.05.26.09.38.03.1.19.05.15-.04-.07-.2-.08-.41-.19-.6-.1-.18-.23-.35-.35-.52-.22-.33-.29-.71-.27-1.09.02-.38.14-.76.27-1.12.12-.33.27-.69.52-.95.17-.17.38-.18.6-.23.05-.01.11-.02.16-.04.08.42.28.81.44,1.22.43,1.07.52,2.37-.16,3.37.12.16.23.33.31.52.34.18.68.31,1.02.41,2.25.66,4.69-.09,7.02.12,1.07.08,2.15.14,3.15.54,1.16.46,2.28,1.19,3.14,2.12.2-.8.1-1.64-.14-2.43-.1-.33-.23-.65-.37-.97-.32-.32-.69-.61-.96-.95.15,0,.3,0,.45,0-.24-.14-.41-.32-.62-.5.11,0,.22.02.31.05-.22-.1-.48-.32-.6-.52.05,0,.12-.02.17,0-.16-.09-.35-.22-.42-.4.06,0,.13-.01.19,0-.15-.08-.29-.24-.37-.38.02,0,.05,0,.07,0h0c-.19-.05-.41-.23-.54-.38.02,0,.05,0,.06,0-.14-.05-.31-.21-.35-.35.07.01.13,0,.2.01-.01-.02-.03-.03-.04-.05-.15-.11-.4-.28-.37-.43,0-.01-.02-.02-.03-.03-1.31-1.49-2.37-2.91-2.46-4.87-.13-1.31.01-2.44.4-3.46.59-1.54,1.74-2.78,3.4-3.84,3.92-2.51,7.94-1.1,9.37-.35,1.78.93,3.06,2.02,3.81,3.26.21.23.41.47.57.76.19.34.39.8.38,1.2-.09-.07-.18-.16-.26-.25.04.07.08.15.11.23.11.31.13.63.13.96-.04-.06-.08-.13-.12-.2.15.39.23.87.06,1.14ZM3.38,20.34v.02s.03.04.03.04h0c.06.09.15.13.24.13.09,0,.18-.03.26-.05.02,0,.05-.01.07-.02.03,0,.07-.02.1-.02.08-.02.16-.04.25-.07h0c.09-.03.17-.07.24-.12.26-.18.38-.5.31-.82-.07-.32-.31-.55-.61-.59-.09-.01-.17,0-.26.02-.3.1-.46.42-.52.56-.07.17-.09.33-.1.46,0,.05-.02.09-.03.14,0,.02-.01.04-.02.06-.03.09-.02.18.03.26Zm3.05-3.72s-.05-.07-.1-.06c-.04.01-.07.06-.06.1.04.1.05.19.04.3h0s0,0,0,0v.02s0,.03,0,.03c0,.02-.01.04-.02.06v.02s-.02.02-.02.02c0,.02-.02.03-.03.05-.02.04,0,.09.03.11.04.02.09,0,.11-.03.12-.19.12-.42.05-.62Zm.25.43s.03-.05.05-.08c.01-.02.01-.04,0-.06,0-.02-.02-.04-.04-.05-.04-.02-.08,0-.11.03-.08.11-.13.24-.12.37,0,.04.03.08.08.08.04,0,.08-.04.08-.08,0-.03,0-.06,0-.09h0s0-.03,0-.03c0-.01,0-.03.01-.04v-.02s0,0,0,0l.02-.04Zm.37,7.48c.1.09.16.2.21.32.03.07.06.15.11.22.1-.13.19-.27.26-.42-.04-.08-.08-.15-.13-.23-.16-.29-.33-.58-.57-.81-.24-.23-.53-.37-.83-.5h-.01c0,.3-.07.61-.11.89-.03.19-.07.38-.14.57.19-.06.37-.14.56-.19.23-.05.47-.01.64.15Zm3.16,3.13s-.07-.06-.11-.04c-.04.02-.06.07-.04.11.06.13.15.24.24.36.05.06.1.12.14.19.02.02.04.04.07.04.02,0,.03,0,.04-.01.04-.02.05-.07.02-.11-.04-.06-.09-.13-.14-.2-.08-.11-.17-.22-.22-.33Zm.39-.06c-.08.16-.07.3-.07.45,0,.04.04.08.08.08h0s.08-.04.08-.08c0-.15,0-.26.05-.37.02-.04,0-.09-.04-.11-.04-.02-.09,0-.11.04Zm3.22,1.38s-.06.06-.04.1c.08.2.12.41.12.66,0,.04.03.08.08.08h0s.08-.04.08-.08c0-.28-.04-.51-.13-.73-.02-.04-.06-.06-.1-.04Zm.44.67v-.43s-.04-.08-.08-.08-.08.04-.08.08v.43s.04.08.08.08.08-.04.08-.08Zm.23-.21c0-.07.02-.13.07-.2.03-.04.02-.09-.02-.11-.04-.03-.09-.02-.11.02-.07.1-.1.19-.1.3,0,.04.04.08.08.08h0s.08-.04.08-.08Zm6.74.34s-.03.06-.04.08c-.04.08-.08.15-.1.24-.02.07-.03.13-.03.21,0,.04.04.07.08.07,0,0,0,0,0,0,.04,0,.08-.04.07-.09,0-.1.02-.18.07-.27.01-.03.03-.06.04-.09.02-.03.03-.06.05-.09.02-.04,0-.09-.04-.11-.04-.02-.09,0-.11.04Zm1.65.45h-1.4s-.08.04-.08.08.04.08.08.08h1.4s.08-.04.08-.08-.04-.08-.08-.08Zm.48-.35c-.07.12-.1.24-.09.35,0,.04.04.08.08.08,0,0,0,0,0,0,.04,0,.08-.04.08-.08,0-.08.02-.17.07-.27.02-.04,0-.09-.03-.11-.04-.02-.09,0-.11.03Zm.34.06s-.08.04-.08.08v.25s.04.08.08.08.08-.04.08-.08v-.25s-.04-.08-.08-.08Zm-2.85.1s-.08-.04-.11-.02c-.04.03-.04.08-.02.11.02.03.03.06.04.09.02.04.06.09.06.14,0,.04.04.07.08.07,0,0,0,0,.01,0,.04,0,.07-.05.07-.09,0-.07-.03-.12-.06-.18-.02-.04-.05-.09-.08-.12Zm-7.58.05s-.07-.06-.11-.04c-.04.02-.05.06-.04.1,0,0,0,0,0,0,.04.09.07.16.07.24,0,.04.04.07.08.07,0,0,0,0,0,0,.04,0,.08-.04.07-.09,0-.08-.04-.16-.07-.24,0-.02,0-.03-.02-.05Zm.36,0s-.08,0-.1.03c0,0,0,0,0,0-.04.07-.08.17-.07.29,0,.04.04.07.08.07,0,0,0,0,0,0,.04,0,.08-.04.07-.09,0-.06,0-.12.05-.2.02-.03,0-.07-.02-.09,0,0,0-.01-.01-.02Zm-10.25-.82s-.08-.03-.11,0c-.03.03-.03.08,0,.11.1.1.16.21.21.33.01.03.04.05.07.05.01,0,.02,0,.03,0,.04-.02.06-.07.04-.11-.05-.12-.12-.24-.24-.37Zm.47.02s-.05-.07-.09-.07c-.04,0-.07.05-.07.09,0,.05.01.1.02.14,0,.06.01.12.02.19,0,.04.04.06.08.06,0,0,.01,0,.02,0,.04,0,.07-.05.06-.09-.01-.06-.02-.11-.02-.17,0-.05,0-.1-.02-.16Zm-.9.34h-1.27s-.08.04-.08.08.04.08.08.08h1.27s.08-.04.08-.08-.04-.08-.08-.08Zm3.23-.07s-.06-.06-.11-.04c-.04.02-.06.06-.04.1,0,0,0,0,0,0,.02.04.03.09.03.14,0,.04.04.07.08.07,0,0,0,0,0,0,.04,0,.08-.04.07-.09,0-.02,0-.03-.01-.05,0-.05-.02-.09-.03-.14Z"/>
  </g>
</svg>