<?xml version="1.0" encoding="UTF-8"?>
<svg id="Layer_2" data-name="Layer 2" xmlns="http://www.w3.org/2000/svg" viewBox="0 0 33.94 33.94">
  <defs>
    <style>
      .cls-1 {
        stroke-width: 0px;
      }
    </style>
  </defs>
  <g id="Layer_1-2" data-name="Layer 1">
    <path class="cls-1" d="m27.87,17.58c-.29-.03-.62.02-.87-.16-.26-.17-.34-.49-.47-.75.3.03.64-.02.9.17.24.18.32.48.45.73Zm-15.44-5.31c.66.76.7,1.86.44,2.8-.57,2.04-.76,4.19-.52,6.3.22,1.76.77,3.53,1.87,4.96.95,1.26,2.37,2.17,3.94,2.42,1.58.26,3.33,0,4.6-1.03,1.12-.91,1.63-2.44,1.44-3.85-.15-.91-.7-1.71-1.41-2.28.33.39.69.76.91,1.23.82,1.73.07,4.04-1.63,4.94-1.54.84-3.47.81-5.05.11-1.73-.8-2.89-2.49-3.42-4.28-.8-2.7-.6-5.62.2-8.3.26-.91.29-1.92-.08-2.81-.41-1.01-1.34-1.73-2.37-2.03-1.32-.41-2.73-.23-4.04.15.74-1.11,1.68-2.11,2.89-2.71,1.28-.63,2.82-.69,4.15-.21,1.28.5,2.07,1.78,2.41,3.07.55,2.13.25,4.39-.35,6.47-.64,2.06-1.42,4.16-1.29,6.36.02.53.81.71,1.06.25.13-.41.13-.86.27-1.27.5-1.67,1.93-3.02,3.63-3.43,1.03-.23,2.06-.51,2.98-1.03,1.38-.73,2.46-1.99,2.91-3.48.23.45.31.95.33,1.45.52.09,1.05.26,1.4.68.74.79.76,1.93.98,2.93-1.48.08-2.86-.58-4.25-1,.34.35.72.65,1.01,1.04.25.49-.03,1.21.51,1.55.73.39,1.6.08,2.38.21-.85.55-1.87.95-2.89.85-1.13-.14-2-.95-3.01-1.39-.46-.21-.97-.25-1.47-.29.5.09,1.03.15,1.48.4.9.48,1.67,1.22,2.68,1.48,1.08.3,2.2-.09,3.17-.55.28-.12.71-.47.4-.78-.72-.41-1.62-.03-2.38-.31-.37-.19-.16-.71-.24-1.04.8.24,1.62.53,2.47.48.4,0,.85-.31.8-.75-.13-.78-.19-1.57-.46-2.31-.3-.86-.97-1.55-1.81-1.89-.11-.48-.22-.97-.5-1.39-.31-.5-.86-.77-1.35-1.07,0,.88-.15,1.8-.66,2.54-.96,1.51-2.72,2.25-4.41,2.59-1.3.24-2.5.91-3.42,1.85.39-1.33.9-2.63,1.15-4,.43-2.18.48-4.53-.45-6.59-.56-1.23-1.56-2.31-2.86-2.75-1.82-.59-3.9-.39-5.52.66-1.95,1.23-3.19,3.3-3.94,5.44,1.27-.61,2.56-1.26,3.98-1.39,1.16-.13,2.5.07,3.31,1ZM2.76,26.25C-.11,21.93-.79,16.27.94,11.39,2.44,7.03,5.81,3.36,10.02,1.49c1.57-.71,3.25-1.17,4.96-1.37,5.01-.61,10.23,1.15,13.82,4.7,2.17,2.1,3.76,4.79,4.55,7.7,1.39,5.02.3,10.65-2.89,14.76-3.17,4.19-8.37,6.76-13.63,6.66-5.59.01-11.05-3-14.07-7.69Zm1.31-2.06c2.18,3.94,6.24,6.77,10.7,7.41,3.28.5,6.73-.14,9.6-1.82,2.27-1.31,4.17-3.23,5.46-5.5,1.42-2.49,2.09-5.4,1.9-8.25-.16-2.58-1.02-5.11-2.46-7.25-1.53-2.3-3.73-4.16-6.25-5.29-2.54-1.14-5.41-1.54-8.17-1.14-1.52.22-3.01.68-4.39,1.36-4.04,1.96-7.08,5.86-7.97,10.27-.72,3.45-.16,7.15,1.57,10.22Zm14.85,3.12c-.85-.27-1.49-.91-1.97-1.64.5,1.2,1.68,2.1,2.99,2.18,1.47.13,2.96-.79,3.49-2.17.39-.87.27-1.85,0-2.73.14.92.16,1.92-.33,2.75-.77,1.46-2.64,2.19-4.19,1.62Zm1.59-6.26c.99.49,1.81,1.4,1.96,2.53.25,1.43-.64,2.87-1.94,3.44,1.53-.3,2.66-1.9,2.37-3.44-.17-1.25-1.19-2.24-2.39-2.53Zm5.69.83c-.34-.18-.79-.27-.93-.68-.24-.62-.39-1.34-1.01-1.69.41.54.55,1.2.8,1.81.18.46.71.52,1.14.57Z"/>
  </g>
</svg>