<?xml version="1.0" encoding="UTF-8"?>
<svg id="Layer_2" data-name="Layer 2" xmlns="http://www.w3.org/2000/svg" viewBox="0 0 29.7 33.94">
  <defs>
    <style>
      .cls-1 {
        stroke-width: 0px;
      }
    </style>
  </defs>
  <g id="Layer_1-2" data-name="Layer 1">
    <path class="cls-1" d="m27.9,7.38c.74.53,1.31,1.25,1.81,2,.02-3.17-1.81-6.2-4.58-7.72,1.07,0,2.14.15,3.19.38C26.38.7,24.04-.04,21.69,0c-3.03.01-6.04,1.3-8.15,3.47-1.16,1.19-2.16,2.61-2.5,4.26-.51,2.32.16,4.97,1.95,6.59,1.72,1.88,2.9,4.17,4.04,6.42,1.41,2.84.87,6.46-1.22,8.82.08-1.3.15-2.67-.42-3.88-.76-1.8-2.51-3.28-4.52-3.31-1.35-.34-2.27-1.5-3.03-2.59.8-.64,1.45-1.5,1.69-2.51-1.17-.03-2.28.56-2.98,1.48-1.19-.25-2.5.24-3.14,1.28-.42.77-1.04,1.5-1.01,2.43.03.39-.02.95.41,1.13,1.01.62,2.32.47,3.3-.14-.04,1.51-1.74,2.17-3.03,2.05-1.26-.15-2.49.58-3.08,1.68,1.86-.84,4.24-.17,5.29,1.6.64-1.54,2.11-2.75,3.8-2.89,1.28.1,2.41.93,3.12,1.98-.78-.74-1.82-1.25-2.91-1.18-1.6,0-2.75,1.44-3.26,2.81-.28.94-.5,2.09.15,2.92-1-.12-2.03.47-2.18,1.51,2.46,0,4.92.01,7.38,0,.33-.45.84-.73,1.4-.65.99.09,2.01-.43,2.42-1.35.11-.5.66-.46,1.05-.58,3.56-.87,6.61-3.48,8.12-6.8.41-.83.49-1.78.54-2.69.1-2.87-.91-5.65-2.3-8.12-.71-1.19-.19-2.89,1.01-3.54.89-.28,1.83.24,2.39.92,1.16,1.39,1.63,3.17,2.13,4.87.95-1.81,1.28-3.95.79-5.95-.17-.96-.71-1.78-1.05-2.68Z"/>
  </g>
</svg>