<?xml version="1.0" encoding="UTF-8"?>
<svg id="Layer_2" data-name="Layer 2" xmlns="http://www.w3.org/2000/svg" viewBox="0 0 30.51 33.94">
  <defs>
    <style>
      .cls-1 {
        stroke-width: 0px;
      }
    </style>
  </defs>
  <g id="Layer_1-2" data-name="Layer 1">
    <path class="cls-1" d="m.31,16.12c-.1-.05-.21-.1-.27-.2-.01-.02-.02-.04-.03-.06-.02-.08-.02-.17,0-.26.12-1.27.3-2.56.8-3.74.5-1.18,1.34-2.26,2.49-2.81.23-.11.48-.21.65-.39.14-.15.22-.35.3-.54.31-.75.69-1.56,1.43-1.88.49.6.84,1.32,1.01,2.08.05.23.09.47.24.64.23.26.65.31.94.5.34.22.64.52.86.85.47.69.64,1.54.9,2.33.37,1.11,1.43,1.65,2.4,2.15,1.82.95,3.38,2.38,4.58,4.06,1.58,2.23,2.64,4.99,2.91,7.71.07.72.08,1.45-.02,2.17-.1.72-.31,1.45-.69,2.09-.7,1.23-2.21,2.32-3.67,2.3-.4,0-.79-.11-1.18-.23-1.73-.55-3.37-1.56-4.38-3.07-1.04-1.57-1.3-3.56-1.06-5.42.07-.51.17-1.02.43-1.47.83-1.46,2.47-.84,3.58-.07.67.47,1.26,1.05,1.84,1.62-.96-.87-7.9,3.7-.19,7.99.29.16.66.17.99.17.35,0,.7-.1,1.02-.23,4.77-1.93,2.6-8.9.66-12.1-1.45-2.4-3.55-4.31-6.06-5.51-.17-.09-.33-.19-.48-.31-.31-.23-.57-.51-.78-.83-.53-.77-.61-1.72-.98-2.56-.19-.42-.46-.82-.83-1.1-.37-.29-.9-.37-1.21-.73-.12-.14-.86-2.53-.98-2.44-.74.58-.6,1.93-1.46,2.24-2.1.76-3.52,8.33.22,7.4.26-.06.6-.05.73.19.06.1.06.23.06.35,0,.52-.02,1.04-.03,1.56-.59-1.11.43-2.2-.86-1.98-1.3.23-2.67.06-3.88-.46Zm5.07,2.93c-.13.05-.11-.03-.25-.06-.46-.12-.85-.55-1.32-.69-.59-.18-1.34-.16-1.92.04-.51.17-1.02.54-1.26,1.04-.04.08-.07.17-.09.25.35-.19.65-.54,1.06-.7.4-.16.83-.23,1.26-.2.91.05,1.68.61,2.49.99.1.05.18.09.28.09.11-.37.21-.73.37-1.09.06-.14.35-.88.47-.91-.33.08-.59.43-.78.7-.07.09-.23.52-.32.56Zm1.11,3.25c.38.11.79.11,1.15.05.37-.07.69-.22.97-.38.28-.17.52-.36.72-.55.41-.38.68-.75.85-1.01.17-.27.25-.43.25-.43,0,0-.12.14-.34.36-.22.22-.55.52-.97.83-.21.15-.45.3-.71.42-.26.12-.55.22-.85.26-.3.04-.6.01-.9-.08-.3-.1-.57-.26-.83-.47-.28-.22-.56-.44-.85-.65-.14-.11-.29-.21-.43-.31-.14-.1-.29-.19-.44-.28-.3-.18-.61-.33-.94-.42-.33-.09-.65-.1-.93-.07-.28.04-.53.1-.74.18-.21.07-.39.15-.53.21-.15.06-.26.12-.33.16-.08.04-.12.06-.12.06,0,0,.18-.04.48-.1.15-.03.34-.07.55-.1.11-.02.22-.03.34-.04.12-.02.24-.01.37-.02.25,0,.52.05.78.15.26.1.52.26.79.44.27.18.53.4.81.61.28.22.55.44.83.66.3.23.65.44,1.03.55Zm14.35,1.9c-.56-2.32-2.29-4.06-3.32-6.14-.5-1.03-.94-2.09-1.22-3.2-2.23-8.81,8.71-11.71,8.05-5.25.92-.67,1.46-1.83,1.39-2.96-.08-1.24-.86-2.3-1.95-2.87-1.58-.83-3.7-.62-5.25.13-1.67.81-2.63,2.32-3.06,4.09-.14.58-.23,1.17-.27,1.75-.04.59-.04,1.18,0,1.77.07,1.18.28,2.34.59,3.47.57,2.12,1.5,4.14,2.77,5.93.75,1.06,1.39,2.13,1.7,3.41.26,1.09.28,2.23.05,3.32-.36,1.72-1.08,3.64-2.57,4.69-1.35.96-2.82.89-4.39.94l-3.48.1c-.93.03-.87-.8.09-.88,1.02-.09,2.04,0,3.05.16-1.44-.74-2.84-1.53-3.97-2.71-1.3-1.37-2.24-3.04-2.9-4.78-.09-.25-.18-.5-.26-.75-.08-.25-.16-.5-.23-.76-.14-.51-.27-1.02-.36-1.55.07.53.17,1.05.3,1.56.48,1.99,1.26,3.94,2.51,5.58.78,1.04,1.86,2.27,3.05,2.84-.22,0-.43-.01-.65,0-1.55.03-3.1.38-4.26,1.46-.15.14-.05.39.15.38h.01s3.48-.06,3.48-.06l3.48-.07c1.59-.03,3.09.05,4.49-.85,1.73-1.11,2.61-3.26,3.02-5.2.25-1.17.22-2.41-.06-3.57Zm1.44-3.75c-.16-.83-.38-1.64-.59-2.43-.05-.2-.1-.39-.15-.59-.05-.19-.12-.38-.15-.58-.87-6.28,2.22-7.06,2.27-7.05.05.01-.11-.05-.21-.09-.18-.06-.46-.16-.83-.18-.19,0-.4,0-.62.05-.22.06-.46.17-.66.34-.21.17-.38.41-.52.67-.14.27-.23.57-.3.88-.13.63-.17,1.33-.14,2.05.03.73.12,1.48.26,2.26.13.77.3,1.57.51,2.37.21.8.41,1.59.56,2.39.3,1.61.41,3.25.29,4.78-.06.76-.17,1.5-.33,2.18-.16.68-.36,1.32-.59,1.89-.45,1.15-.99,2.03-1.41,2.62-.21.29-.39.51-.52.66-.13.15-.2.22-.2.22,0,0,.08-.06.23-.2.14-.13.35-.33.59-.61.48-.55,1.1-1.41,1.63-2.56.27-.57.51-1.22.7-1.92.19-.7.34-1.45.42-2.24.08-.79.12-1.61.07-2.44-.05-.83-.15-1.67-.29-2.5Zm7.63-15.27c-.29-.75-.66-1.43-1.13-2.06-.93-1.23-2.15-2.16-3.49-2.67-.67-.25-1.37-.4-2.08-.44-1.44-.07-2.84.36-4.03,1.17-.6.41-1.15.92-1.63,1.49-.48.57-.89,1.22-1.22,1.91-.33.69-.57,1.44-.7,2.21.18-.76.46-1.47.81-2.14.35-.66.78-1.27,1.27-1.8.49-.53,1.04-.99,1.63-1.36,1.75-1.11,4-1.46,5.79-.51,9.3,4.92.02,16.84-2.53,15.13,1.55,2.92,2.41,6.74,1.4,10.02.99-2.94.96-6.46-.47-9.18.54.07,1.09.07,1.64-.06,3.96-.93,5.68-5.77,5.3-9.36-.09-.81-.27-1.6-.56-2.35Z"/>
  </g>
</svg>