<?xml version="1.0" encoding="UTF-8"?>
<svg id="Layer_2" data-name="Layer 2" xmlns="http://www.w3.org/2000/svg" viewBox="0 0 33.39 32.83">
  <defs>
    <style>
      .cls-1 {
        stroke-width: 0px;
      }
    </style>
  </defs>
  <g id="Layer_1-2" data-name="Layer 1">
    <path class="cls-1" d="m22.21,30.28s.02.09-.03.1c-.19.05-.34.17-.53.24-.18.07-.37.05-.54-.02-.19-.07-.36-.19-.54-.3-.07-.04-.14-.08-.22-.12-.02,0-.03.01-.05.02-.07.02-.15.03-.22.02-.13-.12-.28-.22-.44-.31-.1-.06-.21-.11-.31-.16,0,0,.02,0,.03.01.18.06.36.11.54.15.09.02.18.04.28.06.04,0,.08,0,.12,0,0,0,0,0,0,0,.03,0,.05.01.08.01.1,0,.19,0,.29.01.18.04.37.1.55.13.19.03.37.01.56-.01.01,0,0-.02,0-.02-.18.01-.37-.01-.55-.06-.09-.02-.18-.05-.27-.09-.07-.04-.14-.08-.21-.11-.09-.04-.18-.06-.28-.08.05-.05.09-.1.15-.14.18-.12.44-.11.64-.07.2.03.38.12.53.26.15.14.25.32.39.48Zm-2.8-.3c-.28-.14-.56-.27-.83-.42,0,0,0,0,0,0,0,0-.01,0-.02-.01-.09-.05-.18-.11-.26-.16-.06-.04-.12-.07-.18-.11-.07-.05-.15-.1-.24-.16-.24-.16-.5-.33-.7-.54-.02-.03-.05-.05-.07-.07-.07-.08-.12-.17-.16-.27,0,0,0-.02,0-.02-.03-.05-.06-.09-.1-.13-.11-.09-.22-.17-.32-.21-.17-.07-.42,0-.59.05-.17.05-.37.1-.45.23-.04.06-.05.17.04.27,0,0,.01.02.02.03.05.07.12.12.18.18.07.07.14.15.21.21.17.15.36.27.55.38.03.01.07.03.1.04.09.04.19.09.28.13.07.03.14.06.21.09.12.04.25.08.38.12.21.05.41.13.6.21.75.22,1.51.49,2.04,1.2.13.17.21.37.28.56,0-.15-.01-.29-.04-.42-.1-.51-.39-.89-.92-1.18Zm7.04-4.36c.01.22,0,.45-.05.68-.05.18-.11.36-.17.54-.12.33-.24.66-.23,1,0,.13.04.26.08.39.05.15.1.31.09.49,0,.05-.02.2-.08.31-.06.09-.1.15-.16.15,0,0-.02,0-.03,0,0,0-.02,0-.03-.01-.73-.02-2.11-.03-2.9,0-.63.03-1.27.03-1.88.03-.19,0-.37,0-.56,0-.36,0-.71,0-1.07,0-.37,0-.75,0-1.12,0-.01-.01-.03-.01-.04-.01-.03-.02-.06-.04-.09-.06-.04-.03-.09-.06-.13-.09-.04-.02-.07-.05-.11-.07-.09-.06-.18-.12-.28-.18.92-.22,1.65-.37,2.33-.48.86-.13,1.75-.16,2.64-.14.62,0,1.25.04,1.86.07l.47.02c.23.01.82.09.9.11.02,0,.03,0,.05,0h.02s-.02-.07-.03-.11c0-.01,0-.02-.01-.04-.23-.09-.91-.13-.92-.13l-.47-.02c-.52-.03-1.05-.05-1.57-.06-1-.03-1.99-.01-2.96.14-.72.11-1.47.27-2.45.51,0,0-.02,0-.02.01-.06-.05-.1-.1-.15-.15-.02-.02-.04-.03-.05-.05-.03-.03-.07-.06-.09-.09,0,0,0,0,0-.01-.02-.03-.03-.06-.05-.09,0,0,0,0,0,0,.11-.02.22-.05.32-.08,1.87-.51,4.05-.72,6.29-.63.02,0,.03,0,.05,0,.17,0,.34,0,.51,0,.27,0,.55,0,.81.03.1.01.21.04.32.06.1.02.21.04.32.06.01.01.03.02.05.02,0-.06,0-.12.01-.17-.12-.01-.23-.03-.35-.06-.11-.02-.22-.05-.33-.06-.27-.03-.56-.03-.83-.03-.1,0-.2,0-.3,0-.07,0-.13,0-.2,0-2.28-.1-4.48.12-6.39.64-.12.03-.24.06-.36.09-.04-.06-.08-.12-.14-.17-.07-.06-.21-.18-.36-.24-.22-.08-.5,0-.7.04-.18.05-.42.11-.53.3-.05.08-.07.2-.03.31-.43.03-.86.05-1.28.07-.21,0-.43.02-.64.03-1.33.07-2.45.05-3.51-.06-.96-.1-1.89-.26-2.6-.38-1.06-.19-2.08-.18-3.15-.18h-.24c-.52,0-1.07,0-1.61.08-.62.08-1.22.23-1.74.56-.03.07-.05.15-.06.23,0,0,.02,0,.02,0,.62-.45,1.38-.6,2.16-.66.41-.03.83-.03,1.22-.04h.24c1.07,0,2.08-.01,3.12.17.71.13,1.64.28,2.61.38,1.07.11,2.19.13,3.53.06.21-.01.43-.02.64-.03.45-.02.91-.04,1.36-.08.04.05.08.08.12.12.07.08.15.15.22.22.07.06.13.14.2.19.07.06.15.11.22.16-1.42.01-3.29.02-5.16.02-.45,0-.91-.01-1.36-.02-.34,0-.69,0-1.02-.02-1.05-.03-2.14-.06-3.21-.03-.45.01-.9.02-1.35.03-1.07.03-2.17.06-3.26.06-.05,0-.11.01-.16.01-.09,0-.17-.02-.23-.07-.07-.06-.1-.15-.1-.27,0-.23.07-.43.15-.63.07-.19.14-.37.14-.56,0-.27-.09-.51-.2-.74-.02-.04-.03-.08-.05-.12-.07-.14-.13-.29-.19-.45-.12-.35-.19-.83-.14-1.29,0-.02,0-.03,0-.05.02-.19.06-.37.13-.54.02-.04.05-.05.09-.05,0,0,0,0,0,0,.27-.05.56-.05.84-.04.13,0,.26,0,.39,0,.22,0,.44,0,.66,0,.12,0,.23,0,.35,0,.42,0,.83,0,1.25,0,.4,0,.8,0,1.2,0,.62,0,1.24-.01,1.85-.03.58-.01,1.19-.03,1.78-.03.03,0,.09,0,.15,0,0,.03,0,.06,0,.09.01.1.07.18.15.24,0,.04.02.08.04.12-.11,0-.23,0-.36,0-.35.02-.71,0-1.06,0-.19,0-.39-.01-.58-.01-.52,0-1.04.02-1.55.04-.46.02-.93.04-1.4.04-.35,0-.7,0-1.04-.02-.34,0-.7-.02-1.05-.02-.28,0-.55.04-.82.08-.28.04-.57.08-.85.08,0,.05-.01.1-.02.16.3,0,.6-.03.89-.08.26-.04.54-.08.8-.08.35,0,.7,0,1.04.02.34,0,.7.02,1.05.02.47,0,.95-.02,1.41-.04.5-.02,1.03-.04,1.54-.04.19,0,.39,0,.58.01.35.01.71.02,1.07,0,.22-.01.41,0,.62.01.16,0,.31.02.49.02h.34c.86,0,1.74,0,2.61.05.13,0,.26.02.39.03-.28.02-.53.04-.64.04h-.02c-.11,0-.22-.02-.33-.02-.09,0-.19-.02-.28-.02-.11,0-.22-.01-.33-.02-.24-.02-.48-.03-.72-.04h-.04c-.06,0-.12,0-.18,0-.19,0-.4.01-.62.09-.18.06-.36.16-.54.28-.02.01-.04.03-.06.04-.13.09-.31.2-.36.37,0,0,0,.02,0,.03-.14-.04-.29-.09-.43-.13-.37-.12-.75-.24-1.15-.3-.23-.04-.62-.03-.99-.02-.2,0-.41,0-.59,0-.35-.01-.71,0-1.07.02-.13,0-.27.01-.4.02-.14,0-.29,0-.44,0-.2,0-.42-.02-.62,0-.09,0-.17.02-.25.03-.25.03-.48.06-.73.06-.24,0-.49.04-.73.07-.12.02-.25.03-.37.05-.21.02-.45,0-.66,0-.09,0-.17,0-.25-.01,0,.05.01.11.02.16.07,0,.14,0,.22.01.22.01.46.03.68,0,.13-.01.25-.03.38-.05.23-.03.48-.07.71-.07.27,0,.5-.03.75-.06.08-.01.16-.02.25-.03.19-.02.4-.01.6,0,.15,0,.3.01.45,0,.14,0,.27-.01.4-.02.33-.02.64-.03.96-.03,0,0,0,0,0,0,.02,0,.05,0,.08,0,.29.01.59.05.89.13h.05c.16.05.48.14.56.28.02.04.02.08,0,.14-.11.26-.67.29-1.01.31-.07,0-.13,0-.18.01-.41.04-.84.05-1.25.06-.44.01-.9.03-1.35.07-.28.03-.57.05-.85.06-.24.01-.5.03-.75.05-.34.03-.64.06-.95.06-.03,0-.06,0-.09,0-.09,0-.19,0-.26-.03,0,0-.02,0-.03-.01.01.03.02.05.04.08.02.04.04.08.05.12.04,0,.07,0,.11,0,.03,0,.07,0,.1,0,.03,0,.06,0,.08,0,.32,0,.63-.03.97-.06.25-.02.5-.04.74-.05.28-.02.57-.03.86-.06.44-.05.9-.06,1.34-.07.41-.01.84-.02,1.26-.06.05,0,.11,0,.18-.01.4-.02,1-.05,1.15-.41.04-.1.04-.19,0-.27-.1-.2-.42-.29-.63-.35.22,0,.42,0,.56.03.39.06.76.18,1.13.3.16.05.32.1.48.15,0,.03.02.06.03.08.08.12.22.17.31.19,0,.04,0,.07.02.1.05.15.2.18.26.19.05,0,.11.02.17.02.04.13.15.24.28.26.02,0,.05,0,.07,0,.04,0,.08,0,.12-.01.02.09.07.17.15.22.05.04.12.05.18.05.1,0,.19-.04.26-.08h.02c.14-.08.29-.13.47-.16h.06c.15,0,.31,0,.45.01.45.03.89.07,1.34.12.44.05.9.09,1.35.11h.06c.1,0,.2,0,.3,0,.25,0,.58-.02.88-.16.27-.13.44-.36.56-.6.3-.01.59-.02.88-.03.47,0,.96-.02,1.44-.05.5-.04.99-.15,1.46-.26.25-.06.51-.12.77-.17.39-.07.78-.16,1.15-.25.66-.15,1.35-.31,2.04-.37.24-.02.48-.05.72-.09.48-.06.97-.12,1.46-.13,0,0,0,0,0,0,.03.02.07.01.09,0h0c-.01-.05-.02-.11-.04-.16,0,0-.02,0-.03,0h0c-.51,0-1.02.07-1.52.13-.24.03-.48.06-.72.09-.69.07-1.39.23-2.06.38-.38.09-.76.17-1.15.24-.26.05-.52.11-.78.17-.46.11-.94.22-1.43.25-.48.03-.96.04-1.43.05-.26,0-.53.01-.8.02,0,0,0-.02.01-.02.08-.04.12-.12.16-.2.01,0,.02,0,.03,0,.02,0,.04,0,.06,0,.15-.03.22-.15.25-.21h0c.07,0,.15-.03.21-.09.03-.03.06-.07.08-.11,0,0,.02,0,.03,0,.06,0,.12-.02.17-.05.04-.03.08-.06.1-.1.18,0,.35.01.53.02.35.01.7.02,1.05.02.5,0,1-.02,1.48-.11.36-.06.72-.12,1.09-.15.11,0,.25,0,.38,0,.17.01.33.02.44,0,.02,0,.03-.01.04-.02.01,0,.03.01.04.01h0c.42,0,.84-.1,1.25-.2.31-.07.63-.15.94-.18.13-.01.26-.03.39-.05.18-.03.38-.05.56-.06.08,0,.17,0,.25.01.11,0,.21.02.32,0,0,0,.01,0,.02,0,0-.01,0-.02,0-.03v-.04c-.22,0-.72,0-1.42,0-.05,0-.09.01-.14.02-.32.03-.64.11-.96.18-.4.09-.81.19-1.21.19-.02,0-.04,0-.05.02-.02-.01-.04-.02-.06-.01-.08.02-.24,0-.39,0-.14,0-.29-.02-.41,0-.38.03-.74.09-1.11.16-.81.14-1.67.11-2.5.08-.11,0-.21,0-.32,0,.01,0,.03-.02.04-.03.05-.04.08-.09.1-.13.02,0,.03,0,.05,0,.08,0,.16-.04.22-.11.06-.07.09-.15.12-.23,0-.02.03-.08.04-.1,0,0,.02,0,.03,0,.05-.01.09-.04.12-.08.03-.01.05-.03.07-.05.04-.03.06-.06.08-.1.2,0,.39,0,.59,0,.61.38,1.36.59,2.18.59.52,0,1.04-.08,1.55-.23.3-.09.58-.2.85-.33,1.38,0,2.36.01,2.59.01.04,0,.08.04.08.08,0,0,0,0,0,0l.02.08c.07.3.13.6.15.91Zm-.48,1.45s-.03,0-.05,0c-.16.07-.43.04-.67.02-.12-.01-.23-.02-.32-.02-.11,0-.23,0-.35,0-.13,0-.25,0-.38,0-.58,0-1.17.02-1.75-.03-.03,0-.07,0-.12,0-.28,0-.44-.02-.47-.05,0,0-.02-.09.38-.27.24-.1.5-.17.75-.23.12-.03.24-.06.36-.1.12-.04.24-.07.37-.11.3-.09.6-.18.9-.25.09-.02.17-.04.26-.06.46-.11.94-.22,1.42-.23,0-.08,0-.16-.01-.24-.12-.09-.39-.11-.82-.13h-.09c-.6-.03-1.27.07-2.1.3-.18.05-.36.11-.54.16-.66.2-1.29.38-1.97.5-.97.16-1.93.43-2.86.7l-.22.06c-.72.2-1.38.3-2.07.3h-.01c-.76,0-5.15-.05-6.77-.15-.01,0-.02,0-.04,0-.03,0-.07,0-.11,0-.02,0-.04,0-.07,0-.14-.01-.31-.04-.47-.07-.17-.03-.33-.05-.44-.06-.46-.03-.91-.06-1.29-.09-.88-.07-1.85-.07-3.06-.03-.8.03-1.62.16-2.44.37-.07.02-.15.03-.22.05.01.05.02.1.03.16.14-.04.27-.05.4-.09.75-.18,1.5-.3,2.23-.32,1.21-.05,2.17-.04,3.04.03.38.03.84.06,1.29.09.1,0,.26.03.42.06.03,0,.05,0,.08.01,0,0,.01,0,.02.01.06.02.19.03.35.04.04,0,.07,0,.11,0,1.6.11,6.45.16,6.92.16h.01c.71,0,1.38-.1,2.11-.31l.22-.06c.92-.26,1.88-.54,2.84-.69.69-.11,1.32-.3,1.99-.5.18-.05.36-.11.54-.16.81-.23,1.46-.33,2.05-.3h.09c.35.01.53.04.63.06-.43.03-.85.13-1.25.22-.09.02-.17.04-.26.06-.31.07-.62.16-.91.26-.12.04-.24.07-.37.11-.12.03-.23.06-.35.09-.26.07-.53.14-.78.24-.23.1-.53.25-.47.46.04.16.31.17.62.17.05,0,.09,0,.11,0,.58.05,1.18.04,1.77.03.05,0,.09,0,.13,0,.2,0,.39,0,.59,0,.09,0,.19.01.31.02.13.01.27.03.4.03.1,0,.2,0,.29-.03.02-.06.03-.11.05-.17Zm-.51,1.44h-.11c-.2-.01-.4-.02-.6-.04-.82-.04-1.66-.09-2.49-.04-.08,0-.16,0-.23.01-.05,0-.11,0-.16,0-.52.03-1.05.05-1.56.15-.27.05-.5.16-.73.26-.13.06-.26.12-.4.17,0,0,0,0-.01,0,.14,0,.27,0,.41,0,.02-.01.05-.02.07-.03.22-.11.44-.21.69-.25.4-.07.81-.1,1.22-.13.11,0,.21-.01.32-.02.13,0,.26-.01.39-.02.82-.05,1.66,0,2.48.04.2.01.4.02.6.03h.11c.19.01.39.02.54.08,0,0,0,0,0,0,0-.01,0-.03,0-.04,0-.04,0-.08,0-.12-.17-.06-.37-.07-.54-.07Zm.83-2.46c-.1-.02-.25,0-.4.05-.11.03-.22.07-.32.11-.08.03-.16.06-.21.08-.04.01-.08.02-.13.04-.19.05-.41.11-.55.29l-.05.07.07.05c.07.05.16.07.25.09.15.04.31.05.47.06.05,0,.11,0,.16,0h.05c.05,0,.11,0,.16,0,.09,0,.19-.01.27-.04,0-.02.01-.04.02-.06.02-.04.03-.09.05-.14-.02,0-.05,0-.07.01-.09.08-.29.07-.43.06h-.05c-.05,0-.11,0-.16,0-.1,0-.2,0-.3-.02-.09,0-.17-.03-.25-.06.1-.09.25-.12.4-.16.05-.01.09-.02.13-.04.03,0,.07-.02.1-.04.04-.01.08-.03.12-.04.2-.08.51-.2.64-.16,0,0,0,0,0,0,.01-.05.02-.1.03-.16Zm-12.76-1.07s-.05-.05-.08-.08c-.04-.04-.09-.08-.13-.13l-.02-.02s-.09.06-.12.07c-.12.06-.26.1-.44.13-.02,0-.04.01-.06.01.3.02.61.04.91.07-.02-.02-.04-.04-.07-.06Zm4.96,6.13c-.09-.07-.17-.12-.27-.17-.07.12-.17.24-.22.36-.05.13-.06.28-.07.42-.01.16-.03.33-.04.49,0,.01-.02.01-.02,0,0-.16-.01-.33-.02-.49,0-.14-.01-.29.02-.43.03-.16.13-.29.22-.42,0,0,0,0-.01,0,.01-.15,0-.31-.04-.45-.05-.16-.13-.31-.24-.44-.02-.03-.04-.05-.07-.07-.01-.01-.03-.02-.04-.03-.13-.04-.25-.08-.38-.12-.17-.04-.33-.11-.49-.18.01,0,.02.02.03.02.09.07.18.14.28.2.19.13.37.26.5.44.15.21.21.45.25.7-.02,0-.04,0-.06,0-.11.02-.2.06-.28.13-.16.13-.27.31-.29.52,0,.04,0,.07,0,.11.02.16.1.32.18.46.13.21.23.42.3.66,0,.03.05.05.07.02.3-.38.78-.61.92-1.11,0,0,0-.02,0-.02.05-.23-.05-.44-.23-.58ZM7.69,2.68s0,.04,0,.06c.02-.07.06-.12.09-.17.02-.02.03-.05.05-.07,0,0,0,0,0-.01,0-.05.01-.09.02-.14,0-.02-.03-.02-.03,0,0,0,0,.01,0,.02,0,0-.02,0-.02,0-.03.05-.05.1-.06.15-.01-.08-.03-.17-.05-.25,0-.01-.03-.01-.03,0,0,.13.01.25.03.37,0,.02,0,.03,0,.05Zm-2.75,2.93s.04-.01.06-.02c.1-.03.21-.07.28-.14.13-.14.16-.41.17-.64,0-.12,0-.24,0-.37,0-.14,0-.28,0-.42v-.06c0-.1,0-.19,0-.28-.03.08-.07.17-.11.24-.13.23-.27.44-.37.69-.11.27-.08.53-.05.81,0,.06.01.12.02.18Zm5.08,13.66c-.03.08-.06.15-.06.24,0,.09,0,.21.06.25-.02.07-.04.14-.02.19.02.04.05.07.08.07,0,.04,0,.07,0,.11,0,.09.03.15.07.19,0,.12.04.19.1.21.15.39.38.74.69,1.04,0-.75.04-1.72.37-2.58.14-.36.34-.72.67-1.16.12-.16.21-.29.31-.4.01-.01.02-.03.04-.04-.16,0-.24-.08-.3-.17-.04-.06-.06-.09-.14-.08-.21.02-.31-.1-.37-.18-.05-.06-.06-.07-.08-.06-.24.07-.34,0-.42-.08-.02-.02-.04-.04-.06-.05-.05-.02-.11-.03-.18-.04-.24.25-.42.63-.55.93-.08.18-.2.41-.19.6.03,0,.07,0,.1-.02-.07.12-.12.24-.12.36,0,0,.02,0,.02,0-.05.11-.09.24-.07.36,0,0,0,0,0,0-.04.11-.05.23-.04.31.03.02.06.02.08.02Zm23.25-14.06s-.02,0-.02-.01c.04.11.06.23.05.35,0,.09-.02.27-.15.26,0,.06,0,.13-.02.19-.02.08-.05.21-.14.23-.03,0-.05,0-.07,0,0,.1-.01.21-.04.31-.03.12-.09.25-.22.27-.07.01-.13-.02-.18-.07,0,.07,0,.14-.04.2-.06.13-.2.22-.33.22-.01,0-.02,0-.03,0,0,.1-.05.19-.14.25-.08.05-.19.06-.27,0-.02-.01-.03-.03-.05-.04,0,.01,0,.02,0,.04-.02.07-.07.14-.14.17-.06.03-.15.04-.21.01-.02,0-.03-.02-.05-.03-.04.08-.13.13-.21.14-.08.01-.16-.01-.23-.05,0,0,0,0-.01,0-.04,0-.08.02-.12.02-.01.02-.03.03-.04.05-.08.07-.19.1-.29.1-.1,0-.21-.04-.31-.11-.01,0-.03,0-.04,0-.06.01-.12.03-.18.05-.02.01-.05.02-.07.03,0,0-.01,0-.02,0-.65.25-1.07.83-1.25,1.51,0,.02-.02.04-.02.06-.22.91-.01,1.85.14,2.76.15.94.27,1.89.27,2.84,0,.86-.09,1.72-.28,2.56-.37,1.63-1.09,3.18-2.12,4.49-.33.41-.69.81-1.09,1.17-.76.68-1.63,1.23-2.6,1.52-1.27.38-2.77.32-3.85-.51-.02,0-.03-.01-.05-.02-.05-.02-.1-.06-.13-.1-.02.05-.05.1-.1.13-.06.05-.16.05-.22,0,0,.02-.01.05-.02.07-.02.07-.04.14-.09.19-.03.02-.06.03-.09.03,0,.01,0,.02,0,.03,0,.01-.02.02-.04.03,0,0-.02,0-.02,0-.01,0-.03,0-.04,0-.01,0-.02-.01-.03-.02-.02.05-.03.11-.06.16-.03.08-.06.17-.11.24-.04.05-.12.08-.17.01-.02-.03-.03-.07-.04-.11,0,0,0,0,0,0-.01.04-.02.08-.04.12-.02.07-.05.15-.1.19-.05.05-.13.05-.19,0,0,0,0,0-.01-.01,0,.03-.02.06-.03.1-.02.07-.05.14-.11.18-.05.04-.13.04-.17-.02,0,0,0-.02-.01-.02,0,.01,0,.03-.01.04-.02.06-.06.13-.1.18-.05.04-.13.07-.16,0,0-.01,0-.02,0-.04,0,0,0,.02,0,.03-.02.04-.04.08-.05.12-.03.07-.07.14-.15.15-.06.01-.12,0-.17-.05-.04.17-.09.29-.17.27-.12.31-.28.63-.59.78-.35.17-.78.15-1.16.13-.45-.01-.9-.06-1.35-.11-.44-.05-.89-.09-1.33-.12-.18-.01-.36-.01-.53-.01-.18.03-.36.08-.53.17-.09.05-.2.11-.3.04-.07-.05-.09-.14-.08-.22,0-.03.02-.07.04-.09-.02,0-.04.01-.05.02-.09.03-.2.08-.3.06-.09-.01-.15-.1-.16-.18,0-.03,0-.06.02-.09-.1,0-.21,0-.31-.01-.06-.01-.12-.03-.14-.09-.02-.05,0-.1.03-.14.01-.02.03-.03.04-.05-.06,0-.12,0-.18-.01-.13-.02-.3-.09-.25-.26.05-.14.25-.25.36-.33.16-.11.32-.2.5-.26.27-.09.52-.08.79-.08.35,0,.7.04,1.05.06.2.01.41.03.61.04.19.01,1.26-.09,1.6-.14-.07-.18-.23-.3-.37-.44-.07-.07-.15-.14-.22-.21-.03-.02-.05-.03-.08-.05-.01.08-.09.12-.16.16-.12.06-.26.1-.4.12-.22.06-.47.04-.69.03-.32,0-.64,0-.95.02-.49.02-1.69.01-1.76.03-.06.01-.13.02-.19,0-.05-.03-.09-.08-.09-.14,0-.02,0-.05.01-.07-.08-.01-.15-.06-.16-.15,0-.07.04-.14.09-.18.05-.04.12-.06.19-.08.01,0,.03,0,.04,0,0,0,0,0,0,0,0-.03,0-.07.01-.1.01-.03.05-.06.08-.07.06-.03.14-.05.21-.06.04,0,.08,0,.12,0,0,0,.01,0,.02,0,.04-.16.31-.13.43-.14.26-.02.52-.09.77-.16.24-.06.48-.1.73-.07.12.01.23.03.35.03.11,0,.18-.02.26-.07-.1-.11-.2-.22-.29-.32-.04-.04-.07-.09-.11-.13-.22-.27-.41-.56-.55-.89-.06-.15-.1-.3-.13-.46,0-.09,0-.18,0-.26,0-.74.04-1.69.36-2.52.13-.35.33-.69.65-1.12.11-.16.21-.28.3-.39.02-.02.04-.04.06-.06.04-.04.08-.09.11-.13.02-.01.03-.04.03-.06,0-.03-.01-.07-.04-.08-.03-.01-.06,0-.09.01-.22.05-.27,0-.32-.09-.05-.07-.12-.16-.29-.14-.12.01-.17-.05-.23-.12-.05-.06-.12-.15-.24-.12-.18.05-.22.01-.27-.04-.03-.02-.05-.05-.09-.07-.09-.05-.2-.06-.31-.06-.02,0-.04,0-.06,0-.03-.03-.06-.06-.08-.1-.04.04-.11.06-.17.05-.06,0-.12-.02-.17-.04-.03-.01-.05-.02-.08-.04-.02,0-.03-.03-.05-.04-.13.03-.27.03-.38-.05-.05-.03-.09-.07-.12-.12,0,0,0,0,0,0,0,.02,0,.03-.02.05,0,0,0,0,0,0,0,0,0,0,0,0,0,0,0,0,0,.01-.04.05-.08.07-.14.07-.08,0-.15-.02-.21-.07,0,0-.02-.01-.02-.02,0,0-.02.02-.03.02-.03.02-.06.02-.09.02-.03,0-.07-.01-.09-.03-.02-.02-.05-.03-.07-.06,0-.01-.02-.02-.03-.03-.03.03-.06.04-.1.04-.08,0-.15-.02-.21-.07,0,0,0-.01-.01-.01,0,0,0,0,0,0,0,0,0,.01,0,.02-.02.02-.02.02,0,0-.02.02-.01.02-.03.03-.02.01-.05.02-.07.02-.03,0-.06,0-.08-.01-.05-.01-.1-.04-.14-.08-.01-.01-.02-.03-.03-.04-.01.03-.04.06-.07.07-.04.01-.1,0-.14-.02-.05-.03-.1-.07-.14-.12,0,0,0,0,0,0-.02,0-.03.01-.05.02-.05,0-.1,0-.15,0-.03,0-.06-.02-.09-.03,0,0,0,0,0,0-.27-.04-.5-.25-.66-.46-.2-.25-.36-.52-.53-.78-.1-.16-.23-.31-.3-.49-.25-.57-.86-.74-.92-.77-.04-.02-.08-.04-.13-.05-.18-.07-.37-.11-.56-.16-.1-.03-.34-.1-.26-.24.02-.01.04-.04.04-.06,0-.04-.03-.07-.07-.07,0,0-.02,0-.02,0,0,0,0,0-.01,0,0,0,0,0,0,0,0,0,0,0,0,0,0,0,0,0-.01,0,0,0-.02,0-.02,0-.02,0-.03,0-.05-.01h0s0,0,0,0c0,0,0,0,0,0,0,0,0,0,0,0,0,0-.02,0-.02-.01,0,0-.01,0-.02-.01,0,0,0,0,0,0,0,0,0,0,0,0,0,0,0,0-.01-.01,0,0,0,0,0,0,0,0,0,0,0,0,0,0,0,0,0,0h0s0,0,0,0c0,0,0,0,0,0h0s0,0,0-.01h0s0,0,0,0c0,0,0,0,0,0,0,0,0,0,0,0,0,0,.02-.02.02-.02,0,0,0,0,0,0,0,0,0,0,0,0,0,0,0,0,0,0,0,0,0,0,0,0,0,0,0,0,0,0,0,0,0,0,0,0,0,0,0,0,0,0,0,0,0,0,0,0,.02,0,.03,0,.04,0,0,0,0,0,0,0,0,0,.02-.01.02-.02,0-.02.01-.04,0-.06,0-.01,0-.02-.02-.03-.01-.01-.03-.02-.05-.02-.06,0-.19,0-.23-.07-.05-.08.11-.17.17-.2.11-.06.23-.11.35-.15.04-.01.08-.03.11-.04,0,0,0,0,0,0,.12-.04.25-.07.37-.07,0,0,0,0,0,0,.06.01.12.02.18.03.15.02.47.07.74.13.27.06.56.16.59.17.15.06.3.12.45.2.07.04.14.08.21.13.01,0,.03.02.04.03-.02-.13-.04-.26-.08-.38-.25-.12-.52-.19-.8-.23-.04,0-.3-.06-.38-.07-.54-.1-.97-.17-1.37-.2-.16-.01-.32,0-.48,0-.11,0-.22,0-.34,0-.11,0-.22,0-.33.01-.3-.04-.6-.08-.76-.33-.18-.16-.33-.37-.39-.57-.07-.24-.01-.44.08-.64-.07-.06-.15-.11-.22-.16-.09-.07-.19-.13-.27-.21-.03-.03-.04-.08-.01-.11.03-.03.08-.04.11-.01.09.07.18.14.27.2.07.05.13.1.2.15.01-.03.02-.05.04-.08-.07-.12-.15-.24-.23-.35-.04-.06-.08-.11-.12-.16-.02-.04-.02-.09.02-.11.04-.02.09-.02.11.02.04.05.08.11.11.16.06.09.12.17.18.26.11-.3.13-.63.14-.94,0-.34,0-.68.08-1.02.08-.33.25-.61.48-.86.24-.25.51-.46.78-.67.24-.19.49-.36.75-.52,0,0,.01,0,.02,0,.04-.02.08-.04.12-.06.09-.05.18-.1.27-.13.03-.01.06-.02.09-.03.12-.04.25-.08.35-.18.17-.18.2-.49.21-.74,0-.13,0-.25,0-.38,0-.13,0-.27,0-.41v-.06c0-.14.02-.27,0-.42,0-.08-.03-.15-.05-.22,0-.03.01-.05.02-.08,0,0-.01,0-.01-.02,0-.02,0-.03,0-.05-.01-.09-.03-.17-.06-.26-.04-.1-.09-.2-.15-.29,0-.01,0-.02.02-.01.08.08.14.18.18.28,0,0,0,.02,0,.03,0-.1-.02-.2-.03-.3,0-.03-.01-.05-.01-.08,0,0,0-.01.01-.01,0,0,.02,0,.02,0,.03.07.04.15.05.23,0,.02,0,.04.01.05,0-.11,0-.23.01-.34,0-.02.03-.01.03,0,.01.11,0,.23.01.34,0,.05,0,.09,0,.14,0-.05,0-.1.01-.14,0-.07.02-.13.03-.2,0-.06.02-.12.04-.18,0-.01.03,0,.03,0,0,.06,0,.13,0,.19,0,.03,0,.07-.01.1,0,0,0-.01,0-.02,0-.02.03-.01.03,0,0,.08-.03.16-.04.25-.01.05-.03.11-.04.16.16.23.33.47.49.7.15.21.27.43.31.69.04.26,0,.52-.08.77.05,0,.09,0,.14,0,.03,0,.03.04.01.05.01,0,.02,0,.04,0,.02-.22.07-.43.15-.63.24-.6.69-1.15.76-1.8-.03-.04-.05-.09-.08-.13-.05-.07-.09-.14-.13-.22,0-.01.01-.03.02-.01.05.07.1.14.14.21.02.03.04.06.05.09,0-.02,0-.04,0-.06,0,0,0,0,0-.01-.01-.04-.02-.09-.04-.13s-.03-.09-.04-.13c-.01-.04-.03-.08-.04-.13,0-.02.03-.04.04-.02.03.04.04.08.06.13,0,0,0,.02,0,.02,0-.02,0-.04-.01-.06,0-.01.01-.02.02,0,.03.08.05.17.06.26,0,0,.01,0,.02.01,0,0,0,0,0,0,0-.07-.01-.14-.02-.21,0-.09-.01-.18,0-.27,0-.02.03-.02.03,0,.02.09.02.18.03.27,0,.09,0,.18,0,.26,0,0,0,0,0,0-.02.1-.01.21,0,.31,0,.07,0,.13,0,.2-.01.27-.03.49-.14.74-.11.24-.15.48-.15.81,0,.24.07.45.14.67.02.06.04.13.06.21.04.14.08.27.05.41-.03.15-.16.38-.27.47-.04.03-.04.08-.02.11.02.02.04.03.06.03.02,0,.03,0,.05-.01.15-.11.29-.38.34-.56.04-.18,0-.34-.06-.5-.02-.07-.04-.13-.06-.2-.07-.2-.13-.4-.13-.62,0-.31.04-.53.14-.75.12-.28.14-.51.16-.79,0-.07,0-.14,0-.21,0-.04,0-.09,0-.13.21.26.42.53.58.82.38.68.52,1.45.36,2.21-.03.15-.08.29-.13.43.06.07.11.15.16.23.12.13.24.26.38.36.12.09.25.16.39.21.13.05.27.07.41.1.02,0,.02.03,0,.04-.06.07-.13.11-.21.14.11.06.26.02.38,0,.05-.01.08.06.03.08-.03.02-.06.04-.09.06.09,0,.17,0,.26.01.03,0,.03.03.02.05,0,0,0,0,0,0,.03.03.02.07,0,.11.18.04.35.12.48.25,0,0,.02.02.03.03.88.18,1.77.32,2.66.45,1.58.23,3.07.74,4.33,1.76,1.15.93,2.33,2.13,2.91,3.52.23.57.32,1.14.37,1.75.04.49.15.98.11,1.47-.02.27-.05.54-.09.8-.02.15-.06.31-.11.47-.14.55-.36,1.08-.61,1.59.39-.54.79-1.08,1.08-1.67.31-.61.48-1.28.49-1.97.03-1.36-.49-2.69-1.23-3.8-.41-.62-.9-1.19-1.36-1.78-.13-.17-.26-.35-.39-.53-.12-.14-.25-.27-.38-.39-.09-.08-.29-.25-.32-.38-.02-.09.01-.13.07-.13-.05-.04-.1-.09-.14-.14-.09-.12-.04-.19.04-.2-.14-.08-.29-.31-.3-.41.05,0,.1,0,.14.02,0-.02-.02-.04-.02-.06-.09-.1-.18-.19-.2-.34.02,0,.04,0,.05,0-.12-.11-.2-.31-.18-.44.02,0,.03,0,.05,0-.1-.13-.2-.34-.1-.39l.06.15s-.02-.08-.02-.11v.03c-.04-.08-.06-.17-.06-.24-.05-.09-.09-.19-.1-.27,0-.04-.02-.14,0-.2-.08-.12-.15-.33-.05-.39-.06-.15-.05-.38.05-.38h0c-.03-.09-.06-.17-.07-.26,0-.03,0-.12.03-.2-.04-.16,0-.39.07-.51-.01-.12.03-.25.1-.27-.02-.13-.04-.28.05-.3-.02-.08-.02-.16-.02-.23,0-.1.09-.22.14-.13,0-.13.03-.26.15-.28,0,0,0-.02.01-.02-.01-.15.01-.3.13-.3,0,0,0,0,0,0,.02-.14.08-.38.19-.34.02-.14.09-.34.2-.32.03-.12.13-.24.19-.22.03-.14.15-.34.25-.28.08-.09.17-.17.25-.25.03-.03.05-.06.08-.08.98-.9,2.22-1.46,3.51-1.71,1.39-.27,2.85-.23,4.24.06.76.16,1.51.41,2.19.78.03.01.06.03.09.04.84.38,1.62.87,2.34,1.44.65.51,1.36,1.14,1.61,1.96.02.06-.03.1-.08.11-.02,0-.05,0-.07,0,.02.02.04.04.05.06.06.1.1.22.12.33.02.09.03.27-.12.25ZM4.24,11.54c-.2-.29-.43-.58-.7-.81-.07-.06-.17.04-.1.1.26.23.48.5.68.78.02.03.06.05.1.03.03-.02.05-.07.03-.1Zm.31-.52c-.29-.17-.58-.34-.9-.45-.09-.03-.13.11-.04.14.31.1.59.28.87.44.08.05.15-.08.07-.12Zm.65-3.03c-.27-.2-.7-.12-.93.08-.11.09-.17.24-.22.38-.02.04-.03.08-.05.11-.03.06-.05.11-.08.16-.05.1-.09.18-.09.25,0,.21.18.22.24.22.01,0,.03,0,.04,0,.09.02.15.05.23.09.03.02.07.04.11.05.08.04.18.05.28.05.25,0,.55-.1.67-.3.21-.31.1-.87-.2-1.09Zm-.38.04c-.16,0-.33.06-.44.16-.08.07-.13.19-.18.31-.02.04-.03.08-.05.12-.03.06-.06.12-.08.17-.04.07-.07.14-.07.17,0,.05,0,.06.09.06.02,0,.04,0,.06,0,.11.02.19.06.27.11.03.02.06.03.1.05.21.1.62.02.76-.19.16-.24.07-.7-.16-.88-.08-.06-.18-.09-.29-.09Zm-.3,7.9c.25-.22.4-.6.47-1.02.07-.4.06-.83,0-1.19-.18-.09-.36-.16-.56-.19-.24-.04-.5-.02-.75.02-.04,0-.08,0-.13.01-.28.05-.56.14-.81.29-.22.13-.42.28-.61.44-.05.04-.1.09-.14.14,0,0-.01.01-.02.02h0c-.09.1-.18.21-.23.33.52.8,1.93,1.41,2.78,1.15Zm-3.2-2.9c.13-.02.25-.01.36.02-.17.14-.33.29-.48.44-.13.13-.31.31-.34.5-.03.19.12.37.25.49.09.09.29.3.42.31.01,0,.02,0,.04,0,.02-.06.05-.12.08-.17.02-.04.05-.08.07-.11,0,0,.01-.02.02-.03.03-.03.05-.06.08-.1,0,0,0-.01.01-.02.03-.03.07-.07.1-.1,0,0,.02-.02.02-.02.03-.03.07-.06.11-.09.21-.18.45-.35.69-.48.24-.12.5-.2.76-.25.03,0,.07-.02.1-.02.18-.02.36-.04.55-.03,0,0,0,0,0,0-.01,0-.03-.01-.04-.02,0,0,0,0-.01,0-.01,0-.02-.01-.03-.02,0,0,0,0,0,0-.01,0-.02-.02-.03-.03,0,0,0,0,0-.01,0,0-.01-.02-.02-.02,0,0,0,0,0-.01,0,0,0-.02-.01-.03,0,0,0-.01,0-.02,0,0,0-.01,0-.02,0,0,0-.02,0-.02,0,0,0-.01,0-.02,0-.01,0-.03.01-.05,0,0-.02,0-.02,0-.08-.03-.17-.07-.2-.16-.02-.04,0-.09.01-.13,0,0,0-.01.01-.02-.05-.01-.1-.03-.13-.07-.08-.07-.09-.19-.03-.28.07-.1.18-.15.28-.2.19-.09.39-.17.6-.22-.36-.15-.86.02-1.2.12-.27.09-.54.21-.79.35-.17.09-.33.18-.49.29-.12-.07-.3-.08-.41-.1-.22-.04-.51-.09-.72.03-.12.07-.29.24-.13.36.13.1.38,0,.51-.02Z"/>
  </g>
</svg>