<?xml version="1.0" encoding="UTF-8"?>
<svg id="Layer_2" data-name="Layer 2" xmlns="http://www.w3.org/2000/svg" viewBox="0 0 28.78 33.94">
  <defs>
    <style>
      .cls-1 {
        stroke-width: 0px;
      }
    </style>
  </defs>
  <g id="Layer_1-2" data-name="Layer 1">
    <path class="cls-1" d="m1.37,27.27c1.87,2.72,4.58,4.74,7.37,6.46,3.65.39,7.47.34,10.96-.93,1.63.27,3.26.56,4.91.68-.04-.98-.18-2.08-.92-2.8-.48-.49-1.18-.65-1.84-.76,1.28-2.29,1.2-5.37-.53-7.42-2.28-2.95-6.87-3.35-9.88-1.34-1.36,1.16-2.03,2.98-2.03,4.74-.33-1.64.08-3.41,1.04-4.77.52-.8,1.42-1.22,2.26-1.6,2.28-.97,5.02-.73,7.1.62,2.26,1.29,5.48.26,6.62-2.07-.04-.48-.09-1.01.38-1.33-.55-.33-1.34-.18-1.59.45-.15.54-.81.51-1.25.47-1.02-.18-1.68-1.08-2.15-1.93-.17-.37-.62-.41-.94-.59-1-.51-1.86-1.57-1.71-2.75.37,1.71,2.22,2.71,3.87,2.54.82-.09,1.55-.52,2.14-1.08.86.1,1.8.23,2.61-.15.55-.25.91-.82.99-1.41.13-2.92-2.12-5.7-4.98-6.26-1.37-.13-2.74.26-3.92.92-.5-1.41-.95-2.9-.8-4.41-1.51.57-2.62,2.05-2.65,3.68.02,2.01-.02,4.07-.68,6-.46,1.39-1.37,2.71-2.74,3.32-2.41,1.1-4.56,2.8-6.17,4.9-.92,1.86-1.09,4.03-.73,6.05.18,1.29.96,2.36,1.49,3.52-.84-.88-1.59-1.87-2.1-2.98-.43-1.74-.38-3.59.06-5.32.57-2.48,2.26-4.65,4.46-5.91.77-.46,1.66-.7,2.38-1.25,1.59-1.13,2.54-3.06,2.55-5,.25-2.72-.7-5.5-2.56-7.5-.92-1.1-2.34-1.59-3.69-1.89C6.09-.35,3.31.38,1.3,2.09c.67-.12,1.35-.24,2.04-.19,3.23.12,6,3.25,5.73,6.47-.05.6-.15,1.22-.49,1.73-1.88,3.08-5.49,4.56-7.4,7.61C.07,19.44-.2,21.59.13,23.6c.22,1.27.44,2.61,1.24,3.67Z"/>
  </g>
</svg>