<?xml version="1.0" encoding="UTF-8"?>
<svg id="Layer_2" data-name="Layer 2" xmlns="http://www.w3.org/2000/svg" viewBox="0 0 33.94 31.4">
  <defs>
    <style>
      .cls-1 {
        stroke-width: 0px;
      }
    </style>
  </defs>
  <g id="Layer_1-2" data-name="Layer 1">
    <path class="cls-1" d="m33.17,7.37c.34-.38.59-.82.74-1.31.04-.61.06-1.23-.01-1.84-.12-.26-.19-.54-.26-.81l-.06.03c-.1-.22-.21-.43-.31-.65l-.05.03c-.11-.16-.22-.31-.33-.46-.13-.12-.25-.24-.37-.37-.23-.22-.47-.44-.75-.6-.21-.14-.43-.27-.64-.4-.26-.11-.53-.21-.81-.29,0-.02.02-.06.02-.08-.28-.07-.55-.15-.81-.25-.15-.01-.29-.02-.44-.03l.05-.1c-.97-.1-1.95-.34-2.92-.16-.41.04-.82.08-1.22.14l.06.09c-.43.04-.85.18-1.26.3l.04.08c-.27.07-.54.17-.8.28l.05.08c-.26.07-.5.19-.7.36-.16.12-.33.24-.49.36-.12.11-.24.22-.35.33l-.04-.03c-.21.22-.42.43-.62.66-.11.14-.22.27-.33.41-.15.19-.29.38-.44.58-.1.19-.2.38-.28.58-.04.04-.13.12-.17.16-.07.2-.14.41-.2.61l-.08-.03c-.11.33-.23.65-.32.99l-.07-.03c-.07.23-.13.47-.2.7-.06.17-.11.34-.18.51-.1.43-.24.85-.28,1.29l-.08-.02c-.07.54-.14,1.07-.15,1.61h-.09c-.05,1.1-.05,2.22,0,3.33.02,0,.07,0,.09,0,.02.5.09,1,.16,1.5l.09-.04c.01.14.03.29.04.43.11.29.19.59.32.87.12.27.22.55.3.84l.06-.05c.09.22.19.44.29.66l.12-.04v.29c-1.32-.2-2.69-.19-3.99.12l.05.08c-.35.06-.7.16-1.03.28l.05.08c-.27.07-.52.18-.74.35-.14.09-.29.18-.43.27-.14.1-.27.21-.41.31-.16.12-.31.24-.47.36-.16.14-.33.27-.49.42-.16.12-.33.23-.49.35-.13.09-.27.17-.4.25-.02.04-.08.12-.1.16-.22.1-.45.2-.67.3,0,.03,0,.08,0,.1-.18.04-.35.08-.53.12v.1c-.08,0-.27,0-.37,0l.02.12c-.61.05-1.24.15-1.85.01.01-.42-.11-.83-.33-1.19-.19-.18-.43-.3-.68-.36l.04-.08c-.22,0-.44,0-.66,0l.02.09c-.22.07-.4.2-.59.32-.07.24-.14.49-.2.74l-.07-.05c-.03.25-.07.5-.13.75-.34.1-.68.21-1.02.3l.02.13s-.13-.03-.18-.04c-.16.1-.33.2-.49.29-.13.09-.25.18-.38.27-.23.23-.44.47-.65.73-.09.19-.19.37-.28.55-.14.23-.26.47-.38.7-.14.24-.26.48-.4.72-.11.21-.2.42-.31.63,0,.03-.02.08-.02.1-.11.23-.19.47-.26.72l-.07-.04c-.1.22-.2.44-.3.66l-.1-.04c-.27.47-.33,1.03-.11,1.53.43.08.91-.03,1.28.27.16.11.33.22.49.33l.08-.03v.11c.57-.03,1.02.45,1.61.29l-.03-.12c.28-.05.55-.11.81-.22.33-.17.69-.25,1.05-.31v-.06c.14-.04.28-.09.42-.15.28-.05.56-.1.85-.15,0-.02-.03-.07-.03-.09.27-.01.53-.03.8-.06.64-.14,1.33-.16,1.98,0,.22.02.44.04.66.05,0,.02,0,.07,0,.1.27.06.55.12.8.24.08,0,.24.03.32.04,0,.08,0,.25,0,.34-.54,0-1.07-.03-1.61,0l.03.1c-.19.05-.38.11-.57.18-.13.14-.27.26-.41.39-.02.07-.05.21-.07.28.06,0,.19.02.25.03.18.37.6.2.84,0,.06,0,.17,0,.22,0,0,.05-.02.15-.03.19.05.06.14.17.18.23.86-.08,1.73.05,2.59-.07.39-.11.8-.17,1.21-.22l-.05-.09c.35-.01.7-.07,1.01-.23.06-.18.11-.36.17-.55.49-.06.97-.15,1.45-.25l-.04-.07c.33-.05.66-.15.97-.29.19-.14.37-.29.54-.45.16-.13.35.07.51.11l-.04.08c.22.1.43.21.64.31l-.03.09c.09.01.28.04.38.06.16.02.32.05.49.08.01.08.04.23.05.3-.41.01-.84,0-1.22-.17-.42-.09-.86-.04-1.29-.04l.03.11c-.19.06-.38.12-.56.19-.16.13-.32.24-.49.35.04.22.09.43.15.64.33-.05.65-.11.97-.19,0,.12,0,.37,0,.49.36,0,.73-.01,1.09.02.33.03.66.17,1,.09,1.08-.21,2.18-.22,3.27-.22l-.06-.11c.46,0,.91,0,1.37-.03.02-.06.07-.19.1-.26-.03-.11-.09-.33-.12-.44.2-.1.41-.19.61-.29.44-.22.87-.47,1.31-.69.38-.24.76-.48,1.13-.73.15-.11.31-.22.47-.32l-.03-.05c.11-.07.22-.13.34-.2.19-.2.38-.39.56-.6.04-.03.13-.09.17-.13.11-.15.23-.3.37-.43.06-.22.11-.45.16-.68l.14.05v-.1c.43-.29.83-.68,1.01-1.19l.07.02c.11-.44.22-.88.31-1.33.17-.4.19-.84.22-1.26h.09c.01-.49.02-.99,0-1.48h-.09c-.03-.4-.13-.81-.31-1.18-.12-.29-.24-.57-.37-.84-.2-.4-.42-.79-.59-1.2l-.06.03c-.15-.34-.38-.62-.62-.9-.11-.1-.22-.2-.33-.3-.13-.12-.26-.24-.38-.37-.11-.09-.23-.17-.34-.26-.14-.11-.28-.22-.42-.33-.12-.12-.25-.25-.37-.37-.13-.13-.25-.26-.38-.39-.12-.26-.23-.53-.32-.81-.02,0-.07,0-.09.01-.03-.83-.06-1.66.01-2.49l.09.05c.02-.15.05-.3.09-.46.14-.44.35-.86.64-1.22.11-.15.21-.3.31-.46.22-.23.46-.46.72-.65l-.02-.04c.16-.1.31-.2.46-.3.21-.15.44-.27.68-.38l-.03-.07c.37-.11.74-.23,1.13-.31,0-.02-.02-.07-.03-.09.68-.05,1.37-.04,2.05-.02.24.01.47-.09.67-.21Z"/>
  </g>
</svg>