<?xml version="1.0" encoding="UTF-8"?>
<svg id="Layer_2" data-name="Layer 2" xmlns="http://www.w3.org/2000/svg" viewBox="0 0 28.33 33.94">
  <defs>
    <style>
      .cls-1 {
        stroke-width: 0px;
      }
    </style>
  </defs>
  <g id="Layer_1-2" data-name="Layer 1">
    <path class="cls-1" d="m27.88,24.55c.78-.57.38-1.66.02-2.36-.68-1.42-1.29-2.96-2.46-4.06-1.02-.94-2.43-1.21-3.77-1.27-.35-.95-.65-1.93-1.28-2.74-.54-.74-1.31-1.25-2.05-1.77-1.01,1.48-1.67,3.27-1.47,5.08-3.03-.12-6.17.33-8.84,1.83-1.74.97-3.12,2.55-3.84,4.42-.09-2.73,1.28-5.25,2.88-7.36,3.02-3.81,7.33-6.64,12.1-7.69,2.25-.43,4.57-.77,6.66-1.75.83-.41,1.77-1.04,1.86-2.05.11-.88-.48-1.63-1.11-2.16C24.06.58,20.63-.35,17.39.12c-4.29.54-8.13,3.04-10.94,6.26C3.06,10.29.8,15.21.13,20.35c-.33,2.98-.11,6.18,1.48,8.8,1.26,2.13,3.44,3.59,5.79,4.26,3.16.94,6.48.35,9.72.44-.03-.4.13-.88-.19-1.19-.49-.52-1.25-.58-1.91-.71.88-1.57.59-3.74-.83-4.9.24-.08.58-.25.78.02.83.72,1.2,1.81,1.39,2.86.62-1.44,1.63-2.74,3.07-3.44.76.49,1.6.97,2.53.98.63.04,1.39-.18,1.63-.82.17-.84-.83-1.06-1.38-1.39,1.87.54,3.99.29,5.67-.7Zm-7.65-.22c.77.96,1.91,1.49,2.98,2.03-.2.32-.48.62-.88.65-1.06.16-2.02-.4-2.89-.93-1.34.66-2.31,1.82-3.03,3.1-.35-.93-.82-1.84-1.65-2.43l.5-.25c-.25.1-.74.31-.99.41l-.04-.62c-.09.18-.17.36-.25.54-.57-.52-1.31-.77-2.06-.89,1.36.33,2.64,1.23,3.12,2.59.51,1.23.2,2.67-.65,3.67.87.17,2.19.12,2.43,1.21-1.89,0-3.77-.06-5.66-.07-2.91-.07-5.93-1.11-7.9-3.32-1.71-1.95-2.33-4.62-2.31-7.16.08-4.01,1.35-7.93,3.33-11.4,2-3.45,4.77-6.57,8.33-8.47,3.12-1.66,6.97-2.28,10.32-.93,1.22.53,2.49,1.17,3.32,2.24.34.51-.31.87-.67,1.1-2.07,1.1-4.44,1.38-6.7,1.83-4.8,1.02-9.14,3.78-12.33,7.48-1.88,2.24-3.41,4.93-3.71,7.89-.2,1.77.23,3.63,1.36,5.03.55.48.79-.35.72-.78,0-2.51,1.28-4.99,3.43-6.33,3-1.9,6.7-2.08,10.15-1.92.29-.51-.26-.95-.39-1.42-.34-1.12.16-2.27.58-3.29.9.65,1.46,1.65,1.79,2.7.19.46.36,1.12.95,1.19,1.14.14,2.4.19,3.32,1,1.21,1.07,1.8,2.64,2.51,4.05.1.33.49.85.04,1.08-1.99,1.1-4.82,1.3-6.57-.37-.54-.43-.75-1.36-1.51-1.41.2.78.48,1.56,1.01,2.18Z"/>
  </g>
</svg>