<?xml version="1.0" encoding="UTF-8"?>
<svg id="Layer_2" data-name="Layer 2" xmlns="http://www.w3.org/2000/svg" viewBox="0 0 26.72 33.94">
  <defs>
    <style>
      .cls-1 {
        stroke-width: 0px;
      }
    </style>
  </defs>
  <g id="Layer_1-2" data-name="Layer 1">
    <path class="cls-1" d="m20.91,2.76C18.01.65,14.32-.31,10.76.09c-2.74.28-5.37,1.4-7.55,3.07C1.17,4.78-.02,7.34,0,9.93c.43-.3.88-.59,1.28-.93-.72,1.3-.64,2.97.12,4.24.6,1.16,1.77,1.91,3.02,2.2-.27-.83-.48-1.7-.39-2.58.7,1.08,1.82,1.88,3.12,1.97-.84-.81-1.37-1.97-1.23-3.15.16-1.86,2-3.34,3.84-3.19,3.05.76,5.69,2.92,7.12,5.72,1.28,2.55,2.16,5.44,1.75,8.31-.29,1.95-1.11,3.88-2.43,5.35-.43-2.9-2.36-5.53-5.03-6.77-1.08-.47-2.05-1.22-2.78-2.15-.15-.16-.08-.39,0-.56.34-.67.9-1.18,1.34-1.78-1.14-.31-2.42.06-3.14,1.01-1.13-.02-2.32.3-3.14,1.12-.99.96-1.26,2.45-.99,3.77,1.06.5,2.25.63,3.41.48-.3.8-.88,1.46-1.58,1.94-.92-.24-1.95-.14-2.75.39-.65.56-.93,1.43-1.01,2.27.57-.53,1.45-1.21,2.18-.57.85.26,1.59.77,2.2,1.42.52-1.49,1.83-2.72,3.43-2.91,1.77-.27,3.46.89,4.34,2.35-1.46-1.32-3.66-1.81-5.48-.99-1.3.7-2.05,2.27-1.82,3.72.13.64.55,1.15,1.03,1.56-.85.04-1.7.05-2.55.11-.28.01-.5.22-.63.45-.3.53.17,1.28.78,1.22,2.56,0,5.12,0,7.68,0,1.17.04,2.29-.5,3.2-1.19.67-.53.96-1.36,1.19-2.15,2.22-2.22,4.46-4.43,6.68-6.65,2.84-2.96,4.29-7.19,3.82-11.27-.41-3.91-2.51-7.63-5.72-9.91Z"/>
  </g>
</svg>