<svg xmlns="http://www.w3.org/2000/svg" xmlns:xlink="http://www.w3.org/1999/xlink" width="1080" zoomAndPan="magnify" viewBox="0 0 810 809.999993" height="1080" preserveAspectRatio="xMidYMid meet" version="1.0"><path fill="#f3b7b7" d="M 403.824219 364.898438 C 404.3125 364.898438 404.804688 364.800781 405.292969 364.703125 C 405.292969 364.210938 405.292969 363.722656 405.292969 363.328125 C 404.707031 363.722656 404.117188 364.113281 403.53125 364.605469 C 403.726562 364.703125 403.824219 364.800781 403.824219 364.898438 Z M 403.824219 364.898438 " fill-opacity="1" fill-rule="nonzero"/><path fill="#f3b7b7" d="M 421.078125 362.839844 C 421.175781 358.035156 421.273438 353.136719 421.667969 348.332031 C 421.667969 347.648438 421.765625 347.058594 421.765625 346.375 C 420.6875 346.078125 419.804688 345.6875 418.824219 345.296875 C 417.453125 351.566406 415.6875 357.742188 413.726562 363.917969 C 416.175781 363.527344 418.628906 363.230469 421.078125 362.839844 Z M 421.078125 362.839844 " fill-opacity="1" fill-rule="nonzero"/><path fill="#f3b7b7" d="M 326.859375 239.246094 C 328.722656 249.929688 328.429688 260.511719 330.488281 270.804688 C 335.683594 276.980469 341.078125 282.859375 346.46875 288.742188 C 345.980469 285.996094 345.390625 283.351562 345 280.703125 C 343.039062 279.234375 341.566406 277.273438 340.878906 274.53125 C 340.488281 273.15625 340.390625 271.980469 340.292969 270.804688 C 335.292969 260.808594 340.097656 245.617188 354.703125 245.617188 C 372.253906 245.617188 375.683594 267.570312 364.902344 276.097656 C 363.921875 278.15625 362.84375 279.625 361.46875 280.703125 C 361.960938 289.722656 363.039062 299.328125 364.703125 309.128906 C 373.527344 319.617188 381.667969 330.691406 387.941406 343.433594 C 392.15625 348.234375 396.078125 353.234375 399.707031 358.625 C 400.390625 358.136719 401.175781 357.742188 401.863281 357.351562 C 403.234375 356.46875 404.410156 356.664062 405.390625 357.253906 C 405.390625 354.117188 405.390625 350.980469 405.390625 347.941406 C 405.390625 331.671875 408.039062 304.816406 402.15625 285.800781 C 401.667969 285.800781 401.175781 285.996094 400.6875 285.996094 C 389.410156 285.996094 379.902344 274.53125 383.429688 263.355469 C 384.019531 261.394531 384.707031 259.535156 385.785156 257.867188 C 389.214844 252.769531 394.214844 249.339844 400.589844 249.339844 C 407.058594 249.339844 411.765625 252.769531 415.390625 257.867188 C 415.6875 258.257812 415.980469 258.652344 416.078125 259.140625 C 418.726562 265.21875 419.609375 271.195312 416.078125 277.175781 C 414.3125 280.117188 411.765625 282.371094 408.824219 283.9375 C 409.214844 297.171875 412.058594 311.972656 413.53125 324.910156 C 414.609375 323.4375 415.980469 322.164062 417.550781 321.183594 C 421.863281 273.550781 412.351562 223.757812 430.980469 178.378906 C 444.707031 144.859375 467.160156 117.121094 492.746094 91.636719 C 495.589844 88.792969 498.828125 85.558594 502.257812 82.128906 C 499.316406 72.523438 492.257812 62.820312 476.960938 51.84375 C 446.375 30.476562 391.371094 21.261719 354.703125 24.300781 C 266.566406 29.789062 277.742188 119.667969 291.957031 188.867188 C 293.035156 189.746094 294.113281 190.628906 295.292969 191.511719 C 312.351562 204.351562 323.136719 217.976562 326.859375 239.246094 Z M 326.859375 239.246094 " fill-opacity="1" fill-rule="nonzero"/><path fill="#f3b7b7" d="M 311.664062 233.757812 C 308.234375 224.738281 303.132812 218.074219 297.25 212.191406 C 301.566406 226.699219 307.839844 239.148438 315.195312 250.417969 C 314.703125 244.929688 313.722656 239.34375 311.664062 233.757812 Z M 311.664062 233.757812 " fill-opacity="1" fill-rule="nonzero"/><path fill="#f3b7b7" d="M 404.214844 385.578125 C 404.707031 386.460938 405.195312 387.246094 405.6875 388.128906 C 405.6875 386.558594 405.589844 384.992188 405.589844 383.519531 C 405 384.109375 404.511719 384.695312 403.921875 385.285156 C 404.019531 385.382812 404.214844 385.480469 404.214844 385.578125 Z M 404.214844 385.578125 " fill-opacity="1" fill-rule="nonzero"/><path fill="#f3b7b7" d="M 414.511719 341.960938 C 414.3125 341.765625 414.214844 341.667969 414.117188 341.472656 C 414.117188 342.453125 414.019531 343.433594 414.019531 344.414062 C 414.214844 343.628906 414.410156 342.746094 414.511719 341.960938 Z M 414.511719 341.960938 " fill-opacity="1" fill-rule="nonzero"/><path fill="#f3b7b7" d="M 437.453125 321.675781 C 445.6875 330.59375 440.492188 343.433594 430.195312 346.277344 C 429.609375 350.292969 429.019531 354.3125 428.628906 358.136719 C 428.628906 358.332031 428.53125 358.527344 428.53125 358.722656 C 433.628906 350.488281 439.414062 342.746094 445.589844 335.101562 C 446.960938 324.808594 448.238281 311.089844 447.15625 301.386719 C 440.195312 300.40625 434.316406 295.40625 432.355469 288.546875 C 431.960938 287.171875 431.765625 285.800781 431.765625 284.429688 C 431.472656 283.15625 431.570312 281.878906 432.058594 280.507812 C 432.550781 278.15625 433.53125 276 434.902344 274.039062 C 435.6875 272.273438 436.863281 270.609375 438.238281 269.140625 C 442.941406 261.886719 455.980469 261.886719 460.6875 269.140625 C 462.160156 270.609375 463.238281 272.273438 464.019531 274.039062 C 466.863281 278.15625 468.042969 283.058594 466.570312 288.449219 C 464.609375 295.601562 458.140625 300.796875 450.785156 301.386719 C 451.765625 309.914062 452.453125 318.441406 451.570312 327.75 C 461.082031 316.578125 471.082031 305.601562 480.296875 294.035156 C 481.082031 286.09375 481.375 277.960938 481.375 269.726562 C 471.667969 265.414062 473.238281 247.871094 486.082031 247.871094 C 499.121094 247.871094 500.589844 265.707031 490.589844 269.824219 C 490.394531 273.746094 490.199219 277.566406 489.90625 281.292969 C 496.765625 271.589844 502.945312 261.394531 507.550781 250.125 C 525.886719 201.214844 507.550781 182.886719 501.472656 137.113281 C 500.101562 121.824219 503.726562 109.082031 504.121094 96.832031 C 494.21875 106.925781 485.101562 117.609375 476.960938 127.605469 C 447.550781 163.480469 430.980469 199.351562 428.53125 246.695312 C 427.253906 270.609375 426.570312 294.71875 423.53125 318.441406 C 428.039062 316.675781 434.316406 318.242188 437.453125 321.675781 Z M 437.453125 321.675781 " fill-opacity="1" fill-rule="nonzero"/><path fill="#f3b7b7" d="M 351.960938 403.515625 C 352.742188 403.023438 353.625 402.535156 354.410156 402.144531 C 346.371094 399.398438 338.625 395.96875 330.976562 392.144531 C 326.175781 392.832031 321.273438 393.417969 316.371094 393.8125 C 328.332031 398.417969 340.097656 401.75 351.960938 403.515625 Z M 351.960938 403.515625 " fill-opacity="1" fill-rule="nonzero"/><path fill="#f3b7b7" d="M 368.039062 393.027344 C 370.785156 390.96875 373.429688 388.910156 376.078125 386.65625 C 374.804688 384.992188 373.625 383.324219 372.351562 381.660156 C 367.058594 383.714844 361.664062 385.480469 356.175781 386.949219 C 360.097656 389.105469 364.019531 391.164062 368.039062 393.027344 Z M 368.039062 393.027344 " fill-opacity="1" fill-rule="nonzero"/><path fill="#f3b7b7" d="M 322.054688 322.164062 C 324.015625 330.789062 320.09375 340.984375 310.195312 343.335938 C 316.664062 356.761719 328.820312 368.917969 343.234375 378.816406 C 351.078125 377.445312 358.824219 375.777344 366.371094 373.523438 C 362.546875 368.230469 358.722656 363.035156 354.902344 357.644531 C 343.332031 346.765625 332.449219 334.710938 322.054688 322.164062 Z M 322.054688 322.164062 " fill-opacity="1" fill-rule="nonzero"/><path fill="#f3b7b7" d="M 270.78125 375.972656 C 275.191406 375.875 279.507812 377.640625 282.546875 380.777344 C 284.210938 380.285156 286.074219 380.382812 288.132812 381.363281 C 289.210938 381.953125 290.289062 382.441406 291.371094 382.933594 C 298.035156 382.835938 304.703125 382.636719 311.46875 382.34375 C 297.839844 375.1875 279.507812 364.507812 271.074219 351.667969 C 266.464844 354.605469 259.996094 354.507812 255.484375 351.863281 C 250.976562 349.214844 248.035156 344.21875 248.035156 338.925781 C 248.035156 332.257812 252.644531 326.28125 259.015625 324.515625 C 263.820312 323.144531 270.191406 324.417969 273.625 328.339844 C 276.367188 331.476562 278.328125 334.515625 278.328125 338.925781 C 278.328125 340.984375 277.839844 342.648438 277.152344 344.316406 C 282.152344 348.332031 286.46875 353.429688 291.46875 357.449219 C 301.171875 365.191406 311.46875 373.03125 321.957031 379.601562 C 322.9375 380.1875 324.015625 380.777344 324.996094 381.363281 C 327.742188 381.070312 330.488281 380.777344 333.234375 380.480469 C 324.703125 374.40625 316.175781 367.839844 309.703125 359.605469 C 305.390625 354.214844 303.132812 348.824219 300.976562 343.335938 C 283.722656 338.53125 285.390625 309.421875 305.976562 309.421875 C 308.527344 309.421875 310.78125 309.914062 312.742188 310.695312 C 282.152344 272.175781 254.605469 230.621094 220.386719 201.410156 C 174.503906 161.714844 140.972656 170.832031 107.34375 204.449219 C 100.777344 211.015625 91.460938 219.542969 81.460938 228.855469 C 78.714844 243.460938 79.109375 258.0625 86.070312 270.414062 C 96.65625 288.9375 111.265625 304.523438 124.304688 321.28125 C 136.070312 336.472656 144.40625 356.371094 155.089844 373.71875 C 187.25 375.089844 221.171875 381.855469 251.269531 382.539062 C 253.625 382.636719 256.074219 382.636719 258.425781 382.738281 C 261.074219 378.71875 265.585938 376.070312 270.78125 375.972656 Z M 270.78125 375.972656 " fill-opacity="1" fill-rule="nonzero"/><path fill="#f3b7b7" d="M 114.402344 375.777344 C 121.757812 374.40625 129.402344 373.71875 137.246094 373.523438 C 126.265625 351.371094 112.738281 332.652344 97.050781 313.246094 C 78.226562 289.917969 67.246094 267.863281 65.871094 243.261719 C 52.441406 256.101562 39.207031 269.433594 30.675781 280.800781 C 0.0859375 334.808594 16.164062 391.949219 53.324219 433.605469 C 63.226562 403.417969 80.972656 381.953125 114.402344 375.777344 Z M 114.402344 375.777344 " fill-opacity="1" fill-rule="nonzero"/><path fill="#f3b7b7" d="M 380.292969 382.835938 C 380.882812 382.34375 381.371094 381.855469 381.960938 381.363281 C 381.175781 380.480469 380.488281 379.503906 379.804688 378.523438 C 379.214844 378.816406 378.527344 379.109375 377.941406 379.304688 C 378.726562 380.582031 379.507812 381.660156 380.292969 382.835938 Z M 380.292969 382.835938 " fill-opacity="1" fill-rule="nonzero"/><path fill="#f3b7b7" d="M 394.507812 395.183594 C 393.726562 395.96875 392.84375 396.65625 391.960938 397.4375 C 392.84375 397.242188 393.628906 397.046875 394.507812 396.851562 Z M 394.507812 395.183594 " fill-opacity="1" fill-rule="nonzero"/><path fill="#f3b7b7" d="M 360.882812 398.027344 C 360.980469 397.929688 361.175781 397.832031 361.273438 397.734375 C 356.175781 395.085938 351.273438 392.242188 346.566406 389.304688 C 345 389.695312 343.429688 389.988281 341.761719 390.285156 C 348.039062 393.222656 354.410156 395.871094 360.882812 398.027344 Z M 360.882812 398.027344 " fill-opacity="1" fill-rule="nonzero"/><path fill="#f3b7b7" d="M 278.527344 404.496094 C 270.289062 410.277344 258.425781 404.300781 255.976562 395.28125 C 255.878906 394.890625 255.878906 394.5 255.78125 394.203125 C 229.699219 392.832031 204.210938 390.183594 181.269531 388.8125 C 175.972656 388.519531 170.484375 388.128906 164.992188 387.734375 C 169.796875 393.421875 175.191406 398.515625 181.464844 402.4375 C 213.230469 422.039062 251.761719 428.410156 288.625 423.511719 C 306.664062 421.058594 322.644531 416.941406 337.351562 410.671875 C 320.878906 407.238281 303.917969 401.847656 285.78125 395.871094 C 284.410156 399.398438 281.664062 402.339844 278.527344 404.496094 Z M 278.527344 404.496094 " fill-opacity="1" fill-rule="nonzero"/><path fill="#f3b7b7" d="M 272.25 458.011719 C 271.46875 457.71875 270.683594 457.421875 269.996094 457.03125 C 264.898438 454.089844 261.957031 448.503906 261.859375 442.820312 C 230.386719 442.230469 198.132812 435.273438 173.128906 416.941406 C 161.070312 408.121094 151.660156 398.910156 144.304688 386.851562 C 114.699219 386.558594 86.167969 392.046875 71.753906 422.628906 C 68.519531 429.488281 65.675781 436.546875 63.03125 443.601562 C 87.835938 467.519531 119.796875 484.964844 152.933594 491.628906 C 200.582031 500.15625 236.859375 481.238281 272.25 458.011719 Z M 272.25 458.011719 " fill-opacity="1" fill-rule="nonzero"/><path fill="#f3b7b7" d="M 377.058594 643.160156 C 373.039062 621.496094 371.960938 600.128906 381.273438 579.546875 C 390.390625 559.453125 409.019531 537.402344 414.117188 514.566406 C 413.332031 514.761719 412.648438 514.761719 411.863281 514.566406 C 412.453125 524.464844 405.097656 533.578125 394.507812 533.578125 C 382.84375 533.578125 374.902344 522.40625 377.546875 511.332031 C 378.039062 509.175781 378.429688 507.605469 379.707031 505.546875 C 380 504.960938 380.488281 504.46875 380.882812 503.980469 C 380.882812 503.882812 380.980469 503.882812 380.980469 503.78125 C 386.765625 494.179688 400.390625 493.785156 406.960938 502.507812 C 405.6875 492.023438 404.214844 481.140625 403.53125 470.359375 C 385 500.15625 361.273438 526.328125 329.703125 542.695312 C 300.683594 557.789062 266.859375 570.53125 243.425781 594.25 C 209.308594 659.234375 188.03125 735.09375 281.367188 769.496094 C 328.820312 788.511719 386.960938 761.460938 425.6875 721.375 C 401.46875 701.378906 382.449219 672.171875 377.058594 643.160156 Z M 377.058594 643.160156 " fill-opacity="1" fill-rule="nonzero"/><path fill="#f3b7b7" d="M 340.488281 481.925781 C 342.839844 483.003906 344.703125 484.574219 346.175781 486.433594 C 370.097656 473.105469 387.648438 453.796875 401.570312 430.761719 C 401.371094 429.488281 401.273438 428.214844 401.175781 427.039062 C 397.15625 429.097656 393.136719 431.058594 388.921875 432.722656 C 388.921875 432.722656 388.824219 432.820312 388.824219 432.820312 C 376.664062 452.816406 359.214844 467.617188 340.488281 481.925781 Z M 340.488281 481.925781 " fill-opacity="1" fill-rule="nonzero"/><path fill="#f3b7b7" d="M 402.550781 399.789062 C 402.449219 399.59375 402.351562 399.398438 402.253906 399.300781 C 402.15625 399.300781 402.15625 399.203125 402.15625 399.203125 C 402.058594 399.496094 402.058594 399.691406 401.960938 399.988281 C 402.058594 399.988281 402.351562 399.890625 402.550781 399.789062 Z M 402.550781 399.789062 " fill-opacity="1" fill-rule="nonzero"/><path fill="#f3b7b7" d="M 405.882812 501.527344 C 402.15625 498.6875 402.15625 498.785156 405.980469 501.625 C 405.980469 501.625 405.980469 501.625 405.882812 501.527344 Z M 405.882812 501.527344 " fill-opacity="1" fill-rule="nonzero"/><path fill="#f3b7b7" d="M 419.019531 442.230469 C 418.332031 443.601562 417.648438 445.074219 416.863281 446.445312 C 421.570312 466.929688 429.117188 488.003906 428.136719 509.074219 C 426.375 548.183594 387.546875 575.921875 390.488281 616.105469 C 393.039062 651.292969 409.707031 686.1875 437.253906 708.238281 C 454.414062 686.871094 465.882812 663.152344 467.746094 641.199219 C 470.6875 576.117188 434.117188 505.742188 419.019531 442.230469 Z M 419.019531 442.230469 " fill-opacity="1" fill-rule="nonzero"/><path fill="#f3b7b7" d="M 333.332031 514.957031 C 323.136719 514.957031 317.644531 507.800781 316.859375 499.960938 C 299.015625 513.878906 281.957031 529.070312 269.210938 549.652344 C 267.546875 552.398438 265.878906 555.238281 264.113281 558.082031 C 282.9375 547.691406 302.742188 539.363281 321.371094 528.582031 C 343.234375 515.9375 359.507812 500.058594 373.136719 482.023438 C 366.175781 488.101562 358.429688 493.199219 350 496.921875 C 350.292969 505.839844 344.800781 514.957031 333.332031 514.957031 Z M 333.332031 514.957031 " fill-opacity="1" fill-rule="nonzero"/><path fill="#f3b7b7" d="M 382.941406 501.625 C 383.824219 500.84375 384.707031 500.058594 385.785156 499.46875 C 384.902344 500.15625 384.019531 500.84375 382.941406 501.625 C 383.039062 501.625 383.039062 501.625 382.941406 501.625 Z M 382.941406 501.625 " fill-opacity="1" fill-rule="nonzero"/><path fill="#f3b7b7" d="M 399.902344 411.75 C 399.507812 411.652344 399.019531 411.652344 398.628906 411.550781 C 398.332031 412.335938 398.039062 413.121094 397.746094 413.90625 C 398.527344 413.21875 399.214844 412.53125 399.902344 411.75 Z M 399.902344 411.75 " fill-opacity="1" fill-rule="nonzero"/><path fill="#f3b7b7" d="M 549.121094 473.988281 C 549.710938 473.203125 550.296875 472.417969 550.984375 471.632812 C 550.394531 472.417969 549.808594 473.300781 549.121094 473.988281 Z M 549.121094 473.988281 " fill-opacity="1" fill-rule="nonzero"/><path fill="#f3b7b7" d="M 550.101562 479.183594 C 542.355469 486.925781 528.925781 485.160156 523.433594 475.75 C 521.179688 471.929688 520.789062 467.519531 521.671875 463.5 C 496.867188 458.597656 475.101562 448.601562 455.097656 434.09375 C 459.121094 440.367188 462.453125 447.328125 464.707031 454.972656 C 465.492188 457.617188 465.980469 460.363281 466.375 463.207031 C 470.882812 467.320312 475.492188 471.4375 480.199219 475.261719 C 481.667969 476.046875 483.238281 476.828125 484.707031 477.613281 C 489.21875 475.261719 495.296875 476.925781 497.648438 482.417969 C 498.140625 482.90625 498.628906 483.394531 499.023438 483.886719 C 499.90625 484.671875 500.589844 485.550781 501.082031 486.53125 C 501.179688 486.828125 501.375 487.023438 501.472656 487.21875 C 501.667969 487.511719 501.667969 487.609375 501.472656 487.21875 C 501.277344 486.925781 500.886719 486.433594 499.90625 485.652344 C 501.082031 486.730469 502.0625 488.003906 502.746094 489.375 C 503.828125 490.746094 504.609375 492.316406 505.199219 493.882812 C 522.160156 505.449219 540.003906 515.542969 558.4375 523.972656 C 581.378906 534.460938 607.261719 542.695312 633.144531 545.832031 C 625.988281 536.8125 618.4375 528.285156 611.085938 520.445312 C 593.535156 501.625 574.90625 482.417969 554.90625 465.753906 C 555.199219 470.457031 553.925781 475.457031 550.101562 479.183594 Z M 550.101562 479.183594 " fill-opacity="1" fill-rule="nonzero"/><path fill="#f3b7b7" d="M 670.890625 644.921875 C 668.832031 649.921875 666.476562 654.722656 663.832031 659.429688 C 691.96875 662.664062 720.105469 650.609375 745.890625 610.8125 C 763.246094 581.898438 759.617188 554.554688 744.714844 529.757812 C 720.402344 550.929688 692.753906 561.21875 663.929688 563.375 C 676.96875 588.957031 682.65625 616.105469 670.890625 644.921875 Z M 670.890625 644.921875 " fill-opacity="1" fill-rule="nonzero"/><path fill="#f3b7b7" d="M 493.824219 515.445312 C 485.394531 517.699219 477.941406 513.683594 473.335938 506.722656 C 470.101562 502.019531 470.589844 495.257812 473.335938 490.453125 C 474.21875 488.785156 475.492188 487.414062 476.960938 486.238281 C 476.863281 486.140625 476.765625 486.140625 476.765625 486.042969 C 473.433594 484.574219 470.199219 482.90625 467.0625 480.945312 C 466.667969 495.746094 465.296875 510.742188 470.980469 522.113281 C 483.238281 543.480469 507.648438 546.515625 522.945312 561.808594 C 558.730469 593.859375 607.359375 647.863281 656.574219 658.15625 C 664.910156 646.292969 669.617188 632.769531 667.753906 617.378906 C 665.496094 598.367188 657.066406 580.234375 646.183594 563.570312 C 598.144531 561.710938 547.847656 539.164062 504.023438 507.605469 C 501.667969 511.429688 498.042969 514.269531 493.824219 515.445312 Z M 493.824219 515.445312 " fill-opacity="1" fill-rule="nonzero"/><path fill="#f3b7b7" d="M 454.117188 423.214844 C 476.375 439.191406 499.90625 449.191406 527.945312 453.699219 C 529.613281 452.425781 531.375 451.347656 533.53125 450.855469 C 533.925781 450.757812 534.414062 450.660156 534.90625 450.5625 C 518.042969 438.703125 500.003906 429.195312 480.6875 423.3125 C 471.863281 424.488281 462.941406 424.589844 454.117188 423.214844 Z M 454.117188 423.214844 " fill-opacity="1" fill-rule="nonzero"/><path fill="#f3b7b7" d="M 435.882812 390.480469 C 440.394531 386.265625 444.511719 381.953125 448.238281 377.445312 C 445.589844 377.640625 442.941406 377.933594 440.394531 378.425781 C 438.921875 382.441406 437.453125 386.460938 435.882812 390.480469 Z M 435.882812 390.480469 " fill-opacity="1" fill-rule="nonzero"/><path fill="#f3b7b7" d="M 454.21875 355.390625 C 457.746094 354.410156 461.179688 353.429688 464.707031 352.351562 C 466.863281 348.039062 468.824219 343.53125 470.589844 339.023438 C 465.394531 344.707031 460 350.195312 454.21875 355.390625 Z M 454.21875 355.390625 " fill-opacity="1" fill-rule="nonzero"/><path fill="#f3b7b7" d="M 482.84375 346.375 C 489.804688 330.398438 495.492188 314.421875 499.023438 304.128906 C 493.824219 310.695312 488.628906 317.363281 483.335938 323.929688 C 481.082031 332.652344 478.238281 341.082031 474.609375 349.117188 C 477.355469 348.234375 480.101562 347.355469 482.84375 346.375 Z M 482.84375 346.375 " fill-opacity="1" fill-rule="nonzero"/><path fill="#f3b7b7" d="M 505.492188 383.714844 C 502.160156 383.324219 498.828125 382.835938 495.492188 382.246094 C 485.101562 389.5 473.726562 395.378906 461.472656 399.398438 C 473.628906 400.476562 485.296875 403.023438 496.570312 406.945312 C 498.238281 406.359375 500.003906 405.867188 501.570312 405.179688 C 515.296875 399.789062 524.90625 393.320312 532.847656 384.597656 C 523.730469 384.992188 514.511719 384.792969 505.492188 383.714844 Z M 505.492188 383.714844 " fill-opacity="1" fill-rule="nonzero"/><path fill="#f3b7b7" d="M 484.511719 364.703125 C 490.199219 365.289062 495.984375 365.878906 501.667969 366.269531 C 505.589844 362.742188 509.414062 358.917969 513.042969 354.902344 C 507.453125 356.859375 501.867188 358.820312 496.179688 360.78125 C 492.355469 362.054688 488.433594 363.328125 484.511719 364.703125 Z M 484.511719 364.703125 " fill-opacity="1" fill-rule="nonzero"/><path fill="#f3b7b7" d="M 470.296875 387.636719 C 474.804688 385.382812 479.21875 382.933594 483.335938 380.1875 C 480.785156 379.796875 478.335938 379.402344 475.882812 379.011719 C 474.21875 381.855469 472.355469 384.792969 470.296875 387.636719 Z M 470.296875 387.636719 " fill-opacity="1" fill-rule="nonzero"/><path fill="#f3b7b7" d="M 439.707031 396.261719 C 437.84375 397.929688 435.589844 397.046875 434.414062 395.578125 C 434.117188 395.578125 433.921875 395.675781 433.726562 395.675781 C 433.628906 395.871094 433.53125 396.164062 433.433594 396.359375 C 435.296875 397.4375 437.257812 398.125 439.117188 398.320312 C 442.648438 397.632812 446.175781 396.753906 449.609375 395.675781 C 455.394531 392.242188 460.980469 385.871094 466.375 377.738281 C 463.433594 377.445312 460.589844 377.246094 457.648438 377.148438 C 452.453125 383.816406 446.570312 390.183594 439.707031 396.261719 Z M 439.707031 396.261719 " fill-opacity="1" fill-rule="nonzero"/><path fill="#f3b7b7" d="M 655.496094 305.992188 C 667.261719 307.265625 679.027344 309.914062 690.792969 314.226562 C 710.792969 321.574219 728.929688 332.652344 744.128906 346.175781 C 750.890625 321.96875 750.304688 297.171875 742.851562 265.609375 C 736.773438 228.953125 727.558594 198.371094 687.851562 201.410156 C 678.339844 202.980469 668.144531 211.113281 657.851562 219.445312 C 656.574219 226.207031 655.203125 233.070312 653.339844 239.734375 C 647.554688 261.589844 655.300781 284.035156 655.496094 305.992188 Z M 655.496094 305.992188 " fill-opacity="1" fill-rule="nonzero"/><path fill="#f3b7b7" d="M 547.257812 344.316406 C 546.082031 344.316406 544.808594 344.117188 543.730469 343.824219 C 539.316406 345.394531 534.90625 346.960938 530.492188 348.628906 C 525.394531 355.097656 520.003906 361.273438 514.21875 366.859375 C 517.257812 366.957031 520.296875 366.957031 523.335938 366.761719 C 528.238281 366.5625 534.023438 366.269531 540.296875 365.878906 C 542.453125 359.605469 547.847656 354.605469 556.476562 354.605469 C 563.4375 354.605469 568.339844 357.9375 570.984375 362.449219 C 600.105469 357.644531 629.125 346.765625 634.320312 320.988281 C 626.867188 321.183594 619.417969 321.96875 611.867188 323.535156 C 593.925781 327.261719 576.574219 332.554688 559.316406 338.433594 C 558.925781 338.925781 558.730469 339.316406 558.335938 339.804688 C 555.394531 342.648438 551.375 344.316406 547.257812 344.316406 Z M 547.257812 344.316406 " fill-opacity="1" fill-rule="nonzero"/><path fill="#f3b7b7" d="M 565.59375 247.183594 C 556.179688 251.007812 547.945312 256.003906 540.296875 261.691406 C 540.492188 262.964844 540.59375 264.238281 540.691406 265.511719 C 540.984375 275.214844 532.355469 283.351562 522.847656 283.351562 C 520.984375 283.351562 519.21875 282.957031 517.550781 282.371094 C 517.550781 282.371094 517.550781 282.371094 517.550781 282.46875 C 517.0625 283.546875 516.277344 284.820312 515.6875 286.488281 C 512.550781 295.015625 509.609375 303.542969 506.472656 311.96875 C 502.648438 322.066406 498.726562 332.359375 494.414062 342.355469 C 506.964844 337.847656 519.414062 333.238281 531.964844 328.730469 C 531.964844 327.359375 532.0625 325.988281 532.355469 324.613281 C 532.75 321.96875 534.023438 319.519531 535.691406 317.460938 C 536.179688 316.675781 536.867188 315.890625 537.554688 315.105469 C 543.042969 309.8125 551.769531 309.8125 557.160156 315.105469 C 557.945312 315.890625 558.535156 316.675781 559.023438 317.460938 C 559.515625 318.046875 559.90625 318.539062 560.199219 319.125 C 585.003906 311.285156 609.90625 305.601562 634.808594 305.109375 C 633.046875 283.351562 626.085938 259.433594 631.769531 238.265625 C 631.871094 237.871094 631.96875 237.480469 632.066406 237.089844 C 631.28125 237.382812 630.496094 237.773438 629.808594 237.96875 C 608.4375 244.144531 587.0625 238.070312 565.59375 247.183594 Z M 565.59375 247.183594 " fill-opacity="1" fill-rule="nonzero"/><path fill="#f3b7b7" d="M 431.863281 388.910156 C 433.039062 385.871094 434.117188 382.738281 435.195312 379.601562 C 432.15625 380.382812 429.117188 381.460938 426.078125 382.835938 C 427.941406 384.894531 429.902344 386.949219 431.863281 388.910156 Z M 431.863281 388.910156 " fill-opacity="1" fill-rule="nonzero"/><path fill="#f3b7b7" d="M 556.476562 390.285156 C 553.730469 390.285156 551.277344 389.695312 549.121094 388.8125 C 539.90625 400.085938 525.789062 409.003906 514.023438 414.101562 C 527.652344 420.667969 540.789062 429.292969 553.925781 439.976562 C 589.417969 468.695312 624.515625 502.019531 650.105469 540.046875 C 651.671875 542.402344 653.242188 544.753906 654.714844 547.105469 C 684.519531 547.105469 713.34375 538.871094 736.578125 517.800781 C 706.675781 478.691406 650.792969 446.835938 611.183594 426.941406 C 620.789062 426.941406 630.105469 427.039062 638.929688 427.429688 C 690.890625 430.46875 690.890625 439.683594 721.480469 393.8125 C 728.34375 383.128906 733.929688 372.933594 738.148438 362.9375 C 713.929688 341.082031 685.105469 325.886719 653.832031 321.96875 C 653.734375 322.261719 653.734375 322.652344 653.632812 322.949219 C 644.222656 361.859375 607.75 374.699219 571.867188 380.480469 C 569.515625 386.070312 564.417969 390.285156 556.476562 390.285156 Z M 556.476562 390.285156 " fill-opacity="1" fill-rule="nonzero"/><path fill="#e99596" d="M 412.746094 396.261719 C 414.707031 395.476562 416.570312 394.695312 418.53125 393.8125 C 419.214844 392.339844 420 390.871094 420.882812 389.402344 C 420.292969 389.105469 419.902344 388.519531 420 387.734375 C 420.785156 379.402344 420.882812 371.074219 421.078125 362.839844 C 418.628906 363.230469 416.175781 363.527344 413.726562 363.917969 C 415.6875 357.742188 417.351562 351.566406 418.824219 345.296875 C 417.15625 344.511719 415.785156 343.433594 414.511719 342.0625 C 414.3125 342.84375 414.117188 343.628906 414.019531 344.511719 C 413.628906 361.664062 412.84375 379.011719 412.746094 396.261719 Z M 412.746094 396.261719 " fill-opacity="1" fill-rule="nonzero"/><path fill="#e99596" d="M 495.492188 382.246094 C 498.828125 382.738281 502.160156 383.226562 505.492188 383.714844 C 514.511719 384.792969 523.730469 384.992188 532.945312 384.695312 C 535.296875 382.148438 537.554688 379.402344 539.710938 376.367188 C 539.023438 372.933594 539.21875 369.210938 540.394531 365.878906 C 534.121094 366.269531 528.335938 366.5625 523.433594 366.761719 C 520.394531 366.859375 517.355469 366.859375 514.316406 366.859375 C 508.335938 372.542969 502.160156 377.640625 495.492188 382.246094 Z M 495.492188 382.246094 " fill-opacity="1" fill-rule="nonzero"/><path fill="#e99596" d="M 367.15625 321.773438 C 369.019531 330.203125 371.46875 338.433594 374.507812 346.375 C 380 351.960938 385.292969 357.742188 390 364.015625 C 388.039062 364.996094 386.175781 365.976562 384.214844 366.859375 C 385.6875 369.308594 387.15625 371.660156 388.824219 374.011719 C 389.3125 373.71875 389.804688 373.425781 390.292969 373.132812 C 389.902344 373.523438 389.507812 374.011719 389.117188 374.40625 C 393.921875 381.167969 399.507812 387.148438 405.882812 391.949219 C 405.882812 390.675781 405.785156 389.304688 405.785156 388.027344 C 405.292969 387.148438 404.804688 386.363281 404.3125 385.480469 C 404.214844 385.285156 404.117188 385.285156 404.019531 385.089844 C 404.609375 384.5 405.097656 383.914062 405.6875 383.324219 C 405.589844 377.050781 405.492188 370.875 405.492188 364.605469 C 405 364.605469 404.511719 364.703125 404.019531 364.800781 C 403.921875 364.703125 403.921875 364.605469 403.824219 364.507812 C 404.410156 364.113281 405 363.722656 405.589844 363.230469 C 405.589844 361.171875 405.589844 359.113281 405.589844 357.058594 C 404.707031 356.371094 403.429688 356.273438 402.058594 357.15625 C 401.371094 357.644531 400.589844 358.035156 399.902344 358.429688 C 396.273438 353.136719 392.351562 348.136719 388.136719 343.238281 C 381.46875 335.886719 374.507812 328.828125 367.15625 321.773438 Z M 367.15625 321.773438 " fill-opacity="1" fill-rule="nonzero"/><path fill="#e99596" d="M 390.980469 398.320312 C 391.273438 398.027344 391.566406 397.734375 391.863281 397.535156 C 392.746094 396.753906 393.527344 396.066406 394.410156 395.28125 C 394.609375 395.085938 394.902344 394.890625 395.097656 394.597656 C 390.292969 390.871094 385.882812 386.363281 381.863281 381.460938 C 381.273438 381.953125 380.785156 382.441406 380.195312 382.933594 C 383.921875 388.027344 387.449219 393.222656 390.980469 398.320312 Z M 390.980469 398.320312 " fill-opacity="1" fill-rule="nonzero"/><path fill="#e99596" d="M 362.449219 404.59375 C 359.703125 403.808594 357.058594 403.023438 354.3125 402.046875 C 353.527344 402.535156 352.644531 403.023438 351.859375 403.417969 C 355.488281 404.003906 358.921875 404.398438 362.449219 404.59375 Z M 362.449219 404.59375 " fill-opacity="1" fill-rule="nonzero"/><path fill="#e99596" d="M 386.371094 400.28125 C 382.941406 395.773438 379.507812 391.164062 376.078125 386.558594 C 373.429688 388.8125 370.683594 390.96875 368.039062 392.929688 C 374.214844 395.871094 380.390625 398.320312 386.371094 400.28125 Z M 386.371094 400.28125 " fill-opacity="1" fill-rule="nonzero"/><path fill="#e99596" d="M 363.429688 398.8125 C 362.742188 398.417969 361.960938 398.125 361.273438 397.734375 C 361.175781 397.832031 360.980469 397.929688 360.882812 398.027344 C 361.761719 398.320312 362.644531 398.515625 363.429688 398.8125 Z M 363.429688 398.8125 " fill-opacity="1" fill-rule="nonzero"/><path fill="#e99596" d="M 377.84375 379.402344 C 378.429688 379.109375 379.117188 378.914062 379.707031 378.621094 C 377.84375 376.167969 376.078125 373.621094 374.410156 370.875 C 373.726562 371.074219 373.136719 371.367188 372.449219 371.5625 C 374.3125 374.109375 376.078125 376.757812 377.84375 379.402344 Z M 377.84375 379.402344 " fill-opacity="1" fill-rule="nonzero"/><path fill="#e99596" d="M 356.273438 386.949219 C 361.761719 385.480469 367.15625 383.617188 372.449219 381.660156 C 370.390625 379.011719 368.429688 376.265625 366.46875 373.621094 C 358.921875 375.875 351.175781 377.640625 343.332031 378.914062 C 347.449219 381.757812 351.761719 384.5 356.273438 386.949219 Z M 356.273438 386.949219 " fill-opacity="1" fill-rule="nonzero"/><path fill="#e99596" d="M 316.371094 393.8125 C 321.273438 393.417969 326.078125 392.832031 330.976562 392.144531 C 326.761719 390.085938 322.546875 387.929688 318.332031 385.773438 C 316.273438 384.695312 314.015625 383.519531 311.566406 382.246094 C 304.898438 382.636719 298.132812 382.835938 291.46875 382.835938 C 299.898438 387.050781 308.234375 390.675781 316.371094 393.8125 Z M 316.371094 393.8125 " fill-opacity="1" fill-rule="nonzero"/><path fill="#e99596" d="M 341.761719 390.285156 C 343.332031 389.988281 344.898438 389.597656 346.566406 389.304688 C 343.527344 387.441406 340.488281 385.480469 337.644531 383.421875 C 336.175781 382.441406 334.703125 381.363281 333.234375 380.285156 C 330.488281 380.679688 327.742188 380.972656 324.996094 381.167969 C 330.390625 384.5 335.976562 387.539062 341.761719 390.285156 Z M 341.761719 390.285156 " fill-opacity="1" fill-rule="nonzero"/><path fill="#e99596" d="M 329.703125 542.792969 C 361.273438 526.328125 385 500.253906 403.53125 470.457031 C 402.941406 461.441406 402.746094 452.523438 403.53125 443.898438 C 395.292969 458.207031 385.292969 471.632812 373.136719 482.121094 C 359.605469 500.058594 343.332031 516.035156 321.371094 528.679688 C 302.742188 539.460938 282.9375 547.792969 264.113281 558.179688 C 259.503906 560.730469 254.898438 563.375 250.386719 566.21875 C 232.347656 577.785156 218.917969 594.25 205.09375 610.324219 C 184.894531 633.75 163.523438 649.136719 131.070312 644.433594 C 110.382812 641.492188 107.738281 628.164062 100.382812 611.988281 C 87.246094 583.078125 39.207031 569.84375 39.304688 537.011719 C 39.402344 517.800781 47.929688 495.453125 52.734375 476.730469 C 55.675781 465.460938 59.109375 454.484375 63.128906 443.601562 C 65.773438 436.546875 68.519531 429.585938 71.851562 422.628906 C 86.265625 392.046875 114.796875 386.558594 144.40625 386.851562 C 151.757812 398.910156 161.070312 408.023438 173.230469 416.941406 C 198.230469 435.273438 230.484375 442.230469 261.957031 442.820312 C 261.957031 441.347656 262.054688 439.78125 262.445312 438.308594 C 264.40625 431.253906 271.074219 426.15625 278.429688 426.15625 C 281.664062 426.15625 284.800781 427.136719 287.449219 428.902344 C 294.507812 431.058594 298.429688 437.035156 307.253906 437.625 C 309.996094 437.820312 312.742188 437.820312 315.390625 437.917969 C 336.175781 433.3125 354.703125 425.46875 371.371094 414.199219 C 360 414.394531 348.820312 413.121094 337.351562 410.769531 C 322.742188 417.042969 306.664062 421.257812 288.625 423.609375 C 251.761719 428.507812 213.230469 422.234375 181.464844 402.535156 C 175.089844 398.613281 169.796875 393.519531 164.992188 387.832031 C 170.582031 388.226562 175.972656 388.617188 181.269531 388.910156 C 204.113281 390.285156 229.699219 392.929688 255.78125 394.300781 C 254.898438 389.988281 255.976562 385.871094 258.328125 382.636719 C 255.878906 382.539062 253.523438 382.539062 251.171875 382.441406 C 221.074219 381.757812 187.152344 374.992188 154.992188 373.621094 C 144.207031 356.371094 135.972656 336.375 124.207031 321.183594 C 111.167969 304.421875 96.558594 288.839844 85.972656 270.316406 C 79.011719 258.0625 78.617188 243.460938 81.363281 228.757812 C 84.5 211.996094 91.558594 195.238281 97.34375 181.808594 C 114.894531 141.328125 151.070312 85.363281 203.621094 108.59375 C 232.738281 121.53125 243.820312 166.125 267.152344 187.296875 C 277.152344 196.414062 288.230469 203.175781 297.351562 212.09375 C 303.332031 217.878906 308.429688 224.640625 311.761719 233.65625 C 313.820312 239.246094 314.800781 244.832031 315.292969 250.320312 C 315.488281 252.867188 315.683594 255.417969 315.878906 257.964844 C 329.410156 260.710938 332.058594 278.15625 323.917969 286.683594 C 325.976562 291.484375 328.234375 296.289062 330.585938 300.992188 C 338.136719 311.089844 347.15625 320.007812 356.46875 328.730469 C 353.820312 320.300781 351.664062 311.675781 349.800781 303.34375 C 345.878906 298.835938 342.058594 294.132812 338.527344 289.132812 C 334.214844 283.15625 332.058594 276.882812 330.78125 270.511719 C 328.722656 260.316406 329.015625 249.632812 327.15625 238.949219 C 323.332031 217.78125 312.546875 204.058594 295.585938 191.121094 C 294.410156 190.238281 293.429688 189.355469 292.25 188.472656 C 270.78125 171.320312 256.859375 153.285156 242.152344 129.664062 C 221.074219 95.65625 188.132812 80.265625 149.304688 94.773438 C 109.699219 109.574219 89.597656 157.011719 75.382812 193.082031 C 68.226562 211.3125 65.285156 227.582031 66.167969 242.96875 C 67.539062 267.570312 78.519531 289.625 97.34375 312.949219 C 112.933594 332.355469 126.5625 351.175781 137.542969 373.230469 C 129.699219 373.523438 122.050781 374.210938 114.699219 375.484375 C 81.265625 381.65625 63.519531 403.125 53.617188 433.3125 C 52.832031 435.664062 52.148438 438.015625 51.460938 440.464844 C 44.890625 464.480469 38.324219 488.003906 30.96875 511.820312 C 26.066406 527.601562 23.617188 543.96875 30.285156 559.453125 C 35.480469 571.511719 51.851562 580.039062 61.558594 587.683594 C 80.285156 602.484375 87.835938 619.4375 97.148438 640.316406 C 112.636719 675.109375 170.777344 662.664062 194.011719 646.097656 C 211.855469 633.355469 225.191406 614.539062 239.601562 598.269531 C 240.878906 596.796875 242.347656 595.523438 243.722656 594.152344 C 266.859375 570.628906 300.683594 557.984375 329.703125 542.792969 Z M 329.703125 542.792969 " fill-opacity="1" fill-rule="nonzero"/><path fill="#e99596" d="M 433.234375 417.042969 C 431.570312 416.257812 429.902344 415.472656 428.335938 414.589844 C 428.53125 416.355469 428.921875 418.019531 429.3125 419.785156 C 429.707031 418.902344 430 418.121094 430.394531 417.238281 C 431.273438 417.140625 432.253906 417.042969 433.234375 417.042969 Z M 433.234375 417.042969 " fill-opacity="1" fill-rule="nonzero"/><path fill="#e99596" d="M 407.648438 414.296875 C 407.253906 414.003906 407.058594 413.511719 406.863281 413.023438 C 406.765625 413.023438 406.765625 413.023438 406.667969 413.023438 C 406.570312 413.023438 406.46875 413.023438 406.371094 412.925781 C 406.273438 413.414062 406.078125 413.808594 405.6875 414.296875 C 405 415.082031 404.410156 415.765625 403.726562 416.550781 C 405.097656 415.765625 406.371094 414.984375 407.648438 414.296875 Z M 407.648438 414.296875 " fill-opacity="1" fill-rule="nonzero"/><path fill="#e99596" d="M 404.902344 424.980469 C 403.628906 425.667969 402.449219 426.351562 401.175781 426.941406 C 401.273438 428.214844 401.46875 429.488281 401.570312 430.664062 C 402.746094 428.804688 403.824219 426.84375 404.902344 424.980469 Z M 404.902344 424.980469 " fill-opacity="1" fill-rule="nonzero"/><path fill="#e99596" d="M 460.199219 399.789062 C 454.707031 405.28125 448.53125 409.199219 442.257812 409.496094 C 459.804688 414.296875 479.414062 412.628906 496.570312 406.945312 C 485.296875 403.023438 473.726562 400.574219 461.472656 399.398438 C 461.078125 399.59375 460.6875 399.691406 460.199219 399.789062 Z M 460.199219 399.789062 " fill-opacity="1" fill-rule="nonzero"/><path fill="#e99596" d="M 430.785156 424.980469 C 438.234375 447.71875 458.433594 463.402344 480.296875 475.261719 C 475.589844 471.339844 470.980469 467.320312 466.472656 463.207031 C 453.53125 451.347656 441.570312 438.605469 430.785156 424.980469 Z M 430.785156 424.980469 " fill-opacity="1" fill-rule="nonzero"/><path fill="#e99596" d="M 424.707031 383.519531 C 424.707031 383.421875 424.804688 383.421875 424.804688 383.324219 C 425.195312 383.128906 425.589844 382.933594 425.980469 382.738281 C 429.019531 381.363281 432.058594 380.382812 435.097656 379.503906 C 437.453125 372.640625 439.414062 365.683594 441.078125 358.722656 C 436.765625 359.800781 432.453125 360.683594 428.039062 361.46875 C 427.253906 368.917969 426.078125 376.265625 424.707031 383.519531 Z M 424.707031 383.519531 " fill-opacity="1" fill-rule="nonzero"/><path fill="#e99596" d="M 761.382812 513.09375 C 809.914062 456.738281 792.167969 388.910156 744.128906 346.175781 C 728.929688 332.652344 710.890625 321.675781 690.792969 314.226562 C 678.929688 309.914062 667.261719 307.265625 655.496094 305.992188 C 655.398438 283.9375 647.554688 261.589844 653.4375 239.636719 C 655.203125 232.972656 656.675781 226.207031 657.949219 219.347656 C 659.417969 211.113281 660.695312 202.882812 661.773438 194.648438 C 666.476562 158.1875 664.617188 120.746094 650.203125 86.636719 C 637.554688 56.742188 609.417969 39.785156 577.945312 36.945312 C 551.867188 34.691406 522.453125 61.9375 502.453125 81.933594 C 499.023438 85.363281 495.785156 88.695312 492.945312 91.441406 C 467.355469 116.921875 444.902344 144.660156 431.175781 178.183594 C 412.550781 223.5625 422.058594 273.351562 417.746094 320.988281 C 419.214844 320.105469 420.785156 319.417969 422.550781 319.027344 C 422.941406 318.832031 423.234375 318.636719 423.628906 318.441406 C 426.667969 294.71875 427.453125 270.707031 428.628906 246.695312 C 431.078125 199.351562 447.648438 163.480469 477.0625 127.605469 C 485.199219 117.609375 494.316406 106.925781 504.21875 96.832031 C 521.472656 79.285156 541.179688 63.507812 562.75 56.058594 C 599.710938 43.414062 629.125 79.777344 637.949219 110.75 C 646.28125 140.054688 643.832031 173.476562 639.417969 203.371094 C 637.75 214.742188 635.203125 225.914062 632.261719 236.992188 C 632.164062 237.382812 632.066406 237.773438 631.96875 238.167969 C 626.28125 259.335938 633.242188 283.253906 635.007812 305.011719 C 610.007812 305.5 585.203125 311.285156 560.398438 319.027344 C 561.476562 320.695312 562.160156 322.554688 562.554688 324.515625 C 563.339844 329.613281 562.75 334.316406 559.515625 338.335938 C 576.769531 332.457031 594.125 327.164062 612.066406 323.4375 C 619.613281 321.871094 627.164062 321.085938 634.515625 320.890625 C 629.320312 346.765625 600.300781 357.546875 571.179688 362.347656 C 574.417969 367.640625 574.710938 374.699219 572.160156 380.382812 C 608.046875 374.601562 644.417969 361.761719 653.929688 322.851562 C 654.027344 322.554688 654.027344 322.164062 654.125 321.871094 C 685.398438 325.789062 714.226562 340.984375 738.441406 362.839844 C 740.007812 364.210938 741.480469 365.585938 743.050781 367.054688 C 786.777344 409.003906 784.816406 463.695312 746.675781 507.703125 C 743.539062 511.332031 740.304688 514.664062 736.871094 517.699219 C 713.636719 538.773438 684.8125 546.910156 655.007812 547.007812 C 653.535156 544.65625 651.96875 542.300781 650.398438 539.949219 C 624.808594 501.921875 589.710938 468.597656 554.21875 439.878906 C 541.082031 429.195312 527.945312 420.667969 514.316406 414.003906 C 513.140625 414.492188 511.867188 414.984375 510.789062 415.472656 C 501.179688 419.097656 491.179688 421.84375 481.082031 423.117188 C 500.394531 429 518.335938 438.605469 535.296875 450.367188 C 537.847656 449.875 540.984375 449.777344 543.335938 450.660156 C 544.515625 451.050781 545.691406 451.640625 546.769531 452.226562 C 551.671875 455.070312 554.613281 460.167969 555.199219 465.558594 C 575.300781 482.21875 593.828125 501.429688 611.378906 520.25 C 618.730469 528.089844 626.28125 536.617188 633.4375 545.636719 C 607.554688 542.5 581.769531 534.265625 558.730469 523.777344 C 540.296875 515.445312 522.453125 505.253906 505.492188 493.6875 C 506.570312 496.726562 506.867188 500.058594 505.886719 503.488281 C 505.492188 504.859375 504.90625 506.234375 504.21875 507.410156 C 548.042969 539.066406 598.339844 561.511719 646.378906 563.375 C 657.359375 580.039062 665.695312 598.171875 667.949219 617.183594 C 669.8125 632.574219 665.007812 646.097656 656.773438 657.957031 C 640.300781 681.480469 609.808594 698.4375 587.554688 710.492188 C 551.082031 730.195312 510.984375 739.40625 470.882812 726.273438 C 458.53125 722.253906 447.355469 715.882812 437.648438 708.042969 C 410.195312 685.890625 393.527344 651.097656 390.882812 615.910156 C 387.941406 575.726562 426.765625 547.988281 428.53125 508.878906 C 429.511719 487.707031 421.960938 466.636719 417.253906 446.25 C 417.941406 444.875 418.726562 443.503906 419.414062 442.035156 C 421.175781 438.40625 422.941406 434.78125 424.609375 431.15625 C 425.394531 432.136719 426.175781 433.214844 427.058594 434.195312 C 424.511719 427.722656 422.84375 420.960938 422.253906 414.003906 C 410 445.660156 420.6875 475.359375 418.234375 509.761719 C 418.039062 512.507812 416.371094 513.976562 414.511719 514.367188 C 409.410156 537.207031 390.785156 559.257812 381.667969 579.351562 C 372.351562 599.933594 373.429688 621.300781 377.449219 642.960938 C 382.84375 671.875 401.863281 701.085938 426.078125 721.273438 C 436.175781 729.703125 447.15625 736.566406 458.53125 741.171875 C 500.984375 758.324219 541.179688 749.109375 581.671875 731.371094 C 614.125 717.160156 646.183594 691.085938 664.222656 659.234375 C 666.871094 654.527344 669.222656 649.726562 671.28125 644.726562 C 683.046875 615.910156 677.359375 588.664062 664.320312 563.082031 C 693.144531 560.925781 720.792969 550.632812 745.109375 529.460938 C 750.5 524.757812 756.089844 519.269531 761.382812 513.09375 Z M 761.382812 513.09375 " fill-opacity="1" fill-rule="nonzero"/><path fill="#e99596" d="M 446.277344 357.449219 C 444.609375 364.507812 442.550781 371.5625 440.296875 378.425781 C 442.941406 377.933594 445.492188 377.640625 448.136719 377.445312 C 454.804688 369.503906 460.199219 361.074219 464.609375 352.351562 C 461.078125 353.429688 457.648438 354.410156 454.117188 355.390625 C 451.570312 356.078125 448.921875 356.761719 446.277344 357.449219 Z M 446.277344 357.449219 " fill-opacity="1" fill-rule="nonzero"/><path fill="#e99596" d="M 402.941406 399.691406 C 402.746094 399.59375 402.449219 399.398438 402.253906 399.300781 C 402.351562 399.496094 402.449219 399.691406 402.550781 399.789062 C 402.648438 399.789062 402.746094 399.691406 402.941406 399.691406 Z M 402.941406 399.691406 " fill-opacity="1" fill-rule="nonzero"/><path fill="#e99596" d="M 476.960938 486.238281 C 476.863281 486.140625 476.765625 486.140625 476.667969 486.140625 C 476.765625 486.140625 476.765625 486.238281 476.960938 486.238281 C 476.863281 486.238281 476.960938 486.238281 476.960938 486.238281 Z M 476.960938 486.238281 " fill-opacity="1" fill-rule="nonzero"/><path fill="#e99596" d="M 457.550781 377.347656 C 460.394531 377.445312 463.335938 377.640625 466.277344 377.933594 C 472.257812 368.820312 477.84375 357.644531 482.746094 346.472656 C 480.003906 347.453125 477.257812 348.332031 474.511719 349.214844 C 470.199219 358.917969 464.609375 368.328125 457.550781 377.347656 Z M 457.550781 377.347656 " fill-opacity="1" fill-rule="nonzero"/><path fill="#e99596" d="M 543.730469 343.824219 C 541.179688 343.238281 538.730469 341.960938 536.769531 340.101562 C 534.710938 343.039062 532.652344 345.785156 530.492188 348.53125 C 534.90625 347.058594 539.316406 345.394531 543.730469 343.824219 Z M 543.730469 343.824219 " fill-opacity="1" fill-rule="nonzero"/><path fill="#e99596" d="M 480.394531 371.269531 C 479.21875 373.523438 477.648438 376.167969 475.882812 379.011719 C 478.335938 379.402344 480.882812 379.796875 483.335938 380.1875 C 489.804688 376.070312 495.886719 371.367188 501.570312 366.171875 C 495.886719 365.78125 490.101562 365.191406 484.414062 364.605469 C 488.335938 363.328125 492.257812 361.957031 496.179688 360.683594 C 501.765625 358.820312 507.453125 356.859375 513.042969 354.800781 C 519.90625 347.355469 526.179688 339.121094 531.964844 330.398438 C 531.964844 329.808594 531.964844 329.222656 531.964844 328.632812 C 519.414062 333.140625 506.964844 337.75 494.414062 342.257812 C 490.101562 352.253906 485.589844 361.957031 480.394531 371.269531 Z M 480.394531 371.269531 " fill-opacity="1" fill-rule="nonzero"/><path fill="#e99596" d="M 412.84375 409.59375 C 413.53125 408.121094 414.214844 406.554688 414.902344 404.984375 C 414.804688 404.984375 414.707031 404.886719 414.609375 404.886719 C 414.019531 405.179688 413.332031 405.476562 412.746094 405.671875 C 412.84375 406.945312 412.84375 408.21875 412.84375 409.59375 Z M 412.84375 409.59375 " fill-opacity="1" fill-rule="nonzero"/><path fill="#d75150" d="M 432.058594 280.605469 C 431.570312 281.980469 431.375 283.253906 431.765625 284.527344 C 431.765625 283.15625 431.863281 281.878906 432.058594 280.605469 Z M 432.058594 280.605469 " fill-opacity="1" fill-rule="nonzero"/><path fill="#d75150" d="M 549.121094 388.8125 C 543.730469 386.460938 540.59375 381.660156 539.613281 376.269531 C 537.453125 379.304688 535.199219 381.953125 532.847656 384.597656 C 524.90625 393.222656 515.296875 399.789062 501.570312 405.179688 C 499.90625 405.769531 498.238281 406.359375 496.570312 406.945312 C 479.414062 412.628906 459.804688 414.394531 442.257812 409.496094 C 448.53125 409.296875 454.609375 405.28125 460.199219 399.789062 C 460.589844 399.691406 461.078125 399.496094 461.472656 399.398438 C 473.726562 395.378906 485.101562 389.5 495.492188 382.246094 C 502.0625 377.640625 508.335938 372.542969 514.21875 366.859375 C 520.003906 361.269531 525.394531 355.097656 530.492188 348.628906 C 532.652344 345.882812 534.710938 343.039062 536.769531 340.199219 C 535.59375 339.121094 534.613281 338.042969 533.828125 336.671875 C 532.652344 334.613281 532.0625 332.652344 531.867188 330.496094 C 526.082031 339.21875 519.808594 347.453125 512.945312 354.902344 C 509.316406 358.917969 505.492188 362.644531 501.570312 366.269531 C 495.785156 371.464844 489.707031 376.167969 483.335938 380.285156 C 479.121094 383.03125 474.804688 385.480469 470.296875 387.734375 C 472.355469 384.792969 474.21875 381.855469 475.882812 379.109375 C 477.648438 376.167969 479.121094 373.523438 480.394531 371.367188 C 485.589844 362.054688 490.101562 352.253906 494.316406 342.453125 C 498.628906 332.457031 502.550781 322.164062 506.375 312.070312 C 509.609375 303.640625 512.453125 295.015625 515.589844 286.585938 C 516.179688 284.917969 516.964844 283.644531 517.453125 282.566406 C 517.453125 282.566406 517.453125 282.566406 517.453125 282.46875 C 513.828125 281.292969 510.589844 279.039062 508.335938 276 C 508.238281 276.6875 508.042969 277.960938 507.257812 280.410156 C 505.589844 285.605469 503.726562 290.800781 501.867188 295.898438 C 501.179688 297.855469 500.199219 300.699219 498.925781 304.226562 C 495.394531 314.519531 489.707031 330.496094 482.746094 346.472656 C 477.84375 357.644531 472.257812 368.820312 466.277344 377.933594 C 460.980469 385.972656 455.296875 392.441406 449.511719 395.871094 C 446.078125 396.851562 442.648438 397.734375 439.019531 398.515625 C 437.15625 398.320312 435.195312 397.632812 433.335938 396.554688 C 433.433594 396.359375 433.53125 396.066406 433.628906 395.871094 C 433.726562 395.578125 433.824219 395.378906 433.921875 395.085938 C 434.019531 395.28125 434.214844 395.476562 434.316406 395.773438 C 435.394531 397.339844 437.746094 398.125 439.609375 396.457031 C 446.472656 390.382812 452.355469 384.011719 457.453125 377.445312 C 464.511719 368.523438 470.101562 359.113281 474.414062 349.3125 C 478.042969 341.179688 480.882812 332.75 483.140625 324.125 C 486.570312 310.597656 488.628906 296.484375 489.707031 281.683594 C 490.003906 277.863281 490.199219 274.039062 490.394531 270.21875 C 489.121094 270.707031 487.648438 271.097656 485.886719 271.097656 C 484.121094 271.097656 482.550781 270.707031 481.179688 270.117188 C 481.179688 278.351562 480.882812 286.488281 480.101562 294.425781 C 478.628906 310.109375 475.589844 325.105469 470.296875 339.21875 C 468.53125 343.726562 466.570312 348.234375 464.414062 352.546875 C 460 361.269531 454.609375 369.699219 447.941406 377.640625 C 444.21875 382.148438 440.097656 386.460938 435.589844 390.675781 C 437.15625 386.753906 438.726562 382.738281 440 378.71875 C 442.355469 371.855469 444.316406 364.800781 445.980469 357.742188 C 448.039062 349.3125 449.707031 340.785156 450.882812 332.160156 C 451.078125 330.789062 451.179688 329.417969 451.277344 328.042969 C 452.160156 318.734375 451.472656 310.207031 450.492188 301.679688 C 450.097656 301.679688 449.609375 301.777344 449.121094 301.777344 C 448.335938 301.777344 447.550781 301.679688 446.765625 301.582031 C 447.941406 311.285156 446.667969 325.007812 445.199219 335.296875 C 444.316406 342.0625 443.335938 347.351562 442.941406 349.117188 C 442.355469 352.351562 441.570312 355.585938 440.785156 358.917969 C 439.117188 365.976562 437.15625 372.835938 434.804688 379.699219 C 433.726562 382.835938 432.648438 385.972656 431.472656 389.007812 C 431.175781 389.792969 430.785156 390.578125 430.492188 391.261719 C 429.316406 389.988281 427.550781 389.402344 425.589844 390.382812 C 423.039062 391.65625 420.589844 392.832031 418.136719 393.910156 C 416.175781 394.792969 414.214844 395.574219 412.351562 396.359375 C 412.453125 379.109375 413.234375 361.761719 413.628906 344.511719 C 413.628906 343.53125 413.726562 342.550781 413.726562 341.570312 C 411.765625 339.21875 410.589844 336.277344 410.589844 332.847656 C 410.589844 329.710938 411.570312 327.066406 413.136719 324.808594 C 411.765625 311.871094 408.824219 297.074219 408.433594 283.839844 C 406.371094 284.917969 404.117188 285.507812 401.667969 285.703125 C 407.550781 304.71875 404.804688 331.574219 404.902344 347.84375 C 404.902344 350.980469 404.902344 354.117188 404.902344 357.15625 C 404.902344 359.214844 404.902344 361.269531 404.902344 363.328125 C 404.902344 363.820312 404.902344 364.308594 404.902344 364.703125 C 404.902344 370.976562 405 377.246094 405.097656 383.421875 C 405.097656 384.992188 405.195312 386.558594 405.195312 388.027344 C 405.195312 389.304688 405.292969 390.675781 405.292969 391.949219 C 398.824219 387.148438 393.332031 381.167969 388.527344 374.40625 C 388.429688 374.308594 388.332031 374.109375 388.234375 374.011719 C 386.566406 371.660156 385.097656 369.308594 383.628906 366.859375 C 379.902344 360.488281 376.765625 353.527344 374.019531 346.375 C 371.078125 338.433594 368.625 330.101562 366.664062 321.773438 C 365.683594 317.460938 364.902344 313.246094 364.214844 308.933594 C 362.546875 299.128906 361.46875 289.523438 360.980469 280.507812 C 362.449219 279.429688 363.527344 277.960938 364.410156 275.902344 C 361.863281 277.960938 358.429688 279.234375 354.214844 279.234375 C 347.058594 279.234375 342.253906 275.507812 339.800781 270.609375 C 339.800781 271.785156 340 272.960938 340.390625 274.332031 C 341.078125 276.980469 342.546875 279.039062 344.507812 280.507812 C 345 283.15625 345.488281 285.800781 345.980469 288.546875 C 346.960938 293.347656 347.941406 298.347656 349.117188 303.441406 C 350.980469 311.773438 353.136719 320.300781 355.78125 328.828125 C 360.390625 343.726562 366.273438 358.234375 374.019531 370.679688 C 375.6875 373.328125 377.449219 375.972656 379.3125 378.421875 C 380 379.402344 380.785156 380.382812 381.46875 381.265625 C 385.488281 386.265625 389.902344 390.675781 394.707031 394.398438 C 396.960938 396.066406 399.214844 397.632812 401.570312 399.105469 C 401.570312 399.105469 401.667969 399.203125 401.667969 399.203125 C 401.863281 399.300781 402.15625 399.496094 402.351562 399.59375 C 402.253906 399.59375 402.058594 399.691406 401.960938 399.691406 C 401.765625 399.789062 401.570312 399.789062 401.273438 399.890625 C 398.53125 400.671875 395.6875 401.457031 392.941406 402.046875 C 392.84375 401.945312 392.84375 401.847656 392.84375 401.75 C 392.058594 400.574219 391.175781 399.398438 390.390625 398.222656 C 386.863281 393.125 383.234375 387.929688 379.707031 382.835938 C 378.921875 381.660156 378.136719 380.480469 377.253906 379.304688 C 375.488281 376.660156 373.625 374.109375 371.863281 371.464844 C 356.566406 348.921875 341.761719 325.398438 329.703125 301.089844 C 327.351562 296.386719 325.195312 291.582031 323.035156 286.78125 C 321.078125 288.839844 318.429688 290.503906 315.195312 291.191406 C 325.585938 314.519531 339.3125 336.472656 354.214844 357.644531 C 357.941406 362.9375 361.761719 368.230469 365.683594 373.523438 C 367.644531 376.265625 369.703125 378.914062 371.664062 381.558594 C 372.941406 383.226562 374.117188 384.894531 375.390625 386.558594 C 378.824219 391.164062 382.253906 395.675781 385.6875 400.28125 C 379.707031 398.320312 373.429688 395.871094 367.253906 393.027344 C 363.332031 391.164062 359.3125 389.207031 355.488281 386.949219 C 350.980469 384.5 346.664062 381.757812 342.449219 378.914062 C 328.039062 369.015625 315.878906 356.957031 309.410156 343.433594 C 308.035156 343.726562 306.566406 343.921875 304.996094 343.921875 C 303.132812 343.921875 301.566406 343.628906 299.996094 343.238281 C 302.152344 348.726562 304.507812 354.117188 308.722656 359.507812 C 315.195312 367.742188 323.722656 374.308594 332.253906 380.382812 C 333.722656 381.460938 335.195312 382.441406 336.664062 383.519531 C 339.507812 385.480469 342.546875 387.441406 345.585938 389.402344 C 350.292969 392.339844 355.292969 395.183594 360.292969 397.832031 C 360.980469 398.222656 361.761719 398.515625 362.449219 398.910156 C 361.566406 398.613281 360.78125 398.417969 359.902344 398.125 C 353.332031 395.96875 346.960938 393.417969 340.78125 390.480469 C 335 387.734375 329.410156 384.695312 324.015625 381.460938 C 323.035156 380.875 321.957031 380.285156 320.976562 379.699219 C 310.390625 373.132812 300.191406 365.289062 290.488281 357.546875 C 285.488281 353.527344 281.171875 348.429688 276.171875 344.414062 C 275.289062 346.273438 274.113281 347.941406 272.644531 349.609375 C 271.859375 350.488281 271.074219 351.175781 270.09375 351.765625 C 278.527344 364.605469 296.859375 375.289062 310.488281 382.441406 C 312.9375 383.714844 315.195312 384.894531 317.253906 385.972656 C 321.46875 388.128906 325.683594 390.285156 329.898438 392.339844 C 337.546875 396.066406 345.390625 399.496094 353.332031 402.339844 C 355.980469 403.222656 358.722656 404.101562 361.46875 404.886719 C 357.941406 404.691406 354.410156 404.300781 350.882812 403.808594 C 339.117188 402.046875 327.351562 398.710938 315.292969 394.105469 C 307.15625 390.96875 298.820312 387.34375 290.390625 383.226562 C 289.3125 382.734375 288.230469 382.246094 287.152344 381.65625 C 285.09375 380.679688 283.132812 380.578125 281.566406 381.070312 C 283.332031 382.835938 284.703125 385.089844 285.390625 387.636719 C 286.273438 390.773438 285.878906 393.617188 284.800781 396.261719 C 303.035156 402.144531 319.898438 407.632812 336.371094 411.0625 C 347.84375 413.414062 359.019531 414.6875 370.390625 414.492188 C 378.527344 414.296875 386.667969 413.316406 395 411.355469 C 395.882812 411.550781 396.765625 411.75 397.648438 411.945312 C 398.039062 412.042969 398.53125 412.042969 398.921875 412.140625 C 398.234375 412.828125 397.550781 413.511719 396.863281 414.296875 C 393.726562 417.53125 390.488281 420.667969 387.253906 423.707031 C 373.527344 428.800781 358.921875 432.332031 345.195312 435.273438 C 335.097656 437.429688 324.703125 438.40625 314.410156 438.210938 C 311.664062 438.210938 308.917969 438.113281 306.273438 437.917969 C 297.351562 437.328125 293.429688 431.351562 286.46875 429.195312 C 287.449219 429.78125 288.332031 430.566406 289.113281 431.351562 C 289.3125 431.546875 289.3125 431.644531 289.507812 431.839844 C 293.132812 434.683594 295.585938 438.113281 295.585938 443.015625 C 295.585938 445.074219 295.09375 446.738281 294.3125 448.308594 C 311.371094 452.71875 331.664062 447.914062 347.84375 444.777344 C 354.214844 443.503906 360.683594 441.9375 367.15625 440.074219 C 353.625 449.582031 338.921875 456.539062 321.175781 460.460938 C 322.15625 462.714844 322.546875 465.460938 321.957031 468.398438 C 321.664062 469.578125 321.273438 470.65625 320.78125 471.734375 C 348.625 465.949219 369.117188 451.933594 387.941406 433.015625 C 387.941406 433.015625 388.039062 432.917969 388.039062 432.917969 C 392.253906 431.15625 396.273438 429.292969 400.292969 427.234375 C 401.570312 426.546875 402.84375 425.960938 404.019531 425.273438 C 402.941406 427.234375 401.863281 429.097656 400.6875 431.058594 C 386.863281 454.089844 369.214844 473.398438 345.292969 486.730469 C 347.644531 489.765625 348.921875 493.492188 349.019531 497.414062 C 357.449219 493.589844 365.097656 488.492188 372.15625 482.515625 C 384.3125 472.027344 394.3125 458.597656 402.550781 444.289062 C 401.765625 453.011719 401.960938 461.929688 402.550781 470.851562 C 403.332031 481.632812 404.707031 492.414062 405.980469 503 C 406.273438 503.488281 406.765625 503.78125 407.058594 504.273438 C 407.058594 504.371094 407.15625 504.371094 407.15625 504.46875 C 407.550781 504.960938 407.941406 505.546875 408.332031 506.039062 C 409.609375 508.09375 410 509.761719 410.492188 511.820312 C 410.785156 512.898438 410.785156 513.976562 410.882812 515.054688 C 411.667969 515.25 412.453125 515.25 413.136719 515.054688 C 415.097656 514.664062 416.667969 513.09375 416.863281 510.449219 C 419.214844 476.046875 408.53125 446.347656 420.882812 414.6875 C 421.472656 421.648438 423.136719 428.410156 425.6875 434.878906 C 434.117188 453.601562 449.117188 470.261719 466.960938 481.042969 C 470.101562 482.90625 473.335938 484.574219 476.667969 486.140625 C 476.765625 486.238281 476.863281 486.238281 476.960938 486.238281 C 477.84375 485.550781 478.824219 484.964844 479.804688 484.375 C 479.902344 484.179688 480.003906 483.984375 480.199219 483.789062 C 480.296875 483.496094 480.296875 483.296875 480.394531 483.003906 C 481.179688 480.359375 482.84375 478.59375 484.804688 477.613281 C 483.238281 476.828125 481.765625 476.046875 480.296875 475.261719 C 458.433594 463.402344 438.238281 447.71875 430.785156 424.980469 C 430.195312 423.214844 429.707031 421.453125 429.316406 419.6875 C 428.921875 418.019531 428.53125 416.257812 428.335938 414.492188 C 430 415.375 431.570312 416.257812 433.234375 416.941406 C 434.117188 417.335938 435 417.824219 435.882812 418.121094 C 442.15625 423.902344 448.53125 429.097656 455.199219 433.898438 C 475.199219 448.40625 496.964844 458.402344 521.769531 463.304688 C 522.652344 459.480469 524.808594 455.953125 528.042969 453.503906 C 499.90625 449.089844 476.472656 439.09375 454.21875 423.019531 C 462.941406 424.292969 471.960938 424.195312 480.785156 423.019531 C 490.886719 421.648438 500.886719 419 510.492188 415.375 C 511.667969 414.886719 512.847656 414.394531 514.023438 413.90625 C 525.789062 409.101562 540.003906 400.183594 549.121094 388.8125 Z M 414.902344 404.984375 C 414.214844 406.554688 413.53125 408.023438 412.84375 409.59375 C 412.84375 408.316406 412.84375 406.945312 412.84375 405.671875 C 413.429688 405.476562 414.117188 405.179688 414.707031 404.886719 C 414.707031 404.886719 414.804688 404.886719 414.902344 404.984375 Z M 406.371094 412.925781 C 406.46875 412.925781 406.570312 412.925781 406.667969 413.023438 C 406.765625 413.023438 406.765625 413.023438 406.863281 413.023438 C 407.058594 413.511719 407.253906 414.003906 407.648438 414.296875 C 406.371094 414.984375 405.097656 415.765625 403.824219 416.453125 C 404.410156 415.667969 405.097656 414.984375 405.785156 414.199219 C 406.078125 413.808594 406.273438 413.414062 406.371094 412.925781 Z M 406.371094 412.925781 " fill-opacity="1" fill-rule="nonzero"/><path fill="#d75150" d="M 421.078125 362.839844 C 420.882812 371.171875 420.785156 379.402344 420 387.734375 C 419.902344 388.519531 420.394531 389.105469 420.882812 389.402344 C 421.960938 389.988281 423.628906 389.695312 423.921875 388.324219 C 424.214844 386.753906 424.511719 385.1875 424.707031 383.617188 C 425.980469 376.269531 427.253906 369.015625 428.136719 361.664062 C 428.234375 360.683594 428.433594 359.800781 428.53125 358.820312 C 428.53125 358.625 428.628906 358.429688 428.628906 358.234375 C 429.019531 354.410156 429.609375 350.488281 430.195312 346.375 C 428.628906 346.863281 426.863281 347.058594 425 346.960938 C 423.824219 346.863281 422.746094 346.667969 421.667969 346.375 C 421.667969 347.058594 421.570312 347.648438 421.570312 348.332031 C 421.375 353.136719 421.175781 357.9375 421.078125 362.839844 Z M 421.078125 362.839844 " fill-opacity="1" fill-rule="nonzero"/><path fill="#e96124" d="M 499.90625 485.652344 C 500.785156 486.433594 501.179688 486.925781 501.472656 487.21875 C 501.375 487.023438 501.277344 486.925781 501.082031 486.53125 C 500.6875 485.652344 499.90625 484.671875 499.023438 483.886719 C 498.628906 483.296875 498.140625 482.90625 497.648438 482.417969 C 495.394531 476.925781 489.21875 475.261719 484.707031 477.613281 C 482.746094 478.691406 481.082031 480.359375 480.296875 483.003906 C 480.199219 483.296875 480.199219 483.496094 480.101562 483.789062 C 480.003906 483.984375 479.804688 484.179688 479.707031 484.375 C 478.726562 484.867188 477.746094 485.453125 476.863281 486.238281 C 476.863281 486.238281 476.765625 486.238281 476.765625 486.335938 C 475.296875 487.511719 474.023438 488.886719 473.140625 490.550781 C 470.394531 495.355469 469.902344 502.019531 473.140625 506.820312 C 477.746094 513.683594 485.199219 517.800781 493.628906 515.542969 C 497.84375 514.367188 501.570312 511.527344 503.726562 507.703125 C 504.414062 506.429688 505.003906 505.15625 505.394531 503.78125 C 506.375 500.351562 506.082031 497.019531 505.003906 493.980469 C 504.414062 492.414062 503.628906 490.84375 502.550781 489.472656 C 502.0625 488.003906 501.179688 486.730469 499.90625 485.652344 Z M 499.90625 485.652344 " fill-opacity="1" fill-rule="nonzero"/><path fill="#e96124" d="M 501.472656 487.21875 C 501.667969 487.609375 501.765625 487.609375 501.472656 487.21875 Z M 501.472656 487.21875 " fill-opacity="1" fill-rule="nonzero"/><path fill="#e96124" d="M 528.042969 453.699219 C 524.90625 456.148438 522.652344 459.578125 521.769531 463.5 C 520.789062 467.519531 521.179688 471.929688 523.53125 475.75 C 529.023438 485.160156 542.453125 486.925781 550.199219 479.183594 C 553.925781 475.457031 555.296875 470.457031 554.808594 465.753906 C 554.316406 460.363281 551.375 455.265625 546.375 452.425781 C 545.296875 451.835938 544.21875 451.246094 542.945312 450.855469 C 540.59375 449.972656 537.453125 450.070312 534.90625 450.5625 C 534.414062 450.660156 534.023438 450.757812 533.53125 450.855469 C 531.472656 451.347656 529.613281 452.425781 528.042969 453.699219 Z M 549.121094 473.988281 C 549.808594 473.300781 550.394531 472.417969 550.984375 471.632812 C 550.296875 472.417969 549.710938 473.203125 549.121094 473.988281 Z M 549.121094 473.988281 " fill-opacity="1" fill-rule="nonzero"/><path fill="#e96124" d="M 556.476562 354.605469 C 547.847656 354.605469 542.453125 359.605469 540.296875 365.878906 C 539.121094 369.210938 538.925781 372.835938 539.613281 376.367188 C 540.59375 381.757812 543.828125 386.558594 549.121094 388.910156 C 551.277344 389.792969 553.632812 390.382812 556.476562 390.382812 C 564.417969 390.382812 569.515625 386.167969 571.964844 380.582031 C 574.515625 374.894531 574.21875 367.9375 570.984375 362.546875 C 568.238281 357.9375 563.4375 354.605469 556.476562 354.605469 Z M 556.476562 354.605469 " fill-opacity="1" fill-rule="nonzero"/><path fill="#e96124" d="M 557.160156 315.105469 C 551.769531 309.8125 542.945312 309.8125 537.554688 315.105469 C 536.769531 315.890625 536.179688 316.675781 535.691406 317.460938 C 534.023438 319.519531 532.847656 321.96875 532.355469 324.613281 C 532.160156 326.085938 532.0625 327.359375 531.964844 328.730469 C 531.964844 329.320312 531.964844 329.90625 531.964844 330.496094 C 532.160156 332.554688 532.652344 334.613281 533.925781 336.671875 C 534.710938 338.042969 535.691406 339.21875 536.867188 340.199219 C 538.828125 341.960938 541.179688 343.238281 543.828125 343.921875 C 545.003906 344.21875 546.179688 344.414062 547.355469 344.414062 C 551.476562 344.414062 555.496094 342.746094 558.335938 339.804688 C 558.730469 339.414062 559.023438 338.925781 559.316406 338.433594 C 562.554688 334.414062 563.140625 329.710938 562.355469 324.613281 C 562.0625 322.652344 561.277344 320.792969 560.199219 319.125 C 559.808594 318.539062 559.417969 317.949219 559.023438 317.460938 C 558.535156 316.675781 557.945312 315.890625 557.160156 315.105469 Z M 557.160156 315.105469 " fill-opacity="1" fill-rule="nonzero"/><path fill="#e96124" d="M 517.453125 282.371094 C 519.21875 282.957031 520.984375 283.351562 522.847656 283.351562 C 532.355469 283.351562 540.984375 275.214844 540.691406 265.511719 C 540.691406 264.238281 540.492188 262.964844 540.296875 261.691406 C 539.511719 256.59375 537.355469 251.789062 533.042969 248.851562 C 530.296875 246.496094 526.867188 245.027344 522.847656 245.027344 C 518.828125 245.027344 515.394531 246.496094 512.648438 248.851562 C 507.257812 252.574219 505.296875 259.140625 505.003906 265.511719 C 504.90625 269.335938 506.179688 272.960938 508.335938 275.902344 C 510.6875 278.941406 513.828125 281.195312 517.453125 282.371094 Z M 517.453125 282.371094 " fill-opacity="1" fill-rule="nonzero"/><path fill="#e96124" d="M 490.589844 269.921875 C 500.589844 265.804688 499.121094 247.96875 486.082031 247.96875 C 473.238281 247.96875 471.667969 265.511719 481.375 269.824219 C 482.746094 270.414062 484.316406 270.804688 486.082031 270.804688 C 487.84375 270.804688 489.316406 270.511719 490.589844 269.921875 Z M 490.589844 269.921875 " fill-opacity="1" fill-rule="nonzero"/><path fill="#e96124" d="M 450.882812 301.484375 C 458.238281 300.894531 464.707031 295.699219 466.667969 288.546875 C 468.140625 283.15625 466.960938 278.15625 464.121094 274.136719 C 463.335938 272.375 462.160156 270.707031 460.785156 269.238281 C 456.078125 261.984375 443.039062 261.984375 438.335938 269.238281 C 436.960938 270.707031 435.785156 272.375 435 274.136719 C 433.628906 276.097656 432.648438 278.253906 432.15625 280.605469 C 431.863281 281.878906 431.765625 283.15625 431.863281 284.527344 C 431.960938 285.898438 432.058594 287.171875 432.453125 288.644531 C 434.316406 295.503906 440.296875 300.503906 447.257812 301.484375 C 448.039062 301.582031 448.824219 301.679688 449.609375 301.679688 C 449.902344 301.582031 450.394531 301.582031 450.882812 301.484375 Z M 450.882812 301.484375 " fill-opacity="1" fill-rule="nonzero"/><path fill="#e96124" d="M 413.53125 324.710938 C 411.960938 326.964844 410.980469 329.613281 410.980469 332.75 C 410.980469 336.179688 412.253906 339.121094 414.117188 341.472656 C 414.214844 341.667969 414.414062 341.863281 414.511719 341.960938 C 415.6875 343.238281 417.15625 344.316406 418.824219 345.199219 C 419.804688 345.6875 420.6875 346.078125 421.765625 346.277344 C 422.84375 346.570312 423.921875 346.765625 425.097656 346.863281 C 426.960938 346.960938 428.628906 346.765625 430.296875 346.277344 C 440.589844 343.433594 445.882812 330.59375 437.550781 321.675781 C 434.414062 318.242188 428.136719 316.578125 423.53125 318.441406 C 423.136719 318.636719 422.84375 318.832031 422.453125 319.027344 C 420.6875 319.417969 419.117188 320.105469 417.648438 320.988281 C 415.980469 321.96875 414.609375 323.242188 413.53125 324.710938 Z M 413.53125 324.710938 " fill-opacity="1" fill-rule="nonzero"/><path fill="#e96124" d="M 416.078125 276.980469 C 419.609375 271 418.726562 264.925781 416.078125 258.945312 C 415.980469 258.457031 415.6875 258.0625 415.390625 257.671875 C 411.765625 252.671875 407.058594 249.144531 400.589844 249.144531 C 394.214844 249.144531 389.214844 252.476562 385.785156 257.671875 C 384.707031 259.335938 384.019531 261.296875 383.429688 263.160156 C 379.902344 274.332031 389.410156 285.800781 400.6875 285.800781 C 401.175781 285.800781 401.667969 285.605469 402.15625 285.605469 C 404.511719 285.410156 406.765625 284.820312 408.921875 283.742188 C 411.765625 282.175781 414.410156 279.921875 416.078125 276.980469 Z M 416.078125 276.980469 " fill-opacity="1" fill-rule="nonzero"/><path fill="#e96124" d="M 354.703125 279.332031 C 358.921875 279.332031 362.351562 278.058594 364.902344 276 C 375.683594 267.472656 372.253906 245.515625 354.703125 245.515625 C 340.097656 245.515625 335.292969 260.710938 340.292969 270.707031 C 342.742188 275.707031 347.546875 279.332031 354.703125 279.332031 Z M 354.703125 279.332031 " fill-opacity="1" fill-rule="nonzero"/><path fill="#e96124" d="M 311.957031 291.683594 C 313.332031 291.683594 314.703125 291.484375 315.878906 291.289062 C 319.113281 290.605469 321.761719 288.9375 323.722656 286.878906 C 331.859375 278.253906 329.214844 260.90625 315.683594 258.160156 C 314.507812 257.964844 313.234375 257.769531 311.859375 257.769531 C 290.09375 257.671875 290.09375 291.683594 311.957031 291.683594 Z M 311.957031 291.683594 " fill-opacity="1" fill-rule="nonzero"/><path fill="#e96124" d="M 322.054688 322.164062 C 320.878906 317.164062 317.742188 312.65625 312.644531 310.597656 C 310.683594 309.8125 308.429688 309.324219 305.878906 309.324219 C 285.289062 309.324219 283.722656 338.53125 300.878906 343.238281 C 302.351562 343.628906 304.015625 343.921875 305.878906 343.921875 C 307.449219 343.921875 308.917969 343.726562 310.292969 343.433594 C 320.09375 341.082031 324.015625 330.886719 322.054688 322.164062 Z M 322.054688 322.164062 " fill-opacity="1" fill-rule="nonzero"/><path fill="#e96124" d="M 273.625 328.242188 C 270.191406 324.320312 263.917969 323.046875 259.015625 324.417969 C 252.542969 326.183594 248.035156 332.160156 248.035156 338.828125 C 248.035156 344.117188 250.878906 349.117188 255.484375 351.765625 C 259.996094 354.410156 266.464844 354.507812 271.074219 351.566406 C 272.054688 350.980469 272.9375 350.292969 273.625 349.410156 C 275.09375 347.746094 276.269531 346.078125 277.152344 344.21875 C 277.839844 342.648438 278.328125 340.882812 278.328125 338.828125 C 278.328125 334.515625 276.367188 331.378906 273.625 328.242188 Z M 273.625 328.242188 " fill-opacity="1" fill-rule="nonzero"/><path fill="#e96124" d="M 278.527344 404.496094 C 281.664062 402.242188 284.410156 399.300781 285.78125 395.871094 C 286.859375 393.222656 287.25 390.382812 286.371094 387.246094 C 285.683594 384.695312 284.308594 382.539062 282.546875 380.679688 C 279.507812 377.542969 275.191406 375.777344 270.78125 375.875 C 265.585938 376.070312 261.074219 378.621094 258.328125 382.539062 C 255.976562 385.773438 254.996094 389.890625 255.78125 394.203125 C 255.878906 394.597656 255.878906 394.988281 255.976562 395.28125 C 258.425781 404.300781 270.289062 410.375 278.527344 404.496094 Z M 278.527344 404.496094 " fill-opacity="1" fill-rule="nonzero"/><path fill="#e96124" d="M 269.996094 457.03125 C 270.683594 457.421875 271.46875 457.71875 272.25 458.011719 C 278.722656 460.460938 286.566406 458.796875 290.976562 453.402344 C 292.839844 451.835938 294.3125 450.070312 295.191406 448.011719 C 295.976562 446.445312 296.46875 444.679688 296.46875 442.71875 C 296.46875 437.820312 293.917969 434.390625 290.390625 431.546875 C 290.289062 431.351562 290.191406 431.253906 289.996094 431.058594 C 289.210938 430.273438 288.328125 429.585938 287.347656 428.902344 C 284.703125 427.136719 281.566406 426.15625 278.328125 426.15625 C 270.976562 426.15625 264.308594 431.253906 262.347656 438.308594 C 261.957031 439.78125 261.859375 441.25 261.859375 442.820312 C 261.957031 448.503906 264.898438 454.089844 269.996094 457.03125 Z M 269.996094 457.03125 " fill-opacity="1" fill-rule="nonzero"/><path fill="#e96124" d="M 309.800781 453.109375 C 302.644531 452.523438 295.976562 459.382812 295.976562 466.441406 C 295.976562 474.476562 304.507812 482.21875 312.644531 479.183594 C 316.566406 477.710938 319.800781 475.164062 321.566406 471.535156 C 322.054688 470.457031 322.546875 469.378906 322.742188 468.203125 C 323.332031 465.265625 322.9375 462.617188 321.957031 460.265625 C 320.09375 455.558594 315.390625 452.71875 309.800781 453.109375 Z M 312.742188 453.699219 C 312.449219 453.601562 312.054688 453.601562 311.761719 453.503906 C 312.054688 453.503906 312.449219 453.601562 312.742188 453.699219 Z M 312.742188 453.699219 " fill-opacity="1" fill-rule="nonzero"/><path fill="#e96124" d="M 340.488281 481.925781 C 338.429688 481.042969 336.078125 480.457031 333.332031 480.457031 C 321.175781 480.457031 315.78125 490.648438 316.859375 499.960938 C 317.742188 507.800781 323.234375 514.957031 333.332031 514.957031 C 344.800781 514.957031 350.292969 505.839844 350 497.019531 C 349.902344 493.199219 348.625 489.375 346.273438 486.335938 C 344.800781 484.472656 342.839844 482.90625 340.488281 481.925781 Z M 340.488281 481.925781 " fill-opacity="1" fill-rule="nonzero"/><path fill="#e96124" d="M 409.3125 505.644531 C 408.921875 505.15625 408.53125 504.566406 408.136719 504.078125 C 408.136719 503.980469 408.039062 503.980469 408.039062 503.882812 C 407.746094 503.390625 407.351562 503 406.960938 502.605469 C 400.390625 493.882812 386.765625 494.277344 380.980469 503.882812 C 380.980469 503.980469 380.980469 503.980469 380.882812 504.078125 C 380.488281 504.566406 380 505.058594 379.707031 505.644531 C 378.429688 507.703125 378.039062 509.371094 377.546875 511.429688 C 374.902344 522.503906 382.746094 533.675781 394.507812 533.675781 C 405.097656 533.675781 412.453125 524.5625 411.863281 514.664062 C 411.765625 513.585938 411.765625 512.507812 411.472656 511.429688 C 410.882812 509.273438 410.492188 507.703125 409.3125 505.644531 Z M 382.941406 501.625 C 383.039062 501.625 383.039062 501.625 382.941406 501.625 C 383.921875 500.84375 384.902344 500.15625 385.785156 499.46875 C 384.804688 500.058594 383.824219 500.84375 382.941406 501.625 Z M 405.882812 501.527344 C 405.882812 501.527344 405.882812 501.625 405.980469 501.625 C 402.253906 498.785156 402.15625 498.785156 405.882812 501.527344 Z M 405.882812 501.527344 " fill-opacity="1" fill-rule="nonzero"/></svg>